<svg xmlns="http://www.w3.org/2000/svg" xmlns:xlink="http://www.w3.org/1999/xlink" width="400" height="400" viewBox="0 0 350 350"><use xlink:href="#I" opacity="0" fill="#fff"/><defs><path d="M397.52 337.83l-4.864-1.303c-1.196-.32-2.4-1.57-2.675-2.777l-.065-.284c-.275-1.206-1.478-2.455-2.675-2.776l-5.094-1.365c-1.195-.32-3.088-.146-4.205.387l-13.275 6.337c-1.117.535-3.012.71-4.205.4l-17.272-4.628c-6.458-1.908-12.166-.735-12.166-.735-1.228.158-3.135-.172-4.238-.735 0 0-7.037-3.077-14.234-14.44 0 0 1.066 10.847 6.853 19.107 1.16 1.652 1.238 2.1.496 3.088l-9.633 12.845c-.74.99-1.397 2.814-1.454 4.052l-.506 10.916c-.06 1.238.874 2.51 2.07 2.83l4.64 1.243c1.195.32 2.428-.364 2.738-1.52s-.33-2.564-1.42-3.126-1.825-2.02-1.63-3.243l.35-2.218c.193-1.226 1.25-2.7 2.34-3.28l8.998-4.777c1.093-.58 1.527-.155.96.947l-2.617 5.108c-.564 1.1-.783 2.985-.487 4.188l2.08 8.424c.296 1.202 1.523 2.423 2.724 2.713l4.787 1.155c1.202.29 2.12-.34 2.035-1.4s-.934-2.195-1.885-2.52-1.844-1.59-1.98-2.822l-.5-4.57c-.134-1.232.415-3.005 1.22-3.948l3.45-4.018c.803-.937 2.445-1.452 3.643-1.142l11.26 2.93c1.197.313 1.605 1.403.904 2.423l-10.66 15.55c-.7 1.023-.286 2.083.923 2.358l7.8 1.775c1.208.274 2.062-.33 1.898-1.348s-.976-2.385-1.806-3.045-.704-1.81.283-2.56l3.766-2.864c.987-.75 2.106-.4 2.487.78l3.283 10.138c.38 1.176 1.673 2.402 2.868 2.722l5.093 1.365c1.195.32 1.96-.408 1.703-1.62l-.25-1.16c-.26-1.212-1.342-2.435-2.405-2.72s-1.884-1.528-1.823-2.766l.64-12.83c.062-1.237.905-2.88 1.873-3.65l16.32-13.003c.967-.772 2.764-1.25 3.99-1.07l2.52.38c1.224.184 3.07-.227 4.1-.914l2.262-1.502c1.03-.685 2.093-2.067 2.362-3.07s-.49-2.082-1.688-2.403z" id="A" fill="#ec4a81"/><path d="M192.02 332.308c-1.283-.067-1.507-1.763-2.76-1.843-.66-.04-1.908-.1-2.993.296-1.21-.827-2.76-1.84-.493 2.106-.493 2.66-2.137 10.126-3.88 10.157s-2.892-3.154-4.372-3.122l-1.48.032c-1.742 0-2.89-3.08-6.41-3.187-2.203-.066-3.945 3.812-8.844 4.24-1.314.1-3.338.61-3.542 3.642 0 0-2.89 2.7-1.53 8.94.34-3.106.51-5.7 1.53-7.4-.076 1.696.453 3.34 0 5.098s-1.894 4.757-1.894 4.757-.316.623.478 2.776 2.38 7.482 2.38 7.482c.08.936.213 1.43.87 1.857-.165.623-.72 1.872 1.253 1.872h1.912c1.336 0 .9-1.148-1.257-2.202.066-.788-.427-1.61-.756-1.776-.788-2.005-1.808-5.847-1.808-5.847s-.363-3.355.887-4.474 2.76-2.167 3.78-5.882c.032-.264 1.742 1.316 5.162 2.3s6.042-.067 6.424.098 1.204 2.17 1.204 4.11-.7 3.22-.7 3.977.56 2.07.56 2.07.328 3.616-.1 5.655c-.296 1.28-.79 1.932 1.184 1.935s4.668.43 1.15-1.902c.295-.724.065-1.712-.264-2.07-.066-1.776.133-3.52.46-4.24s.1-2.794.165-3.845 1.02-4.832 2.07-6.18 5.72-5.326 6.5-9.205 1.644-7.827 3.946-7.792c1.38 0 1.6.788 2.202.756s1.644-1.016 1.644-1.543-.13-1.603-2.695-1.635z" id="B" fill="#ec4a81"/><path d="M203.346 150.376c-3.123-.82-2.478-2.48-3.82-2.97s-2-.352-2-.352-.136-2.546-2.844-1.778c0 0-5.313-5.43-10.676 2.625 0 0 .813-.553 1.524-.408s-4.832 2.595-6.077 7.637c1.423-1.15 1.74-.687 1.952.102.732 2.733-1.474 7.284-7.52 9.28-2.672.886-4.946-.088-11.302 1.615s-9.04 8.16-8.922 16.55-.585 9.74-2.572 10.27-4.56-1.487-5.147-4.04-.803-5.08.27-6.335-.8-3.29-2.547-1.532-1.5 5.196-.535 8.686 3.712 7.833 8.638 6.513 5.55-6.97 5.55-6.97 1.012 5.736 4.925 13.717c.15 1.167.175 3.058 3.25 2.194s3.862-1.237 3.322-2.945-1.567-1.637-2.357-1.426-1.933.76-2.234-.814-1.764-12.062 4.893-18.36c4.305.416 7.41 2.047 14.626-2.307.395-.188 1.856 1.958 2.642 4.893s4.943 5.45 6.488 8.662c.61 1.37-.227 5.02 2.707 4.234s4.7-.817 4.09-2.8-1.28-2.36-2.49-2.076-2.54-.001-2.962-2.63-2.918-8.93-1.723-11.994c.22-.543 5.7-1.41 7.346-7.49.602 1.494.544 3.683.544 3.683s4.644-6.283.864-12.566c-.414-.493.366-.742.92-.328-.464-1.73-2.476-3.53-2.476-3.53s-.273-1.016.964-.46 5.13 1.7 4.2-3.584c.607-.285 1.597-2.163-1.523-2.977z" id="C" fill="#ec4a81"/><path d="M103.328 74.95c.043-1.008-.297-2.05-.815-2.58.5-.667.77-1.66.453-2.426-.202-.487-.717-1.07-2.023-1.07l-.32.01c-.322-.81-1.12-1.386-1.97-1.386-.44 0-1.238.158-1.89 1.165-.08-.014-.168-.02-.264-.02-.618 0-1.777.345-2.25 1.267-.256.5-.386 1.336.386 2.516-.408.624-1.6 2.648-2.8 6.437-.504 1.59-2.212 5.286-7.194 5.286-3.73 0-8.38-2.092-13.818-6.22-.06-.047-.135-.072-.212-.072-.028 0-.056.004-.083.01a.35.35 0 0 0-.234.188c-.05.105-1.143 2.525 2.912 6.656-.66.14-1.3.48-1.52 1.127-.278.81.21 1.77 1.454 2.846-.305.137-.58.34-.7.685-.24.64.08 1.57 1.074 3.1 1.545 2.4 5.082 7.875 13.453 8.326-.003.033-.01.066-.01.1v4.13h-1.45a1.23 1.23 0 0 0 0 2.462h7.47a1.23 1.23 0 0 0 0-2.462H89.4v-4.13c0-.036-.008-.07-.012-.104 3.43-.206 6.365-1.2 8.55-2.94 2.533-2.003 3.872-4.836 3.872-8.196-.04-1.906-.295-3.135-.543-4.327-.257-1.233-.5-2.397-.52-4.29-.02-.83.247-1.955.88-2.602.325-.333.716-.5 1.163-.5.458 0 .982.172 1.556.51.054.033.117.05.18.05a.37.37 0 0 0 .154-.036.35.35 0 0 0 .195-.269c.01-.074.214-1.762-1.547-3.255z" id="D" fill="#ec4a81"/><path d="M107.625 265.506c1.5-4.414-1.548-16.144-5.304-17.537s-6.155-1.55-6.155-1.55-10.158-5.48-12.57 3.2c0 0-6.583.246-12.125 6.445-5.472 1.202-9.03 7.275-8.97 8.793.486-.083 2.346-1.022 2.346-1.022.98-2.983 2.875-3.563 3.507-3.5l.158-.115c-2.548 4.507-4.425 10.92-4.545 20.064h7.028s-.034-1.55-1.06-2.64c.825-3 1.9-6.655 2.503-6.496s-.45 9.137-.45 9.137h7.03s-.034-1.537-1.05-2.626c.117-5.7 1.952-8.667 7.427-7.817 1.348.21-2.55 10.443-2.55 10.443h7.954s-.05-2.263-1.84-3.242c.038-1.098.343-4.287 1.24-4.35s3.753 7.592 3.753 7.592h6.553s-.065-3.092-2.902-3.613c-.416-.93-.693-1.847-1.006-2.843-.698-2.206-2.634-9.136-2.634-9.136s-.183-.83.735-1.24c1.312-.59 1.51-.62 1.82 0s.734 1.123 1.432.814 1.006-.117 1.394.387 2.903 3.136 2.903 3.136a7.55 7.55 0 0 0 .18.152c.14.157.275.435.013.815-.425.62-.658.853-1.083.89s-1.277-.233-.852-.658.155-.774-.3-1.24-1.007-.89-1.432.078-2.167 4.838 2.246 4.685c1.74-.09 3.208-.99 4.43-2.615 1.984 1.004 4.614 1.8 7.063.787-2.606-.562-4.406-1.05-6.058-2.387a19.31 19.31 0 0 0 1.184-2.791z" id="E" fill="#ec4a81"/><path d="M292.36 241.783c-.2-2.602-3.106-5.3-6.112-5.51s-5.915.102-4.11 2.204 2.405 4.11 1.504 3.812c-.904-.305-4.5-2.407-15.334-.702-1.403.398-7.215-4.312-15.133-4.412s-13.73 2.157-22.047 24.58c-.8 1.98-6.414 6.59-9.42 8.793-3.005 2.21-4.205 4.677-4.207 9.088-.006 6.173 8.817 9.243 27.758 9.142s28.964-3.192 28.964-3.192c-21.347 2.303-54.024 3.577-54.024-6.353 0-7.017 9.628-9.68 12.335-9.582s4.61 4.31 11.324 1.905c1.104-.1.503 1.504-.4 2.505s-.2 2.205 3.308 2.205h16.22c2.22-.102 4.025-4.01-3.2-4.31-6.306.106 4.088-1.963 5.41-7.416.24-1.335 3.005-1.407 5.412-1.4 7.064.01 11.724 12.985 13.23 13.034s6.112.55 6.012-1.453-3.907-1.102-4.7-2.205-3.408-5.27-2.504-7.175 4.31-7.217 8.317-7.815c4.008-.604 14.432 2.503 16.135 0s-2.306-3.914-5.412-9.727c-1.302-2.904-3.006-5.91-9.32-6.013z" id="F" fill="#ec4a81"/><path d="M246.924 99.206c1.74-.066 2.935-1.574 3.124-1.72s.168.21.063.565-.798 2.263-2.957 2.893c-1.28.343-1.44 1.177-1.258 1.824.2.67 1.224 1.507 2.532 1.308 1.97-.297 5.374-1.92 6.377-7.43.412-2.266 1.1-2.893 1.383-2.872s.608.546.524 2.43-.084 5.68-1.928 8.154c-.462.503-1.11 2.033.042 2.746s2.39.147 3.647-1.633 2.638-10.805 4.028-10.817c1.39.012 2.77 9.035 4.027 10.817s2.495 2.346 3.648 1.633.502-2.242.042-2.746c-1.845-2.473-1.845-6.267-1.93-8.154s.23-2.41.524-2.43.97.606 1.383 2.872c1.003 5.5 4.406 7.132 6.378 7.43 1.307.198 2.342-.637 2.53-1.308.182-.647.023-1.48-1.258-1.824-2.16-.63-2.85-2.537-2.956-2.893s-.126-.712.062-.565 1.386 1.654 3.125 1.72c3.85.144 4.443-3.185 4.422-5.093s-1.45-3.19-2.39-3.813c-.84-.558-1.26-.387-1.506.028-.105.175-.212.845.123 1.124.383.32 1.405 1.1 1.383 2.18s-.817 2.18-2.085 2.182c-2.4.001-5.074-5.204-4.88-5.6.847-1.426 3.542-2.11 3.453-2.78-.446-2.273-5.447-.262-6.115-.352-.274-.036-.312-.5-.312-.5-.09-3.165 2.37-4.153 2.37-9.772 0-1.963-1.873-9.23-10.04-9.23s-10.04 7.266-10.04 9.23c0 5.62 2.46 6.607 2.37 9.772 0 0-.038.454-.312.5-.67.1-5.668-1.922-6.114.352-.1.668 2.604 1.353 3.452 2.78.194.395-2.47 5.6-4.88 5.6-1.268-.001-2.064-1.092-2.086-2.182s1-1.86 1.383-2.18c.335-.28.227-.95.123-1.124-.248-.414-.668-.586-1.506-.028-.94.624-2.37 1.905-2.4 3.813s.573 5.237 4.423 5.093z" id="G" fill="#ec4a81"/><path d="M342.197 209.047c39.98 6.054 41.386-18.72 41.386-18.72 1.554-17.737-16.61-22.945-22.097-32.8-5.494-9.85 7.245-11.33 6.47-4.993-.77 6.328 2.958 7.46 3.17 7.953s5.627 5.913 6.403 4.894c.772-1.026-2.217-4.894-2.217-4.894s2.32-1.342 3.198-4.365c2.535-6.9-10-23.508-23.22-12.39-12.954 11.967 4.357 24.923 8.868 31.395 4.505 6.474 4.34 11.36 1.545 12.247-2.856.903-5.085-1.94-6.257-6.34-1.09-4.102-8.302-17.31-23.65-13.094-11.4 3.665-10.068 8.167-19.223 5.633-3.234 30.828 25.622 35.474 25.622 35.474z" id="H" fill="#ec4a81"/><path id="I" d="M0 0h350v350H0z"/></defs><pattern id="J" width="350" height="350" patternUnits="userSpaceOnUse"><use xlink:href="#A" x="-350" y="-350"/><use xlink:href="#A" y="-350"/><use xlink:href="#A" x="350" y="-350"/><use xlink:href="#A" x="-350"/><use xlink:href="#A"/><use xlink:href="#A" x="350"/><use xlink:href="#A" x="-350" y="350"/><use xlink:href="#A" y="350"/><use xlink:href="#A" x="350" y="350"/></pattern><use xlink:href="#I" fill="url(#J)"/><pattern id="K" width="350" height="350" patternUnits="userSpaceOnUse"><use xlink:href="#B" x="-350" y="-350"/><use xlink:href="#B" y="-350"/><use xlink:href="#B" x="350" y="-350"/><use xlink:href="#B" x="-350"/><use xlink:href="#B"/><use xlink:href="#B" x="350"/><use xlink:href="#B" x="-350" y="350"/><use xlink:href="#B" y="350"/><use xlink:href="#B" x="350" y="350"/></pattern><use xlink:href="#I" fill="url(#K)"/><pattern id="L" width="350" height="350" patternUnits="userSpaceOnUse"><use xlink:href="#C" x="-350" y="-350"/><use xlink:href="#C" y="-350"/><use xlink:href="#C" x="350" y="-350"/><use xlink:href="#C" x="-350"/><use xlink:href="#C"/><use xlink:href="#C" x="350"/><use xlink:href="#C" x="-350" y="350"/><use xlink:href="#C" y="350"/><use xlink:href="#C" x="350" y="350"/></pattern><use xlink:href="#I" fill="url(#L)"/><pattern id="M" width="350" height="350" patternUnits="userSpaceOnUse"><use xlink:href="#D" x="-350" y="-350"/><use xlink:href="#D" y="-350"/><use xlink:href="#D" x="350" y="-350"/><use xlink:href="#D" x="-350"/><use xlink:href="#D"/><use xlink:href="#D" x="350"/><use xlink:href="#D" x="-350" y="350"/><use xlink:href="#D" y="350"/><use xlink:href="#D" x="350" y="350"/></pattern><use xlink:href="#I" fill="url(#M)"/><pattern id="N" width="350" height="350" patternUnits="userSpaceOnUse"><use xlink:href="#E" x="-350" y="-350"/><use xlink:href="#E" y="-350"/><use xlink:href="#E" x="350" y="-350"/><use xlink:href="#E" x="-350"/><use xlink:href="#E"/><use xlink:href="#E" x="350"/><use xlink:href="#E" x="-350" y="350"/><use xlink:href="#E" y="350"/><use xlink:href="#E" x="350" y="350"/></pattern><use xlink:href="#I" fill="url(#N)"/><pattern id="O" width="350" height="350" patternUnits="userSpaceOnUse"><use xlink:href="#F" x="-350" y="-350"/><use xlink:href="#F" y="-350"/><use xlink:href="#F" x="350" y="-350"/><use xlink:href="#F" x="-350"/><use xlink:href="#F"/><use xlink:href="#F" x="350"/><use xlink:href="#F" x="-350" y="350"/><use xlink:href="#F" y="350"/><use xlink:href="#F" x="350" y="350"/></pattern><use xlink:href="#I" fill="url(#O)"/><pattern id="P" width="350" height="350" patternUnits="userSpaceOnUse"><use xlink:href="#G" x="-350" y="-350"/><use xlink:href="#G" y="-350"/><use xlink:href="#G" x="350" y="-350"/><use xlink:href="#G" x="-350"/><use xlink:href="#G"/><use xlink:href="#G" x="350"/><use xlink:href="#G" x="-350" y="350"/><use xlink:href="#G" y="350"/><use xlink:href="#G" x="350" y="350"/></pattern><use xlink:href="#I" fill="url(#P)"/><pattern id="Q" width="350" height="350" patternUnits="userSpaceOnUse"><use xlink:href="#H" x="-350" y="-350"/><use xlink:href="#H" y="-350"/><use xlink:href="#H" x="350" y="-350"/><use xlink:href="#H" x="-350"/><use xlink:href="#H"/><use xlink:href="#H" x="350"/><use xlink:href="#H" x="-350" y="350"/><use xlink:href="#H" y="350"/><use xlink:href="#H" x="350" y="350"/></pattern><use xlink:href="#I" fill="url(#Q)"/></svg>