<svg xmlns="http://www.w3.org/2000/svg" xmlns:xlink="http://www.w3.org/1999/xlink" width="400" height="400" viewBox="0 0 350 350"><style><![CDATA[.B{fill:#ec4a81}]]></style><use xlink:href="#K" opacity="0" fill="#fff"/><defs><path d="M79.063 348.203a.391.391 0 1 1-.781 0 .391.391 0 1 1 .781 0zm-1.173 6.094h3.036l-.3 5.3a.39.39 0 0 0 .39.413h10.938a.39.39 0 0 0 .39-.413l-.3-5.3h3.036a.39.39 0 0 0 .387-.445l-1.563-11.172a.39.39 0 0 0-.242-.309l-4.036-1.614c-.152-.22-.377-.386-.637-.463-.63-.187-1.543-.295-2.504-.295s-1.868.107-2.498.293a1.19 1.19 0 0 0-.638.462l-4.04 1.616a.39.39 0 0 0-.242.309l-.55 3.924a.39.39 0 0 0 .333.441l.054.004a.39.39 0 0 0 .387-.337l.517-3.7 3.36-1.344a1.18 1.18 0 0 0 .067.21l2.858 6.715-.75 1.802a.39.39 0 0 0-.03.15v1.406h-3.47l.345-6.072a.391.391 0 1 0-.78-.044l-.303 5.335H78.67l.2-1.365a.391.391 0 1 0-.774-.108l-.58 4.153a.39.39 0 0 0 .387.445zm8.203 4.922v-4.922h.78v2.734a.39.39 0 0 0 .391.391h1.563a.39.39 0 0 0 .391-.391v-.4H90.4a.39.39 0 0 0 .391-.391v-1.953h.48l.28 4.922zm1.563-2.578v-3.906h.78v3.906zM90 354.297v1.563h-.78v-1.563zm-.78-.78v-.78h1.953l.044.78zm5.4 0H92l-.1-1.563h2.5zm-4.888-11.644a1.21 1.21 0 0 0 .063-.202l3.356 1.342 1.14 8.16h-2.436l-.303-5.335a.391.391 0 1 0-.78.044l.345 6.072h-5.033v-1.328zm-5.786-.3a.39.39 0 0 1 .253-.53c.56-.166 1.4-.26 2.277-.26s1.72.096 2.28.262a.39.39 0 0 1 .254.528l-2.506 6.014zm-2.157 11.16h5.078v.78h-5.122zm-.1 1.563h3.604v4.922H81.43zm-3.15-2.344h2.5l-.1 1.563h-2.63zm0 0" id="A" class="B"/><g id="B" class="B"><path d="M158.906 352.344h10.938a.78.78 0 0 0 .781-.781v-9.844a.78.78 0 0 0-.781-.781h-10.937a.78.78 0 0 0-.781.781v9.844a.78.78 0 0 0 .781.781zm.78-9.844h9.375v8.28h-9.375zm-.78 14.53h10.938a.781.781 0 1 0 0-1.562h-10.937a.781.781 0 1 0 0 1.563zm0 0"/><path d="M158.906 360.156h10.938a.781.781 0 1 0 0-1.562h-10.937a.781.781 0 1 0 0 1.563zm33.75-25.468h-15c-1.292 0-2.344 1.05-2.344 2.344v3.125c0 1.292 1.05 2.344 2.344 2.344h1.25v.78c0 1.292 1.05 2.344 2.344 2.344h1.3l.257 4.53c.066 3.612-.195 7.296-.755 10.655l-.783 5.168a.76.76 0 0 0-.01.117 3.91 3.91 0 0 0 3.906 3.906 3.91 3.91 0 0 0 3.906-3.906.65.65 0 0 0-.01-.117l-.783-5.168c-.56-3.36-.82-7.043-.755-10.655a58.28 58.28 0 0 1 .257-4.53h1.3c1.292 0 2.344-1.05 2.344-2.344v-.78h1.25c1.292 0 2.344-1.05 2.344-2.344v-3.125c0-1.292-1.05-2.344-2.344-2.344zm-7.5 33.75c-1.274 0-2.314-1.022-2.343-2.3l.77-5.088c.554-3.325.822-6.957.78-10.53a1.56 1.56 0 0 1 1.584 0c-.042 3.574.226 7.206.78 10.53l.77 5.088a2.35 2.35 0 0 1-2.343 2.29zm-1.047-22.813h2.095a58.28 58.28 0 0 0-.214 3.24 3.15 3.15 0 0 0-.833-.113c-.283 0-.564.04-.833.113-.042-1.096-.114-2.18-.214-3.24zm5.735-2.343a.78.78 0 0 1-.781.781h-7.812a.78.78 0 0 1-.781-.781v-.78h9.375zm3.594-3.125a.78.78 0 0 1-.781.781h-15a.78.78 0 0 1-.781-.781v-.78h16.563zm0-2.344h-16.562v-.78a.78.78 0 0 1 .781-.781h15a.78.78 0 0 1 .781.781zm0 0"/><path d="M156.563 351.563a.781.781 0 1 1-1.562 0 .781.781 0 1 1 1.563 0zm17.187 16.093v-27.5a3.91 3.91 0 0 0-3.906-3.906h-.78v-.78c0-1.292-1.05-2.344-2.344-2.344v-2.344a.78.78 0 0 0-.781-.781h-3.125a.78.78 0 0 0-.781.781v2.344c-1.292 0-2.344 1.05-2.344 2.344v.78h-.78a3.91 3.91 0 0 0-3.906 3.906v8.28a.782.782 0 1 0 1.563 0v-8.28c0-1.292 1.05-2.344 2.344-2.344h10.938c1.292 0 2.344 1.05 2.344 2.344v27.5a.78.78 0 0 1-.781.781H157.35a.78.78 0 0 1-.781-.781v-12.97a.781.781 0 1 0-1.562 0v12.97c0 1.292 1.05 2.344 2.344 2.344h14.063c1.292 0 2.344-1.05 2.344-2.344zm-10.156-36.094h1.563v1.563h-1.562zm3.906 4.688h-6.25v-.78a.78.78 0 0 1 .781-.781h4.688a.78.78 0 0 1 .781.781zm0 0"/></g><g id="C" class="B"><path d="M262.5 343.906c1.36 0 2.734-.362 2.734-1.172s-1.373-1.172-2.734-1.172-2.734.362-2.734 1.172 1.373 1.172 2.734 1.172zm0-1.563c1.08 0 1.735.246 1.918.4-.183.144-.838.4-1.918.4s-1.735-.246-1.918-.4c.183-.144.838-.4 1.918-.4zm-2.344 4.807a.39.39 0 0 0-.391.391v.78a.391.391 0 1 0 .781 0v-.78a.39.39 0 0 0-.391-.391zm0 0"/><path d="M255.234 356.758a.39.39 0 0 0 .391-.391v-.78a.391.391 0 1 0-.781 0v.78a.39.39 0 0 0 .391.391zm12.344-8.702v-5.32c0-1.96-3.107-2.734-5.078-2.734-1.987 0-5.078.78-5.078 2.734v5.32c-1.94.078-4.922.898-4.922 2.726v3.242a.391.391 0 1 0 .781 0v-1.783c.448.376 1.014.644 1.563.832v.952a.391.391 0 1 0 .781 0v-.732a9.47 9.47 0 0 0 2.07.224c1.826 0 3.493-.5 4.414-1.257v5.008c0 1.34-2.9 1.953-4.414 1.953-.718 0-1.428-.085-2.07-.247v-1.042a.391.391 0 1 0-.781 0v.794c-.964-.38-1.563-.926-1.563-1.458v-.117a.391.391 0 1 0-.781 0v.117c0 1.962 3.13 2.734 5.195 2.734 1.598 0 3.85-.453 4.805-1.676.97 1.242 3.198 1.676 4.804 1.676 1.983 0 5.195-.785 5.195-2.734v-6.484c0-1.826-2.977-2.648-4.922-2.726zm-.47 2.336l.196-.001c1.03 0 1.78.228 2.018.4-.237.162-.988.4-2.018.4-.4 0-.753-.032-1.064-.082a3.3 3.3 0 0 0 .868-.698zm-4.6-9.6c1.624 0 4.297.644 4.297 1.953 0 1.37-2.826 1.953-4.297 1.953-2.333 0-4.297-.922-4.297-1.953 0-1.37 2.826-1.953 4.297-1.953zm-4.6 9.6a3.3 3.3 0 0 0 .868.698 6.77 6.77 0 0 1-1.064.082c-1.03 0-1.78-.228-2.018-.4.237-.162.988-.4 2.018-.4l.196.001zm-.196 2.343c-1.622 0-4.414-.657-4.414-1.953 0-1.283 2.858-1.9 4.14-1.944v.382a1.6 1.6 0 0 0 .049.395c-1.02.035-2.628.307-2.628 1.168 0 .927 1.865 1.172 2.852 1.172.872 0 1.707-.144 2.206-.373a8.22 8.22 0 0 0 1.404.3c-.826.517-2.2.855-3.6.855zm4.805-1.563c-.642 0-1.315-.07-1.953-.224v-1.065a.391.391 0 1 0-.781 0v.822c-.663-.258-1.563-.784-1.563-1.486v-5c.4.332.92.616 1.563.83v.925a.391.391 0 1 0 .781 0v-.7c.614.134 1.28.203 1.953.203 1.437 0 3.222-.338 4.297-1.25v5c0 .763-1.052 1.32-1.8 1.57-.786.267-1.674.384-2.508.384zm9.22 6.094c0 1.34-2.9 1.953-4.414 1.953-.718 0-1.428-.085-2.07-.247v-1.042a.391.391 0 1 0-.781 0v.794c-.964-.38-1.563-.926-1.563-1.458v-5.008c.397.332.934.6 1.563.822v.943a.391.391 0 1 0 .781 0v-.728a9.61 9.61 0 0 0 2.07.22c1.466 0 3.314-.352 4.414-1.276zm-4.414-4.53c-1.422 0-2.785-.338-3.6-.856a8.15 8.15 0 0 0 1.405-.299c.5.23 1.333.373 2.206.373.986 0 2.852-.245 2.852-1.172 0-.86-1.608-1.133-2.628-1.168a1.6 1.6 0 0 0 .049-.395v-.382c1.282.055 4.14.66 4.14 1.944 0 1.34-2.9 1.953-4.414 1.953zm0 0"/><path d="M264.844 355.196a.39.39 0 0 0-.391.391v.78a.391.391 0 1 0 .781 0v-.78a.39.39 0 0 0-.391-.391zm-11.564.4a.391.391 0 1 1-.781 0 .391.391 0 1 1 .781 0zm0 0"/></g><g id="D" class="B"><path d="M76.875 74.53a.781.781 0 1 1-1.562 0 .782.782 0 1 1 1.563 0zm-3.125-6.25a.781.781 0 1 1-1.562 0 .782.782 0 1 1 1.563 0zm-4.687 12.5a.781.781 0 1 1-1.562 0 .781.781 0 1 1 1.563 0zm28.28 5.47H80.78c-1.292 0-2.344 1.05-2.344 2.344v4.688c0 1.292 1.05 2.344 2.344 2.344h1.563a.781.781 0 1 0 0-1.562H80.78a.78.78 0 0 1-.781-.781v-4.687a.78.78 0 0 1 .781-.781h16.563a.78.78 0 0 1 .781.781v4.688a.78.78 0 0 1-.781.781h-8.75a.782.782 0 1 0 0 1.563h8.75c1.292 0 2.344-1.05 2.344-2.344v-4.687c0-1.292-1.05-2.344-2.344-2.344zm0 0"/><path d="M67.5 73.75a3.13 3.13 0 0 0 3.125 3.125 3.13 3.13 0 0 0 3.125-3.125 3.13 3.13 0 0 0-3.125-3.125A3.13 3.13 0 0 0 67.5 73.75zm4.688 0c0 .862-.7 1.563-1.562 1.563s-1.562-.7-1.562-1.562.7-1.562 1.563-1.562 1.563.7 1.563 1.563zM102.03 80c-1.022 0-2.27.236-3.852.535-2.42.458-5.432 1.027-9.117 1.027a49.64 49.64 0 0 1-3.046-.102A4.68 4.68 0 0 0 86.25 80c0-2.585-2.103-4.687-4.687-4.687S76.875 77.415 76.875 80l.001.04-.782-.04c-2.05 0-3.836 1.184-4.78 3.127a3.91 3.91 0 0 0-3.815 3.904c0 1.886 1.344 3.465 3.125 3.828v4.82c0 3.533 2.35 6.197 5.47 6.197 1.017 0 2.263-.228 3.842-.516 2.424-.443 5.44-.993 9.127-.993s6.703.55 9.127.993l3.842.516c3.118 0 5.47-2.664 5.47-6.197v-9.43c0-3.683-2.484-6.25-5.47-6.25zm-20.47-3.125A3.13 3.13 0 0 1 84.688 80a3.13 3.13 0 0 1-3.125 3.125c-1.74 0-3.125-1.4-3.125-3.125a3.13 3.13 0 0 1 3.125-3.125zM69.06 87.03c0-1.292 1.05-2.344 2.344-2.344 1.314 0 2.344 1.074 2.344 2.344 0 1.292-1.05 2.344-2.344 2.344s-2.344-1.05-2.344-2.344zm36.875 8.647c0 2.642-1.68 4.634-3.906 4.634-.875 0-2.06-.216-3.56-.5-2.486-.454-5.58-1.02-9.407-1.02s-6.922.565-9.407 1.02l-3.56.5c-2.227 0-3.906-1.992-3.906-4.634v-4.82c1.78-.363 3.125-1.94 3.125-3.828a3.92 3.92 0 0 0-2.386-3.598c.712-1.172 1.87-1.87 3.167-1.87a8.11 8.11 0 0 1 1.08.085c.677 1.814 2.412 3.04 4.388 3.04a4.68 4.68 0 0 0 3.63-1.72l3.87.16c3.832 0 6.923-.585 9.407-1.054l3.56-.508c2.227 0 3.906 2.015 3.906 4.688zm-19.685-.834a.781.781 0 1 1-1.562 0 .782.782 0 1 1 1.563 0zm0 0"/></g><path d="M246.406 107.5h12.5c1.886 0 3.465-1.344 3.828-3.125h2.422a5.48 5.48 0 0 0 5.47-5.47V91.72a5.48 5.48 0 0 0-5.47-5.47h-2.344v-2.344a.78.78 0 0 0-.781-.781h-7.15a10.46 10.46 0 0 0-1.402-1.711A5.25 5.25 0 0 1 252.461 80h3.32a.78.78 0 0 0 .781-.781v-9.375a.78.78 0 0 0-.781-.781h-4.04c-.323-.9-1.2-1.562-2.2-1.562-1.292 0-2.344 1.05-2.344 2.344v7.623a10.32 10.32 0 0 0 1.682 5.658h-5.6a.78.78 0 0 0-.781.781v6.72a.782.782 0 1 0 1.563 0V84.7h17.188v18.906c0 1.292-1.05 2.344-2.344 2.344h-12.5c-1.292 0-2.344-1.05-2.344-2.344v-6.72a.781.781 0 1 0-1.562 0v6.72a3.91 3.91 0 0 0 3.906 3.906zm16.406-16.562h2.344a.78.78 0 0 1 .781.781v7.188a.78.78 0 0 1-.781.781h-2.344zm0 10.313h2.344c1.292 0 2.344-1.05 2.344-2.344V91.72c0-1.292-1.05-2.344-2.344-2.344h-2.344v-1.562h2.344a3.91 3.91 0 0 1 3.906 3.906v7.188a3.91 3.91 0 0 1-3.906 3.906h-2.344zm-10.937-30.625H255v1.563h-3.125zm0 3.125H255v1.563h-3.125zm0 3.125H255v1.563h-3.044a5.84 5.84 0 0 1-.081-.97zm-1.06 6.25a8.75 8.75 0 0 1-2.065-5.658v-7.623a.781.781 0 1 1 1.563 0v7.623c0 1.928.75 3.758 2.068 5.06l.554.598zm-6.752 10.624a.781.781 0 1 1-1.562 0 .781.781 0 1 1 1.563 0zm0 0" id="E" class="B"/><g id="F" class="B"><path d="M366.953 173.223c0-.755-.612-1.367-1.367-1.367s-1.367.612-1.367 1.367c0 4.523-3.68 8.203-8.203 8.203-.755 0-1.367.612-1.367 1.367s.612 1.367 1.367 1.367c6.03 0 10.938-4.906 10.938-10.938zM338.47 186.55c-.723 1.1-7.063 10.768-7.063 14.838 0 4.67 3.757 8.613 8.203 8.613s8.203-3.945 8.203-8.613c0-4.07-6.34-13.748-7.063-14.838a1.37 1.37 0 0 0-2.279 0zm6.608 14.838c0 3.132-2.555 5.88-5.47 5.88s-5.47-2.747-5.47-5.88c0-2.107 3.003-7.606 5.47-11.553 2.466 3.948 5.47 9.446 5.47 11.553zm-20.508-38.693a1.35 1.35 0 0 0-1.125.6c-.865 1.25-8.446 12.366-8.446 17.183 0 5.277 4.293 9.57 9.57 9.57s9.57-4.293 9.57-9.57c0-4.818-7.58-15.932-8.446-17.183-.255-.37-.676-.6-1.125-.6zm0 24.6c-3.77 0-6.836-3.067-6.836-6.836 0-2.644 3.823-9.357 6.836-13.955 3.013 4.598 6.836 11.3 6.836 13.955 0 3.77-3.067 6.836-6.836 6.836zm17.774-15.45c0 .755-.612 1.367-1.367 1.367s-1.367-.612-1.367-1.367.612-1.367 1.367-1.367 1.367.612 1.367 1.367zm0 0"/><path d="M357.168 140.63a1.37 1.37 0 0 0-2.305 0c-.394.617-9.687 15.218-13.566 25.512-.266.707.09 1.495.797 1.76s1.495-.1 1.76-.797c2.988-7.93 9.516-18.862 12.164-23.163 4.674 7.56 13.668 23.33 13.668 29.278a13.69 13.69 0 0 1-13.672 13.672 13.72 13.72 0 0 1-13.165-9.968 1.37 1.37 0 0 0-1.686-.947 1.37 1.37 0 0 0-.947 1.686c1.978 7.044 8.474 11.963 15.797 11.963 9.046 0 16.406-7.36 16.406-16.406 0-7.536-11.354-26.494-15.254-32.59zm0 0"/></g><g id="G" class="B"><path d="M198.56 183.7c.195.73-.237 1.48-.967 1.674s-1.48-.237-1.674-.967.237-1.48.967-1.674 1.48.237 1.674.967zm-13.206 3.54c.195.73-.237 1.48-.967 1.674s-1.48-.237-1.674-.967.237-1.48.967-1.674 1.48.237 1.674.967zm-13.206 3.538c.195.73-.237 1.48-.967 1.674s-1.48-.237-1.674-.967.237-1.48.967-1.674 1.48.237 1.674.967zm-32.514-28.372l2.113-.566 10.686 39.882c.585 2.185 2.84 3.486 5.023 2.9l9.244-2.477 1.77 6.603c.585 2.185 2.84 3.486 5.023 2.9l31.694-8.492c2.185-.585 3.486-2.84 2.9-5.023l-13.517-50.447 4.754-1.274c2.185-.585 3.486-2.84 2.9-5.023a4.11 4.11 0 0 0-5.023-2.9l-4.887 1.3a6.85 6.85 0 0 0-7.885-3.55l-38.297 10.27a8.23 8.23 0 0 0-6.056 7.284l-2.565.687c-2.185.585-3.486 2.84-2.9 5.023a4.11 4.11 0 0 0 5.023 2.9zm53.522-20.003l4.754-1.274a1.37 1.37 0 0 1 1.674.967 1.37 1.37 0 0 1-.967 1.674l-4.754 1.274zm12.3 56.437a1.37 1.37 0 0 1-.967 1.674l-31.694 8.492a1.37 1.37 0 0 1-1.674-.967l-.5-1.825 3.483-3.1 6.7.8a1.37 1.37 0 0 0 .981-.263l5.457-4.083 6.768.807a1.37 1.37 0 0 0 .981-.263l5.403-4.043 4.56.933zm-1.28-4.778l-3.823-.783a1.37 1.37 0 0 0-1.093.245l-5.457 4.083-6.768-.807a1.37 1.37 0 0 0-.981.263l-5.457 4.083-6.768-.807a1.37 1.37 0 0 0-1.07.335l-2.92 2.6-.624-2.33 3.483-3.1 6.7.8a1.37 1.37 0 0 0 .981-.263l5.457-4.083 6.768.807a1.37 1.37 0 0 0 .981-.263l5.403-4.043 4.56.933zm-51.32-46.52l32.3-8.652c2.185-.585 4.438.716 5.023 2.9l12.6 47-3.823-.783a1.37 1.37 0 0 0-1.093.245l-5.457 4.083-6.768-.807a1.37 1.37 0 0 0-.981.263l-5.457 4.083-6.768-.807a1.37 1.37 0 0 0-1.07.335l-2.92 2.6-4.594-17.144a1.37 1.37 0 0 0-1.674-.967 1.37 1.37 0 0 0-.967 1.674l4.812 17.96-9.244 2.477a1.37 1.37 0 0 1-1.674-.967l-10.686-39.882 10.565-2.83 3.397 12.678c.195.73.945 1.162 1.674.967a1.37 1.37 0 0 0 .967-1.674l-5.166-19.28c-.18-.67-1.274-2.36-2.977-3.45zm-6.007 1.6a5.73 5.73 0 0 1 5.393 1.386l-9.26 2.482a5.49 5.49 0 0 1 3.868-3.867zm-8.623 7.972l15.32-4.105.708 2.64-15.32 4.105a1.37 1.37 0 0 1-1.674-.967 1.37 1.37 0 0 1 .967-1.674zm0 0"/><path d="M162.407 175.544c.195.73-.237 1.48-.967 1.674s-1.48-.237-1.674-.967.237-1.48.967-1.674 1.48.237 1.674.967zm0 0"/></g><g id="H" class="B"><path d="M74.195 255.664h19.53c.54 0 .977-.437.977-.977a10.76 10.76 0 0 0-10.742-10.742 10.76 10.76 0 0 0-10.742 10.742c0 .54.437.977.977.977zm7.004-1.953c.403-1.137 1.5-1.953 2.762-1.953s2.36.816 2.762 1.953zm2.762-7.812c4.516 0 8.248 3.424 8.735 7.812h-3.95a4.91 4.91 0 0 0-3.808-3.808v-1.075c0-.54-.437-.977-.977-.977s-.977.437-.977.977v1.075a4.91 4.91 0 0 0-3.808 3.808h-3.95c.488-4.388 4.22-7.812 8.735-7.812zm.976 34.47v-17.578c0-.54-.437-.977-.977-.977s-.977.437-.977.977v17.578c0 .54.437.977.977.977s.977-.437.977-.977zm0 0"/><path d="M73.22 283.3a5.87 5.87 0 0 0 5.859-5.859v-9.766a5.86 5.86 0 0 0-5.859-5.859 5.87 5.87 0 0 0-5.859 5.859v9.766a5.87 5.87 0 0 0 5.859 5.859zm-3.906-15.625a3.91 3.91 0 0 1 3.906-3.906c2.158 0 3.906 1.75 3.906 3.906v9.766a3.91 3.91 0 0 1-3.906 3.906 3.91 3.91 0 0 1-3.906-3.906zm31.248 9.765v-9.766a5.86 5.86 0 0 0-5.859-5.859 5.87 5.87 0 0 0-5.859 5.859v9.766a5.87 5.87 0 0 0 5.859 5.859 5.87 5.87 0 0 0 5.859-5.859zm-9.766 0v-9.766a3.91 3.91 0 0 1 3.906-3.906c2.158 0 3.906 1.75 3.906 3.906v9.766a3.91 3.91 0 0 1-3.906 3.906 3.91 3.91 0 0 1-3.906-3.906zm-18.554 1.954h1.953c.54 0 .977-.437.977-.977s-.437-.977-.977-.977h-1.953c-.54 0-.977.437-.977.977s.437.977.977.977zm0-3.906h1.953c.54 0 .977-.437.977-.977s-.437-.977-.977-.977h-1.953c-.54 0-.977.437-.977.977s.437.977.977.977zm0 0"/><path d="M72.242 267.676h1.953c.54 0 .977-.437.977-.977s-.437-.977-.977-.977h-1.953c-.54 0-.977.437-.977.977s.437.977.977.977zm0 3.906h1.953c.54 0 .977-.437.977-.977s-.437-.977-.977-.977h-1.953c-.54 0-.977.437-.977.977s.437.977.977.977zm24.414 6.836c0-.54-.437-.977-.977-.977h-1.953c-.54 0-.977.437-.977.977s.437.977.977.977h1.953c.54 0 .977-.437.977-.977zm-2.93-2.93h1.953c.54 0 .977-.437.977-.977s-.437-.977-.977-.977h-1.953c-.54 0-.977.437-.977.977s.437.977.977.977zm0 0"/><path d="M93.726 267.676h1.953c.54 0 .977-.437.977-.977s-.437-.977-.977-.977h-1.953c-.54 0-.977.437-.977.977s.437.977.977.977zm0 3.906h1.953c.54 0 .977-.437.977-.977s-.437-.977-.977-.977h-1.953c-.54 0-.977.437-.977.977s.437.977.977.977zm-30.273-6.836c0 .54-.437.977-.977.977s-.977-.437-.977-.977.437-.977.977-.977.977.437.977.977zM61.5 280.664c0 3.77 3.067 6.836 6.836 6.836h31.25c3.77 0 6.836-3.067 6.836-6.836v-36.328c0-3.77-3.067-6.836-6.836-6.836h-31.25c-3.77 0-6.836 3.067-6.836 6.836v16.504c0 .54.437.977.977.977s.977-.437.977-.977v-16.504c0-2.358 1.68-4.33 3.906-4.784v15.136a4.89 4.89 0 0 0 4.883 4.883H95.68a4.89 4.89 0 0 0 4.883-4.883v-15.136a4.89 4.89 0 0 1 3.906 4.784v36.328a4.89 4.89 0 0 1-4.883 4.883h-31.25a4.89 4.89 0 0 1-4.883-4.883v-12.012c0-.54-.437-.977-.977-.977s-.977.437-.977.977zm37.1-25.976c0 1.616-1.314 2.93-2.93 2.93H72.242c-1.616 0-2.93-1.314-2.93-2.93v-15.234H98.6zm0 0"/></g><path d="M275.508 263.203a5.28 5.28 0 0 0 5.273-5.273v-29.883h1.758a1.76 1.76 0 0 0 1.758-1.758v-7.03a1.76 1.76 0 0 0-1.758-1.758h-63.28a1.76 1.76 0 0 0-1.758 1.758v7.03a1.76 1.76 0 0 0 1.758 1.758h1.758v8.8a1.76 1.76 0 0 0 1.758 1.758 1.76 1.76 0 0 0 1.758-1.758v-8.8h52.734v29.883a1.76 1.76 0 0 1-1.758 1.758h-1.81c-.628-14.264-9.54-28.125-22.812-28.125-13.515 0-22.2 14.2-22.812 28.125h-1.798a1.76 1.76 0 0 1-1.758-1.758v-7.03a1.76 1.76 0 0 0-1.758-1.758 1.76 1.76 0 0 0-1.758 1.758v7.03a5.28 5.28 0 0 0 5.273 5.273h1.795c.1 2.775.472 5.683 1.005 8.136a5.28 5.28 0 0 0-4.557 5.223v3.516a1.76 1.76 0 0 0 1.758 1.758h2.37a25.05 25.05 0 0 0 9.672 14.483l-3.15 8.833c-.192.538-.1 1.136.22 1.603a1.76 1.76 0 0 0 1.436.745h28.125a1.76 1.76 0 0 0 1.656-2.348l-3.15-8.833a25.05 25.05 0 0 0 9.672-14.483h2.37a1.76 1.76 0 0 0 1.758-1.758v-3.516a5.28 5.28 0 0 0-4.557-5.223c.533-2.453.893-5.36 1.005-8.136zm-54.492-38.672v-3.516h59.766v3.516zm29.883 10.547c10.662 0 19.336 11.828 19.336 26.367 0 3.308-.43 7.014-1.12 9.844h-3.685c.8-2.944 1.288-6.558 1.288-9.844 0-10.397-5.825-22.852-15.82-22.852-9.858 0-15.82 12.227-15.82 22.852 0 3.286.487 6.9 1.288 9.844h-3.685c-.7-2.83-1.12-6.536-1.12-9.844 0-14.54 8.674-26.367 19.336-26.367zm12.305 26.367c0 3.313-.562 7.096-1.434 9.844h-21.742c-.872-2.747-1.434-6.53-1.434-9.844 0-8.02 4.377-19.336 12.305-19.336 7.918 0 12.305 11.297 12.305 19.336zm-23.874 42.54l2.072-5.806c3 1.502 6.235 2.3 9.498 2.3s6.507-.788 9.498-2.3l2.072 5.806zm11.57-7.03c-8.783 0-16.308-6.784-18.613-15.12h37.225c-2.304 8.334-9.83 15.12-18.612 15.12zm22.852-20.4v1.758H228.05v-1.758a1.76 1.76 0 0 1 1.758-1.758h42.187a1.76 1.76 0 0 1 1.758 1.758zm-49.222-32.698a1.76 1.76 0 0 1-1.758 1.758 1.76 1.76 0 0 1-1.758-1.758 1.76 1.76 0 0 1 1.758-1.758 1.76 1.76 0 0 1 1.758 1.758zm0 0" id="I" class="B"/><g id="J" class="B"><path d="M345-7.28c4.083 0 8.203-1.087 8.203-3.516s-4.12-3.516-8.203-3.516-8.203 1.087-8.203 3.516S340.917-7.28 345-7.28zm0-4.688c3.24 0 5.204.74 5.753 1.172-.55.433-2.513 1.172-5.753 1.172s-5.204-.74-5.753-1.172c.55-.433 2.513-1.172 5.753-1.172zm-7.03 14.413a1.17 1.17 0 0 0-1.172 1.172V5.96a1.172 1.172 0 1 0 2.344 0V3.617a1.17 1.17 0 0 0-1.172-1.172zm0 0"/><path d="M323.203 31.274a1.17 1.17 0 0 0 1.172-1.172v-2.344a1.172 1.172 0 1 0-2.344 0v2.344a1.17 1.17 0 0 0 1.172 1.172zm37.032-26.108v-15.963c0-5.88-9.32-8.203-15.234-8.203-5.962 0-15.234 2.342-15.234 8.203V5.166C323.945 5.4 315 7.86 315 13.344v9.727a1.172 1.172 0 1 0 2.344 0v-5.35c1.344 1.128 3.04 1.932 4.688 2.495v2.856a1.172 1.172 0 1 0 2.344 0v-2.195c1.942.44 4.05.672 6.2.672 5.478 0 10.48-1.468 13.242-3.772V32.8c0 4.016-8.696 5.86-13.242 5.86-2.155 0-4.283-.255-6.2-.74V34.8a1.172 1.172 0 1 0-2.344 0v2.383c-2.892-1.136-4.688-2.778-4.688-4.375v-.352a1.172 1.172 0 1 0-2.344 0v.352c0 5.887 9.394 8.203 15.586 8.203 4.794 0 11.55-1.36 14.415-5.03 2.9 3.73 9.593 5.03 14.413 5.03C365.362 41 375 38.644 375 32.797V13.344c0-5.478-8.932-7.944-14.766-8.178zm-1.407 7l.587-.004c3.1 0 5.342.685 6.053 1.172-.7.487-2.964 1.172-6.053 1.172a20.36 20.36 0 0 1-3.191-.245c1.066-.616 1.943-1.32 2.604-2.095zM345-16.656c4.872 0 12.9 1.93 12.9 5.86 0 4.112-8.477 5.86-12.9 5.86-6.998 0-12.9-2.766-12.9-5.86 0-4.112 8.477-5.86 12.9-5.86zm-13.827 28.832c.66.775 1.538 1.48 2.604 2.095a20.36 20.36 0 0 1-3.191.245c-3.1 0-5.342-.685-6.053-1.172.7-.487 2.964-1.172 6.053-1.172l.587.004zm-.587 7.028c-4.866 0-13.242-1.97-13.242-5.86 0-3.848 8.574-5.668 12.422-5.833v1.145a4.83 4.83 0 0 0 .148 1.184c-3.06.104-7.883.922-7.883 3.504 0 2.78 5.596 3.516 8.555 3.516 2.617 0 5.12-.43 6.617-1.12 1.388.434 2.814.722 4.213.898-2.477 1.55-6.566 2.566-10.83 2.566zM345 14.516c-1.925 0-3.944-.208-5.86-.672V10.65a1.172 1.172 0 1 0-2.344 0v2.467c-2-.774-4.688-2.353-4.688-4.46V-6.34c1.173.997 2.758 1.85 4.688 2.494v2.775a1.172 1.172 0 1 0 2.344 0v-2.134a27.82 27.82 0 0 0 5.859.61c4.312 0 9.667-1.013 12.9-3.75v15c0 2.288-3.155 3.956-5.367 4.708-2.36.802-5.022 1.152-7.523 1.152zm27.656 18.28c0 4.016-8.696 5.86-13.242 5.86-2.155 0-4.283-.255-6.2-.74V34.8a1.172 1.172 0 1 0-2.344 0v2.383c-2.892-1.136-4.688-2.778-4.688-4.375V17.775c1.192.995 2.802 1.833 4.688 2.466v2.83a1.172 1.172 0 1 0 2.344 0v-2.184c1.92.427 4.027.66 6.2.66 4.398 0 9.94-1.056 13.242-3.827zm-13.242-13.594c-4.265 0-8.355-1.015-10.83-2.567 1.483-.187 2.905-.488 4.214-.897 1.497.688 4 1.12 6.617 1.12 2.96 0 8.555-.735 8.555-3.516 0-2.582-4.824-3.4-7.883-3.504.098-.4.148-.784.148-1.184V7.5c3.845.165 12.422 1.984 12.422 5.833 0 4.016-8.696 5.86-13.242 5.86zm0 0"/><path d="M352.03 26.586a1.17 1.17 0 0 0-1.172 1.172v2.344a1.172 1.172 0 1 0 2.344 0v-2.344a1.17 1.17 0 0 0-1.172-1.172zm-34.686 1.172a1.172 1.172 0 1 1-2.344 0 1.172 1.172 0 1 1 2.344 0zm0 0"/></g><path id="K" d="M0 0h350v350H0z"/></defs><pattern id="L" width="350" height="350" patternUnits="userSpaceOnUse"><use xlink:href="#A" x="-350" y="-350"/><use xlink:href="#A" y="-350"/><use xlink:href="#A" x="350" y="-350"/><use xlink:href="#A" x="-350"/><use xlink:href="#A"/><use xlink:href="#A" x="350"/><use xlink:href="#A" x="-350" y="350"/><use xlink:href="#A" y="350"/><use xlink:href="#A" x="350" y="350"/></pattern><use xlink:href="#K" fill="url(#L)"/><pattern id="M" width="350" height="350" patternUnits="userSpaceOnUse"><use xlink:href="#B" x="-350" y="-350"/><use xlink:href="#B" y="-350"/><use xlink:href="#B" x="350" y="-350"/><use xlink:href="#B" x="-350"/><use xlink:href="#B"/><use xlink:href="#B" x="350"/><use xlink:href="#B" x="-350" y="350"/><use xlink:href="#B" y="350"/><use xlink:href="#B" x="350" y="350"/></pattern><use xlink:href="#K" fill="url(#M)"/><pattern id="N" width="350" height="350" patternUnits="userSpaceOnUse"><use xlink:href="#C" x="-350" y="-350"/><use xlink:href="#C" y="-350"/><use xlink:href="#C" x="350" y="-350"/><use xlink:href="#C" x="-350"/><use xlink:href="#C"/><use xlink:href="#C" x="350"/><use xlink:href="#C" x="-350" y="350"/><use xlink:href="#C" y="350"/><use xlink:href="#C" x="350" y="350"/></pattern><use xlink:href="#K" fill="url(#N)"/><pattern id="O" width="350" height="350" patternUnits="userSpaceOnUse"><use xlink:href="#D" x="-350" y="-350"/><use xlink:href="#D" y="-350"/><use xlink:href="#D" x="350" y="-350"/><use xlink:href="#D" x="-350"/><use xlink:href="#D"/><use xlink:href="#D" x="350"/><use xlink:href="#D" x="-350" y="350"/><use xlink:href="#D" y="350"/><use xlink:href="#D" x="350" y="350"/></pattern><use xlink:href="#K" fill="url(#O)"/><pattern id="P" width="350" height="350" patternUnits="userSpaceOnUse"><use xlink:href="#E" x="-350" y="-350"/><use xlink:href="#E" y="-350"/><use xlink:href="#E" x="350" y="-350"/><use xlink:href="#E" x="-350"/><use xlink:href="#E"/><use xlink:href="#E" x="350"/><use xlink:href="#E" x="-350" y="350"/><use xlink:href="#E" y="350"/><use xlink:href="#E" x="350" y="350"/></pattern><use xlink:href="#K" fill="url(#P)"/><pattern id="Q" width="350" height="350" patternUnits="userSpaceOnUse"><use xlink:href="#F" x="-350" y="-350"/><use xlink:href="#F" y="-350"/><use xlink:href="#F" x="350" y="-350"/><use xlink:href="#F" x="-350"/><use xlink:href="#F"/><use xlink:href="#F" x="350"/><use xlink:href="#F" x="-350" y="350"/><use xlink:href="#F" y="350"/><use xlink:href="#F" x="350" y="350"/></pattern><use xlink:href="#K" fill="url(#Q)"/><pattern id="R" width="350" height="350" patternUnits="userSpaceOnUse"><use xlink:href="#G" x="-350" y="-350"/><use xlink:href="#G" y="-350"/><use xlink:href="#G" x="350" y="-350"/><use xlink:href="#G" x="-350"/><use xlink:href="#G"/><use xlink:href="#G" x="350"/><use xlink:href="#G" x="-350" y="350"/><use xlink:href="#G" y="350"/><use xlink:href="#G" x="350" y="350"/></pattern><use xlink:href="#K" fill="url(#R)"/><pattern id="S" width="350" height="350" patternUnits="userSpaceOnUse"><use xlink:href="#H" x="-350" y="-350"/><use xlink:href="#H" y="-350"/><use xlink:href="#H" x="350" y="-350"/><use xlink:href="#H" x="-350"/><use xlink:href="#H"/><use xlink:href="#H" x="350"/><use xlink:href="#H" x="-350" y="350"/><use xlink:href="#H" y="350"/><use xlink:href="#H" x="350" y="350"/></pattern><use xlink:href="#K" fill="url(#S)"/><pattern id="T" width="350" height="350" patternUnits="userSpaceOnUse"><use xlink:href="#I" x="-350" y="-350"/><use xlink:href="#I" y="-350"/><use xlink:href="#I" x="350" y="-350"/><use xlink:href="#I" x="-350"/><use xlink:href="#I"/><use xlink:href="#I" x="350"/><use xlink:href="#I" x="-350" y="350"/><use xlink:href="#I" y="350"/><use xlink:href="#I" x="350" y="350"/></pattern><use xlink:href="#K" fill="url(#T)"/><pattern id="U" width="350" height="350" patternUnits="userSpaceOnUse"><use xlink:href="#J" x="-350" y="-350"/><use xlink:href="#J" y="-350"/><use xlink:href="#J" x="350" y="-350"/><use xlink:href="#J" x="-350"/><use xlink:href="#J"/><use xlink:href="#J" x="350"/><use xlink:href="#J" x="-350" y="350"/><use xlink:href="#J" y="350"/><use xlink:href="#J" x="350" y="350"/></pattern><use xlink:href="#K" fill="url(#U)"/></svg>