<svg xmlns="http://www.w3.org/2000/svg" xmlns:xlink="http://www.w3.org/1999/xlink" width="400" height="400" viewBox="0 0 350 350"><use xlink:href="#I" opacity="0" fill="#fff"/><defs><g id="A" fill="#ec4a81"><path d="M44.97 337.055l-4.347-1.165 1.165-4.347a1.5 1.5 0 0 0-1.061-1.837l-8.693-2.33 1.94-7.244a7.51 7.51 0 0 0-5.303-9.186L-9 300.853a7.51 7.51 0 0 0-9.186 5.303l-1.94 7.244-8.693-2.33a1.5 1.5 0 0 0-1.837 1.061l-1.165 4.347-4.347-1.165a1.5 1.5 0 0 0-1.837 1.061L-50.43 362.74a1.5 1.5 0 0 0 1.061 1.837l14.5 3.882-2.718 10.142a7.51 7.51 0 0 0 5.303 9.186l37.67 10.094a7.51 7.51 0 0 0 9.186-5.303l2.718-10.142 14.5 3.882a1.5 1.5 0 0 0 1.837-1.061l12.423-46.364a1.5 1.5 0 0 0-1.061-1.837zM25.3 381.478l-31.628-8.475a4.51 4.51 0 0 1 4.876-1.799l27.53 7.376zm12.035-44.916l-10.482 39.12-27.53-7.376a7.42 7.42 0 0 0-4.745.322l10.88-40.606a4.5 4.5 0 0 1 5.511-3.182l27.53 7.376zM-9.777 303.75l37.67 10.094a4.5 4.5 0 0 1 3.182 5.511l-.776 2.898-46.364-12.423.776-2.898a4.5 4.5 0 0 1 5.511-3.182zm-7.064 8.978l46.364 12.423-.388 1.45-17.387-4.66a7.47 7.47 0 0 0-6.584 1.39c-.862-2.208-2.72-3.875-5.007-4.495l-17.387-4.66zm-11.307 1.63l27.53 7.376a4.5 4.5 0 0 1 3.182 5.511l-10.88 40.606c-1-1.293-2.377-2.224-3.948-2.65l-27.53-7.376zm-7.348 4.243l2.898.776-11.647 43.467-2.898-.776zm-5.075 42.122l27.53 7.376a4.51 4.51 0 0 1 3.323 3.996l-31.628-8.475zm46.725 34.26l-37.67-10.094a4.5 4.5 0 0 1-3.182-5.511l1.165-4.347 46.364 12.423-1.165 4.347a4.5 4.5 0 0 1-5.511 3.182zm7.453-10.426l-46.364-12.423.776-2.898 46.364 12.423zm17.5-1.525l-2.898-.776 11.647-43.467 2.898.776zm-45.124.33l5.796 1.553-.776 2.898-5.796-1.553zm0 0"/><path d="M-9.104 307.037l2.898.776-.776 2.898-2.898-.776zM-3.3 308.6l8.693 2.33-.776 2.898-8.693-2.33zm13.8 23.872l20.284 5.435-.776 2.898-20.284-5.435zm-2.33 8.694l20.284 5.435-.776 2.898-20.284-5.435zm-2.33 8.694l20.284 5.435-.776 2.898-20.284-5.435zm-2.328 8.692l20.284 5.435-.776 2.898-20.284-5.435zm-27.786-35.397L-4 328.6l-.776 2.898-20.284-5.435zm-2.33 8.693l20.284 5.435-.776 2.898-20.284-5.435zm-2.33 8.692l20.284 5.435-.776 2.898-20.284-5.435zm-2.33 8.695l20.284 5.435-.776 2.898-20.284-5.435zm0 0"/></g><path d="M194.333 361.375a.67.67 0 0 0 .667-.667v-2.667a.67.67 0 0 0-.667-.667H157a2 2 0 0 0-2 2v8a2 2 0 0 0 2 2h37.333a.67.67 0 0 0 .667-.667v-2.667a.67.67 0 0 0-.667-.667 2 2 0 0 1 0-4zm-.667-1.333H159v-1.333h34.667zm-37.333 7.333v-8a.67.67 0 0 1 .667-.667h.667v9.333H157a.67.67 0 0 1-.667-.667zm37.333.667H159v-1.333h34.667zM159 365.375v-4h32.684a3.31 3.31 0 0 0-.617 1.333h-29.4v1.333h29.4c.103.485.313.94.617 1.333zm-1.53-28.03l4.197 1.297v15.4a.67.67 0 0 0 .667.667h25.333a.67.67 0 0 0 .667-.667v-15.4l3.333-1.03v4.2l-1.8 1.753.934.954.867-.847v1.035H193v-1.005l.836.836.943-.943-1.78-1.78v-5.1c0-.284-.18-.537-.447-.63l-17.333-6a.65.65 0 0 0-.436 0l-17.333 6c-.272.094-.453.353-.448.64a.67.67 0 0 0 .47.626zm29.53 16.03h-24v-14.278l11.774 4.238a.65.65 0 0 0 .452 0L187 339.097zm-12-21.96l15.2 5.257L175 342l-15.2-5.33zm0 0" id="B" fill="#ec4a81"/><g id="C" fill="#ec4a81"><path d="M72.843 76.715c1.107 0 2.004-.897 2.004-2.004s-.897-2.004-2.004-2.004-2.004.897-2.004 2.004.897 2.004 2.004 2.004zm0-2.672a.67.67 0 0 1 .668.668.67.67 0 0 1-.668.668.67.67 0 0 1-.668-.668.67.67 0 0 1 .668-.668zM107.46 96.82L96.954 67.945a.67.67 0 0 0-.856-.4l-8.562 3.116v-1.293a.67.67 0 0 0-.668-.668h-18.7a.67.67 0 0 0-.668.668v30.723a.67.67 0 0 0 .668.668h18.7a.67.67 0 0 0 .668-.668V73.324l9.88 27.148a.67.67 0 0 0 .856.401l8.786-3.2a.67.67 0 0 0 .401-.856zm-21.26-.068h-8.015v-1.336H86.2zM68.836 80.055h8.015v2.672h-8.015zM86.2 90.073h-8.015v-1.336H86.2zm-8.015 4.007V91.4H86.2v2.672zM86.2 87.4h-8.015V70.036H86.2zm-9.35-17.365v8.683h-8.015v-8.683zM68.835 84.06h8.015v15.362h-8.015zm9.35 15.362v-1.336H86.2v1.336zM99.58 79.07l-7.53 2.742-.456-1.254 7.53-2.742zm-3.656-10.04l2.738 7.532-7.53 2.738-2.738-7.527zm2.52 30.357l-5.94-16.32 7.53-2.738 5.94 16.316zm0 0"/><path d="M91.875 75.48c.327.898 1.243 1.44 2.188 1.295s1.655-.938 1.697-1.893-.597-1.807-1.526-2.034-1.888.233-2.292 1.1a1.99 1.99 0 0 0-.067 1.532zm1.278-.968c.074-.16.2-.285.377-.345.073-.026.15-.04.23-.04.28 0 .53.176.627.44a.67.67 0 0 1-.399.857.67.67 0 0 1-.857-.399.66.66 0 0 1 .023-.511zm0 0"/></g><g id="D" fill="#ec4a81"><path d="M279.167 71.5h-1.333v-.667a.67.67 0 0 0-.667-.667h-2v-2a.67.67 0 0 0-.667-.667h-9.333a3.32 3.32 0 0 0-2.667 1.354 3.32 3.32 0 0 0-2.667-1.354H250.5a.67.67 0 0 0-.667.667v2h-2a.67.67 0 0 0-.667.667v.667h-1.333a3.34 3.34 0 0 0-3.333 3.333v21.333a3.34 3.34 0 0 0 3.333 3.333h12.578l-.5 4h-2.078a.67.67 0 0 0-.667.667v2.667a.67.67 0 0 0 .667.667h13.333a.67.67 0 0 0 .667-.667v-2.667a.67.67 0 0 0-.667-.667h-2.078l-.5-4h12.578a3.34 3.34 0 0 0 3.333-3.333V74.833a3.34 3.34 0 0 0-3.333-3.333zm-2.667 0v16h-1.333v-16zm-13.22 16c.284-.798 1.04-1.332 1.886-1.333h8.667V87.5zm1.886-18.667h8.667v16h-8.667a3.3 3.3 0 0 0-2 .684V70.833a2 2 0 0 1 2-2zm-14 0h8.667a2 2 0 0 1 2 2v14.684a3.3 3.3 0 0 0-2-.684h-8.667zm0 17.333h8.667c.847.001 1.603.535 1.886 1.333h-10.553zM248.5 71.5h1.333v16H248.5zm-2.667 1.333h1.333v15.333a.67.67 0 0 0 .667.667h29.333a.67.67 0 0 0 .667-.667V72.833h1.333a2 2 0 0 1 2 2v18h-37.333v-18a2 2 0 0 1 2-2zm22.667 33.333h-12v-1.333h12zm-2.755-2.667h-6.5l.5-4h5.5zm13.422-5.333h-33.333a2 2 0 0 1-2-2v-2h37.333v2a2 2 0 0 1-2 2zm-.86-2.473a.62.62 0 0 0-.22-.14.66.66 0 0 0-.507 0 .69.69 0 0 0-.22.14.77.77 0 0 0-.14.22.66.66 0 0 0 .867.867.77.77 0 0 0 .22-.14.66.66 0 0 0 .14-.727.77.77 0 0 0-.14-.22zm-12.473-23.526h5.333V73.5h-5.333zm0 4h5.333V77.5h-5.333zm0 0"/><path d="M265.833 80.167h5.333V81.5h-5.333zm-12-8h5.333V73.5h-5.333zm0 0"/><path d="M253.833 76.167h5.333V77.5h-5.333zm0 4h5.333V81.5h-5.333zm0 0"/></g><g id="E" fill="#ec4a81"><path d="M383.833 191.333h-7.03a5.78 5.78 0 0 0 1.197-3.5h2.333c1.3 0 2.333-1.045 2.333-2.333v-5.833c0-.644-.522-1.167-1.167-1.167H378c0-.644-.522-1.167-1.167-1.167h-11.667c-.644 0-1.167.522-1.167 1.167v9.333a5.78 5.78 0 0 0 1.197 3.5h-7.03v-3.5c0-.644-.522-1.167-1.167-1.167h-17.3c.496-1.397 1.818-2.332 3.3-2.333h14V182h-14a5.81 5.81 0 0 0-4.667 2.369 5.81 5.81 0 0 0-4.667-2.369h-14v2.333h14c1.483.002 2.804.936 3.3 2.333h-17.3c-.644 0-1.167.522-1.167 1.167v3.5h-2.333c-.644 0-1.167.522-1.167 1.167v4.667c0 .644.522 1.167 1.167 1.167h67.667c.644 0 1.167-.522 1.167-1.167V192.5c0-.644-.522-1.167-1.167-1.167zm-3.5-10.5v4.667H378v-4.667zm-14 7v-8.167h9.333v8.167a3.5 3.5 0 0 1-3.5 3.5h-2.333a3.5 3.5 0 0 1-3.5-3.5zm-45.5 1.167h35v2.333h-35zm61.833 7h-65.333v-2.333h65.333zm-10.78-21h2.333a1.2 1.2 0 0 1 .165-.659 3.73 3.73 0 0 0 0-3.345 1.41 1.41 0 0 1 0-1.323 3.47 3.47 0 0 0 .396-1.673h-2.333c.01.232-.047.46-.165.66a3.73 3.73 0 0 0 0 3.346 1.4 1.4 0 0 1 0 1.32 3.5 3.5 0 0 0-.396 1.672zm-4.666 0h2.333a1.2 1.2 0 0 1 .165-.659 3.73 3.73 0 0 0 0-3.345 1.41 1.41 0 0 1 0-1.323 3.47 3.47 0 0 0 .396-1.673h-2.333c.01.232-.047.46-.165.66a3.73 3.73 0 0 0 0 3.346 1.4 1.4 0 0 1 0 1.32 3.5 3.5 0 0 0-.396 1.672zm-34.72-8.805v4.138c0 3.22 2.612 5.833 5.833 5.833s5.833-2.612 5.833-5.833v-4.138a10.5 10.5 0 1 0-11.666 0zm3.15 1.455a10.86 10.86 0 0 0 1.105.222l.448.056a10.98 10.98 0 0 0 .833.055c.1 0 .202.02.303.02s.203-.018.305-.02l.83-.055a10.3 10.3 0 0 0 .452-.057 10.43 10.43 0 0 0 1.097-.219l.202-.062.615-.188v1.765h-7.006V167.4a9.54 9.54 0 0 0 .629.193l.188.06zm2.683 6.183a3.5 3.5 0 0 1-3.285-2.333h6.57a3.5 3.5 0 0 1-3.285 2.333zm0-24.5c3.692.007 6.92 2.5 7.874 6.057a8.17 8.17 0 0 1-3.8 9.178 8.26 8.26 0 0 1-6.184.807 7.72 7.72 0 0 1-1.97-.817 8.16 8.16 0 0 1 4.08-15.226zm0 0"/><path d="M336 159.833a1.18 1.18 0 0 0 .826-.342l1.507-1.508 1.5 1.5a1.17 1.17 0 0 0 1.65 0l2.333-2.333-1.65-1.652-1.5 1.5-1.516-1.5a1.14 1.14 0 0 0-.817-.34c-.317 0-.606.123-.825.342L336 157.016l-1.505-1.507-1.652 1.65 2.333 2.333a1.17 1.17 0 0 0 .824.342zM337.167 140h2.333v4.667h-2.333zm-12.032 5.95l1.65-1.65 3.3 3.3-1.65 1.65zm-4.302 10.383h4.667v2.333h-4.667zm4.3 12.715l3.3-3.3 1.65 1.65-3.3 3.3zm21.45-1.648l1.65-1.65 3.3 3.3-1.65 1.65zm4.583-11.067h4.667v2.333h-4.667zm-4.583-8.733l3.3-3.3 1.65 1.65-3.3 3.3zm0 0"/></g><g id="F" fill="#ec4a81"><path d="M205.567 157.188l-3.38.906-.906-3.38a1.17 1.17 0 0 0-1.43-.825l-2.76.74c.6-1.974.64-4.075.123-6.072-2.164-8.078-13.53-12.076-25.337-8.913s-19.65 12.3-17.486 20.387a11.22 11.22 0 0 0 3.143 5.197l-14.03 3.76a1.17 1.17 0 0 0-.825 1.43l.906 3.38-3.38.906a1.17 1.17 0 0 0-.825 1.43l10.266 38.315a1.17 1.17 0 0 0 1.43.825l65.36-17.513a1.17 1.17 0 0 0 .825-1.43l-10.266-38.315a1.17 1.17 0 0 0-1.43-.825zm-33.085-15.3c10.564-2.83 20.648.428 22.48 7.263.547 2.25.253 4.626-.826 6.676a20.22 20.22 0 0 1-9.112 8.576c-.2.103-.364.26-.476.454l-4.037 6.992-1.092-4.075c-.162-.607-.776-.977-1.388-.836a27.53 27.53 0 0 1-4.47.662c-4.975.367-9.66-.66-12.86-2.814-1.96-1.237-3.4-3.146-4.054-5.37-1.83-6.835 5.272-14.7 15.836-17.53zm-30.545 34.756l2.254-.604 9.662 36.06-2.254.604zm14.17 34.853L154.9 207l20.284-5.435c2.677-.714 5.488.55 6.73 3.028zM174.58 199.3l-20.284 5.435-9.06-33.807 14.636-3.922a22.69 22.69 0 0 0 12.886 2.959l8.092 30.2a8.14 8.14 0 0 0-6.271-.866zm8.525.264l-7.977-29.772a28.26 28.26 0 0 0 2.322-.348l1.535 5.727c.122.456.507.793.974.855a1.17 1.17 0 0 0 1.163-.573l5.273-9.137a22.69 22.69 0 0 0 9.568-8.98l3.365-.902 9.06 33.807-20.284 5.435a8.14 8.14 0 0 0-4.997 3.887zm5.6-1.634l20.284-5.435 1.208 4.508-25.806 6.915c-.164-2.766 1.638-5.267 4.314-5.987zm26-2.135l-2.254.604-9.662-36.06 2.254-.604zm-40.33-42.327l2.254-.604.604 2.254-2.254.604zm0 0"/><path d="M178.882 152.26l2.254-.604.604 2.254-2.254.604zm-9.015 2.416l2.254-.604.604 2.254-2.254.604zm-17.707 24.07l15.777-4.227.604 2.254L152.764 181zm1.8 6.76l15.777-4.227.604 2.254-15.777 4.227zm0 0"/><path d="M155.783 192.268l15.777-4.227.604 2.254-15.777 4.227zm32.437-23.185l9.015-2.416.604 2.254-9.015 2.416zm-4.95 8.573l15.777-4.227.604 2.254-15.777 4.227zm1.813 6.762l15.777-4.227.604 2.254-15.777 4.227zm0 0"/></g><g id="G" fill="#ec4a81"><path d="M92.182 242.65a.7.7 0 0 0-.102-.166l-.048-.057a.74.74 0 0 0-.215-.153L80.32 237a.73.73 0 0 0-.257-.064c-.025-.002-.048 0-.072.001a.73.73 0 0 0-.197.031c-.01.007-.027.004-.04.01l-19.577 7.25a3.73 3.73 0 0 0-2.2 4.79l12.948 34.96a3.73 3.73 0 0 0 4.79 2.2l25.17-9.322a3.73 3.73 0 0 0 2.2-4.79L92.208 242.7c-.006-.015-.018-.026-.026-.04zm-2.62.226l-5.304 1.964c-.386.143-.815-.054-.958-.44l-1.964-5.304zm10.803 32.573l-25.17 9.322c-1.158.43-2.445-.162-2.874-1.32L59.373 248.5c-.43-1.158.162-2.445 1.32-2.874l18.878-6.992 2.33 6.293c.43 1.158 1.716 1.75 2.874 1.32l6.293-2.33 10.617 28.666c.43 1.158-.162 2.445-1.32 2.874zM87.52 257.942a7.46 7.46 0 0 0-8.32-4.77c-3.563.64-6.15 3.752-6.134 7.373s2.633 6.706 6.202 7.315l1.4 3.754a3.73 3.73 0 0 0 4.791 2.201 3.73 3.73 0 0 0 2.201-4.791l-1.4-3.755c1.707-2.04 2.2-4.837 1.26-7.33zm-6.056 9.985a7.49 7.49 0 0 0 .696-.127l.283-.07.474-.145c.066-.024.135-.037.2-.06s.127-.058.192-.084l.454-.2.26-.13.6-.356.063-.045.397-.283.637 1.72-4.194 1.553-.637-1.72.487-.044.076-.008zm3.467 4.5c-1.158.43-2.445-.162-2.874-1.32l4.195-1.554c.43 1.158-.162 2.445-1.32 2.874zm-.062-7.796a6.08 6.08 0 0 1-3.604 1.823c-.227.03-.455.046-.684.05s-.455-.007-.68-.03c-2.754-.292-4.945-2.442-5.3-5.2a5.96 5.96 0 0 1 3.847-6.335c2.597-.962 5.516-.01 7.045 2.3s1.267 5.368-.632 7.384zm0 0"/><path d="M82.205 259.688l-1.7-.562c-.33-.1-.694.025-.873.323l-.92 1.534-1.698-.564-.47 1.416 2.266.75a.76.76 0 0 0 .874-.324l.92-1.535 1.7.562c.33.1.694-.025.873-.323l1.23-2.046-1.278-.768zm-6.518-10.085l1.398-.518 1.036 2.797-1.398.518zm-6.307 6.625l.623-1.355 2.7 1.245-.623 1.355zm-.297 7.747l2.797-1.036.518 1.398-2.797 1.036zm5.79 7.085l1.245-2.7 1.355.623-1.245 2.7zm13.476-6.117l.623-1.355 2.7 1.245-.623 1.355zm.312-8.218l2.797-1.036.518 1.398-2.797 1.036zm-5.072-4.635l1.245-2.7 1.355.623-1.245 2.7zm0 0"/></g><g id="H" fill="#ec4a81"><path d="M231 241.5a4.5 4.5 0 1 0 0-9 4.5 4.5 0 1 0 0 9zm0-6a1.5 1.5 0 1 1 0 3 1.5 1.5 0 1 1 0-3zm12-6h6v3h-6zm0 6h6v3h-6zm51 12a4.5 4.5 0 1 0 0-9 4.5 4.5 0 1 0 0 9zm0-6a1.5 1.5 0 1 1 0 3 1.5 1.5 0 1 1 0-3zm0 0"/><path d="M306 271.5h-3V234a1.5 1.5 0 0 0-1.5-1.5H288V219a1.5 1.5 0 0 0-1.5-1.5h-18a1.5 1.5 0 0 0-1.5 1.5v10.5h-12V222a1.5 1.5 0 0 0-1.5-1.5h-15a1.5 1.5 0 0 0-1.5 1.5v4.5h-13.5a1.5 1.5 0 0 0-1.5 1.5v43.5h-3a1.5 1.5 0 0 0-1.5 1.5v6a1.5 1.5 0 0 0 1.5 1.5h87a1.5 1.5 0 0 0 1.5-1.5v-6a1.5 1.5 0 0 0-1.5-1.5zm-36 0V231h15v40.5zm-15 0V267h12v4.5zm45-7.5h-12v-1.5h12zm-15-36h-15v-1.5h15zm-18 36h-12v-1.5h12zm21 3h12v4.5h-12zm12-31.5v24h-12v-24zm-15-15v3h-15v-3zm-18 12v27h-12v-27zm-27-9h12v48h-12zm-15 39h12v3h-12zm12-33v30h-12v-30zm-12 39h12v3h-12zm79.5 9h-84v-3h84zm0 0"/></g><path id="I" d="M0 0h350v350H0z"/></defs><pattern id="J" width="350" height="350" patternUnits="userSpaceOnUse"><use xlink:href="#A" x="-350" y="-350"/><use xlink:href="#A" y="-350"/><use xlink:href="#A" x="350" y="-350"/><use xlink:href="#A" x="-350"/><use xlink:href="#A"/><use xlink:href="#A" x="350"/><use xlink:href="#A" x="-350" y="350"/><use xlink:href="#A" y="350"/><use xlink:href="#A" x="350" y="350"/></pattern><use xlink:href="#I" fill="url(#J)"/><pattern id="K" width="350" height="350" patternUnits="userSpaceOnUse"><use xlink:href="#B" x="-350" y="-350"/><use xlink:href="#B" y="-350"/><use xlink:href="#B" x="350" y="-350"/><use xlink:href="#B" x="-350"/><use xlink:href="#B"/><use xlink:href="#B" x="350"/><use xlink:href="#B" x="-350" y="350"/><use xlink:href="#B" y="350"/><use xlink:href="#B" x="350" y="350"/></pattern><use xlink:href="#I" fill="url(#K)"/><pattern id="L" width="350" height="350" patternUnits="userSpaceOnUse"><use xlink:href="#C" x="-350" y="-350"/><use xlink:href="#C" y="-350"/><use xlink:href="#C" x="350" y="-350"/><use xlink:href="#C" x="-350"/><use xlink:href="#C"/><use xlink:href="#C" x="350"/><use xlink:href="#C" x="-350" y="350"/><use xlink:href="#C" y="350"/><use xlink:href="#C" x="350" y="350"/></pattern><use xlink:href="#I" fill="url(#L)"/><pattern id="M" width="350" height="350" patternUnits="userSpaceOnUse"><use xlink:href="#D" x="-350" y="-350"/><use xlink:href="#D" y="-350"/><use xlink:href="#D" x="350" y="-350"/><use xlink:href="#D" x="-350"/><use xlink:href="#D"/><use xlink:href="#D" x="350"/><use xlink:href="#D" x="-350" y="350"/><use xlink:href="#D" y="350"/><use xlink:href="#D" x="350" y="350"/></pattern><use xlink:href="#I" fill="url(#M)"/><pattern id="N" width="350" height="350" patternUnits="userSpaceOnUse"><use xlink:href="#E" x="-350" y="-350"/><use xlink:href="#E" y="-350"/><use xlink:href="#E" x="350" y="-350"/><use xlink:href="#E" x="-350"/><use xlink:href="#E"/><use xlink:href="#E" x="350"/><use xlink:href="#E" x="-350" y="350"/><use xlink:href="#E" y="350"/><use xlink:href="#E" x="350" y="350"/></pattern><use xlink:href="#I" fill="url(#N)"/><pattern id="O" width="350" height="350" patternUnits="userSpaceOnUse"><use xlink:href="#F" x="-350" y="-350"/><use xlink:href="#F" y="-350"/><use xlink:href="#F" x="350" y="-350"/><use xlink:href="#F" x="-350"/><use xlink:href="#F"/><use xlink:href="#F" x="350"/><use xlink:href="#F" x="-350" y="350"/><use xlink:href="#F" y="350"/><use xlink:href="#F" x="350" y="350"/></pattern><use xlink:href="#I" fill="url(#O)"/><pattern id="P" width="350" height="350" patternUnits="userSpaceOnUse"><use xlink:href="#G" x="-350" y="-350"/><use xlink:href="#G" y="-350"/><use xlink:href="#G" x="350" y="-350"/><use xlink:href="#G" x="-350"/><use xlink:href="#G"/><use xlink:href="#G" x="350"/><use xlink:href="#G" x="-350" y="350"/><use xlink:href="#G" y="350"/><use xlink:href="#G" x="350" y="350"/></pattern><use xlink:href="#I" fill="url(#P)"/><pattern id="Q" width="350" height="350" patternUnits="userSpaceOnUse"><use xlink:href="#H" x="-350" y="-350"/><use xlink:href="#H" y="-350"/><use xlink:href="#H" x="350" y="-350"/><use xlink:href="#H" x="-350"/><use xlink:href="#H"/><use xlink:href="#H" x="350"/><use xlink:href="#H" x="-350" y="350"/><use xlink:href="#H" y="350"/><use xlink:href="#H" x="350" y="350"/></pattern><use xlink:href="#I" fill="url(#Q)"/></svg>