<svg xmlns="http://www.w3.org/2000/svg" xmlns:xlink="http://www.w3.org/1999/xlink" width="400" height="400" viewBox="0 0 350 350"><path opacity="0" fill="#fff" d="M0 0h350v350H0z"/><defs><path d="M390.163 353.567c-3.08-7.437-9.39-14.527-17.768-19.964-2.29-1.486-4.637-2.784-6.945-3.866l.002-.09c0-6.337-3.836-11.793-9.307-14.174l5.25-5.25a3.06 3.06 0 0 0-4.326-4.327l-7.03 7.03-6.962-6.962a3.06 3.06 0 0 0-4.326 0 3.06 3.06 0 0 0 0 4.326l5.157 5.158c-5.498 2.37-9.357 7.84-9.357 14.197 0 .03.002.06.002.09-2.308 1.082-4.657 2.38-6.946 3.867-8.377 5.437-14.687 12.526-17.767 19.964-3.272 7.898.493 16.987 8.392 20.26a15.42 15.42 0 0 0 5.928 1.183c2.45 0 4.796-.576 6.894-1.615 3.46 5.687 9.27 9.503 15.9 10.41v8.137A3.06 3.06 0 0 0 350 395a3.06 3.06 0 0 0 3.059-3.059v-8.137c6.62-.906 12.43-4.722 15.9-10.41a15.51 15.51 0 0 0 6.894 1.614c2.038 0 4.032-.398 5.93-1.183 7.9-3.272 11.664-12.36 8.392-20.26zM350 320.313c4.324 0 7.97 2.957 9.025 6.955-2.4-.703-4.628-1.085-6.534-1.085h-4.982c-1.906 0-4.133.383-6.534 1.085 1.054-3.998 4.7-6.955 9.025-6.955zm0 57.584a16.04 16.04 0 0 1-10.216-3.644h20.432c-2.812 2.312-6.39 3.644-10.216 3.644zm11.513-12.46c.398.96.89 1.858 1.453 2.7h-25.933a15.65 15.65 0 0 0 1.459-2.711l1.395-3.408h20.225l1.4 3.42zm-19.12-9.538l2.505-6.118h10.205l2.505 6.118h-15.215zm5-12.237l2.598-6.345 2.598 6.345h-5.196zm-23.245 25.23a9.33 9.33 0 0 1-3.587-.717 9.4 9.4 0 0 1-5.08-12.265c4.104-9.91 14.694-17.705 23.265-21.352a3.04 3.04 0 0 0 .402-.166c2.276-.94 4.4-1.587 6.204-1.89l-12.526 30.592a9.39 9.39 0 0 1-2.487 3.47 3.6 3.6 0 0 0-.121.101c-1.66 1.407-3.8 2.225-6.07 2.226zm55.274-.718c-1.15.476-2.357.717-3.587.717a9.37 9.37 0 0 1-6.097-2.246l-.08-.067c-1.066-.93-1.93-2.106-2.497-3.472l-12.53-30.607c1.806.302 3.935.95 6.218 1.894a3.03 3.03 0 0 0 .37.153c8.57 3.643 19.176 11.445 23.284 21.364a9.4 9.4 0 0 1-5.08 12.265z" id="A" fill="#ec4a81"/><path d="M373.234 183.19l-4.957-4.956a1.67 1.67 0 0 0-1.181-.489H362.4v-1.2l5.876-5.875a1.67 1.67 0 0 0 .489-1.181v-9.22a1.67 1.67 0 0 0-1.67-1.67 1.67 1.67 0 0 0-1.67 1.67v8.53l-3.026 3.025v-1.352a1.67 1.67 0 0 0-1.67-1.67h-1.013v-10.807a9.75 9.75 0 0 0-4.858-8.413 1.67 1.67 0 0 0-2.506 1.446v9.182a2.36 2.36 0 0 1-2.354 2.354 2.36 2.36 0 0 1-2.354-2.354v-9.183a1.67 1.67 0 0 0-2.506-1.445c-2.996 1.734-4.858 4.958-4.858 8.414v10.807h-1.014a1.67 1.67 0 0 0-1.67 1.67v1.352l-3.026-3.025v-8.53a1.67 1.67 0 0 0-1.67-1.67 1.67 1.67 0 0 0-1.67 1.67v9.22a1.67 1.67 0 0 0 .489 1.181l5.876 5.875v1.2h-4.695a1.67 1.67 0 0 0-1.181.489l-4.957 4.956a1.67 1.67 0 0 0 0 2.361c.326.326.753.49 1.18.49s.855-.163 1.18-.49l4.467-4.467h3.546l-5.563 7.25a1.67 1.67 0 0 0-.345 1.017v9.716a1.67 1.67 0 0 0 1.67 1.67 1.67 1.67 0 0 0 1.67-1.67v-9.15l3.108-4.05A12.42 12.42 0 0 0 350 196.87a12.42 12.42 0 0 0 12.32-11.004l3.108 4.05v9.15a1.67 1.67 0 0 0 1.67 1.67 1.67 1.67 0 0 0 1.67-1.67v-9.716a1.67 1.67 0 0 0-.345-1.017l-5.563-7.25h3.546l4.467 4.467c.326.326.753.49 1.18.49s.855-.163 1.18-.49a1.67 1.67 0 0 0 0-2.361zm-29.612-25.207a6.36 6.36 0 0 1 .685-2.867v5.08c0 3.14 2.554 5.694 5.694 5.694a5.7 5.7 0 0 0 5.693-5.694v-5.08a6.36 6.36 0 0 1 .685 2.866v10.807h-12.757v-10.807zm-2.683 26.486v-12.34h7.392v21.245c-4.2-.786-7.392-4.48-7.392-8.905zm18.123 0c0 4.426-3.2 8.118-7.39 8.905V172.13h7.39v12.34z" id="B" fill="#ec4a81"/><path d="M216.982 186.746l-8.956-8.956c-.566-.566-1.333-.884-2.133-.884h-8.485v-6.2l10.618-10.616c.566-.566.884-1.333.884-2.134v-16.662a3.02 3.02 0 0 0-3.017-3.017 3.02 3.02 0 0 0-3.017 3.017v15.413l-5.468 5.467v-2.443a3.02 3.02 0 0 0-3.017-3.017h-2.028c-1.076-6.184-5.392-11.267-11.133-13.426l10.515-10.515c1.178-1.178 1.178-3.09 0-4.266a3.02 3.02 0 0 0-4.267 0l-12.412 12.412-12.302-12.302c-1.178-1.18-3.088-1.178-4.266 0s-1.178 3.09 0 4.266l10.405 10.405c-5.74 2.16-10.058 7.242-11.134 13.426H155.6a3.02 3.02 0 0 0-3.017 3.017v2.443l-5.468-5.467v-15.413a3.02 3.02 0 0 0-3.017-3.017 3.02 3.02 0 0 0-3.017 3.017v16.662c0 .8.318 1.568.884 2.134l10.62 10.616v6.2h-8.485a3.02 3.02 0 0 0-2.133.883l-8.957 8.956c-1.18 1.178-1.18 3.09 0 4.266.59.59 1.36.884 2.134.884s1.544-.294 2.133-.883l8.073-8.072h7.236v2.943l-10.88 14.18a3.02 3.02 0 0 0-.624 1.837v17.555a3.02 3.02 0 0 0 3.017 3.017 3.02 3.02 0 0 0 3.017-3.017v-16.53l5.616-7.32c.803 7.125 4.96 13.248 10.85 16.75a3.01 3.01 0 0 0 .278.16c3.283 1.887 7.082 2.974 11.132 2.974a22.26 22.26 0 0 0 11.141-2.978c.067-.035.132-.074.197-.113 5.93-3.494 10.116-9.636 10.923-16.8l5.615 7.318v16.53a3.02 3.02 0 0 0 3.017 3.017 3.02 3.02 0 0 0 3.017-3.017V201.9c0-.664-.22-1.3-.624-1.836l-10.88-14.18v-2.943h7.236l8.072 8.072c.59.59 1.36.884 2.133.884a3.01 3.01 0 0 0 2.134-.884c1.18-1.18 1.18-3.09 0-4.267zm-41.917-38.553c5.313 0 9.796 3.614 11.125 8.512h-22.25c1.33-4.898 5.812-8.512 11.125-8.512zm-16.438 44.888v-30.342h13.357v36.076l-7.115 7.115c-3.798-3-6.242-7.643-6.242-12.848zm11.882 15.742l4.49-4.49 4.49 4.49a16.31 16.31 0 0 1-4.491.631c-1.558 0-3.063-.223-4.492-.632zm20.865-15.742c0 5.205-2.444 9.848-6.242 12.848l-7.114-7.113v-36.078h13.356v30.342z" id="C" fill="#ec4a81"/><g transform="matrix(.267231 0 0 .267231 154 -24.000001)" id="D" fill="#ec4a81"><path d="M217.025 129.425h-27.758c-1.382-16.07-7.158-30.803-16.04-42.857l18.42-18.417a7.5 7.5 0 0 0-10.606-10.606l-17.803 17.802c-2.7-2.524-5.585-4.85-8.61-6.96-.852-18.068-11.92-33.338-27.218-39.53l10.443-10.443A7.5 7.5 0 0 0 127.247 7.81l-14.984 14.984L97.432 7.96a7.5 7.5 0 0 0-10.606 10.606l10.3 10.29c-15.3 6.19-26.37 21.463-27.222 39.532-3.023 2.107-5.896 4.434-8.606 6.956l-17.8-17.8a7.5 7.5 0 0 0-10.606 10.606l18.417 18.417c-8.88 12.054-14.658 26.79-16.04 42.858H7.5a7.5 7.5 0 1 0 0 15h27.757c1.382 16.07 7.158 30.807 16.04 42.86L32.88 205.7a7.5 7.5 0 0 0 0 10.607 7.48 7.48 0 0 0 5.304 2.197c1.92 0 3.84-.732 5.303-2.196l17.8-17.8c13.623 12.688 31.46 20.405 50.976 20.405s37.354-7.72 50.977-20.407l17.8 17.8c1.464 1.464 3.384 2.197 5.303 2.197s3.84-.732 5.303-2.197a7.5 7.5 0 0 0 0-10.606l-18.417-18.417c8.88-12.055 14.656-26.8 16.038-42.86h27.758a7.5 7.5 0 1 0 0-15zM112.263 40.897c11.494 0 21.352 7.714 25.422 18.617a73.05 73.05 0 0 0-25.422-4.572 73.07 73.07 0 0 0-25.426 4.573c4.07-10.903 13.93-18.618 25.426-18.618zM49.92 136.964c0-.013.002-.026.002-.04s-.002-.026-.002-.04c.02-34.188 24.003-62.448 54.842-66.44v132.97c-30.84-3.993-54.824-32.256-54.842-66.448zm69.842 66.45V70.444c30.826 3.992 54.803 32.232 54.84 66.4 0 .026-.004.053-.004.08s.004.053.004.08c-.038 34.175-24.015 62.418-54.84 66.4z"/><circle cx="87" cy="104" r="9"/><path d="M69.963 127.624a9.45 9.45 0 0 0-9.45 9.45 9.45 9.45 0 0 0 9.45 9.447 9.45 9.45 0 0 0 9.447-9.447 9.45 9.45 0 0 0-9.447-9.449zm18 32.23a9.45 9.45 0 0 0-9.451 9.447 9.45 9.45 0 0 0 9.451 9.449 9.45 9.45 0 0 0 9.447-9.449 9.45 9.45 0 0 0-9.447-9.447z"/><circle cx="136" cy="104" r="9"/><circle cx="154" cy="137" r="9"/><circle cx="136" cy="169" r="9"/></g></defs><pattern id="E" width="350" height="350" patternUnits="userSpaceOnUse"><use xlink:href="#A" x="-350" y="-350"/><use xlink:href="#A" y="-350"/><use xlink:href="#A" x="350" y="-350"/><use xlink:href="#A" x="-350"/><use xlink:href="#A"/><use xlink:href="#A" x="350"/><use xlink:href="#A" x="-350" y="350"/><use xlink:href="#A" y="350"/><use xlink:href="#A" x="350" y="350"/></pattern><path fill="url(#E)" d="M0 0h350v350H0z"/><pattern id="F" width="350" height="350" patternUnits="userSpaceOnUse"><use xlink:href="#B" x="-350" y="-350"/><use xlink:href="#B" y="-350"/><use xlink:href="#B" x="350" y="-350"/><use xlink:href="#B" x="-350"/><use xlink:href="#B"/><use xlink:href="#B" x="350"/><use xlink:href="#B" x="-350" y="350"/><use xlink:href="#B" y="350"/><use xlink:href="#B" x="350" y="350"/></pattern><path fill="url(#F)" d="M0 0h350v350H0z"/><pattern id="G" width="350" height="350" patternUnits="userSpaceOnUse"><use xlink:href="#C" x="-350" y="-350"/><use xlink:href="#C" y="-350"/><use xlink:href="#C" x="350" y="-350"/><use xlink:href="#C" x="-350"/><use xlink:href="#C"/><use xlink:href="#C" x="350"/><use xlink:href="#C" x="-350" y="350"/><use xlink:href="#C" y="350"/><use xlink:href="#C" x="350" y="350"/></pattern><path fill="url(#G)" d="M0 0h350v350H0z"/><pattern id="H" width="350" height="350" patternUnits="userSpaceOnUse"><use xlink:href="#D" x="-350" y="-350"/><use xlink:href="#D" y="-350"/><use xlink:href="#D" x="350" y="-350"/><use xlink:href="#D" x="-350"/><use xlink:href="#D"/><use xlink:href="#D" x="350"/><use xlink:href="#D" x="-350" y="350"/><use xlink:href="#D" y="350"/><use xlink:href="#D" x="350" y="350"/></pattern><path fill="url(#H)" d="M0 0h350v350H0z"/></svg>