<svg xmlns="http://www.w3.org/2000/svg" xmlns:xlink="http://www.w3.org/1999/xlink" width="400" height="400" viewBox="0 0 350 350"><use xlink:href="#I" opacity="0" fill="#fff"/><defs><path d="M392.376 334.83h-1.862v-5.34c0-.516-.412-.932-.924-.932h-5.97v-24.61a.93.93 0 0 0-.934-.928H317.32c-.516 0-.93.414-.93.928v24.61h-5.977a.93.93 0 0 0-.928.932v5.34h-1.858a1.86 1.86 0 0 0-1.858 1.858v9.752a1.86 1.86 0 0 0 1.858 1.858h5.576a1.86 1.86 0 0 0 1.858-1.858v-9.752a1.86 1.86 0 0 0-1.858-1.858h-1.86v-4.412h5.043v35.15c-1.08.382-1.86 1.405-1.86 2.613v10.834c0 .922.453 1.733 1.147 2.238-.692.512-1.147 1.32-1.147 2.247v4.355c0 1.544 1.248 2.786 2.786 2.786h4.98v4.475c0 1.026 1.114 1.862 2.497 1.862h8.32c1.38 0 2.497-.836 2.497-1.862v-4.475H364.4v4.475c0 1.026 1.112 1.862 2.497 1.862h8.32c1.38 0 2.498-.836 2.498-1.862v-4.475h4.974a2.78 2.78 0 0 0 2.782-2.786V383.5c0-.922-.45-1.733-1.145-2.245a2.76 2.76 0 0 0 1.145-2.238v-10.834a2.77 2.77 0 0 0-1.856-2.613v-35.15h5.043v4.412h-1.86a1.86 1.86 0 0 0-1.86 1.858v9.752a1.86 1.86 0 0 0 1.86 1.858h5.57a1.86 1.86 0 0 0 1.862-1.858v-9.752c-.002-1.026-.828-1.858-1.854-1.858zm-74.133-4.412h2.036v34.978h-2.036V330.42zm3.24 57.886c-1.41 0-2.554-1.143-2.554-2.554a2.56 2.56 0 0 1 2.554-2.558 2.56 2.56 0 0 1 2.554 2.558 2.55 2.55 0 0 1-2.554 2.554zm6.81 0c-1.41 0-2.554-1.143-2.554-2.554a2.56 2.56 0 0 1 2.554-2.558 2.56 2.56 0 0 1 2.556 2.558c.002 1.413-1.147 2.554-2.556 2.554zm2.976-10.52h-12.383v-7.585h12.383v7.585zm-3.557-31.293v-18.86h19.502v18.86h-19.502zm36.995 35.082h-29.4v-3.375h29.4v3.375zm0-5.325h-29.4v-4.228h29.4v4.228zm0-6.176h-29.4v-4.222h29.4v4.222zm0-6.174h-29.4v-4.226h29.4v4.226zm-11.92-17.407v-18.86H372.3v18.86h-19.504zm18.923 41.818a2.56 2.56 0 0 1-2.554-2.562 2.56 2.56 0 0 1 2.554-2.554 2.56 2.56 0 0 1 2.558 2.554c-.004 1.417-1.147 2.562-2.558 2.562zm6.81 0a2.56 2.56 0 0 1-2.554-2.562 2.56 2.56 0 0 1 2.554-2.554 2.56 2.56 0 0 1 2.554 2.554c0 1.417-1.143 2.562-2.554 2.562zm2.598-10.525H368.73v-7.585h12.387v7.585zm.64-12.387h-2.036V330.42h2.036v34.978zm0-36.838h-2.036v-4.646a3.72 3.72 0 0 0-3.716-3.716h-52.007c-2.054 0-3.716 1.662-3.716 3.716v4.646h-2.038v-13.926h63.514v13.926z" id="A" fill="#ec4a81"/><path d="M147.016 347.475c-3.922 0-7.106 3.178-7.106 7.106 0 .303.025.6.064.892a7.1 7.1 0 0 0 7.042 6.212c3.724 0 6.768-2.857 7.078-6.498.018-.2.03-.403.03-.606a7.11 7.11 0 0 0-7.11-7.106zm-3.56 4.426l1.45 1.45c-.113.195-.203.405-.258.626h-2.044a4.44 4.44 0 0 1 .85-2.075zm-.857 3.305h2.057c.06.22.144.426.26.62l-1.453 1.45a4.44 4.44 0 0 1-.863-2.07zm3.8 3.788c-.768-.106-1.47-.4-2.06-.853l1.445-1.447a2.4 2.4 0 0 0 .615.248v2.05zm0-6.78c-.22.06-.432.15-.627.263l-1.445-1.447c.593-.453 1.3-.75 2.073-.86v2.043zm1.23-2.043c.777.108 1.483.407 2.077.86l-1.446 1.446c-.195-.114-.407-.204-.63-.263v-2.043zm0 8.822v-2.05a2.55 2.55 0 0 0 .62-.253l1.444 1.45a4.4 4.4 0 0 1-2.063.853zm2.945-1.714l-1.456-1.457c.1-.2.205-.395.264-.617h2.04c-.108.77-.398 1.483-.85 2.074zm-1.192-3.303a2.39 2.39 0 0 0-.256-.626l1.45-1.45a4.41 4.41 0 0 1 .852 2.076h-2.045zm55.518.604c0-3.155 1.695-5.916 4.214-7.44l-16.74-7.416H181.86c-.625 0-1.132.507-1.132 1.133v1.488c0 .625.506 1.133 1.132 1.133h.745v1.032H180.7a1.39 1.39 0 0 0-1.322.953l-.152.454c-3.468-.28-5.118 2.374-6.85 2.374l-1.17-1.408a3.31 3.31 0 0 0-2.854-1.184c-.33.03-.684.097-1.043.218l-.657 2.374s-5.96-.347-13.707-.068c1.705 1.6 2.78 3.85 2.78 6.36l.04 5.506h51.106a8.63 8.63 0 0 1-1.904-4.415 8.76 8.76 0 0 1-.076-1.094zm-66.6 0c0-1.995.682-3.828 1.814-5.3-5.986.834-11.802 2.224-15.987 4.518 0 1.217 5.348.02 5.348 2.533h-4.126a.75.75 0 0 0-.753.753v2.248c0 .416.336.754.753.754h10.317c.417 0 .754-.337.754-.754v-3.47h2c-.01-.064-.025-.125-.033-.2-.05-.384-.077-.746-.077-1.092zm86.148-16.265h-11.026a1.88 1.88 0 0 0-1.878 1.877v2.46a1.88 1.88 0 0 0 .55 1.327l1.92 1.92c4.6.226 8.28 4.03 8.28 8.684 0 .115-.012.232-.018.346h4.048v-14.733c.002-1.038-.84-1.878-1.875-1.878zm-10.553 9.16c-3.922 0-7.106 3.178-7.106 7.106 0 .303.025.6.064.892.44 3.504 3.423 6.212 7.043 6.212 3.724 0 6.768-2.857 7.08-6.498.018-.2.03-.403.03-.606a7.11 7.11 0 0 0-7.11-7.106zm-3.558 4.426l1.45 1.45a2.44 2.44 0 0 0-.258.626h-2.045a4.43 4.43 0 0 1 .853-2.075zm-.858 3.305h2.057c.06.22.144.426.26.62l-1.453 1.45a4.44 4.44 0 0 1-.863-2.07zm3.8 3.788a4.42 4.42 0 0 1-2.059-.853l1.445-1.445a2.5 2.5 0 0 0 .616.248v2.05zm0-6.78a2.52 2.52 0 0 0-.627.263l-1.445-1.447a4.39 4.39 0 0 1 2.074-.859v2.044h-.002zm1.23-2.043c.777.108 1.483.407 2.077.86l-1.445 1.446c-.195-.114-.407-.204-.63-.263v-2.043zm0 8.822v-2.05a2.55 2.55 0 0 0 .62-.253l1.445 1.45a4.42 4.42 0 0 1-2.065.853zm2.946-1.714l-1.457-1.457a2.54 2.54 0 0 0 .265-.617h2.04a4.35 4.35 0 0 1-.85 2.074zm-1.193-3.303c-.057-.223-.144-.433-.257-.626l1.45-1.45a4.39 4.39 0 0 1 .851 2.076h-2.043z" id="B" fill="#ec4a81"/><path d="M102.398 87.562c.783 0 1.416-.636 1.416-1.42v-1.03c0-.785-.633-1.42-1.416-1.42h-7.063V69.118c0-.784-.634-1.418-1.417-1.418H81.086a1.42 1.42 0 0 0-1.418 1.418v14.578h-2.41V68.92a1.42 1.42 0 0 0-1.418-1.419h-3.47v2.838h2.05v13.357h-1.812a1.42 1.42 0 0 0-1.419 1.418v1.03a1.42 1.42 0 0 0 1.419 1.418h7.06v8.4h-1.653v-6.304a1.42 1.42 0 0 0-1.418-1.42h-3.99a1.42 1.42 0 0 0-1.419 1.42v16.438c0 .785.634 1.416 1.42 1.416h4c.784 0 1.418-.632 1.418-1.416v-6.307h18.974v6.307c0 .785.634 1.416 1.417 1.416h3.993c.783 0 1.416-.632 1.416-1.416V89.648c0-.786-.633-1.42-1.416-1.42h-3.993a1.42 1.42 0 0 0-1.417 1.42v6.303h-1.653v-8.4h7.063zm-19.893 2.262c.272-.132.573-.216.898-.216a2.05 2.05 0 1 1 0 4.1c-.324 0-.626-.082-.898-.216-.68-.333-1.152-1.028-1.152-1.834s.473-1.502 1.152-1.835zm9.99 3.67c-.27.133-.574.216-.9.216a2.05 2.05 0 0 1-2.048-2.049 2.05 2.05 0 0 1 2.048-2.05 2.03 2.03 0 0 1 .9.216 2.04 2.04 0 0 1 1.149 1.834c0 .807-.472 1.5-1.15 1.834zm-9.99-22.956h9.99v12.1h-9.99v-12.1z" id="C" fill="#ec4a81"/><path d="M248.125 89.578a2.66 2.66 0 0 0-2.605 3.015c.177 1.3 1.302 2.3 2.655 2.298 1.392-.013 2.52-1.092 2.623-2.455l.01-.227c-.014-1.467-1.215-2.644-2.682-2.63zm-.22 1l.007.764a.91.91 0 0 0-.234.101l-.546-.536a1.65 1.65 0 0 1 .773-.329zm-1.095.657l.548.537a.91.91 0 0 0-.094.234l-.763.008a1.77 1.77 0 0 1 .3-.78zm-.3 1.238l.77-.008c.023.082.055.16.098.23l-.538.548c-.17-.22-.287-.482-.33-.77zm.66 1.1l.535-.546c.07.04.15.07.232.092l.007.766a1.65 1.65 0 0 1-.774-.311zm2.636-1.582l-.764.008c-.022-.084-.056-.16-.098-.233l.537-.546a1.65 1.65 0 0 1 .326.772zm-1.433-1.4c.3.038.555.147.78.314l-.536.546a.92.92 0 0 0-.236-.096l-.007-.764zm.03 3.3l-.007-.765a.94.94 0 0 0 .23-.096l.546.536a1.65 1.65 0 0 1-.768.326zm1.095-.65l-.55-.54a.9.9 0 0 0 .097-.231l.763-.008a1.66 1.66 0 0 1-.31.778zm24.35-3.663c-1.467.014-2.646 1.215-2.63 2.682a2.44 2.44 0 0 0 .026.333c.177 1.3 1.302 2.3 2.655 2.298 1.392-.013 2.52-1.092 2.623-2.455l.01-.227a2.66 2.66 0 0 0-2.682-2.631zm-.22 1l.007.764c-.084.023-.16.056-.234.1l-.546-.536a1.67 1.67 0 0 1 .773-.33zm-1.095.657l.547.537a.91.91 0 0 0-.094.234l-.764.008a1.68 1.68 0 0 1 .31-.78zm-.3 1.238l.77-.008a.9.9 0 0 0 .098.23l-.538.548c-.17-.22-.286-.482-.33-.77zm.66 1.1l.535-.546a1.02 1.02 0 0 0 .232.092l.007.766c-.288-.037-.55-.147-.774-.3zm2.636-1.582l-.764.008c-.022-.084-.056-.16-.098-.233l.537-.546a1.64 1.64 0 0 1 .326.772zm-1.433-1.4a1.66 1.66 0 0 1 .78.314l-.536.546a.92.92 0 0 0-.236-.096l-.007-.764zm.03 3.3l-.007-.765a.94.94 0 0 0 .23-.096l.546.536a1.65 1.65 0 0 1-.768.326zm1.094-.65l-.55-.54c.042-.07.076-.148.096-.23l.763-.008c-.038.288-.144.556-.3.778zm6.98-2.67l-.917-.402s.8-4.754-1.32-9.05a.73.73 0 0 0-.448-.378c-3-.888-20.514-.786-24.728-.052a2.19 2.19 0 0 0-.996.452c-1.214.98-4.344 3.72-4.344 3.72l-4.763.857c-1.036.197-1.524.74-1.52 1.47l.017 2.58-.395.12a.37.37 0 0 0-.265.357v1.078s.12.627.66 1.017c.08.058.715.097 1.738.125-.005-.065-.015-.13-.015-.197a3.27 3.27 0 0 1 3.236-3.298c1.817 0 3.282 1.45 3.3 3.236.001.093-.01.278-.01.278l19.197-.125s-.007-.06-.007-.1a3.27 3.27 0 0 1 3.236-3.298c1.817 0 3.282 1.45 3.298 3.236.001.084-.01.25-.01.25l2.55-.42v.48a.2.2 0 0 0 .199.199h.45a.2.2 0 0 0 .2-.2V92h1.448c.295 0 .534-.24.534-.535v-.403c0-.213-.126-.406-.32-.5zm-24.487-5.526c-.008.125-.1.222-.236.222h-4.4s.005-1.174-.02-1.468c-.038-.462-.23-.638-.23-.638l1.617-1.488a1.07 1.07 0 0 1 .704-.283l2.548-.053a.24.24 0 0 1 .242.253l-.218 3.456z" id="D" fill="#ec4a81"/><path d="M328.443 178.062a5.32 5.32 0 0 0-5.322 5.322 5.22 5.22 0 0 0 .046.669 5.32 5.32 0 0 0 10.576-.215l.023-.455a5.32 5.32 0 0 0-5.323-5.322zm-2.666 3.316l1.086 1.086a1.8 1.8 0 0 0-.193.468h-1.53c.08-.58.3-1.1.637-1.554zm-.643 2.475h1.54c.044.164.108.32.193.462l-1.088 1.088a3.34 3.34 0 0 1-.645-1.55zm2.848 2.837a3.32 3.32 0 0 1-1.544-.64l1.082-1.083c.142.083.298.144.462.187v1.535zm0-5.077c-.168.044-.325.1-.47.196l-1.085-1.085c.446-.338.975-.563 1.555-.643v1.53zm.92-1.53a3.29 3.29 0 0 1 1.555.643l-1.084 1.084a1.82 1.82 0 0 0-.47-.196v-1.53zm0 6.608v-1.536c.164-.043.32-.103.462-.2l1.083 1.084c-.443.335-.968.56-1.545.64zm2.205-1.284l-1.092-1.092a1.82 1.82 0 0 0 .199-.461h1.53c-.08.578-.298 1.1-.636 1.553zm-.893-2.474a1.8 1.8 0 0 0-.193-.468l1.086-1.086a3.31 3.31 0 0 1 .637 1.554h-1.53zm43.89-4.87a5.32 5.32 0 0 0-5.322 5.322c0 .228.018.45.046.67a5.32 5.32 0 0 0 10.575-.214l.022-.455a5.32 5.32 0 0 0-5.321-5.322zm-2.666 3.316l1.086 1.086a1.83 1.83 0 0 0-.192.468h-1.53c.08-.58.3-1.1.637-1.554zm-.642 2.475h1.542a1.88 1.88 0 0 0 .19.462l-1.088 1.088c-.336-.443-.565-.972-.645-1.55zm2.847 2.837a3.3 3.3 0 0 1-1.543-.639l1.082-1.083a1.82 1.82 0 0 0 .46.187v1.535zm0-5.077a1.86 1.86 0 0 0-.471.196l-1.085-1.085a3.31 3.31 0 0 1 1.555-.643l.001 1.53zm.922-1.53a3.3 3.3 0 0 1 1.555.643l-1.085 1.084a1.82 1.82 0 0 0-.47-.196v-1.53zm0 6.608v-1.536a1.68 1.68 0 0 0 .46-.19l1.083 1.084c-.443.335-.968.56-1.544.64zm2.205-1.284l-1.092-1.092c.084-.143.155-.296.198-.46h1.53c-.082.578-.3 1.1-.636 1.553zm-.893-2.474a1.82 1.82 0 0 0-.191-.468l1.085-1.086c.336.446.558.974.638 1.554h-1.532zm8.874-9.188a7.28 7.28 0 0 0-.943-3.346l-3.822-6.744c-.626-1.104-1.775-1.8-3.042-1.875-6.406-.32-26.046-1.14-32.23.524-4.183 1.126-14.737 8.064-14.737 8.064s-11.613 1.8-13.828 7.095c0 0-.956.558-1.13 2-.1.736.13 1.854.37 2.8.264 1.025 1.114 1.796 2.16 1.96l5.04.8c-.075-.275-.138-.555-.175-.843-.032-.25-.053-.504-.053-.765a6.09 6.09 0 0 1 6.081-6.08 6.09 6.09 0 0 1 6.082 6.08 5.87 5.87 0 0 1-.025.517 5.99 5.99 0 0 1-.399 1.695l.593.032 33.484-.906a6.17 6.17 0 0 1-.102-.573c-.032-.25-.052-.504-.052-.765a6.09 6.09 0 0 1 6.08-6.08 6.09 6.09 0 0 1 6.082 6.08 5.96 5.96 0 0 1-.026.517c-.01.113-.03.222-.044.333l2.9-.6a2.49 2.49 0 0 0 1.993-2.526l-.246-7.37zm-19.27-10.72l.77 7.68-11.808.483v-8.202c3.452-.08 7.393-.044 11.038.04zm-29.796 8.712l-1.168.065c-.317.018-.608-.175-.715-.475s-.004-.63.252-.82a83.24 83.24 0 0 1 2.463-1.733v1.96c-.57.482-.832 1.002-.832 1.002zm2.894-1.798c-.074.003-.134.02-.205.028v-2.4c2.38-1.5 5.08-3.008 7.4-3.76 1.056-.34 2.982-.56 5.375-.7v8.213l-10.145.415s-.352-1.875-2.424-1.798zm41.017-.745a2.07 2.07 0 0 1-1.708 1.035l-8.343.34-.748-7.457 7.787.313c.675.036 1.284.425 1.6 1.024l1.448 2.747a2.07 2.07 0 0 1-.036 1.997z" id="E" fill="#ec4a81"/><path d="M151.462 175.566a5.84 5.84 0 0 0-5.841 5.839c0 .25.02.495.052.735a5.84 5.84 0 0 0 11.608-.236l.025-.5a5.84 5.84 0 0 0-5.843-5.838zm-2.926 3.64l1.192 1.192a1.96 1.96 0 0 0-.212.514h-1.68a3.63 3.63 0 0 1 .699-1.705zm-.705 2.717h1.7a2.08 2.08 0 0 0 .212.51l-1.195 1.192a3.66 3.66 0 0 1-.709-1.701zm3.125 3.114a3.62 3.62 0 0 1-1.694-.701l1.188-1.188a1.96 1.96 0 0 0 .506.204v1.685zm0-5.573a2.03 2.03 0 0 0-.516.215l-1.2-1.2a3.63 3.63 0 0 1 1.706-.706l-.001 1.68zm1.012-1.68a3.64 3.64 0 0 1 1.708.707l-1.2 1.2a2.01 2.01 0 0 0-.517-.215l-.001-1.68zm0 7.253v-1.685a1.96 1.96 0 0 0 .508-.206l1.187 1.2a3.62 3.62 0 0 1-1.695.7zm2.42-1.4l-1.197-1.197a2.01 2.01 0 0 0 .217-.507h1.68c-.1.634-.328 1.22-.7 1.704zm-.98-2.714c-.046-.183-.118-.354-.2-.514l1.2-1.192c.37.5.613 1.068.7 1.706h-1.68zm40.162-5.357a5.84 5.84 0 0 0-5.84 5.839 5.83 5.83 0 0 0 .05.735 5.84 5.84 0 0 0 11.608-.236l.025-.5a5.84 5.84 0 0 0-5.843-5.838zm-2.926 3.64l1.192 1.192a1.97 1.97 0 0 0-.212.514h-1.68c.086-.636.33-1.216.7-1.705zm-.704 2.717h1.7a2.04 2.04 0 0 0 .21.51l-1.195 1.192c-.367-.486-.62-1.067-.708-1.7zm3.125 3.114a3.63 3.63 0 0 1-1.695-.7l1.187-1.188a1.97 1.97 0 0 0 .508.204v1.685zm0-5.573a1.96 1.96 0 0 0-.517.215l-1.2-1.2a3.63 3.63 0 0 1 1.707-.706l-.001 1.68zm1-1.68a3.65 3.65 0 0 1 1.708.707l-1.2 1.2a2.02 2.02 0 0 0-.517-.215l-.001-1.68zm0 7.253v-1.685a1.96 1.96 0 0 0 .508-.206l1.188 1.2a3.62 3.62 0 0 1-1.696.7zm2.42-1.4l-1.197-1.197a2.04 2.04 0 0 0 .218-.507h1.68c-.1.634-.33 1.22-.7 1.704zm-.98-2.714c-.046-.183-.118-.354-.2-.514l1.2-1.192c.37.5.612 1.068.7 1.706h-1.68zm15.245-3.703h-1.152l-.296-6.926c-.018-.427-.373-.763-.8-.76l-15.92.146v-5.75a.97.97 0 0 0-.969-.968h-.76a.97.97 0 0 0-.968.968v5.776l-2.114.02-.424-5.1c-.1-1.064-.98-1.884-2.048-1.884h-19.334c-.675 0-1.323.26-1.8.727l-6.492 6.23-12.427 1.3a6.42 6.42 0 0 0-4.372 2.41l-1.28 1.622a2.69 2.69 0 0 0-1.212 2.872l.385 1.742a1.97 1.97 0 0 0 1.51 1.505l4.24.923-.047-.7a7.01 7.01 0 0 1 7-6.999 7.01 7.01 0 0 1 7.002 6.999l-.03.596-.02.15h28.206l-.052-.747a7.01 7.01 0 0 1 7.001-6.999 7.01 7.01 0 0 1 7.002 6.999l-.03.596-.02.15h3.554l3.22-1.775h3.454a.95.95 0 0 0 .951-.951v-1.253c-.003-.528-.43-.952-.954-.952zm-47.995-7.13s.413-.996 0-2.136l2.563-3.178a.77.77 0 0 1 .599-.287h7.67v5.6h-10.83zm13.67 0v-5.6h6.96a.77.77 0 0 1 .769.737l.202 4.863h-7.93z" id="F" fill="#ec4a81"/><path d="M112.488 267.827a.41.41 0 0 0-.362-.399l-.668-.076-.013-.68.323-.297a.85.85 0 0 0 .272-.639l-.04-2.124c-.008-.403-.3-.745-.696-.816 0 0-.372-8.238-2.1-9.76-1.888-1.672-33.604-1.862-40.468-.414-.562.118-1.073.4-1.46.837-1.432 1.58-2.88 4.785-2.88 4.785s-.864.24-1.2 1.472c-.123.44-.138 1.562-.104 2.866l-.044.001a.56.56 0 0 0-.548.568l.024 1.233c.003.148.064.288.17.4s.25.158.398.156l.1-.002.115 1.88a2.07 2.07 0 0 0 2.068 1.93l3.457-.002 1.3-2.87a1.51 1.51 0 0 1 1.35-.892l3.004-.057a1.51 1.51 0 0 1 1.346.77l1.715 3.046 19.63-.01 1.57-2.993a1.56 1.56 0 0 1 1.37-.828l2.863.004c.566.001 1.087.3 1.357.8l2.433 4.5 3-.037a1.33 1.33 0 0 0 1.208-.84l1.282-.473a.41.41 0 0 0 .266-.4l-.013-.646zm-44.974-9.5c-.274.006-.533-.13-.685-.358s-.178-.518-.067-.77L68 254.377a.72.72 0 0 1 .65-.434l.45-.01.042 4.36-1.628.03zm9.127-.818c-.03.366-.332.65-.7.657l-6.435.122-.04-4.362 6.687-.127c.202-.004.396.078.535.225s.208.346.192.548l-.238 2.937zm14.696.446a.72.72 0 0 1-.513.212L79.82 258.1c-.388-.002-.703-.313-.7-.7l-.056-2.93a.71.71 0 0 1 .72-.728l11.006.088c.388.003.702.314.7.702l.055 2.9a.71.71 0 0 1-.205.515zm14.863-.065a.72.72 0 0 1-.556.262l-11.662-.045c-.388-.002-.704-.313-.712-.702l-.055-2.928a.71.71 0 0 1 .206-.515.72.72 0 0 1 .514-.213l10.34.083c.795.007 1.477.567 1.637 1.346l.435 2.115c.043.2-.01.43-.147.597zm-33.163 7.82a3.83 3.83 0 0 0-3.785 3.857 3.77 3.77 0 0 0 .038.48 3.82 3.82 0 0 0 7.592-.227l.014-.327a3.82 3.82 0 0 0-3.858-3.784zm-.317 1.454l.01 1.1c-.12.032-.232.08-.336.144l-.786-.77a2.36 2.36 0 0 1 1.112-.473zm-1.575.945l.787.772c-.06.106-.106.218-.136.338l-1.098.01a2.39 2.39 0 0 1 .447-1.12zm-.445 1.78l1.106-.01c.032.117.08.23.14.33l-.774.788a2.39 2.39 0 0 1-.474-1.107zm.95 1.57l.77-.785a1.34 1.34 0 0 0 .333.13l.01 1.1a2.37 2.37 0 0 1-1.113-.448zm3.8-2.275l-1.1.01a1.33 1.33 0 0 0-.141-.335l.772-.787a2.38 2.38 0 0 1 .468 1.111zm-2.06-2.026a2.37 2.37 0 0 1 1.121.451l-.77.786a1.32 1.32 0 0 0-.34-.138l-.01-1.1zm.045 4.744l-.01-1.1c.118-.03.23-.077.33-.138l.784.77c-.315.242-.7.408-1.104.468zm1.575-.937l-.8-.776a1.33 1.33 0 0 0 .139-.333l1.098-.01a2.38 2.38 0 0 1-.446 1.12zm26.52-5.255a3.83 3.83 0 0 0-3.785 3.857 3.77 3.77 0 0 0 .038.48 3.82 3.82 0 0 0 7.592-.227l.013-.327a3.82 3.82 0 0 0-3.858-3.784zm-.317 1.454l.01 1.1c-.12.032-.232.08-.336.144l-.786-.77c.318-.247.697-.412 1.112-.473zm-1.575.945l.787.772c-.06.106-.106.218-.136.338l-1.098.01a2.39 2.39 0 0 1 .448-1.12zm-.445 1.78l1.106-.01a1.27 1.27 0 0 0 .141.33l-.774.788a2.39 2.39 0 0 1-.474-1.107zm.95 1.57l.77-.785a1.34 1.34 0 0 0 .333.13l.01 1.1a2.37 2.37 0 0 1-1.113-.448zm3.8-2.275l-1.1.01a1.33 1.33 0 0 0-.141-.335l.772-.787c.245.317.407.695.468 1.1zm-2.06-2.026a2.37 2.37 0 0 1 1.121.451l-.77.786a1.35 1.35 0 0 0-.34-.138l-.01-1.1zm.045 4.744v-1.1a1.22 1.22 0 0 0 .33-.138l.785.77c-.315.242-.7.408-1.104.468zm1.575-.937l-.8-.776c.06-.103.1-.213.14-.333l1.098-.01c-.054.415-.206.8-.446 1.12z" id="G" fill="#ec4a81"/><path d="M245.754 267.77c-.037-3.946-3.266-7.115-7.213-7.078s-7.113 3.266-7.076 7.212a6.98 6.98 0 0 0 .072.897 7.14 7.14 0 0 0 14.192-.422c.015-.2.027-.404.025-.6zm-7.805-4.358l.02 2.055c-.225.06-.434.15-.63.27l-1.47-1.44a4.44 4.44 0 0 1 2.08-.885zm-2.944 1.767l1.472 1.443a2.52 2.52 0 0 0-.254.63l-2.053.02a4.43 4.43 0 0 1 .835-2.094zm-.83 3.33l2.068-.02a2.41 2.41 0 0 0 .265.619l-1.447 1.474a4.49 4.49 0 0 1-.886-2.074zm1.778 2.933l1.44-1.467a2.49 2.49 0 0 0 .622.246l.02 2.06c-.774-.1-1.483-.397-2.08-.838zm7.086-4.253l-2.055.02a2.41 2.41 0 0 0-.265-.626l1.443-1.472a4.42 4.42 0 0 1 .876 2.078zm-3.853-3.788c.78.102 1.494.397 2.095.845l-1.44 1.468a2.4 2.4 0 0 0-.634-.257l-.02-2.056zm.084 8.868l-.02-2.06a2.34 2.34 0 0 0 .618-.257l1.466 1.442a4.52 4.52 0 0 1-2.066.876zm2.943-1.75l-1.478-1.45c.1-.194.203-.398.26-.624l2.052-.02a4.43 4.43 0 0 1-.834 2.094zm51.735-10.12c-3.946.04-7.113 3.266-7.076 7.2a7.14 7.14 0 0 0 14.261.474 6.85 6.85 0 0 0 .025-.61c-.036-3.945-3.266-7.1-7.212-7.074zm-.594 2.718l.02 2.055a2.41 2.41 0 0 0-.628.27l-1.47-1.44a4.43 4.43 0 0 1 2.078-.884zm-2.944 1.766l1.473 1.445a2.42 2.42 0 0 0-.253.629l-2.054.02a4.45 4.45 0 0 1 .834-2.095zm-.83 3.33l2.07-.02c.06.22.148.43.264.62l-1.447 1.474a4.5 4.5 0 0 1-.886-2.075zm1.777 2.93l1.44-1.466c.2.1.403.2.624.246l.02 2.06a4.44 4.44 0 0 1-2.082-.838zm7.088-4.25l-2.055.02a2.4 2.4 0 0 0-.265-.624l1.444-1.472a4.44 4.44 0 0 1 .876 2.077zm-3.854-3.8a4.45 4.45 0 0 1 2.095.845l-1.44 1.47c-.197-.115-.4-.203-.635-.26l-.02-2.055zm.083 8.868l-.02-2.058c.22-.058.428-.144.62-.26l1.466 1.442a4.43 4.43 0 0 1-2.066.876zm2.944-1.752l-1.48-1.45c.1-.193.205-.397.26-.622l2.053-.02c-.1.778-.386 1.496-.834 2.093zm9.817-6.268c-.082-.175-.235-.3-.42-.367l-.74-.235.52-2.44a1.02 1.02 0 0 0-.566-1.139l-.953-.447.52-2.976a1.02 1.02 0 0 0-.803-1.177c-5.92-1.22-34.673-8.9-53.304-2.828-5.452 1.776-13.865 4.994-13.865 4.994s-12.6 2.136-20.325 9.7l.7 1.6-.527 2.106a.56.56 0 0 0 .092.467.57.57 0 0 0 .42.225l12.982.656.588-.006a8.01 8.01 0 0 1-1.142-3.153 7.74 7.74 0 0 1-.08-1.015 8.1 8.1 0 0 1 8.007-8.161c4.494 0 8.12 3.593 8.163 8.007.002.233-.01.462-.028.692-.095 1.262-.5 2.442-1.102 3.476l40.3-.45 1.057-.07c-.46-.843-.775-1.776-.9-2.773a7.59 7.59 0 0 1-.08-1.015 8.1 8.1 0 0 1 8.007-8.161c4.494 0 8.122 3.594 8.163 8.008.002.233-.01.462-.027.692a7.93 7.93 0 0 1-.524 2.289l.65-.043a2.3 2.3 0 0 0 1.848-1.155l1.843-.92 1.558-3.832a.71.71 0 0 0-.015-.557zm-64.323-6.246a.42.42 0 0 1-.043-.781c.834-.38 2.228-.972 4.16-1.67v3.5c-1.36-.2-3.065-.702-4.118-1.05zm11.44-1.24a1.29 1.29 0 0 0-1.272-.726c-1.492.125-4.363.508-4.714 1.63-.17.548 1.765 1.45 1.765 1.45s-1.083.06-2.22.012v-3.9c1.903-.66 4.253-1.395 7.043-2.122 4-1.042 9.555-1.258 14.683-.963l1.575 4.856c-8.938 1.338-16.93 1.658-16.93 1.658l.2-1a1.46 1.46 0 0 0-.119-.907zm19.564-.183l-1.362-4.196c4.636.457 8.555 1.314 10.084 2.304-2.77.764-5.76 1.387-8.722 1.892z" id="H" fill="#ec4a81"/><path id="I" d="M0 0h350v350H0z"/></defs><pattern id="J" width="350" height="350" patternUnits="userSpaceOnUse"><use xlink:href="#A" x="-350" y="-350"/><use xlink:href="#A" y="-350"/><use xlink:href="#A" x="350" y="-350"/><use xlink:href="#A" x="-350"/><use xlink:href="#A"/><use xlink:href="#A" x="350"/><use xlink:href="#A" x="-350" y="350"/><use xlink:href="#A" y="350"/><use xlink:href="#A" x="350" y="350"/></pattern><use xlink:href="#I" fill="url(#J)"/><pattern id="K" width="350" height="350" patternUnits="userSpaceOnUse"><use xlink:href="#B" x="-350" y="-350"/><use xlink:href="#B" y="-350"/><use xlink:href="#B" x="350" y="-350"/><use xlink:href="#B" x="-350"/><use xlink:href="#B"/><use xlink:href="#B" x="350"/><use xlink:href="#B" x="-350" y="350"/><use xlink:href="#B" y="350"/><use xlink:href="#B" x="350" y="350"/></pattern><use xlink:href="#I" fill="url(#K)"/><pattern id="L" width="350" height="350" patternUnits="userSpaceOnUse"><use xlink:href="#C" x="-350" y="-350"/><use xlink:href="#C" y="-350"/><use xlink:href="#C" x="350" y="-350"/><use xlink:href="#C" x="-350"/><use xlink:href="#C"/><use xlink:href="#C" x="350"/><use xlink:href="#C" x="-350" y="350"/><use xlink:href="#C" y="350"/><use xlink:href="#C" x="350" y="350"/></pattern><use xlink:href="#I" fill="url(#L)"/><pattern id="M" width="350" height="350" patternUnits="userSpaceOnUse"><use xlink:href="#D" x="-350" y="-350"/><use xlink:href="#D" y="-350"/><use xlink:href="#D" x="350" y="-350"/><use xlink:href="#D" x="-350"/><use xlink:href="#D"/><use xlink:href="#D" x="350"/><use xlink:href="#D" x="-350" y="350"/><use xlink:href="#D" y="350"/><use xlink:href="#D" x="350" y="350"/></pattern><use xlink:href="#I" fill="url(#M)"/><pattern id="N" width="350" height="350" patternUnits="userSpaceOnUse"><use xlink:href="#E" x="-350" y="-350"/><use xlink:href="#E" y="-350"/><use xlink:href="#E" x="350" y="-350"/><use xlink:href="#E" x="-350"/><use xlink:href="#E"/><use xlink:href="#E" x="350"/><use xlink:href="#E" x="-350" y="350"/><use xlink:href="#E" y="350"/><use xlink:href="#E" x="350" y="350"/></pattern><use xlink:href="#I" fill="url(#N)"/><pattern id="O" width="350" height="350" patternUnits="userSpaceOnUse"><use xlink:href="#F" x="-350" y="-350"/><use xlink:href="#F" y="-350"/><use xlink:href="#F" x="350" y="-350"/><use xlink:href="#F" x="-350"/><use xlink:href="#F"/><use xlink:href="#F" x="350"/><use xlink:href="#F" x="-350" y="350"/><use xlink:href="#F" y="350"/><use xlink:href="#F" x="350" y="350"/></pattern><use xlink:href="#I" fill="url(#O)"/><pattern id="P" width="350" height="350" patternUnits="userSpaceOnUse"><use xlink:href="#G" x="-350" y="-350"/><use xlink:href="#G" y="-350"/><use xlink:href="#G" x="350" y="-350"/><use xlink:href="#G" x="-350"/><use xlink:href="#G"/><use xlink:href="#G" x="350"/><use xlink:href="#G" x="-350" y="350"/><use xlink:href="#G" y="350"/><use xlink:href="#G" x="350" y="350"/></pattern><use xlink:href="#I" fill="url(#P)"/><pattern id="Q" width="350" height="350" patternUnits="userSpaceOnUse"><use xlink:href="#H" x="-350" y="-350"/><use xlink:href="#H" y="-350"/><use xlink:href="#H" x="350" y="-350"/><use xlink:href="#H" x="-350"/><use xlink:href="#H"/><use xlink:href="#H" x="350"/><use xlink:href="#H" x="-350" y="350"/><use xlink:href="#H" y="350"/><use xlink:href="#H" x="350" y="350"/></pattern><use xlink:href="#I" fill="url(#Q)"/></svg>