<svg xmlns="http://www.w3.org/2000/svg" xmlns:xlink="http://www.w3.org/1999/xlink" width="400" height="400" viewBox="0 0 350 350"><path opacity="0" fill="#fff" d="M0 0h350v350H0z"/><defs><path d="M164.648 350.485l2.98-4.004v-.876h.05v-5.957h2.832v-2.93h-3.4l-2.44-5.86h-2.93V325h-2.93v5.86h-2.93l-2.44 5.86H150v2.93h2.832v5.957h.05v.876l2.98 4.004V375H200v-20.508h-35.35zm-6.836-16.696h4.883l1.22 2.93h-7.324zm6.934 5.86v3.027h-8.984v-3.027zm-8.865 5.957h8.746l-2.908 3.9v4.977h-2.93v-4.977zm8.963 26.465v-1.465c0-.808.657-1.465 1.465-1.465s1.465.657 1.465 1.465v1.465zm11.72 0v-1.465c0-.808.657-1.465 1.465-1.465s1.465.657 1.465 1.465v1.465zm11.72 0v-1.465c0-.808.657-1.465 1.465-1.465s1.465.657 1.465 1.465v1.465zm5.86 0v-1.465a4.4 4.4 0 0 0-4.395-4.395 4.4 4.4 0 0 0-4.395 4.395v1.465h-2.93v-1.465a4.4 4.4 0 0 0-4.395-4.395 4.4 4.4 0 0 0-4.395 4.395v1.465h-2.93v-1.465a4.4 4.4 0 0 0-4.395-4.395 4.4 4.4 0 0 0-4.395 4.395v1.465h-3.125v-8.8h38.28v8.8zm2.93-14.648v2.93h-38.28v-2.93zm1.46-16.603v-5.86h-7.508l-2.066 5.86h-10.125l-5.204 3.63v5.16h20.926l5.44-3.386v-5.404zm-5.434-2.93h2.505v2.93h-3.538zm3.97 6.706l-3.348 2.083h-17.16v-.7l3.195-2.23h17.313zm0 0" id="A" fill="#ec4a81"/><g id="B" fill="#ec4a81"><path d="M100.78 161.72V150H74.22v11.72H62.5V200h50v-38.28zm8.8 2.93v2.93h-8.8v-2.93zm-32.422-11.72H97.85v2.93H77.148zm-11.72 11.72h8.8v2.93h-8.8zm8.8 32.422h-8.8v-26.465h8.8zm8.8 0v-8.8h8.984v8.8zm14.844 0h-2.93v-11.72H80.078v11.72h-2.93v-38.28H97.85zm11.72 0h-8.8v-26.465h8.8zm-5.862-23.537h2.93v8.8h-2.93zm0 0"/><path d="M68.36 173.535h2.93v8.8h-2.93zm11.718 0h2.93v8.887h-2.93zm5.957-8.887h-3.027v-2.93h-2.93v8.8h2.93v-2.93h3.027v2.93h2.93v-8.8h-2.93zm5.957 8.887h2.93v8.887h-2.93zm0 0"/><path d="M91.992 161.72h2.93v8.8h-2.93zm-5.957 11.913h2.93v8.8h-2.93zm0 0"/></g><g id="C" fill="#ec4a81"><path d="M370.645 315H315v37.188h8.556c.847 2.387 3.126 4.102 5.8 4.102s4.953-1.714 5.8-4.102h25.588c.847 2.387 3.126 4.102 5.8 4.102s4.953-1.714 5.8-4.102H385v-22.832c0-7.916-6.44-14.355-14.355-14.355zm6.152 20.645h4.102v4.102h-4.102zm-6.152-16.543c3.347 0 6.325 1.613 8.198 4.102h-6v4.102h7.86a10.26 10.26 0 0 1 .206 2.05v2.188h-61.797v-12.44zm-41.3 33.086c-1.13 0-2.05-.92-2.05-2.05s.92-2.05 2.05-2.05 2.05.92 2.05 2.05-.92 2.05-2.05 2.05zm5.8-4.102c-.847-2.387-3.126-4.102-5.8-4.102s-4.953 1.714-5.8 4.102H319.1v-12.44h28.984v12.44zm17.032-12.44h8.203v12.44h-8.203zm14.355 16.543c-1.13 0-2.05-.92-2.05-2.05s.92-2.05 2.05-2.05 2.05.92 2.05 2.05-.92 2.05-2.05 2.05zm14.355-4.102h-8.556c-.847-2.387-3.126-4.102-5.8-4.102a6.12 6.12 0 0 0-2.05.352v-8.692h8.203v8.203h8.203zm-57.694-24.884h12.305v4.102h-12.305zm0 0"/><path d="M339.6 323.203h12.44v4.102H339.6zm16.542 0h12.44v4.102h-12.44zm0 0"/></g><path d="M269.922 164.518v-7.225L262.5 150l-7.422 7.293v7.225l-17.578 8.9V200h50v-26.584zm-.95 14.975H256.03l1.44-3.027h10.063zm-10.963-15.137h3.027v4.687h2.93v-4.687h3.027v9.18h-8.984zm4.492-10.254l4.492 4.426v2.898h-3.027v-2.54h-2.93v2.54h-3.027v-2.898zm-22.07 21.115l14.648-7.415v3.357l-14.648 7.415zm0 21.854v-15.213l14.648-7.415v.228l-3.685 7.752h.853v14.648zm20.605 0v-7.324c0-.808.657-1.465 1.465-1.465s1.465.657 1.465 1.465v7.324zm5.86 0v-7.324a4.4 4.4 0 0 0-4.395-4.395 4.4 4.4 0 0 0-4.395 4.395v7.324h-2.93v-14.648h14.648v14.648zm17.676 0h-11.816v-14.648h.853l-3.685-7.752v-.228l14.648 7.415zm-14.648-25.912v-3.36l14.648 7.415v3.357zm-26.564 14.29h2.93v8.8h-2.93zm35.35 0h2.93v8.8h-2.93zm0 0" id="D" fill="#ec4a81"/></defs><pattern id="E" width="350" height="350" patternUnits="userSpaceOnUse"><use xlink:href="#A" x="-350" y="-350"/><use xlink:href="#A" y="-350"/><use xlink:href="#A" x="350" y="-350"/><use xlink:href="#A" x="-350"/><use xlink:href="#A"/><use xlink:href="#A" x="350"/><use xlink:href="#A" x="-350" y="350"/><use xlink:href="#A" y="350"/><use xlink:href="#A" x="350" y="350"/></pattern><path fill="url(#E)" d="M0 0h350v350H0z"/><pattern id="F" width="350" height="350" patternUnits="userSpaceOnUse"><use xlink:href="#B" x="-350" y="-350"/><use xlink:href="#B" y="-350"/><use xlink:href="#B" x="350" y="-350"/><use xlink:href="#B" x="-350"/><use xlink:href="#B"/><use xlink:href="#B" x="350"/><use xlink:href="#B" x="-350" y="350"/><use xlink:href="#B" y="350"/><use xlink:href="#B" x="350" y="350"/></pattern><path fill="url(#F)" d="M0 0h350v350H0z"/><pattern id="G" width="350" height="350" patternUnits="userSpaceOnUse"><use xlink:href="#C" x="-350" y="-350"/><use xlink:href="#C" y="-350"/><use xlink:href="#C" x="350" y="-350"/><use xlink:href="#C" x="-350"/><use xlink:href="#C"/><use xlink:href="#C" x="350"/><use xlink:href="#C" x="-350" y="350"/><use xlink:href="#C" y="350"/><use xlink:href="#C" x="350" y="350"/></pattern><path fill="url(#G)" d="M0 0h350v350H0z"/><pattern id="H" width="350" height="350" patternUnits="userSpaceOnUse"><use xlink:href="#D" x="-350" y="-350"/><use xlink:href="#D" y="-350"/><use xlink:href="#D" x="350" y="-350"/><use xlink:href="#D" x="-350"/><use xlink:href="#D"/><use xlink:href="#D" x="350"/><use xlink:href="#D" x="-350" y="350"/><use xlink:href="#D" y="350"/><use xlink:href="#D" x="350" y="350"/></pattern><path fill="url(#H)" d="M0 0h350v350H0z"/></svg>