<svg xmlns="http://www.w3.org/2000/svg" xmlns:xlink="http://www.w3.org/1999/xlink" width="400" height="400" viewBox="0 0 350 350"><use xlink:href="#I" opacity="0" fill="#e2e4ec"/><defs><g id="A" fill="#ec4a81"><path d="M393.953 1.677c-.066-12.816-1.34-21.647-1.353-21.734a1.34 1.34 0 0 0-.165-.474c-4.94-8.558-14.23-15.02-14.623-15.292l-.022-.014c-.298-.197-7.423-4.86-17.18-7.475s-18.257-2.137-18.614-2.117c-.017.002-.022.001-.027.002-.12.01-3.03.25-7.02 1.113-.722.156-1.18.867-1.024 1.6.1.506.493.883.962 1a1.34 1.34 0 0 0 .628.015 62.11 62.11 0 0 1 5.065-.88c.12 5.65 6.06 14.3 15.333 16.795s18.747-2.044 21.676-6.877c2.662 2.042 8.796 7.14 12.398 13.246.138 1.022.653 5.095 1 11.165-2.422 3.67-5.6 6.2-9.458 7.514-1.668.57-3.123.78-4.1.857l-.052-6.34c-.006-.67-.504-1.23-1.167-1.315s-1.287.334-1.46.98l-11.38 42.472c-.792.352-2.657 1.038-5.735 1.353-.734.075-1.27.73-1.194 1.466a1.34 1.34 0 0 0 .984 1.155 1.33 1.33 0 0 0 .482.038c1.94-.198 3.472-.536 4.622-.875l-.706 2.634c-1.77.8-9.024 3.315-23.815-.648-4.914-1.317-11.867-3.7-17.087-7.63-2.227-1.673-3.383-3.066-3.86-3.722l.703-2.625c2.632 2.763 8.652 7.462 21.097 10.796 4.854 1.3 9.402 2.046 13.516 2.215a1.35 1.35 0 0 0 1.4-1.28c.04-.737-.543-1.36-1.28-1.4-3.918-.16-8.27-.877-12.934-2.127-14.655-3.927-19.784-9.772-20.947-11.357l11.38-42.47a1.34 1.34 0 0 0-2.444-1.025l-3.215 5.464c-.8-.55-1.953-1.46-3.114-2.787-2.683-3.067-4.17-6.846-4.434-11.235 3.325-5.085 5.8-8.36 6.44-9.175 2.074-1.172 4.514-2.203 7.258-3.066a1.34 1.34 0 0 0 .874-1.677c-.222-.704-.972-1.096-1.677-.874-3.03.953-5.726 2.107-8.016 3.43a1.33 1.33 0 0 0-.38.328c-.055.07-5.574 7.08-12.04 18.146-.06.103-.107.215-.137.33-.047.177-.058.362-.03.543.96 6.46 6.58 13.408 12.026 14.867.58.156 1.194-.095 1.498-.613l2.26-3.843-10.534 39.3c-.1.33-.047.682.116.982.18.332 4.605 8.168 22.878 13.065s26.023.322 26.344.124a1.33 1.33 0 0 0 .592-.793l10.533-39.3.036 4.458c.005.6.4 1.125 1 1.28 5.445 1.46 13.786-1.748 17.848-6.863a1.26 1.26 0 0 0 .245-.487 1.36 1.36 0 0 0 .045-.353zM356.607-28.37c-8.478-2.272-13.416-10.3-13.36-14.424 2.564-.036 9.32.092 16.673 2.062s13.268 5.238 15.47 6.55c-2.014 3.6-10.305 8.083-18.783 5.8zM320.844-8.186c-4.05-1.67-8.124-6.97-9.05-11.902l2.748-4.537c1.505 7.414 6.168 11.327 8.426 12.83zm56.644 15.178l-.034-4.188c2.707-.172 8.7-1.23 13.712-6.898l.1 5.304c-3.267 3.808-9.447 6.36-13.8 5.783zm-21.812-45.094a1.34 1.34 0 0 0 .946 1.637l4.02 1.077a1.34 1.34 0 0 0 1.637-.945c.192-.713-.232-1.446-.945-1.637l-4.02-1.077a1.34 1.34 0 0 0-1.637.945zm2.28 49.005a16.11 16.11 0 0 0 7.556-9.847 16.11 16.11 0 0 0-1.62-12.306 16.11 16.11 0 0 0-9.848-7.556 16.11 16.11 0 0 0-12.306 1.62 16.11 16.11 0 0 0-7.556 9.848 16.11 16.11 0 0 0 1.62 12.306 16.11 16.11 0 0 0 9.847 7.556 16.11 16.11 0 0 0 12.306-1.62zm-21.2-17.55c.936-3.495 3.178-6.415 6.3-8.224a13.45 13.45 0 0 1 10.277-1.353c3.495.937 6.416 3.178 8.224 6.3A13.45 13.45 0 0 1 362.93.354c-.937 3.495-3.177 6.415-6.3 8.224s-6.783 2.3-10.278 1.353a13.45 13.45 0 0 1-8.224-6.31c-1.8-3.133-2.3-6.783-1.353-10.278zm7.906-1.407c.937.25 1.72.852 2.203 1.692.185.32.482.534.812.623a1.33 1.33 0 0 0 1.014-.134 1.35 1.35 0 0 0 .5-1.826 6.26 6.26 0 0 0-3.827-2.937 6.26 6.26 0 0 0-4.783.63 1.34 1.34 0 0 0-.49 1.826 1.34 1.34 0 0 0 1.826.49c.84-.485 1.818-.614 2.755-.363zm0 0"/><path d="M354.032-4.445c.84-.485 1.818-.614 2.754-.363s1.72.852 2.204 1.692a1.33 1.33 0 0 0 1.826.489c.64-.37.86-1.187.5-1.826a6.26 6.26 0 0 0-3.827-2.937 6.26 6.26 0 0 0-4.782.63c-.64.37-.86 1.186-.5 1.826a1.34 1.34 0 0 0 1.826.49zm3.454 7.637a1.34 1.34 0 0 0 .49-1.826c-.368-.64-1.187-.86-1.826-.5-2.332 1.346-5.048 1.703-7.648 1.007a10.01 10.01 0 0 1-6.12-4.696c-.37-.64-1.186-.86-1.826-.5a1.34 1.34 0 0 0-.49 1.826 12.67 12.67 0 0 0 7.744 5.941 12.67 12.67 0 0 0 9.676-1.274zm0 0"/></g><path d="M201.98 357.748l-.78-4.24c-.102-.55-.467-1.017-.977-1.248a1.71 1.71 0 0 0-.655-.151c-1.6-13.01-6.066-23.47-6.11-23.576-.04-.093-.098-.178-.17-.25l-.246-.242c-3.073-2.94-7.166-4.558-11.528-4.558h-.62a.8.8 0 0 0-.357.084c-3.493 1.768-8.094 1.776-11.196.02a.81.81 0 0 0-.397-.104h-.62c-4.36 0-8.456 1.62-11.528 4.558l-.247.24a.81.81 0 0 0-.17.251c-.046.105-4.514 10.57-6.11 23.576a1.71 1.71 0 0 0-.656.151c-.5.23-.875.698-.976 1.25l-.78 4.24a3.13 3.13 0 0 0 1.628 3.349c1.282.673 3.382 1.47 6.144 1.47h.125a3.14 3.14 0 0 0 3.071-2.623l.67-3.977c.087-.517-.063-1.038-.412-1.428-.072-.08-.153-.152-.237-.217l.796-2.882a.8.8 0 0 0 .039-.249c0-.445-.36-.806-.806-.806-.362 0-.68.242-.776.59l-.813 2.94c-.006.023-.014.045-.022.067a11.68 11.68 0 0 1-5.446-1.293c1.276-10.816 4.602-19.9 5.69-22.66 1.414.954 4.326 3.386 4.378 7.258l-2.93 10.592c-.12.43.133.873.56.99s.873-.132.99-.56l1.36-4.92c.132 3.498.518 4.954.917 5.658v3.407c-1.735 1.988-2.53 6.657-3.3 11.182-.482 2.835-.98 5.767-1.6 6.762-.138.222-.16.497-.058.738s.314.417.57.473c.087.02 8.78 1.902 16.516 1.902s16.428-1.883 16.515-1.902c.256-.056.468-.232.57-.473s.08-.516-.058-.738c-.617-.995-1.116-3.927-1.6-6.762-.783-4.6-1.592-9.347-3.387-11.276v-3.17c.43-.644.863-2.048 1.005-5.8l3.024 10.932a1.69 1.69 0 0 0-.237.216c-.35.4-.5.91-.412 1.428l.672 3.978a3.14 3.14 0 0 0 3.071 2.622h.126a13.78 13.78 0 0 0 2.398-.207c1.336-.234 2.596-.658 3.745-1.26a3.13 3.13 0 0 0 1.629-3.349zm-44.743 1.927a1.53 1.53 0 0 1-1.497 1.28c-2.488.023-4.368-.686-5.505-1.284-.596-.313-.915-.97-.793-1.633l.78-4.24c.002-.013.01-.052.058-.074a.1.1 0 0 1 .098.005 13.28 13.28 0 0 0 7.425 1.846c.032-.002.06.01.082.034s.03.054.025.087zm29.1-22.283c.001.012 0 .024.001.035.001.025.108 2.532.04 5.175-.094 3.687-.453 5.03-.656 5.5h-4.328c-.064-4.123-.674-8.607-3.486-12.683a23.51 23.51 0 0 1 .792-.664c2.69-2.15 4.224-5.098 5.04-7.197l.828-2.167c2.536.506 4.88 1.64 6.82 3.322-1.704 1.15-5.053 4.002-5.053 8.678zM174.884 351.9v-2.176h10.465v2.176zm-.806-3.787c-.445 0-.806.36-.806.805v14.48h-1.534v-14.48c0-1.048.853-1.9 1.9-1.9h1.02c.76 0 1.418.45 1.72 1.096zm7.434-23.012a15.73 15.73 0 0 1 1.422.065l-.697 1.824c-.743 1.9-2.134 4.59-4.543 6.52a25.56 25.56 0 0 0-.762.635c-.27-.326-.557-.65-.86-.968a25.92 25.92 0 0 1 .813-.678c2.9-2.32 4.2-5.94 4.627-7.395zm-1.91.614c-.587 1.564-1.74 3.937-3.724 5.523a26.81 26.81 0 0 0-.966.81 21.95 21.95 0 0 0-.955-.81c-1.96-1.568-3.108-3.9-3.702-5.465 1.405.503 2.948.756 4.515.756a14.73 14.73 0 0 0 4.832-.815zm-11.278-.614c.427 1.455 1.73 5.076 4.627 7.395 2.672 2.137 4.493 4.633 5.568 7.63.8 2.23 1.204 4.784 1.26 7.987h-1.294c-.083-5.114-1.042-10.362-6.345-14.605-2.4-1.928-3.8-4.608-4.54-6.514l-.698-1.828a15.88 15.88 0 0 1 1.422-.064zm-9.877 3.622a14.81 14.81 0 0 1 6.821-3.322l.83 2.17c.814 2.094 2.35 5.042 5.038 7.192 3.97 3.175 5.31 6.895 5.65 11.36-.6-.45-1.327-.718-2.125-.718h-1.02c-1.66 0-3.052 1.157-3.417 2.706h-6.108c-.204-.472-.562-1.815-.656-5.5-.067-2.643.04-5.15.04-5.175 0-.012 0-.023 0-.035h.001c0-4.676-3.35-7.53-5.053-8.678zm5.952 21h5.73v2.176h-5.73zm5.73 3.787v2.242a2.49 2.49 0 0 1-1.676-2.242zm-6.116 0h2.83c.05 1.934 1.447 3.54 3.287 3.907v6.787c0 .445.36.806.805.806h3.144c.445 0 .806-.36.806-.806V353.5h1.867c-.765 2.7-.71 5.857.17 9.403.462 1.865 1.1 3.636 1.786 5.224a57.89 57.89 0 0 1-3.791.134c-5.476 0-11.396-.954-14.34-1.502l.503-2.856c.672-3.948 1.5-8.818 2.935-10.404zm10.906 18.4c-6.056 0-12.735-1.185-15.193-1.666.2-.533.363-1.174.526-1.894 2.987.556 9.04 1.534 14.665 1.534a60.93 60.93 0 0 0 4.505-.181c.336.697.673 1.345.996 1.937-1.8.163-3.678.27-5.5.27zm10.53-.872a41.98 41.98 0 0 1-1.019-1.864c2.12-.284 3.938-.597 5.157-.825.163.72.336 1.362.527 1.895-.983.192-2.64.497-4.665.794zm3.815-4.267a102.2 102.2 0 0 1-5.579.876l-.397-.887c-.176-.408-.65-.597-1.058-.42s-.597.65-.42 1.058c.56 1.302 1.207 2.602 1.92 3.877l-1.566.19c-1.243-2.188-2.8-5.388-3.68-8.936-.86-3.47-.875-6.5-.048-9.017h1.216c-.684 3.102-.352 6.738.99 10.828.112.34.427.554.765.554.084 0 .168-.013.252-.04.423-.14.653-.594.514-1.017-1.304-3.97-1.595-7.44-.867-10.325h4.52c1.434 1.587 2.263 6.456 2.935 10.405l.503 2.855zm-1.314-29.472c.052-3.855 2.964-6.297 4.38-7.257 1.088 2.763 4.41 11.844 5.688 22.66a11.56 11.56 0 0 1-4.273 1.246c-.395.036-.788.05-1.173.047-.007-.023-.015-.045-.022-.068zm11.654 22.383c-1 .526-2.102.896-3.275 1.1-.72.127-1.47.188-2.23.182-.743-.007-1.372-.545-1.497-1.28l-.672-3.977a.1.1 0 0 1 .025-.087c.02-.023.046-.034.076-.034.6.034 1.234.02 1.86-.036a13.19 13.19 0 0 0 5.572-1.81.1.1 0 0 1 .097-.005c.048.022.056.06.058.074l.78 4.24c.12.664-.198 1.32-.794 1.633zm0 0" id="B" fill="#ec4a81"/><path d="M107.484 82.278l-1.337-5.682c-.075-.32-.395-.517-.714-.442s-.517.395-.442.714l1.076 4.572a16.04 16.04 0 0 1-4.77-3.276c-1.96-1.977-2.592-3.752-2.73-5.037h5.545l.338 1.436c.064.273.3.458.578.458a.59.59 0 0 0 .137-.016c.32-.075.517-.395.442-.714l-.428-1.817v-4.34c0-.328-.266-.594-.594-.594H70.42c-.328 0-.594.266-.594.594v4.328l-2.3 9.817a.58.58 0 0 0-.013.188l1.652 18.78c.02.245.192.45.428.52a29.39 29.39 0 0 0 8.096 1.137 29.48 29.48 0 0 0 7.827-1.06l.27-.075c.226-.063.394-.253.428-.485l1.295-8.68 1.295 8.68c.034.232.202.422.428.485l.272.076a29.39 29.39 0 0 0 15.903-.072c.24-.06.425-.267.447-.524l1.65-18.78c.006-.063.001-.127-.013-.188zM89.56 71.94h-6.292v-3.212h8.243v3.212zm-15.35 0v-3.212h7.87v3.212zm-3.32 1.188h5.546c-.14 1.284-.77 3.06-2.73 5.037a16.07 16.07 0 0 1-4.77 3.277zm21.8-4.4h8.095v3.212H92.7zM104 71.94h-2.006v-3.212H104zm-32.974-3.212h2.006v3.212h-2.006zm18.9 31.997l-.263-1.762c2.513.422 5.007.57 7.252.57a54.24 54.24 0 0 0 7.953-.587l-.157 1.788a28.2 28.2 0 0 1-14.785-.007zm15.05-3.002c-1.787.283-8.705 1.22-15.497.003l-1.39-9.226c-.043-.3-.293-.506-.587-.506s-.544.215-.587.506l-1.378 9.235c-2.9.522-6.152.713-9.65.565a.59.59 0 0 0-.619.569c-.014.328.24.605.57.62.782.033 1.552.05 2.3.05 2.56 0 4.975-.2 7.206-.563l-.263 1.76a28.2 28.2 0 0 1-14.785.008l-.157-1.8a51.44 51.44 0 0 0 3.294.382c.017.001.034.002.05.002.305 0 .565-.234.6-.544.028-.327-.215-.614-.54-.642-1.634-.14-2.88-.318-3.502-.418l-1.312-14.908a17.28 17.28 0 0 0 5.823-3.814c2.255-2.273 2.946-4.367 3.082-5.873h11.335v7.124a1.57 1.57 0 0 1-1.567 1.567h-1.956c-.328 0-.594.266-.594.594s.266.594.594.594H87.4a2.76 2.76 0 0 0 2.755-2.755v-7.125h7.218c.135 1.507.826 3.6 3.082 5.873a17.19 17.19 0 0 0 5.822 3.813zM90.27 70.217a.6.6 0 0 0-.48-.468.6.6 0 0 0-.626.305.6.6 0 0 0 .762.824.6.6 0 0 0 .344-.66zm0 0" id="C" fill="#ec4a81"/><g id="D" fill="#ec4a81"><path d="M283.114 92.54l-.785-2.215a2.33 2.33 0 0 0 .018-1.328l-1.106-3.533c-.102-.296-.424-.453-.72-.35s-.453.424-.35.72l1.086 3.47a1.19 1.19 0 0 1-.58 1.375c-.584.32-1.273.578-2.106.793a1.19 1.19 0 0 1-1.385-.66l-5.453-11.936c-.4-2.565.4-4.52 2.446-6.102.83 1.392 3.16 5.498 5.23 10.947a.57.57 0 0 0 .62.358c.038-.006.075-.016.112-.03.292-.1.44-.44.328-.73-2.6-6.84-5.617-11.62-5.647-11.667a.56.56 0 0 0-.146-.155c-3.045-2.205-7.274-3.007-7.452-3.04l-.02-.003-.377-.055c-.634-.386-1.542-.372-1.928-.366-1.2.018-2.753.267-4.553.555l-.476.076c-1.8.288-3.353.536-4.5.893-.363.113-1.208.377-1.695.924a8.41 8.41 0 0 0-.387.208c-.216.12-3.94 2.2-6.127 5.2a.84.84 0 0 0-.1.193c-.022.086-2.175 8.698-1.74 18.828a2.33 2.33 0 0 0 .431 1.255l-.055 2.35a1.61 1.61 0 0 0 1.102 1.571c.64.215 1.662.426 2.93.223l.06-.01c.773-.13 1.34-.796 1.346-1.583l.018-2.084a2.32 2.32 0 0 0 .768-1.483l1.003-8.974.483 3.016c.05.3.34.52.65.47s.52-.34.47-.65l-1.142-7.137c-.474-2.964-2.058-4.914-4.83-5.94 1.008-1.205 2.258-2.233 3.288-2.977 1.835 2.25 8.132 6.483 9.566 7.433l3.318 20.737c-3.6.506-5.907.14-7.227-.27a1.94 1.94 0 0 1-1.325-1.539l-.604-3.774 3.468.65a1.88 1.88 0 0 0 .626.01c.368-.06.716-.23 1-.497a1.83 1.83 0 0 0 .53-1.603l-.1-.566c-.038-.236-.22-.423-.455-.467l-5.634-1.056-.122-.765c-.05-.3-.34-.52-.65-.47s-.52.34-.47.65l1.3 8.07a3.04 3.04 0 0 0 2.107 2.442c1.503.468 4.163.887 8.303.224s6.538-1.9 7.82-2.804a3.04 3.04 0 0 0 1.24-2.978L272.4 83.07l3.753 8.213a2.32 2.32 0 0 0 1.193 1.169l.667 1.975c.252.745.997 1.2 1.773 1.083h.06c1.267-.203 2.173-.723 2.713-1.126a1.61 1.61 0 0 0 .557-1.836zm-23.07 1.58l.028.172a.69.69 0 0 1-.819.798l-3.867-.725-.184-1.153zm12.573-2.512l-3.448 1.895a.69.69 0 0 1-1.027-.502l-.028-.172 4.318-2.374zm-10.45-13.662c.402-.512 1.524-1.956 2.617-3.492 2.1-2.964 2.632-4.16 2.696-4.782a22.14 22.14 0 0 1 .733.183c-.3.776-1.162 2.338-3.403 5.455a129.88 129.88 0 0 1-2.524 3.38zm-6.464-7.307c1.068-.333 2.658-.587 4.34-.856l.476-.076c1.683-.27 3.273-.524 4.4-.54.414-.006 1.38.018 1.445.373.018.592-1.84 3.592-4.908 7.492-4.13-2.75-6.833-5.018-7-5.587-.047-.358.862-.682 1.257-.805zm-5.698 28.078c-.002.236-.17.436-.402.475-1.063.18-1.912.007-2.437-.17a.48.48 0 0 1-.33-.47l.035-1.537a2.6 2.6 0 0 0 .364.098c.748.137 1.574.174 2.526.113a2.38 2.38 0 0 0 .22-.025c.013-.002.024-.005.037-.007zm2.25-16.725l-1.457 13.04c-.064.576-.532 1.02-1.1 1.06-.858.055-1.593.024-2.248-.096-.554-.102-.957-.565-.982-1.125-.363-8.454 1.105-15.828 1.57-17.912 2.448.862 3.798 2.476 4.227 5.034zm5.46-5.546c-3.1-2.26-4.397-3.48-4.935-4.12a22.29 22.29 0 0 1 .639-.403c.256.57 1.125 1.544 4.054 3.7a97.73 97.73 0 0 0 3.576 2.5l.12.745a128.59 128.59 0 0 1-3.453-2.424zm14.917 22c-1.125.802-3.203 1.87-6.782 2.512l-3.318-20.737c1.066-1.35 5.73-7.337 6.77-10.048 1.2.386 2.718.972 4.053 1.804-2.313 1.84-3.2 4.186-2.735 7.15l1.622 10.138-5.023 2.76a.58.58 0 0 0-.286.586l.1.566c.094.588.47 1.095 1.004 1.357.343.168.727.222 1.095.163a1.81 1.81 0 0 0 .593-.204l3.092-1.7.604 3.774a1.94 1.94 0 0 1-.779 1.876zm9.245-4.98c-.444.332-1.195.762-2.262.922-.232.035-.454-.102-.53-.326l-.488-1.445a2.36 2.36 0 0 0 .254-.05c.924-.24 1.697-.532 2.365-.895.112-.06.217-.13.315-.206l.513 1.45c.07.202.004.423-.167.55zM263.822 80.33c-.3.05-.52.34-.47.65l.245 1.53c.05.3.34.52.65.47s.52-.34.47-.65l-.245-1.53c-.05-.3-.34-.52-.65-.47zm.828 5.184c-.3.05-.52.34-.47.65l.245 1.53c.05.3.34.52.65.47s.52-.34.47-.65l-.245-1.53c-.05-.3-.34-.52-.65-.47zm.83 5.182c-.3.05-.52.34-.47.65l.245 1.53c.05.3.34.52.65.47s.52-.34.47-.65l-.245-1.53c-.05-.3-.34-.52-.65-.47zm0 0"/><path d="M266.3 95.88c-.3.05-.52.34-.47.65l.245 1.53c.05.3.34.52.65.47s.52-.34.47-.65l-.245-1.53c-.05-.3-.34-.52-.65-.47zm-6.507-23.985l1.625-.26c.3-.05.52-.34.47-.65s-.34-.52-.65-.47l-1.625.26c-.3.05-.52.34-.47.65s.34.52.65.47zm0 0"/></g><path d="M281.726 238.742c-.31-6.96-1.423-10.992-3.48-12.56l-1.11-5.354a4.19 4.19 0 0 0-4.833-3.259 121.29 121.29 0 0 1-4.929.806c-.735.106-1.245.786-1.14 1.52s.786 1.246 1.52 1.14a125.65 125.65 0 0 0 5.037-.824c.782-.146 1.55.375 1.71 1.16l.95 4.584a133.8 133.8 0 0 1-20.819 2.433v-2.78c0-.742-.6-1.344-1.344-1.344s-1.344.602-1.344 1.344v2.853a130.91 130.91 0 0 1-4.586 0V225.6c0-.742-.6-1.344-1.344-1.344s-1.344.602-1.344 1.344v2.78a133.9 133.9 0 0 1-20.82-2.433l.95-4.585a1.49 1.49 0 0 1 1.714-1.161c11.82 2.18 23.88 2.677 35.847 1.48.738-.074 1.277-.733 1.204-1.47s-.734-1.278-1.47-1.204c-11.714 1.173-23.52.685-35.09-1.448-2.208-.41-4.377 1.053-4.834 3.257l-1.1 5.355c-2.056 1.568-3.168 5.6-3.48 12.56-.316 7.067.32 15.366.73 19.684.994 10.538 7.512 32.96 9.486 39.582a5.32 5.32 0 0 0 2.002 2.798l1.24 3.795a4.19 4.19 0 0 0 3.995 2.898h4.732c2.28 0 4.126-1.786 4.2-4.066l.202-6.22c.023-.246.03-.496.02-.75l-.293-10.052c-.01-.742-.626-1.335-1.364-1.324s-1.335.62-1.324 1.363l.295 10.13c.058 1.305-.853 2.46-2.12 2.686-2.9.518-5.47.16-7.114-.235-.903-.216-1.63-.904-1.896-1.796-1.956-6.562-8.415-28.772-9.386-39.066-.38-4.037-.63-7.928-.738-11.465 3.65-1.114 6.673-3.59 8.784-7.228 1.61-2.774 2.625-6.157 2.868-9.48l2.344.3c-.934 2.86-1.82 6.94-2.45 11.358-.847 5.94-1.166 11.88-.897 16.726.58 10.472 4.403 32.867 5.56 39.48.115.653.682 1.112 1.322 1.112.077 0 .154-.006.233-.02.73-.128 1.22-.825 1.092-1.556-1.15-6.577-4.95-28.84-5.524-39.166-.514-9.297 1.32-21.77 3.402-27.65 2.56.24 5.124.41 7.69.505v9.59c0 .742.6 1.344 1.344 1.344s1.344-.6 1.344-1.344v-9.52l2.293.022 2.293-.022v9.52c0 .742.6 1.344 1.344 1.344s1.344-.6 1.344-1.344v-9.59c2.565-.095 5.13-.264 7.7-.505 2.08 5.88 3.915 18.355 3.4 27.65-.572 10.32-4.373 32.587-5.524 39.166-.128.73.36 1.428 1.092 1.556.078.014.156.02.233.02.64 0 1.208-.46 1.322-1.112 1.158-6.615 4.98-29.014 5.56-39.48.268-4.846-.05-10.786-.897-16.725-.63-4.42-1.515-8.498-2.45-11.358l2.342-.3c.244 3.323 1.258 6.706 2.868 9.48 2.11 3.636 5.133 6.114 8.784 7.228-.108 3.537-.357 7.43-.738 11.466-.97 10.293-7.43 32.504-9.385 39.064-.267.894-.994 1.583-1.897 1.798-1.644.393-4.212.753-7.112.235-1.265-.227-2.177-1.382-2.12-2.687.234-5.335.558-15.78.096-25.794-.595-12.923-2.253-20.634-5.07-23.577-.93-.972-2-1.465-3.178-1.465-4.584 0-6.24 7.105-7.085 12.45-.903 5.703-1.373 13.395-1.396 22.862-.002.742.598 1.346 1.34 1.347h.003c.74 0 1.342-.6 1.344-1.34.023-9.33.482-16.882 1.363-22.45.378-2.39 1.815-10.184 4.43-10.184.27 0 .69.066 1.237.637 3.036 3.17 4.013 15.046 4.327 21.84.457 9.908.135 20.262-.097 25.552a5.39 5.39 0 0 0 .02.746l.202 6.222c.074 2.28 1.92 4.066 4.2 4.066h4.733a4.19 4.19 0 0 0 3.995-2.898l1.24-3.796c.943-.676 1.66-1.653 2.002-2.8 1.974-6.62 8.492-29.044 9.485-39.58.407-4.318 1.044-12.618.73-19.685zm-45.284 63.474c1.068 0 2.216-.084 3.416-.3.54-.097 1.05-.277 1.514-.523l-.09 1.953c-.026.822-.69 1.465-1.513 1.465h-4.732a1.51 1.51 0 0 1-1.44-1.044l-.6-1.844a20.68 20.68 0 0 0 3.448.292zm-9.73-64.084c-1.167 2-3.206 4.507-6.518 5.762a94.31 94.31 0 0 1 .076-5.031c.336-7.533 1.6-9.767 2.287-10.427 2.223.45 4.45.847 6.68 1.186-.187 2.98-1.083 6.027-2.525 8.5zm37.565 66.68h-4.732c-.823 0-1.487-.643-1.513-1.465l-.1-1.957c.468.25.98.43 1.522.527 1.2.214 2.348.3 3.415.3 1.286 0 2.453-.124 3.45-.292l-.6 1.844a1.51 1.51 0 0 1-1.44 1.044zm8.323-66.68c-1.442-2.484-2.338-5.53-2.525-8.5 2.23-.34 4.456-.735 6.68-1.186.687.66 1.95 2.894 2.287 10.427a93.63 93.63 0 0 1 .076 5.031c-3.31-1.254-5.35-3.75-6.516-5.762zm0 0" id="E" fill="#ec4a81"/><g id="F" fill="#ec4a81"><path d="M359.987 203.064c.104-1.027-1.15-1.673-1.937-1.014-.407.342-.538.933-.3 1.413a1.19 1.19 0 0 0 1.22.668 1.19 1.19 0 0 0 1.027-1.067zm-69.424-21.388a1.2 1.2 0 0 0-1.202.735c-.2.488-.038 1.062.377 1.382.835.645 2.062-.102 1.886-1.137-.088-.52-.533-.934-1.06-.98zm0 0"/><path d="M366.088 173.073c.034-8.8-.654-14.54-.683-14.78-.018-.148-.064-.292-.136-.423-3.75-6.875-10.977-12.18-11.316-12.425l-.97-4.595c-.077-.364-.32-.67-.656-.828a1.13 1.13 0 0 0-.168-.062v-.002l-22.005-6.47a1.19 1.19 0 0 0-.175-.04c-.368-.05-.74.077-1 .34l-3.3 3.34c-.163.01-3.445.204-7.565 1.166-.637.15-1.032.785-.883 1.422a1.18 1.18 0 0 0 1.422.883 49.4 49.4 0 0 1 4.397-.812l-3.68 3.72a1.18 1.18 0 0 0-.339.916c.024.34.193.653.464.86l4.063 3.1-5.863 3.198c-.53.3-.758.933-.526 1.492l6.9 16.638-11.385 38.7c-6.335-2.844-8.86-5.845-9.577-6.86l3.832-13.03 6.007 5.933a1.18 1.18 0 0 0 .497.293 1.17 1.17 0 0 0 .63.01c.403-.104.722-.412.84-.812l1.434-4.877c.123-.418.006-.87-.304-1.176l-6.9-6.828 6.686-22.73a1.18 1.18 0 0 0-.652-1.414c-.542-.242-1.176-.047-1.5.455l-15.197 24.458c-2.413-.73-6.016-2-7.718-4.464 6.88-16.463 16.365-29.27 19.278-33.012 2.188 3.036 2.96 7.562 2.968 7.612.076.463.412.82.834.944a1.16 1.16 0 0 0 .526.032c.645-.106 1.082-.714.976-1.36-.04-.234-.88-5.203-3.46-8.715a28.87 28.87 0 0 1 2.378-.98 1.17 1.17 0 0 0 .7-1.516c-.232-.616-.9-.932-1.516-.7a29.05 29.05 0 0 0-4.007 1.783c-.13.072-.248.167-.344.282-.154.186-3.84 4.64-8.577 12.058-4.37 6.842-10.465 17.575-14.688 29.845-.096.28-.084.584.033.855.082.2 1.76 3.94 6.38 5.3.908.267 1.93.442 3.075.48.423.014.82-.2 1.044-.558l14.714-23.68-10.402 35.37a1.19 1.19 0 0 0 .08.872c.1.197 2.567 4.856 12.224 8.85a1.69 1.69 0 0 0 .118.042c.28.082.58.06.845-.068.303-.145.53-.412.625-.734l3.052-10.376c1.578.03 3.3.307 5.005.808 1.482.436 2.887 1.026 4.118 1.72l-3.094 10.52c-.095.322-.048.67.128.955a1.18 1.18 0 0 0 .673.514c.04.012.08.02.122.03 10.283 1.87 14.88-.7 15.07-.82.262-.152.455-.4.54-.7l7.1-24.17c.184-.627-.174-1.284-.8-1.47s-1.285.174-1.47.8l-.933 3.17-9.508 1.998a1.2 1.2 0 0 0-.892.824l-1.434 4.876c-.118.4-.016.832.266 1.137a1.18 1.18 0 0 0 1.112.355l8.263-1.737-3.833 13.03c-.456.185-1.318.48-2.607.7-1.84.315-4.87.527-9.16-.12l11.385-38.7 14.8-10.26c.497-.345.655-1.008.365-1.54l-3.2-5.864 5.1-.397c.34-.027.65-.198.855-.47a1.18 1.18 0 0 0 .21-.953l-1.08-5.117c2.143 1.842 5.424 4.98 7.728 8.64-4.07 1.557-7.47 5.278-7.63 5.454a1.18 1.18 0 0 0 .085 1.67 1.17 1.17 0 0 0 .458.258c.422.124.898.006 1.213-.342.035-.038 3.126-3.424 6.618-4.794.425 4.72 1.468 20.617-1.666 38.193-2.77 1.158-6.48.268-8.905-.425l.465-28.8c.01-.592-.42-1.1-1.005-1.2s-1.147.268-1.314.836l-4.42 15.028c-.184.627.175 1.285.802 1.47s1.285-.175 1.47-.802l1.96-6.667-.45 27.876c-.006.423.213.817.575 1.034.983.6 1.936.995 2.844 1.262 4.62 1.36 8.062-.885 8.234-1a1.18 1.18 0 0 0 .49-.7c3.093-12.603 3.78-24.926 3.8-33.044zm-77.854 10.85a116.24 116.24 0 0 1 1.509-4.067c2.08 2.152 5.125 3.326 7.435 4.055l-2.452 3.946c-4.048-.384-5.918-2.95-6.492-3.933zm25.632 5.156l-.676 2.298-5.503-5.436.676-2.3zm21.217 8.738l.676-2.3 7.57-1.6-.676 2.298zm-8.786-48.245a1.18 1.18 0 0 0 .149-1.98l-4.445-3.38 7.406-7.5c1.924 6.683-1.73 21.365-4.232 29.485l-5.413-13.07zm-3.005 48.945c-1.677-.493-3.38-.8-4.984-.88l8.13-27.638a153.45 153.45 0 0 0 4.025-14.517c1.903-8.605 2.34-14.992 1.308-19.057l17.44 5.13c-3.067 2.86-6.16 8.466-9.217 16.73a153.42 153.42 0 0 0-4.472 14.37l-8.096 27.528c-1.267-.668-2.67-1.236-4.134-1.666zm24.35-44.692a1.18 1.18 0 0 0-.948.616 1.19 1.19 0 0 0 .001 1.13l3.564 6.534-11.628 8.06c2.293-8.18 7.167-22.504 12.405-27.08l2.172 10.306zm4.87 51.028l.075-4.645c2.336.638 5.532 1.3 8.444.616a115 115 0 0 1-.933 4.234c-1.012.5-3.987 1.655-7.587-.205zm-10.547-63.733l-3.298-.97c-.628-.185-1.285.174-1.47.8s.174 1.285.802 1.47l3.298.97c.627.184 1.285-.174 1.47-.802s-.175-1.285-.802-1.47zm0 0"/></g><path d="M205.022 158.42c-5.028-8.607-9.32-14.06-9.363-14.113a.9.9 0 0 0-.296-.255c-6.656-3.843-15.426-4.584-15.796-4.613-.016-.001-.018-.001-.02-.002-.278-.017-6.9-.388-14.478 1.646s-13.13 5.66-13.362 5.814c-.01.007-.013.01-.017.012-.306.2-7.53 5.237-11.373 11.893a1.02 1.02 0 0 0-.128.37c-.01.068-1 6.936-1.053 16.904a1.05 1.05 0 0 0 .036.276 1.04 1.04 0 0 0 .19.378c3.16 3.98 9.646 6.472 13.882 5.337a1.04 1.04 0 0 0 .771-.995l.028-3.468 8.193 30.576a1.04 1.04 0 0 0 .46.617c.25.153 6.278 3.7 20.5-.097s17.654-9.903 17.793-10.16a1.03 1.03 0 0 0 .09-.764l-2.44-9.1a1.04 1.04 0 0 0-1.273-.735 1.04 1.04 0 0 0-.735 1.273l1.116 4.166c-.373.514-1.273 1.597-3.003 2.896-4.06 3.05-9.468 4.9-13.3 5.934s-9.435 2.116-14.476 1.505c-2.15-.26-3.472-.75-4.048-1.006l-8.85-33.034a1.04 1.04 0 0 0-2.044.261l-.04 4.93c-.752-.06-1.883-.224-3.18-.666-3-1.022-5.472-3-7.356-5.844.214-3.853.52-6.674.684-8.012 4.486.168 8.147 4.5 8.185 4.555a1.04 1.04 0 0 0 1.071.342 1.03 1.03 0 0 0 .392-.203 1.04 1.04 0 0 0 .139-1.464c-.173-.2-3.86-4.6-8.85-5.24 2.835-4.147 6.915-7.527 8.8-8.965.988 1.638 2.93 3.217 5.4 4.324a1.04 1.04 0 0 0 1.375-.521 1.04 1.04 0 0 0-.521-1.375c-2.107-.948-3.815-2.328-4.53-3.608 1.713-1.02 6.314-3.563 12.033-5.096s10.974-1.632 12.968-1.603c.043 3.207-3.798 9.45-10.392 11.218-2.033.545-4.17.624-6.354.236a1.04 1.04 0 0 0-1.205.842 1.04 1.04 0 0 0 .842 1.205c2.485.442 4.927.35 7.256-.274 7.212-1.932 11.833-8.668 11.926-13.062 2.34.307 7.562 1.192 12.097 3.37-4.003 3.047-5 8.694-5.045 8.962a1.04 1.04 0 0 0 1.293 1.177 1.04 1.04 0 0 0 .757-.83c.01-.06 1-5.65 4.8-8.04a124.72 124.72 0 0 1 4.598 6.596c-.204 3.414-1.362 6.353-3.448 8.74-.903 1.032-1.8 1.74-2.422 2.168l-2.5-4.25a1.04 1.04 0 0 0-1.9.796l6.66 24.853a1.04 1.04 0 0 0 1.273.735 1.04 1.04 0 0 0 .735-1.273l-4.678-17.46 1.758 2.988a1.04 1.04 0 0 0 1.165.477c4.236-1.135 8.607-6.54 9.353-11.564.02-.14.012-.286-.024-.423-.024-.1-.06-.175-.107-.255zm-23.038 45.794c9.68-2.594 14.362-6.248 16.4-8.397l.547 2.04c-.374.514-1.273 1.597-3.003 2.896-4.06 3.05-9.468 4.9-13.3 5.935s-9.435 2.116-14.477 1.505c-2.15-.26-3.47-.75-4.047-1.005l-.547-2.042c2.847.838 8.73 1.66 18.408-.932zM151.97 176.95l-.027 3.258c-3.377.45-8.183-1.536-10.725-4.498l.087-4.125c3.897 4.4 8.56 5.23 10.665 5.365zm44.03-8.547l-1.652-2.808c1.756-1.17 5.383-4.212 6.553-9.978l2.138 3.53c-.72 3.835-3.9 7.958-7.04 9.257zm-27.83-21.995a1.04 1.04 0 0 0 .735-1.273 1.04 1.04 0 0 0-1.273-.735l-3.126.838a1.04 1.04 0 0 0-.735 1.273 1.04 1.04 0 0 0 1.273.735zm0 0" id="G" fill="#ec4a81"/><path d="M87 235.798h2.588a.892.892 0 1 0 0-1.783H87a.892.892 0 1 0 0 1.783zm21.16 26.117l-.752-5.045c0-2.86.924-6.063 1.7-8.245a4.85 4.85 0 0 0-1.907-5.71l-.737-.46a.891.891 0 0 0-.919 1.527l.683.428c1.065.694 1.57 1.962 1.318 3.193-6.56 1.82-12.437 2.714-18.37 2.795v-2.15c1.146-.376 1.976-1.455 1.976-2.725a3.76 3.76 0 0 0-.028-.414c2.165-.23 4.135-.722 5.626-1.415 1.067-.496 2.3-1.28 2.804-2.407.693.23 1.738.606 2.917 1.125a.89.89 0 1 0 .718-1.632 35.35 35.35 0 0 0-3.385-1.287v-4.4c0-3.315-5.935-5.103-11.52-5.103s-11.52 1.788-11.52 5.103v4.4c-1.348.43-4.536 1.56-7.396 3.423a4.84 4.84 0 0 0-1.908 5.7c.776 2.18 1.7 5.38 1.7 8.245 0 1.28-.348 3.025-.752 5.044-1.134 5.676-2.85 14.255.804 24.517a.89.89 0 0 0 .341.44c.067.045 1.694 1.12 5.8 2a.91.91 0 0 0 .185.019.89.89 0 0 0 .871-.707.89.89 0 0 0-.688-1.056c-2.884-.6-4.408-1.307-4.95-1.592-1.372-3.96-1.917-7.618-2.003-10.95 6.627 1.82 12.587 2.716 18.614 2.796v10.843c-3.002-.03-5.77-.204-8.24-.522a.891.891 0 1 0-.228 1.767c2.788.36 5.937.542 9.36.542 13.927 0 18.54-3 18.73-3.128a.89.89 0 0 0 .341-.44c3.653-10.262 1.94-18.84.804-24.517zm-.368 10.8c-6.66 1.865-12.6 2.78-18.617 2.864v-10.814c5.63-.074 11.16-.854 17.253-2.432.586 2.932 1.274 6.405 1.365 10.382zm-38.124-23.1c6.273 1.66 11.968 2.48 17.725 2.555v10.814c-5.507-.075-10.926-.845-16.9-2.402.266-1.412.458-2.663.458-3.72 0-2.462-.612-5.105-1.274-7.247zm35.958 7.247c0 1.057.192 2.308.458 3.72-5.982 1.557-11.402 2.328-16.9 2.402V252.18c5.757-.076 11.45-.896 17.724-2.555-.662 2.144-1.273 4.787-1.273 7.247zM88.284 246.6c-.598 0-1.085-.487-1.085-1.085 0-.88.645-2.636 1.085-3.02.44.385 1.085 2.14 1.085 3.02 0 .598-.487 1.085-1.085 1.085zm0-5.93c-.598 0-1.085-.487-1.085-1.085s.487-1.085 1.085-1.085 1.085.487 1.085 1.085-.487 1.085-1.085 1.085zm-9.74-5.575c0-1.387 3.705-3.32 9.74-3.32s9.738 1.934 9.738 3.32v5.05c0 .616-.756 1.335-2.023 1.924-1.367.635-3.222 1.083-5.28 1.28a6.78 6.78 0 0 0-.692-1.49c.683-.525 1.124-1.35 1.124-2.274a2.86 2.86 0 0 0-.33-1.335c1.72-.35 3.208-1.053 4.204-2.024a.891.891 0 1 0-1.244-1.276c-1.12 1.1-3.225 1.77-5.496 1.77s-4.377-.678-5.498-1.77a.891.891 0 1 0-1.243 1.277c.997.97 2.485 1.674 4.205 2.024a2.85 2.85 0 0 0-.331 1.336 2.86 2.86 0 0 0 1.124 2.274c-.287.446-.517.97-.692 1.5-2.058-.198-3.913-.646-5.28-1.28-1.267-.6-2.023-1.308-2.023-1.924v-5.05zM70.34 244.4c2.47-1.6 5.28-2.657 6.673-3.12.515 1.127 1.738 1.9 2.804 2.406 1.5.692 3.462 1.185 5.627 1.415a3.81 3.81 0 0 0-.027.414 2.87 2.87 0 0 0 1.976 2.725v2.15c-5.934-.08-11.8-.977-18.37-2.796a3.06 3.06 0 0 1 1.32-3.192zm-1.565 28.316c.1-3.977.778-7.45 1.364-10.382 6.092 1.578 11.623 2.358 17.253 2.432v10.814c-6.008-.082-11.957-.998-18.617-2.864zm37 12.8c-.454.24-1.582.76-3.6 1.278-2.408.618-6.6 1.348-13.012 1.4V277.37c6.027-.08 11.987-.976 18.614-2.796a35.99 35.99 0 0 1-2.004 10.951zm0 0" id="H" fill="#ec4a81"/><path id="I" d="M0 0h350v350H0z"/></defs><pattern id="J" width="350" height="350" patternUnits="userSpaceOnUse"><use xlink:href="#A" x="-350" y="-350"/><use xlink:href="#A" y="-350"/><use xlink:href="#A" x="350" y="-350"/><use xlink:href="#A" x="-350"/><use xlink:href="#A"/><use xlink:href="#A" x="350"/><use xlink:href="#A" x="-350" y="350"/><use xlink:href="#A" y="350"/><use xlink:href="#A" x="350" y="350"/></pattern><use xlink:href="#I" fill="url(#J)"/><pattern id="K" width="350" height="350" patternUnits="userSpaceOnUse"><use xlink:href="#B" x="-350" y="-350"/><use xlink:href="#B" y="-350"/><use xlink:href="#B" x="350" y="-350"/><use xlink:href="#B" x="-350"/><use xlink:href="#B"/><use xlink:href="#B" x="350"/><use xlink:href="#B" x="-350" y="350"/><use xlink:href="#B" y="350"/><use xlink:href="#B" x="350" y="350"/></pattern><use xlink:href="#I" fill="url(#K)"/><pattern id="L" width="350" height="350" patternUnits="userSpaceOnUse"><use xlink:href="#C" x="-350" y="-350"/><use xlink:href="#C" y="-350"/><use xlink:href="#C" x="350" y="-350"/><use xlink:href="#C" x="-350"/><use xlink:href="#C"/><use xlink:href="#C" x="350"/><use xlink:href="#C" x="-350" y="350"/><use xlink:href="#C" y="350"/><use xlink:href="#C" x="350" y="350"/></pattern><use xlink:href="#I" fill="url(#L)"/><pattern id="M" width="350" height="350" patternUnits="userSpaceOnUse"><use xlink:href="#D" x="-350" y="-350"/><use xlink:href="#D" y="-350"/><use xlink:href="#D" x="350" y="-350"/><use xlink:href="#D" x="-350"/><use xlink:href="#D"/><use xlink:href="#D" x="350"/><use xlink:href="#D" x="-350" y="350"/><use xlink:href="#D" y="350"/><use xlink:href="#D" x="350" y="350"/></pattern><use xlink:href="#I" fill="url(#M)"/><pattern id="N" width="350" height="350" patternUnits="userSpaceOnUse"><use xlink:href="#E" x="-350" y="-350"/><use xlink:href="#E" y="-350"/><use xlink:href="#E" x="350" y="-350"/><use xlink:href="#E" x="-350"/><use xlink:href="#E"/><use xlink:href="#E" x="350"/><use xlink:href="#E" x="-350" y="350"/><use xlink:href="#E" y="350"/><use xlink:href="#E" x="350" y="350"/></pattern><use xlink:href="#I" fill="url(#N)"/><pattern id="O" width="350" height="350" patternUnits="userSpaceOnUse"><use xlink:href="#F" x="-350" y="-350"/><use xlink:href="#F" y="-350"/><use xlink:href="#F" x="350" y="-350"/><use xlink:href="#F" x="-350"/><use xlink:href="#F"/><use xlink:href="#F" x="350"/><use xlink:href="#F" x="-350" y="350"/><use xlink:href="#F" y="350"/><use xlink:href="#F" x="350" y="350"/></pattern><use xlink:href="#I" fill="url(#O)"/><pattern id="P" width="350" height="350" patternUnits="userSpaceOnUse"><use xlink:href="#G" x="-350" y="-350"/><use xlink:href="#G" y="-350"/><use xlink:href="#G" x="350" y="-350"/><use xlink:href="#G" x="-350"/><use xlink:href="#G"/><use xlink:href="#G" x="350"/><use xlink:href="#G" x="-350" y="350"/><use xlink:href="#G" y="350"/><use xlink:href="#G" x="350" y="350"/></pattern><use xlink:href="#I" fill="url(#P)"/><pattern id="Q" width="350" height="350" patternUnits="userSpaceOnUse"><use xlink:href="#H" x="-350" y="-350"/><use xlink:href="#H" y="-350"/><use xlink:href="#H" x="350" y="-350"/><use xlink:href="#H" x="-350"/><use xlink:href="#H"/><use xlink:href="#H" x="350"/><use xlink:href="#H" x="-350" y="350"/><use xlink:href="#H" y="350"/><use xlink:href="#H" x="350" y="350"/></pattern><use xlink:href="#I" fill="url(#Q)"/></svg>