<svg xmlns="http://www.w3.org/2000/svg" xmlns:xlink="http://www.w3.org/1999/xlink" width="400" height="400" viewBox="0 0 350 350"><path opacity="0" fill="#fff" d="M0 0h350v350H0z"/><defs><g id="A" fill="#ec4a81"><path d="M355.82 345.518c-.35 0-.7-.134-.967-.4a1.37 1.37 0 0 1 0-1.934l8.294-8.294c.534-.534 1.4-.534 1.933 0a1.37 1.37 0 0 1 0 1.933l-8.294 8.294c-.267.266-.617.4-.967.4zm-20.376 20.376c-.35 0-.7-.134-.967-.4-.534-.534-.534-1.4 0-1.933l6.858-6.86a1.37 1.37 0 0 1 1.933 0 1.37 1.37 0 0 1 0 1.934l-6.858 6.858c-.267.267-.617.4-.967.4zm0 0"/><path d="M344.414 345.754c-.35 0-.7-.134-.967-.4l-8.133-8.133a1.37 1.37 0 0 1 0-1.934 1.37 1.37 0 0 1 1.933 0l8.133 8.133a1.37 1.37 0 0 1 0 1.934 1.36 1.36 0 0 1-.967.4zm19.7 19.702c-.35 0-.7-.134-.967-.4l-8.294-8.294a1.37 1.37 0 0 1 0-1.933 1.37 1.37 0 0 1 1.934 0l8.294 8.294a1.37 1.37 0 0 1 0 1.934c-.267.267-.617.4-.967.4zM350 341.852a1.37 1.37 0 0 1-1.367-1.367v-6.245c0-.755.612-1.367 1.367-1.367s1.367.612 1.367 1.367v6.245c0 .755-.612 1.367-1.367 1.367zm-.002-12.038c-.36 0-.712-.146-.966-.4a1.38 1.38 0 0 1-.4-.967c0-.36.146-.712.4-.966s.607-.4.966-.4a1.38 1.38 0 0 1 .967.4 1.37 1.37 0 0 1 0 1.933 1.38 1.38 0 0 1-.967.4zm0 0"/><path d="M370.083 351.34h-10.597a1.37 1.37 0 0 1-1.367-1.367c0-.755.612-1.367 1.367-1.367h10.597c.755 0 1.367.612 1.367 1.367a1.37 1.37 0 0 1-1.367 1.367zM350 370.83c-.755 0-1.367-.612-1.367-1.367V357.67c0-.755.612-1.367 1.367-1.367s1.367.612 1.367 1.367v11.793c0 .755-.612 1.367-1.367 1.367zm-9.488-19.5h-10.7a1.37 1.37 0 0 1-1.367-1.367c0-.755.612-1.367 1.367-1.367h10.7c.755 0 1.367.612 1.367 1.367a1.37 1.37 0 0 1-1.367 1.367zm9.486 0a1.37 1.37 0 0 1-.966-.401c-.255-.255-.4-.606-.4-.967a1.38 1.38 0 0 1 .4-.967c.254-.255.607-.4.966-.4a1.38 1.38 0 0 1 .967.4 1.37 1.37 0 0 1-.967 2.334zm0 0"/><path d="M372.033 384.994a1.36 1.36 0 0 1-.621-.15c-.464-.236-.753-.715-.746-1.235l.064-5.008-4.1-2.9a1.37 1.37 0 0 1 .384-2.422l4.782-1.487 1.487-4.782a1.37 1.37 0 0 1 2.422-.385l2.892 4.1 5.025-.064c.514 0 .985.288 1.218.746.237.464.2 1.02-.122 1.44l-2.996 4.014 1.6 4.743a1.37 1.37 0 0 1-1.734 1.734l-4.743-1.6-4.015 2.996c-.24.18-.528.272-.818.272zm-1.55-9.918l2.414 1.707a1.37 1.37 0 0 1 .577 1.134l-.037 2.957 2.37-1.77a1.37 1.37 0 0 1 1.257-.199l2.8.95-.95-2.8c-.145-.426-.07-.896.2-1.257l1.768-2.37-2.957.038c-.46 0-.877-.215-1.134-.578l-1.707-2.414-.877 2.824a1.37 1.37 0 0 1-.9.899zm-44.73-43.408a1.37 1.37 0 0 1-.818-.271l-3.138-2.342-3.708 1.257a1.37 1.37 0 0 1-1.734-1.734l1.257-3.708-2.342-3.138a1.37 1.37 0 0 1-.122-1.438c.233-.46.704-.747 1.218-.747l3.932.05 2.26-3.196c.3-.425.816-.643 1.33-.56a1.37 1.37 0 0 1 1.092.945l1.162 3.74 3.74 1.162c.497.154.863.578.944 1.092a1.37 1.37 0 0 1-.56 1.33l-3.197 2.26.05 3.915a1.37 1.37 0 0 1-1.366 1.386zm-3.714-5.506a1.37 1.37 0 0 1 .818.272l1.494 1.115-.024-1.864a1.37 1.37 0 0 1 .578-1.134l1.522-1.076-1.78-.553a1.37 1.37 0 0 1-.9-.9l-.553-1.78-1.077 1.522a1.37 1.37 0 0 1-1.133.578l-1.864-.024 1.115 1.494c.27.36.344.83.2 1.257l-.6 1.765 1.765-.6a1.37 1.37 0 0 1 .439-.073zm0 0"/><path d="M375.673 332.793a31.75 31.75 0 0 1-1.233-.025c-2.9-.113-5.416-.586-5.522-.606a1.37 1.37 0 0 1-1.087-1.087 41.34 41.34 0 0 1-.606-5.522c-.164-4.224.485-7.007 1.987-8.5 2.596-2.596 6.674-2.74 9.092-.322.9.9 1.464 2.052 1.656 3.3 1.26.192 2.42.765 3.3 1.656 2.418 2.418 2.273 6.496-.322 9.092-1.35 1.35-3.737 2.012-7.276 2.012zm-5.316-3.157c3.82.6 9.147.724 10.66-.788 1.53-1.53 1.674-3.873.322-5.225-.664-.663-1.583-1-2.588-.916a1.36 1.36 0 0 1-1.065-.397 1.37 1.37 0 0 1-.397-1.066c.073-1.005-.253-1.924-.916-2.588-1.352-1.352-3.696-1.208-5.225.322-1.516 1.516-1.4 6.84-.8 10.658zm-44.42 55.358c-1.626 0-3.124-.607-4.244-1.728-.9-.9-1.464-2.052-1.656-3.3a5.93 5.93 0 0 1-3.311-1.655c-1.188-1.188-1.8-2.8-1.72-4.54.076-1.694.802-3.3 2.043-4.55 1.5-1.5 4.284-2.15 8.5-1.987a41.39 41.39 0 0 1 5.522.606 1.37 1.37 0 0 1 1.087 1.087c.02.105.492 2.613.606 5.522.164 4.224-.485 7.007-1.987 8.5-1.24 1.24-2.857 1.966-4.55 2.042l-.296.007zm-4.6-7.714a1.37 1.37 0 0 1 1.364 1.466c-.073 1.005.253 1.924.916 2.588.64.638 1.52.966 2.484.922 1-.045 1.983-.487 2.74-1.244 1.512-1.512 1.387-6.84.8-10.658-3.82-.6-9.146-.724-10.658.788-.757.757-1.2 1.73-1.244 2.74-.043.964.284 1.846.923 2.484.663.664 1.583 1 2.588.917a1.23 1.23 0 0 1 .099-.004zm0 0"/><path d="M323.75 345.518a4.11 4.11 0 0 1-4.102-4.102 4.11 4.11 0 0 1 4.102-4.102c2.262 0 4.1 1.84 4.1 4.102a4.11 4.11 0 0 1-4.101 4.102zm0-5.47a1.37 1.37 0 0 0-1.367 1.367 1.37 1.37 0 0 0 1.367 1.367 1.37 1.37 0 0 0 1.367-1.367 1.37 1.37 0 0 0-1.367-1.367zM350 384.985a4.11 4.11 0 0 1-4.102-4.101 4.11 4.11 0 0 1 4.102-4.102 4.11 4.11 0 0 1 4.102 4.102c0 2.262-1.84 4.1-4.102 4.1zm0-5.468a1.37 1.37 0 0 0-1.367 1.367 1.37 1.37 0 0 0 1.367 1.367 1.37 1.37 0 0 0 1.367-1.367 1.37 1.37 0 0 0-1.367-1.367zm0 0"/></g><g id="B" fill="#ec4a81"><path d="M87.5 185.18c-8.508 0-15.43-6.922-15.43-15.43s6.922-15.43 15.43-15.43 15.43 6.922 15.43 15.43-6.922 15.43-15.43 15.43zm0-28.906c-7.43 0-13.477 6.046-13.477 13.477s6.046 13.477 13.477 13.477 13.477-6.046 13.477-13.477-6.046-13.477-13.477-13.477zm0 25a11.54 11.54 0 0 1-11.523-11.523A11.54 11.54 0 0 1 87.5 158.227a11.54 11.54 0 0 1 11.523 11.523A11.54 11.54 0 0 1 87.5 181.274zm0-21.094c-5.277 0-9.57 4.293-9.57 9.57s4.293 9.57 9.57 9.57 9.57-4.293 9.57-9.57-4.293-9.57-9.57-9.57zm0 0"/><path d="M87.5 176.598a.97.97 0 0 1-.55-.17 29.01 29.01 0 0 1-3.044-2.442c-2.182-2.02-3.243-3.727-3.243-5.222 0-2.586 1.96-4.7 4.37-4.7a4.17 4.17 0 0 1 2.465.818 4.18 4.18 0 0 1 2.465-.818c2.4 0 4.37 2.104 4.37 4.7 0 1.495-1.06 3.204-3.243 5.222-1.5 1.4-2.98 2.4-3.044 2.442-.166.113-.357.17-.55.17zm-2.465-10.57c-1.333 0-2.417 1.228-2.417 2.737 0 1.493 2.695 4.065 4.883 5.66 2.188-1.596 4.883-4.168 4.883-5.66 0-1.5-1.085-2.737-2.417-2.737-.654 0-1.267.293-1.727.824a.98.98 0 0 1-1.48 0c-.46-.53-1.073-.824-1.727-.824zm24.535 8.312c-.257 0-.5-.105-.7-.286s-.286-.433-.286-.7a1.01 1.01 0 0 1 .286-.7c.18-.192.434-.286.7-.286s.5.105.7.286.286.434.286.7-.105.5-.286.7-.434.286-.7.286zm0 0"/><path d="M111.523 150c-.54 0-.977.437-.977.977v9.04c0 .763-.62 1.382-1.382 1.383h-.57v-10.424c0-.54-.437-.977-.977-.977s-.977.437-.977.977V161.4h-.57c-.762 0-1.382-.62-1.382-1.383v-9.04c0-.54-.437-.977-.977-.977s-.977.437-.977.977v9.04a3.34 3.34 0 0 0 1.953 3.035v23.495c0 1.616 1.314 2.93 2.93 2.93s2.93-1.314 2.93-2.93v-8.9c0-.54-.437-.977-.977-.977s-.977.437-.977.977v8.9a.98.98 0 0 1-.977.977.98.98 0 0 1-.977-.977v-23.193h1.953v5.8c0 .54.437.977.977.977s.977-.437.977-.977v-6.1a3.34 3.34 0 0 0 1.953-3.035v-9.04c0-.54-.437-.977-.977-.977zM65.43 189.477c-1.616 0-2.93-1.314-2.93-2.93v-7.325c0-.54.437-.977.977-.977s.977.438.977.977v7.325a.98.98 0 0 0 .977.977.98.98 0 0 0 .977-.977v-14.94c0-.26.103-.507.286-.7a.94.94 0 0 1 .7-.286h1.367v-4.54c0-4.593-1.5-8.954-4.297-12.516v17.74c0 .54-.437.977-.977.977s-.977-.437-.977-.977V151c0-.395.238-.75.603-.902s.785-.068 1.064.212a22.35 22.35 0 0 1 4.837 7.24c1.137 2.722 1.7 5.594 1.7 8.54v5.516c0 .26-.103.507-.286.7a.94.94 0 0 1-.7.286H68.36v13.965c0 1.616-1.314 2.93-2.93 2.93zm-1.953-13.06c-.257 0-.5-.105-.7-.286s-.286-.434-.286-.7.105-.5.286-.7.434-.286.7-.286.5.105.7.286.286.434.286.7-.105.5-.286.7-.434.286-.7.286zm0 0"/></g><path d="M274.934 197.158l-7.148-16.32c-.216-.494-.792-.72-1.286-.503s-.72.792-.503 1.286l5.986 13.666a6.04 6.04 0 0 0-1.5-.188c-1.604 0-3.112.625-4.247 1.76-.765.765-1.783 1.187-2.866 1.187a4.03 4.03 0 0 1-2.866-1.187c-2.34-2.342-6.152-2.342-8.493 0a4.03 4.03 0 0 1-5.732 0c-1.134-1.134-2.642-1.76-4.247-1.76a6.04 6.04 0 0 0-1.5.188l11.15-25.457v5.785c0 .54.437.977.977.977s.977-.437.977-.977v-7.257h6.55l2.468 5.634a.98.98 0 0 0 .895.585.96.96 0 0 0 .39-.082c.494-.216.72-.792.503-1.286l-2.398-5.476a10.65 10.65 0 0 0 4.192-6.918l1.34-8.563a1.95 1.95 0 0 0-3.722-1.069 12.4 12.4 0 0 1-4.833 5.653l-2.767 1.735-2.767-1.735a12.4 12.4 0 0 1-4.833-5.653 1.95 1.95 0 0 0-3.721 1.069l1.34 8.563a10.64 10.64 0 0 0 4.192 6.918l-12.888 29.425a.98.98 0 0 0 .344 1.2c.388.266.9.216 1.24-.116a4.06 4.06 0 0 1 5.732 0 5.97 5.97 0 0 0 4.247 1.759 5.96 5.96 0 0 0 4.247-1.76c.765-.766 1.783-1.187 2.866-1.187a4.03 4.03 0 0 1 2.866 1.187c1.134 1.134 2.642 1.76 4.247 1.76s3.112-.625 4.247-1.76c.765-.766 1.783-1.187 2.866-1.187a4.03 4.03 0 0 1 2.866 1.187c.332.332.853.38 1.24.116a.98.98 0 0 0 .344-1.2zm-26.726-36.645l-1.345-8.562a14.36 14.36 0 0 0 5.59 6.54l3.162 1.984a.98.98 0 0 0 .634.233h.008a.99.99 0 0 0 .643-.233l3.162-1.984c2.498-1.567 4.43-3.828 5.587-6.54l-1.34 8.563c-.378 2.4-1.746 4.544-3.77 5.893h-8.563a8.69 8.69 0 0 1-3.769-5.893zm4.452 17.627a.98.98 0 0 0-.977.977.98.98 0 0 0 .977.977c.257 0 .5-.105.7-.286s.286-.434.286-.7a.98.98 0 0 0-.977-.977zm0 0" id="C" fill="#ec4a81"/><g id="D" fill="#ec4a81"><path d="M175.12 351.076c3.6-3.32 5.4-6.198 5.4-8.553 0-4.1-3.086-7.434-6.88-7.434-1.56 0-3.078.58-4.288 1.62-1.2-1.04-2.727-1.62-4.288-1.62-3.793 0-6.88 3.335-6.88 7.434 0 2.356 1.82 5.233 5.4 8.553 2.572 2.38 5.103 4.108 5.2 4.18.166.113.357.17.55.17a.97.97 0 0 0 .55-.17c.107-.072 2.638-1.8 5.2-4.18zm-5.76 2.182c-3-2.147-9.214-7.287-9.214-10.735 0-3.023 2.2-5.482 4.926-5.482 1.35 0 2.6.598 3.55 1.683a.98.98 0 0 0 1.48 0c.938-1.085 2.2-1.683 3.55-1.683 2.716 0 4.926 2.46 4.926 5.482 0 3.444-6.205 8.587-9.214 10.735zm0-22.344h.047c.538 0 .975-.435.977-.974s-.434-.978-.974-.98h-.05c-.54 0-.977.437-.977.977s.437.977.977.977zm0 0"/><path d="M172 331.173a13.38 13.38 0 0 1 6.863 3.673c.2.2.44.285.7.285a.97.97 0 0 0 .691-.286c.38-.38.38-1-.001-1.38a15.32 15.32 0 0 0-7.862-4.207.98.98 0 0 0-1.15.767c-.107.53.238 1.043.768 1.15zm26 37.785a12.91 12.91 0 0 0 2.01-6.94c0-6.78-5.225-12.362-11.86-12.933a19.42 19.42 0 0 0 .581-4.724c0-10.675-8.685-19.36-19.36-19.36S150 333.685 150 344.36a19.25 19.25 0 0 0 3.126 10.551l-2 6.472c-.108.346-.014.724.242.98a.98.98 0 0 0 .98.242l6.472-2a19.25 19.25 0 0 0 10.55 3.126 19.42 19.42 0 0 0 4.724-.581c.57 6.635 6.153 11.86 12.933 11.86a12.91 12.91 0 0 0 6.94-2.01l4.076 1.266c.346.108.724.014.98-.242s.35-.634.242-.98zm-38.472-10.24c-.246-.17-.557-.216-.843-.127l-5.144 1.598 1.598-5.144c.1-.286.042-.596-.127-.843-1.995-2.904-3.05-6.307-3.05-9.842 0-9.6 7.8-17.407 17.407-17.407s17.407 7.8 17.407 17.407a17.44 17.44 0 0 1-.646 4.707c-6.446.442-11.613 5.6-12.054 12.054a17.44 17.44 0 0 1-4.707.646c-3.535 0-6.94-1.054-9.842-3.05zm34.578 12.27a.97.97 0 0 0-.843.128 10.97 10.97 0 0 1-6.236 1.93c-6.08 0-11.03-4.948-11.03-11.03s4.948-11.03 11.03-11.03 11.03 4.948 11.03 11.03a10.97 10.97 0 0 1-1.931 6.236c-.17.246-.217.557-.128.843l.853 2.744zm-11.79-9.465c-.257 0-.5.105-.7.286s-.286.434-.286.7.105.5.286.7.434.286.7.286.5-.105.7-.286.286-.434.286-.7-.105-.5-.286-.7-.433-.286-.7-.286zm5.185 0c-.257 0-.5.105-.7.286s-.286.434-.286.7.105.5.286.7.434.286.7.286.5-.105.7-.286.286-.434.286-.7-.105-.5-.286-.7-.434-.286-.7-.286zm0 0"/><path d="M192.684 361.523a.98.98 0 0 0-.977.977.98.98 0 0 0 .977.977c.257 0 .508-.105.7-.286s.286-.434.286-.7-.105-.51-.286-.7-.434-.286-.7-.286zm0 0"/></g></defs><pattern id="E" width="350" height="350" patternUnits="userSpaceOnUse"><use xlink:href="#A" x="-350" y="-350"/><use xlink:href="#A" y="-350"/><use xlink:href="#A" x="350" y="-350"/><use xlink:href="#A" x="-350"/><use xlink:href="#A"/><use xlink:href="#A" x="350"/><use xlink:href="#A" x="-350" y="350"/><use xlink:href="#A" y="350"/><use xlink:href="#A" x="350" y="350"/></pattern><path fill="url(#E)" d="M0 0h350v350H0z"/><pattern id="F" width="350" height="350" patternUnits="userSpaceOnUse"><use xlink:href="#B" x="-350" y="-350"/><use xlink:href="#B" y="-350"/><use xlink:href="#B" x="350" y="-350"/><use xlink:href="#B" x="-350"/><use xlink:href="#B"/><use xlink:href="#B" x="350"/><use xlink:href="#B" x="-350" y="350"/><use xlink:href="#B" y="350"/><use xlink:href="#B" x="350" y="350"/></pattern><path fill="url(#F)" d="M0 0h350v350H0z"/><pattern id="G" width="350" height="350" patternUnits="userSpaceOnUse"><use xlink:href="#C" x="-350" y="-350"/><use xlink:href="#C" y="-350"/><use xlink:href="#C" x="350" y="-350"/><use xlink:href="#C" x="-350"/><use xlink:href="#C"/><use xlink:href="#C" x="350"/><use xlink:href="#C" x="-350" y="350"/><use xlink:href="#C" y="350"/><use xlink:href="#C" x="350" y="350"/></pattern><path fill="url(#G)" d="M0 0h350v350H0z"/><pattern id="H" width="350" height="350" patternUnits="userSpaceOnUse"><use xlink:href="#D" x="-350" y="-350"/><use xlink:href="#D" y="-350"/><use xlink:href="#D" x="350" y="-350"/><use xlink:href="#D" x="-350"/><use xlink:href="#D"/><use xlink:href="#D" x="350"/><use xlink:href="#D" x="-350" y="350"/><use xlink:href="#D" y="350"/><use xlink:href="#D" x="350" y="350"/></pattern><path fill="url(#H)" d="M0 0h350v350H0z"/></svg>