<svg xmlns="http://www.w3.org/2000/svg" xmlns:xlink="http://www.w3.org/1999/xlink" width="400" height="400" viewBox="0 0 350 350"><path opacity="0" fill="#fff" d="M0 0h350v350H0z"/><defs><g id="A" fill="#ec4a81"><path d="M384.845 382.168l-16.9-41.015a2.05 2.05 0 0 0-3.346-.669L340.483 364.6a2.05 2.05 0 0 0 .67 3.347l41.016 16.888a2.04 2.04 0 0 0 .78.154 2.05 2.05 0 0 0 1.897-2.832zm-15.568-25.606c0 1.13-.92 2.05-2.05 2.05s-2.05-.92-2.05-2.05.92-2.05 2.05-2.05 2.05.92 2.05 2.05zm-13.672 0c0 1.885-1.533 3.418-3.418 3.418-.378 0-.747-.06-1.094-.18l4.333-4.334a3.42 3.42 0 0 1 .179 1.095zm.238 13.007a5.99 5.99 0 0 1 .407-.451 5.92 5.92 0 0 1 8.359 0 5.91 5.91 0 0 1 1.7 4.765l-7.27-2.997zm14.354 5.915c.738-3.288-.233-6.812-2.687-9.266-3.904-3.904-10.255-3.904-14.16 0a9.93 9.93 0 0 0-1.395 1.75l-6.396-2.633 2.494-2.493a7.49 7.49 0 0 0 4.135 1.24 7.53 7.53 0 0 0 7.519-7.519c0-1.492-.44-2.922-1.24-4.135l6.868-6.868 1.998 4.854-.107-.003a6.16 6.16 0 0 0-6.152 6.152 6.16 6.16 0 0 0 6.152 6.152c1.726 0 3.287-.716 4.405-1.864l7.548 18.33zm-19.377-45.582a2.051 2.051 0 1 1-4.102 0 2.051 2.051 0 1 1 4.102 0zm0 0"/><path d="M343.984 350.4a2.051 2.051 0 1 1-4.102 0 2.051 2.051 0 1 1 4.102 0zm38.966-21.865a2.051 2.051 0 1 1-4.102 0 2.051 2.051 0 1 1 4.102 0zm-43.067 52.363a2.051 2.051 0 1 1-4.102 0 2.051 2.051 0 1 1 4.102 0zm-5.47-15.448a2.051 2.051 0 1 1-4.102 0 2.051 2.051 0 1 1 4.102 0zm-15.312-25.9a2.051 2.051 0 1 1-4.102 0 2.051 2.051 0 1 1 4.102 0zm3.008 35.48a2.051 2.051 0 1 1-4.102 0 2.051 2.051 0 1 1 4.102 0zm12.304-54.688a2.051 2.051 0 1 1-4.102 0 2.051 2.051 0 1 1 4.102 0zm16.406-3.282a2.051 2.051 0 1 1-4.102 0 2.051 2.051 0 1 1 4.102 0zm0 0"/><path d="M332.363 344.258c0-1.885 1.533-3.418 3.418-3.418a2.051 2.051 0 1 0 0-4.102 7.53 7.53 0 0 0-7.519 7.519 2.051 2.051 0 1 0 4.102 0zm-14.355 7.52a2.051 2.051 0 1 0 0 4.102c1.885 0 3.418 1.533 3.418 3.418a2.051 2.051 0 1 0 4.102 0 7.53 7.53 0 0 0-7.519-7.519zm46.484-24.61a7.53 7.53 0 0 0 7.519-7.519 2.051 2.051 0 1 0-4.102 0c0 1.885-1.533 3.418-3.418 3.418a2.051 2.051 0 1 0 0 4.102zm-6.836 13.672a2.05 2.05 0 0 0 2.051-2.051c0-1.885 1.533-3.418 3.418-3.418a2.051 2.051 0 1 0 0-4.102 7.53 7.53 0 0 0-7.519 7.519 2.05 2.05 0 0 0 2.051 2.051zm-32.812-13.672c-1.885 0-3.418-1.533-3.418-3.418a2.051 2.051 0 1 0-4.102 0 7.53 7.53 0 0 0 7.519 7.519 2.051 2.051 0 1 0 0-4.102zm0 0"/></g><path d="M287.498 167.1a1.46 1.46 0 0 0-.073-.463l-3.906-11.72c-.2-.598-.76-1.002-1.4-1.002s-1.2.404-1.4 1.002l-3.906 11.72a1.45 1.45 0 0 0-.073.463h-.002v9.277h-6.934v-9.766c.515 0 .992-.27 1.257-.712s.278-1 .035-1.444l-7.324-13.672c-.255-.476-.75-.773-1.29-.773s-1.036.297-1.29.773l-7.324 13.672c-.243.454-.23 1.002.035 1.444s.742.712 1.257.712v9.766h-6.934l-.002-9.277a1.46 1.46 0 0 0-.073-.463l-3.906-11.72c-.2-.598-.76-1.002-1.4-1.002s-1.2.404-1.4 1.002l-3.906 11.72a1.45 1.45 0 0 0-.073.463h-.002v31.445c0 .81.656 1.465 1.465 1.465h47.07c.81 0 1.465-.656 1.465-1.465V167.1zm-5.37-7.087l1.874 5.622h-3.748zm-19.63-5.436l4.877 9.105h-9.755zm-19.63 5.436l1.874 5.622h-3.748zm3.516 37.067v-6.348c0-1.346 1.095-2.44 2.44-2.44s2.44 1.095 2.44 2.44v6.348zm13.672 0v-10.254c0-1.346 1.095-2.44 2.44-2.44s2.44 1.095 2.44 2.44v10.254zm13.672 0v-6.348c0-1.346 1.095-2.44 2.44-2.44s2.44 1.095 2.44 2.44v6.348zm7.813 0v-6.348a5.38 5.38 0 0 0-5.371-5.371 5.38 5.38 0 0 0-5.371 5.371v6.348h-2.93v-10.254a5.38 5.38 0 0 0-5.371-5.371 5.38 5.38 0 0 0-5.371 5.371v10.254h-2.93v-6.348a5.38 5.38 0 0 0-5.371-5.371 5.38 5.38 0 0 0-5.371 5.371v6.348h-3.027v-13.38h1.465c.81 0 1.465-.656 1.465-1.465s-.656-1.465-1.465-1.465h-1.465v-12.207h4.883v9.277c0 .81.656 1.465 1.465 1.465h9.863c.81 0 1.465-.656 1.465-1.465v-1.465h1.465c.81 0 1.465-.656 1.465-1.465s-.656-1.465-1.465-1.465h-1.465v-6.836h8.79v2.93h-1.465c-.81 0-1.465.656-1.465 1.465s.656 1.465 1.465 1.465h1.465v5.37c0 .81.656 1.465 1.465 1.465h9.863c.81 0 1.465-.656 1.465-1.465v-9.277h4.883v9.277h-1.465c-.81 0-1.465.656-1.465 1.465s.656 1.465 1.465 1.465h1.465v2.93h-1.465c-.81 0-1.465.656-1.465 1.465s.656 1.465 1.465 1.465h1.465v10.45zm0 0" id="B" fill="#ec4a81"/><path d="M192.676 344.238h-2.467c-1.802-1.232-3.98-1.953-6.322-1.953h-5.37v-8.748c1.705-.605 2.93-2.233 2.93-4.143a4.4 4.4 0 0 0-4.395-4.395 4.4 4.4 0 0 0-4.395 4.395c0 1.9 1.225 3.538 2.93 4.143v8.748h-3.138c-.24-1.234-.753-3.16-1.8-5.092-2.15-3.97-5.572-6.226-9.945-6.578-.59-1.73-2.233-2.978-4.16-2.978H154.6c-.81 0-1.465.656-1.465 1.465v4.6l-2.732 6.83c-.26.652-.393 1.337-.393 2.04a5.43 5.43 0 0 0 8.273 4.732l1.688-.993v9.62l-3.585 4.482c-.208.26-.32.583-.32.915v10.742c0 .39.154.76.43 1.036s.647.43 1.036.43h5.86c.81 0 1.465-.656 1.465-1.465v-7.14l6.324-5.42a1.46 1.46 0 0 0 .343-.431c1.268.662 2.65 1.093 4.074 1.27v11.722h-4.395c-.81 0-1.465.656-1.465 1.465s.656 1.465 1.465 1.465h11.72c.81 0 1.465-.656 1.465-1.465s-.656-1.465-1.465-1.465h-4.395V360.35c1.426-.176 2.806-.607 4.074-1.27.024.045.05.09.078.13l3.66 5.5v7.37c0 .81.656 1.465 1.465 1.465h5.86c.388 0 .76-.154 1.036-.43s.43-.647.43-1.036v-18.555c0-2.342-.72-4.518-1.952-6.32 2.193.245 3.905 2.11 3.905 4.367v2.54c0 .81.656 1.465 1.465 1.465s1.465-.656 1.465-1.465v-2.54c0-4.04-3.286-7.324-7.324-7.324zm-15.625-16.31c.808 0 1.465.657 1.465 1.465s-.657 1.465-1.465 1.465-1.465-.657-1.465-1.465.657-1.465 1.465-1.465zm2.93 17.285v5.86h-5.86v-5.86zm9.277 25.39v-6.348c0-.29-.085-.572-.246-.813l-3.66-5.5v-1.5c0-.572-.333-1.092-.853-1.33s-1.13-.154-1.566.22c-1.637 1.403-3.727 2.176-5.883 2.176s-4.245-.773-5.883-2.176c-.434-.372-1.046-.458-1.566-.22s-.853.76-.853 1.33v1.28l-6.324 5.42c-.325.278-.512.684-.512 1.112v6.348h-2.93v-8.764l3.585-4.482c.208-.26.32-.583.32-.915V343.75c0-.526-.282-1.01-.738-1.27s-1.017-.257-1.47.01l-3.895 2.29c-.8.47-1.762.477-2.57.016a2.53 2.53 0 0 1-1.289-2.222 2.55 2.55 0 0 1 .183-.951l2.837-7.093a1.46 1.46 0 0 0 .105-.544v-3.418h.488c.808 0 1.465.657 1.465 1.465s.656 1.465 1.465 1.465c3.846 0 6.725 1.688 8.558 5.016a15.32 15.32 0 0 1 1.701 5.36c.063.76.698 1.343 1.46 1.343v7.324c0 .81.656 1.465 1.465 1.465h8.79c.81 0 1.465-.656 1.465-1.465v-7.324h.977c4.577 0 8.3 3.724 8.3 8.3v17.1zm0 0" id="C" fill="#ec4a81"/><path d="M86.508 145C75.2 145 66 154.2 66 165.508a20.42 20.42 0 0 0 3.346 11.229c1.598 2.438 2.813 4.978 3.612 7.55l.148.477 3.483 11.84 1.154 6.926A1.76 1.76 0 0 0 79.477 205H93.54a1.76 1.76 0 0 0 1.734-1.469l1.154-6.926 3.482-11.84.148-.477c.8-2.573 2.014-5.113 3.612-7.55a20.42 20.42 0 0 0 3.346-11.229c0-11.308-9.2-20.508-20.507-20.508zm2.75 7.805c1.122 3.367 1.74 7.878 1.74 12.702 0 3.54-.338 6.96-.98 9.9-.502 2.296-.9 4.68-1.185 7.102H84.18c-.286-2.422-.683-4.807-1.185-7.102-.64-2.93-.98-6.35-.98-9.9 0-4.824.618-9.336 1.74-12.702 1.04-3.125 2.24-4.29 2.752-4.3s1.7 1.165 2.752 4.3zm4.136 41.648h-2.542l1.103-8.437h3.92zm-7.69 0l-1.103-8.437h3.808l-1.103 8.438zm-6.087 0l-2.482-8.437h3.92l1.103 8.438zm-7.334-19.644c-1.812-2.764-2.77-5.98-2.77-9.3 0-7.58 4.99-14.02 11.86-16.2a20.17 20.17 0 0 0-.955 2.385c-1.24 3.716-1.92 8.622-1.92 13.814 0 3.79.367 7.468 1.06 10.64a70.19 70.19 0 0 1 1.076 6.351h-4.563c-.89-2.63-2.162-5.213-3.787-7.69zm19.764 26.675H80.966l-.586-3.516h12.256zm8.68-26.675c-1.625 2.478-2.897 5.06-3.788 7.69H92.38a70.03 70.03 0 0 1 1.076-6.351c.694-3.173 1.06-6.852 1.06-10.64 0-5.192-.682-10.098-1.92-13.814a20.09 20.09 0 0 0-.955-2.385c6.87 2.18 11.86 8.618 11.86 16.2 0 3.32-.958 6.537-2.77 9.3zm0 0" id="D" fill="#ec4a81"/></defs><pattern id="E" width="350" height="350" patternUnits="userSpaceOnUse"><use xlink:href="#A" x="-350" y="-350"/><use xlink:href="#A" y="-350"/><use xlink:href="#A" x="350" y="-350"/><use xlink:href="#A" x="-350"/><use xlink:href="#A"/><use xlink:href="#A" x="350"/><use xlink:href="#A" x="-350" y="350"/><use xlink:href="#A" y="350"/><use xlink:href="#A" x="350" y="350"/></pattern><path fill="url(#E)" d="M0 0h350v350H0z"/><pattern id="F" width="350" height="350" patternUnits="userSpaceOnUse"><use xlink:href="#B" x="-350" y="-350"/><use xlink:href="#B" y="-350"/><use xlink:href="#B" x="350" y="-350"/><use xlink:href="#B" x="-350"/><use xlink:href="#B"/><use xlink:href="#B" x="350"/><use xlink:href="#B" x="-350" y="350"/><use xlink:href="#B" y="350"/><use xlink:href="#B" x="350" y="350"/></pattern><path fill="url(#F)" d="M0 0h350v350H0z"/><pattern id="G" width="350" height="350" patternUnits="userSpaceOnUse"><use xlink:href="#C" x="-350" y="-350"/><use xlink:href="#C" y="-350"/><use xlink:href="#C" x="350" y="-350"/><use xlink:href="#C" x="-350"/><use xlink:href="#C"/><use xlink:href="#C" x="350"/><use xlink:href="#C" x="-350" y="350"/><use xlink:href="#C" y="350"/><use xlink:href="#C" x="350" y="350"/></pattern><path fill="url(#G)" d="M0 0h350v350H0z"/><pattern id="H" width="350" height="350" patternUnits="userSpaceOnUse"><use xlink:href="#D" x="-350" y="-350"/><use xlink:href="#D" y="-350"/><use xlink:href="#D" x="350" y="-350"/><use xlink:href="#D" x="-350"/><use xlink:href="#D"/><use xlink:href="#D" x="350"/><use xlink:href="#D" x="-350" y="350"/><use xlink:href="#D" y="350"/><use xlink:href="#D" x="350" y="350"/></pattern><path fill="url(#H)" d="M0 0h350v350H0z"/></svg>