<svg xmlns="http://www.w3.org/2000/svg" xmlns:xlink="http://www.w3.org/1999/xlink" width="400" height="400" viewBox="0 0 350 350"><use xlink:href="#I" opacity="0" fill="#fff"/><defs><g id="A" fill="#ec4a81"><path d="M373.208 52.874l-60.853-16.306 3.494-13.04 2.898.776-2.718 10.142L371.087 49.2l3.106-11.6 2.898.776zm-14.585-84.66l2.898.776-.776 2.898-2.898-.776zm0 0"/><path d="M364.42-30.233l20.284 5.435-.776 2.898-20.284-5.435zM357.07-26l2.898.776-.776 2.898-2.898-.776zm5.796 1.562l20.284 5.435-.776 2.898L362.1-21.54zM376.938 4.18L333.472-7.467l4.66-17.387L381.6-13.207zM337.146-9.588L374.817.506l3.106-11.6-37.67-10.094zm0 0"/><path d="M332.695-4.57l2.898.776-.776 2.898-2.898-.776zm5.795 1.554l31.876 8.54-.776 2.898-31.876-8.54zm-5.38-26.288l17.387 4.66 4.66-17.387 37.67 10.094-14.753 55.058 2.898.776 15.53-57.956-42.618-11.42-23.122 13.35L322.06.346l2.898.776zm18.6-11.456l-3.333 12.44-12.44-3.333zm23.376 64.632l-59.7-15.998.388-1.45a1.5 1.5 0 0 1 1.837-1.061l17.387 4.66.776-2.898-17.387-4.66a4.5 4.5 0 0 0-5.511 3.182l-.388 1.45-4.347-1.165a6 6 0 1 0-3.106 11.591L371.98 35.46l15.077-2.172zm.182 3.957l4.432 3.5-5.6.805zm-65.1-12.038l-4.347-1.165a3 3 0 0 1 1.553-5.796l4.347 1.165zm2.898.776l1.553-5.796 2.898.776-1.553 5.796zm7.348-4.243l52.16 13.976-1.553 5.796-52.16-13.976zm0 0"/></g><g id="B" fill="#ec4a81"><path d="M183 348.667V330h-19.6l-8.4 8.4V370h28v-6.667h-1.333v5.333h-25.333v-29.333h8v-8h17.333v17.333zM157.276 338l5.724-5.724V338zm30.128 28.842l-7.07-7.07-7.07 7.07-3.77-3.77 7.07-7.07-7.07-7.07 3.77-3.77 7.07 7.07 7.07-7.07 3.77 3.77-7.07 7.07 7.07 7.07zm-7.07-8.956l7.07 7.07 1.886-1.886-7.07-7.07 7.07-7.07-1.886-1.886-7.07 7.07-7.07-7.07-1.886 1.886 7.07 7.07-7.07 7.07 1.886 1.886zm0 0"/><path d="M167 335.333h1.333v1.333H167zm2.667 0H179v1.333h-9.333zM167 338h1.333v1.333H167zm2.667 0H179v1.333h-9.333zM159 350h1.333v1.333H159zm2.667 0h6.667v1.333h-6.667zm6.666-1.333H159v-8h20V348h-1.333v-6h-17.333v5.333h8zm0 0"/></g><g id="C" fill="#ec4a81"><path d="M99.5 74.833h2.667v29.333c0 .563-.238 1.1-.654 1.48a1.98 1.98 0 0 1-1.346.519h-.02a1.94 1.94 0 0 1-.179-.009 2.08 2.08 0 0 1-1.801-2.104V99.5H72.833V74.833h17.333V73.5H71.5v26h-4v4.667a3.34 3.34 0 0 0 3.333 3.333h29.333c1.84 0 3.333-1.493 3.333-3.333V73.5h-4zm-28.667 31.333a2 2 0 0 1-2-2v-3.333h28v3.22a3.51 3.51 0 0 0 .707 2.114zM74.167 71.5h16v1.333h-16zm2.666-2h13.333v1.333H76.833zM99.5 72.833h4.667V101.5h1.333v-30h-6zm0 0"/><path d="M99.5 69.5v1.333h6.667v28h1.333V69.5zm-1.333 23.533V69.5a2 2 0 0 0-2-2H93.5a2 2 0 0 0-2 2v23.533l3.333 5zm-5.095-.047l1.762-1.32 1.762 1.32-1.762 2.645zm3.762-1.486l-1.333-1v-15h1.333zm-4-22a.67.67 0 0 1 .667-.667h2.667a.67.67 0 0 1 .667.667v2h-4zm0 3.333h4v1.333h-4zm1.333 2.667v15l-1.333 1v-16zm-16 3.333H79.5v1.333h-1.333zm2.666 0h8v1.333h-8zM78.167 81.5H79.5v1.333h-1.333zm2.666 0h8v1.333h-8zm9.334 4v-1.333H75.5v8h14.667v-1.333H76.833V85.5zm-14.667 8h1.333v1.333H75.5zm2.667 0h12v1.333h-12zm0 0"/></g><g id="D" fill="#ec4a81"><path d="M259.167 72.833h1.333v1.333h-1.333zm2.666 0H272.5v1.333h-10.667zm-2.666 2.667h1.333v1.333h-1.333zm2.666 0H272.5v1.333h-10.667zm0 0"/><path d="M252.5 86.167h20v-8h-20zm1.333-6.667h17.333v5.333h-17.333zm25.334-8h-1.333v1.333h1.333a2 2 0 0 1 2 2V91.5H276.5v-24h-19.6l-8.4 8.4v15.6h-4.667V74.833a2 2 0 0 1 2-2h4.667V71.5h-4.667a3.34 3.34 0 0 0-3.333 3.333v21.333a3.34 3.34 0 0 0 3.333 3.333h11.333v2.667h-4a2 2 0 0 0-2 2v3.333h22.667v-3.333a2 2 0 0 0-2-2H270.5v1.333h1.333a.67.67 0 0 1 .667.667v2h-20v-2a.67.67 0 0 1 .667-.667h16v-1.333h-1.333V99.5h11.333a3.34 3.34 0 0 0 3.333-3.333V74.833a3.34 3.34 0 0 0-3.333-3.333zM256.5 69.776V75.5h-5.724zm-6.667 7.057h8v-8h17.333V91.5h-25.333zm16.667 25.333h-8V99.5h8zm12.667-4h-33.333a2 2 0 0 1-2-2v-3.333h37.333v3.333a2 2 0 0 1-2 2zm0 0"/><path d="M262.5 93.5a2 2 0 0 0 0 4 2 2 0 0 0 0-4zm0 2.667a.67.67 0 0 1-.667-.667.67.67 0 0 1 .667-.667.67.67 0 0 1 .667.667.67.67 0 0 1-.667.667zm-10-8.667h1.333v1.333H252.5zm2.667 0H272.5v1.333h-17.333zm0 0"/></g><g id="E" fill="#ec4a81"><path d="M364 210h-49v-28.483l9.333 9.333 6.94-6.94 8.227 7.052 8.227-7.052 6.94 6.94 9.333-9.333zm-46.667-2.333h44.333V187.15l-7 7-7.06-7.06-8.106 6.948-8.106-6.948-7.06 7.06-7-7zM329.684 140L315 154.684v24.3l9.333 9.333 7.06-7.06 8.106 6.948 8.106-6.948 7.06 7.06 9.333-9.333V140zm-.684 3.983V154h-10.017zm32.667 34.034l-7 7-6.94-6.94-8.227 7.052-8.227-7.052-6.94 6.94-7-7v-21.684h14v-14h30.333zm0 0"/><path d="M333.667 149.333H336v2.333h-2.333zm4.666 0H357v2.333h-18.667zM333.667 154H336v2.333h-2.333zm4.666 0H357v2.333h-18.667zm-14 43.167h30.333v2.333h-30.333zm0 4.666h30.333v2.333h-30.333zM357 172.667h-35v-14h35zm-32.667-2.333h30.333V161h-30.333zm0 0"/></g><path d="M132.134 150.25l16.305 60.853 10.142-2.718 1.812 6.76 47.33-12.682-1.812-6.76 10.142-2.718-16.305-60.853zm72.732 50.565l-42.823 11.474-9.662-36.06 13.523-3.623-3.623-13.523 29.3-7.85zM153.37 173.55l7.083-12.268 2.593 9.676zm59.826 17.8l-7.888 2.114-12.078-45.076-33.147 8.882-10.383 17.98 8.278 30.893-7.888 2.114-12.682-47.33 63.107-16.9zm-76.393-32.675l-1.812-6.76 63.107-16.9 1.812 6.76zm1.047-5.115l2.254-.604.604 2.254-2.254.604zm4.507-1.207l2.254-.604.604 2.254-2.254.604zm4.508-1.208l2.254-.604.604 2.254-2.254.604zm17.875 53.185l2.254-.604.604 2.254-2.254.604zm4.507-1.206l29.3-7.85.604 2.254-29.3 7.85zm-5.717-3.3l2.254-.604.604 2.254-2.254.604zm4.5-1.208l29.3-7.85.604 2.254-29.3 7.85zm1.767-29.462l2.254-.604.604 2.254-2.254.604zm4.508-1.207l15.777-4.227.604 2.254-15.777 4.227zm-5.715-3.3l2.254-.604.604 2.254-2.254.604zm4.507-1.207l15.777-4.227.604 2.254-15.777 4.227zm-10.18 34.13l33.807-9.06-3.623-13.523-33.807 9.06zm-.766-11.873l29.3-7.85 2.416 9.015-29.3 7.85zm-4.065-6.157l2.254-.604.604 2.254-2.254.604zm4.508-1.208l29.3-7.85.604 2.254-29.3 7.85zm0 0" id="F" fill="#ec4a81"/><g id="G" fill="#ec4a81"><path d="M112.5 242.5H105v-5H70v5h-7.5v40h10v-1.667h-8.333v-36.667H70v32.845l10.488 10.49H105v-5h7.5zM80 284.655l-7.155-7.155H80zm23.333 1.178H81.667v-10h-10v-36.667h31.667zm7.5-5H105v-36.667h5.833zm-27.5-38.333H85v1.667h-1.667zm0 0"/><path d="M86.667 242.5H100v1.667H86.667zm-3.334 3.333H85v1.667h-1.667zm3.334 0H100v1.667H86.667zM83.333 277.5H85v1.667h-1.667zm3.334 0H100v1.667H86.667zm-3.334 3.333H85v1.667h-1.667zm0 0"/><path d="M86.667 280.833H100v1.667H86.667zM100 249.167H75v10h25zm-1.667 8.333H76.667v-6.667h21.667zm0 0"/><path d="M75 264.167h1.667v1.667H75zm3.333 0H100v1.667H78.333zM75 267.5h1.667v1.667H75zm3.333 0H100v1.667H78.333zm0 0"/><path d="M75 270.833h1.667v1.667H75zm3.333 0H100v1.667H78.333zm27.5-21.666h3.333v1.667h-3.333zm0 3.333h3.333v1.667h-3.333zm0 3.333h3.333v1.667h-3.333zm0 3.334h3.333v1.667h-3.333zm0 3.333h3.333v1.667h-3.333zm0 3.333h3.333v1.667h-3.333zm0 0"/><path d="M105.833 269.167h3.333v1.667h-3.333zm0 3.333h3.333v1.667h-3.333zm-40-23.333h3.333v1.667h-3.333zm0 3.333h3.333v1.667h-3.333zm0 3.333h3.333v1.667h-3.333zm0 3.334h3.333v1.667h-3.333zm0 3.333h3.333v1.667h-3.333zm0 3.333h3.333v1.667h-3.333zm0 3.334h3.333v1.667h-3.333zm0 3.333h3.333v1.667h-3.333zm0 0"/></g><g id="H" fill="#ec4a81"><path d="M277.665 303.1h-51.72v-59.888h16.333V226.9h35.388v35.388h2.722v-38.1h-40.035l-17.13 17.13v64.535h57.166v-19.055h-2.722zm-49.797-62.6l11.686-11.686V240.5zm21.915 32.143l-7.7 7.7 19.25 19.25 35.6-35.6-7.7-7.7-27.9 27.902zm43.308-8.662l-31.76 31.76-15.4-15.4 3.85-3.85 11.55 11.55 27.9-27.9zm-45.37-28.925h2.722v2.722h-2.722zm5.445 0h19.055v2.722h-19.055zm0 0"/><path d="M247.72 240.5h2.722v2.722h-2.722zm5.445 0h19.055v2.722h-19.055zm19.055 5.445h-40.833v16.333h40.833zm-2.722 13.6H234.1v-10.9h35.388zm-38.1 5.445h2.722v2.722h-2.722zm0 0"/><path d="M236.832 265h35.388v2.722h-35.388zm0 0"/></g><path id="I" d="M0 0h350v350H0z"/></defs><pattern id="J" width="350" height="350" patternUnits="userSpaceOnUse"><use xlink:href="#A" x="-350" y="-350"/><use xlink:href="#A" y="-350"/><use xlink:href="#A" x="350" y="-350"/><use xlink:href="#A" x="-350"/><use xlink:href="#A"/><use xlink:href="#A" x="350"/><use xlink:href="#A" x="-350" y="350"/><use xlink:href="#A" y="350"/><use xlink:href="#A" x="350" y="350"/></pattern><use xlink:href="#I" fill="url(#J)"/><pattern id="K" width="350" height="350" patternUnits="userSpaceOnUse"><use xlink:href="#B" x="-350" y="-350"/><use xlink:href="#B" y="-350"/><use xlink:href="#B" x="350" y="-350"/><use xlink:href="#B" x="-350"/><use xlink:href="#B"/><use xlink:href="#B" x="350"/><use xlink:href="#B" x="-350" y="350"/><use xlink:href="#B" y="350"/><use xlink:href="#B" x="350" y="350"/></pattern><use xlink:href="#I" fill="url(#K)"/><pattern id="L" width="350" height="350" patternUnits="userSpaceOnUse"><use xlink:href="#C" x="-350" y="-350"/><use xlink:href="#C" y="-350"/><use xlink:href="#C" x="350" y="-350"/><use xlink:href="#C" x="-350"/><use xlink:href="#C"/><use xlink:href="#C" x="350"/><use xlink:href="#C" x="-350" y="350"/><use xlink:href="#C" y="350"/><use xlink:href="#C" x="350" y="350"/></pattern><use xlink:href="#I" fill="url(#L)"/><pattern id="M" width="350" height="350" patternUnits="userSpaceOnUse"><use xlink:href="#D" x="-350" y="-350"/><use xlink:href="#D" y="-350"/><use xlink:href="#D" x="350" y="-350"/><use xlink:href="#D" x="-350"/><use xlink:href="#D"/><use xlink:href="#D" x="350"/><use xlink:href="#D" x="-350" y="350"/><use xlink:href="#D" y="350"/><use xlink:href="#D" x="350" y="350"/></pattern><use xlink:href="#I" fill="url(#M)"/><pattern id="N" width="350" height="350" patternUnits="userSpaceOnUse"><use xlink:href="#E" x="-350" y="-350"/><use xlink:href="#E" y="-350"/><use xlink:href="#E" x="350" y="-350"/><use xlink:href="#E" x="-350"/><use xlink:href="#E"/><use xlink:href="#E" x="350"/><use xlink:href="#E" x="-350" y="350"/><use xlink:href="#E" y="350"/><use xlink:href="#E" x="350" y="350"/></pattern><use xlink:href="#I" fill="url(#N)"/><pattern id="O" width="350" height="350" patternUnits="userSpaceOnUse"><use xlink:href="#F" x="-350" y="-350"/><use xlink:href="#F" y="-350"/><use xlink:href="#F" x="350" y="-350"/><use xlink:href="#F" x="-350"/><use xlink:href="#F"/><use xlink:href="#F" x="350"/><use xlink:href="#F" x="-350" y="350"/><use xlink:href="#F" y="350"/><use xlink:href="#F" x="350" y="350"/></pattern><use xlink:href="#I" fill="url(#O)"/><pattern id="P" width="350" height="350" patternUnits="userSpaceOnUse"><use xlink:href="#G" x="-350" y="-350"/><use xlink:href="#G" y="-350"/><use xlink:href="#G" x="350" y="-350"/><use xlink:href="#G" x="-350"/><use xlink:href="#G"/><use xlink:href="#G" x="350"/><use xlink:href="#G" x="-350" y="350"/><use xlink:href="#G" y="350"/><use xlink:href="#G" x="350" y="350"/></pattern><use xlink:href="#I" fill="url(#P)"/><pattern id="Q" width="350" height="350" patternUnits="userSpaceOnUse"><use xlink:href="#H" x="-350" y="-350"/><use xlink:href="#H" y="-350"/><use xlink:href="#H" x="350" y="-350"/><use xlink:href="#H" x="-350"/><use xlink:href="#H"/><use xlink:href="#H" x="350"/><use xlink:href="#H" x="-350" y="350"/><use xlink:href="#H" y="350"/><use xlink:href="#H" x="350" y="350"/></pattern><use xlink:href="#I" fill="url(#Q)"/></svg>