<svg xmlns="http://www.w3.org/2000/svg" xmlns:xlink="http://www.w3.org/1999/xlink" width="400" height="400" viewBox="0 0 350 350"><use xlink:href="#I" opacity="0" fill="#fff"/><defs><path d="M396.644 323.125c-3.1-5.37-8.202-9.385-14.32-11.024s-12.394-.8-17.913 2.387L311.908 344.8c-11.187 6.46-15.064 20.928-8.605 32.115 3.1 5.37 8.202 9.385 14.32 11.024s12.394.8 17.913-2.387l52.503-30.313c11.187-6.46 15.032-20.8 8.605-32.115zM333.437 382.1c-4.475 2.583-9.834 3.3-14.774 1.967s-9.228-4.616-11.8-9.1a19.48 19.48 0 0 1 7.155-26.703l24.6-14.2c.086.15.055.267.14.416l19.3 33.4-24.6 14.2zm52.472-30.195l-24.462 14.123-19.3-33.4c-.086-.15-.204-.18-.3-.33l24.6-14.2c4.475-2.583 9.834-3.3 14.774-1.967 5.058 1.355 9.228 4.616 11.8 9.1a19.48 19.48 0 0 1-7.155 26.703zm3.97-21.892c-2.4-4.176-6.205-6.958-10.675-8.156s-9.178-.568-13.205 1.757c-.895.517-1.242 1.8-.725 2.706s1.8 1.242 2.706.725c3.132-1.808 6.655-2.25 10.184-1.306 3.4.914 6.36 3.1 8.167 6.223a2.01 2.01 0 0 0 1.254.966c.47.126 1.004.017 1.57-.2.895-.517 1.242-1.8.725-2.706z" id="A" fill="#ec4a81"/><path d="M182.764 328.048c1.004-.708 1.653-1.89 1.653-3.188v-1.83c0-2.125-1.77-3.897-3.897-3.897h-10.98c-2.125 0-3.897 1.77-3.897 3.897v1.83c0 1.358.708 2.54 1.77 3.247-4.192 3.247-6.494 11.572-6.8 12.694 0 .06-.06.177-.06.236v31.527c0 4.605 3.72 8.325 8.325 8.325h12.22c4.605 0 8.325-3.72 8.325-8.325V340.86c-.118-.472-2.066-9.505-6.672-12.812zm-2.54-6.967h.295c1.122 0 1.948.886 1.948 1.948v1.83c0 1.063-.886 1.948-1.948 1.948h-.295v-5.727zm-4.25 0h2.303v5.727h-2.303v-5.727zm-4.192 0h2.303v5.727h-2.303v-5.727zm-4.192 1.948c0-1.063.886-1.948 1.948-1.948h.295v5.786h-.295c-1.063 0-1.948-.886-1.948-1.948v-1.89zm19.896 24.384h-8.266a.93.93 0 1 0 0 1.889h8.266v5.136h-8.266a.93.93 0 1 0 0 1.889h8.266v5.136h-8.266a.93.93 0 1 0 0 1.889h8.266v9.033a6.39 6.39 0 0 1-6.376 6.376h-12.162a6.39 6.39 0 0 1-6.376-6.376v-8.856h8.266a.93.93 0 1 0 0-1.889h-8.266v-5.136h8.266a.93.93 0 1 0 0-1.889h-8.266v-5.136h8.266a.93.93 0 1 0 0-1.889h-8.266v-6.376c.945-3.542 4.192-12.398 8.266-12.398h8.443c4.546-.06 7.44 8.797 8.207 12.34v6.258z" id="B" fill="#ec4a81"/><path d="M106.486 80.546c1.35-1.35 1.35-3.53 0-4.883l-.785-.785c1.1-1.57.916-3.706-.436-5.1a3.99 3.99 0 0 0-2.834-1.177c-.828 0-1.613.262-2.267.698l-.785-.785a3.43 3.43 0 0 0-2.441-1.003 3.43 3.43 0 0 0-2.441 1.003c-.6.6-.916 1.395-1.003 2.18-.6-.305-1.264-.48-1.962-.48-1.177 0-2.223.436-3.052 1.264a4.29 4.29 0 0 0-1.264 3.052c0 1.177.436 2.223 1.264 3.052l2.398 2.398-10.856 10.812-2.398-2.398a4.29 4.29 0 0 0-3.052-1.264c-1.177 0-2.223.436-3.052 1.264-1.35 1.35-1.613 3.4-.785 5.014-.828.044-1.613.392-2.223 1.003a3.5 3.5 0 0 0 0 4.926l.828.785c-.48.654-.698 1.44-.698 2.267 0 1.046.436 2.05 1.177 2.834.785.785 1.787 1.177 2.834 1.177.785 0 1.57-.262 2.267-.698l.785.785a3.43 3.43 0 0 0 2.441 1.003 3.43 3.43 0 0 0 2.441-1.003c.6-.6.916-1.395 1.003-2.18.6.305 1.264.48 1.962.48a4.29 4.29 0 0 0 3.052-1.264c1.7-1.7 1.7-4.447 0-6.104l-2.398-2.398L95.02 84.208l2.398 2.398a4.29 4.29 0 0 0 3.052 1.264c1.177 0 2.223-.436 3.052-1.264 1.44-1.44 1.613-3.62.654-5.275h.262c.872 0 1.57-.262 2.05-.785zm-2.267-9.766c.828.828.96 2.05.436 3.052l-3.444-3.444c.96-.567 2.223-.436 3.008.392zm-33.395 33.395c-.828-.828-.96-2.05-.436-3.052l3.444 3.444c-.96.567-2.223.436-3.008-.392zm8.72 1.264c-.785.785-2.093.785-2.877 0l-7.106-7.106c-.785-.828-.785-2.093 0-2.877.392-.392.916-.6 1.44-.6s1.046.218 1.44.6l7.106 7.106c.785.785.785 2.093 0 2.877zm6.016-7.063c1.134 1.134 1.134 2.965 0 4.098-.567.567-1.264.828-2.05.828s-1.482-.305-2.05-.828l-8.937-8.937c-1.1-1.134-1.1-3.008 0-4.098.567-.567 1.264-.828 2.05-.828s1.482.305 2.05.828l8.937 8.937zm-2.354-4.447l-2.136-2.136 10.768-10.768 2.136 2.136L83.206 93.93zm19.226-8.458c-.567.567-1.264.828-2.05.828s-1.482-.305-2.05-.828L92.36 79.5l-2.877-2.92c-.567-.523-.872-1.264-.872-2.05s.305-1.482.828-2.05c.567-.567 1.264-.828 2.05-.828s1.482.305 2.05.828l8.894 8.894c1.134 1.134 1.134 2.965 0 4.098zm-.436-6.583l-.96-.916-5.537-5.58c-.828-.785-.828-2.093 0-2.877.392-.392.916-.6 1.44-.6.567 0 1.046.218 1.44.6l7.15 7.15c.785.785.785 2.093 0 2.877-.305.305-.74.35-1.046.35-.872 0-1.875-.392-2.485-1.003z" id="C" fill="#ec4a81"/><path d="M265.356 99.165h-1.353l-2.566-1.734c.382-.763.624-1.595.624-2.497 0-2.948-2.428-5.376-5.376-5.376s-5.376 2.428-5.376 5.376 2.428 5.376 5.376 5.376c1.665 0 3.12-.763 4.127-1.908l1.18.798h-.416a.55.55 0 1 0 0 1.11h3.815a.55.55 0 0 0 .555-.555.61.61 0 0 0-.59-.59zm-4.9-2.358l-3.468-2.324c-.277-.173-.624-.104-.798.14-.173.277-.104.624.14.798l3.468 2.324c-.728.867-1.873 1.422-3.12 1.422a4.25 4.25 0 0 1-4.231-4.231 4.25 4.25 0 0 1 4.231-4.231 4.25 4.25 0 0 1 4.231 4.231 4.26 4.26 0 0 1-.451 1.873zm22.034-24.52a.59.59 0 0 0-.59-.486h-12.555a.55.55 0 1 0 0 1.11h11.723l-.832 1.457c-1.214 1.977-2.636 1.873-2.67 1.873h-3.607c-.243 0-.486.173-.555.416l-2.67 10.405-.97-.07h-12.312l-2.844-6.936h2.844a2.02 2.02 0 0 0 2.012-2.012c0-1.1-.902-2.012-2.012-2.012h-6.763a2.02 2.02 0 0 0-2.012 2.012c0 1.1.902 2.012 2.012 2.012h2.67l2.844 6.936h-1.1c-4.127 0-7.457 3.572-7.457 7.942 0 4.405 3.364 7.942 7.457 7.942h14.67c4.127 0 7.457-3.572 7.457-7.942 0-3.607-2.254-6.66-5.376-7.63l2.566-9.92h3.052c.347.035 2.254.07 3.746-2.393 1.353-2.254 1.318-2.532 1.283-2.705zM250.685 78.9a.867.867 0 1 1 0-1.734h6.728a.867.867 0 1 1 0 1.734h-6.728zm25.388 16.023c0 3.746-2.844 6.832-6.312 6.832H255.1c-3.503 0-6.312-3.052-6.312-6.832 0-3.746 2.844-6.832 6.312-6.832h14.67c3.468 0 6.312 3.087 6.312 6.832zm5.827 9.177h-38.844a.55.55 0 1 0 0 1.11H281.9a.55.55 0 0 0 .555-.555c.035-.277-.243-.555-.555-.555zm-11.758-14.508h-5.272c-.312-.035-.555.243-.555.555a.55.55 0 0 0 .555.555h5.272a.55.55 0 1 0 0-1.11z" id="D" fill="#ec4a81"/><path d="M369.055 162.623c-.553 0-1.045.37-1.106.922-.123 2.15-.492 4.486-1.045 7.067-1.413 6.637-4.6 12.72-9.463 18.066-.37.43-.37 1.045.06 1.413.184.184.43.246.676.246s.553-.123.737-.307c5.04-5.653 8.42-12.044 9.955-18.988.553-2.642.922-5.1 1.106-7.374a.94.94 0 0 0-.922-1.045zm1.965-9.156c-.553-.676-1.23-1.3-1.905-1.72 2.765-6.083.37-11 .307-11.184-.184-.37-.553-.614-.983-.553l-7.865.614c-.37.06-.676.246-.8.614a1.24 1.24 0 0 0 .123 1.045s1.598 2.028 1.72 5.285c.184 3.687-1.72 7.68-1.72 7.743-.553 1.106-1.106 2.52-1.905 4.3-1.352 3.195-3.195 7.62-6.145 13.826-8.357 17.636-25 27.775-25.194 27.898-.37.246-.553.614-.492 1.045l1.23 6.268c0 .246.123.492.246.676.37.43.983.676 2.028.676 1.106 0 2.765-.246 4.977-.737l3.564-.86c11.5-3.134 30.1-14.994 34.473-34.965 2.52-11.675.492-17.33-1.66-19.97zm-3.072-11.5c.492 1.352 1.3 4.793-.553 8.85-.553-.184-1.106-.246-1.66-.246s-1.106.06-1.598.246c-.307.06-.553.184-.8.307a14.4 14.4 0 0 0 .307-3.687c-.123-2.15-.737-3.8-1.23-4.916l5.53-.553zm-38.22 65.874c-.123.06-.246.06-.37.06l-1.045-5.285a33.73 33.73 0 0 0 2.95-2.028l1.905 6.82c-1.782.37-2.827.43-3.44.43zm41.048-34.965c-4.117 19.1-22 30.54-32.998 33.5l-2.58.676-2.15-7.743c5.776-4.486 14.994-12.966 20.647-25a364.21 364.21 0 0 0 6.206-13.888c2.58-6.083 3.072-7.128 4.916-7.743.307-.123.614-.123.983-.123 1.413 0 2.827.737 3.87 2.028 1.413 1.966 3.626 6.882 1.106 18.312z" id="E" fill="#ec4a81"/><path d="M203.16 148.08l-1.334.357-1.172-4.376c-.472-1.76-2.3-2.816-4.06-2.344-.747.2-1.316.64-1.75 1.155-.873-.9-2.247-1.342-3.58-.985-1.974.53-3.146 2.56-2.617 4.533l1.387 5.176-39.595 10.61-1.387-5.176c-.53-1.974-2.56-3.146-4.533-2.617-1.334.357-2.308 1.42-2.61 2.644-.648-.284-1.346-.326-2.093-.126-1.76.472-2.816 2.3-2.344 4.06l1.172 4.376-1.44.386a.87.87 0 1 0 .458 1.708l1.387-.372 1.172 4.376c.472 1.76 2.3 2.816 4.06 2.344.747-.2 1.316-.64 1.75-1.155.873.9 2.26 1.396 3.595 1.038 1.974-.53 3.146-2.56 2.617-4.533l-1.387-5.176 5.763-1.544 6.205 23.16-2.935.786a.87.87 0 1 0 .458 1.708l7.47-2.002.19 6.47c-.02.35.065.67.218 1.028l2.76 10.3a.87.87 0 0 0 1.708-.458l-2.102-7.844c.416.06.804.013 1.285-.115l16.115-4.318c.427-.114.825-.335 1.156-.596l2.116 7.898a.87.87 0 1 0 1.708-.458l-2.745-10.246c-.086-.32-.172-.64-.31-.946l-2.807-5.14 7.79-2.088a.87.87 0 1 0-.458-1.708l-3.415.915-6.39-23.853 5.816-1.56 1.387 5.176c.53 1.974 2.56 3.146 4.533 2.617a3.61 3.61 0 0 0 2.595-2.697c.648.284 1.346.326 2.093.126 1.76-.472 2.816-2.3 2.344-4.06l-1.172-4.376 1.334-.357a.87.87 0 0 0 .625-1.083c-.075-.495-.55-.768-1.03-.64zm-58.242 22.126c.23.854-.24 1.666-1.04 1.88s-1.612-.254-1.827-1.055l-2.817-10.512c-.214-.8.254-1.612 1.055-1.827s1.612.254 1.827 1.055l2.802 10.46zm5.618-.6a1.86 1.86 0 1 1-3.629.972l-3.246-12.113a1.86 1.86 0 1 1 3.629-.972l3.246 12.113zM188.42 188.7c-.128.377-.42.57-.846.684l-16.115 4.318c-.427.114-.843.054-1.075-.17-.285-.2-.438-.57-.446-1.024l-.44-15.725c-.005-1.085.834-2.225 1.9-2.51l6.564-1.76c1.014-.272 2.363.282 2.902 1.224l7.536 13.823c.114.427.16.815.02 1.14zm.87-9.556l-3.042.815-3.845-7.09c-.913-1.7-3.1-2.6-4.967-2.1l-6.564 1.76c-1.868.5-3.243 2.413-3.25 4.303l.22 7.434-3.255.872-6.205-23.16 24.547-6.577 6.363 23.746zm4.96-33.357l3.03 11.313a1.86 1.86 0 1 1-3.629.972l-3.246-12.113a1.86 1.86 0 1 1 3.629-.972l.214.8zm7.445 9.215c.214.8-.254 1.612-1.055 1.827s-1.612-.254-1.827-1.055l-2.802-10.46c-.214-.8.254-1.612 1.055-1.827s1.612.254 1.827 1.055l2.802 10.46z" id="F" fill="#ec4a81"/><path d="M99.566 244.253v-2.135c0-2.532-2.383-4.618-5.313-4.618h-12.9c-2.93 0-5.313 2.085-5.313 4.618v2.085c-2.83.1-5.114 2.433-5.114 5.313v32.67a5.32 5.32 0 0 0 5.313 5.313H98.77a5.32 5.32 0 0 0 5.313-5.313v-32.67c0-2.68-1.936-4.866-4.518-5.263zm-18.222-5.114h12.9c1.688 0 3.078.943 3.525 2.185h-19.96c.447-1.24 1.837-2.185 3.525-2.185zm-3.724 3.823h20.308v1.24H77.62v-1.24zm-5.065 6.554c0-2.036 1.64-3.674 3.674-3.674H98.77c2.036 0 3.674 1.64 3.674 3.674v4.916h-29.89v-4.916zm29.94 32.72c-.05 2.036-1.688 3.674-3.724 3.674H76.23c-2.036 0-3.674-1.64-3.674-3.674v-4.916h29.94v4.916zm0-6.604h-29.94V256.07h29.94v19.563z" id="G" fill="#ec4a81"/><path d="M289.67 235.344c-2.533-2.674-5.91-4.08-9.57-4.08a13.46 13.46 0 0 0-13.651 13.651c0 2.533.704 4.996 2.04 7.177-7.74 3.94-14.847 13.088-16.958 15.973-1.97-1.126-4.222-1.69-6.544-1.69a13.46 13.46 0 0 0-13.651 13.651 13.46 13.46 0 0 0 4.011 9.64c2.533 2.603 5.98 4.01 9.64 4.01a13.46 13.46 0 0 0 13.651-13.651 13.27 13.27 0 0 0-1.759-6.614c8.022-4.15 15.34-13.862 17.098-16.254 1.9.915 3.94 1.407 6.05 1.407a13.46 13.46 0 0 0 9.64-4.011c5.277-5.277 5.277-13.932 0-19.21zm-36.59 52.492a11.3 11.3 0 0 1-7.951 3.307c-3.026 0-5.84-1.196-7.95-3.307a11.3 11.3 0 0 1-3.307-7.951c0-3.026 1.196-5.84 3.307-7.95a11.3 11.3 0 0 1 7.951-3.307c3.026 0 5.84 1.196 7.95 3.307a10.29 10.29 0 0 1 1.126 1.337v.07c.07.14.21.28.352.422 1.196 1.83 1.83 3.94 1.83 6.192 0 2.955-1.196 5.77-3.307 7.88zm2.533-16.536c-.28-.352-.633-.704-.985-1.055a14.09 14.09 0 0 0-1.126-.985c2.11-2.885 9.218-11.82 16.395-15.34.21.21.352.422.563.563a14.07 14.07 0 0 0 1.548 1.337c-1.83 2.463-8.936 11.75-16.395 15.48zm32.438-18.435a11.3 11.3 0 0 1-7.951 3.307 11.3 11.3 0 0 1-11.258-11.258c0-3.026 1.196-5.84 3.307-7.95a11.3 11.3 0 0 1 7.951-3.307c3.026 0 5.84 1.196 7.95 3.307 4.433 4.292 4.433 11.47 0 15.902z" id="H" fill="#ec4a81"/><path id="I" d="M0 0h350v350H0z"/></defs><pattern id="J" width="350" height="350" patternUnits="userSpaceOnUse"><use xlink:href="#A" x="-350" y="-350"/><use xlink:href="#A" y="-350"/><use xlink:href="#A" x="350" y="-350"/><use xlink:href="#A" x="-350"/><use xlink:href="#A"/><use xlink:href="#A" x="350"/><use xlink:href="#A" x="-350" y="350"/><use xlink:href="#A" y="350"/><use xlink:href="#A" x="350" y="350"/></pattern><use xlink:href="#I" fill="url(#J)"/><pattern id="K" width="350" height="350" patternUnits="userSpaceOnUse"><use xlink:href="#B" x="-350" y="-350"/><use xlink:href="#B" y="-350"/><use xlink:href="#B" x="350" y="-350"/><use xlink:href="#B" x="-350"/><use xlink:href="#B"/><use xlink:href="#B" x="350"/><use xlink:href="#B" x="-350" y="350"/><use xlink:href="#B" y="350"/><use xlink:href="#B" x="350" y="350"/></pattern><use xlink:href="#I" fill="url(#K)"/><pattern id="L" width="350" height="350" patternUnits="userSpaceOnUse"><use xlink:href="#C" x="-350" y="-350"/><use xlink:href="#C" y="-350"/><use xlink:href="#C" x="350" y="-350"/><use xlink:href="#C" x="-350"/><use xlink:href="#C"/><use xlink:href="#C" x="350"/><use xlink:href="#C" x="-350" y="350"/><use xlink:href="#C" y="350"/><use xlink:href="#C" x="350" y="350"/></pattern><use xlink:href="#I" fill="url(#L)"/><pattern id="M" width="350" height="350" patternUnits="userSpaceOnUse"><use xlink:href="#D" x="-350" y="-350"/><use xlink:href="#D" y="-350"/><use xlink:href="#D" x="350" y="-350"/><use xlink:href="#D" x="-350"/><use xlink:href="#D"/><use xlink:href="#D" x="350"/><use xlink:href="#D" x="-350" y="350"/><use xlink:href="#D" y="350"/><use xlink:href="#D" x="350" y="350"/></pattern><use xlink:href="#I" fill="url(#M)"/><pattern id="N" width="350" height="350" patternUnits="userSpaceOnUse"><use xlink:href="#E" x="-350" y="-350"/><use xlink:href="#E" y="-350"/><use xlink:href="#E" x="350" y="-350"/><use xlink:href="#E" x="-350"/><use xlink:href="#E"/><use xlink:href="#E" x="350"/><use xlink:href="#E" x="-350" y="350"/><use xlink:href="#E" y="350"/><use xlink:href="#E" x="350" y="350"/></pattern><use xlink:href="#I" fill="url(#N)"/><pattern id="O" width="350" height="350" patternUnits="userSpaceOnUse"><use xlink:href="#F" x="-350" y="-350"/><use xlink:href="#F" y="-350"/><use xlink:href="#F" x="350" y="-350"/><use xlink:href="#F" x="-350"/><use xlink:href="#F"/><use xlink:href="#F" x="350"/><use xlink:href="#F" x="-350" y="350"/><use xlink:href="#F" y="350"/><use xlink:href="#F" x="350" y="350"/></pattern><use xlink:href="#I" fill="url(#O)"/><pattern id="P" width="350" height="350" patternUnits="userSpaceOnUse"><use xlink:href="#G" x="-350" y="-350"/><use xlink:href="#G" y="-350"/><use xlink:href="#G" x="350" y="-350"/><use xlink:href="#G" x="-350"/><use xlink:href="#G"/><use xlink:href="#G" x="350"/><use xlink:href="#G" x="-350" y="350"/><use xlink:href="#G" y="350"/><use xlink:href="#G" x="350" y="350"/></pattern><use xlink:href="#I" fill="url(#P)"/><pattern id="Q" width="350" height="350" patternUnits="userSpaceOnUse"><use xlink:href="#H" x="-350" y="-350"/><use xlink:href="#H" y="-350"/><use xlink:href="#H" x="350" y="-350"/><use xlink:href="#H" x="-350"/><use xlink:href="#H"/><use xlink:href="#H" x="350"/><use xlink:href="#H" x="-350" y="350"/><use xlink:href="#H" y="350"/><use xlink:href="#H" x="350" y="350"/></pattern><use xlink:href="#I" fill="url(#Q)"/></svg>