<svg xmlns="http://www.w3.org/2000/svg" xmlns:xlink="http://www.w3.org/1999/xlink" width="400" height="400" viewBox="0 0 350 350"><style><![CDATA[.B{fill:#ec4a81}]]></style><use xlink:href="#K" opacity="0" fill="#fff"/><defs><path d="M399.664-15.014l.108-1.618-1.585-.34c-.244-.052-6.053-1.278-13.824-1.08-4.54.116-8.803.703-12.706 1.738-1.696-13.42-9.03-24.365-9.357-24.848l-.9-1.342-1.46.707c-.528.256-12.35 6.067-20.528 16.84-2.862-2.848-6.26-5.488-10.135-7.858-6.63-4.057-12.275-5.9-12.512-5.976l-1.543-.498-.716 1.455c-.1.223-2.71 5.56-4.41 13.147-2.24 10.006-1.798 19.217 1.27 26.667-5.452 2.004-8.883 5.165-9.97 9.222-1.498 5.59 1.748 11.96 9.14 17.933 6.98 5.64 16.954 10.388 28.085 13.37s22.143 3.857 31.007 2.463c9.388-1.477 15.383-5.37 16.88-10.96 1.087-4.056-.304-8.51-4.023-12.97 6.38-4.918 11.37-12.675 14.433-22.46 2.323-7.42 2.738-13.34 2.755-13.6zm-39.58-22.617c2.008 3.376 6.807 12.334 7.93 22.453-3.085 1.11-5.896 2.533-8.386 4.252-.752-4.468-3.11-7.995-3.237-8.182l-.9-1.342-1.46.707c-.203.1-4.01 1.973-6.895 5.467-1.297-2.734-3.02-5.37-5.136-7.875 6.033-8.203 14.667-13.56 18.093-15.48zm-3.98 29.523c-2.102 1.93-4.02 4.175-5.74 6.726-.215-3.066-.75-5.974-1.595-8.687 1.407-2.54 3.818-4.403 5.383-5.418.847 1.66 2.003 4.477 1.953 7.378zM313.727-23.78c1.08-4.866 2.587-8.814 3.452-10.866 5.102 1.987 21.17 9.195 27.042 23.05 3.616 8.533 2.65 18.085 1.204 24.594-1.096 4.933-2.628 8.922-3.486 10.948-4.97-1.66-20.573-7.948-27.007-23.13-3.616-8.533-2.65-18.084-1.204-24.594zm69.15 56.816c-1.075 4.014-6.12 7.012-13.842 8.227-8.358 1.315-18.818.47-29.454-2.38s-20.117-7.348-26.698-12.666c-6.08-4.912-8.95-10.032-7.874-14.045.553-2.063 2.406-4.84 7.96-6.788 9.11 17.003 28.645 22.417 29.52 22.652s20.498 5.312 36.9-4.857c3.835 4.465 4.052 7.796 3.5 9.858zm10.426-35.494c-2.002 6.36-5.94 15.115-13.34 20.697-12.685 9.57-28.614 7.73-34.35 6.648.937-2.272 2.376-6.176 3.45-10.982.574-2.567.973-5.082 1.195-7.53 2.75-5.774 6.295-10.325 10.543-13.53 7.398-5.582 16.898-6.968 23.563-7.147 4.984-.134 9.18.367 11.38.706a65.08 65.08 0 0 1-2.444 11.137z" id="A" class="B"/><path d="M94.546 350.8c-.52-.09-1.304-.228-2.2-.228-1.155 0-2.156.236-2.974.7a4.55 4.55 0 0 0-1.446 1.305v-3.87c.48.164.955.248 1.417.248 2.402 0 3.81-2.164 4.4-3.088l.113-.173.37-.55-.655-.106-.204-.035c-.435-.076-1.092-.19-1.844-.19-1.573 0-2.793.524-3.607 1.532v-3.28a3.18 3.18 0 0 0 .893.133c1.784 0 2.816-1.587 3.257-2.265l.08-.122.37-.55-.655-.106-.144-.025c-.296-.052-.792-.14-1.34-.14-1.3 0-2.29.49-2.885 1.433-.593-.94-1.575-1.433-2.885-1.433-.55 0-1.044.087-1.34.14l-.144.025-.655.106.37.55.08.122c.44.678 1.472 2.265 3.257 2.265a3.18 3.18 0 0 0 .893-.133v3.28c-.814-1.008-2.034-1.532-3.607-1.532-.752 0-1.41.115-1.844.19l-.204.035-.655.106.37.55.113.173c.6.924 2.008 3.09 4.4 3.09.462 0 .936-.083 1.417-.248v3.87a4.55 4.55 0 0 0-1.446-1.305c-.818-.466-1.818-.702-2.974-.702-.897 0-1.68.137-2.2.228l-.246.042-.655.106.37.55.137.208c.714 1.1 2.387 3.672 5.228 3.673.582 0 1.18-.112 1.788-.332V360h.85v-4.943c.607.22 1.207.332 1.788.332 2.84 0 4.513-2.573 5.227-3.672l.137-.21.37-.55-.655-.106-.246-.042zm-3.014-5.137c.468 0 .906.05 1.265.106-.617.905-1.767 2.336-3.455 2.336-.42 0-.86-.088-1.31-.263.583-1.466 1.73-2.18 3.5-2.18zm-1.147-4.822a5.49 5.49 0 0 1 .692.047c-.45.624-1.206 1.458-2.26 1.458-.25 0-.51-.046-.775-.137.412-.92 1.182-1.368 2.342-1.368zm-4.203 1.505c-1.054 0-1.8-.834-2.26-1.458a5.49 5.49 0 0 1 .692-.047c1.16 0 1.93.448 2.342 1.368-.267.09-.526.137-.775.137zm-.524 5.76c-1.688 0-2.838-1.43-3.455-2.336.36-.055.797-.106 1.265-.106 1.768 0 2.916.714 3.5 2.18-.45.174-.89.263-1.31.263zm-.37 6.423c-2.143 0-3.57-1.867-4.3-2.957.458-.074 1.038-.15 1.667-.15 1.006 0 1.865.2 2.553.6.794.452 1.386 1.18 1.763 2.163-.58.234-1.144.353-1.683.353zm4.427 0c-.54 0-1.105-.12-1.684-.353.377-.985.97-1.712 1.763-2.163.688-.392 1.547-.6 2.553-.6.628 0 1.21.076 1.667.15-.73 1.09-2.156 2.957-4.298 2.957z" id="B" class="B"/><path d="M186.43 334.603c-2.954 0-5.714.888-7.982 2.57-2.008 1.488-3.497 3.545-4.084 5.644-.672 2.402-.126 4.573 1.457 6.006-.545.957-1.05 1.944-1.453 2.902-.368-.917-.86-1.737-1.414-2.47.787-1.25.896-2.777.278-4.34-.582-1.473-1.76-2.832-3.32-3.826-1.68-1.072-3.66-1.638-5.723-1.638-2.647 0-5.363.955-7.854 2.762l-1.337.97 1.594.433c2.63.714 4.728 2.742 6.58 4.53 1.9 1.826 3.676 3.55 5.745 3.552 1.02 0 1.992-.407 2.966-1.24.935 1.318 1.6 2.933 1.6 4.897v10.04h1.58l.001-10.23c0-1.262.74-3.122 2.06-5.446.98.53 1.895.787 2.786.787 2.906 0 4.796-2.78 6.797-5.725 1.786-2.628 3.8-5.606 6.822-7.15l1.47-.752-1.507-.673c-2.384-1.065-4.76-1.605-7.063-1.605zm-17.5 15.512c-1.43 0-2.92-1.44-4.647-3.108-1.634-1.578-3.446-3.33-5.717-4.36 1.846-1.074 3.736-1.617 5.635-1.617 3.813 0 6.695 2.245 7.57 4.463.227.574.46 1.526.078 2.477-1.42-1.44-2.98-2.424-3.952-3.037l-.693-.45-.916 1.29a17.89 17.89 0 0 0 .767.499c1 .63 2.52 1.588 3.83 2.967-.683.588-1.325.876-1.956.876zm16.48-6.222c-1.835 2.7-3.42 5.033-5.5 5.033-.607 0-1.257-.186-1.976-.566l.215-.344a57.74 57.74 0 0 1 3.174-4.503l-1.237-.985c-.136.17-1.805 2.28-3.43 4.894-.956-1.03-1.24-2.5-.768-4.18.494-1.767 1.77-3.517 3.502-4.8 1.4-1.03 3.74-2.258 7.04-2.258 1.617 0 3.284.3 4.97.9-2.587 1.798-4.385 4.444-6 6.82z" id="C" class="B"/><path d="M254.6 348.177c.728.686 1.812 1.32 2.975 1.735l.256.088-.256.088c-1.163.416-2.247 1.05-2.975 1.735-1.088 1.025-1.36 2.154-.77 3.177.42.73 1.11 1.106 1.988 1.106.354 0 .738-.06 1.15-.184.958-.287 2.048-.9 3-1.71l.204-.178-.052.265c-.22 1.215-.215 2.47.015 3.444.344 1.455 1.185 2.256 2.367 2.256s2.023-.8 2.367-2.256c.23-.974.236-2.23.015-3.444l-.052-.266.204.178c.942.8 2.032 1.422 3 1.71a4.02 4.02 0 0 0 1.149.184c.88 0 1.566-.376 1.988-1.106.59-1.024.318-2.152-.77-3.178-.728-.686-1.812-1.32-2.975-1.735l-.256-.088.256-.087c1.163-.416 2.247-1.05 2.975-1.735 1.088-1.025 1.36-2.154.77-3.177s-1.705-1.35-3.137-.922c-.958.287-2.048.9-3 1.71l-.204.178.052-.265c.22-1.215.215-2.47-.015-3.444-.344-1.455-1.185-2.256-2.367-2.256s-2.023.8-2.367 2.256c-.23.974-.236 2.23-.015 3.444l.052.266-.204-.178c-.942-.8-2.032-1.422-3-1.71-1.432-.43-2.546-.102-3.137.922s-.318 2.152.77 3.177zm4.73 5.473c-.88.727-1.907 1.293-2.746 1.514-.365.096-1.474.388-2.033-.58s.25-1.783.514-2.05c.61-.616 1.614-1.222 2.684-1.62.813-.303 1.376-.385 1.676-.383a3.11 3.11 0 0 0 1.075 1.86c-.147.26-.5.708-1.17 1.26zm3.16-5.927a2.28 2.28 0 0 1 2.277 2.277 2.28 2.28 0 0 1-2.277 2.277 2.28 2.28 0 0 1-2.277-2.277 2.28 2.28 0 0 1 2.277-2.277zm1.52 9.973c-.266.976-.777 1.47-1.52 1.47s-1.253-.495-1.52-1.47c-.228-.837-.252-2.01-.062-3.135.144-.855.354-1.384.506-1.642.335.124.697.192 1.075.192s.74-.068 1.075-.192c.152.26.362.787.506 1.643.2 1.126.166 2.298-.062 3.135zm5.905-5.164c.265.268 1.073 1.083.514 2.05s-1.67.676-2.033.58c-.84-.22-1.866-.787-2.746-1.514-.67-.553-1.023-1-1.17-1.26a3.11 3.11 0 0 0 1.075-1.86c.3-.003.863.08 1.676.383 1.07.4 2.073 1.005 2.684 1.62zm-4.265-6.182c.88-.727 1.907-1.293 2.746-1.514.365-.096 1.474-.388 2.033.58s-.25 1.783-.514 2.05c-.61.616-1.614 1.222-2.684 1.62-.813.303-1.376.385-1.676.383a3.11 3.11 0 0 0-1.075-1.86c.147-.26.5-.708 1.17-1.26zm-4.68-4.046c.266-.976.777-1.47 1.52-1.47s1.253.495 1.52 1.47c.228.837.252 2.01.062 3.135-.144.855-.354 1.384-.506 1.643-.335-.124-.697-.192-1.075-.192s-.74.068-1.075.192c-.152-.26-.362-.788-.506-1.643-.2-1.126-.166-2.298.062-3.135zm-6.42 3.113c.56-.968 1.67-.676 2.033-.58.84.22 1.866.787 2.746 1.514.67.553 1.023 1 1.17 1.26a3.11 3.11 0 0 0-1.075 1.86c-.3.003-.863-.08-1.676-.383-1.07-.4-2.073-1.005-2.684-1.62-.265-.268-1.073-1.083-.514-2.05z" id="D" class="B"/><path d="M101.062 70.14c-2.177-1.8-4.514-2.64-7.355-2.64-2.404 0-4.865.604-7.472 1.244-2.945.723-5.99 1.47-9.346 1.47-1.866 0-3.632-.23-5.397-.705l-1.048-.28-.024 1.085c-.044 1.994.804 4.45 2.268 6.57 1.268 1.835 3.638 4.366 7.73 6 6.394 2.555 7.017 5.304 7.62 7.962l.272 1.133c1.045 3.893 3.092 6.388 5.58 6.89v8.634h1.702v-8.6c2.477-.404 4.7-2.763 6.05-6.483 1.686-4.645 2.625-8.483 2.873-11.732.366-4.798-.796-8.346-3.453-10.544zM94.83 97.26c-2.06 0-3.928-2.193-4.875-5.723-.092-.344-.172-.695-.256-1.068-.32-1.418-.686-3.026-1.9-4.627-.286-.376-.6-.74-.973-1.1 1.305.378 2.715.863 4.107 1.494 3.947 1.79 6.73 4.28 8.272 7.402l.066-.033c-1.2 2.312-2.792 3.643-4.44 3.643zM93.8 85.802l.498-10.624a.36.36 0 0 1 .338-.314h.126a.36.36 0 0 1 .338.314l.555 11.825a21.11 21.11 0 0 0-1.855-1.201zm9.028-5.247c-.234 3.067-1.13 6.722-2.736 11.17-.732-1.197-1.637-2.3-2.712-3.302l.045-.002-.626-13.344a2.07 2.07 0 0 0-2.037-1.914h-.126a2.07 2.07 0 0 0-2.037 1.914l-.462 9.85-.493-.23c-3.45-1.566-6.95-2.268-8.88-2.65a27.37 27.37 0 0 0-1.702-.745c-5.854-2.34-8.384-6.892-8.848-9.872a22.3 22.3 0 0 0 4.688.486c3.56 0 6.85-.807 9.75-1.52 2.504-.614 4.868-1.195 7.066-1.195 2.423 0 4.415.715 6.27 2.25 2.207 1.825 3.162 4.888 2.84 9.103z" id="E" class="B"/><path d="M269.29 96.342a.4.4 0 0 1 .122.022c2.018.656 4.014 1.245 6.24 1.245l.684-.02.026-.002c.917-.08 1.555-.597 1.796-1.454.28-.973.65-5.075.6-6.068l-.002-.025c-.07-.77-.633-1.3-1.37-1.3-.24 0-.488.06-.712.174-2.32 1.16-4.814 1.452-7.17 1.653l-.437.02c-.995 0-1.462-.342-1.465-.573-.001-.14.192-.338.627-.346 3.563-.068 6.28-.614 8.808-1.77.893-.395 1.238-1.188.945-2.18-.523-1.738-1.313-3.447-2.35-5.083-.3-.483-.79-.76-1.314-.76-.395 0-.777.153-1.112.446-1.537 1.372-3.396 2.3-5.234 2.616a.81.81 0 0 1-.137.012c-.208 0-.332-.092-.363-.184-.04-.114.105-.24.17-.29.265-.204.837-.497 1.442-.808 1.046-.537 2.35-1.206 3.486-2.083.38-.288.62-.7.67-1.155a1.77 1.77 0 0 0-.408-1.322l-.007-.008c-.936-1.097-1.205-1.392-2.182-2.304l-.014-.013a1.61 1.61 0 0 0-1.081-.431c-.467 0-.92.22-1.28.624-.534.61-1.11 1.108-1.715 1.48-.364.223-.645.27-.817.27-.233 0-.34-.085-.35-.116s.022-.198.257-.423c.295-.283.56-.476.84-.68.362-.264.735-.537 1.14-.98.324-.358.485-.8.453-1.272a1.71 1.71 0 0 0-.607-1.184l-.01-.01-.98-.79c-1.44-1.154-2.68-2.15-3.315-2.943l-.656-.82-.656.82c-.634.792-1.876 1.79-3.315 2.943l-.99.798a1.71 1.71 0 0 0-.607 1.184c-.032.462.13.913.456 1.275.4.44.775.713 1.137.977.28.205.546.4.84.68.235.225.27.388.257.422s-.12.116-.35.116c-.172 0-.453-.047-.817-.27a7.56 7.56 0 0 1-1.719-1.484c-.355-.4-.808-.618-1.275-.618a1.61 1.61 0 0 0-1.081.431l-.014.013c-.977.912-1.246 1.207-2.182 2.304l-.007.008a1.77 1.77 0 0 0-.408 1.322 1.68 1.68 0 0 0 .666 1.151c1.143.88 2.445 1.55 3.49 2.087l1.442.808c.064.05.208.175.17.29-.03.09-.155.184-.363.184-.043 0-.09-.004-.136-.012-1.838-.315-3.697-1.244-5.24-2.62-.33-.29-.712-.442-1.106-.442-.525 0-1.004.277-1.317.764-1.035 1.632-1.826 3.34-2.35 5.083-.29.987.054 1.78.947 2.175 2.528 1.157 5.244 1.703 8.808 1.77.394.008.628.182.627.346-.002.23-.47.573-1.464.573a5.19 5.19 0 0 1-.437-.019c-2.354-.2-4.847-.493-7.165-1.65a1.6 1.6 0 0 0-.715-.176c-.737 0-1.3.54-1.37 1.3l-.002.025c-.06.993.31 5.095.588 6.063.243.86.88 1.38 1.797 1.46l.026.002.684.02c2.226 0 4.222-.59 6.24-1.245a.4.4 0 0 1 .122-.022c.137 0 .166.117.17.14.032.17-.18.375-.527.5-1.35.525-3.39 1.086-5.072 1.086-.114 0-.226-.003-.334-.008h-.077c-.526 0-.972.263-1.19.705-.23.465-.162 1.035.18 1.49l.012.016c1.765 2.22 4.432 3.495 7.318 3.495 1.153 0 2.257-.204 3.192-.59 1.138-.47 1.836-1.2 2.28-1.986v6.303h1.68v-6.302c.444.786 1.142 1.515 2.28 1.985.935.387 2.038.59 3.192.59 2.886 0 5.554-1.274 7.318-3.495l.012-.016c.343-.454.412-1.024.18-1.49-.22-.44-.665-.705-1.19-.705l-.412.01c-1.68 0-3.722-.56-5.072-1.086-.347-.135-.56-.34-.527-.5.004-.023.033-.14.17-.14zm-.252 2.218c.688.268 3.027 1.112 5.325 1.194-1.9 2.022-4.263 2.34-5.552 2.34-.92 0-1.827-.165-2.55-.464-1.66-.687-1.886-2.17-2.085-3.477-.08-.52-.147-.968-.305-1.35-.352-.856-1.01-.984-1.373-.984s-1.02.128-1.373.984c-.157.383-.226.83-.305 1.35-.2 1.308-.424 2.8-2.085 3.477-.722.3-1.628.464-2.55.464-1.3 0-3.642-.32-5.552-2.34 2.298-.082 4.637-.926 5.325-1.194 1.388-.54 1.713-1.623 1.57-2.387-.164-.876-.93-1.51-1.822-1.51-.213 0-.428.035-.64.104-1.885.613-3.74 1.163-5.72 1.163-.192 0-.386-.005-.577-.016-.24-.022-.267-.076-.314-.243-.197-.685-.494-3.813-.528-5.094 2.48 1.154 5.028 1.453 7.433 1.658l.58.025c.922 0 1.674-.202 2.237-.6.57-.405.903-1 .908-1.636.01-.97-.785-2.014-2.275-2.042-3.324-.063-5.836-.563-8.146-1.62l-.012-.005-.048-.023a.85.85 0 0 1 .03-.135c.47-1.562 1.18-3.103 2.105-4.578 1.758 1.552 3.89 2.605 6.013 2.97a2.49 2.49 0 0 0 .42.036c.9 0 1.685-.532 1.954-1.323.266-.78-.016-1.61-.735-2.163-.386-.297-.965-.595-1.7-.972-.985-.506-2.212-1.136-3.238-1.927-.007-.005-.012-.01-.015-.013.003-.01.01-.027.027-.048.878-1.03 1.12-1.295 1.996-2.115.656.75 1.363 1.357 2.112 1.817.553.34 1.14.52 1.696.52.89 0 1.62-.45 1.91-1.17.297-.74.052-1.586-.655-2.263-.376-.36-.713-.606-1.01-.824-.322-.235-.6-.438-.884-.75-.016-.018-.022-.03-.024-.028l.973-.788 2.92-2.483c.74.735 1.737 1.534 2.92 2.483l.964.776c.006.013-.001.024-.012.036-.288.315-.565.518-.887.753a9.28 9.28 0 0 0-1.011.824c-.707.676-.952 1.522-.655 2.263.3.722 1.022 1.17 1.91 1.17.557 0 1.143-.18 1.696-.52.748-.46 1.455-1.067 2.096-1.8l.016-.018c.877.82 1.12 1.086 1.996 2.114.016.02.024.038.027.048a.21.21 0 0 1-.021.017c-1.02.787-2.248 1.417-3.233 1.923l-1.7.972c-.72.554-1 1.382-.735 2.163.27.79 1.055 1.323 1.954 1.323a2.5 2.5 0 0 0 .42-.036c2.124-.364 4.26-1.42 6.013-2.97.927 1.477 1.635 3.016 2.103 4.573.02.064.027.11.03.14l-.048.023-.012.005c-2.31 1.058-4.822 1.558-8.146 1.62-1.5.028-2.285 1.074-2.275 2.043.006.635.337 1.23.91 1.636.563.4 1.315.6 2.237.6l.58-.025c2.404-.205 4.95-.503 7.434-1.658-.035 1.28-.33 4.4-.53 5.1-.046.162-.072.216-.312.24l-.577.016c-1.98 0-3.836-.55-5.72-1.163-.213-.07-.428-.104-.64-.104-.892 0-1.658.636-1.822 1.51-.143.764.182 1.847 1.57 2.387z" id="F" class="B"/><path d="M316.887 179.55c1.462 1.38 3.688 2.215 6.737 2.523-2.198 1.592-3.653 3.23-4.344 4.896-.76 1.836-.62 3.75.41 5.532s2.615 2.86 4.585 3.12a7.43 7.43 0 0 0 .966.061c1.58 0 3.397-.46 5.443-1.374-1.258 2.794-1.645 5.138-1.18 7.094.398 1.676 1.406 2.99 2.996 3.91 1.036.598 2.094.898 3.163.898a5.98 5.98 0 0 0 1.711-.255c1.93-.573 3.77-2.082 5.564-4.573.28 2.698.97 4.776 2.067 6.208 1.2 1.578 2.937 2.41 4.995 2.412s3.785-.834 4.995-2.41c1.098-1.43 1.787-3.51 2.067-6.208 1.79 2.486 3.627 3.994 5.554 4.57.575.172 1.15.258 1.72.258 1.068 0 2.127-.3 3.163-.898 1.6-.918 2.598-2.233 2.996-3.91.465-1.956.077-4.3-1.18-7.094 2.045.914 3.864 1.374 5.442 1.374.333 0 .655-.02.967-.06 1.97-.26 3.557-1.338 4.586-3.12s1.17-3.695.41-5.53c-.69-1.667-2.147-3.304-4.345-4.896 3.05-.308 5.276-1.143 6.737-2.523 1.252-1.183 1.887-2.713 1.887-4.55s-.635-3.366-1.887-4.55c-1.462-1.38-3.686-2.217-6.735-2.525 2.197-1.59 3.65-3.228 4.342-4.894.76-1.836.62-3.75-.41-5.532s-2.615-2.86-4.586-3.12c-1.79-.235-3.933.207-6.4 1.314 1.258-2.794 1.645-5.138 1.18-7.095-.398-1.676-1.406-2.99-2.996-3.91s-3.226-1.132-4.873-.643c-1.93.573-3.77 2.082-5.564 4.574-.28-2.698-.97-4.776-2.067-6.208-1.2-1.578-2.937-2.41-4.995-2.41s-3.785.834-4.995 2.41c-1.098 1.432-1.788 3.5-2.067 6.21-1.794-2.49-3.634-4-5.564-4.574-1.647-.49-3.287-.273-4.873.643s-2.598 2.233-2.996 3.91c-.465 1.957-.077 4.3 1.18 7.095-2.476-1.107-4.62-1.548-6.41-1.313-1.97.26-3.557 1.338-4.586 3.12s-1.17 3.695-.41 5.53c.69 1.666 2.146 3.303 4.343 4.894-3.05.308-5.272 1.144-6.735 2.525-1.252 1.183-1.888 2.714-1.888 4.55s.635 3.367 1.887 4.55zm7.767 13.18c-1.082-.142-1.857-.678-2.44-1.686s-.66-1.948-.24-2.957c.617-1.487 2.63-3.858 8.724-6.706 4.12-1.926 8.633-3.376 11.69-4.252.363 1.297 1.05 2.46 1.966 3.398-2.29 2.21-5.802 5.396-9.532 8.002-5.514 3.853-8.574 4.41-10.17 4.202zM350 170.014c2.75 0 4.986 2.237 4.986 4.986s-2.237 4.986-4.986 4.986-4.986-2.237-4.986-4.986 2.237-4.986 4.986-4.986zm-13.456 33.145c-.873.26-1.694.14-2.585-.373s-1.406-1.17-1.617-2.057c-.336-1.415-.045-4.148 3.193-9.156l.96-.654c3.035-2.12 5.92-4.6 8.167-6.67-.672 2.98-1.374 6.718-1.694 10.407l-.087 1.16c-2.723 5.317-4.947 6.93-6.337 7.344zm16.137 2.656c-.664.866-1.516 1.27-2.68 1.27s-2.017-.404-2.68-1.27c-.98-1.278-2.026-4.208-1.446-10.908.392-4.53 1.393-9.162 2.162-12.25a7.89 7.89 0 0 0 3.928 0c.77 3.087 1.77 7.72 2.163 12.25.58 6.7-.466 9.63-1.446 10.908zm14.978-5.087c-.21.888-.725 1.542-1.617 2.057s-1.715.633-2.59.372c-1.393-.416-3.614-2.035-6.332-7.343l-.087-1.16c-.32-3.69-1.022-7.427-1.694-10.408 2.245 2.072 5.13 4.55 8.166 6.67l.96.655c3.238 5.008 3.53 7.74 3.193 9.156zm10.367-12.642c.418 1.008.34 1.947-.24 2.956s-1.358 1.545-2.44 1.687c-1.597.2-4.657-.35-10.17-4.202-3.73-2.606-7.243-5.79-9.532-8.002.917-.937 1.603-2.1 1.966-3.398 3.058.877 7.572 2.327 11.692 4.253 6.093 2.85 8.107 5.22 8.723 6.707zm3.084-15.515c.664.627.973 1.4.973 2.43s-.31 1.802-.973 2.43c-1.057 1-3.57 2.113-9.526 1.813l-1.047-.504c-3.355-1.568-6.943-2.828-9.86-3.737 2.917-.91 6.505-2.17 9.86-3.737l1.05-.505c5.955-.3 8.468.814 9.525 1.813zm-5.765-15.3c1.082.142 1.857.678 2.44 1.686s.66 1.948.24 2.956c-.617 1.487-2.63 3.858-8.724 6.707-4.12 1.926-8.634 3.376-11.692 4.253-.363-1.297-1.05-2.46-1.966-3.398 2.288-2.2 5.8-5.395 9.532-8.002 5.514-3.853 8.575-4.412 10.17-4.202zm-11.89-10.43c.874-.26 1.694-.14 2.584.373s1.406 1.17 1.617 2.058c.336 1.414.045 4.148-3.193 9.155l-.96.655c-3.036 2.12-5.92 4.6-8.166 6.67.67-2.98 1.374-6.718 1.693-10.407l.087-1.16c2.724-5.317 4.948-6.93 6.338-7.343zm-16.137-2.655c.664-.866 1.516-1.27 2.68-1.27s2.016.403 2.68 1.27c.98 1.278 2.026 4.207 1.446 10.908-.392 4.53-1.393 9.163-2.163 12.25a7.89 7.89 0 0 0-1.964-.247c-.678 0-1.336.086-1.964.247-.77-3.087-1.77-7.72-2.163-12.25-.58-6.7.466-9.63 1.446-10.908zm-14.978 5.087c.21-.888.725-1.542 1.617-2.057s1.712-.633 2.585-.373c1.4.413 3.614 2.026 6.338 7.344l.087 1.16c.32 3.69 1.022 7.427 1.693 10.407-2.245-2.07-5.13-4.55-8.166-6.67l-.96-.655c-3.238-5.008-3.53-7.74-3.193-9.155zm-10.367 12.642c-.418-1.008-.34-1.947.24-2.956s1.358-1.545 2.44-1.687c1.597-.2 4.657.35 10.17 4.202 3.73 2.606 7.243 5.79 9.53 8.002-.917.937-1.603 2.1-1.966 3.398-3.06-.877-7.572-2.327-11.692-4.252-6.093-2.848-8.107-5.22-8.724-6.706zM318.9 172.57c1.057-.998 3.57-2.113 9.526-1.812l1.047.504c3.355 1.568 6.943 2.83 9.86 3.737-2.917.91-6.505 2.17-9.86 3.737l-1.048.504c-5.956.3-8.468-.814-9.526-1.812-.664-.627-.973-1.4-.973-2.43s.31-1.802.974-2.43z" id="G" class="B"/><path d="M199.55 156.16a14.14 14.14 0 0 0-7.051-11.472c-3.27-1.9-7.082-2.4-10.73-1.413a14.18 14.18 0 0 0-2.73 1.043 14.14 14.14 0 0 0-22.878 6.13 14.19 14.19 0 0 0-2.886.462c-3.648.978-6.698 3.317-8.586 6.588a14.14 14.14 0 0 0-.37 13.461 14.14 14.14 0 0 0 6.13 22.878 14.14 14.14 0 0 0 7.051 11.472c3.27 1.9 7.082 2.4 10.73 1.413.946-.253 1.86-.603 2.73-1.043a14.14 14.14 0 0 0 22.878-6.13 14.2 14.2 0 0 0 2.886-.462c3.648-.978 6.698-3.317 8.586-6.588a14.14 14.14 0 0 0 .37-13.461 14.14 14.14 0 0 0-6.131-22.878zm3.325 21.584l-.854.812.615 1.006a11.23 11.23 0 0 1 .15 11.48 11.15 11.15 0 0 1-6.815 5.229c-1.046.28-2.122.408-3.2.38l-1.178-.03-.276 1.146a11.23 11.23 0 0 1-8.012 8.222c-3.976 1.065-8.2-.128-11.05-3.115l-.812-.854-1.005.615a11.26 11.26 0 0 1-2.962 1.27 11.15 11.15 0 0 1-8.517-1.121c-3.565-2.058-5.715-5.896-5.6-10.015l.03-1.178-1.146-.276a11.23 11.23 0 0 1-8.222-8.012c-1.066-3.977.128-8.2 3.115-11.05l.854-.812-.615-1.006a11.23 11.23 0 0 1-.15-11.48 11.15 11.15 0 0 1 6.815-5.229c1.045-.28 2.122-.408 3.2-.38l1.178.03.276-1.146a11.23 11.23 0 0 1 19.062-5.107l.812.854 1.006-.615a11.26 11.26 0 0 1 2.962-1.27 11.15 11.15 0 0 1 8.517 1.121c3.565 2.058 5.715 5.896 5.6 10.015l-.03 1.178 1.146.276a11.23 11.23 0 0 1 8.222 8.012c1.065 3.976-.128 8.2-3.115 11.05zm-8.6-17.534a10.09 10.09 0 0 0-8.462-3.94 10.09 10.09 0 0 0-7.643-5.358 10.01 10.01 0 0 0-3.927.255 10.17 10.17 0 0 0-4.842 2.944c-1.83-.578-3.804-.627-5.665-.128-1.28.343-2.468.93-3.528 1.743a10.09 10.09 0 0 0-3.94 8.462 10.09 10.09 0 0 0-5.358 7.643c-.434 3.294.78 6.558 3.197 8.77a10.09 10.09 0 0 0 1.616 9.193c2.022 2.635 5.188 4.087 8.462 3.94a10.09 10.09 0 0 0 7.643 5.358 10.01 10.01 0 0 0 3.927-.255 10.16 10.16 0 0 0 4.842-2.943c1.83.577 3.804.627 5.665.128 1.28-.343 2.468-.93 3.528-1.743 2.635-2.022 4.087-5.188 3.94-8.462a10.08 10.08 0 0 0 5.358-7.643 10.1 10.1 0 0 0-3.197-8.77 10.09 10.09 0 0 0-1.616-9.193zm-.976 10.836a7.18 7.18 0 0 1-1.647 12.51l-1.1.424.183 1.164a7.18 7.18 0 0 1-2.721 6.818c-.755.58-1.598.996-2.507 1.24a7.22 7.22 0 0 1-4.783-.376l-1.077-.48-.694.953c-.967 1.328-2.37 2.293-3.954 2.717-.9.244-1.848.304-2.8.18a7.18 7.18 0 0 1-5.765-4.544l-.424-1.1-1.164.183a7.18 7.18 0 0 1-7.682-10.011l.478-1.077-.953-.694a7.18 7.18 0 0 1 1.647-12.51l1.1-.423-.183-1.164a7.18 7.18 0 0 1 2.721-6.818c.754-.58 1.598-.996 2.508-1.24a7.22 7.22 0 0 1 4.782.376l1.077.48.694-.953a7.22 7.22 0 0 1 3.954-2.717 7.13 7.13 0 0 1 2.791-.18 7.18 7.18 0 0 1 5.765 4.544l.424 1.1 1.164-.183a7.18 7.18 0 0 1 7.682 10.011l-.478 1.077.953.694zm-8.357-3.676a6.15 6.15 0 0 0-3.005-4.387c-1.423-.822-3.082-1.04-4.67-.615a6.19 6.19 0 0 0-.632.206 6.15 6.15 0 0 0-9.266 2.483 6.2 6.2 0 0 0-.65.137 6.11 6.11 0 0 0-3.736 2.867 6.15 6.15 0 0 0-.408 5.302 6.15 6.15 0 0 0 2.483 9.265 6.15 6.15 0 0 0 3.005 4.387 6.11 6.11 0 0 0 4.669.615c.215-.058.426-.126.632-.206a6.12 6.12 0 0 0 5.227.978 6.15 6.15 0 0 0 4.038-3.461 6.2 6.2 0 0 0 .65-.137 6.11 6.11 0 0 0 3.736-2.867 6.15 6.15 0 0 0 .409-5.302 6.15 6.15 0 0 0-2.483-9.265zm-.256 7.98l-.854.812.615 1.006a3.24 3.24 0 0 1 .043 3.311 3.21 3.21 0 0 1-1.965 1.508c-.302.08-.613.118-.924.1l-1.178-.03-.276 1.146a3.24 3.24 0 0 1-5.498 1.473l-.812-.854-1.006.615a3.25 3.25 0 0 1-.855.367 3.21 3.21 0 0 1-2.456-.323 3.24 3.24 0 0 1-1.618-2.889l.03-1.178-1.146-.276a3.24 3.24 0 0 1-1.473-5.498l.854-.812-.615-1.006a3.24 3.24 0 0 1-.043-3.311 3.21 3.21 0 0 1 1.965-1.508 3.25 3.25 0 0 1 .924-.11l1.178.03.276-1.146a3.24 3.24 0 0 1 5.498-1.473l.812.854 1.006-.615a3.25 3.25 0 0 1 .855-.367 3.21 3.21 0 0 1 2.456.323 3.24 3.24 0 0 1 1.618 2.889l-.03 1.178 1.146.276a3.24 3.24 0 0 1 1.473 5.498zm-4.328-4.46a3.46 3.46 0 0 0-2.225-1.315 3.46 3.46 0 0 0-2.251-1.269 3.44 3.44 0 0 0-1.347.088 3.46 3.46 0 0 0-1.156.557 3.46 3.46 0 0 0-1.28.096 3.44 3.44 0 0 0-1.21.597 3.46 3.46 0 0 0-1.315 2.225 3.46 3.46 0 0 0-.626 4.754 3.46 3.46 0 0 0 2.919 3.805 3.46 3.46 0 0 0 2.251 1.269 3.44 3.44 0 0 0 1.347-.088 3.47 3.47 0 0 0 1.156-.557 3.46 3.46 0 0 0 1.28-.096 3.44 3.44 0 0 0 1.21-.597 3.46 3.46 0 0 0 1.315-2.225 3.46 3.46 0 0 0 .626-4.754 3.46 3.46 0 0 0-.694-2.49zm-1.774 4.1c.127.092.25.275.22.512s-.2.38-.345.437l-1.1.423.183 1.164c.025.155-.017.373-.206.518a.54.54 0 0 1-.189.094.55.55 0 0 1-.364-.029l-1.077-.478-.694.953a.55.55 0 0 1-.512.22c-.236-.03-.38-.2-.437-.345l-.423-1.1-1.164.183c-.155.025-.373-.017-.518-.206a.54.54 0 0 1-.065-.553l.478-1.077-.953-.694c-.127-.092-.252-.275-.22-.512a.55.55 0 0 1 .345-.437l1.1-.424-.183-1.165a.55.55 0 0 1 .76-.583l1.077.478.694-.953a.55.55 0 0 1 .512-.22.55.55 0 0 1 .438.345l.424 1.1 1.164-.183c.155-.025.373.017.518.206s.13.4.065.554l-.478 1.078.953.694z" id="H" class="B"/><path d="M100.757 250.186c-1.776-3.465-4.33-6.72-7.196-9.168-1.928-1.646-3.743-2.727-5.714-3.4l-.342-.117-.343.116c-1.953.662-3.678 1.677-5.592 3.3-2.9 2.444-5.492 5.72-7.297 9.222-3.456 6.71-3.65 13.417-.545 18.9 2.1 3.702 6.488 7.12 12.71 9.912v8.57h2.125v-8.57c6.222-2.792 10.6-6.2 12.71-9.91 3.095-5.455 2.912-12.143-.516-18.834zm-1.333 17.785c-1.753 3.1-5.58 6.12-10.86 8.62v-6.73l4.795-5.048-1.54-1.463-3.254 3.426v-6.537l4.795-5.048-1.54-1.463-3.254 3.426v-5.828h-2.125v5.828l-3.254-3.426-1.54 1.463 4.795 5.048v6.537l-3.254-3.426-1.54 1.463 4.795 5.048v6.73c-5.28-2.5-9.108-5.53-10.862-8.62-3.695-6.514-1.218-13.365.586-16.868 1.68-3.26 4.086-6.303 6.777-8.57 1.586-1.336 3.008-2.205 4.562-2.78 1.596.596 3.054 1.496 4.68 2.884 2.66 2.27 5.033 5.297 6.685 8.52 3.1 6.032 3.288 12.004.558 16.816z" id="I" class="B"/><path d="M270.504 272.265c-1.654 4.083-.48 8.91 3.13 13.19l-9.236 9.236V263.72c7.478-.48 13.173-3.82 15.426-9.14 1.76-4.154 1.417-9.188-1.015-14.963-2.616-6.212-7.644-13.18-14.946-20.713L262.5 217.5l-1.362 1.405c-7.3 7.533-12.33 14.502-14.946 20.713-2.432 5.775-2.773 10.81-1.015 14.963 2.252 5.32 7.947 8.658 15.426 9.14v30.972l-9.236-9.236c3.61-4.28 4.783-9.108 3.13-13.19-1.92-4.74-8.308-10.455-27.835-10.76l-1.957-.03.03 1.957c.147 9.442 1.587 16.706 4.28 21.6 3.183 5.775 7.372 6.988 10.326 6.99 3.107 0 6.37-1.365 9.344-3.874l11.92 11.92v7.44h3.795v-7.44l11.92-11.92c2.973 2.508 6.237 3.874 9.343 3.874 2.953 0 7.143-1.212 10.326-6.988 2.692-4.884 4.132-12.15 4.28-21.59l.03-1.957-1.957.03c-19.527.304-25.915 6.02-27.835 10.76zm-31.164 15.952c-6.247-.001-10.217-8.503-10.76-22.864 12.31.468 20.427 3.47 22.4 8.337 1.08 2.667.216 5.967-2.307 9.072l-6.115-6.115-2.683 2.683 6.115 6.115c-2.207 1.798-4.52 2.772-6.65 2.772zm9.33-35.115c-1.344-3.175-1.002-7.216 1.018-12.01 2.27-5.392 6.577-11.48 12.81-18.118 6.234 6.637 10.54 12.726 12.81 18.118 2.02 4.795 2.362 8.836 1.018 12.01-1.652 3.903-6.045 6.382-11.93 6.817v-12.212h-3.795v12.212c-5.886-.435-10.28-2.914-11.93-6.817zm37 35.115c-2.13 0-4.444-.974-6.65-2.772l6.115-6.115-2.683-2.683-6.115 6.115c-2.523-3.104-3.387-6.405-2.307-9.072 1.972-4.866 10.09-7.87 22.4-8.337-.543 14.362-4.513 22.865-10.76 22.865z" id="J" class="B"/><path id="K" d="M0 0h350v350H0z"/></defs><pattern id="L" width="350" height="350" patternUnits="userSpaceOnUse"><use xlink:href="#A" x="-350" y="-350"/><use xlink:href="#A" y="-350"/><use xlink:href="#A" x="350" y="-350"/><use xlink:href="#A" x="-350"/><use xlink:href="#A"/><use xlink:href="#A" x="350"/><use xlink:href="#A" x="-350" y="350"/><use xlink:href="#A" y="350"/><use xlink:href="#A" x="350" y="350"/></pattern><use xlink:href="#K" fill="url(#L)"/><pattern id="M" width="350" height="350" patternUnits="userSpaceOnUse"><use xlink:href="#B" x="-350" y="-350"/><use xlink:href="#B" y="-350"/><use xlink:href="#B" x="350" y="-350"/><use xlink:href="#B" x="-350"/><use xlink:href="#B"/><use xlink:href="#B" x="350"/><use xlink:href="#B" x="-350" y="350"/><use xlink:href="#B" y="350"/><use xlink:href="#B" x="350" y="350"/></pattern><use xlink:href="#K" fill="url(#M)"/><pattern id="N" width="350" height="350" patternUnits="userSpaceOnUse"><use xlink:href="#C" x="-350" y="-350"/><use xlink:href="#C" y="-350"/><use xlink:href="#C" x="350" y="-350"/><use xlink:href="#C" x="-350"/><use xlink:href="#C"/><use xlink:href="#C" x="350"/><use xlink:href="#C" x="-350" y="350"/><use xlink:href="#C" y="350"/><use xlink:href="#C" x="350" y="350"/></pattern><use xlink:href="#K" fill="url(#N)"/><pattern id="O" width="350" height="350" patternUnits="userSpaceOnUse"><use xlink:href="#D" x="-350" y="-350"/><use xlink:href="#D" y="-350"/><use xlink:href="#D" x="350" y="-350"/><use xlink:href="#D" x="-350"/><use xlink:href="#D"/><use xlink:href="#D" x="350"/><use xlink:href="#D" x="-350" y="350"/><use xlink:href="#D" y="350"/><use xlink:href="#D" x="350" y="350"/></pattern><use xlink:href="#K" fill="url(#O)"/><pattern id="P" width="350" height="350" patternUnits="userSpaceOnUse"><use xlink:href="#E" x="-350" y="-350"/><use xlink:href="#E" y="-350"/><use xlink:href="#E" x="350" y="-350"/><use xlink:href="#E" x="-350"/><use xlink:href="#E"/><use xlink:href="#E" x="350"/><use xlink:href="#E" x="-350" y="350"/><use xlink:href="#E" y="350"/><use xlink:href="#E" x="350" y="350"/></pattern><use xlink:href="#K" fill="url(#P)"/><pattern id="Q" width="350" height="350" patternUnits="userSpaceOnUse"><use xlink:href="#F" x="-350" y="-350"/><use xlink:href="#F" y="-350"/><use xlink:href="#F" x="350" y="-350"/><use xlink:href="#F" x="-350"/><use xlink:href="#F"/><use xlink:href="#F" x="350"/><use xlink:href="#F" x="-350" y="350"/><use xlink:href="#F" y="350"/><use xlink:href="#F" x="350" y="350"/></pattern><use xlink:href="#K" fill="url(#Q)"/><pattern id="R" width="350" height="350" patternUnits="userSpaceOnUse"><use xlink:href="#G" x="-350" y="-350"/><use xlink:href="#G" y="-350"/><use xlink:href="#G" x="350" y="-350"/><use xlink:href="#G" x="-350"/><use xlink:href="#G"/><use xlink:href="#G" x="350"/><use xlink:href="#G" x="-350" y="350"/><use xlink:href="#G" y="350"/><use xlink:href="#G" x="350" y="350"/></pattern><use xlink:href="#K" fill="url(#R)"/><pattern id="S" width="350" height="350" patternUnits="userSpaceOnUse"><use xlink:href="#H" x="-350" y="-350"/><use xlink:href="#H" y="-350"/><use xlink:href="#H" x="350" y="-350"/><use xlink:href="#H" x="-350"/><use xlink:href="#H"/><use xlink:href="#H" x="350"/><use xlink:href="#H" x="-350" y="350"/><use xlink:href="#H" y="350"/><use xlink:href="#H" x="350" y="350"/></pattern><use xlink:href="#K" fill="url(#S)"/><pattern id="T" width="350" height="350" patternUnits="userSpaceOnUse"><use xlink:href="#I" x="-350" y="-350"/><use xlink:href="#I" y="-350"/><use xlink:href="#I" x="350" y="-350"/><use xlink:href="#I" x="-350"/><use xlink:href="#I"/><use xlink:href="#I" x="350"/><use xlink:href="#I" x="-350" y="350"/><use xlink:href="#I" y="350"/><use xlink:href="#I" x="350" y="350"/></pattern><use xlink:href="#K" fill="url(#T)"/><pattern id="U" width="350" height="350" patternUnits="userSpaceOnUse"><use xlink:href="#J" x="-350" y="-350"/><use xlink:href="#J" y="-350"/><use xlink:href="#J" x="350" y="-350"/><use xlink:href="#J" x="-350"/><use xlink:href="#J"/><use xlink:href="#J" x="350"/><use xlink:href="#J" x="-350" y="350"/><use xlink:href="#J" y="350"/><use xlink:href="#J" x="350" y="350"/></pattern><use xlink:href="#K" fill="url(#U)"/></svg>