<svg xmlns="http://www.w3.org/2000/svg" xmlns:xlink="http://www.w3.org/1999/xlink" width="400" height="400" viewBox="0 0 350 350"><style><![CDATA[.B{fill:#ec4a81}]]></style><use xlink:href="#J" opacity="0" fill="#fff"/><defs><path d="M396-10.705l-.36-.625a4.74 4.74 0 0 0-1.5-1.595 11.12 11.12 0 0 0 3.419-14.763 11.03 11.03 0 0 0-6.742-5.174c-2.622-.703-5.35-.43-7.763.758a4.76 4.76 0 0 0-.633-2.123c-1.53-2.652-4.003-4.55-6.96-5.34s-6.046-.386-8.698 1.146L308.136-4.57a11.48 11.48 0 0 0-4.196 15.659c.387.67.914 1.212 1.522 1.6a11.02 11.02 0 0 0-4.538 6.343 11.03 11.03 0 0 0 1.109 8.427 11.03 11.03 0 0 0 6.742 5.174 11.02 11.02 0 0 0 7.75-.752 4.76 4.76 0 0 0 .634 2.094l.36.625a11.39 11.39 0 0 0 6.961 5.341c2.957.792 6.046.386 8.698-1.146l2.548-1.47a1.32 1.32 0 0 0 .483-1.801 1.32 1.32 0 0 0-1.801-.483l-2.548 1.472a8.77 8.77 0 0 1-6.697.882c-2.278-.6-4.18-2.07-5.36-4.112l-.36-.625c-.3-.5-.365-1.08-.216-1.638a2.14 2.14 0 0 1 .613-1.018l71.017-41.002a2.16 2.16 0 0 1 2.501.983l.36.625a8.84 8.84 0 0 1-3.231 12.057l-51.4 29.67a1.32 1.32 0 0 0-.483 1.801 1.32 1.32 0 0 0 1.801.483l51.4-29.67a11.38 11.38 0 0 0 5.34-6.96 11.39 11.39 0 0 0-1.145-8.698zm-86.543 40.797a8.41 8.41 0 0 1-5.142-3.945 8.41 8.41 0 0 1-.846-6.426 8.42 8.42 0 0 1 3.945-5.142l2.6-1.495c.164-.072.326-.152.485-.243a1.33 1.33 0 0 0 .23-.17l59.746-34.494a1.32 1.32 0 0 0 .483-1.801 1.32 1.32 0 0 0-1.801-.483L308.85 10.706a2.16 2.16 0 0 1-2.628-.939 8.84 8.84 0 0 1 3.231-12.057l58.627-33.85a8.84 8.84 0 0 1 12.057 3.231 2.16 2.16 0 0 1-.5 2.745l-5.6 3.233a1.32 1.32 0 0 0-.483 1.801 1.32 1.32 0 0 0 1.801.483l5.048-2.915a1.3 1.3 0 0 0 .262-.115 4.77 4.77 0 0 0 .454-.299l2.6-1.494a8.41 8.41 0 0 1 11.568 3.1 8.48 8.48 0 0 1-3.099 11.567l-2.42 1.397c-.228.088-.45.194-.668.32L318.913 27.43a4.78 4.78 0 0 0-.612.418l-2.42 1.396a8.41 8.41 0 0 1-6.426.847zm20.456-17.628c.572-1.992 1.024-3.566 3.208-4.826s3.77-.865 5.783-.365c2.172.54 4.633 1.153 7.738-.64s3.805-4.23 4.423-6.38c.572-1.992 1.024-3.565 3.207-4.826s3.77-.865 5.782-.364c2.17.54 4.632 1.152 7.737-.64s3.805-4.23 4.423-6.38c.572-1.992 1.024-3.566 3.207-4.826s3.77-.865 5.783-.365c2.17.54 4.633 1.153 7.737-.64a1.32 1.32 0 0 0 .483-1.801 1.32 1.32 0 0 0-1.801-.483c-2.182 1.26-3.77.865-5.783.365-2.17-.54-4.632-1.152-7.737.64s-3.805 4.23-4.423 6.38c-.572 1.992-1.024 3.565-3.207 4.826s-3.77.865-5.782.364c-2.17-.54-4.632-1.152-7.737.64s-3.805 4.23-4.423 6.38c-.572 1.992-1.024 3.566-3.207 4.826s-3.772.865-5.783.365c-2.17-.54-4.632-1.152-7.737.64s-3.805 4.23-4.423 6.38c-.572 2-1.024 3.565-3.207 4.825s-3.772.865-5.783.365c-2.17-.54-4.632-1.152-7.737.64a1.32 1.32 0 0 0-.483 1.801 1.31 1.31 0 0 0 .8.614c.326.087.685.05 1-.13 2.183-1.26 3.772-.865 5.783-.365 2.172.54 4.633 1.152 7.738-.64s3.806-4.23 4.423-6.38zm0 0" id="A" class="B"/><g id="B" class="B"><path d="M92.8 346.543c-.045-.3-.237-.513-.406-.7-.113-.13-.22-.255-.255-.365s-.022-.282-.005-.46c.023-.257.05-.548-.08-.805s-.38-.412-.6-.544c-.148-.1-.288-.173-.356-.268s-.107-.267-.143-.43c-.056-.252-.12-.538-.322-.744s-.486-.272-.736-.33c-.17-.04-.328-.075-.42-.145s-.18-.218-.264-.363c-.13-.224-.278-.477-.535-.6s-.545-.106-.8-.082c-.173.016-.336.032-.446-.005s-.233-.15-.356-.258c-.193-.173-.413-.37-.702-.415-.282-.045-.546.07-.78.173-.154.067-.313.137-.432.137s-.278-.07-.432-.137c-.233-.102-.497-.218-.78-.173-.3.046-.5.242-.702.415-.123.1-.25.223-.356.258s-.274.02-.446.005c-.254-.024-.543-.05-.8.082s-.406.388-.536.612c-.084.144-.17.294-.263.362s-.253.106-.42.144c-.25.057-.532.122-.736.33s-.266.492-.322.744c-.037.165-.074.336-.143.432s-.208.18-.356.268c-.22.132-.47.283-.6.544s-.103.548-.08.805c.016.177.03.344-.005.46-.035.1-.142.234-.255.365-.17.196-.36.418-.406.7-.034.217.025.424.1.615a.29.29 0 0 0-.035.193l1.897 11.433a1.45 1.45 0 0 0 1.44 1.214h8.487a1.45 1.45 0 0 0 1.435-1.216l1.897-11.433a.3.3 0 0 0-.035-.193c.074-.2.133-.398.1-.615zm-14.704.1c.02-.125.142-.267.27-.416.147-.17.298-.345.37-.57s.05-.473.03-.7c-.017-.188-.035-.382.02-.5s.213-.205.38-.305c.184-.1.392-.236.53-.43s.192-.433.238-.645c.04-.184.083-.375.168-.46s.27-.128.45-.17c.2-.048.446-.102.638-.244s.307-.342.42-.538c.095-.163.193-.33.3-.387s.292-.036.475-.02c.214.02.457.043.684-.032.222-.073.395-.228.562-.377.14-.125.285-.255.405-.274.112-.018.285.058.452.13.2.087.425.186.666.186s.467-.1.666-.186c.167-.073.34-.15.452-.13.12.02.265.15.405.274.167.15.34.304.562.378s.47.052.684.032c.183-.017.372-.035.475.02s.205.224.3.386c.114.196.232.398.42.538s.428.196.638.244c.18.04.366.084.45.17s.127.277.168.46c.047.212.1.452.24.645s.346.318.53.428c.167.1.325.196.38.306s.037.303.02.5c-.02.217-.042.462.03.7s.223.4.37.57c.13.15.252.3.27.417.015.098-.034.237-.093.38h-1a1.95 1.95 0 0 0-1.753 1.093c-.798 1.666-2.5 2.715-4.314 2.67-.858-.02-1.695-.282-2.42-.758-.72-.47-1.296-1.13-1.668-1.902a1.96 1.96 0 0 0-1.758-1.105H78.2c-.06-.142-.108-.28-.093-.38zm12.166 12.056a.87.87 0 0 1-.859.728h-8.487a.87.87 0 0 1-.859-.728l-1.84-11.093h1c.522 0 1.006.304 1.232.775.418.87 1.066 1.608 1.874 2.137a5.2 5.2 0 0 0 2.727.853h.122c2.006 0 3.854-1.17 4.733-3.004a1.36 1.36 0 0 1 1.226-.762h.963zm-5.132-5.815c-1.18 0-2.14.96-2.14 2.14s.96 2.14 2.14 2.14 2.14-.96 2.14-2.14-.96-2.14-2.14-2.14zm0 3.697a1.56 1.56 0 0 1-1.557-1.557 1.56 1.56 0 0 1 1.557-1.557 1.56 1.56 0 0 1 1.557 1.557 1.56 1.56 0 0 1-1.557 1.557zm2.303-11.1c.16 0 .292-.13.292-.292 0-.35.284-.634.634-.634.23 0 .44.124.553.324a.58.58 0 0 0 .554.286l.067-.004c.35 0 .634.284.634.634 0 .16.13.292.292.292a.29.29 0 0 0 .292-.292 1.22 1.22 0 0 0-1.218-1.218l-.118.006a1.22 1.22 0 0 0-2.274.605c0 .16.13.292.292.292zm-7.135.925a.29.29 0 0 0 .19.07c.082 0 .164-.035.222-.102.105-.123.1-.307-.032-.412-.266-.227-.297-.628-.07-.893a.61.61 0 0 1 .606-.2c.226.054.45-.048.577-.235l.04-.053c.2-.244.563-.3.826-.12-.213.217-.364.488-.44.8-.1.446-.038.907.2 1.3.055.1.15.14.25.14a.29.29 0 0 0 .249-.442c-.157-.26-.204-.563-.132-.857a1.13 1.13 0 0 1 .513-.7 1.12 1.12 0 0 1 .857-.132 1.13 1.13 0 0 1 .7.513.29.29 0 0 0 .4.098c.137-.084.182-.263.098-.4a1.71 1.71 0 0 0-1.06-.778 1.7 1.7 0 0 0-1.15.118.29.29 0 0 0-.042-.044 1.22 1.22 0 0 0-1.716.134l-.072.093a1.22 1.22 0 0 0-1.018 2.121zm0 0"/><path d="M84.974 348.615l-.117-.01a1.22 1.22 0 0 0-.959-.756 1.21 1.21 0 0 0-1.378 1.032c-.023.16.088.307.248.33a.29.29 0 0 0 .33-.248c.05-.346.37-.587.717-.537.227.033.42.186.502.4a.56.56 0 0 0 .508.362l.067.006c.346.05.587.37.537.717-.023.16.088.307.248.33a.3.3 0 0 0 .042.003c.143 0 .268-.105.3-.25a1.22 1.22 0 0 0-1.033-1.378zm.306-5.635a.29.29 0 0 0 .388-.14c.14-.296.494-.423.8-.284a.59.59 0 0 1 .284.789.29.29 0 0 0 .264.416.29.29 0 0 0 .264-.168 1.17 1.17 0 0 0-.562-1.566 1.18 1.18 0 0 0-1.566.562c-.07.146-.006.32.14.4zm0 0"/><path d="M88.027 347.082a1.17 1.17 0 0 0-.709-.145 1.17 1.17 0 0 0-1.071-.953 1.18 1.18 0 0 0-1.259 1.089c-.012.16.11.3.27.312s.3-.11.312-.27c.024-.326.308-.572.634-.55a.59.59 0 0 1 .55.591 1.18 1.18 0 0 0-.439 1.265c.036.13.153.214.28.214.026 0 .052-.004.078-.01.155-.043.246-.204.203-.36-.088-.315.097-.643.412-.73s.643.097.73.412c.043.155.204.246.36.203s.246-.204.203-.36a1.17 1.17 0 0 0-.555-.709zm0 0"/></g><path d="M173.816 356.35l-3.073-18.946c-.052-.32-.353-.537-.673-.485s-.536.353-.485.672l.54 3.32h-11.385l1.123-6.924a3.34 3.34 0 0 1 3.312-2.818h2.516a3.34 3.34 0 0 1 3.312 2.818l.22 1.362c.052.32.353.536.673.485s.536-.353.485-.673l-.22-1.362a4.51 4.51 0 0 0-4.469-3.802h-2.516a4.51 4.51 0 0 0-4.469 3.802l-3.658 22.55a3.59 3.59 0 0 0 3.549 4.171h2.874v6.516c0 1.633 1.328 2.96 2.96 2.96s2.96-1.328 2.96-2.96v-6.516h2.874a3.59 3.59 0 0 0 3.549-4.171zm-7.596 10.688a1.79 1.79 0 0 1-1.789 1.789 1.79 1.79 0 0 1-1.788-1.789v-6.516h3.577zm5.892-8.542a2.42 2.42 0 0 1-1.846.853h-11.67a2.42 2.42 0 0 1-2.392-2.812l2.344-14.453h11.766l1.366 8.422h-12.553c-.324 0-.586.262-.586.586s.262.586.586.586h12.743l.788 4.86a2.42 2.42 0 0 1-.547 1.959zm0 0" id="C" class="B"/><g id="D" class="B"><path d="M288.396 234.256a1.2 1.2 0 0 0-1.688.169l-3.67 4.484a11.94 11.94 0 0 0-15.994 2.248 11.81 11.81 0 0 0-2.635 8.717 11.9 11.9 0 0 0 1.032 3.802c-4.293-1-9 .407-11.966 4.04a11.81 11.81 0 0 0-2.634 8.718 11.89 11.89 0 0 0 1.032 3.8c-4.293-1-9 .408-11.966 4.04a11.81 11.81 0 0 0-2.635 8.718 11.9 11.9 0 0 0 1.033 3.801c-4.293-1-9 .408-11.966 4.04a11.91 11.91 0 0 0-2.484 5.299 1.2 1.2 0 0 0 .953 1.402 1.2 1.2 0 0 0 1.402-.953 9.51 9.51 0 0 1 1.983-4.229 9.54 9.54 0 0 1 13.388-1.34c1.966 1.606 3.187 3.88 3.44 6.404s-.495 4.996-2.104 6.96a9.54 9.54 0 0 1-13.388 1.34 9.44 9.44 0 0 1-3.086-4.616 1.2 1.2 0 0 0-1.493-.805 1.2 1.2 0 0 0-.805 1.493 11.8 11.8 0 0 0 3.194 5.193l-11.797 14.42a1.2 1.2 0 0 0 .169 1.687 1.24 1.24 0 0 0 .88.265c.306-.03.6-.177.8-.434l11.84-14.47a11.9 11.9 0 0 0 7.5 1.747c3.035-.304 5.955-1.76 8.034-4.3a11.81 11.81 0 0 0 2.635-8.717 11.89 11.89 0 0 0-1.033-3.802c1.294.304 2.624.4 3.933.258a11.88 11.88 0 0 0 8.034-4.299 1.2 1.2 0 0 0-.167-1.687 1.2 1.2 0 0 0-1.687.168c-3.323 4.054-9.328 4.655-13.388 1.338-1.966-1.606-3.187-3.88-3.44-6.404s.494-4.995 2.104-6.96a9.54 9.54 0 0 1 13.388-1.34 9.52 9.52 0 0 1 3.18 9.75 1.2 1.2 0 0 0 .857 1.463 1.2 1.2 0 0 0 1.463-.857c.707-2.7.414-5.536-.72-7.994a11.98 11.98 0 0 0 3.945.261 11.88 11.88 0 0 0 8.034-4.298 11.81 11.81 0 0 0 2.635-8.718 11.9 11.9 0 0 0-1.033-3.801 11.99 11.99 0 0 0 3.932.258 11.88 11.88 0 0 0 8.034-4.298 11.81 11.81 0 0 0 2.635-8.718 11.79 11.79 0 0 0-3.248-7.04l3.698-4.52a1.2 1.2 0 0 0-.169-1.688zm-18.34 37.004a9.54 9.54 0 0 1-13.388 1.34c-1.966-1.605-3.187-3.88-3.44-6.404s.494-4.995 2.104-6.96c1.66-2.028 3.993-3.2 6.417-3.434a9.49 9.49 0 0 1 6.97 2.095c1.966 1.606 3.187 3.88 3.44 6.404s-.495 4.996-2.104 6.96zm13.568-16.56a9.54 9.54 0 0 1-13.388 1.34c-1.966-1.606-3.187-3.88-3.44-6.404s.494-4.995 2.104-6.96a9.49 9.49 0 0 1 6.417-3.434c2.424-.242 4.94.437 6.97 2.095 1.966 1.606 3.187 3.88 3.44 6.404s-.495 4.996-2.104 6.96zm-43.127 41.505c.502-.613.412-1.517-.202-2.02a1.44 1.44 0 0 0-2.022.202c-.502.613-.412 1.517.202 2.02a1.44 1.44 0 0 0 2.022-.202zm0 0"/><path d="M243.204 281.277c-.502.613-.412 1.517.202 2.02a1.44 1.44 0 0 0 2.022-.202 1.43 1.43 0 0 0-.202-2.019 1.44 1.44 0 0 0-2.022.202zm2.428-4.65c-.502.613-.412 1.517.202 2.018a1.44 1.44 0 0 0 2.022-.202c.502-.613.412-1.517-.202-2.018a1.44 1.44 0 0 0-2.022.202zm13.478-8.34c-.502.613-.412 1.517.202 2.02a1.44 1.44 0 0 0 2.022-.202c.502-.613.412-1.517-.202-2.02a1.44 1.44 0 0 0-2.022.202zm5.485.06c-.502.613-.412 1.517.202 2.02a1.44 1.44 0 0 0 2.022-.202c.502-.613.412-1.517-.202-2.02a1.44 1.44 0 0 0-2.022.202zm0 0"/><path d="M271.8 244.366a1.43 1.43 0 0 0 .202 2.019 1.44 1.44 0 0 0 2.021-.202 1.43 1.43 0 0 0-.202-2.019 1.44 1.44 0 0 0-2.021.202zm5.366-1.146a1.43 1.43 0 0 0 .202 2.019 1.44 1.44 0 0 0 2.021-.202 1.43 1.43 0 0 0-.202-2.019 1.44 1.44 0 0 0-2.021.202zm-38.576 58.8a1.44 1.44 0 0 0 2.022-.202c.502-.613.412-1.517-.202-2.02a1.44 1.44 0 0 0-2.022.202c-.502.613-.412 1.517.202 2.02zm0 0"/></g><path d="M86.804 81.508h-.084c.3-1.025-.08-2.143-.172-2.385-.402-1.046-1.178-1.682-1.765-2.034.393-1.167-.05-2.4-.105-2.532a3.93 3.93 0 0 0-1.35-1.764c-.214-.16-.42-.287-.607-.386.138-.692.226-1.634-.2-2.63-.527-1.2-1.524-1.848-2.268-2.18-.317-.142-.686-.124-.988.046a1.07 1.07 0 0 0-.542.811c-.118.977-.44 1.747-.957 2.287-.77.805-1.776.956-2.94 1.13-1.3.196-2.793.418-3.92 1.747-.27.32-1.097 1.3-1.03 2.662a3.38 3.38 0 0 0 .359 1.347c-.374.214-.706.462-1 .753-.577.568-.923 1.2-1 1.86-.05.42.007.85.16 1.274a.98.98 0 0 0-.884.974v2.1a.98.98 0 0 0 .937.977l1.7 19.063c.145 1.633 1.5 2.865 3.13 2.865h8.767c1.64 0 2.985-1.23 3.13-2.865l1.7-19.063a.98.98 0 0 0 .938-.977v-2.1a.98.98 0 0 0-.979-.979zm-1.353-1.964c.165.43.36 1.304.047 1.857a1 1 0 0 1-.072.107H71.113c1.023-.802 2.473-.915 3.672-1.007l.246-.02c3.545-.286 7.527-.608 9.15-2.385.428.256.988.7 1.27 1.448zm-16.06.83c.045-.38.27-.78.656-1.158.338-.333.745-.598 1.244-.8.827-.354 1.82-.53 2.874-.714 1.4-.244 2.964-.522 4.5-1.28a.59.59 0 0 0 .265-.788.59.59 0 0 0-.788-.265c-1.373.683-2.794.933-4.17 1.175-.94.165-1.837.324-2.663.6a2.24 2.24 0 0 1-.26-.922c-.044-.9.535-1.6.753-1.846.84-.992 1.986-1.163 3.198-1.345 1.263-.2 2.57-.385 3.616-1.48.674-.704 1.096-1.66 1.26-2.838.54.26 1.217.728 1.57 1.533.363.828.2 1.626.067 2.235a10.92 10.92 0 0 1-1.51 1.625.59.59 0 0 0-.057.83c.213.246.584.27.83.057a11.96 11.96 0 0 0 1.457-1.524c.124.068.26.154.4.26.45.337.772.755.958 1.244.017.044.407 1.08.027 1.897a1.48 1.48 0 0 1-.093.168c-1.033 1.66-5.216 2-8.583 2.27l-.237.018c-1.53.118-3.624.28-4.948 1.877l-.03.036-.1.143c-.15-.3-.26-.64-.216-1zm14.594 24.157a1.96 1.96 0 0 1-1.96 1.794h-8.767c-1.027 0-1.87-.77-1.96-1.794l-1.68-18.957h1.817a.59.59 0 0 0 .588-.587.59.59 0 0 0-.588-.587h-2.76v-1.717h17.933V84.4H73.77a.59.59 0 0 0-.588.587.59.59 0 0 0 .588.587h11.896zm-2.965-12.61l-.1-.096c-1.508-1.508-4.2-1.26-6.023.553-1.782 1.782-2.05 4.42-.63 5.942l.022.023.054.058c.663.663 1.558.987 2.505.987 1.207 0 2.502-.525 3.517-1.54 1.774-1.774 2.05-4.398.648-5.923zm-5.282 1.3c.8-.8 1.783-1.203 2.683-1.203a2.69 2.69 0 0 1 .62.07c-.745.27-1.294.682-1.638 1.237-.297.48-.347.917-.392 1.303-.033.285-.063.555-.192.868-.282.7-.925 1.273-1.912 1.742-.7-1.094-.388-2.8.83-4.018zm3.807 3.808c-1.1 1.1-2.57 1.463-3.652 1.02.994-.564 1.67-1.27 2.013-2.107.2-.463.236-.86.273-1.18.038-.327.065-.563.223-.82.3-.5.966-.826 1.95-.97.742 1.093.426 2.822-.807 4.055zm0 0" id="E" class="B"/><g id="F" class="B"><path d="M265.7 86.215c0-2.166-1.388-4.165-3.537-5.094l-1.606-.765c-.46-.242-1.03-.064-1.273.397s-.064 1.032.397 1.274l1.734.826c1.48.64 2.4 1.928 2.4 3.363 0 2.07-1.934 3.753-4.3 3.753-2.067 0-3.848-1.282-4.234-3.05-.095-.433-.478-.742-.92-.742a.94.94 0 0 0-.92.742c-.386 1.767-2.167 3.05-4.234 3.05-2.082 0-3.865-1.293-4.24-3.074-.092-.437-.477-.75-.923-.75h-.13c-.446 0-.83.312-.923.75-.374 1.782-2.157 3.074-4.24 3.074-1.993 0-3.76-1.228-4.202-2.92-.1-.415-.483-.705-.912-.705h-.226c-.43 0-.804.3-.912.705-.442 1.692-2.2 2.92-4.202 2.92-2.056 0-3.835-1.274-4.23-3.03-.097-.43-.48-.736-.92-.736h-.157c-.44 0-.823.306-.92.736a3.22 3.22 0 0 1-.313.842c-.244.46-.068 1.03.392 1.275a.94.94 0 0 0 .816.032c1.093 1.672 3.103 2.766 5.33 2.766 2.174 0 4.118-1.012 5.228-2.602 1.1 1.6 3.054 2.602 5.228 2.602 2.168 0 4.117-1.025 5.228-2.6 1.1 1.584 3.06 2.6 5.228 2.6 2.117 0 4.032-.983 5.155-2.5 1.124 1.527 3.04 2.5 5.156 2.5a6.78 6.78 0 0 0 1.504-.168c-.35 1.898-1.276 3.64-2.685 5-1.758 1.708-4.077 2.65-6.53 2.65H215.22a9.32 9.32 0 0 1-6.53-2.65c-1.4-1.37-2.336-3.112-2.685-5a6.78 6.78 0 0 0 1.504.168c2.117 0 4.032-.983 5.155-2.5 1.124 1.527 3.04 2.5 5.156 2.5.54 0 1.077-.063 1.594-.188.506-.122.818-.632.696-1.138s-.632-.818-1.138-.696a4.92 4.92 0 0 1-1.152.136c-2.067 0-3.848-1.282-4.234-3.05-.095-.433-.478-.742-.92-.742s-.827.3-.92.742c-.386 1.767-2.167 3.05-4.234 3.05-2.377 0-4.3-1.683-4.3-3.753 0-1.3.863-2.542 2.252-3.27a7.17 7.17 0 0 0 1.385-.935 72.03 72.03 0 0 1 6.651-5.143c8.26-5.654 13.338-6.763 19.32-6.77h.05c6.087 0 10.993 1.088 19.4 6.772 1.487 1.007 2.952 2.077 4.353 3.18.4.322 1.002.252 1.324-.157s.252-1.002-.157-1.325c-1.437-1.132-2.938-2.23-4.463-3.26-8.78-5.943-14.162-7.1-20.5-7.096-6.35.006-11.72 1.17-20.382 7.1a73.88 73.88 0 0 0-6.825 5.278c-.3.25-.632.482-1.02.686-2.013 1.054-3.263 2.947-3.263 4.94 0 1.923 1.064 3.624 2.684 4.642a11.19 11.19 0 0 0 3.38 7.191 11.2 11.2 0 0 0 7.843 3.182h36.567a11.2 11.2 0 0 0 7.843-3.182 11.19 11.19 0 0 0 3.38-7.191c1.62-1.018 2.684-2.72 2.684-4.642zm-33.166-11.672c-.518 0-.94.42-.943.938l-.012 2.084c-.003.52.417.946.938.95h.005c.518 0 .94-.42.943-.938l.012-2.083c.003-.52-.417-.946-.938-.95zm0 0"/><path d="M227.645 75.182l-.898 1.88c-.224.47-.026 1.033.445 1.257a.93.93 0 0 0 .406.092c.352 0 .7-.198.852-.537l.898-1.88c.224-.47.026-1.033-.445-1.257s-1.033-.026-1.258.445zm8.56-.477c-.478.206-.7.76-.494 1.24l.823 1.914c.154.357.502.57.867.57.124 0 .25-.025.372-.077.478-.206.7-.76.494-1.24l-.823-1.914c-.206-.478-.76-.7-1.24-.494zm0 0"/><path d="M222.892 75.123l-1.417 1.528c-.354.382-.332.978.05 1.333a.94.94 0 0 0 1.333-.05l1.417-1.527c.354-.382.332-.978-.05-1.333s-.978-.332-1.333.05zm17.918-.05c-.382.355-.404.95-.05 1.333l1.417 1.527a.94.94 0 0 0 1.333.05c.382-.354.404-.95.05-1.333l-1.417-1.528c-.354-.382-.95-.404-1.333-.05zm0 0"/></g><g id="G" class="B"><path d="M361 154.96c-.308-.345-.836-.374-1.18-.067s-.375.836-.067 1.18a26.6 26.6 0 0 1 6.455 13.709c.52 3.37.393 6.74-.34 9.97-.388-.122-.777-.16-1.17-.118l-.038.005c-2.3.354-3.256 1.83-4.1 3.13-.778 1.2-1.392 2.148-2.95 2.388s-2.43-.48-3.532-1.4c-1.196-.988-2.552-2.108-4.852-1.754s-3.256 1.83-4.1 3.13c-.778 1.2-1.392 2.148-2.95 2.388s-2.43-.48-3.532-1.4c-1.196-.988-2.55-2.108-4.85-1.754-1.908.294-2.9 1.383-3.62 2.4-.265.378-.173.9.205 1.164s.9.173 1.164-.205c.645-.922 1.3-1.53 2.504-1.717 1.56-.24 2.43.48 3.532 1.4 1.196.988 2.552 2.108 4.85 1.754s3.256-1.83 4.1-3.13c.778-1.2 1.392-2.148 2.95-2.388s2.43.48 3.533 1.4c1.196.988 2.552 2.108 4.852 1.754s3.256-1.83 4.1-3.13c.774-1.195 1.387-2.14 2.93-2.385.156-.014.315.002.463.048a1.28 1.28 0 0 1 .09.033 26.73 26.73 0 0 1-4.099 8.258 26.53 26.53 0 0 1-17.475 10.602 26.52 26.52 0 0 1-19.853-4.86c-2.46-1.804-4.556-3.973-6.235-6.415a1.23 1.23 0 0 1 .261-.289c.207-.166.426-.232.574-.26 1.554-.236 2.424.482 3.525 1.392 1.196.988 2.55 2.108 4.85 1.754.97-.15 1.78-.513 2.482-1.112a.84.84 0 0 0 .092-1.18c-.3-.352-.828-.392-1.18-.092-.463.396-.986.628-1.648.73-1.56.24-2.43-.48-3.532-1.4-1.196-.988-2.552-2.108-4.852-1.754a2.96 2.96 0 0 0-1.359.606l-.15.13c-1.73-2.908-2.9-6.15-3.43-9.596a26.52 26.52 0 0 1 4.86-19.853 26.53 26.53 0 0 1 17.474-10.602c7.8-1.2 15.67 1.087 21.62 6.272.348.304.877.267 1.18-.08a.84.84 0 0 0-.08-1.18 28.33 28.33 0 0 0-22.972-6.664 28.19 28.19 0 0 0-23.732 32.362 28.19 28.19 0 0 0 32.362 23.732 28.19 28.19 0 0 0 23.732-32.362A28.27 28.27 0 0 0 361 154.96zm-19.732 28.342c5.216-.802 8.806-5.698 8.003-10.914s-5.698-8.806-10.914-8.003-8.806 5.698-8.003 10.914 5.698 8.806 10.914 8.003zm-2.656-17.264a7.91 7.91 0 0 1 9.007 6.605 7.91 7.91 0 0 1-6.605 9.007 7.91 7.91 0 0 1-9.007-6.605 7.91 7.91 0 0 1 6.605-9.007zm-12.25 7.302l-1.664-.806c-.416-.202-.916-.028-1.117.388s-.027.915.388 1.117l1.663.806a.83.83 0 0 0 .491.074c.263-.04.502-.205.626-.462a.84.84 0 0 0-.388-1.117zm-.18-8.66l.08-.016a.84.84 0 0 0 .605-1.016l-.455-1.792c-.114-.447-.568-.718-1.016-.605s-.72.57-.605 1.016l.455 1.792c.107.42.516.686.936.62zm0 0"/><path d="M326.43 156.447l.03-.005 1.815-.348c.454-.087.75-.525.664-.978a.84.84 0 0 0-.978-.664l-1.816.347c-.454.087-.75.525-.664.98a.84.84 0 0 0 .948.67zm11.304-2.6c.245-.038.47-.183.602-.416l.907-1.6a.84.84 0 0 0-.32-1.14c-.404-.228-.912-.084-1.14.32l-.907 1.6a.84.84 0 0 0 .318 1.14.83.83 0 0 0 .537.098zm-.9 7.978c.212-.033.4-.146.547-.332a.84.84 0 0 0-.18-1.17l-1.5-1.093a.84.84 0 0 0-1.17.18c-.274.373-.193.895.18 1.168l1.5 1.093c.186.137.4.185.62.152zm-17.75 8.65l1.344-1.27c.336-.317.35-.846.034-1.182s-.846-.35-1.182-.034l-1.344 1.27c-.336.317-.35.846-.034 1.182.196.208.474.293.736.253a.84.84 0 0 0 .446-.218zm7.486 11.427l-1.197 1.4a.84.84 0 0 0 .096 1.18c.192.164.437.225.67.2.192-.03.374-.125.5-.285l1.197-1.4c.3-.352.256-.88-.096-1.18s-.88-.256-1.18.096zm-8.228-3.807l-1.442 1.157a.84.84 0 0 0-.13 1.176c.194.242.495.347.78.303a.83.83 0 0 0 .396-.174l1.442-1.157c.36-.3.418-.815.13-1.175a.84.84 0 0 0-1.176-.13zm34.244-7.082a.84.84 0 0 0 .75.267c.156-.024.306-.092.432-.205.343-.3.37-.838.06-1.18L352.6 168.5c-.3-.343-.838-.37-1.18-.06s-.37.838-.06 1.18zm-1.9-8.673l1-1.548c.252-.387.143-.905-.243-1.157s-.905-.143-1.157.243l-1 1.548c-.252.387-.143.905.243 1.157.18.117.387.156.584.126.226-.035.438-.162.573-.37zm-3.62-6.94c-.053-.46-.468-.787-.927-.734l-1.836.214c-.46.054-.787.47-.733.928s.468.787.927.734l1.867-.218c.443-.068.755-.475.703-.923zm10.108 4.2a.84.84 0 0 0 .388 1.117l1.663.806a.83.83 0 0 0 .491.074c.263-.04.502-.205.626-.462a.84.84 0 0 0-.388-1.117l-1.664-.806c-.415-.202-.916-.028-1.117.388zm3.038 12.208a.84.84 0 0 0 .78.303.83.83 0 0 0 .396-.174l1.442-1.157a.84.84 0 0 0 .13-1.176c-.288-.36-.816-.418-1.176-.13l-1.442 1.157a.84.84 0 0 0-.13 1.176zm-3.456 6.8c-.43-.168-.915.046-1.082.476s.046.915.476 1.082l1.723.67a.83.83 0 0 0 .43.047.84.84 0 0 0 .653-.523c.167-.43-.046-.915-.476-1.082zm0 0"/></g><g id="H" class="B"><path d="M144.705 164.166c.13.487-.158.987-.645 1.118s-.987-.158-1.118-.645.158-.987.645-1.118.987.158 1.118.645zm15.72-3.266c.13.486-.16.987-.646 1.117s-.987-.158-1.118-.645.158-.987.645-1.118.987.158 1.118.645zm3.774 11.487c.13.487-.158.987-.645 1.118s-.987-.158-1.118-.645.158-.987.645-1.118.987.16 1.117.646zm2.5-7.24c.13.486-.16.987-.646 1.118s-.987-.16-1.118-.645.16-.987.645-1.118.988.158 1.118.645zm0 0"/><path d="M152.662 169.427c.13.486-.158.987-.645 1.118s-.987-.16-1.117-.646.158-.987.645-1.118.987.158 1.118.645zm20.618 5.273l-.066-.005-6.678-24.92a1.02 1.02 0 0 0-1.25-.722l-.547.157-.008-.024c-.1-.335-.03-.48.118-.827.192-.453.482-1.138.2-2.15-.235-.877-1.022-1.3-1.596-1.626-.2-.1-.505-.278-.575-.366-.08-.102-.168-.458-.227-.693-.165-.66-.37-1.48-1.133-1.92s-1.576-.208-2.23-.022c-.234.067-.586.166-.714.15-.113-.017-.4-.196-.604-.315-.56-.34-1.328-.805-2.207-.57-1.186.318-1.728.852-2.163 1.28-.357.352-.593.585-1.26.763s-.986.095-1.472-.03c-.592-.154-1.328-.346-2.515-.028s-1.727.852-2.162 1.28c-.357.352-.594.585-1.26.763s-.985.095-1.47-.032a4.36 4.36 0 0 0-2.515-.028c-.877.235-1.3 1.02-1.625 1.595-.1.2-.277.505-.367.577-.103.08-.457.168-.693.228-.66.166-1.48.372-1.918 1.134s-.2 1.575-.023 2.228c.066.233.166.586.15.713-.017.113-.197.4-.315.605-.34.56-.805 1.33-.57 2.206.27 1.012.865 1.46 1.258 1.755.3.226.425.32.514.652l.008.035-.618.153a1.02 1.02 0 0 0-.722 1.25l3.904 14.57c-.143.1-.273.2-.383.332-.326.394-.442.923-.3 1.418l9.712 36.246a4.48 4.48 0 0 0 5.476 3.162l24.027-6.438a4.48 4.48 0 0 0 3.162-5.476l-6.938-25.892a1.58 1.58 0 0 0-1.409-1.167zm-12.94-.967l-1.086-4.052a18.34 18.34 0 0 0-4.67-8.154 16.44 16.44 0 0 1 1.086-2.487 16.35 16.35 0 0 1 1.126-1.797l.026-.037a16.25 16.25 0 0 1 4.322-4.111 16.4 16.4 0 0 1 3.335-1.654l.184-.065.012-.004.16-.054 6.22 23.215zm-12.328-19.474l-.24.138a2.72 2.72 0 0 0-1.277 1.661c-.06.222-.088.447-.1.67-1.226-.34-2.48-.55-3.75-.63l-.7-2.648c-.1-.37.12-.753.492-.852l4.117-1.103c.37-.1.752.12.852.492zm.793 3.324l-.27-.466a.69.69 0 0 1 .256-.951l3.7-2.128c.203-.117.45-.124.662-.018a.69.69 0 0 1 .288.273l1.328 2.304-.9 1.476a18.44 18.44 0 0 0-.925 1.991 18.37 18.37 0 0 0-4.142-2.48zm7.294-2.754l-.897-1.556a2.78 2.78 0 0 0-.235-.344c.42-.464.962-.798 1.583-.964a3.28 3.28 0 0 1 2.326.237c-1.015.777-1.944 1.656-2.776 2.628zm-18.188-1.876c.245-.405.523-.863.593-1.395.072-.547-.077-1.075-.2-1.54l-.15-.635c.144-.067.438-.14.625-.188.47-.118 1-.252 1.438-.588.427-.327.685-.798.913-1.213.1-.198.3-.526.394-.614.646-.168.964-.085 1.442.04.592.154 1.327.346 2.513.028s1.73-.852 2.165-1.282c.357-.352.593-.585 1.258-.763s.986-.095 1.472.032c.592.154 1.328.345 2.515.027s1.73-.852 2.164-1.28c.352-.346.586-.577 1.228-.754.135.024.455.217.65.335.405.245.863.523 1.395.593.547.072 1.076-.078 1.54-.2l.636-.15c.067.144.14.437.188.624.117.47.25 1 .6 1.44.327.424.796.682 1.2.9.2.1.527.3.616.395.08.314.017.46-.126.796l-.076.182c-1.95-1.45-4.442-2.113-6.902-1.743a1.021 1.021 0 1 0 .304 2.019c2.27-.342 4.57.445 6.17 2.04a18.4 18.4 0 0 0-1.75.906 5.31 5.31 0 0 0-4.691-.973c-1.146.307-2.157.994-2.868 1.93a2.73 2.73 0 0 0-1.689.346l-.923.532a7.27 7.27 0 0 1 2.247-3.23 1.021 1.021 0 0 0-1.294-1.579 9.27 9.27 0 0 0-2.346 2.896 2.74 2.74 0 0 0-3.125-1.362l-4.117 1.103a2.74 2.74 0 0 0-1.936 3.352l.566 2.112-1.147.1-.05-.212c-.27-1.013-.866-1.46-1.26-1.756-.3-.22-.417-.313-.505-.62.025-.136.218-.455.336-.65zm41.74 49.334a2.43 2.43 0 0 1-1.718 2.975L153.9 211.7c-1.294.347-2.63-.424-2.976-1.718l-9.544-35.62 2.56.2a1.021 1.021 0 1 0 .152-2.036l-2.086-.156-3.732-13.93.232-.046a16.28 16.28 0 0 1 3.33-.278 16.19 16.19 0 0 1 5.858 1.217 16.35 16.35 0 0 1 5.017 3.23 16.29 16.29 0 0 1 4.564 7.652l.9 3.362-10.12-.756a1.021 1.021 0 0 0-.152 2.036l24.9 1.86zm-16.606-4.55c3.198-.857 5.104-4.156 4.247-7.355s-4.157-5.104-7.355-4.247-5.104 4.157-4.247 7.355 4.156 5.104 7.355 4.247zm-2.58-9.63a3.97 3.97 0 0 1 4.855 2.803 3.97 3.97 0 0 1-2.803 4.855 3.97 3.97 0 0 1-4.855-2.803 3.97 3.97 0 0 1 2.803-4.855zm0 0"/></g><path d="M100.35 255.127c-.153-.18-.36-.304-.587-.355-.308-1.582-1.182-3-2.46-3.987-2.487-1.9-5.896-1.723-8.152.346-.53-.222-1.096-.33-1.664-.32-.017-.242.044-.5.18-.702.6-.952.782-2.127.468-3.223a4.05 4.05 0 0 0-1.325-2.016l.518-.997a2.19 2.19 0 0 0 .374.033 2.28 2.28 0 0 0 .595-.08 2.22 2.22 0 0 0 1.032-.62c.864.092 1.716-.327 2.165-1.117.295-.518.37-1.12.212-1.694s-.53-1.054-1.048-1.348a2.22 2.22 0 0 0-1.297-.284c-.193-.4-.505-.74-.907-.97-1.07-.608-2.435-.233-3.043.836-.45.8-.374 1.737.146 2.432a2.22 2.22 0 0 0-.005 1.204 2.19 2.19 0 0 0 .487.892l-.516 1a4.05 4.05 0 0 0-2.363-.091 3.96 3.96 0 0 0-2.531 2.05 1.14 1.14 0 0 1-.764.605l-.276.066a6.34 6.34 0 0 0-3.239 2.034 4.1 4.1 0 0 0-2.841-1.198 3.95 3.95 0 0 0-2.984 1.306 1.13 1.13 0 0 1-.893.38l-.288-.01c-3.322-.032-6.04 2.414-6.392 5.657-.07.05-.137.1-.195.178a1.07 1.07 0 0 0-.24.874l.832 5.015c.066.4.446.672.846.606s.672-.446.606-.846l-.756-4.557h2.546c1.317 0 2.537.767 3.107 1.953a13.38 13.38 0 0 0 4.726 5.389c2.06 1.35 4.438 2.094 6.876 2.15l.307.004c5.058 0 9.72-2.948 11.935-7.576.558-1.167 1.772-1.92 3.093-1.92h2.428L94.42 284.2a2.19 2.19 0 0 1-2.166 1.836H70.85a2.19 2.19 0 0 1-2.166-1.836L65.4 264.46c-.067-.4-.446-.673-.847-.606s-.672.446-.605.846l3.274 19.732c.295 1.778 1.817 3.067 3.618 3.067h21.402c1.802 0 3.323-1.3 3.618-3.067L100.6 256a1.08 1.08 0 0 0-.24-.874zm-13.66-15.77a.76.76 0 0 1 1.417.345c.01.253.15.484.372.6a.73.73 0 0 0 .713.008c.233-.126.508-.123.736.006a.76.76 0 0 1 .285 1.035.76.76 0 0 1-.93.333c-.346-.133-.737.013-.912.34a.54.54 0 0 0-.015.03.75.75 0 0 1-1.026.271c-.176-.1-.303-.263-.357-.46a.74.74 0 0 1 .064-.563.52.52 0 0 1 .02-.03c.2-.317.115-.727-.175-.956s-.373-.647-.2-.97zm-6.725 8.845a4.24 4.24 0 0 1 .214-.051c.755-.165 1.416-.682 1.767-1.384.317-.634.897-1.103 1.6-1.286a2.58 2.58 0 0 1 .659-.086c.436 0 .86.1 1.235.312a.78.78 0 0 0 .084.052c.01.005.02.01.03.014a2.6 2.6 0 0 1 1.171 1.517c.197.7.1 1.428-.292 2.024a2.63 2.63 0 0 0-.286 2.226l.065.2a4.86 4.86 0 0 1-.444 3.772c-.654 1.148-1.724 1.968-3.015 2.3-2.68.708-5.478-.883-6.24-3.548a4.86 4.86 0 0 1 .444-3.772c.654-1.148 1.724-1.968 3.015-2.3zM66.6 254.746h-2.123c.422-2.292 2.403-3.983 4.8-3.983h.05c.072.001.145.002.22.007.772.042 1.545-.283 2.07-.866a2.5 2.5 0 0 1 1.875-.818c.787.008 1.53.38 2.018.993a6.3 6.3 0 0 0-.59 3.841 2.58 2.58 0 0 0-.525 1.694 5.51 5.51 0 0 1 .007.224c.015 1.564-.712 3.04-1.947 3.968a11.88 11.88 0 0 1-1.433-2.274 4.95 4.95 0 0 0-4.434-2.787zM73.544 261l-.006-.16a6.38 6.38 0 0 0 2.319-4.439 6.65 6.65 0 0 0 3.094 2.58 6.4 6.4 0 0 0 .406 3.682 6.55 6.55 0 0 0 .898 1.507c-1.782-.2-3.502-.834-5.026-1.833-.604-.396-1.167-.844-1.685-1.338zm8.88 3.22c-.757-.544-1.347-1.277-1.713-2.135s-.48-1.794-.338-2.697a6.52 6.52 0 0 0 1.083.091c.55 0 1.1-.07 1.664-.217 1.677-.443 3.07-1.5 3.918-3.004.7-1.213.956-2.588.777-3.955a2.66 2.66 0 0 1 1.096.362 2.59 2.59 0 0 1 1.062 1.212c.28.66.267 1.406-.04 2.045a2.62 2.62 0 0 0-.01 2.238l.093.206a4.92 4.92 0 0 1 .398 1.864c-2.03 2.314-4.9 3.77-7.992 4zm9.8-6.7a13.67 13.67 0 0 1-.57 1.048 6.47 6.47 0 0 0-.269-.764c-.036-.087-.076-.173-.12-.265a1.14 1.14 0 0 1 .008-.973 3.96 3.96 0 0 0 .065-3.257 4.04 4.04 0 0 0-.9-1.316c1.726-1.356 4.17-1.402 5.98-.02.9.694 1.555 1.684 1.84 2.8h-1.615c-1.884 0-3.62 1.082-4.42 2.757zm-5.364 17.416c0-2.976-2.422-5.398-5.398-5.398s-5.398 2.422-5.398 5.398 2.422 5.398 5.398 5.398 5.398-2.422 5.398-5.398zm-9.324 0A3.93 3.93 0 0 1 81.452 271a3.93 3.93 0 0 1 3.926 3.926 3.93 3.93 0 0 1-3.926 3.926 3.93 3.93 0 0 1-3.926-3.926zm0 0" id="I" class="B"/><path id="J" d="M0 0h350v350H0z"/></defs><pattern id="K" width="350" height="350" patternUnits="userSpaceOnUse"><use xlink:href="#A" x="-350" y="-350"/><use xlink:href="#A" y="-350"/><use xlink:href="#A" x="350" y="-350"/><use xlink:href="#A" x="-350"/><use xlink:href="#A"/><use xlink:href="#A" x="350"/><use xlink:href="#A" x="-350" y="350"/><use xlink:href="#A" y="350"/><use xlink:href="#A" x="350" y="350"/></pattern><use xlink:href="#J" fill="url(#K)"/><pattern id="L" width="350" height="350" patternUnits="userSpaceOnUse"><use xlink:href="#B" x="-350" y="-350"/><use xlink:href="#B" y="-350"/><use xlink:href="#B" x="350" y="-350"/><use xlink:href="#B" x="-350"/><use xlink:href="#B"/><use xlink:href="#B" x="350"/><use xlink:href="#B" x="-350" y="350"/><use xlink:href="#B" y="350"/><use xlink:href="#B" x="350" y="350"/></pattern><use xlink:href="#J" fill="url(#L)"/><pattern id="M" width="350" height="350" patternUnits="userSpaceOnUse"><use xlink:href="#C" x="-350" y="-350"/><use xlink:href="#C" y="-350"/><use xlink:href="#C" x="350" y="-350"/><use xlink:href="#C" x="-350"/><use xlink:href="#C"/><use xlink:href="#C" x="350"/><use xlink:href="#C" x="-350" y="350"/><use xlink:href="#C" y="350"/><use xlink:href="#C" x="350" y="350"/></pattern><use xlink:href="#J" fill="url(#M)"/><pattern id="N" width="350" height="350" patternUnits="userSpaceOnUse"><use xlink:href="#D" x="-350" y="-350"/><use xlink:href="#D" y="-350"/><use xlink:href="#D" x="350" y="-350"/><use xlink:href="#D" x="-350"/><use xlink:href="#D"/><use xlink:href="#D" x="350"/><use xlink:href="#D" x="-350" y="350"/><use xlink:href="#D" y="350"/><use xlink:href="#D" x="350" y="350"/></pattern><use xlink:href="#J" fill="url(#N)"/><pattern id="O" width="350" height="350" patternUnits="userSpaceOnUse"><use xlink:href="#E" x="-350" y="-350"/><use xlink:href="#E" y="-350"/><use xlink:href="#E" x="350" y="-350"/><use xlink:href="#E" x="-350"/><use xlink:href="#E"/><use xlink:href="#E" x="350"/><use xlink:href="#E" x="-350" y="350"/><use xlink:href="#E" y="350"/><use xlink:href="#E" x="350" y="350"/></pattern><use xlink:href="#J" fill="url(#O)"/><pattern id="P" width="350" height="350" patternUnits="userSpaceOnUse"><use xlink:href="#F" x="-350" y="-350"/><use xlink:href="#F" y="-350"/><use xlink:href="#F" x="350" y="-350"/><use xlink:href="#F" x="-350"/><use xlink:href="#F"/><use xlink:href="#F" x="350"/><use xlink:href="#F" x="-350" y="350"/><use xlink:href="#F" y="350"/><use xlink:href="#F" x="350" y="350"/></pattern><use xlink:href="#J" fill="url(#P)"/><pattern id="Q" width="350" height="350" patternUnits="userSpaceOnUse"><use xlink:href="#G" x="-350" y="-350"/><use xlink:href="#G" y="-350"/><use xlink:href="#G" x="350" y="-350"/><use xlink:href="#G" x="-350"/><use xlink:href="#G"/><use xlink:href="#G" x="350"/><use xlink:href="#G" x="-350" y="350"/><use xlink:href="#G" y="350"/><use xlink:href="#G" x="350" y="350"/></pattern><use xlink:href="#J" fill="url(#Q)"/><pattern id="R" width="350" height="350" patternUnits="userSpaceOnUse"><use xlink:href="#H" x="-350" y="-350"/><use xlink:href="#H" y="-350"/><use xlink:href="#H" x="350" y="-350"/><use xlink:href="#H" x="-350"/><use xlink:href="#H"/><use xlink:href="#H" x="350"/><use xlink:href="#H" x="-350" y="350"/><use xlink:href="#H" y="350"/><use xlink:href="#H" x="350" y="350"/></pattern><use xlink:href="#J" fill="url(#R)"/><pattern id="S" width="350" height="350" patternUnits="userSpaceOnUse"><use xlink:href="#I" x="-350" y="-350"/><use xlink:href="#I" y="-350"/><use xlink:href="#I" x="350" y="-350"/><use xlink:href="#I" x="-350"/><use xlink:href="#I"/><use xlink:href="#I" x="350"/><use xlink:href="#I" x="-350" y="350"/><use xlink:href="#I" y="350"/><use xlink:href="#I" x="350" y="350"/></pattern><use xlink:href="#J" fill="url(#S)"/></svg>