<svg xmlns="http://www.w3.org/2000/svg" xmlns:xlink="http://www.w3.org/1999/xlink" width="400" height="400" viewBox="0 0 350 350"><use xlink:href="#I" opacity="0" fill="#e9dfe7"/><defs><path d="M189.013 339.8s3.893-6.4-2.752-3.165c-.216-1.656-2.152-6.66-3.426-6.633s-1.467 6.68-2.244 9.577c-4.036-1.608-9.17-.49-12.836 3.175s-4.782 8.8-3.175 12.836c-2.897.776-9.416.572-9.577 2.243s4.977 3.2 6.633 3.426c-3.245 6.645 3.165 2.752 3.165 2.752s2.324 8.318 3.597 5.344c1.184-2.767 1.293-6.308 1.347-8.57 4.043 1.638 9.207.527 12.888-3.154s4.793-8.845 3.154-12.888c2.262-.054 5.802-.163 8.57-1.347 2.975-1.273-5.344-3.597-5.344-3.597zm-20.88 23.103c-.635 1.483-1.877-3.76-1.877-3.76-.826-.108-3.72-.42-3.84-1.188-.103-.66 1.528-.648 2.9-.9a9.25 9.25 0 0 0 1.334 1.687c.567.567 1.193 1.046 1.862 1.44.054.783.07 1.674-.38 2.725zm12.59-20.393c-.052.052-.126.07-.188.043-3.36-1.458-7.586-.468-10.516 2.462s-3.92 7.157-2.462 10.517c.032.075.001.166-.072.21s-.165.032-.213-.033c-1.19-1.623-1.7-3.713-1.405-5.885.287-2.188 1.355-4.303 3.007-5.954s3.766-2.72 5.955-3.007c2.164-.285 4.247.2 5.87 1.393.012.007.024.015.034.025.06.06.057.163-.007.23zm7.184.62c-1.05.45-1.942.433-2.725.38a9.25 9.25 0 0 0-1.439-1.862c-.517-.517-1.083-.962-1.687-1.334.253-1.373.243-3.004.902-2.9.77.12 1.08 3.016 1.188 3.842 0 0 5.243 1.242 3.76 1.876z" id="A" fill="#ec4a81"/><path d="M80.727 71.367c.596.16 1.282.357 1.865.698.707.413 1.184.863 1.455 1.374a3.06 3.06 0 0 1 .37 1.244l.006.393c1.003-.282 2.035-.428 3.077-.428a11.32 11.32 0 0 1 2.312.241l-.022-.057c-.747-1.9-2.162-3.423-3.88-4.178-.727-.32-1.56-.495-2.474-.525-.98-.03-1.93.208-2.72.442-.177.053-.298.217-.296.402s.128.346.307.394zm15.8 5.86a9.37 9.37 0 0 0-2.757.414c-1.837-1.3-3.98-2.03-6.27-2.03s-4.432.74-6.27 2.03c-.88-.27-1.804-.414-2.756-.414-6.06 0-10.974 5.828-10.974 13.016s4.913 13.017 10.974 13.017c.952 0 1.876-.144 2.756-.414 1.837 1.3 3.98 2.03 6.27 2.03s4.432-.74 6.27-2.03c.88.27 1.804.414 2.757.414 6.06 0 10.974-5.828 10.974-13.017s-4.914-13.016-10.974-13.016zm-5.273 10.08l2.27-4.577c.042-.086.13-.14.226-.138s.182.06.22.146l2.064 4.56c.034.076.028.165-.017.235a.25.25 0 0 1-.207.115l-4.345.04c-.14 0-.252-.1-.252-.248a.24.24 0 0 1 .039-.134zm-12.288-.01l2.064-4.56a.25.25 0 0 1 .22-.146c.094-.002.184.052.226.138l2.27 4.577a.25.25 0 0 1 .04.134c0 .137-.1.248-.248.248l-4.35-.04a.25.25 0 0 1-.207-.115c-.047-.07-.05-.16-.017-.235zm-3.447 11.792c-.05.1-.155.162-.268.162-.038 0-.075-.007-.1-.02-3.356-1.358-5.6-5.108-5.6-9.332s2.254-7.974 5.6-9.332c.036-.014.073-.022.112-.022.113 0 .215.062.266.163.07.14.025.306-.108.388-2.74 1.715-4.442 5.088-4.442 8.803S72.7 96.985 75.43 98.7c.132.083.178.25.108.388zm24.422-5.174l-2.235 1.635-1.313.955-1.773 1.274c-.084.06-.197.062-.283.004l-2-1.352-1.252-.856-.556-.382-.883.615-2.017 1.447c-.038.026-.08.04-.125.04a.25.25 0 0 1-.158-.045l-1.803-1.315-1.067-.743-.005.004-.55.378-1.252.856-2 1.352c-.086.058-.2.056-.283-.004l-1.773-1.274-1.312-.955-2.235-1.635c-.096-.07-.128-.198-.078-.305s.17-.164.285-.135l4.762 1.203 4.063-3.467c.08-.07.198-.08.3-.023l3.12 1.9 3.12-1.9a.25.25 0 0 1 .29.023l4.063 3.467 4.762-1.203c.115-.03.234.027.285.135s.017.235-.078.306z" id="B" fill="#ec4a81"/><path d="M282.174 86.65c-.576-2.866-1.973-5.633-4.286-7.48-1.383-1.105-3.04-1.82-4.786-2.107l.502 7.1-3.962-7.272c-.06-.1-.102-.103-.23-.14l-3.075-.804-2.1-.418c-.587-.094-1.188-.18-1.783-.17-.487.008-.978.097-1.458.176l-1.865.347-1.403.293-.257.056c-.022.005-.052.18-.058.2l-.782 2.84c-.63-.652-1.312-1.283-2.06-1.8a3.92 3.92 0 0 0-.694-.398c-.24-.1-.458-.104-.715-.095a9.43 9.43 0 0 0-2.093.306c-2.805.74-5.114 2.748-6.58 5.2-1.66 2.8-2.277 6.147-1.888 9.36.37 3.056 1.684 6.04 3.905 8.2 2.127 2.07 5.044 3.23 8.023 2.9a9.37 9.37 0 0 0 1.514-.301l.177-.052.14.097.285.188.633.377c.822.455 1.7.8 2.6 1.04a10.58 10.58 0 0 0 5.637-.121 11.15 11.15 0 0 0 2.567-1.147l.573-.37c.065-.045.073-.07.152-.047l.177.05.417.106a9.39 9.39 0 0 0 1.535.222 9.47 9.47 0 0 0 4.307-.758c2.7-1.16 4.762-3.48 5.953-6.132 1.32-2.94 1.6-6.3.957-9.436zM268.4 88.23l2.9-3.235c.082-.092.2-.132.33-.102s.215.122.246.242l.714 2.737c.025.093.008.192-.046.272a.34.34 0 0 1-.234.146l-3.614.498c-.016.002-.03.003-.046.003-.123 0-.238-.068-.297-.18-.066-.125-.048-.277.047-.382zm-15.826-4.85c.1-.07.253-.07.363.003l4.183 2.737c.078.05.13.132.147.224l.356 2.052a.34.34 0 0 1-.331.395.28.28 0 0 1-.04-.003l-3.95-.46c-.153-.018-.274-.136-.295-.3l-.588-4.33c-.018-.13.042-.26.154-.33zm-2.047 15.44c-.02.04-.013.024-.001.001-.192.37-.786-.035-1.03-.162-.333-.173-.653-.37-.958-.6a8.7 8.7 0 0 1-1.657-1.567c-1.02-1.25-1.7-2.753-2.06-4.323-.725-3.228-.052-6.835 2.06-9.424a8.42 8.42 0 0 1 1.656-1.567 7.87 7.87 0 0 1 .958-.59c.245-.128.84-.535 1.03-.16.1.195-.032.34-.187.44l-.502.35a8.67 8.67 0 0 0-.892.776 9.44 9.44 0 0 0-1.468 1.91c-1.745 2.98-1.966 6.802-.697 9.998a10.12 10.12 0 0 0 1.647 2.778c.338.4.7.77 1.113 1.105a8.54 8.54 0 0 0 .602.454c.2.13.53.278.384.567.017-.033.04-.077-.001.003zm25.102-5.417a.94.94 0 0 1-.089.125s.165-.195 0 0c.004.016-.1.102-.1.113a12.99 12.99 0 0 1-.335.353 12.69 12.69 0 0 1-1.063.976 16.86 16.86 0 0 1-2.47 1.67 18.25 18.25 0 0 1-2.833 1.256c-.052.018-.468.173-.478.146l-.3-.83-.4-1.1c-.2-.557-.94-.127-1.295.007-.365.137-1.154.286-.943.848l.616 1.64c-4.144.693-8.514.07-12.235-1.9-.9-.473-1.738-1.016-2.526-1.644-.54-.43-1.116-.9-1.5-1.473-.355-.517-.588-1.165-.1-1.677.333-.35.805-.232 1.215-.105.573.178 1.134.38 1.724.498a97.03 97.03 0 0 0 2.396.442l-.354 1.686c-.06.286.14.495.403.55l1.335.28c.263.055.542-.038.604-.332.034-.13.055-.264.083-.396l.3-1.374c.02-.097.144-.03.227-.02l.828.102 1.6.153a46.87 46.87 0 0 0 3.119.118c1.04.004 2.07-.074 3.107-.133 1.052-.06 2.108-.223 3.15-.382 1.027-.157 2.05-.35 3.067-.558.76-.156 1.523-.34 2.292-.447.324-.046.64.035.87.278a.95.95 0 0 1 .12 1.127zm-17.487-22.158c.478.176 1.027.4 1.48.714.55.393.908.798 1.093 1.24a2.52 2.52 0 0 1 .211 1.05l-.025.323c.846-.157 1.705-.2 2.562-.122a9.33 9.33 0 0 1 1.883.371l-.014-.05c-.472-1.618-1.52-2.975-2.878-3.725-.573-.317-1.244-.524-1.995-.617-.803-.1-1.602.027-2.268.16-.15.03-.26.156-.273.3a.34.34 0 0 0 .223.346z" id="C" fill="#ec4a81"/><path d="M112.308 248.183c.408-.73.146-1.655-.586-2.062s-1.655-.146-2.063.586c-2.555 4.582-6.008 8.072-10.27 10.386 1.377-1.128 2.675-2.424 3.525-3.804 2.632-4.272 2.695-12.768 2.697-13.128.003-.837-.672-1.518-1.5-1.522a1.52 1.52 0 0 0-1.522 1.509c-.01 2.215-.433 8.607-2.246 11.55-1.593 2.585-5.433 4.99-7.4 6.112-.217-1.668-.872-3.14-1.804-4.207.766-1.395 1.227-3.25 1.227-5.316 0-.465-.377-.842-.842-.842a.84.84 0 0 0-.842.842c0 1.676-.348 3.118-.867 4.193a4.42 4.42 0 0 0-2.294-.657 4.42 4.42 0 0 0-2.294.657c-.52-1.075-.867-2.517-.867-4.193 0-.465-.377-.842-.842-.842s-.842.377-.842.842c0 2.065.46 3.92 1.227 5.316-.933 1.068-1.588 2.542-1.805 4.212-2.248-1.275-5.917-3.695-7.41-6.117-1.813-2.942-2.236-9.335-2.246-11.55-.003-.835-.68-1.5-1.516-1.5-.843.003-1.52.685-1.516 1.522.002.36.064 8.855 2.697 13.128.845 1.37 2.13 2.66 3.498 3.782-3.344-1.83-7.24-4.975-10.244-10.364-.408-.73-1.33-.994-2.063-.586s-.994 1.33-.586 2.062c3.814 6.84 8.955 10.383 12.595 12.15a26.71 26.71 0 0 0 2.021.881c-.43.092-.873.195-1.322.3-4.874 1.243-8.027 3.21-9.37 5.848-.38.746-.084 1.66.662 2.04.22.113.456.166.687.166.552 0 1.084-.302 1.352-.828 1.39-2.727 6.2-4.17 9.924-4.83-.856.462-1.78 1.087-2.685 1.936-1.724 1.62-3.026 3.714-3.87 6.23-1.02 3.038-1.366 6.703-1.03 10.892.064.793.727 1.395 1.5 1.395.04 0 .082-.002.123-.005.835-.067 1.457-.798 1.4-1.633-.447-5.564.434-10.024 2.555-13.048a13.39 13.39 0 0 0-.081 1.485c0 6.8 4.632 15.192 10.346 15.192s10.347-8.393 10.347-15.192a13.17 13.17 0 0 0-.11-1.729c2.248 3.027 3.19 7.576 2.73 13.292-.067.834.555 1.566 1.4 1.633.04.003.082.005.123.005.782 0 1.446-.6 1.5-1.395.337-4.19-.01-7.853-1.03-10.892-.844-2.515-2.146-4.61-3.87-6.23-.904-.85-1.83-1.474-2.685-1.936 3.726.66 8.533 2.103 9.924 4.83.268.525.8.828 1.352.828.23 0 .467-.053.687-.166.746-.38 1.042-1.293.662-2.04-1.344-2.637-4.497-4.604-9.37-5.848-.483-.123-.958-.232-1.418-.33.623-.243 1.283-.527 1.97-.86 3.64-1.768 8.782-5.31 12.596-12.15zM85.82 255.9c-.673 1.11-.92 2.395-1.008 3.276-.04.393-.4.68-.783.64s-.68-.39-.64-.783c.103-1.028.396-2.535 1.208-3.875.205-.338.645-.446.983-.24s.446.644.24.983z" id="D" fill="#ec4a81"/><path d="M259.023 233.936l.826.897c.592.706 1 1.297 1.325 1.913.854 1.625.205 3.522-.688 4.755-.094.13-.096.305-.004.437.072.104.188.162.3.162.034 0 .067-.004.1-.013 1.8-.493 3.3-2.343 3.512-4.304.125-1.156.001-2.225-.368-3.177-.265-.68-.603-1.354-1.066-2.122-.263-.436-.585-.835-.896-1.22l-.264-.33c-.637-.807-1.057-1.564-1.285-2.3-.495-1.616-.22-3.484.86-5.878.748-1.658 1.695-3.215 2.602-4.666a.38.38 0 0 0-.451-.556c-1.53.56-3.145 1.728-4.545 3.288-1.5 1.66-2.414 3.54-2.742 5.584-.33 2.055.236 4.294 1.554 6.143.37.515.802.964 1.222 1.398zm10.13-2.66a6.9 6.9 0 0 0-.535-1.067c-.138-.23-.298-.428-.457-.626l-.122-.152c-.27-.342-.446-.657-.54-.964-.203-.666-.08-1.46.4-2.502.344-.764.785-1.488 1.208-2.164a.58.58 0 0 0-.042-.674.59.59 0 0 0-.653-.181c-.786.288-1.6.88-2.315 1.667-.76.846-1.23 1.805-1.397 2.85-.174 1.077.12 2.247.805 3.2.192.27.407.492.624.716l.365.396c.26.3.44.568.58.835.32.607.057 1.343-.295 1.83-.145.2-.148.47-.008.674.1.157.288.25.48.25a.61.61 0 0 0 .155-.02c1.016-.28 1.84-1.283 1.958-2.385.066-.6-.001-1.18-.2-1.694zm30.913-.43a11.44 11.44 0 0 0-4.714-1.045c-2.315 0-4.337.767-6 2.28-1.377 1.245-5.172 5.002-11.282 11.168l-1.704 1.72h-47.798a5.3 5.3 0 0 0-5.302 5.302c0 2.928 2.374 5.304 5.302 5.304h.387c-2.18 4.68-3.404 9.898-3.404 15.403 0 20.172 16.353 36.525 36.525 36.525s36.525-16.353 36.525-36.525c0-5.505-1.225-10.72-3.407-15.403h.4c2.93 0 5.303-2.374 5.303-5.304s-2.375-5.302-5.303-5.302h-10.74l.013-.014 8.533-8.412c.54-.5 1.203-.728 2.024-.728 1.082 0 2.008.43 2.008.43a3.01 3.01 0 0 0 1.325.309 2.99 2.99 0 0 0 2.702-1.682 3.01 3.01 0 0 0-1.371-4.023z" id="E" fill="#ec4a81"/><path d="M392.917 359.326c-.137-.922-.805-1.672-1.705-1.913a2.32 2.32 0 0 0-.943-.053l-15.752 2.324c-.06-.265-.144-.528-.258-.786-3.398-7.728-9.638-14.428-12.906-17.608-1.214-1.276-2.496-2.365-3.838-3.268 3.64.738 7.268-1.196 8.732-4.544l8.88 3.605c.08.033.163.06.246.083.493.132 1.02.08 1.48-.148.54-.268.938-.756 1.094-1.34l.085-.32c.217-.8-.068-1.672-.725-2.192l-9.41-6.453-4.934-18.697c-.268-.856-1.05-1.447-1.945-1.474a2.1 2.1 0 0 0-2.027 1.358l-5.188 14.313-8.85-2.2c-1.112-.275-2.24.4-2.536 1.497l-.07.264c-.274 1.024.257 2.093 1.24 2.492l8.13 3.3c-.087.234-.166.473-.23.72-.767 2.864.153 5.782 2.15 7.7-6.97-2.666-15.15-.923-23.586 5.446-10.4 7.858-11.614 16.687-1.55 25.03l-3.988.588c-5.335-2.982-12.12-5.93-18.717-6.014-6.186-.08-5.375 2.575-4.664 7.52l.08.542 6.868 1.448a.44.44 0 0 1 .059.008c.024.007.002.003-.06-.008-.56-.056-4.256.007-6.535.43a35.47 35.47 0 0 0 .72 2.963l4.187.88c.027.002.047.005.06.008.025.007.002.003-.06-.008-.368-.037-2.09-.022-3.876.112 1.186 3.528 3.767 8.038 6.296 6.403 0 0 14.148-8.803 20.497-10.286l2.622-.387c3.82 7.913-5.9 16.15-7.37 18.456 10.65 5.806 26.726 4.282 31.057-2.267 4.263-6.447 4.5-12.877.434-19.748l34.837-5.14c.616-.09 1.16-.416 1.532-.916s.525-1.113.435-1.73zm-45.925-2.693l9.558-7.947c2.692 2.76 6.633 7.276 9.157 12.296l-12.627 1.862c-1.67-2.022-3.696-4.1-6.088-6.212z" id="F" fill="#ec4a81"/><path d="M209.22 181a1.23 1.23 0 0 0-.974-.284s-7.102 4.243-17.5 3.757l-.225-.004-5.204-21.336c-.088-.33-.288-.596-.583-.74l-13.282-7.213-2.795-13.42a1.2 1.2 0 0 0-1.15-.942c-.548-.013-1.053.378-1.156.95l-3.538 16.946a1.23 1.23 0 0 0 .227.965l7.762 9.942-3.855 22.224c-1.202 2.214-13.016 4.546-17.494 6.74a1.09 1.09 0 0 0-.617.807 1.18 1.18 0 0 0 .235.995c.913 1.134 2.025 2.054 3.03 2.8a29 29 0 0 0 4.1 2.62c2.88 1.537 6.04 2.678 9.37 3.388 4.35.918 8.95 1.097 13.703.528l.84-.097.06-.016.854-.164c1.28-.247 2.493-.508 3.66-.82 1.077-.288 2.146-.607 3.14-.97 2.046-.74 4.065-1.698 6.44-3.008l.03-.008a63.7 63.7 0 0 0 2.868-1.86s.03-.008.022-.038a70.26 70.26 0 0 0 2.587-2.072s.03-.008.022-.038c1.465-1.354 3.35-3.174 4.853-5.34.675-.95 1.312-1.923 1.874-2.94l.22-.38c.474-.864.96-1.796 1.313-2.756 1.05-2.782 1.582-5.104 1.635-7.3-.066-.367-.214-.68-.474-.93zm-25.877 2.253l1.14 8.446c.087.682-.4 1.3-1.044 1.37l-7.052.96c-.682.087-1.3-.4-1.37-1.044l-1.14-8.447c-.087-.682.4-1.3 1.044-1.37l7.052-.96c.652-.078 1.253.37 1.37 1.044zm-6.9 2.167l4.6-.626.807 6.003-4.6.626-.807-6.003z" id="G" fill="#ec4a81"/><path d="M316.8 157.267a5.44 5.44 0 0 0 3.655 1.394 5.43 5.43 0 0 0 2.494-.606c.28-.145.55-.318.804-.512l1.55-1.2 4.144 3.87c.107.1.248.155.394.155l.055-.002a.57.57 0 0 0 .41-.235c1.045-1.435 2.28-2.758 3.674-3.93.126-.106.2-.26.205-.426a.57.57 0 0 0-.183-.436l-4.242-3.96.987-1.607c1.373-2.234.954-5.13-.995-6.9-.997-.898-2.295-1.393-3.656-1.393a5.43 5.43 0 0 0-2.494.606c-.577.3-1.092.7-1.532 1.187a5.39 5.39 0 0 0-1.327 2.8l-.23 1.498-1.466.384a5.4 5.4 0 0 0-2.248 9.292zm18.562 34.67v-4.2c0-.158-.064-.308-.178-.417s-.266-.167-.424-.16a3.09 3.09 0 0 1-1.254-.204.58.58 0 0 0-.6.117l-7.048 6.582-1.55-1.187a5.45 5.45 0 0 0-.804-.513c-.763-.397-1.627-.607-2.497-.607-1.36 0-2.657.494-3.652 1.392a5.4 5.4 0 0 0-1.792 3.758 5.41 5.41 0 0 0 1.392 3.927 5.37 5.37 0 0 0 2.645 1.608l1.47.383.23 1.5a5.4 5.4 0 0 0 1.329 2.803 5.42 5.42 0 0 0 1.53 1.185 5.43 5.43 0 0 0 2.495.606c1.36 0 2.657-.494 3.652-1.392 1.08-.973 1.717-2.3 1.794-3.76a5.39 5.39 0 0 0-.794-3.125l-.993-1.608 5.066-4.73c.155-.145.218-.363.164-.568a5.42 5.42 0 0 1-.18-1.378zm48.24-42.35a5.4 5.4 0 0 0-2.649-1.613l-1.466-.384-.23-1.498a5.39 5.39 0 0 0-1.327-2.8 5.43 5.43 0 0 0-4.026-1.793c-1.36 0-2.66.494-3.657 1.393a5.44 5.44 0 0 0-.995 6.89l.987 1.607-4.242 3.962a.58.58 0 0 0-.183.436c.004.166.08.32.205.426 1.393 1.172 2.63 2.495 3.674 3.93a.58.58 0 0 0 .411.235l.055.002c.146 0 .287-.055.394-.155l4.144-3.87 1.55 1.2c.254.195.524.367.804.512a5.43 5.43 0 0 0 2.494.606c1.36 0 2.658-.495 3.655-1.394a5.4 5.4 0 0 0 .401-7.68zm-.955 43.143a5.44 5.44 0 0 0-3.652-1.392 5.31 5.31 0 0 0-2.497.607c-.278.144-.548.316-.804.513l-1.55 1.187-7.047-6.582a.58.58 0 0 0-.6-.117 3.09 3.09 0 0 1-1.254.204.57.57 0 0 0-.424.16.58.58 0 0 0-.178.417v4.2a5.39 5.39 0 0 1-.18 1.378.58.58 0 0 0 .164.568l5.066 4.73-.993 1.608c-.577.935-.852 2.016-.794 3.125.077 1.452.714 2.787 1.794 3.76a5.44 5.44 0 0 0 3.652 1.392 5.43 5.43 0 0 0 2.495-.606 5.44 5.44 0 0 0 1.53-1.185c.7-.8 1.17-1.758 1.33-2.803l.23-1.5 1.47-.382a5.38 5.38 0 0 0 2.645-1.608 5.41 5.41 0 0 0 1.392-3.927 5.4 5.4 0 0 0-1.792-3.758zm-17.644-7.9c.244.035.5-.048.663-.223 3.45-3.496 5.35-8 5.35-12.678 0-10.448-9.388-18.97-21.016-19.178-11.627.206-21.016 8.73-21.016 19.177 0 4.68 1.9 9.182 5.35 12.678a.78.78 0 0 0 .664.223c.244-.035.457-.185.573-.402l1.9-3.525a.26.26 0 0 1 .291-.129.26.26 0 0 1 .196.25v10.903a3.26 3.26 0 0 0 1.801 2.902c2.117 1.044 5.58 2.28 10.254 2.396 4.674-.117 8.137-1.352 10.254-2.396a3.26 3.26 0 0 0 1.801-2.902v-10.903c0-.12.08-.222.196-.25a.26.26 0 0 1 .291.129l1.9 3.525a.78.78 0 0 0 .573.402zm-22.164-7.93c-2.95 0-5.348-2.852-5.348-6.357 0-.806.656-1.462 1.464-1.462h7.764a1.47 1.47 0 0 1 1.467 1.469c-.001 3.5-2.4 6.35-5.347 6.35zm10.814 7.098l-1.496 1.3c-.08.068-.196.082-.3.034l-1.6-.844c-.2-.1-.308-.1-.52 0l-1.6.844c-.093.048-.2.034-.3-.034l-1.496-1.3a.26.26 0 0 1-.027-.365l2.95-3.426c.442-.515 1.016-.515 1.458 0l2.95 3.426a.26.26 0 0 1-.027.365zm3.5-7.098c-2.947 0-5.347-2.85-5.347-6.35a1.47 1.47 0 0 1 1.467-1.469h7.764c.807 0 1.464.656 1.464 1.462 0 3.505-2.4 6.357-5.347 6.357z" id="H" fill="#ec4a81"/><path id="I" d="M0 0h350v350H0z"/></defs><pattern id="J" width="350" height="350" patternUnits="userSpaceOnUse"><use xlink:href="#A" x="-350" y="-350"/><use xlink:href="#A" y="-350"/><use xlink:href="#A" x="350" y="-350"/><use xlink:href="#A" x="-350"/><use xlink:href="#A"/><use xlink:href="#A" x="350"/><use xlink:href="#A" x="-350" y="350"/><use xlink:href="#A" y="350"/><use xlink:href="#A" x="350" y="350"/></pattern><use xlink:href="#I" fill="url(#J)"/><pattern id="K" width="350" height="350" patternUnits="userSpaceOnUse"><use xlink:href="#B" x="-350" y="-350"/><use xlink:href="#B" y="-350"/><use xlink:href="#B" x="350" y="-350"/><use xlink:href="#B" x="-350"/><use xlink:href="#B"/><use xlink:href="#B" x="350"/><use xlink:href="#B" x="-350" y="350"/><use xlink:href="#B" y="350"/><use xlink:href="#B" x="350" y="350"/></pattern><use xlink:href="#I" fill="url(#K)"/><pattern id="L" width="350" height="350" patternUnits="userSpaceOnUse"><use xlink:href="#C" x="-350" y="-350"/><use xlink:href="#C" y="-350"/><use xlink:href="#C" x="350" y="-350"/><use xlink:href="#C" x="-350"/><use xlink:href="#C"/><use xlink:href="#C" x="350"/><use xlink:href="#C" x="-350" y="350"/><use xlink:href="#C" y="350"/><use xlink:href="#C" x="350" y="350"/></pattern><use xlink:href="#I" fill="url(#L)"/><pattern id="M" width="350" height="350" patternUnits="userSpaceOnUse"><use xlink:href="#D" x="-350" y="-350"/><use xlink:href="#D" y="-350"/><use xlink:href="#D" x="350" y="-350"/><use xlink:href="#D" x="-350"/><use xlink:href="#D"/><use xlink:href="#D" x="350"/><use xlink:href="#D" x="-350" y="350"/><use xlink:href="#D" y="350"/><use xlink:href="#D" x="350" y="350"/></pattern><use xlink:href="#I" fill="url(#M)"/><pattern id="N" width="350" height="350" patternUnits="userSpaceOnUse"><use xlink:href="#E" x="-350" y="-350"/><use xlink:href="#E" y="-350"/><use xlink:href="#E" x="350" y="-350"/><use xlink:href="#E" x="-350"/><use xlink:href="#E"/><use xlink:href="#E" x="350"/><use xlink:href="#E" x="-350" y="350"/><use xlink:href="#E" y="350"/><use xlink:href="#E" x="350" y="350"/></pattern><use xlink:href="#I" fill="url(#N)"/><pattern id="O" width="350" height="350" patternUnits="userSpaceOnUse"><use xlink:href="#F" x="-350" y="-350"/><use xlink:href="#F" y="-350"/><use xlink:href="#F" x="350" y="-350"/><use xlink:href="#F" x="-350"/><use xlink:href="#F"/><use xlink:href="#F" x="350"/><use xlink:href="#F" x="-350" y="350"/><use xlink:href="#F" y="350"/><use xlink:href="#F" x="350" y="350"/></pattern><use xlink:href="#I" fill="url(#O)"/><pattern id="P" width="350" height="350" patternUnits="userSpaceOnUse"><use xlink:href="#G" x="-350" y="-350"/><use xlink:href="#G" y="-350"/><use xlink:href="#G" x="350" y="-350"/><use xlink:href="#G" x="-350"/><use xlink:href="#G"/><use xlink:href="#G" x="350"/><use xlink:href="#G" x="-350" y="350"/><use xlink:href="#G" y="350"/><use xlink:href="#G" x="350" y="350"/></pattern><use xlink:href="#I" fill="url(#P)"/><pattern id="Q" width="350" height="350" patternUnits="userSpaceOnUse"><use xlink:href="#H" x="-350" y="-350"/><use xlink:href="#H" y="-350"/><use xlink:href="#H" x="350" y="-350"/><use xlink:href="#H" x="-350"/><use xlink:href="#H"/><use xlink:href="#H" x="350"/><use xlink:href="#H" x="-350" y="350"/><use xlink:href="#H" y="350"/><use xlink:href="#H" x="350" y="350"/></pattern><use xlink:href="#I" fill="url(#Q)"/></svg>