<svg xmlns="http://www.w3.org/2000/svg" xmlns:xlink="http://www.w3.org/1999/xlink" width="400" height="400" viewBox="0 0 350 350"><use xlink:href="#I" opacity="0" fill="#79a790"/><defs><path d="M351.662-.265c-1.498.2-2.748 1.058-3.52 2.23a5.05 5.05 0 0 0-3.997-1.181 5.06 5.06 0 0 0-2.01 9.285l8.05 5.773 5.954-7.727h-.003a5.06 5.06 0 0 0-4.47-8.381zm1.518 8.9l-2.94.4.402 2.88-2.294.32-.402-2.88-2.824.394-.32-2.296 2.824-.394-.402-2.88 2.294-.32.402 2.88 2.94-.4.32 2.296zM332.238-31.48l4.794-.67 1.887 13.526-4.794.67zm6.164-.86l4.794-.67 1.887 13.526-4.794.67zm20.878 11.023l4.928-.688-1.897-13.593c-.255 0-.508-.007-.767.03l-4.17.582 1.906 13.67zm-33.377-9.278l4.794-.67 1.887 13.526-4.794.67zm25.17-3.512l4.794-.67 1.887 13.526-4.794.67zm12.634-1.327l1.848 13.244 3.276-.457-1.157-8.293c-.3-2.224-1.927-3.945-3.967-4.493zm-18.97 2.21l4.794-.67 1.887 13.526-4.794.67zM324.68-30.35c-2.573.723-4.3 3.23-3.912 5.952l1.157 8.293 4.652-.65-1.897-13.596zm40.002 9.966l-38.144 5.322 7.175 51.418a5.43 5.43 0 0 0 6.127 4.626l27.4-3.822a5.43 5.43 0 0 0 4.626-6.127l-1.705-12.22.03-.004-3.376-24.194-.03.004-2.093-15.003zm1.45 30.166a5.43 5.43 0 0 1-4.627 6.126l-21.95 3.063a5.43 5.43 0 0 1-6.127-4.626l-1.313-9.4a5.43 5.43 0 0 1 4.627-6.126l21.95-3.063A5.43 5.43 0 0 1 364.82.373l1.313 9.4z" id="A" fill="#ec4a81"/><path d="M172.608 350.13h2.5v-3.138h3.202v-2.5h-3.202v-3.138h-2.5v3.138h-3.074v2.5h3.074zm-16.2 9.95H189.6a3.4 3.4 0 0 0 3.398-3.398v-21.876a3.4 3.4 0 0 0-3.398-3.398h-7.383a5.13 5.13 0 0 0 .126-1.116v-1.274c0-2.8-2.287-5.097-5.097-5.097h-8.496c-2.8 0-5.097 2.286-5.097 5.097v1.274c0 .384.047.757.126 1.116h-7.382a3.4 3.4 0 0 0-3.398 3.398v21.876a3.4 3.4 0 0 0 3.398 3.398zm10.654-31.064a1.7 1.7 0 0 1 1.699-1.699h8.496a1.7 1.7 0 0 1 1.699 1.699v1.274a1.68 1.68 0 0 1-.429 1.116H167.48a1.68 1.68 0 0 1-.429-1.116v-1.274zm2.776 8.234c1.633 0 3.093.72 4.093 1.856 1-1.136 2.46-1.856 4.092-1.856a5.46 5.46 0 0 1 5.459 5.459 5.45 5.45 0 0 1-1.929 4.16h.003l-7.5 7.367-7.737-7.367a5.45 5.45 0 0 1-1.929-4.16 5.46 5.46 0 0 1 5.46-5.459z" id="B" fill="#ec4a81"/><path d="M273.406 95.34l-7.048-3.538a5.32 5.32 0 0 0-.775-4.144l1.294-1.037c1.483.918 3.448.742 4.735-.545a3.84 3.84 0 0 0 0-5.435c-1.5-1.502-3.934-1.502-5.436 0-1.318 1.318-1.477 3.353-.48 4.847l-1.218.975c-.836-.665-1.825-1.045-2.837-1.135l-.696-5.974a5.29 5.29 0 0 0 1.522-1.059c2.08-2.08 2.08-5.453 0-7.532s-5.45-2.08-7.532.001-2.08 5.45 0 7.53c.893.893 2.024 1.4 3.2 1.526l1.233 5.806a5.3 5.3 0 0 0-1.956 1.238 5.37 5.37 0 0 0-.701.865l-3.904-1.96c.032-.563-.16-1.137-.59-1.57-.802-.8-2.1-.8-2.903 0s-.802 2.102 0 2.904c.758.758 1.957.79 2.764.115l3.97 1.994a5.34 5.34 0 0 0 .089 3.115l-5.325 3.724c-2.07-1.4-4.908-1.185-6.742.648-2.08 2.08-2.08 5.452 0 7.53s5.45 2.08 7.532-.001c1.445-1.446 1.883-3.516 1.32-5.343l4.494-4.493a5.3 5.3 0 0 0 2.875 1.481l.212 2.578c-.423.17-.82.426-1.162.77a3.49 3.49 0 0 0-.001 4.935c1.364 1.363 3.574 1.363 4.937 0a3.49 3.49 0 0 0-.002-4.935c-.602-.603-1.372-.924-2.16-.994l-.19-2.332c1.107-.155 2.174-.652 3.026-1.503.092-.09.173-.187.256-.284l6.693 4.41c-.17 1.55.34 3.16 1.525 4.346a5.33 5.33 0 0 0 7.531 0 5.33 5.33 0 0 0 0-7.531c-2.082-2.077-5.454-2.077-7.534.002z" id="C" fill="#ec4a81"/><path d="M353.016 158.835c6.133-6.927 3.8-14.635 1.54-17.92-.66-.962-1.98-1.205-2.94-.543s-1.207 1.98-.544 2.94c.187.274 4.247 6.347-1.072 12.543-5.245-6.14-1.262-12.258-1.067-12.55.655-.963.4-2.275-.55-2.934a2.12 2.12 0 0 0-2.943.543c-2.257 3.284-4.592 10.994 1.54 17.92-4.634 4.52-9.008 9.9-9.002 16.89.004 5.766 2.963 11.7 9 18.05-7.645 7.21-5.767 14.377-5.682 14.68.26.933 1.103 1.535 2.027 1.535.18 0 .366-.024.55-.074 1.118-.296 1.788-1.45 1.505-2.574-.052-.21-1.22-5.186 4.61-10.602 5.832 5.417 4.663 10.392 4.617 10.577-.313 1.126.343 2.29 1.468 2.606a2.05 2.05 0 0 0 .571.079c.925 0 1.775-.612 2.036-1.547.084-.305 1.965-7.47-5.68-14.68 6.045-6.352 9.004-12.283 9.008-18.05.002-6.983-4.372-12.367-9.005-16.886zm-3.018 2.963c1.914 1.858 3.715 3.806 5.108 5.897H344.9c1.39-2.09 3.193-4.04 5.107-5.897zm-6.95 9.435h13.898c.4 1.07.674 2.184.783 3.34h-15.463c.11-1.157.382-2.27.782-3.34zm6.95 19.56c-1.882-1.986-3.416-3.92-4.618-5.8h9.235c-1.202 1.877-2.736 3.81-4.617 5.8zm6.5-9.337h-13c-.482-1.14-.82-2.252-1.027-3.34h15.055c-.208 1.1-.544 2.202-1.027 3.34z" id="D" fill="#ec4a81"/><path d="M235.792 264.605a5.71 5.71 0 0 0 2.897 4.484 18.76 18.76 0 0 0 4.379 1.777c-.843 2.843-2.39 6.96-5.146 11.366-2.617 4.19-2.648 9.243-.082 13.87 3.78 6.818 12.128 11.4 20.775 11.4 5.94 0 11.218-2.735 14.865-7.7 5.212-7.1 6.367-17.58 3.088-28.026-3.04-9.684 1.026-14.85 3.716-17.07a12.14 12.14 0 0 0 8.455 3.417c6.736 0 12.2-5.463 12.2-12.203s-5.465-12.2-12.2-12.2-12.2 5.463-12.2 12.2a12.22 12.22 0 0 0 .323 2.754c-5.08 3.716-10.944 12.08-6.84 25.157 2.588 8.246 1.794 16.64-2.075 21.91-1.64 2.236-4.593 4.9-9.332 4.9-6.13 0-12.206-3.235-14.772-7.864-.946-1.708-1.73-4.294-.098-6.906 3.645-5.834 5.47-11.278 6.334-14.606 2.026-.305 4.003-.96 5.906-1.974 1.696-.906 2.736-2.545 2.966-4.316 8.06-7.288 11.783-20.42 11.998-21.187.435-1.576-.308-3.195-1.693-3.933 1.113-9.858-2.535-14.826-4.737-16.85.168-.947-.21-1.96-1.043-2.503l-4.045-2.644a2.02 2.02 0 0 0-2.964.783l-1.928 3.725c-.58 1.125-.07 2.324 1.144 2.682l4.574 1.348c1.16.342 2.55-.212 3.205-1.228 1.823 1.92 4.447 6.195 3.543 14.35-1.243.237-2.308 1.142-2.67 2.444-1.1 3.944-4.273 12.09-8.985 16.976-1.5-.58-3.224-.55-4.754.263-.996.532-1.97.8-2.97.82h-.206c-1.054-.023-2.082-.32-3.136-.91-1.492-.837-3.19-.91-4.7-.382-4.607-4.905-7.713-12.88-8.794-16.77a3.43 3.43 0 0 0-2.67-2.442c-.906-8.155 1.718-12.43 3.543-14.35.657 1.016 2.045 1.57 3.204 1.228l4.574-1.348c1.21-.358 1.726-1.56 1.144-2.682l-1.926-3.725a2.02 2.02 0 0 0-2.964-.783l-4.05 2.646c-.83.543-1.21 1.556-1.042 2.503-2.198 2.024-5.85 7-4.736 16.85a3.43 3.43 0 0 0-1.693 3.935c.2.752 3.82 13.465 11.61 20.816zm52.947-23.455a4.77 4.77 0 0 1 4.765 4.767 4.77 4.77 0 0 1-4.765 4.767 4.77 4.77 0 0 1-4.767-4.767c0-2.635 2.133-4.767 4.767-4.767z" id="E" fill="#ec4a81"/><path d="M187.25 179.187c.653.207 1.332.266 2 .153 1.112-.2 2.145-.826 2.814-1.84a4.23 4.23 0 0 0-1.203-5.861l-2.088-1.375 12.52-21.688a9.52 9.52 0 0 0-16.487-9.518l-11.96 20.715-1.355-.896c-1.952-1.285-4.576-.746-5.862 1.205a4.23 4.23 0 0 0 1.206 5.86l20.425 13.245zm-19.246 27.03l15.533-26.904-11.864-7.632-13.975 24.776a1.37 1.37 0 0 1-.841.653c-.336.1-.705.052-1.032-.13-.662-.373-.894-1.213-.522-1.875l14.015-24.845c.013-.025.037-.037.052-.06l-1.86-1.197-15.992 27.697c-2.203 3.814-1.454 8.514 1.52 11.484l-3.16 6.156c-.522 1.012-.12 2.256.892 2.777.474.243.998.286 1.476.158.542-.145 1.023-.5 1.3-1.05l2.987-5.82a9.5 9.5 0 0 0 5.69.247c2.355-.63 4.468-2.158 5.782-4.433z" id="F" fill="#ec4a81"/><path d="M80.43 64.003a11.62 11.62 0 0 0-16.428 0 11.62 11.62 0 0 0 0 16.428l30.58 30.58a11.62 11.62 0 0 0 16.428 0 11.62 11.62 0 0 0 0-16.428l-30.58-30.58zm-1.3 6.468c.752-.752 1.97-.752 2.722 0s.75 1.97 0 2.722-1.97.75-2.72 0-.752-1.97 0-2.72zm-13-1.608c-.752-.752-.752-1.97 0-2.722s1.97-.75 2.722 0 .75 1.97 0 2.72-1.97.752-2.722 0zm2.165 6.495c-.752-.752-.752-1.97 0-2.722s1.97-.752 2.722 0 .75 1.97 0 2.722-1.97.752-2.722 0zm4.886 6.495c-.752.752-1.97.752-2.722 0s-.75-1.97 0-2.722a1.92 1.92 0 0 1 2.72 0c.75.752.752 1.97 0 2.722zm-.557-10.824c-.752-.752-.752-1.97 0-2.722s1.97-.75 2.722 0a1.92 1.92 0 0 1 0 2.72c-.752.75-1.97.752-2.722 0zm2.165 6.495c-.752-.752-.752-1.97 0-2.722a1.92 1.92 0 0 1 2.72 0c.75.752.75 1.97 0 2.72s-1.97.752-2.72 0zm8.6 17.857l-3.758-3.757a8.48 8.48 0 0 1 0-11.988 8.48 8.48 0 0 1 11.988 0l3.757 3.758a8.48 8.48 0 0 1 0 11.988 8.48 8.48 0 0 1-11.988 0zm12.492 9.163c-.752.752-1.97.752-2.722 0s-.75-1.97 0-2.722a1.92 1.92 0 0 1 2.72 0c.75.752.75 1.97 0 2.72zm1.608-4.33a1.92 1.92 0 0 1 0-2.72c.752-.75 1.97-.752 2.72 0s.752 1.97 0 2.722-1.97.75-2.72 0zm4.886 6.495a1.93 1.93 0 0 1-2.722 0c-.752-.75-.75-1.97 0-2.722s1.97-.75 2.722 0 .752 1.97 0 2.722zm-.557-10.824c-.75-.752-.752-1.97 0-2.722s1.97-.75 2.722 0 .75 1.97 0 2.722-1.97.75-2.722 0zm2.165 6.495a1.93 1.93 0 0 1 0-2.722c.75-.752 1.97-.752 2.722 0s.752 1.97 0 2.722-1.97.752-2.722 0zm4.886 6.495c-.752.75-1.97.75-2.72 0s-.752-1.97 0-2.72 1.97-.752 2.722 0 .75 1.97 0 2.722zM111 80.43a11.62 11.62 0 0 0 0-16.428 11.62 11.62 0 0 0-16.428 0L89.486 69.1l16.428 16.428 5.097-5.097zM64.003 94.583a11.62 11.62 0 0 0 0 16.428 11.62 11.62 0 0 0 16.428 0l5.097-5.097L69.1 89.486l-5.097 5.097z" id="G" fill="#ec4a81"/><path d="M91.993 257.35c0-.95-.142-1.864-.4-2.73a15.68 15.68 0 0 0-1.577-4.953c-3.83-7.435-9.463-12.166-9.463-12.166s-.08 4.012-3.166 7.6c-5.718 6.624-4.57 13.296-4.57 13.296l.001.001a9.62 9.62 0 0 0 19.175-1.038zm-14.42-6.944c-.12.076-2.786 1.837-2.42 7.582a.52.52 0 0 1-.486.552c-.01 0-.022.001-.033.001a.52.52 0 0 1-.518-.486c-.4-6.425 2.776-8.45 2.912-8.534a.52.52 0 0 1 .715.173.52.52 0 0 1-.172.712zm24.704 19.427c0-.565-.084-1.106-.238-1.622a9.32 9.32 0 0 0-.937-2.943c-2.276-4.42-5.623-7.23-5.623-7.23s-.048 2.384-1.884 4.5c-3.398 3.936-2.715 7.9-2.715 7.9v.002c.307 2.865 2.733 5.098 5.68 5.098a5.72 5.72 0 0 0 5.716-5.715zm-8.568-4.127c-.07.045-1.655 1.092-1.437 4.506a.31.31 0 0 1-.29.328c-.182 0-.317-.126-.328-.3-.242-3.817 1.65-5.022 1.73-5.07a.31.31 0 0 1 .426.101c.087.146.043.336-.102.425zm.308 16.744a6.4 6.4 0 0 0-.646-2.024c-1.567-3.042-3.87-4.977-3.87-4.977s-.032 1.642-1.295 3.105c-2.34 2.7-1.87 5.438-1.87 5.438.212 1.974 1.882 3.51 3.9 3.51 2.172 0 3.933-1.762 3.933-3.932.001-.4-.058-.764-.162-1.12zm-5.733-1.723c-.05.03-1.14.752-1 3.1.007.117-.08.218-.2.226-.126 0-.218-.088-.226-.2-.167-2.626 1.136-3.456 1.192-3.5a.21.21 0 0 1 .291.069c.06.1.03.23-.07.294z" id="H" fill="#ec4a81"/><path id="I" d="M0 0h350v350H0z"/></defs><pattern id="J" width="350" height="350" patternUnits="userSpaceOnUse"><use xlink:href="#A" x="-350" y="-350"/><use xlink:href="#A" y="-350"/><use xlink:href="#A" x="350" y="-350"/><use xlink:href="#A" x="-350"/><use xlink:href="#A"/><use xlink:href="#A" x="350"/><use xlink:href="#A" x="-350" y="350"/><use xlink:href="#A" y="350"/><use xlink:href="#A" x="350" y="350"/></pattern><use xlink:href="#I" fill="url(#J)"/><pattern id="K" width="350" height="350" patternUnits="userSpaceOnUse"><use xlink:href="#B" x="-350" y="-350"/><use xlink:href="#B" y="-350"/><use xlink:href="#B" x="350" y="-350"/><use xlink:href="#B" x="-350"/><use xlink:href="#B"/><use xlink:href="#B" x="350"/><use xlink:href="#B" x="-350" y="350"/><use xlink:href="#B" y="350"/><use xlink:href="#B" x="350" y="350"/></pattern><use xlink:href="#I" fill="url(#K)"/><pattern id="L" width="350" height="350" patternUnits="userSpaceOnUse"><use xlink:href="#C" x="-350" y="-350"/><use xlink:href="#C" y="-350"/><use xlink:href="#C" x="350" y="-350"/><use xlink:href="#C" x="-350"/><use xlink:href="#C"/><use xlink:href="#C" x="350"/><use xlink:href="#C" x="-350" y="350"/><use xlink:href="#C" y="350"/><use xlink:href="#C" x="350" y="350"/></pattern><use xlink:href="#I" fill="url(#L)"/><pattern id="M" width="350" height="350" patternUnits="userSpaceOnUse"><use xlink:href="#D" x="-350" y="-350"/><use xlink:href="#D" y="-350"/><use xlink:href="#D" x="350" y="-350"/><use xlink:href="#D" x="-350"/><use xlink:href="#D"/><use xlink:href="#D" x="350"/><use xlink:href="#D" x="-350" y="350"/><use xlink:href="#D" y="350"/><use xlink:href="#D" x="350" y="350"/></pattern><use xlink:href="#I" fill="url(#M)"/><pattern id="N" width="350" height="350" patternUnits="userSpaceOnUse"><use xlink:href="#E" x="-350" y="-350"/><use xlink:href="#E" y="-350"/><use xlink:href="#E" x="350" y="-350"/><use xlink:href="#E" x="-350"/><use xlink:href="#E"/><use xlink:href="#E" x="350"/><use xlink:href="#E" x="-350" y="350"/><use xlink:href="#E" y="350"/><use xlink:href="#E" x="350" y="350"/></pattern><use xlink:href="#I" fill="url(#N)"/><pattern id="O" width="350" height="350" patternUnits="userSpaceOnUse"><use xlink:href="#F" x="-350" y="-350"/><use xlink:href="#F" y="-350"/><use xlink:href="#F" x="350" y="-350"/><use xlink:href="#F" x="-350"/><use xlink:href="#F"/><use xlink:href="#F" x="350"/><use xlink:href="#F" x="-350" y="350"/><use xlink:href="#F" y="350"/><use xlink:href="#F" x="350" y="350"/></pattern><use xlink:href="#I" fill="url(#O)"/><pattern id="P" width="350" height="350" patternUnits="userSpaceOnUse"><use xlink:href="#G" x="-350" y="-350"/><use xlink:href="#G" y="-350"/><use xlink:href="#G" x="350" y="-350"/><use xlink:href="#G" x="-350"/><use xlink:href="#G"/><use xlink:href="#G" x="350"/><use xlink:href="#G" x="-350" y="350"/><use xlink:href="#G" y="350"/><use xlink:href="#G" x="350" y="350"/></pattern><use xlink:href="#I" fill="url(#P)"/><pattern id="Q" width="350" height="350" patternUnits="userSpaceOnUse"><use xlink:href="#H" x="-350" y="-350"/><use xlink:href="#H" y="-350"/><use xlink:href="#H" x="350" y="-350"/><use xlink:href="#H" x="-350"/><use xlink:href="#H"/><use xlink:href="#H" x="350"/><use xlink:href="#H" x="-350" y="350"/><use xlink:href="#H" y="350"/><use xlink:href="#H" x="350" y="350"/></pattern><use xlink:href="#I" fill="url(#Q)"/></svg>