<svg xmlns="http://www.w3.org/2000/svg" xmlns:xlink="http://www.w3.org/1999/xlink" width="400" height="400" viewBox="0 0 350 350"><use xlink:href="#I" opacity="0" fill="#fff"/><defs><path d="M-42 363.32l9.17 2.457 17.8-66.4-4.075-1.092c-7.022-1.882-14.265 2.3-16.147 9.322l-16.424 61.295a7.92 7.92 0 0 1 9.688-5.593zm29.32-52.38l-16.424 61.295-14.263-3.822a2.64 2.64 0 0 0-3.229 1.864l-1.365 5.094-4.027-1.08c.765 5.02 4.4 9.37 9.62 10.767l74.2 19.882 20.52-76.576zm9.72 15.343a2.64 2.64 0 0 1 1.864 3.23c-.376 1.407-1.823 2.24-3.23 1.864s-2.24-1.823-1.864-3.23 1.823-2.24 3.23-1.864zm17.7 35.134a6.16 6.16 0 0 0-7.535 4.35l-1.82 6.792c-1.63 6.085-7.908 9.7-13.994 8.08s-9.7-7.908-8.08-13.994l8.28-30.902 5.094 1.365-8.28 30.902a6.16 6.16 0 0 0 4.35 7.535 6.16 6.16 0 0 0 7.535-4.35l1.82-6.792c1.63-6.085 7.908-9.7 13.994-8.08l.17.045c6.085 1.63 9.7 7.908 8.08 13.994l-5.094-1.365a6.16 6.16 0 0 0-4.35-7.535zm10.154 26.236l-4.566 2.636-2.637-4.567-4.567 2.636-2.636-4.566 4.567-2.637-2.636-4.567 4.566-2.636 2.637 4.567 4.567-2.636 2.636 4.566-4.567 2.637zm7.98-36.704l-5.87-10.168-4.7 2.708 3.26 5.646-4.567 2.637-5.87-10.168-10.168 5.87-2.636-4.567 14.735-8.507 2.6 4.52 9.257-5.345 8.507 14.735zm0 0" id="A" fill="#ec4a81"/><path d="M106.6 86.332a1.44 1.44 0 0 0-1.027.425c-.274.274-.425.64-.425 1.027a1.44 1.44 0 0 0 .425 1.027c.566.566 1.487.566 2.053 0a1.44 1.44 0 0 0 .425-1.027 1.44 1.44 0 0 0-.425-1.027 1.45 1.45 0 0 0-1.027-.425zm3.898-13.742c.8-1.63.54-3.667-.818-5.023-1.7-1.698-4.462-1.698-6.16 0a4.36 4.36 0 0 0-.818 5.023c-6.768 1.737-11.785 7.9-11.785 15.192 0 8.648 7.035 15.683 15.683 15.683s15.683-7.035 15.683-15.683c0-7.302-5.017-13.455-11.785-15.192zm-4.925-2.97a1.45 1.45 0 0 1 2.054 0c.274.274.425.64.425 1.027a1.44 1.44 0 0 1-.425 1.027c-.566.566-1.487.566-2.053 0a1.44 1.44 0 0 1-.425-1.027 1.44 1.44 0 0 1 .425-1.027zm4.107 21.242a4.34 4.34 0 0 1-3.08 1.274 4.36 4.36 0 0 1-1.877-.424l-2.846 2.846-2.054-2.053 2.846-2.846c-.77-1.62-.5-3.62.85-4.957s3.338-1.622 4.957-.85l2.846-2.846 2.054 2.053-2.846 2.846c.77 1.62.5 3.62-.85 4.957zm-21.624-1.82h-5.368a1.26 1.26 0 0 0-1.259 1.259v1.355a1.26 1.26 0 0 0 1.259 1.259 4.17 4.17 0 0 1 4.163 4.163v.3a4.17 4.17 0 0 1-4.163 4.163 1.26 1.26 0 0 0-1.259 1.259v2.033a1.26 1.26 0 0 0 1.259 1.259h1.743v2.904h-1.743a4.17 4.17 0 0 1-4.163-4.163V102.8a4.17 4.17 0 0 1 4.163-4.163 1.26 1.26 0 0 0 1.259-1.259v-.3a1.26 1.26 0 0 0-1.259-1.259 4.17 4.17 0 0 1-4.163-4.163V90.3a4.17 4.17 0 0 1 4.163-4.163h5.398c.2-2.16.75-4.213 1.62-6.1h-16.99v35.82h35.82v-9.588c-.636.066-1.282.1-1.936.1-9.826 0-17.895-7.664-18.544-17.33zm5.92 18.916l-2.053 2.054-1.297-1.297-1.297 1.297-2.053-2.054 1.296-1.297-1.296-1.296 2.053-2.054 1.297 1.297 1.297-1.297 2.053 2.054-1.296 1.296zm0 0" id="B" fill="#ec4a81"/><path d="M183.878 150.993l8.995-12.5c2.403-3.34 3.36-7.414 2.696-11.473a15.28 15.28 0 0 0-6.213-10.015 15.44 15.44 0 0 0-21.504 3.519c-2.403 3.34-3.36 7.414-2.696 11.473s2.87 7.615 6.213 10.015zm-3.937-24.057a2.311 2.311 0 0 1 .747 4.562 2.311 2.311 0 0 1-.747-4.562zm9.912 40.534l-18.856 3.086a7.56 7.56 0 0 1-8.671-6.232 7.56 7.56 0 0 1 6.232-8.671l11.308-1.85-5.313-3.815-6.74 1.103a12.19 12.19 0 0 0-10.047 13.979 12.19 12.19 0 0 0 13.979 10.047l18.856-3.086a7.56 7.56 0 0 1 8.671 6.232l.025.152a7.56 7.56 0 0 1-6.232 8.671l-41.717 6.826-3.82 5.3 46.283-7.574a12.19 12.19 0 0 0 10.047-13.979l-.025-.152a12.19 12.19 0 0 0-13.979-10.047zm-35.333 6.394a15.28 15.28 0 0 0-6.213-10.015 15.44 15.44 0 0 0-21.504 3.519c-2.403 3.34-3.36 7.414-2.696 11.473s2.87 7.615 6.213 10.015l12.5 8.98 8.995-12.5c2.403-3.34 3.36-7.414 2.696-11.473zm-14.88 4.478a2.311 2.311 0 1 1-.747-4.562 2.311 2.311 0 1 1 .747 4.562zm0 0" id="C" fill="#ec4a81"/><g id="D" fill="#ec4a81"><path d="M97.95 237.5l-8.984 5v3.858a16.24 16.24 0 0 1 8.984 3.73zM87.5 249.213a13.4 13.4 0 0 0-13.38 13.38c0 7.378 6.002 13.38 13.38 13.38s13.38-6.002 13.38-13.38-6.002-13.38-13.38-13.38zm0 20.215v-2.93a3.91 3.91 0 0 0 3.906-3.906h2.93c0 3.77-3.067 6.836-6.836 6.836zm0 0"/><path d="M73.255 270.524L62.6 281.188l6.215 6.215 10.636-10.636a16.42 16.42 0 0 1-6.187-6.242zM100.88 237.5v15.777a16.21 16.21 0 0 1 2.93 9.315l-.055 1.34 8.747 4.86v-24.836zm-14.845 5l-8.984-5v12.58c2.48-2.075 5.584-3.427 8.984-3.73zM71.2 262.6c0-3.46 1.084-6.672 2.93-9.315V237.5l-11.62 6.456v24.836l8.747-4.86-.055-1.34zm0 0"/></g><g id="E" fill="#ec4a81"><path d="M237.627 284.387l5.212-19.45c-5.766-.525-10.87-3.376-14.362-7.607l-10.9 40.637 5.1 1.366-1.822 6.8 5.1 1.367 1.822-6.8 5.1 1.366 3.322-12.4h11.65l-1.414-5.28zm15.063-60.064V217.5h-15.84v6.823a21.01 21.01 0 0 1 15.842 0zm0 0"/><path d="M244.77 259.744c8.735 0 15.842-7.107 15.842-15.842s-7.107-15.842-15.842-15.842-15.842 7.106-15.842 15.842 7.106 15.842 15.842 15.842zm0-18.482a2.64 2.64 0 1 1 0 5.28 2.64 2.64 0 1 1 0-5.28zm27.183 56.704l-10.9-40.637c-3.492 4.23-8.596 7.08-14.362 7.607l9.95 37.13 5.1-1.366 1.822 6.8 5.1-1.367-1.822-6.8zm0 0"/></g><path d="M190.34 348.826H195a20.03 20.03 0 0 0-.796-4.565l-15.683 5.706.001.032c0 1.942-1.58 3.522-3.522 3.522s-3.522-1.58-3.522-3.522 1.58-3.522 3.522-3.522l.34.017 1.062-2.277a5.95 5.95 0 0 0-1.401-.166c-3.28 0-5.948 2.668-5.948 5.948s2.668 5.948 5.948 5.948v2.348a8.31 8.31 0 0 1-8.296-8.296c0-4.574 3.72-8.296 8.296-8.296a8.25 8.25 0 0 1 2.408.355l1.134-2.432a10.89 10.89 0 0 0-3.542-.584c-6.04 0-10.956 4.915-10.956 10.956h-2.348c0-7.336 5.968-13.304 13.304-13.304a13.21 13.21 0 0 1 4.538.795l2.85-6.123c-1.966-.78-4.058-1.243-6.214-1.367v4.66h-2.348V330a19.91 19.91 0 0 0-12.993 5.833 19.89 19.89 0 0 0-5.833 12.993h4.66v2.348H155a19.91 19.91 0 0 0 5.833 12.993A19.89 19.89 0 0 0 173.826 370v-4.66h2.348V370a19.91 19.91 0 0 0 12.993-5.833A19.89 19.89 0 0 0 195 351.174h-4.66zm-9.47 6.26c-.648 0-1.174-.526-1.174-1.174s.526-1.174 1.174-1.174 1.174.526 1.174 1.174-.526 1.174-1.174 1.174zm-3.153-7.324l15.686-5.706c-1-2.294-2.416-4.403-4.236-6.223-1.392-1.392-2.952-2.552-4.635-3.465l-7.066 15.12.25.273zm6.205-7.153c.648 0 1.174.526 1.174 1.174s-.526 1.174-1.174 1.174-1.174-.526-1.174-1.174.526-1.174 1.174-1.174zM173.826 350c0 .647.527 1.174 1.174 1.174s1.174-.527 1.174-1.174-.527-1.174-1.174-1.174-1.174.526-1.174 1.174zm0 0" id="F" fill="#ec4a81"/><g id="G" fill="#ec4a81"><path d="M267.08 82.92l-4.558-15.42-4.558 15.42-15.426 4.58 15.426 4.58 4.558 15.42 4.558-15.42 15.425-4.58zm1.888 11.044l-1.152 3.897 7.166 2.1-2.097-7.16zm0 0"/><path d="M256.077 81.036l1.152-3.897-7.166-2.1 2.097 7.16zm-3.917 11.766l-2.097 7.16 7.166-2.1-1.152-3.897zm20.726-10.604l2.097-7.16-7.166 2.1 1.152 3.897zm0 0"/></g><g id="H" fill="#ec4a81"><path d="M315 205.9h70v4.1h-70zm24.063-4.103h4.102v-3.555h13.672v3.555h4.102v-3.555h9.57v-15.04h-41.016v15.04h9.57zm2.05-14.492h17.773v4.102h-17.773zm12.99-8.203h4.102v-15.04h12.305v-4.922h-24.6V140h-4.102v19.14h-12.305v4.922h24.6zm8.203-10.938h8.203v10.938h-8.203zm0 0"/><path d="M329.492 168.164H350v10.938h-20.508zM350 140h20.508v15.04H350zm0 0"/><path d="M329.492 140h8.203v15.04h-8.203zm0 0"/></g><path id="I" d="M0 0h350v350H0z"/></defs><pattern id="J" width="350" height="350" patternUnits="userSpaceOnUse"><use xlink:href="#A" x="-350" y="-350"/><use xlink:href="#A" y="-350"/><use xlink:href="#A" x="350" y="-350"/><use xlink:href="#A" x="-350"/><use xlink:href="#A"/><use xlink:href="#A" x="350"/><use xlink:href="#A" x="-350" y="350"/><use xlink:href="#A" y="350"/><use xlink:href="#A" x="350" y="350"/></pattern><use xlink:href="#I" fill="url(#J)"/><pattern id="K" width="350" height="350" patternUnits="userSpaceOnUse"><use xlink:href="#B" x="-350" y="-350"/><use xlink:href="#B" y="-350"/><use xlink:href="#B" x="350" y="-350"/><use xlink:href="#B" x="-350"/><use xlink:href="#B"/><use xlink:href="#B" x="350"/><use xlink:href="#B" x="-350" y="350"/><use xlink:href="#B" y="350"/><use xlink:href="#B" x="350" y="350"/></pattern><use xlink:href="#I" fill="url(#K)"/><pattern id="L" width="350" height="350" patternUnits="userSpaceOnUse"><use xlink:href="#C" x="-350" y="-350"/><use xlink:href="#C" y="-350"/><use xlink:href="#C" x="350" y="-350"/><use xlink:href="#C" x="-350"/><use xlink:href="#C"/><use xlink:href="#C" x="350"/><use xlink:href="#C" x="-350" y="350"/><use xlink:href="#C" y="350"/><use xlink:href="#C" x="350" y="350"/></pattern><use xlink:href="#I" fill="url(#L)"/><pattern id="M" width="350" height="350" patternUnits="userSpaceOnUse"><use xlink:href="#D" x="-350" y="-350"/><use xlink:href="#D" y="-350"/><use xlink:href="#D" x="350" y="-350"/><use xlink:href="#D" x="-350"/><use xlink:href="#D"/><use xlink:href="#D" x="350"/><use xlink:href="#D" x="-350" y="350"/><use xlink:href="#D" y="350"/><use xlink:href="#D" x="350" y="350"/></pattern><use xlink:href="#I" fill="url(#M)"/><pattern id="N" width="350" height="350" patternUnits="userSpaceOnUse"><use xlink:href="#E" x="-350" y="-350"/><use xlink:href="#E" y="-350"/><use xlink:href="#E" x="350" y="-350"/><use xlink:href="#E" x="-350"/><use xlink:href="#E"/><use xlink:href="#E" x="350"/><use xlink:href="#E" x="-350" y="350"/><use xlink:href="#E" y="350"/><use xlink:href="#E" x="350" y="350"/></pattern><use xlink:href="#I" fill="url(#N)"/><pattern id="O" width="350" height="350" patternUnits="userSpaceOnUse"><use xlink:href="#F" x="-350" y="-350"/><use xlink:href="#F" y="-350"/><use xlink:href="#F" x="350" y="-350"/><use xlink:href="#F" x="-350"/><use xlink:href="#F"/><use xlink:href="#F" x="350"/><use xlink:href="#F" x="-350" y="350"/><use xlink:href="#F" y="350"/><use xlink:href="#F" x="350" y="350"/></pattern><use xlink:href="#I" fill="url(#O)"/><pattern id="P" width="350" height="350" patternUnits="userSpaceOnUse"><use xlink:href="#G" x="-350" y="-350"/><use xlink:href="#G" y="-350"/><use xlink:href="#G" x="350" y="-350"/><use xlink:href="#G" x="-350"/><use xlink:href="#G"/><use xlink:href="#G" x="350"/><use xlink:href="#G" x="-350" y="350"/><use xlink:href="#G" y="350"/><use xlink:href="#G" x="350" y="350"/></pattern><use xlink:href="#I" fill="url(#P)"/><pattern id="Q" width="350" height="350" patternUnits="userSpaceOnUse"><use xlink:href="#H" x="-350" y="-350"/><use xlink:href="#H" y="-350"/><use xlink:href="#H" x="350" y="-350"/><use xlink:href="#H" x="-350"/><use xlink:href="#H"/><use xlink:href="#H" x="350"/><use xlink:href="#H" x="-350" y="350"/><use xlink:href="#H" y="350"/><use xlink:href="#H" x="350" y="350"/></pattern><use xlink:href="#I" fill="url(#Q)"/></svg>