<svg xmlns="http://www.w3.org/2000/svg" xmlns:xlink="http://www.w3.org/1999/xlink" width="400" height="400" viewBox="0 0 350 350"><use xlink:href="#I" opacity="0" fill="#fff"/><defs><path d="M32.663 181h-1.048v-9.436a4.43 4.43 0 0 0-1.879-3.62v-1.285c0-1.864-1.516-3.38-3.38-3.38h-.782l2.993-4.4c1.003-1.472.622-3.486-.85-4.5L7.4 140.562c-.713-.486-1.572-.665-2.42-.504a3.21 3.21 0 0 0-2.068 1.355l-17.528 25.72h-4.877l1.177-11.912c.013-.134.1-.25.222-.296 1.516-.572 2.83-1.64 3.7-3.006a.35.35 0 0 1 .331-.156l7.65.756a1 1 0 0 0 1.091-.895 1 1 0 0 0-.895-1.091l-7.65-.756a2.33 2.33 0 0 0-2.21 1.07c-.64 1.005-1.605 1.8-2.72 2.2a2.33 2.33 0 0 0-1.504 1.967l-1.196 12.108h-1.272l1.86-18.84c.067-.678.672-1.176 1.35-1.108L-4.1 148.7a1 1 0 0 0 1.091-.895 1 1 0 0 0-.895-1.091l-15.46-1.527c-1.772-.175-3.357 1.125-3.533 2.897l-1.5 15.185h-2.555c-1.863 0-3.38 1.516-3.38 3.38v.876c-1.525.702-2.586 2.243-2.586 4.028v34A4.44 4.44 0 0 0-28.472 210h55.654a4.44 4.44 0 0 0 4.433-4.433v-9.436h1.048c1.236 0 2.242-1.006 2.242-2.242v-10.646c0-1.236-1.006-2.242-2.242-2.242zm-6.306-15.725c.764 0 1.385.62 1.385 1.385v.508a4.49 4.49 0 0 0-.56-.037H22.95l1.265-1.857h2.142zM4.57 142.536a1.23 1.23 0 0 1 .791-.518c.078-.015.155-.022.233-.022.246 0 .486.074.693.215l20.307 13.84a1.24 1.24 0 0 1 .325 1.717l-6.383 9.366h-1.532l3.13-4.592a2.33 2.33 0 0 0 .109-2.474c-.585-1.038-.823-2.26-.668-3.44.115-.88-.272-1.736-1-2.24l-10.527-7.174a2.33 2.33 0 0 0-2.453-.12c-1.042.576-2.267.802-3.446.636a2.36 2.36 0 0 0-2.262 1.006l-12.537 18.397h-1.532L4.57 142.536zM5 159.474c-4.344 0-7.9 3.387-8.2 7.658h-5.056l11.77-17.273c.067-.098.178-.157.292-.157a.34.34 0 0 1 .046.003c1.605.224 3.27-.083 4.687-.866.112-.062.255-.053.365.022l10.527 7.174c.1.075.17.205.154.332a7.58 7.58 0 0 0 .909 4.679c.064.113.056.26-.02.37l-3.895 5.715h-3.38c-.3-4.27-3.856-7.658-8.2-7.658zm6.2 7.658H-1.2c.286-3.17 2.956-5.663 6.2-5.663s5.914 2.493 6.2 5.663zm-39.533-.472c0-.764.62-1.385 1.385-1.385h2.358l-.183 1.857h-3.56v-.472zm-2.586 4.905a2.44 2.44 0 0 1 2.439-2.438h55.654a2.44 2.44 0 0 1 2.438 2.438v2.768H-30.9v-2.768zm60.53 34a2.44 2.44 0 0 1-2.438 2.438H-28.47a2.44 2.44 0 0 1-2.439-2.438V202.8h5.38a1 1 0 0 0 .997-.997 1 1 0 0 0-.997-.997h-5.38V176.33h60.53V181h-9.484c-2.988 0-5.576 1.742-6.805 4.263-.004.008-.01.017-.013.025-.01.02-.02.044-.03.065a7.52 7.52 0 0 0-.377.964c-.222.712-.34 1.466-.34 2.247 0 4.17 3.394 7.565 7.565 7.565h9.484v4.673h-48.765a1 1 0 0 0-.997.997 1 1 0 0 0 .997.997H29.62v2.768zm3.3-11.678c0 .136-.1.247-.248.247H20.137c-2.112 0-3.953-1.18-4.897-2.917a5.67 5.67 0 0 1-.123-.24 5.51 5.51 0 0 1-.212-.5c-.22-.597-.34-1.24-.34-1.913s.12-1.316.34-1.913a5.61 5.61 0 0 1 .212-.5 5.67 5.67 0 0 1 .123-.24c.944-1.736 2.785-2.917 4.897-2.917h12.526c.136 0 .248.1.248.247v10.645zm-12.55-9.367a4.05 4.05 0 0 0-4.047 4.047 4.05 4.05 0 0 0 4.047 4.047 4.05 4.05 0 0 0 4.047-4.047 4.05 4.05 0 0 0-4.047-4.047zm0 6.1c-1.13 0-2.052-.92-2.052-2.052s.92-2.052 2.052-2.052 2.052.92 2.052 2.052-.92 2.052-2.052 2.052z" id="A" fill="#ec4a81"/><path d="M111.788 252.572a.71.71 0 0 0-.712.712v28.634c0 .378-.308.685-.685.685H90.694a.712.712 0 1 0 0 1.423h19.697a2.11 2.11 0 0 0 2.109-2.109v-28.634a.71.71 0 0 0-.712-.712zM110.4 238.12H64.6a2.11 2.11 0 0 0-2.109 2.109v41.7a2.11 2.11 0 0 0 2.109 2.109h1.473a.712.712 0 1 0 0-1.423H64.6c-.378 0-.685-.308-.685-.685v-41.7c0-.378.308-.685.685-.685h45.783c.378 0 .685.308.685.685v8.522a.712.712 0 1 0 1.423 0v-8.522a2.11 2.11 0 0 0-2.109-2.109zm-11.17 28.015h-3.657c-.763 0-1.384.62-1.384 1.384v3.657c0 .763.62 1.383 1.384 1.383h3.657c.763 0 1.384-.62 1.384-1.383v-3.657c0-.763-.62-1.384-1.384-1.384zm-.04 5H95.6v-3.578h3.578v3.578zm7.974-5h-3.657c-.763 0-1.384.62-1.384 1.384v3.657c0 .763.62 1.383 1.384 1.383h3.657c.763 0 1.384-.62 1.384-1.383v-3.657c0-.763-.62-1.384-1.384-1.384zm-.04 5h-3.578v-3.578h3.578v3.578zm-7.894 2.767h-3.657c-.763 0-1.384.62-1.384 1.384v3.657c0 .763.62 1.384 1.384 1.384h3.657c.763 0 1.384-.62 1.384-1.384v-3.657c0-.763-.62-1.384-1.384-1.384zm-.04 5H95.6v-3.578h3.578v3.578zm7.974-5h-3.657c-.763 0-1.384.62-1.384 1.384v3.657c0 .763.62 1.384 1.384 1.384h3.657c.763 0 1.384-.62 1.384-1.384v-3.657c0-.763-.62-1.384-1.384-1.384zm-.04 5h-3.578v-3.578h3.578v3.578zm1.423-34.71a2.05 2.05 0 0 0-2.049-2.049H68.512a2.05 2.05 0 0 0-2.049 2.049v16.036a2.05 2.05 0 0 0 2.049 2.049h37.977a2.05 2.05 0 0 0 2.049-2.049v-16.036zm-1.423 16.036c0 .345-.28.626-.626.626H68.512c-.345 0-.626-.28-.626-.626v-16.036c0-.345.28-.626.626-.626h37.977c.345 0 .626.28.626.626v16.036zm-16.564 7.868c0-1.082-.88-1.962-1.962-1.962H68.424c-1.082 0-1.962.88-1.962 1.962s.88 1.962 1.962 1.962h1.03l-1.6 15.04a1.61 1.61 0 0 0-.002.313l.001.02.006.036a1.55 1.55 0 0 0 .389.85c.278.3.67.502 1.1.55a1.89 1.89 0 0 0 .207.012H87.48c.5 0 .985-.205 1.306-.56a1.56 1.56 0 0 0 .393-1.22l-1.6-15.04h1.03c1.082 0 1.962-.88 1.962-1.962zm-22.125.54a.54.54 0 0 1-.539-.539.54.54 0 0 1 .539-.539h1.298l-.115 1.077h-1.182zm4.13 16.82h-3c-.106 0-.196-.033-.247-.1a.14.14 0 0 1-.037-.117l.368-3.438c1.663.298 2.93 1.755 2.93 3.502l-.003.142zm1.422 0l.004-.142a4.99 4.99 0 0 0-4.2-4.919l1.374-12.836H85.86l1.374 12.836a4.99 4.99 0 0 0-4.2 4.919l.004.142h-9.06zm13.776-.207c.005.046-.007.084-.037.117a.33.33 0 0 1-.247.1h-3l-.003-.142c0-1.747 1.266-3.204 2.93-3.502l.368 3.438zm-.347-16.614l-.115-1.077h1.298a.54.54 0 0 1 .539.539.54.54 0 0 1-.539.539h-1.183zm-2.17 5.594c-.214-2.92-3.17-5.205-6.73-5.205S72 271.3 71.776 274.23c-.098 1.337.388 2.654 1.37 3.7 1.278 1.375 3.232 2.164 5.36 2.164s4.08-.8 5.36-2.164c.98-1.056 1.468-2.374 1.37-3.7zm-2.412 2.74c-1 1.087-2.583 1.7-4.317 1.7s-3.307-.623-4.317-1.7c-.72-.774-1.063-1.686-.993-2.637.16-2.18 2.492-3.886 5.3-3.886s5.15 1.707 5.3 3.886c.07.95-.274 1.863-.993 2.637zm-.502-2.67h-.286c-.1-.937-.592-1.873-1.834-1.873-1.262 0-1.617.986-1.933 1.873h-2.317c.08-1.006.77-1.272.77-1.597 0-.246-.325-.454-.562-.454-.483 0-1.144.828-1.163 2.05H74.7c-.118 0-.227.118-.227.286 0 .148.108.296.227.296h.335c.148 1.065.818 1.795 2.03 1.795 1.34 0 1.775-.937 2.1-1.795h2.002c-.05.7-.365.947-.365 1.183 0 .296.375.434.562.434.483 0 .7-.947.7-1.617h.266c.118 0 .227-.148.227-.296 0-.168-.108-.286-.227-.286zm-5.374 1.4c-.562 0-.878-.335-.976-.868h2.08c-.207.483-.483.868-1.104.868zm2.386-1.33c.197-.523.404-.946.966-.947.513 0 .76.394.828.947h-1.795zm1.416-18.655l-2.16-7.05c-.127-.404-.647-.6-1.18-.6s-1.052.196-1.18.6l-2.15 7.05c-.012.046-.023.092-.023.127 0 .428.66.74 1.156.74.3 0 .52-.092.6-.335l.393-1.445h2.44l.393 1.445c.07.243.3.335.6.335.497 0 1.156-.312 1.156-.74 0-.035-.012-.08-.023-.127zm-4.184-2.3l.844-3.097.844 3.097h-1.687zm12.634-5.282h-4.993c-.38 0-.543.416-.543.797 0 .44.196.82.543.82h1.595v6.276c0 .37.45.555.9.555s.9-.185.9-.555v-6.276H89.2c.347 0 .543-.38.543-.82 0-.38-.162-.797-.543-.797zm10.84 0c-.647 0-.925.07-1.398.9l-1.2 2.08-1.2-2.08c-.474-.832-.75-.9-1.398-.9-.45 0-.9.243-.9.9v6.992c0 .37.45.555.9.555s.9-.185.9-.555v-4.45l1.098 2a.59.59 0 0 0 .566.335.66.66 0 0 0 .601-.335l1.1-1.895v4.334c0 .37.45.555.9.555s.9-.185.9-.555v-6.992c0-.66-.44-.9-.9-.9z" id="B" fill="#ec4a81"/><path d="M11.647 306.533c-.686-.184-1.4.223-1.574.9l-1.75 6.53a1.28 1.28 0 0 0 .91 1.574c.687.174 1.4-.223 1.574-.9l1.75-6.53c.184-.686-.223-1.4-.9-1.574zm28.798 49.88l-6.53-1.75c-.686-.184-1.4.223-1.574.9s.223 1.4.9 1.574l6.53 1.75c.686.184 1.4-.223 1.574-.9s-.223-1.4-.9-1.574zm-72.15-19.333l-6.53-1.75c-.686-.184-1.4.223-1.574.9s.223 1.4.9 1.574l6.53 1.75c.686.184 1.4-.223 1.574-.9s-.223-1.4-.9-1.574zm53.955 44.662l-3.38-5.854c-.355-.615-1.14-.825-1.756-.47s-.825 1.14-.47 1.756l3.38 5.854a1.28 1.28 0 0 0 1.756.47c.615-.355.825-1.14.47-1.756zm-37.347-64.688l-3.38-5.854c-.355-.615-1.14-.825-1.756-.47s-.825 1.14-.47 1.756l3.38 5.854a1.28 1.28 0 0 0 1.756.47c.615-.355.825-1.14.47-1.756zm52.254 9.054c-.355-.615-1.14-.825-1.756-.47l-5.854 3.38c-.615.355-.825 1.14-.47 1.756a1.28 1.28 0 0 0 1.756.471l5.854-3.38c.615-.355.825-1.14.47-1.756zm-64.687 37.348c-.355-.615-1.14-.825-1.756-.47l-5.854 3.38c-.615.355-.825 1.14-.47 1.756a1.28 1.28 0 0 0 1.756.471l5.854-3.38c.615-.355.825-1.14.47-1.756zm52.888-16.823c.05-.708-.48-1.323-1.2-1.374s-1.323.483-1.374 1.2a21.67 21.67 0 0 1-.684 4.059c-1.222 4.56-3.832 8.498-7.547 11.388-5.66 4.403-9.803 10.208-12 16.807l-19.134-5.127a35.59 35.59 0 0 0 .724-6.161c.038-1.304.003-2.62-.106-3.913-.126-1.507-.354-3.014-.677-4.48a33.28 33.28 0 0 0-1.825-5.747c-1.882-4.466-2.2-9.305-.92-13.994 1.472-5.387 5.03-9.945 10.02-12.834s10.714-3.704 16.12-2.297a21.39 21.39 0 0 1 15.168 14.6c.205.68.923 1.064 1.602.858s1.064-.923.858-1.602a24.2 24.2 0 0 0-6.207-10.255c-2.942-2.885-6.607-4.972-10.6-6.045l-.164-.043c-6.063-1.58-12.475-.67-18.055 2.56s-9.56 8.337-11.212 14.38c-1.434 5.25-1.078 10.668 1.03 15.67.717 1.7 1.283 3.484 1.684 5.302a31.52 31.52 0 0 1 .626 4.142 32.27 32.27 0 0 1 .098 3.624c-.06 2.025-.3 4.065-.746 6.063a2.17 2.17 0 0 0 1.555 2.557l-2.532 9.448a5.59 5.59 0 0 0 3.948 6.838l9.1 2.435a5.59 5.59 0 0 0 6.839-3.948l2.532-9.448a2.17 2.17 0 0 0 2.625-1.436c2.005-6.254 5.894-11.76 11.247-15.925a23.84 23.84 0 0 0 8.452-12.752 24.26 24.26 0 0 0 .765-4.543zM-6.437 392.2l-9.1-2.435c-1.47-.394-2.4-1.815-2.207-3.284l14.85 3.98c-.574 1.364-2.083 2.135-3.553 1.74zm5.722-9.715l-5.027-1.347c-.686-.184-1.4.223-1.574.9s.223 1.4.9 1.574l5.027 1.347-.808 3.016-14.9-3.995.808-3.016 2.1.563c.686.184 1.4-.223 1.574-.9s-.223-1.4-.9-1.574l-2.1-.563.5-1.863 14.9 3.995-.5 1.863zm2.717-34.405l-.1-.07 1.932-7.2.178.062c1.465.507 2.26 1.214 2.843 1.73.344.305.615.546.892.62.872.234 1.636-.797 1.802-1.414.225-.84-.617-1.634-1.364-2.15-.878-.608-2.165-1.2-3.44-1.582l-.164-.05.3-1.084c.08-.304-.265-.728-.687-.84-.505-.135-.902.1-.98.394l-.305 1.14-.156-.025c-1.952-.3-6.636-.5-7.965 4.47-1.14 4.25 1.914 6.356 4.6 8.213l.102.07-2.224 8.3-.18-.063c-2.182-.772-3.103-2.106-3.775-3.08-.367-.532-.657-.952-1.014-1.047-.72-.193-1.663.623-1.87 1.396-.408 1.523 1.68 4.5 5.88 5.698l.166.047-.327 1.222c-.08.295.148.697.653.832.422.113.934-.08 1.015-.385l.35-1.305.152.02c3.987.496 6.86-1.408 7.88-5.222 1.2-4.446-1.418-6.73-4.192-8.686zm-1.425-.983l-.206-.148c-1.66-1.192-3-2.346-2.44-4.4.456-1.7 1.918-2.43 4.227-2.112l.197.027-1.777 6.632zm-1.628 11.918l-.2-.017 2.048-7.643.2.165c1.424 1.12 2.656 2.477 2.035 4.798-.5 1.906-1.96 2.864-4.08 2.697z" id="C" fill="#ec4a81"/><path d="M286.768 261.07a1.31 1.31 0 0 0-1.31 1.31c0 .917-.746 1.663-1.663 1.663s-1.663-.746-1.663-1.663a1.31 1.31 0 1 0-2.62 0 4.29 4.29 0 0 0 4.283 4.283 4.29 4.29 0 0 0 4.283-4.283 1.31 1.31 0 0 0-1.31-1.31zm12.294.213l-3.686-1.18a1.54 1.54 0 0 1-.995-1.008 23.77 23.77 0 0 0-3.485-6.893c-.7-.96-1.478-1.875-2.328-2.746.544-2.386.84-5.086.8-7.42-.055-3.337-.722-5.295-2.04-5.984-.7-.372-2.868-1.502-14.552 3.846a4.25 4.25 0 0 0-.774.461 50.81 50.81 0 0 0-2.403-.583l-.296-.06a17.82 17.82 0 0 0 1.603-6.633 1.31 1.31 0 0 0-1.25-1.367 1.31 1.31 0 0 0-1.367 1.25c-.17 3.813-1.752 7.4-4.453 10.102-1.614 1.614-3.503 2.786-5.517 3.524a37.24 37.24 0 0 0-10.543 0 15.16 15.16 0 0 1-5.517-3.524c-2.882-2.882-4.47-6.713-4.47-10.8s1.587-7.907 4.47-10.8 6.713-4.47 10.8-4.47 7.907 1.587 10.8 4.47a15.25 15.25 0 0 1 2.844 3.927 1.31 1.31 0 0 0 2.34-1.178 17.86 17.86 0 0 0-3.332-4.602 17.76 17.76 0 1 0-25.282 25.282 17.86 17.86 0 0 0 3.154 2.513 37.01 37.01 0 0 0-2.421.716 1.31 1.31 0 0 0 .831 2.485 35.15 35.15 0 0 1 22.154 0 1.31 1.31 0 0 0 .83-2.485 36.85 36.85 0 0 0-2.422-.716 17.82 17.82 0 0 0 3.155-2.513c.862-.862 1.622-1.803 2.283-2.803l1.073.22a49.03 49.03 0 0 1 1.403.327c-.015.057-.03.114-.042.172-.64 3.03-.597 5.712.123 7.968.648 2.028 1.816 3.67 3.473 4.883 1.953 1.43 4.3 2.046 6.447 2.046 1.608 0 3.1-.35 4.178-.966 1.23-.697 2.263-2.167 3.08-4.373.377.44.735.892 1.072 1.354a21.15 21.15 0 0 1 3.102 6.134c.406 1.3 1.413 2.306 2.695 2.717l3.686 1.18a2.32 2.32 0 0 1 1.617 2.216v6.113a2.32 2.32 0 0 1-1.617 2.216l-5.94 1.902c-.95.305-1.754.958-2.264 1.84-2.333 4.033-6.002 7.37-10.905 9.92a2.05 2.05 0 0 0-1.077 1.447l-1.902 10.073a.59.59 0 0 1-.578.479h-6.185a.59.59 0 0 1-.578-.479l-1.054-5.567a2.06 2.06 0 0 0-2.34-1.655 54.64 54.64 0 0 1-8.16.607 52.22 52.22 0 0 1-6.003-.339c-1.07-.123-2.07.607-2.27 1.665l-1 5.3a.59.59 0 0 1-.578.479h-6.185a.59.59 0 0 1-.579-.483l-1.832-9.514c-.118-.613-.503-1.134-1.057-1.43C229.42 284.096 225 276.64 225 267c0-4.87 1.066-9.177 3.167-12.8 1.96-3.382 4.825-6.178 8.513-8.3a1.31 1.31 0 0 0-1.312-2.268c-7.15 4.136-11.463 10.518-12.65 18.623l-.378-.036a6.52 6.52 0 0 0-.48-2.613c-.76-1.9-2.32-3.252-3.977-3.473-1.305-.175-2.547.38-3.4 1.518-1.25 1.65-1.046 2.958-.655 3.763.66 1.36 2.355 2.32 5.17 2.925a5.14 5.14 0 0 1-.256.349c-1.663 2.085-3.622 2.546-4.894 2.6-.745.025-1.34.623-1.34 1.368v.006a1.37 1.37 0 0 0 1.314 1.368 6.89 6.89 0 0 0 .295.007c1.6 0 4.193-.594 6.674-3.705a7.47 7.47 0 0 0 .956-1.545l.712.073a34.47 34.47 0 0 0-.069 2.161c0 5.454 1.3 10.317 3.864 14.454 2.364 3.814 5.75 6.938 10.064 9.287l1.78 9.25a3.21 3.21 0 0 0 3.152 2.611h6.185a3.21 3.21 0 0 0 3.152-2.611l.905-4.783a55.2 55.2 0 0 0 5.795.3c2.7 0 5.397-.188 8.025-.56l.954 5.042a3.21 3.21 0 0 0 3.152 2.611h6.185a3.21 3.21 0 0 0 3.152-2.612l1.852-9.807c5.233-2.767 9.177-6.402 11.725-10.806.184-.317.467-.55.796-.656l5.94-1.902a4.93 4.93 0 0 0 3.438-4.711v-6.113a4.93 4.93 0 0 0-3.438-4.711zm-12.5-15.567c-.504 4.3-1.856 8-3.215 8.77-1.544.875-5.1 1.044-7.787-.915s-3.572-5.486-2.58-10.196a1.58 1.58 0 0 1 .899-1.094c6.557-3.002 10.338-3.983 11.742-3.983.212 0 .37.022.475.063.422.45.975 3.006.466 7.357zm-70.375 14.542c-.136-.28.184-.77.387-1.04.322-.425.618-.512.84-.512a.92.92 0 0 1 .132.01c.602.08 1.446.743 1.893 1.854a3.99 3.99 0 0 1 .274 1.235c-1.813-.376-3.222-.917-3.528-1.548zm38.133-29.483v-4.687c1.616.115 2.217.854 2.77.854.693 0 1.016-.877 1.016-1.316 0-1.132-2.217-1.616-3.787-1.663v-.624c0-.277-.346-.53-.693-.53-.393 0-.67.254-.67.53v.67c-2.194.23-4.387 1.386-4.387 4.295 0 2.956 2.3 3.787 4.387 4.526v5.426c-2.355-.185-2.98-1.8-3.74-1.8-.577 0-1.062.762-1.062 1.316 0 1.13 1.94 2.678 4.803 2.725v.716c0 .277.277.53.67.53.346 0 .693-.254.693-.53v-.785c2.494-.346 4.202-1.917 4.202-4.757 0-3.14-2.194-4.156-4.202-4.895zm-1.224-.44c-1.224-.462-2.217-.947-2.217-2.263 0-1.2.924-1.778 2.217-1.94v4.202zm1.085 7.874v-4.872c1.13.485 2.032 1.13 2.032 2.586 0 1.316-.785 2.055-2.032 2.286z" id="D" fill="#ec4a81"/><path d="M196.343 152.564h-47.337a3.01 3.01 0 0 0-3.007 3.007v23.692a3.01 3.01 0 0 0 3.007 3.007h1.814c.472 0 .854-.382.854-.854s-.382-.854-.854-.854h-1.814a1.3 1.3 0 0 1-1.299-1.299V155.57a1.3 1.3 0 0 1 1.299-1.299h47.337a1.3 1.3 0 0 1 1.299 1.299v8.3c0 .472.382.854.854.854s.854-.382.854-.854v-8.3a3.01 3.01 0 0 0-3.007-3.007zm-.367 6.442a5.84 5.84 0 0 1-3.022-3.053c-.25-.582-.823-.958-1.46-.958h-37.638c-.637 0-1.2.376-1.46.958a5.84 5.84 0 0 1-3.022 3.052c-.573.253-.943.823-.943 1.454v13.916a1.59 1.59 0 0 0 .943 1.454 5.91 5.91 0 0 1 .952.53.85.85 0 0 0 .483.15c.272 0 .54-.13.705-.37.267-.4.168-.92-.22-1.187a7.56 7.56 0 0 0-1.154-.652v-13.766a7.54 7.54 0 0 0 3.794-3.832h37.486a7.54 7.54 0 0 0 3.794 3.832v3.343c0 .472.382.854.854.854s.854-.382.854-.854v-3.418a1.59 1.59 0 0 0-.943-1.454zm-14.512 4.552c-1.532-3.485-4.982-5.737-8.8-5.737a9.6 9.6 0 0 0-8.786 5.73c-.2.432.006.936.437 1.126s.936-.006 1.126-.437c1.26-2.862 4.096-4.7 7.223-4.7s5.965 1.85 7.225 4.717c.14.32.454.5.782.5a.85.85 0 0 0 .343-.072c.432-.2.628-.694.438-1.125zm21.53 2.172h-29.746v-2.18c1.103.08 1.513.583 1.892.583.473 0 .694-.6.694-.898 0-.772-1.513-1.103-2.585-1.135v-.426c0-.2-.236-.363-.473-.363-.268 0-.457.173-.457.363v.457c-1.498.158-2.995.946-2.995 2.932 0 .242.024.463.066.665h-13.732a3.01 3.01 0 0 0-3.007 3.007v23.693a3.01 3.01 0 0 0 3.007 3.007h47.337a3.01 3.01 0 0 0 3.007-3.007v-23.692a3.01 3.01 0 0 0-3.007-3.007zm-30.58-2.147v2.147h-1.235c-.175-.2-.278-.473-.278-.823 0-.82.63-1.214 1.513-1.324zm30.58 30.146h-47.337a1.3 1.3 0 0 1-1.299-1.299v-23.692a1.3 1.3 0 0 1 1.299-1.299h47.337a1.3 1.3 0 0 1 1.299 1.299v23.692a1.3 1.3 0 0 1-1.299 1.299zm-.367-21.56a5.84 5.84 0 0 1-3.022-3.053c-.25-.582-.823-.958-1.46-.958h-37.638c-.637 0-1.2.376-1.46.958a5.84 5.84 0 0 1-3.022 3.052c-.573.253-.943.823-.943 1.454v13.916a1.59 1.59 0 0 0 .943 1.454 5.84 5.84 0 0 1 3.022 3.053c.25.582.823.958 1.46.958h37.638c.637 0 1.2-.376 1.46-.958a5.84 5.84 0 0 1 3.022-3.052c.573-.253.943-.823.943-1.454v-13.916a1.59 1.59 0 0 0-.943-1.454zm-.764 15.295a7.54 7.54 0 0 0-3.794 3.832h-37.486a7.54 7.54 0 0 0-3.794-3.832V173.7a7.54 7.54 0 0 0 3.794-3.832h37.486a7.54 7.54 0 0 0 3.794 3.832v13.766zm-22.537-16.48a9.61 9.61 0 0 0-9.596 9.596 9.61 9.61 0 0 0 9.596 9.596 9.61 9.61 0 0 0 9.597-9.596 9.61 9.61 0 0 0-9.597-9.596zm0 17.485a7.9 7.9 0 0 1-7.889-7.889 7.9 7.9 0 0 1 7.889-7.889 7.9 7.9 0 0 1 7.889 7.889 7.9 7.9 0 0 1-7.889 7.889zm.552-8.913v-3.2c1.103.08 1.513.583 1.892.583.473 0 .694-.6.694-.898 0-.772-1.513-1.103-2.585-1.135v-.426c0-.2-.236-.363-.473-.363-.268 0-.457.173-.457.363v.457c-1.498.158-2.995.946-2.995 2.932 0 2.018 1.576 2.585 2.995 3.1v3.704c-1.608-.126-2.034-1.23-2.554-1.23-.394 0-.725.52-.725.9 0 .772 1.324 1.83 3.28 1.86v.5c0 .2.2.363.457.363.236 0 .473-.173.473-.363v-.536c1.703-.236 2.87-1.308 2.87-3.247 0-2.144-1.497-2.838-2.87-3.342zm-.835-.3c-.836-.315-1.513-.646-1.513-1.545 0-.82.63-1.214 1.513-1.324v2.87zm.74 5.375v-3.326c.772.33 1.387.772 1.387 1.766 0 .9-.536 1.403-1.387 1.56z" id="E" fill="#ec4a81"/><path d="M118.602 93.514c-1.336-3.1-3.335-6.347-5.94-9.62-.294-.37-.833-.43-1.203-.137s-.43.833-.137 1.203c2.5 3.153 4.43 6.26 5.706 9.23 1.546 3.598 2.15 7.018 1.795 10.163-.367 3.254-1.806 6.002-4.28 8.17-2.018 1.77-4.73 3.17-8.06 4.16-5.76 1.716-11.408 1.604-11.464 1.602h-.04c-.057.001-5.706.114-11.465-1.602-3.33-.992-6.04-2.392-8.06-4.16-2.473-2.167-3.912-4.915-4.28-8.17-.566-5.025 1.282-10.643 5.494-16.7 3.184-4.58 7.06-8.408 9.522-10.64h17.615c1.107 1.003 2.53 2.355 4.04 3.953.325.344.866.36 1.2.035s.36-.866.035-1.2a75.14 75.14 0 0 0-3.32-3.298 2.68 2.68 0 0 0 1.1-2.15c0-1.472-1.198-2.67-2.67-2.67h-.245c.963-1.4 2.217-3.352 3.143-5.172 1.278-2.5 1.652-4.188 1.177-5.28-.282-.65-.862-1.07-1.634-1.183-1.146-.17-2.658.3-4.57.873-2.16.658-4.6 1.403-7.062 1.403s-4.9-.745-7.062-1.403c-1.914-.582-3.426-1.043-4.572-.873-.772.114-1.352.534-1.634 1.183-.475 1.094-.1 2.772 1.177 5.28.927 1.82 2.18 3.762 3.143 5.172h-.245c-1.472 0-2.67 1.198-2.67 2.67a2.67 2.67 0 0 0 1.09 2.15c-5.93 5.53-16.025 16.75-14.75 28.05.744 6.605 5.443 11.374 13.6 13.8 5.894 1.75 11.5 1.67 11.936 1.662l.35.003c1.384 0 6.37-.117 11.587-1.665 8.146-2.417 12.844-7.186 13.6-13.8.388-3.445-.26-7.156-1.924-11.03zM83.303 61.9c.023-.053.058-.134.314-.172.766-.113 2.25.34 3.823.817 2.163.658 4.854 1.477 7.56 1.477s5.398-.82 7.56-1.477c1.572-.478 3.058-.93 3.823-.817.256.038.3.118.314.172.076.175.6 1.918-4.4 9.134a3.97 3.97 0 0 0-.358.637h-13.9a3.96 3.96 0 0 0-.358-.637c-4.988-7.216-4.466-8.96-4.4-9.134zm2.505 11.483h18.385a.96.96 0 0 1 .958.958.96.96 0 0 1-.958.958H85.808a.96.96 0 0 1-.958-.958.96.96 0 0 1 .958-.958zm19.037 14.03a13.83 13.83 0 0 0-19.69 0c-1.922 1.922-3.23 4.338-3.783 6.987-.097.463.2.916.663 1.013s.916-.2 1.013-.663a12.16 12.16 0 0 1 3.318-6.127 12.23 12.23 0 0 1 17.268 0c4.76 4.76 4.76 12.507 0 17.268s-12.507 4.76-17.268 0a12.17 12.17 0 0 1-3.283-5.967.86.86 0 0 0-1.022-.65c-.462.103-.752.56-.65 1.022A13.88 13.88 0 0 0 95 111.175c3.565 0 7.13-1.357 9.845-4.07 5.428-5.428 5.428-14.26 0-19.7zm-8.932 9.15l-.077-.028v-4.764l.126.01c.986.07 1.593.374 2.037.596.26.13.468.234.65.234.572 0 .87-.757.87-1.162 0-.552-.647-.9-1.2-1.093-.64-.23-1.53-.38-2.377-.406l-.114-.003v-.72c0-.198-.28-.4-.556-.4-.33 0-.534.207-.534.4v.756l-.105.01c-1.25.132-4.16.8-4.16 4.06 0 2.8 2.224 3.6 4.187 4.3l.078.028v5.484l-.126-.01c-1.472-.115-2.26-.785-2.834-1.274-.313-.266-.56-.476-.793-.476-.47 0-.915.655-.915 1.162 0 1.002 1.774 2.487 4.554 2.532l.115.002v.8c0 .192.204.4.534.4.275 0 .556-.2.556-.4v-.865l.1-.014c2.532-.352 3.984-1.995 3.984-4.508 0-2.93-1.98-3.903-4-4.65zm-1.032-.367l-.16-.06c-1.22-.46-2.23-.952-2.23-2.3 0-1.125.78-1.817 2.258-2.002l.132-.016v4.388zm.96 7.6l-.14.026V98.77l.163.07c1.063.456 2.046 1.088 2.046 2.622 0 1.26-.736 2.1-2.07 2.338z" id="F" fill="#ec4a81"/><path d="M267.248 75.304h-5.902l-2.984-11.7c-.375-1.47-1.876-2.36-3.346-1.986l-6.803 1.735a.86.86 0 0 0-.619 1.043.86.86 0 0 0 1.043.619l6.803-1.735a1.04 1.04 0 0 1 1.261.748l.33 1.296-44.954 11.463-.33-1.296a1.03 1.03 0 0 1 .749-1.261l30.92-7.885a.86.86 0 0 0 .619-1.043.86.86 0 0 0-1.043-.619l-30.92 7.885c-1.47.375-2.36 1.876-1.986 3.346l6.34 24.866a2.76 2.76 0 0 0 2.667 2.072 2.75 2.75 0 0 0 .679-.086l.406-.103v1.055c0 1.517 1.234 2.752 2.752 2.752h44.318c1.517 0 2.752-1.234 2.752-2.752V78.055c0-1.517-1.234-2.752-2.752-2.752zm-47.07 25.6l-.83.212a1.04 1.04 0 0 1-1.261-.748l-3.88-15.22 5.972-1.523v17.28zm0-22.837v3.787l-6.395 1.63-1.282-5.026 8.284-2.112a2.74 2.74 0 0 0-.607 1.721zm39.398-2.752h-6.815l6.4-1.632.416 1.632zm-2.12-8.32l1.282 5.026-12.915 3.293H224.83l32.627-8.32zm9.793 37.77h-44.32a1.04 1.04 0 0 1-1.037-1.037V78.055a1.04 1.04 0 0 1 1.037-1.037h44.318a1.04 1.04 0 0 1 1.037 1.037v25.662a1.04 1.04 0 0 1-1.037 1.037zM244.142 96.4h-18.68a.86.86 0 0 0-.857.857.86.86 0 0 0 .857.857h18.68a.86.86 0 0 0 .857-.857.86.86 0 0 0-.857-.857zm14.286-15.076a5.61 5.61 0 0 0-3.3 1.069c-.957-.693-2.105-1.07-3.303-1.07-3.112 0-5.644 2.532-5.644 5.644s2.532 5.644 5.644 5.644a5.61 5.61 0 0 0 3.303-1.069 5.61 5.61 0 0 0 3.3 1.069 5.65 5.65 0 0 0 5.644-5.644c0-3.112-2.532-5.644-5.644-5.644zm-5.637 5.912l.004.066.016.215.005.05a5.57 5.57 0 0 0 1.067 2.75c-.614.38-1.322.582-2.058.582-2.167 0-3.93-1.763-3.93-3.93s1.763-3.93 3.93-3.93a3.91 3.91 0 0 1 2.058.582 5.57 5.57 0 0 0-1.067 2.75l-.005.05-.016.215-.004.066-.007.268.007.268zm5.638 3.662c-1.073 0-2.046-.433-2.756-1.132l-.043-.044-.097-.1-.026-.03-.1-.126a3.91 3.91 0 0 1 0-4.996l.1-.126.026-.028.097-.102.043-.043c.7-.7 1.683-1.132 2.756-1.132 2.167 0 3.93 1.763 3.93 3.93s-1.763 3.93-3.93 3.93zM231.57 81.9h-3.76a3.21 3.21 0 0 0-3.207 3.207v3.76a3.21 3.21 0 0 0 3.207 3.207h3.76a3.21 3.21 0 0 0 3.207-3.207v-3.76a3.21 3.21 0 0 0-3.207-3.207zm1.492 5.547h-1.83a.86.86 0 0 0-.857.857c0 .474.384.857.857.857h1.8c-.137.682-.74 1.197-1.462 1.197h-3.76c-.722 0-1.325-.515-1.462-1.197h1.8a.86.86 0 0 0 .857-.857c0-.474-.384-.857-.857-.857h-1.83v-.743h1.83a.86.86 0 0 0 .857-.857.86.86 0 0 0-.857-.857h-1.823c.06-.768.703-1.375 1.486-1.375h3.76c.783 0 1.426.607 1.486 1.375h-1.823a.86.86 0 0 0-.857.857.86.86 0 0 0 .857.857h1.83v.743zm31.2 12.745h-29.85a.86.86 0 0 0-.857.857c0 .474.384.857.857.857h29.85a.86.86 0 0 0 .857-.857c0-.474-.384-.857-.857-.857zm-35.317 0h-3.494a.86.86 0 0 0-.857.857c0 .474.384.857.857.857h3.494a.86.86 0 0 0 .857-.857.86.86 0 0 0-.857-.857z" id="G" fill="#ec4a81"/><path d="M197.308 331.5a2.35 2.35 0 0 0-1.671-.692h-.648c-.477 0-.864.387-.864.864s.387.864.864.864h.648a.63.63 0 0 1 .635.635v28.65c0 .35-.285.635-.635.635h-47.45v-29.92h32.76c.477 0 .864-.387.864-.864s-.387-.864-.864-.864h-40.583a2.37 2.37 0 0 0-2.364 2.364v28.65c0 1.303 1.06 2.363 2.364 2.363h55.273c1.303 0 2.363-1.06 2.363-2.363v-28.65a2.35 2.35 0 0 0-.692-1.671zm-50.85 30.956h-6.094c-.35 0-.635-.285-.635-.635v-28.65c0-.35.285-.635.635-.635h6.094v29.92zm46.992-5.638h-17.325c-.477 0-.864.387-.864.864s.387.864.864.864h17.325c.477 0 .864-.387.864-.864s-.387-.864-.864-.864zm-27.032 0H150.56c-.477 0-.864.387-.864.864s.387.864.864.864h15.857c.477 0 .864-.387.864-.864s-.387-.864-.864-.864zm29.064-32.854c-.08-.42-.32-.78-.673-1.02l-1.23-.833a1.58 1.58 0 0 0-1.197-.245 1.59 1.59 0 0 0-1.02.673l-1.52 2.244a2.21 2.21 0 0 0-2.56.844l-16.717 24.705c-.004.006-.007.013-.01.02a.84.84 0 0 0-.047.083l-.015.032a.86.86 0 0 0-.043.117l-2.264 8.15a1.28 1.28 0 0 0 2.012 1.362l6.723-5.13a.86.86 0 0 0 .094-.084l.023-.025a.86.86 0 0 0 .061-.076c.004-.006.01-.01.013-.017l13.95-20.613 1.097.742-7.03 10.387c-.268.395-.164.933.232 1.2a.86.86 0 0 0 .484.149c.277 0 .55-.133.717-.38l7.116-10.517c.486-.718.297-1.697-.42-2.183l-1.227-.83 1.8-2.66c.56-.827.48-1.9-.12-2.637l1.53-2.26c.24-.353.326-.778.246-1.197zm-25.275 33.95l1.585-5.707 3.123 2.113-4.708 3.593zm5.957-4.836l-3.683-2.492 12.5-18.458 3.683 2.492-12.5 18.458zm14.024-20.724zm-.565.834l-3.683-2.492.723-1.07 3.683 2.492-.723 1.07zm2.774-4.1l-1.082 1.6-3.683-2.492 1.082-1.6a.48.48 0 0 1 .667-.129l2.887 1.954a.48.48 0 0 1 .129.667zm-.07-2.714l-1.012-.685 1.402-2.072 1.012.685-1.402 2.072zm1.123 24.752h-12.278c-.477 0-.864.387-.864.864s.387.864.864.864h12.278c.477 0 .864-.387.864-.864s-.387-.864-.864-.864zm-25.8 0h-17.08c-.477 0-.864.387-.864.864s.387.864.864.864h17.08c.477 0 .864-.387.864-.864s-.387-.864-.864-.864zm-12.718-10.78v-3.316c1.143.082 1.568.604 1.96.604.5 0 .72-.62.72-.93 0-.8-1.568-1.143-2.68-1.176v-.44c0-.196-.245-.376-.5-.376-.278 0-.474.18-.474.376v.474c-1.552.163-3.103.98-3.103 3.038 0 2.1 1.633 2.68 3.103 3.2v3.838c-1.666-.13-2.107-1.274-2.646-1.274-.408 0-.75.54-.75.93 0 .8 1.372 1.895 3.397 1.927v.506c0 .196.196.376.474.376.245 0 .5-.18.5-.376v-.555c1.764-.245 2.973-1.356 2.973-3.365 0-2.22-1.552-2.94-2.973-3.463zm-.865-.3c-.866-.327-1.568-.67-1.568-1.6 0-.85.653-1.258 1.568-1.372v2.973zm.768 5.57v-3.446c.8.343 1.437.8 1.437 1.83 0 .93-.555 1.454-1.437 1.617z" id="H" fill="#ec4a81"/><path id="I" d="M0 0h350v350H0z"/></defs><pattern id="J" width="350" height="350" patternUnits="userSpaceOnUse"><use xlink:href="#A" x="-350" y="-350"/><use xlink:href="#A" y="-350"/><use xlink:href="#A" x="350" y="-350"/><use xlink:href="#A" x="-350"/><use xlink:href="#A"/><use xlink:href="#A" x="350"/><use xlink:href="#A" x="-350" y="350"/><use xlink:href="#A" y="350"/><use xlink:href="#A" x="350" y="350"/></pattern><use xlink:href="#I" fill="url(#J)"/><pattern id="K" width="350" height="350" patternUnits="userSpaceOnUse"><use xlink:href="#B" x="-350" y="-350"/><use xlink:href="#B" y="-350"/><use xlink:href="#B" x="350" y="-350"/><use xlink:href="#B" x="-350"/><use xlink:href="#B"/><use xlink:href="#B" x="350"/><use xlink:href="#B" x="-350" y="350"/><use xlink:href="#B" y="350"/><use xlink:href="#B" x="350" y="350"/></pattern><use xlink:href="#I" fill="url(#K)"/><pattern id="L" width="350" height="350" patternUnits="userSpaceOnUse"><use xlink:href="#C" x="-350" y="-350"/><use xlink:href="#C" y="-350"/><use xlink:href="#C" x="350" y="-350"/><use xlink:href="#C" x="-350"/><use xlink:href="#C"/><use xlink:href="#C" x="350"/><use xlink:href="#C" x="-350" y="350"/><use xlink:href="#C" y="350"/><use xlink:href="#C" x="350" y="350"/></pattern><use xlink:href="#I" fill="url(#L)"/><pattern id="M" width="350" height="350" patternUnits="userSpaceOnUse"><use xlink:href="#D" x="-350" y="-350"/><use xlink:href="#D" y="-350"/><use xlink:href="#D" x="350" y="-350"/><use xlink:href="#D" x="-350"/><use xlink:href="#D"/><use xlink:href="#D" x="350"/><use xlink:href="#D" x="-350" y="350"/><use xlink:href="#D" y="350"/><use xlink:href="#D" x="350" y="350"/></pattern><use xlink:href="#I" fill="url(#M)"/><pattern id="N" width="350" height="350" patternUnits="userSpaceOnUse"><use xlink:href="#E" x="-350" y="-350"/><use xlink:href="#E" y="-350"/><use xlink:href="#E" x="350" y="-350"/><use xlink:href="#E" x="-350"/><use xlink:href="#E"/><use xlink:href="#E" x="350"/><use xlink:href="#E" x="-350" y="350"/><use xlink:href="#E" y="350"/><use xlink:href="#E" x="350" y="350"/></pattern><use xlink:href="#I" fill="url(#N)"/><pattern id="O" width="350" height="350" patternUnits="userSpaceOnUse"><use xlink:href="#F" x="-350" y="-350"/><use xlink:href="#F" y="-350"/><use xlink:href="#F" x="350" y="-350"/><use xlink:href="#F" x="-350"/><use xlink:href="#F"/><use xlink:href="#F" x="350"/><use xlink:href="#F" x="-350" y="350"/><use xlink:href="#F" y="350"/><use xlink:href="#F" x="350" y="350"/></pattern><use xlink:href="#I" fill="url(#O)"/><pattern id="P" width="350" height="350" patternUnits="userSpaceOnUse"><use xlink:href="#G" x="-350" y="-350"/><use xlink:href="#G" y="-350"/><use xlink:href="#G" x="350" y="-350"/><use xlink:href="#G" x="-350"/><use xlink:href="#G"/><use xlink:href="#G" x="350"/><use xlink:href="#G" x="-350" y="350"/><use xlink:href="#G" y="350"/><use xlink:href="#G" x="350" y="350"/></pattern><use xlink:href="#I" fill="url(#P)"/><pattern id="Q" width="350" height="350" patternUnits="userSpaceOnUse"><use xlink:href="#H" x="-350" y="-350"/><use xlink:href="#H" y="-350"/><use xlink:href="#H" x="350" y="-350"/><use xlink:href="#H" x="-350"/><use xlink:href="#H"/><use xlink:href="#H" x="350"/><use xlink:href="#H" x="-350" y="350"/><use xlink:href="#H" y="350"/><use xlink:href="#H" x="350" y="350"/></pattern><use xlink:href="#I" fill="url(#Q)"/></svg>