<svg xmlns="http://www.w3.org/2000/svg" xmlns:xlink="http://www.w3.org/1999/xlink" width="400" height="400" viewBox="0 0 350 350"><use xlink:href="#G" opacity="0" fill="#fff"/><defs><path d="M333.27 163.565c-12.834-2.1-24.975 6.652-27.064 19.486s6.652 24.974 19.486 27.063 24.974-6.652 27.063-19.485-6.652-24.975-19.485-27.064zm-6.97 42.805c-10.77-1.753-18.105-11.94-16.352-22.7s11.94-18.105 22.7-16.352 18.105 11.94 16.352 22.7-11.94 18.105-22.7 16.352zm61.315-33.94l-25.496-43.97 14.82-10.67c.85-.6 1.042-1.797.43-2.646s-1.797-1.043-2.646-.43l-32.642 23.5c-.85.613-1.042 1.797-.43 2.646a1.89 1.89 0 0 0 1.234.764c.478.078.987-.026 1.412-.333l14.73-10.605 14.394 24.825a1.87 1.87 0 0 0-.245.65l-3.046 18.714-11.275-1.835c-4.413-9.357-13.196-16.47-24.156-18.253-8.286-1.35-16.342.6-22.88 4.863-.047-.012-.085-.044-.135-.052l-15.498-2.523 3.35-20.586 9.357 1.523c1.034.168 2.008-.532 2.176-1.566a1.9 1.9 0 0 0-1.567-2.177l-9.357-1.523.305-1.87 1.872.305a1.9 1.9 0 0 0 2.177-1.567c.17-1.034-.533-2.008-1.567-2.177l-1.872-.305.305-1.87c.168-1.034-.532-2.008-1.566-2.176a1.9 1.9 0 0 0-2.177 1.567l-.305 1.87-1.872-.305c-1.034-.168-2.007.533-2.175 1.567s.532 2.008 1.566 2.176l1.872.305-.305 1.87-9.357-1.523a1.9 1.9 0 0 0-2.177 1.567c-.17 1.034.533 2.007 1.567 2.175l9.357 1.523-3.35 20.586-5.45-.887a5.86 5.86 0 0 0-6.72 4.84l-1.47 9.028a5.86 5.86 0 0 0 4.84 6.72l5.45.887-2.798 17.186c-.15.132-.3.27-.4.436l-11.703 8.777a1.9 1.9 0 0 0-.38 2.654 1.89 1.89 0 0 0 1.213.734c.492.08 1.012-.032 1.442-.355l8.9-6.683-.56 3.45a1.9 1.9 0 0 0 1.567 2.177c1.034.17 2.007-.533 2.175-1.567l.446-2.737 5.762 8.34c.305.44.764.714 1.256.794.468.076.962-.02 1.382-.3a1.9 1.9 0 0 0 .482-2.638l-8.003-11.584 2.94-18.063 5.26.856c-.268 1.014-.496 2.048-.668 3.104-1.545 9.488 1.237 18.68 6.854 25.623l-5.578 8.857a1.9 1.9 0 0 0 .592 2.616c.223.14.462.227.707.267a1.9 1.9 0 0 0 1.909-.861l5.016-7.96c4.6 4.462 10.547 7.624 17.338 8.73s13.435-.008 19.213-2.782l2.23 9.14c.186.763.8 1.305 1.538 1.423a1.91 1.91 0 0 0 .753-.029 1.9 1.9 0 0 0 1.393-2.292l-2.482-10.172a32.47 32.47 0 0 0 12.232-14.203l6.726 1.095-1.002 6.155c-.076.087-.162.163-.22.26l-11.703 8.777a1.9 1.9 0 0 0-.381 2.655c.307.407.745.658 1.213.734a1.89 1.89 0 0 0 1.443-.355l8.75-6.562-.538 3.306a1.9 1.9 0 0 0 1.567 2.177c1.034.17 2.008-.533 2.177-1.567l.47-2.878 5.875 8.504a1.89 1.89 0 0 0 2.638.483 1.9 1.9 0 0 0 .482-2.639l-8.117-11.748 1.1-6.693 2.425.395c3.822.622 7.438-1.982 8.06-5.803l2.008-12.336a7.03 7.03 0 0 0-5.803-8.06l-2.425-.395 2.44-14.988 8.02 13.834c.298.5.795.833 1.338.92a1.89 1.89 0 0 0 1.252-.23c.908-.525 1.214-1.685.7-2.6zm-103.364-.008a2.07 2.07 0 0 1-1.705-2.368l1.47-9.028c.183-1.122 1.245-1.887 2.368-1.704l21.32 3.47a32.35 32.35 0 0 0-8.398 12.08l-15.054-2.45zm40.62 42.73c-15.6-2.54-26.244-17.3-23.702-32.92s17.3-26.244 32.92-23.702 26.244 17.308 23.702 32.92-17.3 26.244-32.92 23.702zm35.622-18.793c.428-1.396.8-2.82 1.04-4.3.84-5.166.376-10.237-1.1-14.92l9.086 1.48-3.046 18.714zm15.195-16.736c1.758.286 2.956 1.95 2.67 3.708l-2.008 12.336c-.286 1.758-1.95 2.956-3.708 2.67l-2.425-.395 3.046-18.714zm-81.384-12.29c-.234 1.436-1.587 2.4-3.023 2.177s-2.4-1.587-2.177-3.023 1.587-2.4 3.023-2.177 2.4 1.587 2.177 3.023zm0 0" id="A" fill="#ec4a81"/><path d="M192.974 122.838l-1.213-.39c-2.03-.652-4.21.47-4.86 2.5l-10.662 33.24-3.972-1.274c-.03-.01-.06-.004-.092-.01l1.28-4a.93.93 0 0 0-.601-1.169.93.93 0 0 0-1.169.601l-9.35 29.147a.93.93 0 0 0 .601 1.169c.244.078.497.05.71-.058a.93.93 0 0 0 .46-.543l.968-3.02c.03.013.05.035.08.045l3.972 1.275-2.56 7.98a3.87 3.87 0 0 0 2.499 4.859l1.214.39a3.85 3.85 0 0 0 4.859-2.499l20.333-63.393c.652-2.03-.47-4.21-2.5-4.86zm-6.69 10.127c.26.14.577.17.86.025a.93.93 0 0 0 .401-1.252c-.146-.284-.42-.444-.715-.48l.896-2.792.835.267a1.35 1.35 0 0 1 .87 1.693l-1.416 4.412c-.226.707-.985 1.097-1.692.87l-.835-.267zm-2.917 9.094l5.03 1.613-1 3.087-5.03-1.614zm-5.13 16.855a1.19 1.19 0 0 1 .914-.075 1.2 1.2 0 0 1 .776 1.509 1.23 1.23 0 0 1-1.508.776c-.483-.155-.794-.6-.825-1.068l.27-.838c.102-.123.227-.227.374-.303zm-6.536-.23l3.972 1.275-1.614 5.03-3.972-1.274c-.03-.01-.06-.004-.092-.01l1.625-5.065c.03.013.05.035.08.045zm4.355 7.03a1.19 1.19 0 0 1 .915-.076 1.2 1.2 0 0 1 .776 1.509 1.23 1.23 0 0 1-1.508.776c-.483-.155-.794-.6-.825-1.068l.27-.838a1.19 1.19 0 0 1 .374-.303zm-2.18 6.8a1.19 1.19 0 0 1 .915-.075 1.2 1.2 0 0 1 .776 1.508 1.23 1.23 0 0 1-1.508.776c-.483-.155-.794-.59-.825-1.067l.27-.84a1.19 1.19 0 0 1 .374-.303zm-1.996-.726l-3.972-1.275c-.03-.01-.06-.004-.092-.01l1.625-5.066c.03.013.05.035.08.045l3.973 1.274zm-6.246 5.516l1.625-5.066c.03.013.05.035.08.045l3.972 1.275-1.614 5.03-3.973-1.274c-.03-.01-.06-.004-.092-.01zm6.06 2a1.19 1.19 0 0 1 .915-.075 1.2 1.2 0 0 1 .776 1.508 1.23 1.23 0 0 1-1.508.776c-.483-.155-.794-.59-.825-1.067l.27-.84c.102-.123.227-.227.374-.303zm1.678 11.206a2.01 2.01 0 0 1-2.52 1.296l-1.214-.39c-1.053-.337-1.634-1.468-1.296-2.52l1.974-6.156c.292.237.625.424.993.542a3.04 3.04 0 0 0 2.333-.193c.727-.374 1.264-1.007 1.513-1.786s.18-1.606-.192-2.333-1.007-1.264-1.786-1.514a2.89 2.89 0 0 0-1.128-.121l.45-1.398c.29.237.624.424.993.542.777.25 1.605.182 2.333-.192s1.264-1.008 1.513-1.786.18-1.606-.192-2.333-1.007-1.264-1.786-1.514c-.37-.118-.753-.15-1.13-.12l.45-1.398a3.05 3.05 0 0 0 .993.542c.777.25 1.606.182 2.333-.192s1.264-1.008 1.513-1.786.18-1.606-.192-2.333-1.007-1.264-1.786-1.513a2.9 2.9 0 0 0-1.128-.121l.45-1.398a3.04 3.04 0 0 0 .993.542c.777.25 1.605.182 2.333-.192s1.264-1.007 1.513-1.786.182-1.607-.192-2.333-1.008-1.264-1.786-1.513a2.9 2.9 0 0 0-1.128-.121l3.218-10.03 5.03 1.614zm20.333-63.393l-4.738 14.773-5.03-1.614.988-3.08.835.268c.842.27 1.714.172 2.444-.203s1.317-1.028 1.587-1.87l1.415-4.412a3.21 3.21 0 0 0-2.073-4.03l-.835-.268.378-1.18a2.01 2.01 0 0 1 2.521-1.297l1.213.39a2.01 2.01 0 0 1 1.296 2.522zm0 0" id="B" fill="#ec4a81"/><path d="M390.832 315.588l-.96-.887c.33-.55.537-1.166.577-1.825a4.03 4.03 0 0 0-1.296-3.22l-3.313-3.057c-.897-.826-2.103-1.207-3.315-1.03a4.04 4.04 0 0 0-1.77.72l-.96-.887c-.6-.566-1.565-.53-2.13.084a1.51 1.51 0 0 0 .085 2.13l1.16 1.07-.672 1.116-.565-.52a1.51 1.51 0 0 0-2.13.086 1.51 1.51 0 0 0 .087 2.131l.545.503-1.055.764-1.144-1.057a1.51 1.51 0 0 0-2.131.084 1.51 1.51 0 0 0 .085 2.131l.953.88c-.33.55-.537 1.17-.576 1.83-.012.198.014.4.03.583l-26.5 26.892c-6.144-2.47-13.178-.92-17.708 4a15.83 15.83 0 0 0-3.052 4.82c-.372.92-1.166 1.557-2.07 1.662-5.805.662-10.877 3.67-14.28 8.47-5.3 7.492-4.793 17.963 1.228 24.9 3.808 4.4 9.297 6.955 15.058 7.043l.3.003a20.32 20.32 0 0 0 14.916-6.529 20.04 20.04 0 0 0 5.291-12.086c.118-1.467 1.018-2.823 2.404-3.627 2.015-1.167 3.724-2.74 5.078-4.674 3.042-4.346 3.694-10.142 1.702-15.126-.008-.022-.026-.035-.035-.054l24.966-28.9c.01 0 .022.003.034.003a3.58 3.58 0 0 0 .567-.04c.655-.1 1.256-.35 1.778-.72l.953.88c.3.266.655.4 1.02.4a1.5 1.5 0 0 0 1.109-.486 1.51 1.51 0 0 0-.086-2.13l-1.145-1.056.677-1.112.547.504c.3.267.657.4 1.022.4a1.51 1.51 0 0 0 1.023-2.616l-.563-.52 1.06-.76 1.16 1.07a1.5 1.5 0 0 0 1.022.399c.405 0 .8-.164 1.108-.486a1.51 1.51 0 0 0-.086-2.131zm-21.25 15.43l-3.465-3.196 3.158-3.203 3.247 2.996zm-4.912 5.7l-3.83-3.533 3.16-3.205 3.6 3.33zm-4.912 5.687l-4.192-3.87 3.158-3.202 3.975 3.668zm-17.62 20.404c-.432-1.43-1.2-2.737-2.335-3.778a8.41 8.41 0 0 0-2.769-1.694l3.602-3.655 5.22 4.82zm-8.086-3.008a5.45 5.45 0 0 1 3.705 1.446c1.073 1 1.696 2.34 1.755 3.8a5.43 5.43 0 0 1-1.444 3.925l-.002.001a5.45 5.45 0 0 1-3.797 1.756c-1.444.047-2.854-.456-3.927-1.446-2.215-2.044-2.354-5.5-.3-7.725 1.077-1.166 2.546-1.757 4.02-1.757zm13.777-3.582l-5.076-4.685 3.912-3.968 4.805 4.435zm5.613-6.5l-4.66-4.3 4.665-4.733 4.338 4.004zm-2.913 16.648c-1.1 1.57-2.487 2.85-4.12 3.793-2.244 1.3-3.7 3.54-3.9 5.994-.312 3.875-1.87 7.432-4.5 10.283a17.3 17.3 0 0 1-12.7 5.559c-.087 0-.175-.002-.264-.002-4.976-.076-9.532-2.2-12.827-6.006-5.12-5.902-5.56-14.808-1.046-21.18 2.9-4.1 7.22-6.655 12.163-7.22 2.005-.23 3.738-1.58 4.526-3.528a12.76 12.76 0 0 1 2.473-3.906c3.377-3.66 8.47-5.013 13.146-3.655l-10.188 10.335c-.005.005-.007.013-.01.018-2.02.184-3.984 1.056-5.466 2.66-3.17 3.438-2.955 8.815.48 11.985a8.42 8.42 0 0 0 5.744 2.25 7.87 7.87 0 0 0 .349-.008c2.264-.1 4.357-1.057 5.893-2.723.986-1.07 1.63-2.353 1.967-3.726l10.134-11.734c.98 3.685.318 7.705-1.855 10.8zm23.965-41.025l-3.1-2.862 2.404-2.438 2.935 2.7zm5.324-4.362c-.18.026-.53.026-.844-.264l-3.33-3.073c-.312-.287-.34-.636-.33-.817a1.01 1.01 0 0 1 .424-.773l3.335-2.417a3.99 3.99 0 0 0 1.097-1.19l2.047-3.394a1.02 1.02 0 0 1 .734-.487c.185-.022.53-.024.845.264l3.313 3.057a1.01 1.01 0 0 1 .328.819 1.01 1.01 0 0 1-.425.773l-3.22 2.3a4.01 4.01 0 0 0-1.097 1.185l-2.144 3.523a1.01 1.01 0 0 1-.735.483zm-56.663 48.97c-1.478-1.364-3.794-1.273-5.164.207-1.363 1.48-1.27 3.798.2 5.164l7.097 6.55a3.63 3.63 0 0 0 2.473.967l.15-.003a3.62 3.62 0 0 0 2.538-1.173c.662-.717 1.004-1.65.966-2.624a3.63 3.63 0 0 0-1.173-2.538zm5.088 9.668c-.156.17-.343.2-.442.204-.116-.004-.3-.013-.458-.167l-7.097-6.55a.64.64 0 0 1-.039-.902c.127-.137.298-.204.47-.204a.64.64 0 0 1 .435.169l7.097 6.55a.63.63 0 0 1 .203.442.63.63 0 0 1-.168.46zm0 0" id="C" fill="#ec4a81"/><path d="M56.36 64.558l.64-.6c-.22-.366-.358-.778-.385-1.216a2.69 2.69 0 0 1 .864-2.146l2.2-2.038a2.68 2.68 0 0 1 2.21-.687c.434.062.833.233 1.18.48l.64-.6c.407-.377 1.043-.353 1.42.056s.35 1.044-.056 1.42l-.772.714.448.744.377-.347c.405-.375 1.043-.35 1.42.058s.35 1.043-.058 1.42l-.364.335.703.5.763-.705c.407-.376 1.042-.35 1.42.056s.35 1.044-.056 1.42l-.636.587c.22.367.358.78.384 1.22.008.132-.01.26-.02.4l17.672 17.928c4.096-1.646 8.785-.614 11.805 2.66a10.53 10.53 0 0 1 2.034 3.214c.248.614.778 1.038 1.38 1.108 3.87.44 7.25 2.446 9.52 5.647 3.54 4.995 3.196 11.975-.818 16.6-2.54 2.926-6.198 4.637-10.04 4.696l-.206.002a13.55 13.55 0 0 1-9.944-4.353 13.36 13.36 0 0 1-3.527-8.057c-.08-.978-.68-1.882-1.602-2.418-1.344-.778-2.482-1.827-3.385-3.116-2.028-2.898-2.463-6.762-1.135-10.084.005-.014.017-.023.024-.036L63.826 70.16c-.007 0-.015.002-.022.002a2.53 2.53 0 0 1-.378-.026 2.68 2.68 0 0 1-1.185-.48l-.636.587c-.193.177-.437.266-.68.266a1 1 0 0 1-.739-.324c-.376-.407-.35-1.043.058-1.42l.763-.704-.452-.74-.365.336c-.194.178-.438.266-.682.266a1 1 0 0 1-.739-.324c-.376-.408-.35-1.044.058-1.42l.376-.346-.706-.507-.773.713a1 1 0 0 1-.682.266 1.01 1.01 0 0 1-.74-.324c-.377-.408-.35-1.044.058-1.42zm14.17 10.287l2.3-2.13-2.105-2.136-2.165 1.998zm3.274 3.793l2.553-2.355-2.105-2.136-2.408 2.22zm3.275 3.8l2.795-2.58-2.105-2.135-2.65 2.445zM88.824 96.03c.288-.954.806-1.825 1.557-2.52.552-.5 1.182-.88 1.846-1.13l-2.4-2.436-3.48 3.213zm5.4-2.006a3.64 3.64 0 0 0-2.47.964 3.62 3.62 0 0 0-.207 5.15l.001.001a3.62 3.62 0 0 0 2.531 1.17 3.67 3.67 0 0 0 2.618-.964 3.65 3.65 0 0 0 .207-5.15c-.718-.777-1.697-1.17-2.68-1.17zm-9.185-2.388l3.384-3.123-2.608-2.645-3.204 2.957zm-3.742-4.333l3.106-2.867-3.1-3.155-2.892 2.67zm1.942 11.1a8.59 8.59 0 0 0 2.746 2.529c1.496.867 2.467 2.36 2.6 3.996.208 2.584 1.247 4.954 3 6.855 2.18 2.362 5.257 3.706 8.466 3.706l.176-.001c3.318-.05 6.355-1.473 8.55-4.004 3.414-3.935 3.706-9.872.697-14.12-1.934-2.727-4.814-4.437-8.1-4.812-1.337-.152-2.492-1.053-3.017-2.352a8.51 8.51 0 0 0-1.648-2.604c-2.25-2.44-5.646-3.342-8.764-2.436l6.792 6.9c1.354.135 2.664.716 3.652 1.785 2.114 2.292 1.97 5.877-.32 8-1.053.972-2.405 1.5-3.83 1.5-.078 0-.155-.002-.233-.005a5.61 5.61 0 0 1-3.928-1.815c-.657-.713-1.086-1.568-1.3-2.484l-6.756-7.823c-.653 2.457-.212 5.137 1.237 7.207zm-15.977-27.35l2.067-1.908-1.602-1.625-1.957 1.806zm-3.55-2.908a.68.68 0 0 0 .563-.176l2.22-2.05c.208-.192.227-.424.22-.545s-.053-.35-.282-.515L64.2 63.25a2.66 2.66 0 0 1-.731-.793l-1.365-2.263a.68.68 0 0 0-.489-.325.69.69 0 0 0-.564.176l-2.2 2.038a.68.68 0 0 0-.22.546c.007.122.054.35.284.515l2.146 1.54c.297.215.544.48.73.8l1.43 2.35a.67.67 0 0 0 .5.322zm37.768 32.647a2.44 2.44 0 0 1 3.442.138 2.44 2.44 0 0 1-.14 3.443l-4.73 4.366a2.42 2.42 0 0 1-1.65.645c-.034 0-.067 0-.1-.002-.65-.025-1.252-.304-1.692-.782a2.42 2.42 0 0 1 .138-3.441zm-3.392 6.445c.104.113.23.133.294.136.078-.003.194-.01.305-.112l4.73-4.367a.43.43 0 0 0 .026-.602.43.43 0 0 0-.313-.136.47.47 0 0 0-.3.113l-4.73 4.366a.42.42 0 0 0-.135.294.42.42 0 0 0 .112.307zm0 0" id="D" fill="#ec4a81"/><g id="E" fill="#ec4a81"><path d="M166.944 25.264l5.463-27.315c.097-.485-.218-.957-.703-1.054s-.957.217-1.054.703l-5.463 27.315c-2.083.008-3.95 1.48-4.373 3.6s.732 4.197 2.652 5.005l-1.95 9.75c-.097.485.218.957.703 1.054s.957-.218 1.054-.703l1.95-9.75c2.083-.008 3.95-1.48 4.373-3.6a4.49 4.49 0 0 0-2.652-5.005zm-2.266 6.76a2.69 2.69 0 0 1-2.108-3.162 2.69 2.69 0 0 1 3.162-2.108 2.69 2.69 0 0 1 2.108 3.162 2.69 2.69 0 0 1-3.162 2.108zm37.765-15.28c.424-2.12-.732-4.196-2.653-5.005l1.6-7.993c.097-.485-.217-.957-.702-1.054s-.957.217-1.054.703l-1.6 7.993c-2.083.008-3.95 1.48-4.373 3.6s.732 4.197 2.652 5.005l-5.814 29.07c-.097.485.218.957.703 1.054s.957-.218 1.054-.703l5.814-29.07c2.084-.008 3.95-1.48 4.374-3.6zm-4.918 1.757a2.69 2.69 0 0 1-2.108-3.162 2.69 2.69 0 0 1 3.162-2.107 2.69 2.69 0 0 1 2.108 3.161 2.69 2.69 0 0 1-3.162 2.108zm0 0"/><path d="M179.6 12.266l2.477-12.384c.097-.485-.218-.957-.703-1.054s-.957.217-1.054.703l-2.477 12.384c-2.083.008-3.95 1.48-4.373 3.6a4.49 4.49 0 0 0 2.652 5.005l-4.936 24.68c-.097.485.218.957.703 1.054s.957-.218 1.054-.703l4.936-24.68c2.083-.008 3.95-1.48 4.373-3.6s-.732-4.197-2.652-5.005zm-2.266 6.76a2.69 2.69 0 0 1-2.108-3.161 2.69 2.69 0 0 1 3.162-2.108 2.69 2.69 0 0 1 2.108 3.162 2.69 2.69 0 0 1-3.162 2.107zm7.71 16.25l6.692-33.462c.097-.485-.217-.957-.702-1.054s-.957.217-1.054.703l-6.692 33.462c-2.083.008-3.95 1.48-4.373 3.6a4.49 4.49 0 0 0 2.652 5.005l-.72 3.602c-.097.485.218.957.703 1.054s.957-.218 1.054-.703l.72-3.602c2.084-.008 3.95-1.48 4.374-3.6s-.732-4.197-2.653-5.005zm-2.265 6.76a2.69 2.69 0 0 1-2.108-3.161 2.69 2.69 0 0 1 3.162-2.108 2.69 2.69 0 0 1 2.108 3.162 2.69 2.69 0 0 1-3.162 2.107zm0 0"/></g><g id="F" fill="#ec4a81"><path d="M201.826 246.846c-.283-.717-.86-1.278-1.586-1.54a2.36 2.36 0 0 0-1.662.014l-1.03-1.015a1.01 1.01 0 0 0-1.426.01 1.01 1.01 0 0 0 .01 1.426l.575.567-1.625.9-.87-.858c-.4-.392-1.037-.387-1.426.01a1.01 1.01 0 0 0 .01 1.426l.44.433-1.625.9-1.073-1.058a1.01 1.01 0 0 0-1.426.01 1.01 1.01 0 0 0 .01 1.426l.643.634-.902.494a1 1 0 0 0-.47.56l-.868 2.547-15.02 15.228c-.173-.1-.362-.167-.546-.158l-3.343.155c-.154.007-.303.05-.44.123l-24.715 13.54c-.788.432-1.3 1.2-1.436 2.082s.17 1.764.812 2.397a2.82 2.82 0 0 0 2.311.791l13.673-1.623-1.604 13.482a2.8 2.8 0 0 0 .815 2.335l.03.03a2.79 2.79 0 0 0 1.974.818c.144 0 .3-.01.438-.033a2.79 2.79 0 0 0 2.06-1.466l13.16-24.83a1.18 1.18 0 0 0 .116-.43l.146-3.414a1.02 1.02 0 0 0-.054-.325l15.25-15.464 2.534-.3a1.01 1.01 0 0 0 .674-.374l4.468-5.623 1.943-.926c1.05-.5 1.5-1.74 1.05-2.9zm-56.914 39.02c-.242.03-.482-.053-.657-.224-.182-.18-.266-.428-.23-.683s.184-.47.407-.592l9.837-5.4.196 5.754zm11.562-1.372l-.224-6.6 12.287-6.732 3.053 8.864-4.172 7.87-7.2 3.776.768-6.46a1.01 1.01 0 0 0-1.001-1.128c-.04 0-.08.002-.12.007zm4.28 15.973a.79.79 0 0 1-.586.417.81.81 0 0 1-.684-.222l-.03-.03a.8.8 0 0 1-.234-.666l.698-5.866 5.828-3.053zm13.054-24.628l-.927 1.75-2.315-6.723 1.044-.048 2.257 2.227.058.056zm.758-4.94l-.6-.58 14.558-14.762.6.58zm25.34-22.982l-2.153 1.026a1.01 1.01 0 0 0-.355.283l-4.353 5.478-2.242.257-1.18-1.163.55-1.613 9.1-4.988c.063-.034.166-.032.27.006a.69.69 0 0 1 .395.383c.05.13.053.286-.042.332zM162.1 284.735a2.37 2.37 0 0 0 1.677.688h.017a2.38 2.38 0 0 0 1.663-4.092l-1.968-1.94a2.39 2.39 0 0 0-3.379.024 2.37 2.37 0 0 0-.688 1.695 2.37 2.37 0 0 0 .711 1.685zm-.555-3.904c.073-.074.17-.1.266-.1a.37.37 0 0 1 .262.107l1.968 1.94c.147.144.148.38.004.527a.37.37 0 0 1-.264.11.37.37 0 0 1-.264-.107l-1.97-1.94c-.095-.095-.1-.205-.1-.263s.013-.17.108-.265zm0 0"/><path d="M152.854 282.44c0 .494-.4.894-.894.894s-.894-.4-.894-.894.4-.894.894-.894.894.4.894.894zm15.126-8.068c0 .494-.4.894-.894.894s-.894-.4-.894-.894.4-.894.894-.894.894.4.894.894zm-1.608 5.755c.197.197.455.295.713.295s.516-.1.713-.295a1.01 1.01 0 0 0 0-1.426l-2.017-2.017a1.01 1.01 0 0 0-1.426 0 1.01 1.01 0 0 0 0 1.426zm0 0"/></g><path id="G" d="M0 0h350v350H0z"/></defs><pattern id="H" width="350" height="350" patternUnits="userSpaceOnUse"><use xlink:href="#A" x="-350" y="-350"/><use xlink:href="#A" y="-350"/><use xlink:href="#A" x="350" y="-350"/><use xlink:href="#A" x="-350"/><use xlink:href="#A"/><use xlink:href="#A" x="350"/><use xlink:href="#A" x="-350" y="350"/><use xlink:href="#A" y="350"/><use xlink:href="#A" x="350" y="350"/></pattern><use xlink:href="#G" fill="url(#H)"/><pattern id="I" width="350" height="350" patternUnits="userSpaceOnUse"><use xlink:href="#B" x="-350" y="-350"/><use xlink:href="#B" y="-350"/><use xlink:href="#B" x="350" y="-350"/><use xlink:href="#B" x="-350"/><use xlink:href="#B"/><use xlink:href="#B" x="350"/><use xlink:href="#B" x="-350" y="350"/><use xlink:href="#B" y="350"/><use xlink:href="#B" x="350" y="350"/></pattern><use xlink:href="#G" fill="url(#I)"/><pattern id="J" width="350" height="350" patternUnits="userSpaceOnUse"><use xlink:href="#C" x="-350" y="-350"/><use xlink:href="#C" y="-350"/><use xlink:href="#C" x="350" y="-350"/><use xlink:href="#C" x="-350"/><use xlink:href="#C"/><use xlink:href="#C" x="350"/><use xlink:href="#C" x="-350" y="350"/><use xlink:href="#C" y="350"/><use xlink:href="#C" x="350" y="350"/></pattern><use xlink:href="#G" fill="url(#J)"/><pattern id="K" width="350" height="350" patternUnits="userSpaceOnUse"><use xlink:href="#D" x="-350" y="-350"/><use xlink:href="#D" y="-350"/><use xlink:href="#D" x="350" y="-350"/><use xlink:href="#D" x="-350"/><use xlink:href="#D"/><use xlink:href="#D" x="350"/><use xlink:href="#D" x="-350" y="350"/><use xlink:href="#D" y="350"/><use xlink:href="#D" x="350" y="350"/></pattern><use xlink:href="#G" fill="url(#K)"/><pattern id="L" width="350" height="350" patternUnits="userSpaceOnUse"><use xlink:href="#E" x="-350" y="-350"/><use xlink:href="#E" y="-350"/><use xlink:href="#E" x="350" y="-350"/><use xlink:href="#E" x="-350"/><use xlink:href="#E"/><use xlink:href="#E" x="350"/><use xlink:href="#E" x="-350" y="350"/><use xlink:href="#E" y="350"/><use xlink:href="#E" x="350" y="350"/></pattern><use xlink:href="#G" fill="url(#L)"/><pattern id="M" width="350" height="350" patternUnits="userSpaceOnUse"><use xlink:href="#F" x="-350" y="-350"/><use xlink:href="#F" y="-350"/><use xlink:href="#F" x="350" y="-350"/><use xlink:href="#F" x="-350"/><use xlink:href="#F"/><use xlink:href="#F" x="350"/><use xlink:href="#F" x="-350" y="350"/><use xlink:href="#F" y="350"/><use xlink:href="#F" x="350" y="350"/></pattern><use xlink:href="#G" fill="url(#M)"/></svg>