<svg xmlns="http://www.w3.org/2000/svg" xmlns:xlink="http://www.w3.org/1999/xlink" width="400" height="400" viewBox="0 0 350 350"><path opacity="0" fill="#fff" d="M0 0h350v350H0z"/><defs><path d="M341.92 325.7a1.56 1.56 0 0 0-1.102-.345h-6.013l6.5-7.25a1.87 1.87 0 0 0 .226-.438 1.42 1.42 0 0 0 .106-.518c.038-.412-.163-.8-.518-1.022a3.17 3.17 0 0 0-1.5-.292h-7.062a1.54 1.54 0 0 0-1.035.319 1.05 1.05 0 0 0-.372.836c0 .478.16.774.478.9a4.63 4.63 0 0 0 1.434.173h4.566c-.186.265-.434.58-.743.942l-1.168 1.327-3.425 3.796-1.26 1.46c-.187.225-.294.505-.305.796-.02.398.142.782.438 1.05a1.94 1.94 0 0 0 1.354.319h8.3a1.62 1.62 0 0 0 1.102-.332c.242-.2.378-.516.372-.836a1.14 1.14 0 0 0-.372-.876zm12.596 7.18a1.25 1.25 0 0 0-.876-.279h-4.805l4.487-5.018.425-.465.265-.332c.077-.106.14-.222.186-.345.05-.13.078-.27.08-.4a.85.85 0 0 0-.411-.823 2.56 2.56 0 0 0-1.195-.226h-5.64c-.296-.017-.588.072-.823.252-.197.168-.305.418-.292.677 0 .38.128.615.385.704.37.104.756.15 1.142.133h3.637a9.11 9.11 0 0 1-.597.757l-.942 1.075-1.22 1.327-1.46 1.62-1 1.168a1.04 1.04 0 0 0-.24.637 1.06 1.06 0 0 0 .345.836 1.54 1.54 0 0 0 1.035.358h6.637a1.34 1.34 0 0 0 .89-.265c.194-.17.3-.42.292-.677.01-.266-.097-.522-.292-.704zm14.884-7.977a1.58 1.58 0 0 0-1.102-.345h-6.013l6.145-6.864.332-.4c.095-.135.17-.282.226-.438a1.42 1.42 0 0 0 .106-.518c.047-.404-.138-.8-.478-1.022a3.19 3.19 0 0 0-1.5-.292h-7.088a1.54 1.54 0 0 0-1.035.319 1.06 1.06 0 0 0-.358.836c0 .478.16.774.478.9a4.63 4.63 0 0 0 1.434.173h4.566c-.186.265-.438.57-.743.942l-1.168 1.327-1.54 1.7-1.832 2.03-1.26 1.46a1.33 1.33 0 0 0 .133 1.832c.364.293.82.444 1.288.425h8.3a1.62 1.62 0 0 0 1.102-.332c.242-.2.378-.516.372-.836.008-.332-.128-.65-.372-.876zm-1.902 58.193l-3.982-8.323c7.903-7.423 8.292-19.848.868-27.75a19.61 19.61 0 0 0-14.34-6.19c-10.842-.024-19.652 8.746-19.676 19.588a19.63 19.63 0 0 0 6.163 14.326l-3.9 8.27a1.33 1.33 0 0 0 .604 1.777 1.33 1.33 0 0 0 1.777-.604c.007-.015.014-.03.02-.045l3.597-7.633c6.817 4.913 16.014 4.913 22.83 0l3.624 7.712a1.33 1.33 0 0 0 1.753.67 1.33 1.33 0 0 0 .67-1.753l-.02-.045zm-8.23-11.455a1.33 1.33 0 0 1-1.872-.173l-8.376-10.115c-.2-.242-.3-.548-.305-.863v-10.62a1.33 1.33 0 0 1 1.327-1.327 1.33 1.33 0 0 1 1.327 1.327V360l8.07 9.756a1.33 1.33 0 0 1-.173 1.872zm-16.154-32.455a10.85 10.85 0 0 0-15.02-3.106c-5.006 3.3-6.396 10.014-3.106 15.02a10.85 10.85 0 0 0 2.62 2.768 1.33 1.33 0 0 0 1.858-.267 1.33 1.33 0 0 0-.265-1.857 8.12 8.12 0 0 1-3.265-6.544 8.19 8.19 0 0 1 14.973-4.526 1.33 1.33 0 0 0 1.845.358 1.33 1.33 0 0 0 .358-1.845zm31.516-.486a10.84 10.84 0 0 0-8.66-4.345 10.82 10.82 0 0 0-9.04 4.858 1.33 1.33 0 0 0 .201 1.866 1.33 1.33 0 0 0 1.866-.201c.052-.064.097-.133.136-.205a8.19 8.19 0 1 1 11.721 11.084 1.33 1.33 0 0 0-.264 1.859 1.33 1.33 0 0 0 1.857.265 10.85 10.85 0 0 0 2.181-15.181z" id="A" fill="#ec4a81"/><path d="M92.08 166.188a1.16 1.16 0 0 0-.804-.251H86.86l4.5-5.032.25-.303c.07-.097.125-.202.167-.313a1.05 1.05 0 0 0 .073-.376c.03-.304-.122-.598-.386-.752a2.34 2.34 0 0 0-1.096-.209H85.2a1.12 1.12 0 0 0-.762.23.77.77 0 0 0-.271.616c0 .355.115.564.355.647a3.38 3.38 0 0 0 1.044.125h3.34a10.32 10.32 0 0 1-.553.69l-.866.98-2.474 2.745-.92 1.044a.98.98 0 0 0 .094 1.347 1.42 1.42 0 0 0 .981.313h6.096a1.19 1.19 0 0 0 .814-.24.79.79 0 0 0 .27-.616.87.87 0 0 0-.27-.647zm9.208 5.25a.92.92 0 0 0-.647-.198h-3.507l3.288-3.674.313-.344.198-.24c.056-.077.1-.162.136-.25a.86.86 0 0 0 .063-.303c.026-.244-.092-.48-.303-.605a1.86 1.86 0 0 0-.877-.167H95.86a.91.91 0 0 0-.605.188.62.62 0 0 0-.22.49c0 .282.094.45.282.522a2.63 2.63 0 0 0 .835.104h2.63l-.438.553-.7.783-.898 1.044-1.044 1.2-.74.856c-.246.316-.214.766.073 1.044a1.13 1.13 0 0 0 .74.198h4.864a.95.95 0 0 0 .647-.188.64.64 0 0 0 .21-.49.67.67 0 0 0-.219-.512zm10.94-5.835a1.16 1.16 0 0 0-.804-.251h-4.405l4.123-4.604.376-.47.25-.303c.07-.097.125-.202.167-.313a1.05 1.05 0 0 0 .073-.376c.03-.304-.122-.598-.386-.752a2.35 2.35 0 0 0-1.148-.24h-5.115a1.12 1.12 0 0 0-.762.23.77.77 0 0 0-.271.616c0 .355.115.564.355.647a3.38 3.38 0 0 0 1.044.125h3.34l-.543.7-.866.98-2.474 2.745-.92 1.044a.96.96 0 0 0-.219.585.97.97 0 0 0 .313.762 1.42 1.42 0 0 0 .96.282h6.096a1.19 1.19 0 0 0 .814-.24.79.79 0 0 0 .27-.616.84.84 0 0 0-.27-.543zm-3.91 17.347a1.05 1.05 0 0 0-.85-.02h.01c-11.316 4.68-24.283-.698-28.963-12.014a22.17 22.17 0 0 1 .392-17.841 1.06 1.06 0 0 0-.497-1.4 1.05 1.05 0 0 0-.85-.02c-12.404 5.095-18.33 19.282-13.234 31.686s19.28 18.33 31.686 13.234a24.28 24.28 0 0 0 12.802-12.246 1.06 1.06 0 0 0-.498-1.4z" id="B" fill="#ec4a81"/><path d="M285.544 183.088c-6.054-2.817-7.013-2.22-9.986-.205l-1.956 1.3c-1.6 1.027-3.48 1.576-5.4 1.585a11.89 11.89 0 0 1-5.732-1.604c-1.744 1-3.716 1.563-5.732 1.604-1.896-.002-3.754-.537-5.36-1.545l-1.956-1.3c-2.934-1.956-3.912-2.6-9.957.225l-1.956.978v12.94a.98.98 0 0 0 .978.978h4.646a.98.98 0 0 0 .978-.724l1.272-4.695h34.233l1.272 4.695a.98.98 0 0 0 .978.724h4.646a.98.98 0 0 0 .978-.978v-13l-1.956-.978zm.958-8.225h-48.024a.98.98 0 0 0-.978.978v6.005l1.956-.92c6.035-2.72 7.57-2.025 11.043.293.567.372 1.193.792 1.956 1.242 4.754 2.934 9.3-.166 9.507-.303a.96.96 0 0 1 .225-.098h.117a1.08 1.08 0 0 1 .254 0h.117a.98.98 0 0 1 .196.078.9.9 0 0 1 .156.068c.186.127 4.744 3.218 9.497.303.734-.45 1.36-.87 1.956-1.242 3.472-2.328 5.008-3.022 11.043-.293.606.274 1.262.577 1.956.92v-6.054a.98.98 0 0 0-.978-.978zm.43-18.887c-.274-.166-7.023-4.02-24.452-4.02s-24.217 3.854-24.452 4.02a.98.98 0 0 0-.479.841v15.65a.98.98 0 0 0 .978.978h47.956a.98.98 0 0 0 .978-.978v-15.65a.98.98 0 0 0-.528-.841zm-27.954 15.336c0 .097-.08.176-.176.176h-14.23c-.097 0-.176-.08-.176-.176v-2.18c0-1.878.88-2.758 2.758-2.758h9.067c1.878 0 2.758.88 2.758 2.758v2.18zm21.4.176h-14.22c-.097 0-.176-.08-.176-.176v-2.18c0-1.878.88-2.758 2.758-2.758h9.057c1.878 0 2.758.88 2.758 2.758v2.18c0 .097-.08.176-.176.176z" id="C" fill="#ec4a81"/><path d="M166.24 329a19.88 19.88 0 0 1-1.954-.788l-3.222 23.046c-.065.47.202.923.644 1.095 2.048.73 4.172 1.225 6.332 1.473l.215-2.046 2.26-21.696a26.14 26.14 0 0 1-4.276-1.084zm8.765-4c-5.115 0-8.398.45-9.82 1.36a20.53 20.53 0 0 0 3.212 1.135 25.18 25.18 0 0 0 13.134 0c1.112-.304 2.202-.683 3.263-1.135-1.432-.9-4.675-1.36-9.8-1.36zm13.932 26.268l-3.212-23.097-1.964.757c-1.393.483-2.823.853-4.276 1.105l2.578 23.762 1.862-.297v5.534c0 .565.458 1.023 1.023 1.023s1.023-.458 1.023-1.023v-5.964a19.34 19.34 0 0 0 2.342-.716c.43-.177.687-.623.624-1.084zm-8.08 21.686h-4.828v-18.7c1.463 0 2.803-.102 4-.225l-.225-2.046-2.353-21.676-2.516.123c-.808 0-1.637 0-2.404-.113l-2.486 23.772 3.928.215v18.648h-4.828c-.565 0-1.023.458-1.023 1.023s.458 1.023 1.023 1.023h11.702c.565 0 1.023-.458 1.023-1.023s-.458-1.023-1.023-1.023z" id="D" fill="#ec4a81"/></defs><pattern id="E" width="350" height="350" patternUnits="userSpaceOnUse"><use xlink:href="#A" x="-350" y="-350"/><use xlink:href="#A" y="-350"/><use xlink:href="#A" x="350" y="-350"/><use xlink:href="#A" x="-350"/><use xlink:href="#A"/><use xlink:href="#A" x="350"/><use xlink:href="#A" x="-350" y="350"/><use xlink:href="#A" y="350"/><use xlink:href="#A" x="350" y="350"/></pattern><path fill="url(#E)" d="M0 0h350v350H0z"/><pattern id="F" width="350" height="350" patternUnits="userSpaceOnUse"><use xlink:href="#B" x="-350" y="-350"/><use xlink:href="#B" y="-350"/><use xlink:href="#B" x="350" y="-350"/><use xlink:href="#B" x="-350"/><use xlink:href="#B"/><use xlink:href="#B" x="350"/><use xlink:href="#B" x="-350" y="350"/><use xlink:href="#B" y="350"/><use xlink:href="#B" x="350" y="350"/></pattern><path fill="url(#F)" d="M0 0h350v350H0z"/><pattern id="G" width="350" height="350" patternUnits="userSpaceOnUse"><use xlink:href="#C" x="-350" y="-350"/><use xlink:href="#C" y="-350"/><use xlink:href="#C" x="350" y="-350"/><use xlink:href="#C" x="-350"/><use xlink:href="#C"/><use xlink:href="#C" x="350"/><use xlink:href="#C" x="-350" y="350"/><use xlink:href="#C" y="350"/><use xlink:href="#C" x="350" y="350"/></pattern><path fill="url(#G)" d="M0 0h350v350H0z"/><pattern id="H" width="350" height="350" patternUnits="userSpaceOnUse"><use xlink:href="#D" x="-350" y="-350"/><use xlink:href="#D" y="-350"/><use xlink:href="#D" x="350" y="-350"/><use xlink:href="#D" x="-350"/><use xlink:href="#D"/><use xlink:href="#D" x="350"/><use xlink:href="#D" x="-350" y="350"/><use xlink:href="#D" y="350"/><use xlink:href="#D" x="350" y="350"/></pattern><path fill="url(#H)" d="M0 0h350v350H0z"/></svg>