<svg xmlns="http://www.w3.org/2000/svg" xmlns:xlink="http://www.w3.org/1999/xlink" width="400" height="400" viewBox="0 0 350 350"><use xlink:href="#I" opacity="0" fill="#fff"/><defs><path d="M192.92 334.587h-6v-.667a1.34 1.34 0 0 0-1.333-1.333h-2v-.667a1.96 1.96 0 0 0-2-2h-4a1.96 1.96 0 0 0-2 2v.667h-2a1.34 1.34 0 0 0-1.333 1.333v.667h-6c-.4 0-.667.267-.667.667v34c0 .4.267.667.667.667h26.667c.4 0 .667-.267.667-.667v-34c0-.4-.267-.667-.667-.667zm-4 25.333h-4.667c-.4 0-.667.267-.667.667v4.667h-13.333v-26.667h2a1.34 1.34 0 0 0 1.333 1.333h12a1.34 1.34 0 0 0 1.333-1.333h2v21.333zm-.933 1.333l-3.067 3.067v-3.067h3.067zm-14.4-27.333h2.667c.4 0 .667-.267.667-.667v-1.333c0-.4.267-.667.667-.667h4c.4 0 .667.267.667.667v1.333c0 .4.267.667.667.667h2.667v4.667h-12v-4.667zm18.667 34.667H166.92V335.92h5.333v1.333h-2.667c-.4 0-.667.267-.667.667v28c0 .4.267.667.667.667h14.667c.266 0 .472-.118.58-.314l5.105-5.105c.16-.1.27-.244.303-.442a.57.57 0 0 0 .012-.175v-22.63c0-.4-.267-.667-.667-.667h-2.667v-1.333h5.333v32.667zM176.92 341.92h-4c-.4 0-.667.267-.667.667v4c0 .4.267.667.667.667h4c.4 0 .667-.267.667-.667v-4c0-.4-.267-.667-.667-.667zm-.667 4h-2.667v-2.667h2.667v2.667zm.667 3.334h-4c-.4 0-.667.267-.667.667v4c0 .4.267.667.667.667h4c.4 0 .667-.267.667-.667v-4c0-.4-.267-.667-.667-.667zm-.667 4h-2.667v-2.667h2.667v2.667zm.667 3.333h-4c-.4 0-.667.267-.667.667v4c0 .4.267.667.667.667h4c.4 0 .667-.267.667-.667v-4c0-.4-.267-.667-.667-.667zm-.667 4h-2.667v-2.667h2.667v2.667zm10-18.667h-6c-.4 0-.667.267-.667.667s.267.667.667.667h6c.4 0 .667-.267.667-.667s-.267-.667-.667-.667zm-6 4.667h4c.4 0 .667-.267.667-.667s-.267-.667-.667-.667h-4c-.4 0-.667.267-.667.667s.267.667.667.667zm6 2.667h-6c-.4 0-.667.267-.667.667s.267.667.667.667h6c.4 0 .667-.267.667-.667s-.267-.667-.667-.667zm-6 4.666h4c.4 0 .667-.267.667-.667s-.267-.667-.667-.667h-4c-.4 0-.667.267-.667.667s.267.667.667.667zm6 3.334h-6c-.4 0-.667.267-.667.667s.267.667.667.667h6c.4 0 .667-.267.667-.667s-.267-.667-.667-.667zm-4.667 3.333h-1.333c-.4 0-.667.267-.667.667s.267.667.667.667h1.333c.4 0 .667-.267.667-.667s-.267-.667-.667-.667zm-18.667-23.333v-4.667c0-1.467-1.2-2.667-2.667-2.667h-1.333c-1.467 0-2.667 1.2-2.667 2.667v31.333c0 .112.043.244.115.363l2.618 5.237c.133.267.333.4.6.4a.7.7 0 0 0 .6-.333l2.667-5.333a.52.52 0 0 0 .067-.533v-26.467zm-5.333 25.667v-25h1.333v24.738a6.63 6.63 0 0 0-.683.109 6.31 6.31 0 0 0-.65.154zm0-27.667h4v1.333h-4v-1.333zm2.667 27.397v-24.73h1.333v25c-.436-.135-.883-.225-1.333-.268zm-1.333-31.397h1.333a1.34 1.34 0 0 1 1.333 1.333v1.333h-4v-1.333a1.34 1.34 0 0 1 1.333-1.333zm.667 36.533l-1.727-3.52a5.42 5.42 0 0 1 2.954-.163l.06.014.04.01.408.126-1.733 3.533z" id="A" fill="#ec4a81"/><path d="M104.422 68.755h-34c-1.667 0-3 1.333-3 3V95.1c0 1.667 1.333 3 3 3h12.8l-1 4h-.133a3.3 3.3 0 0 0-3.333 3.333c0 .4.267.667.667.667h16c.4 0 .667-.267.667-.667a3.3 3.3 0 0 0-3.333-3.333h-.133l-1-4h12.8c1.667 0 3-1.333 3-3V71.755c0-1.667-1.333-3-3-3zm-35.667 3a1.65 1.65 0 0 1 1.667-1.667h34a1.65 1.65 0 0 1 1.667 1.667v19.667H68.755V71.755zm25.933 33H80.222a1.94 1.94 0 0 1 1.867-1.333h10.733a1.94 1.94 0 0 1 1.867 1.333zm-3.467-2.667h-7.6l1-4h5.6l1 4zm14.867-7a1.65 1.65 0 0 1-1.667 1.667h-34a1.65 1.65 0 0 1-1.667-1.667v-2.333h37.333v2.333zm-5.333-6.998h-10c-.4 0-.667.267-.667.667s.267.667.667.667h10c.4 0 .667-.267.667-.667s-.267-.667-.667-.667zm-19.333-3.335c0-.4-.267-.667-.667-.667H74.1c-.4 0-.667.267-.667.667s.267.667.667.667h6.667c.4 0 .667-.267.667-.667zm6 .667h10c.4 0 .667-.267.667-.667s-.267-.667-.667-.667h-10c-.4 0-.667.267-.667.667s.267.667.667.667zm0 2.668h-10c-.4 0-.667.267-.667.667s.267.667.667.667h10c.4 0 .667-.267.667-.667s-.267-.667-.667-.667zm13.333-12h-10c-.4 0-.667.267-.667.667s.267.667.667.667h10c.4 0 .667-.267.667-.667s-.267-.667-.667-.667zm0 4H94.1c-.4 0-.667.267-.667.667s.267.667.667.667h6.667c.4 0 .667-.267.667-.667s-.267-.667-.667-.667zm-13.333 1.332h1.333c.4 0 .667-.267.667-.667s-.267-.667-.667-.667h-1.333c-.4 0-.667.267-.667.667s.267.667.667.667zm0-8h10c.4 0 .667-.267.667-.667s-.267-.667-.667-.667h-10c-.4 0-.667.267-.667.667s.267.667.667.667zm-3.332-2H73.422V82.1H84.1V71.422zm-1.333 9.333h-8v-8h8v8z" id="B" fill="#ec4a81"/><path d="M246.422 73.422h7.333c.4 0 .667-.267.667-.667s-.267-.667-.667-.667h-7.333c-.4 0-.667.267-.667.667s.267.667.667.667zm10 0h6c.4 0 .667-.267.667-.667s-.267-.667-.667-.667h-6c-.4 0-.667.267-.667.667s.267.667.667.667zm-5.332 2c0-.4-.267-.667-.667-.667h-4c-.4 0-.667.267-.667.667s.267.667.667.667h4c.4 0 .667-.267.667-.667zm2-.667c-.4 0-.667.267-.667.667s.267.667.667.667h6c.4 0 .667-.267.667-.667s-.267-.667-.667-.667h-6zm9.332 0h-.667c-.4 0-.667.267-.667.667s.267.667.667.667h.667c.4 0 .667-.267.667-.667s-.267-.667-.667-.667zm17-6h-34c-1.667 0-3 1.333-3 3V95.1c0 1.667 1.333 3 3 3h12.8l-1 4h-.133a3.3 3.3 0 0 0-3.333 3.333c0 .4.267.667.667.667h16c.4 0 .667-.267.667-.667a3.3 3.3 0 0 0-3.333-3.333h-.133l-1-4h12.8c1.667 0 3-1.333 3-3V71.755c0-1.667-1.333-3-3-3zm-35.667 3a1.65 1.65 0 0 1 1.667-1.667h34a1.65 1.65 0 0 1 1.667 1.667v19.667h-37.333V71.755zm25.933 33H255.22a1.94 1.94 0 0 1 1.867-1.333h10.733a1.94 1.94 0 0 1 1.867 1.333zm-3.467-2.667h-7.6l1-4h5.6l1 4zm14.867-7a1.65 1.65 0 0 1-1.667 1.667h-34a1.65 1.65 0 0 1-1.667-1.667v-2.333h37.333v2.333zm-5.333-12.333a2.64 2.64 0 0 0-.907.16l-3.253-3.253c.103-.283.16-.6.16-.907 0-1.467-1.2-2.667-2.667-2.667s-2.667 1.2-2.667 2.667a2.64 2.64 0 0 0 .16.907l-4.8 4.802c-.4-.238-.863-.375-1.358-.375a2.64 2.64 0 0 0-.907.16l-1.253-1.253c.103-.283.16-.6.16-.907 0-1.467-1.2-2.667-2.667-2.667s-2.667 1.2-2.667 2.667a2.64 2.64 0 0 0 .16.907l-1.253 1.253c-.283-.103-.6-.16-.907-.16-1.467 0-2.667 1.2-2.667 2.667s1.2 2.667 2.667 2.667 2.667-1.2 2.667-2.667c0-.666-.248-1.276-.655-1.745l.9-.9a2.66 2.66 0 0 0 1.745.655c.665 0 1.276-.248 1.745-.655l.9.9a2.66 2.66 0 0 0-.655 1.745c0 1.467 1.2 2.667 2.667 2.667s2.667-1.2 2.667-2.667a2.64 2.64 0 0 0-.375-1.358l4.63-4.63a2.66 2.66 0 0 0 1.745.655c.665 0 1.276-.248 1.745-.655l2.9 2.9a2.66 2.66 0 0 0-.655 1.745c0 1.467 1.2 2.667 2.667 2.667s2.667-1.2 2.667-2.667-1.2-2.667-2.667-2.667zM251.1 88.1a1.34 1.34 0 0 1-1.333-1.333 1.34 1.34 0 0 1 1.333-1.333 1.34 1.34 0 0 1 1.333 1.333 1.34 1.34 0 0 1-1.333 1.333zm4.667-4.667a1.33 1.33 0 0 1-1.017-.474.68.68 0 0 0-.183-.326l-.034-.03a1.32 1.32 0 0 1-.1-.503 1.34 1.34 0 0 1 1.333-1.333 1.34 1.34 0 0 1 1.333 1.333 1.32 1.32 0 0 1-.1.503l-.034.03a.67.67 0 0 0-.183.326 1.33 1.33 0 0 1-1.017.474zm4.667 4.667a1.34 1.34 0 0 1-1.333-1.333 1.34 1.34 0 0 1 1.333-1.333 1.33 1.33 0 0 1 .87.326.72.72 0 0 0 .063.074.88.88 0 0 0 .081.071 1.32 1.32 0 0 1 .32.862 1.34 1.34 0 0 1-1.333 1.333zm8.667-8a1.34 1.34 0 0 1-1.333-1.333 1.34 1.34 0 0 1 1.333-1.333 1.34 1.34 0 0 1 1.333 1.333 1.32 1.32 0 0 1-.1.503l-.034.03a.67.67 0 0 0-.183.326 1.33 1.33 0 0 1-1.017.474zm6.667 6.667a1.34 1.34 0 0 1-1.333-1.333 1.34 1.34 0 0 1 1.333-1.333 1.34 1.34 0 0 1 1.333 1.333 1.34 1.34 0 0 1-1.333 1.333z" id="C" fill="#ec4a81"/><g id="D" fill="#ec4a81"><path d="M359.333 200.667h-18.667c-3.267 0-5.833 2.567-5.833 5.833 0 .7.467 1.167 1.167 1.167h28c.7 0 1.167-.467 1.167-1.167 0-3.267-2.566-5.833-5.833-5.833zm-21.933 4.667c.467-1.4 1.75-2.333 3.267-2.333h18.783c1.517 0 2.8.933 3.267 2.333H337.4z"/><path d="M359.333 201.6L357 192.267c-.117-.583-.583-.933-1.167-.933h-11.667c-.583 0-1.05.467-1.167.933l-2.333 9.333c0 .35 0 .7.233.933.233.35.583.467.933.467h16.333c.35 0 .7-.117.933-.35.233-.35.35-.7.233-1.05zm-15.983-.933l1.75-7h9.8l1.75 7h-13.3zm36.4-58.334h-59.5a5.23 5.23 0 0 0-5.25 5.25v35.583c0 .7.467 1.167 1.167 1.167h67.667c.7 0 1.167-.467 1.167-1.167v-35.583a5.23 5.23 0 0 0-5.25-5.25zM382.667 182h-65.333v-34.417c0-1.633 1.283-2.917 2.917-2.917h59.5c1.633 0 2.917 1.283 2.917 2.917V182z"/><path d="M383.834 182h-67.667c-.7 0-1.167.467-1.167 1.167v5.25a5.23 5.23 0 0 0 5.25 5.25h59.5a5.23 5.23 0 0 0 5.25-5.25v-5.25c0-.7-.467-1.167-1.167-1.167zm-1.167 6.417c0 1.633-1.283 2.917-2.917 2.917h-59.5c-1.633 0-2.917-1.283-2.917-2.917v-4.083h65.333v4.083zm-28-14.584c-.7 0-1.167.467-1.167 1.167v3.5c0 .7.467 1.167 1.167 1.167s1.167-.467 1.167-1.167V175c0-.7-.467-1.167-1.167-1.167zm4.666-4.666c-.7 0-1.167.467-1.167 1.167v8.167c0 .7.467 1.167 1.167 1.167s1.167-.467 1.167-1.167v-8.167c0-.7-.467-1.167-1.167-1.167zM364 171.5c-.7 0-1.167.467-1.167 1.167v5.833c0 .7.467 1.167 1.167 1.167s1.167-.467 1.167-1.167v-5.833c0-.7-.467-1.167-1.167-1.167zm4.667-8.167c-.7 0-1.167.467-1.167 1.167v14c0 .7.467 1.167 1.167 1.167s1.167-.467 1.167-1.167v-14c0-.7-.467-1.167-1.167-1.167zm4.666 4.667c-.7 0-1.167.467-1.167 1.167v9.333c0 .7.467 1.167 1.167 1.167s1.167-.467 1.167-1.167v-9.333c0-.7-.467-1.167-1.167-1.167zm-37.916-18.667c-7.35 0-13.417 6.067-13.417 13.417s6.067 13.417 13.417 13.417 13.417-6.067 13.417-13.417-6.067-13.417-13.417-13.417zm0 24.5c-6.067 0-11.083-5.017-11.083-11.083s5.017-11.083 11.083-11.083 11.083 5.017 11.083 11.083-5.017 11.083-11.083 11.083z"/><path d="M344.983 153.3c-2.683-2.683-6.417-4.083-10.15-3.967-.35 0-.583.117-.817.35s-.35.467-.35.817v12.833a1.17 1.17 0 0 0 1.167 1.167h12.833c.233 0 .583-.117.933-.233.233-.233.35-.467.35-.817.116-3.85-1.284-7.467-3.967-10.15zM336 162.167v-10.5c2.8.117 5.25 1.283 7.233 3.267s3.15 4.433 3.267 7.233H336z"/><path d="M344.283 171.15l-8.633-8.633c-.467-.467-1.167-.467-1.633 0s-.467 1.167 0 1.633l8.633 8.633c.233.233.467.35.817.35a1.06 1.06 0 0 0 .817-.35c.467-.467.467-1.167 0-1.633zM367.5 154h-9.333c-.7 0-1.167.467-1.167 1.167s.467 1.167 1.167 1.167h9.333c.7 0 1.167-.467 1.167-1.167S368.2 154 367.5 154zm6.767.35c-.117 0-.117-.117-.233-.117s-.117-.117-.233-.117c-.117-.117-.117-.117-.233-.117-.35 0-.817.117-1.05.35s-.35.467-.35.817c0 .233.117.35.117.467s.117.233.233.35c.233.233.467.35.817.35h.233c.117-.117.117-.117.233-.117s.233-.117.233-.117c.117 0 .233-.117.233-.117.117-.117.117-.233.233-.35s.117-.35.117-.467c0-.35-.117-.584-.35-.817zm-.934-6.183h-3.5c-.7 0-1.167.467-1.167 1.167s.467 1.167 1.167 1.167h3.5c.7 0 1.167-.467 1.167-1.167s-.467-1.167-1.167-1.167zm-12.833 0h-2.333c-.7 0-1.167.467-1.167 1.167s.467 1.167 1.167 1.167h2.333c.7 0 1.167-.467 1.167-1.167s-.467-1.167-1.167-1.167zm5.6.35c-.117 0-.117-.117-.233-.117s-.117-.117-.233-.117c-.117-.117-.117-.117-.233-.117h-.467c-.117.117-.117.117-.233.117s-.117.117-.233.117l-.117.117c-.117.117-.233.233-.233.35-.117.117-.117.35-.117.467a1.06 1.06 0 0 0 .35.817l.117.117c.117 0 .117.117.233.117.117.117.117.117.233.117h.35c.117-.117.117-.117.233-.117s.233-.117.233-.117c.117 0 .233-.117.233-.117.233-.233.35-.467.35-.817v-.467c0-.117-.117-.233-.233-.35z"/></g><path d="M176.115 166.1l13.523-3.623c.676-.18 1.006-.753.825-1.43l-1.812-6.76c-.18-.676-.753-1.006-1.43-.825l-13.523 3.623c-.676.18-1.006.753-.825 1.43l1.812 6.76c.18.676.753 1.006 1.43.825zm-.685-7.063l11.27-3.02 1.208 4.508-11.27 3.02-1.208-4.508zm23.805-14.835l-11.27 3.02-2.416-9.015a2.34 2.34 0 0 0-2.858-1.65l-33.807 9.06a2.34 2.34 0 0 0-1.65 2.858l2.416 9.015-11.27 3.02c-1.916.513-2.988 2.37-2.475 4.287l10.266 38.315c.513 1.916 2.37 2.988 4.287 2.475l7.658-2.052.6 9.016a2.82 2.82 0 0 0 .964 1.795c.46.36 1.226.517 1.902.336l44.626-11.957c.676-.18 1.15-.67 1.592-1.272.3-.684.23-1.4-.063-2.037l-4.026-8.1 7.6-2.034c1.916-.513 2.988-2.37 2.475-4.287L203.52 146.67c-.513-1.916-2.37-2.988-4.287-2.475zm-49.746 3.667l33.807-9.06 2.416 9.015-33.807 9.06-2.416-9.015zm1.893 11.57l38.315-10.266 3.02 11.27c.513 1.916-.56 3.773-2.475 4.287l-33.807 9.06c-1.916.513-3.773-.56-4.287-2.475l-3.02-11.27 2.254-.604zm-12.396 3.32l7.888-2.114 3.02 11.27c.845 3.155 4 4.97 7.144 4.125l33.807-9.06c3.155-.845 4.97-4 4.125-7.144l-3.02-11.27 7.888-2.114c.676-.18 1.248.15 1.43.825l6.34 23.665-63.107 16.9-6.34-23.665c-.18-.676.15-1.248.825-1.43zM161 212.416l-.653-10.122a1.24 1.24 0 0 0 .024-.339l-.75-10.9 36.512-9.783 4.806 9.824a.99.99 0 0 0 .2.28l4.495 9.092L161 212.416zm50.545-26.83c.18.676-.15 1.248-.825 1.43l-8.047 2.156-4.873-9.806c-.264-.533-.805-.75-1.368-.6l-38.315 10.266c-.564.15-.924.6-.885 1.204l.738 10.914-8.102 2.17c-.676.18-1.248-.15-1.43-.825l-3.32-12.396 63.107-16.9 3.32 12.396zm-41.183 8.617l18.03-4.83c.676-.18 1.006-.753.825-1.43s-.753-1.006-1.43-.825l-18.03 4.83c-.676.18-1.006.753-.825 1.43s.753 1.006 1.43.825zm-1.872 6.54l24.792-6.643c.676-.18 1.006-.753.825-1.43s-.753-1.006-1.43-.825l-24.792 6.643c-.676.18-1.006.753-.825 1.43s.753 1.006 1.43.825zm29.08-4.168l-31.554 8.455c-.676.18-1.006.753-.825 1.43s.753 1.006 1.43.825l31.553-8.455c.676-.18 1.006-.753.825-1.43s-.753-1.006-1.43-.825z" id="E" fill="#ec4a81"/><path d="M104.902 253.236h-3.333c-.5 0-.833.333-.833.833v3.333c0 .5.333.833.833.833h.833v4.167c0 .817-.596 1.5-1.374 1.64-.744-1.047-2.14-1.64-3.46-1.64h-9.333v-1.667h5.25c1.25 0 2.417-.5 3.333-1.417.833-.917 1.333-2.167 1.25-3.417l-.5-14.083c-.167-2.5-2.167-4.417-4.667-4.417h-11c-2.5 0-4.583 1.917-4.667 4.417l-.5 14.083c-.083 1.333.333 2.5 1.25 3.417.833.917 2.083 1.417 3.333 1.417h5.25v1.667h-9.167c-1.448 0-2.896.564-3.644 1.636-.77-.147-1.356-.826-1.356-1.636v-4.167h.833c.5 0 .833-.333.833-.833v-3.333c0-.5-.333-.833-.833-.833h-3.333c-.5 0-.833.333-.833.833v3.333c0 .5.333.833.833.833h.833v4.167c0 1.547 1.068 2.857 2.503 3.228l-.003.105c0 3.717 7.54 4.674 11.667 4.918v2.582h1.667v1.667h-1.667v.968l-10.25 2.365c-.417.083-.667.583-.583 1v.7a3.73 3.73 0 0 0-3.333 3.727c0 2.083 1.667 3.75 3.75 3.75s3.75-1.667 3.75-3.75a3.73 3.73 0 0 0-2.5-3.539v-.365l9.167-2.115v.27l-2.002 2.002-.08-.002c-2.083 0-3.75 1.667-3.75 3.75s1.667 3.75 3.75 3.75 3.75-1.667 3.75-3.75c0-1.387-.74-2.588-1.847-3.237l1.347-1.347h2.667l1.347 1.347c-1.108.65-1.847 1.85-1.847 3.237 0 2.083 1.667 3.75 3.75 3.75s3.75-1.667 3.75-3.75-1.667-3.75-3.75-3.75c-.027 0-.054.001-.08.002l-2.002-2.002v-.27l9.167 2.115v.365a3.73 3.73 0 0 0-2.5 3.539c0 2.083 1.667 3.75 3.75 3.75s3.75-1.667 3.75-3.75a3.73 3.73 0 0 0-3.333-3.727v-.7c.02-.107.015-.22-.013-.33-.047-.296-.225-.516-.49-.614-.053-.026-.108-.045-.165-.057L89.902 275.9v-.987h-1.667v-1.667h1.667v-2.582c4.128-.244 11.667-1.2 11.667-4.918 0-.036-.002-.07-.003-.105 1.435-.37 2.503-1.68 2.503-3.228v-4.167h.833c.5 0 .833-.333.833-.833v-3.333c0-.5-.333-.833-.833-.833zm-23.5 5.833c-.833 0-1.583-.333-2.167-.917s-.833-1.333-.833-2.167l.5-14.083c.083-1.583 1.417-2.833 3-2.833h11c1.583 0 2.917 1.25 3 2.833l.583 14.083c0 .833-.25 1.583-.833 2.167s-1.333.917-2.167.917H81.402zm-10.667-4.167h1.667v1.667h-1.667v-1.667zm5.833 28.75a2.06 2.06 0 1 1-4.167 0 2.06 2.06 0 1 1 4.167 0zm6.25 2.083a2.06 2.06 0 1 1 0-4.167 2.06 2.06 0 1 1 0 4.167zm11.25-2.083a2.06 2.06 0 1 1-4.167 0 2.06 2.06 0 1 1 4.167 0zm8.333 0a2.06 2.06 0 1 1-4.167 0 2.06 2.06 0 1 1 4.167 0zM86.57 276.57h1.655a.79.79 0 0 0 .012.1v.734H86.57v-.833zm1.667-5.833v.833H86.57v-.833h1.667zm-.833-1.667c-6 0-12.5-1.333-12.5-3.333 0-1.083 1.25-1.667 2.5-1.667H97.57c1 0 2.333.583 2.333 1.667 0 2-6.5 3.333-12.5 3.333zm16.667-12.5h-1.667v-1.667h1.667v1.667z" id="F" fill="#ec4a81"/><path d="M306.874 243.274l-3.15-3.15a1.45 1.45 0 0 0-2.1 0l-4.275 4.275-1.125-1.125 6.45-6.45c.15-.15.45-.6.45-1.05s-.15-.75-.45-1.05l-.075-.075 2.775-2.775c2.55-2.55 2.55-6.6 0-9.15l-3.45-3.45c-1.2-1.2-2.85-1.95-4.65-1.95-1.65 0-3.3.75-4.65 1.8l-2.78 2.78c-.598-.526-1.447-.503-2.02.072l-60.75 60.75c-5.386 5.386-8.228 12.9-7.707 20.457l-1.593 1.593a1.45 1.45 0 0 0 0 2.1c.3.3.6.45 1.05.45s.75-.15 1.05-.45l1.557-1.557c.584.056 1.202.057 1.743.057 7.05 0 13.8-2.85 18.75-7.8l52.2-52.2 1.125 1.125-23.325 23.325a1.45 1.45 0 0 0 0 2.1l3.15 3.15c.3.3.6.45 1.05.45a1.62 1.62 0 0 0 1.05-.45l29.7-29.7c.6-.6.6-1.5 0-2.1zm-12.15-21.9c1.35-1.35 3.75-1.35 5.1 0l3.6 3.6c1.35 1.35 1.35 3.6 0 4.95l-2.775 2.775-8.552-8.552 2.627-2.773zM288.8 225.2l10.575 10.575c.026.026.052.05.078.072L240.86 294.44c-2.33-1.18-4.41-2.787-6.136-4.514s-3.335-3.807-4.514-6.136l5.64-5.64 5.325 5.325c.3.3.6.45 1.05.45a1.62 1.62 0 0 0 1.05-.45l43.5-43.5a1.45 1.45 0 0 0 0-2.1l-5.325-5.325 7.35-7.35zm-9.525 9.525l4.2 4.2-41.4 41.4-4.2-4.2 41.4-41.4zm-56.8 64.553l.015-.166.026-.272c.49-4.678 2.463-9.185 5.608-12.815 1.2 2.25 2.7 4.2 4.5 6 1.8 1.65 3.75 3.3 6 4.5-4.5 3.9-10.2 5.85-16.2 5.7-.046-.988-.028-1.972.05-2.947zm53.65-27.353l-1.05-1.05 27.6-27.6 1.05 1.05-27.6 27.6z" id="G" fill="#ec4a81"/><path d="M28.968 318.572c1.085-1.142 1.755-2.682 1.755-4.372a6.38 6.38 0 0 0-6.357-6.357 6.38 6.38 0 0 0-6.357 6.357c0 1.7.67 3.23 1.755 4.372-2.935 1.63-4.934 4.764-4.934 8.343v7.63c0 .954.636 1.6 1.6 1.6s1.6-.636 1.6-1.6v-7.63a6.38 6.38 0 0 1 6.357-6.357 6.38 6.38 0 0 1 6.357 6.357v7.63c0 .954.636 1.6 1.6 1.6s1.6-.636 1.6-1.6v-7.63c0-3.58-1.998-6.712-4.934-8.343zm-7.78-4.372a3.19 3.19 0 0 1 3.179-3.179 3.19 3.19 0 0 1 3.179 3.179 3.19 3.19 0 0 1-3.179 3.179 3.19 3.19 0 0 1-3.179-3.179zm17.482-13.033h-63.576c-2.702 0-4.768 2.066-4.768 4.768v85.827c0 2.702 2.066 4.768 4.768 4.768H38.67c2.702 0 4.768-2.066 4.768-4.768v-85.827c0-2.702-2.066-4.768-4.768-4.768zm1.6 90.595c0 .954-.636 1.6-1.6 1.6h-63.576c-.954 0-1.6-.636-1.6-1.6v-85.827c0-.954.636-1.6 1.6-1.6H38.67c.954 0 1.6.636 1.6 1.6v85.827zM32.313 342.5h-50.86c-.954 0-1.6.636-1.6 1.6s.636 1.6 1.6 1.6h50.86c.954 0 1.6-.636 1.6-1.6s-.636-1.6-1.6-1.6zm0 22.252h-50.86c-.954 0-1.6.636-1.6 1.6s.636 1.6 1.6 1.6h50.86c.954 0 1.6-.636 1.6-1.6s-.636-1.6-1.6-1.6zM16.42 350.438H8.472c-.954 0-1.6.636-1.6 1.6s.636 1.6 1.6 1.6h7.947c.954 0 1.6-.636 1.6-1.6s-.636-1.6-1.6-1.6zm7.946 3.178c.954 0 1.6-.636 1.6-1.6s-.636-1.6-1.6-1.6h-1.6c-.954 0-1.6.636-1.6 1.6s.636 1.6 1.6 1.6h1.6zm-15.894 6.358h4.768c.954 0 1.6-.636 1.6-1.6s-.636-1.6-1.6-1.6H8.472c-.954 0-1.6.636-1.6 1.6s.636 1.6 1.6 1.6zm9.536-1.59c0 .954.636 1.6 1.6 1.6h11.126c.954 0 1.6-.636 1.6-1.6s-.636-1.6-1.6-1.6H19.598c-.954 0-1.6.636-1.6 1.6zm-36.555-4.77h7.947c.954 0 1.6-.636 1.6-1.6s-.636-1.6-1.6-1.6h-7.947c-.954 0-1.6.636-1.6 1.6s.636 1.6 1.6 1.6zm15.893 0c.954 0 1.6-.636 1.6-1.6s-.636-1.6-1.6-1.6h-1.6c-.954 0-1.6.636-1.6 1.6s.636 1.6 1.6 1.6h1.6zm17.484 20.662c0-.954-.636-1.6-1.6-1.6H8.472c-.954 0-1.6.636-1.6 1.6s.636 1.6 1.6 1.6h4.768c.953 0 1.6-.636 1.6-1.6zm15.894-1.588H19.598c-.954 0-1.6.636-1.6 1.6s.636 1.6 1.6 1.6h11.126c.954 0 1.6-.636 1.6-1.6s-.636-1.6-1.6-1.6zm-11.126 6.356H14.83c-.954 0-1.6.636-1.6 1.6s.636 1.6 1.6 1.6h4.768c.954 0 1.6-.636 1.6-1.6s-.636-1.6-1.6-1.6zm11.126 0h-4.768c-.954 0-1.6.636-1.6 1.6s.636 1.6 1.6 1.6h4.768c.954 0 1.6-.636 1.6-1.6s-.636-1.6-1.6-1.6zM-10.6 372.7h-7.947c-.954 0-1.6.636-1.6 1.6s.636 1.6 1.6 1.6h7.947c.954 0 1.6-.636 1.6-1.6s-.636-1.6-1.6-1.6zm7.946 0h-1.6c-.954 0-1.6.636-1.6 1.6s.636 1.6 1.6 1.6h1.6c.954 0 1.6-.636 1.6-1.6s-.636-1.6-1.6-1.6zm-15.893-55.63H-7.42c.954 0 1.6-.636 1.6-1.6s-.636-1.6-1.6-1.6h-11.126c-.954 0-1.6.636-1.6 1.6s.636 1.6 1.6 1.6zm0 12.716H-7.42c.954 0 1.6-.636 1.6-1.6s-.636-1.6-1.6-1.6h-11.126c-.954 0-1.6.636-1.6 1.6s.636 1.6 1.6 1.6zm17.483-12.716h1.6c.954 0 1.6-.636 1.6-1.6s-.636-1.6-1.6-1.6h-1.6c-.954 0-1.6.636-1.6 1.6s.636 1.6 1.6 1.6zm0 6.358h7.947c.954 0 1.6-.636 1.6-1.6s-.636-1.6-1.6-1.6h-7.947c-.954 0-1.6.636-1.6 1.6s.636 1.6 1.6 1.6zm0 6.358h1.6c.954 0 1.6-.636 1.6-1.6s-.636-1.6-1.6-1.6h-1.6c-.954 0-1.6.636-1.6 1.6s.636 1.6 1.6 1.6zm0 6.357h7.947c.954 0 1.6-.636 1.6-1.6s-.636-1.6-1.6-1.6h-7.947c-.954 0-1.6.636-1.6 1.6s.636 1.6 1.6 1.6z" id="H" fill="#ec4a81"/><path id="I" d="M0 0h350v350H0z"/></defs><pattern id="J" width="350" height="350" patternUnits="userSpaceOnUse"><use xlink:href="#A" x="-350" y="-350"/><use xlink:href="#A" y="-350"/><use xlink:href="#A" x="350" y="-350"/><use xlink:href="#A" x="-350"/><use xlink:href="#A"/><use xlink:href="#A" x="350"/><use xlink:href="#A" x="-350" y="350"/><use xlink:href="#A" y="350"/><use xlink:href="#A" x="350" y="350"/></pattern><use xlink:href="#I" fill="url(#J)"/><pattern id="K" width="350" height="350" patternUnits="userSpaceOnUse"><use xlink:href="#B" x="-350" y="-350"/><use xlink:href="#B" y="-350"/><use xlink:href="#B" x="350" y="-350"/><use xlink:href="#B" x="-350"/><use xlink:href="#B"/><use xlink:href="#B" x="350"/><use xlink:href="#B" x="-350" y="350"/><use xlink:href="#B" y="350"/><use xlink:href="#B" x="350" y="350"/></pattern><use xlink:href="#I" fill="url(#K)"/><pattern id="L" width="350" height="350" patternUnits="userSpaceOnUse"><use xlink:href="#C" x="-350" y="-350"/><use xlink:href="#C" y="-350"/><use xlink:href="#C" x="350" y="-350"/><use xlink:href="#C" x="-350"/><use xlink:href="#C"/><use xlink:href="#C" x="350"/><use xlink:href="#C" x="-350" y="350"/><use xlink:href="#C" y="350"/><use xlink:href="#C" x="350" y="350"/></pattern><use xlink:href="#I" fill="url(#L)"/><pattern id="M" width="350" height="350" patternUnits="userSpaceOnUse"><use xlink:href="#D" x="-350" y="-350"/><use xlink:href="#D" y="-350"/><use xlink:href="#D" x="350" y="-350"/><use xlink:href="#D" x="-350"/><use xlink:href="#D"/><use xlink:href="#D" x="350"/><use xlink:href="#D" x="-350" y="350"/><use xlink:href="#D" y="350"/><use xlink:href="#D" x="350" y="350"/></pattern><use xlink:href="#I" fill="url(#M)"/><pattern id="N" width="350" height="350" patternUnits="userSpaceOnUse"><use xlink:href="#E" x="-350" y="-350"/><use xlink:href="#E" y="-350"/><use xlink:href="#E" x="350" y="-350"/><use xlink:href="#E" x="-350"/><use xlink:href="#E"/><use xlink:href="#E" x="350"/><use xlink:href="#E" x="-350" y="350"/><use xlink:href="#E" y="350"/><use xlink:href="#E" x="350" y="350"/></pattern><use xlink:href="#I" fill="url(#N)"/><pattern id="O" width="350" height="350" patternUnits="userSpaceOnUse"><use xlink:href="#F" x="-350" y="-350"/><use xlink:href="#F" y="-350"/><use xlink:href="#F" x="350" y="-350"/><use xlink:href="#F" x="-350"/><use xlink:href="#F"/><use xlink:href="#F" x="350"/><use xlink:href="#F" x="-350" y="350"/><use xlink:href="#F" y="350"/><use xlink:href="#F" x="350" y="350"/></pattern><use xlink:href="#I" fill="url(#O)"/><pattern id="P" width="350" height="350" patternUnits="userSpaceOnUse"><use xlink:href="#G" x="-350" y="-350"/><use xlink:href="#G" y="-350"/><use xlink:href="#G" x="350" y="-350"/><use xlink:href="#G" x="-350"/><use xlink:href="#G"/><use xlink:href="#G" x="350"/><use xlink:href="#G" x="-350" y="350"/><use xlink:href="#G" y="350"/><use xlink:href="#G" x="350" y="350"/></pattern><use xlink:href="#I" fill="url(#P)"/><pattern id="Q" width="350" height="350" patternUnits="userSpaceOnUse"><use xlink:href="#H" x="-350" y="-350"/><use xlink:href="#H" y="-350"/><use xlink:href="#H" x="350" y="-350"/><use xlink:href="#H" x="-350"/><use xlink:href="#H"/><use xlink:href="#H" x="350"/><use xlink:href="#H" x="-350" y="350"/><use xlink:href="#H" y="350"/><use xlink:href="#H" x="350" y="350"/></pattern><use xlink:href="#I" fill="url(#Q)"/></svg>