<svg xmlns="http://www.w3.org/2000/svg" xmlns:xlink="http://www.w3.org/1999/xlink" width="400" height="400" viewBox="0 0 350 350"><use xlink:href="#I" opacity="0" fill="#d3ae9a"/><defs><path d="M367.212 365.1l.016-.06a9.13 9.13 0 0 1-12.353-3.493 8.6 8.6 0 0 1-8.969 4.754 8.51 8.51 0 0 1-5.72-3.772l-.398-.7a10.57 10.57 0 0 1-11.4 4.169l-.315-.084a10.83 10.83 0 0 1-7.044-13.2l.014-.052-.226.12c-2.293 1.192-4.986 1.345-7.4.418-.385-.143-.758-.314-1.118-.512l-6.98 26.054c-.2.75.244 1.52.994 1.722l65.2 17.47c.75.2 1.52-.244 1.722-.994l4.895-18.267a10.39 10.39 0 0 1-3.87-.385 10.83 10.83 0 0 1-7.048-13.201zm-15.794 14.08l-5.22 2.004.293 5.583a1.41 1.41 0 0 1-.9 1.387c-.568.22-1.214.045-1.597-.428l-3.52-4.345-5.22 2.004c-.57.218-1.214.046-1.597-.428s-.418-1.14-.086-1.65l3.046-4.7-3.518-4.345c-.383-.473-.418-1.14-.086-1.65a1.41 1.41 0 0 1 1.544-.592l5.4 1.447 3.046-4.7c.333-.508.954-.746 1.54-.588a1.41 1.41 0 0 1 1.04 1.28l.296 5.584 5.4 1.447a1.4 1.4 0 0 1 1.04 1.285 1.41 1.41 0 0 1-.9 1.387zm-5.048-1.073l-2.207-.6c-.588-.158-1.008-.676-1.04-1.285l-.12-2.28-1.24 1.917c-.332.5-.955.75-1.543.592l-2.2-.592 1.437 1.775c.384.473.42 1.14.088 1.65l-1.24 1.917 2.132-.82c.57-.22 1.214-.046 1.597.428l1.437 1.775-.117-2.28c-.032-.6.332-1.168.9-1.386zm40.865-22.535l-73.35-19.654c-.75-.2-1.52.244-1.722.994l-1.55 5.786a6.8 6.8 0 0 0 1.816 6.659 5.58 5.58 0 0 0 1.96 1.216 6.27 6.27 0 0 0 5.14-.28 6.34 6.34 0 0 0 3.22-3.994c.2-.75.972-1.195 1.722-.994s1.195.972.994 1.722l-1.722 6.425a8 8 0 0 0 5.141 9.778 7.73 7.73 0 0 0 9.702-5.408l.546-2.037c.2-.75.972-1.195 1.722-.994s1.195.972.994 1.722a5.64 5.64 0 0 0 4.527 7.013c2.943.382 5.704-1.506 6.416-4.387l1.197-4.47c.2-.75.972-1.195 1.722-.994s1.195.972.994 1.722a6.33 6.33 0 0 0 4.475 7.75 6.33 6.33 0 0 0 7.75-4.475c.2-.75.972-1.195 1.722-.994s1.195.972.994 1.722l-1.722 6.425a8 8 0 0 0 5.141 9.778c2.004.595 4.163.357 6-.66s3.165-2.73 3.713-4.746l3.458-12.904c.2-.75-.244-1.52-.994-1.722zM330.2 318.454l8.15 2.184-4.732 17.658-8.15-2.184zm43.468 11.646l8.15 2.184-4.732 17.658-8.15-2.184zm-21.733-5.822l8.15 2.184-4.732 17.658-8.15-2.184zm5.53-4.342c1.5.402 3.043-.488 3.445-2 .2-.708-.917-3.186-2.46-5.65a14.41 14.41 0 0 0-2.973 4.195c-.402 1.5.488 3.043 2 3.445zm21.734 5.824c1.5.402 3.043-.488 3.445-2 .2-.708-.917-3.186-2.46-5.65a14.41 14.41 0 0 0-2.973 4.195c-.402 1.5.488 3.043 2 3.445zm-43.468-11.647c1.5.402 3.043-.488 3.445-2 .2-.708-.917-3.186-2.46-5.65a14.41 14.41 0 0 0-2.973 4.195c-.402 1.5.488 3.043 2 3.445z" id="A" fill="#ec4a81"/><path d="M199.194 165.74l5.282-1.415 1.132 4.226-5.282 1.415zm-27.434-22.1l4.246 15.847.803-.215c1.098-.297 2.272-.004 3.1.776s1.193 1.934.962 3.048l-.788 3.868 13.435-6.997c.88-.46 1.923-.497 2.833-.097s1.6 1.2 1.847 2.15l.427 1.595 5.282-1.415-6.794-25.356zm23.635 4.774l-2.736 3.38 2.368 3.647c.258.397.23.916-.067 1.284s-.8.503-1.242.333l-4.06-1.56-2.736 3.38c-.298.368-.8.503-1.242.333s-.725-.605-.7-1.078l.227-4.342-4.06-1.56c-.442-.17-.725-.605-.7-1.078s.352-.877.8-1l4.2-1.125.228-4.342c.026-.472.353-.873.8-.996a1.09 1.09 0 0 1 1.198.458l2.37 3.646 4.2-1.125c.458-.123.942.063 1.2.46s.23.916-.067 1.284zm-3.818 1.24l-1.717.46c-.458.123-.942-.063-1.2-.46l-.968-1.5-.1 1.774c-.025.473-.35.877-.8 1l-1.72.46 1.66.637c.442.17.725.605.7 1.078l-.1 1.774 1.118-1.38c.298-.368.8-.503 1.242-.333l1.66.637-.966-1.5c-.258-.397-.23-.916.067-1.284zm-14.2 11.732l-10.058 2.695a1.08 1.08 0 0 0-.77.745c-.1.36-.023.75.23 1.03l3.695 4.173 7.144-1.914 1.113-5.457c.08-.368-.04-.75-.315-1.007-.275-.266-.67-.366-1.04-.265zm-13.888 34.21l.1-1.774-1.118 1.38c-.298.368-.8.503-1.242.333l-1.654-.638.966 1.5c.258.397.23.916-.067 1.284l-1.12 1.38 1.717-.46c.458-.123.942.063 1.2.46l.966 1.5.1-1.774c.025-.475.354-.88.813-1l1.717-.46-1.66-.637c-.442-.17-.725-.605-.7-1.078zm13.54-6.942l4.226-1.132 4.246 15.847-4.226 1.132zm22.005-13.492c.197-.268.26-.6.174-.932l-3.12-11.642c-.085-.32-.312-.586-.616-.72a1.07 1.07 0 0 0-.939.034l-14.695 7.656 1.812 6.76 16.552-.714a1.06 1.06 0 0 0 .831-.442zm-33.613-29.824l4.226-1.132 4.246 15.847-4.226 1.132zm5.584 43.314c-.83-.777-1.2-1.93-.956-3.042l.788-3.867-13.434 7.002a3.3 3.3 0 0 1-.676.264c-1.747.464-3.54-.575-4.006-2.323l-.427-1.595-5.282 1.415 6.794 25.356 25.356-6.794-4.246-15.847-.803.215c-1.102.3-2.28.004-3.107-.783zm-.53 8.902c-.025.473-.35.877-.8 1l-4.2 1.125-.228 4.342c-.026.472-.353.873-.8.996a1.09 1.09 0 0 1-1.198-.458l-2.37-3.646-4.2 1.125c-.458.123-.942-.063-1.2-.46s-.23-.916.067-1.284l2.736-3.38-2.368-3.647c-.258-.397-.23-.916.067-1.284s.8-.503 1.242-.333l4.06 1.56 2.736-3.38c.298-.368.8-.503 1.242-.333s.725.605.7 1.078l-.227 4.342 4.06 1.56c.442.17.725.605.7 1.078zm3.072-10.232l10.058-2.695a1.08 1.08 0 0 0 .77-.745c.1-.36.023-.75-.23-1.03l-3.695-4.173-7.144 1.914-1.113 5.457a1.07 1.07 0 0 0 .314 1.012c.277.264.672.363 1.04.26zm-28.233-7.155l5.282-1.415 1.132 4.226-5.282 1.415zm54.097 5.803l.1-1.774-1.118 1.38c-.298.368-.8.503-1.242.333l-1.654-.638.966 1.5c.258.397.23.916-.067 1.284l-1.12 1.38 1.717-.46c.458-.123.942.063 1.2.46l.966 1.5.1-1.774c.025-.475.354-.88.813-1l1.717-.46-1.66-.637c-.442-.17-.725-.605-.7-1.078zm1.9-12.306a3.28 3.28 0 0 1-.322 2.486c-.432.753-1.147 1.303-1.985 1.53a3.32 3.32 0 0 1-.719.11l-15.134.65 2.62 2.96c.755.85 1.015 2.03.687 3.12a3.27 3.27 0 0 1-2.296 2.22l-.803.215 4.246 15.847 25.356-6.794-6.794-25.356-5.282 1.415zm5.075 14.266c-.025.473-.35.877-.8 1l-4.2 1.125-.228 4.342c-.026.472-.353.873-.8.996a1.09 1.09 0 0 1-1.198-.458l-2.37-3.647-4.2 1.125c-.458.123-.942-.063-1.2-.46s-.23-.916.067-1.284l2.736-3.38-2.368-3.647c-.258-.397-.23-.916.067-1.284s.8-.503 1.242-.333l4.06 1.56 2.736-3.38c.298-.368.8-.503 1.242-.333s.725.605.7 1.078l-.227 4.342 4.06 1.56c.442.17.725.605.7 1.078zm-34.953-15.897l6.34-1.698 1.698 6.34-6.34 1.698zm-21.84 3a3.3 3.3 0 0 1 .522-2.8c.59-.812 1.5-1.293 2.505-1.334l15.132-.658-2.62-2.96c-.752-.85-1-2.03-.682-3.117s1.196-1.927 2.293-2.22l.803-.215-4.246-15.847-25.356 6.794 6.794 25.356 5.282-1.415zm-5.075-14.266c.025-.473.352-.876.8-.998l4.2-1.125.228-4.342c.026-.472.353-.873.8-.996a1.09 1.09 0 0 1 1.198.458l2.37 3.646 4.2-1.125c.458-.123.942.063 1.2.46s.23.916-.067 1.284l-2.736 3.38 2.368 3.647c.258.397.23.916-.067 1.284s-.8.503-1.242.333l-4.06-1.56-2.736 3.38c-.298.368-.8.503-1.242.333s-.725-.605-.7-1.078l.227-4.342-4.06-1.56c-.442-.17-.725-.605-.7-1.078zm24.745 11.61l-16.552.716a1.13 1.13 0 0 0-.247.037 1.08 1.08 0 0 0-.585.404c-.197.268-.26.6-.174.932l3.12 11.642c.085.32.312.586.616.72s.648.12.94-.034l14.695-7.656zm-17.76-9.652l-.1 1.774 1.118-1.38c.298-.368.8-.503 1.242-.333l1.66.637-.966-1.5c-.258-.397-.23-.916.067-1.284l1.115-1.38-1.717.46c-.458.123-.942-.063-1.2-.46l-.968-1.5-.1 1.774c-.025.473-.35.877-.8 1l-1.72.46 1.66.637c.442.17.725.605.7 1.078z" id="B" fill="#ec4a81"/><path d="M87.5 270.313a16.43 16.43 0 0 0 16.388-15.625H71.112A16.43 16.43 0 0 0 87.5 270.313zm12.95-13.455a.78.78 0 0 1 1.304-.419.78.78 0 0 1 .218.765 14.95 14.95 0 0 1-14.473 11.545.781.781 0 1 1 0-1.562 13.38 13.38 0 0 0 12.95-10.33zm-18.502 2.276a.78.78 0 0 1 .743-.54h3.105l.96-2.953a.78.78 0 0 1 1.484 0l.962 2.953h3.105a.78.78 0 0 1 .459 1.413l-2.512 1.826.96 2.955a.78.78 0 0 1-1.202.873l-2.513-1.826-2.513 1.826a.78.78 0 0 1-1.202-.873l.96-2.955-2.512-1.826a.78.78 0 0 1-.284-.873zm19.615 25.24h-1.797l-2.555-7.03h1.227a.781.781 0 1 0 0-1.562H96.64l-1.96-5.398-1.46.562v-.007a17.9 17.9 0 0 1-11.434 0v.007a15.65 15.65 0 0 1-1.46-.562l-1.966 5.398h-1.797a.781.781 0 1 0 0 1.563H77.8l-2.555 7.03h-1.797a.782.782 0 1 0 0 1.563h4.688a.781.781 0 1 0 0-1.562h-1.23l2.557-7.03h16.094l2.558 7.03h-1.23a.781.781 0 1 0 0 1.563h4.688a.781.781 0 1 0 0-1.562zm5.467-33.595a.78.78 0 0 0-.781.781v1.563h-.727l-.078 1.563h.805v1.563a.782.782 0 1 0 1.563 0v-4.687a.78.78 0 0 0-.781-.781zm-37.553 2.345h-.727v-1.562a.781.781 0 1 0-1.562 0v4.688a.782.782 0 1 0 1.563 0v-1.562h.805zm16.93 8.65l-.4 1.208 1.027-.746a.78.78 0 0 1 .919 0l1.027.746-.4-1.208a.78.78 0 0 1 .284-.873l1.023-.746h-1.27a.78.78 0 0 1-.743-.54l-.392-1.207-.4 1.207a.78.78 0 0 1-.743.54h-1.27l1.027.746a.78.78 0 0 1 .284.873zm-15.312-9.43h32.813v.78H71.094zM87 247.055a2.69 2.69 0 0 0-1.218 2.164.782.782 0 1 0 1.563 0c0-.38.17-.558.657-.963a2.69 2.69 0 0 0 1.218-2.162c-.028-.877-.483-1.684-1.218-2.163-.487-.407-.657-.584-.657-.962s.17-.556.656-.96a2.69 2.69 0 0 0 1.22-2.165.781.781 0 1 0-1.562 0c0 .38-.17.556-.656.96a2.69 2.69 0 0 0-1.22 2.165 2.69 2.69 0 0 0 1.218 2.164c.487.405.657.58.657.963s-.17.555-.657.96zm8.593 0a2.69 2.69 0 0 0-1.218 2.164.782.782 0 1 0 1.563 0c0-.38.17-.558.657-.963a2.69 2.69 0 0 0 1.218-2.162c-.028-.877-.483-1.684-1.218-2.163-.487-.407-.657-.584-.657-.962s.17-.556.656-.96a2.69 2.69 0 0 0 1.22-2.165.781.781 0 1 0-1.562 0c0 .38-.17.556-.656.96a2.69 2.69 0 0 0-1.22 2.165 2.69 2.69 0 0 0 1.218 2.164c.487.405.657.58.657.963s-.17.555-.657.96zm-17.188 0a2.69 2.69 0 0 0-1.218 2.164.782.782 0 1 0 1.563 0c0-.38.17-.558.657-.963a2.69 2.69 0 0 0 1.218-2.162c-.028-.877-.483-1.684-1.218-2.163-.487-.407-.657-.584-.657-.962s.17-.556.656-.96a2.69 2.69 0 0 0 1.22-2.165.781.781 0 1 0-1.562 0c0 .38-.17.556-.656.96a2.69 2.69 0 0 0-1.22 2.165 2.69 2.69 0 0 0 1.218 2.164c.487.405.657.58.657.963s-.17.555-.657.96z" id="C" fill="#ec4a81"/><path d="M260.53 256.978l-.703 2.173 1.848-1.343a1.41 1.41 0 0 1 1.654 0l1.848 1.343-.703-2.173a1.42 1.42 0 0 1 .5-1.572l1.844-1.343h-2.285c-.6 0-1.15-.392-1.337-.972l-.706-2.173-.703 2.173c-.188.58-.728.972-1.337.972h-2.288l1.85 1.343c.493.358.7.993.5 1.572zM262.5 285c12.403 0 22.5-13.88 22.5-30.937s-10.097-30.937-22.5-30.937-22.5 13.88-22.5 30.938S250.097 285 262.5 285zm0-59.062c10.672 0 19.688 12.88 19.688 28.125 0 .777-.63 1.406-1.406 1.406s-1.406-.63-1.406-1.406c0-13.72-7.727-25.312-16.875-25.312-.777 0-1.406-.63-1.406-1.406s.63-1.406 1.406-1.406zm-9.993 26.284c.188-.58.728-.972 1.337-.972h5.6l1.728-5.317c.2-.577.728-.967 1.336-.967a1.42 1.42 0 0 1 1.336.967l1.73 5.317h5.6c.6 0 1.15.392 1.338.972s-.018 1.214-.5 1.572l-4.522 3.286 1.727 5.317c.188.58-.018 1.214-.5 1.572s-1.16.358-1.653 0l-4.522-3.286L258 263.97c-.493.358-1.16.358-1.653 0s-.7-.993-.5-1.572l1.727-5.317-4.522-3.286c-.493-.358-.7-.993-.5-1.572zm-8.288.435c.777 0 1.406.63 1.406 1.406 0 13.72 7.734 25.313 16.875 25.313.777 0 1.406.63 1.406 1.406s-.63 1.406-1.406 1.406c-10.672 0-19.687-12.88-19.687-28.125 0-.777.63-1.406 1.406-1.406zm19.18 43.916c-.675-.562-.9-.788-.9-1.266 0-.45.183-.66.9-1.266a8.4 8.4 0 0 0 .675-.605h-3.88a3.45 3.45 0 0 0-.506 1.87c.052 1.384.763 2.66 1.912 3.43.675.563.9.788.9 1.266s-.225.7-.9 1.252a4.33 4.33 0 0 0-1.913 3.43h2.813c0-.478.225-.703.9-1.266a4.02 4.02 0 0 0 0-6.848zm-18.3 2.5c.422.366.534.563.534.928 0 .478-.225.703-.9 1.266a4.3 4.3 0 0 0-1.912 3.43h2.813c0-.478.225-.703.9-1.266a4.3 4.3 0 0 0 1.912-3.43c.001-.313-.037-.625-.113-.928zm35.185 2.193c-.675-.562-.9-.788-.9-1.266 0-.366.113-.562.534-.928h-3.22a3.22 3.22 0 0 0-.127.928 4.3 4.3 0 0 0 1.913 3.43c.675.563.9.788.9 1.266h2.813a4.3 4.3 0 0 0-1.912-3.43zm-19.715-13.443l-1.406 2.813h6.694l-1.406-2.812h-3.88zm-16.876 5.625l-1.406 2.813h6.694l-1.406-2.812h-3.88zm33.75 0l-1.406 2.813h6.694l-1.406-2.812h-3.88zm-40.246-39.375a39.33 39.33 0 0 1 8.592-25.312h-.155c-12.403 0-22.5 13.88-22.5 30.938s10.097 30.938 22.5 30.938a17.78 17.78 0 0 0 10.772-3.81c-11.025-3.656-19.2-16.945-19.2-32.752zm42.187-25.313h-.155a39.33 39.33 0 0 1 8.592 25.313c0 15.806-8.184 29.095-19.2 32.752 3.073 2.422 6.86 3.762 10.772 3.8 12.403 0 22.5-13.88 22.5-30.937s-10.097-30.937-22.5-30.937zm0 59.063c-.777 0-1.406-.63-1.406-1.406s.63-1.406 1.406-1.406c9.148 0 16.875-11.592 16.875-25.312 0-.777.63-1.406 1.406-1.406s1.406.63 1.406 1.406c0 15.245-9.015 28.125-19.687 28.125z" id="D" fill="#ec4a81"/><path d="M184.906 343.726a3.45 3.45 0 0 1-2.57-1.687c-.327-.62-.983-.998-1.684-.967l-.3.02a1.75 1.75 0 0 0-1.613 1.733v.3a2.48 2.48 0 0 1-.772 1.809c-.498.475-1.17.725-1.857.7a2.56 2.56 0 0 1-2.37-2.6v-2.712a1.53 1.53 0 0 0-.457-1.098 1.58 1.58 0 0 0-2.216.004 1.52 1.52 0 0 0-.452 1.094v3.962a2.56 2.56 0 0 1-2.365 2.6 2.52 2.52 0 0 1-1.385-.332v.332a2.5 2.5 0 0 1-2.508 2.5h-.12a2.56 2.56 0 0 1-2.37-2.6v-.683c-.367.302-.792.524-1.25.65v16.38A4.38 4.38 0 0 0 165 367.5h16.25a4.38 4.38 0 0 0 4.375-4.375v-19.393c-.24.024-.48.022-.72-.006zM167.5 363.75c0 .345-.28.625-.625.625s-.625-.28-.625-.625v-13.125c0-.345.28-.625.625-.625s.625.28.625.625zm6.25 0c0 .345-.28.625-.625.625s-.625-.28-.625-.625v-15.625c0-.345.28-.625.625-.625s.625.28.625.625zm6.25 0c0 .345-.28.625-.625.625s-.625-.28-.625-.625v-13.125c0-.345.28-.625.625-.625s.625.28.625.625zm7.5-29.375c0-1.036-.84-1.875-1.875-1.875h-27.187a.94.94 0 0 0-.933 1.027 1.02 1.02 0 0 0 1.041.848h.83c.345 0 .625.28.625.625s-.28.625-.625.625c-1.036 0-1.875.84-1.875 1.875v5.938a2.19 2.19 0 0 0 2.188 2.188 1.81 1.81 0 0 0 .233-.014.7.7 0 0 1 .08-.005c1.08-.15 1.882-1.078 1.875-2.17 0-.345.28-.625.625-.625s.625.28.625.625v3.337c-.016.7.5 1.278 1.188 1.35a1.28 1.28 0 0 0 .929-.346 1.24 1.24 0 0 0 .383-.904v-2.5c0-.345.28-.625.625-.625s.625.28.625.625a1.24 1.24 0 0 0 .386.904 1.26 1.26 0 0 0 .938.346c.683-.077 1.194-.663 1.177-1.35v-3.962c-.002-.735.287-1.44.804-1.964.8-.815 2.012-1.066 3.07-.636s1.75 1.458 1.75 2.6v2.712c-.016.7.5 1.278 1.188 1.35a1.28 1.28 0 0 0 .929-.346 1.24 1.24 0 0 0 .383-.904v-.3a3 3 0 0 1 2.774-2.981l.3-.02a3.06 3.06 0 0 1 2.855 1.587 2.19 2.19 0 0 0 4.063-.796c.014-.104.018-6.24.018-6.24zm1.25 3.915v1.972c1.14.495 1.877 1.62 1.875 2.863v13.75A3.13 3.13 0 0 1 187.5 360h-.625v1.875h.625c2.76-.003 4.997-2.24 5-5v-13.75a4.98 4.98 0 0 0-3.75-4.836zm-1.875 20.46h.625c1.036 0 1.875-.84 1.875-1.875v-13.75c.001-.637-.322-1.23-.858-1.574a3.4 3.4 0 0 1-1.642 1.824z" id="E" fill="#ec4a81"/><path d="M88.7 79.537h-.464c-.27 0-.5-.174-.594-.432l-.143-.44-.143.44c-.084.258-.324.432-.594.432H86.3l.375.273c.22.16.3.44.228.7l-.144.44.375-.273c.22-.16.516-.16.735 0l.375.273-.144-.44c-.084-.258.008-.54.228-.7zm-11.682 22.068l-.143-.437-.143.437c-.084.258-.324.432-.594.432h-.464l.375.272c.22.16.3.44.228.7l-.144.44.375-.273c.22-.16.516-.16.735 0l.375.273-.144-.44c-.084-.258.008-.54.228-.7l.375-.272h-.464c-.27 0-.5-.174-.594-.432zm21.25 0l-.143-.437-.143.437c-.084.258-.324.432-.594.432h-.464l.375.272c.22.16.3.44.228.7l-.144.44.375-.273c.22-.16.516-.16.735 0l.375.273-.144-.44c-.084-.258.008-.54.228-.7l.375-.272h-.464c-.27 0-.5-.174-.594-.432zm7.67-21.522A37.11 37.11 0 0 1 87.5 85a37.12 37.12 0 0 1-18.437-4.917c-.3-.173-.682-.07-.854.23s-.07.682.23.854l1.574.853.475 5.986 4.413-3.894-.223-.082 2.584.82 1.55 5.963 3.88-4.87-.047-.007q1.007.13 2.062.207l2.8 5.58 2.793-5.58a38.09 38.09 0 0 0 2.071-.211l-.062.01 3.886 4.87 1.55-5.963-.062.016q1.333-.367 2.72-.86l-.288.106 4.406 3.894.48-5.987-.506.25a36.95 36.95 0 0 0 2.074-1.1c.194-.112.313-.318.313-.542s-.12-.43-.313-.542-.432-.112-.626 0zm-32.543 3.465l.295.116zm-1.16-.48l.16.068zm6.097 2.063l.282.07-.282-.073zm2.736.57l.24.043-.24-.044zm-1.447-.276l.328.07-.328-.072zm6.43.797a38.26 38.26 0 0 0 1.452.029l-1.452-.03zm2.676.006l.222-.008zm4.828-.463l.044-.007zm2.74-.543l.085-.02zM68.438 69.917a38.6 38.6 0 0 0 8.849 3.688l-.024-.004 1.55 5.963 3.88-4.87-.047-.007c1.6.208 3.23.312 4.854.313s3.25-.107 4.864-.316l-.062.01 3.886 4.87 1.55-5.963-.062.016a38.02 38.02 0 0 0 8.887-3.699c.194-.112.313-.318.313-.542s-.12-.43-.313-.542-.432-.112-.626 0A37.11 37.11 0 0 1 87.5 73.75a37.12 37.12 0 0 1-18.437-4.917c-.3-.173-.682-.07-.854.23s-.07.682.23.854zm25.114 4.597l.044-.007zm2.74-.543l.085-.02zm-17.96-.093l.282.07-.28-.07zm2.736.57l.24.043-.24-.043zm-1.447-.276l.328.07-.327-.07zm26.317 18.41A37.11 37.11 0 0 1 87.5 97.5a37.12 37.12 0 0 1-18.437-4.917c-.194-.112-.432-.112-.626 0s-.313.318-.313.542.12.43.313.542l1.574.853.475 5.986 4.413-3.894-.223-.082a38.18 38.18 0 0 0 10.031 2.114l2.794 5.58 2.793-5.58a38.56 38.56 0 0 0 10.101-2.139l-.288.106 4.406 3.894.48-5.987-.506.25 2.074-1.1c.3-.173.402-.555.23-.854s-.555-.402-.854-.23zm-32.543 3.465l.295.116zm-1.16-.48l.16.068zm13.813 3.154a38.26 38.26 0 0 0 1.452.029 34.71 34.71 0 0 1-1.45-.03zm2.676.006l.223-.008z" id="F" fill="#ec4a81"/><path d="M264.424 90h-1.016c-.27 0-.5-.174-.594-.432l-.314-.966-.312.966c-.084.258-.324.432-.594.432h-1.017l.82.597c.22.16.3.44.228.698l-.312.966.82-.597c.22-.16.516-.16.735 0l.82.597-.312-.966c-.083-.257.01-.54.228-.698zm10 0h-1.016c-.27 0-.5-.174-.594-.432l-.314-.966-.312.966c-.084.258-.324.432-.594.432h-1.017l.82.597c.22.16.3.44.228.698l-.312.966.82-.597c.22-.16.516-.16.735 0l.82.597-.312-.966c-.083-.257.01-.54.228-.698zM261.25 70.625h2.5v3.75h-2.5zM254.424 90h-1.016c-.27 0-.5-.174-.594-.432l-.314-.966-.312.966c-.084.258-.324.432-.594.432h-1.017l.82.597c.22.16.3.44.227.698l-.312.966.82-.597c.22-.16.516-.16.735 0l.82.597-.312-.966a.63.63 0 0 1 .227-.698zm23.7-8.75h-31.25v17.5h31.25zm-21.4 8.63l-2 1.46.768 2.364c.083.257-.01.54-.228.698s-.515.16-.734 0l-2-1.46-2 1.46a.62.62 0 0 1-.734 0c-.22-.16-.3-.44-.228-.698l.768-2.364-2-1.46c-.22-.16-.3-.44-.227-.7a.62.62 0 0 1 .595-.432h2.484l.768-2.362c.084-.256.324-.43.594-.43s.5.173.594.43l.77 2.362h2.484c.27 0 .5.174.595.432s-.008.54-.227.7zm10 0l-2 1.46.768 2.364c.083.257-.01.54-.228.698s-.515.16-.734 0l-2-1.46-2 1.46a.62.62 0 0 1-.734 0c-.22-.16-.3-.44-.228-.698l.768-2.364-2-1.46c-.22-.16-.3-.44-.227-.7a.62.62 0 0 1 .595-.432h2.484l.768-2.362c.084-.256.324-.43.594-.43s.5.173.594.43l.77 2.362h2.484c.27 0 .5.174.595.432s-.008.54-.227.7zm10 0l-2 1.46.768 2.364c.083.257-.01.54-.228.698s-.515.16-.734 0l-2-1.46-2 1.46a.62.62 0 0 1-.734 0c-.22-.16-.3-.44-.228-.698l.768-2.364-2-1.46c-.22-.16-.3-.44-.227-.7a.62.62 0 0 1 .595-.432h2.484l.768-2.362c.084-.256.324-.43.594-.43s.5.173.594.43l.77 2.362h2.484c.27 0 .5.174.595.432s-.008.54-.227.7zM245 100.625h35v-21.25h-35zm.625-20c0-.345.28-.625.625-.625h32.5c.345 0 .625.28.625.625v18.75c0 .345-.28.625-.625.625h-32.5c-.345 0-.625-.28-.625-.625zm33.75-6.25h-2c-.264.746-.968 1.247-1.76 1.25h-1.25c-.792-.003-1.496-.504-1.76-1.25h-7.73c-.264.746-.968 1.247-1.76 1.25h-1.25c-.792-.003-1.496-.504-1.76-1.25h-7.722a1.88 1.88 0 0 1-1.768 1.25h-1.25a1.88 1.88 0 0 1-1.768-1.25h-1.982c-.345 0-.625.28-.625.625v3.125h35V75c0-.345-.28-.625-.625-.625zm-30.625-3.75h2.5v3.75h-2.5zm25 0h2.5v3.75h-2.5z" id="G" fill="#ec4a81"/><path d="M322.7 182.277l1.935 7.225 2.678-2.475-3.083-11.505-1.53 6.755zm15.4-5.237l2.712-2.508-4.004-2.313 1.292 4.82zm-7.922-8.648l3.43 12.803 2.678-2.475-2.156-8.047-3.952-2.282zm-3.843-2.22l-1.08 4.767 3.86 14.408 2.678-2.475-4.295-16.028-1.163-.672zm-6.23 27.507l2.703-2.5-1.158-4.32-1.544 6.82zm53.52-27.507l-1.163.672-4.295 16.028 2.678 2.475 3.86-14.408-1.08-4.767zM361.88 177.04l1.292-4.82-4.004 2.313 2.713 2.508zm16.45 9.818l-1.158 4.32 2.703 2.5-1.544-6.82zm-12.48-16.185l-2.156 8.047 2.678 2.475 3.43-12.803-3.952 2.282zm9.912 4.85l-3.083 11.505 2.678 2.475 1.935-7.225-1.53-6.755zm-56.68 24.34c-.523-.302-.702-.97-.4-1.494l.547-.947c.297-.523.117-1.187-.404-1.488s-1.186-.125-1.5.394l-.547.947a3.28 3.28 0 0 0 1.203 4.484c.522.302.7.97.4 1.492l-1.094 1.894c-.198.34-.2.758-.005 1.098s.558.55.95.55a1.09 1.09 0 0 0 .948-.553l1.094-1.893a3.28 3.28 0 0 0-1.203-4.484zm62.93 1.895a3.28 3.28 0 0 0 1.203-4.484l-.547-.947a1.1 1.1 0 0 0-1.5-.394c-.53.3-.7.965-.404 1.488l.547.948c.3.523.122 1.2-.4 1.493a3.28 3.28 0 0 0-1.203 4.484l1.094 1.894c.194.34.556.552.948.553s.755-.2.95-.55.194-.76-.005-1.098l-1.094-1.894c-.302-.523-.123-1.192.4-1.494zm-28.645-21.288H351.6c-.474 0-.894-.305-1.04-.756l-.55-1.7-.547 1.7c-.146.45-.566.756-1.04.756h-1.78l1.437 1.045c.384.278.544.772.398 1.223l-.547 1.7 1.437-1.045a1.09 1.09 0 0 1 1.286 0l1.437 1.045-.547-1.7c-.146-.45.015-.945.398-1.223zm-4.83-23.438l-.05 1.607 1.512-.545 1.5.544-.047-1.606.98-1.27-1.54-.45-.902-1.32-.903 1.32-1.54.45.98 1.27zm-26.3 2.7l1.512-.545 1.5.544-.047-1.606.98-1.27-1.54-.45-.902-1.32-.903 1.32-1.54.45.98 1.27-.05 1.607zm52.5 0l1.512-.545 1.5.544-.047-1.606.98-1.27-1.54-.45-.902-1.32-.903 1.32-1.54.45.98 1.27-.05 1.607zm-26.938-14.6c-.527-.295-1.193-.108-1.5.42l-11.484 20.48c-.202.34-.203.765-.003 1.108s.57.55.966.542.758-.23.944-.58l11.484-20.477a1.1 1.1 0 0 0 .1-.832c-.078-.28-.265-.517-.52-.658zm-1.235 16.96c-.32-.504-.98-.668-1.497-.372a11.87 11.87 0 0 0-2.614 2.089 11.63 11.63 0 0 0-.766.908c-.01.01-.032.022-.044.044a13.4 13.4 0 0 0-2.175 4.21c-.086.276-.06.575.075.83s.37.448.646.536a1.14 1.14 0 0 0 .328.055c.483.001.9-.314 1.05-.777a10.98 10.98 0 0 1 1.816-3.522 9.07 9.07 0 0 1 .667-.787 9.93 9.93 0 0 1 2.133-1.717 1.08 1.08 0 0 0 .503-.667 1.15 1.15 0 0 0-.123-.831zm-16.322.993a1.09 1.09 0 0 0 .536 1.858 1.09 1.09 0 0 0 1.066-.373 13.18 13.18 0 0 0 2.978-5.16c1.27-4.2-.142-7.96-.93-10.062a20.7 20.7 0 0 0-1.846-3.733 1.09 1.09 0 0 0-.985-.607c-.418.003-.797.24-.98.616a1.09 1.09 0 0 0 .122 1.15 18.85 18.85 0 0 1 1.68 3.418c.714 1.907 1.9 5.1.855 8.584a10.91 10.91 0 0 1-2.496 4.3zm34.51 4.43c.527-.295.714-.962.42-1.5L353.7 145.55c-.186-.35-.547-.572-.944-.58s-.766.2-.966.542a1.09 1.09 0 0 0 .003 1.108l11.484 20.477c.295.527.962.714 1.5.42zm-4.944 2.822c.57-.18.893-.783.722-1.356v-.01a13.36 13.36 0 0 0-2.986-5.162l-.83-.798a11.57 11.57 0 0 0-1.783-1.291 1.12 1.12 0 0 0-1.498.372c-.308.523-.137 1.197.383 1.5a9.8 9.8 0 0 1 1.454 1.05l.678.656a11.02 11.02 0 0 1 2.484 4.309c.14.462.567.778 1.05.777.1-.002.22-.02.327-.055zm8.346-5.768c.412.433 1.096.455 1.535.05s.47-1.1.07-1.534a11.2 11.2 0 0 1-2.5-4.3c-1.055-3.483.14-6.672.886-8.664a18.5 18.5 0 0 1 1.649-3.338 1.09 1.09 0 0 0 .064-1.11 1.1 1.1 0 0 0-.943-.592 1.09 1.09 0 0 0-.973.54 20.89 20.89 0 0 0-1.877 3.814c-.758 2.025-2.17 5.797-.9 9.985.586 1.925 1.605 3.7 2.978 5.16z" id="H" fill="#ec4a81"/><path id="I" d="M0 0h350v350H0z"/></defs><pattern id="J" width="350" height="350" patternUnits="userSpaceOnUse"><use xlink:href="#A" x="-350" y="-350"/><use xlink:href="#A" y="-350"/><use xlink:href="#A" x="350" y="-350"/><use xlink:href="#A" x="-350"/><use xlink:href="#A"/><use xlink:href="#A" x="350"/><use xlink:href="#A" x="-350" y="350"/><use xlink:href="#A" y="350"/><use xlink:href="#A" x="350" y="350"/></pattern><use xlink:href="#I" fill="url(#J)"/><pattern id="K" width="350" height="350" patternUnits="userSpaceOnUse"><use xlink:href="#B" x="-350" y="-350"/><use xlink:href="#B" y="-350"/><use xlink:href="#B" x="350" y="-350"/><use xlink:href="#B" x="-350"/><use xlink:href="#B"/><use xlink:href="#B" x="350"/><use xlink:href="#B" x="-350" y="350"/><use xlink:href="#B" y="350"/><use xlink:href="#B" x="350" y="350"/></pattern><use xlink:href="#I" fill="url(#K)"/><pattern id="L" width="350" height="350" patternUnits="userSpaceOnUse"><use xlink:href="#C" x="-350" y="-350"/><use xlink:href="#C" y="-350"/><use xlink:href="#C" x="350" y="-350"/><use xlink:href="#C" x="-350"/><use xlink:href="#C"/><use xlink:href="#C" x="350"/><use xlink:href="#C" x="-350" y="350"/><use xlink:href="#C" y="350"/><use xlink:href="#C" x="350" y="350"/></pattern><use xlink:href="#I" fill="url(#L)"/><pattern id="M" width="350" height="350" patternUnits="userSpaceOnUse"><use xlink:href="#D" x="-350" y="-350"/><use xlink:href="#D" y="-350"/><use xlink:href="#D" x="350" y="-350"/><use xlink:href="#D" x="-350"/><use xlink:href="#D"/><use xlink:href="#D" x="350"/><use xlink:href="#D" x="-350" y="350"/><use xlink:href="#D" y="350"/><use xlink:href="#D" x="350" y="350"/></pattern><use xlink:href="#I" fill="url(#M)"/><pattern id="N" width="350" height="350" patternUnits="userSpaceOnUse"><use xlink:href="#E" x="-350" y="-350"/><use xlink:href="#E" y="-350"/><use xlink:href="#E" x="350" y="-350"/><use xlink:href="#E" x="-350"/><use xlink:href="#E"/><use xlink:href="#E" x="350"/><use xlink:href="#E" x="-350" y="350"/><use xlink:href="#E" y="350"/><use xlink:href="#E" x="350" y="350"/></pattern><use xlink:href="#I" fill="url(#N)"/><pattern id="O" width="350" height="350" patternUnits="userSpaceOnUse"><use xlink:href="#F" x="-350" y="-350"/><use xlink:href="#F" y="-350"/><use xlink:href="#F" x="350" y="-350"/><use xlink:href="#F" x="-350"/><use xlink:href="#F"/><use xlink:href="#F" x="350"/><use xlink:href="#F" x="-350" y="350"/><use xlink:href="#F" y="350"/><use xlink:href="#F" x="350" y="350"/></pattern><use xlink:href="#I" fill="url(#O)"/><pattern id="P" width="350" height="350" patternUnits="userSpaceOnUse"><use xlink:href="#G" x="-350" y="-350"/><use xlink:href="#G" y="-350"/><use xlink:href="#G" x="350" y="-350"/><use xlink:href="#G" x="-350"/><use xlink:href="#G"/><use xlink:href="#G" x="350"/><use xlink:href="#G" x="-350" y="350"/><use xlink:href="#G" y="350"/><use xlink:href="#G" x="350" y="350"/></pattern><use xlink:href="#I" fill="url(#P)"/><pattern id="Q" width="350" height="350" patternUnits="userSpaceOnUse"><use xlink:href="#H" x="-350" y="-350"/><use xlink:href="#H" y="-350"/><use xlink:href="#H" x="350" y="-350"/><use xlink:href="#H" x="-350"/><use xlink:href="#H"/><use xlink:href="#H" x="350"/><use xlink:href="#H" x="-350" y="350"/><use xlink:href="#H" y="350"/><use xlink:href="#H" x="350" y="350"/></pattern><use xlink:href="#I" fill="url(#Q)"/></svg>