<svg xmlns="http://www.w3.org/2000/svg" xmlns:xlink="http://www.w3.org/1999/xlink" width="400" height="400" viewBox="0 0 350 350"><path opacity="0" fill="#fff" d="M0 0h350v350H0z"/><defs><g id="A" fill="#ec4a81"><path d="M342.354 372.5l-.937 7.5h17.168l-.937-7.5zm3.896-30H385V360h-38.75zm0 0"/><path d="M335 383.75a1.25 1.25 0 0 0 1.25 1.25h27.5a1.25 1.25 0 1 0 0-2.5h-27.5a1.25 1.25 0 0 0-1.25 1.25zm50-51.25h-46.25a3.75 3.75 0 0 0-3.75 3.75V340h50zm-42.5 5H340V335h2.5zm5 0H345V335h2.5zm5 0H350V335h2.5zm0 0"/><path d="M385 362.5h-70v3.75a3.75 3.75 0 0 0 3.75 3.75h62.5a3.75 3.75 0 0 0 3.75-3.75zm-5 5h-2.5V365h2.5zm-45-25h8.75V360H335zm50-23.75a3.75 3.75 0 0 0-3.75-3.75h-62.5a3.75 3.75 0 0 0-3.75 3.75v3.75h70zM322.5 320H320v-2.5h2.5zm5 0H325v-2.5h2.5zm5 0H330v-2.5h2.5zm52.5 5h-70v35h17.5v-23.75a6.26 6.26 0 0 1 6.25-6.25H385zm0 0"/></g><g id="B" fill="#ec4a81"><path d="M181.25 347.32h1.786v6.25h-1.786zm0-8.034h1.786v6.25h-1.786zM200 327.68a2.68 2.68 0 0 0-2.679-2.679h-44.64a2.68 2.68 0 0 0-2.679 2.679v2.68h50zm-44.643.893h-1.786v-1.786h1.786zm3.57 0h-1.786v-1.786h1.786zm3.57 0h-1.786v-1.786h1.786zm4.467 23.213h1.786v1.786h-1.786zm7.143-1.786h1.786v3.57h-1.786zm0-5.357h1.786v3.57h-1.786zm0 0"/><path d="M200 332.143h-50v25h50zm-10.714 8.93h1.786v1.786h-1.786zm0 3.57h3.57v1.786h-3.57zm-16.07-8.036v-1.786h3.57c.493 0 .893.4.893.893v3.57h-1.786v-1.416l-6.512 6.512-1.263-1.263 6.512-6.512zM158.93 353.57h-5.357v-1.786h5.357zm0-5.357h-5.357v-1.786h5.357zm0-5.357h-5.357v-1.786h5.357zm0-5.357h-5.357v-1.786h5.357zm28.57 17.857h-25c-.493 0-.893-.4-.893-.893V333.93h1.786v19.643h1.786v-6.25c0-.493.4-.893.893-.893h3.57c.493 0 .893.4.893.893v6.25h1.786v-9.82c0-.493.4-.893.893-.893h3.57c.493 0 .893.4.893.893v9.82h1.786v-15.18c0-.493.4-.893.893-.893h3.57c.493 0 .893.4.893.893v15.18h2.68zm8.93-5.357h-7.143v-1.786h7.143zm0-3.57h-1.786v-1.786h1.786zm0-3.57h-3.57v-1.786h3.57zm0-3.57h-7.143v-1.79h7.143zm-26.892 26.78l-.67 5.357h12.263l-.67-5.357zm0 0"/><path d="M166.964 348.214h1.786V350h-1.786zm-2.678 25.893c0 .493.4.893.893.893h19.643c.493 0 .893-.4.893-.893s-.4-.893-.893-.893H165.18c-.493 0-.893.4-.893.893zm0 0"/><path d="M200 358.93h-50v2.68a2.68 2.68 0 0 0 2.679 2.679h44.643a2.68 2.68 0 0 0 2.679-2.679zm-3.57 3.57h-1.786v-1.786h1.786zm0 0"/></g><g id="C" fill="#ec4a81"><path d="M274.833 162.902a.88.88 0 0 0-.726-.402h-23.214a.88.88 0 0 0-.726.402l12.333 5.76zM250 164.794v9.43l8.315-5.548zm12.878 5.658a.89.89 0 0 1-.755 0l-1.913-.893-10.1 6.74a.89.89 0 0 0 .784.487h23.214c.332-.003.635-.2.784-.488l-10.1-6.74zM287.5 183.93h-50v2.68a2.68 2.68 0 0 0 2.679 2.679h44.643a2.68 2.68 0 0 0 2.679-2.679zm-3.57 3.57h-1.786v-1.786h1.786zm0 0"/><path d="M275 174.224v-9.43l-8.315 3.88zm-23.214 24.883c0 .493.4.893.893.893h19.643c.493 0 .893-.4.893-.893s-.4-.893-.893-.893H252.68c-.493 0-.893.4-.893.893zm0 0"/><path d="M257.038 191.07l-.67 5.357h12.263l-.67-5.357zm30.462-38.4a2.68 2.68 0 0 0-2.679-2.679h-44.64a2.68 2.68 0 0 0-2.679 2.679v2.68h50zm-44.643.893h-1.786v-1.786h1.786zm3.57 0h-1.786v-1.786h1.786zm3.57 0h-1.786v-1.786H250zm0 0"/><path d="M287.5 157.143h-50v25h50zm-10.714 18.75a2.68 2.68 0 0 1-2.679 2.679h-23.214a2.68 2.68 0 0 1-2.679-2.679v-12.5a2.68 2.68 0 0 1 2.679-2.679h23.214a2.68 2.68 0 0 1 2.679 2.679zm0 0"/></g><g id="D" fill="#ec4a81"><path d="M73.214 166.964h5.357v-2.3l-1.154 1.154c-.35.348-.914.348-1.263 0l-1.786-1.786 1.263-1.263 1.154 1.154 1.786-1.786v-.523h-5.357zm3.572 32.143c0 .493.4.893.893.893h19.64c.493 0 .893-.4.893-.893s-.4-.893-.893-.893H77.68c-.493 0-.893.4-.893.893zm0 0"/><path d="M73.214 177.68h5.357v-2.3l-1.154 1.154c-.35.348-.914.348-1.263 0l-1.786-1.786 1.263-1.263 1.154 1.154 1.786-1.786v-.523h-5.357zm39.286 6.25h-50v2.68a2.68 2.68 0 0 0 2.679 2.679h44.643a2.68 2.68 0 0 0 2.679-2.679zm-3.57 3.57h-1.786v-1.786h1.786zm0 0"/><path d="M82.038 191.07l-.67 5.357H93.63l-.67-5.357zm30.462-33.927h-50v25h50zm-20.536 4.464h7.143v1.786h-7.143zm-7.143 0h5.357v1.786H84.82zm0 3.57h10.714v1.786H84.82zm0 7.143h8.93v1.786h-8.93zm-4.464 1.263v4.987c0 .493-.4.893-.893.893H72.32c-.493 0-.893-.4-.893-.893v-7.143c0-.493.4-.893.893-.893h7.143c.372.001.704.235.83.586l.324-.324 1.263 1.263zm0-10.714v4.987c0 .493-.4.893-.893.893H72.32c-.493 0-.893-.4-.893-.893v-7.143c0-.493.4-.893.893-.893h7.143c.372.001.704.235.83.586l.324-.324 1.263 1.263zm15.18 14.8H84.82v-1.786h10.714zm0-5.357h1.786v1.786h-1.786zm7.143 5.357h-5.36v-1.786h5.357zm0-3.57H99.1v-1.786h3.57zm0-7.143h-5.36v-1.786h5.357zm0-3.57h-1.786V161.6h1.786zm9.82-10.716a2.68 2.68 0 0 0-2.679-2.679H65.18a2.68 2.68 0 0 0-2.679 2.679v2.68h50zm-44.643.893H66.07v-1.786h1.786zm3.57 0H69.64v-1.786h1.786zm3.57 0H73.21v-1.786H75zm0 0"/></g></defs><pattern id="E" width="350" height="350" patternUnits="userSpaceOnUse"><use xlink:href="#A" x="-350" y="-350"/><use xlink:href="#A" y="-350"/><use xlink:href="#A" x="350" y="-350"/><use xlink:href="#A" x="-350"/><use xlink:href="#A"/><use xlink:href="#A" x="350"/><use xlink:href="#A" x="-350" y="350"/><use xlink:href="#A" y="350"/><use xlink:href="#A" x="350" y="350"/></pattern><path fill="url(#E)" d="M0 0h350v350H0z"/><pattern id="F" width="350" height="350" patternUnits="userSpaceOnUse"><use xlink:href="#B" x="-350" y="-350"/><use xlink:href="#B" y="-350"/><use xlink:href="#B" x="350" y="-350"/><use xlink:href="#B" x="-350"/><use xlink:href="#B"/><use xlink:href="#B" x="350"/><use xlink:href="#B" x="-350" y="350"/><use xlink:href="#B" y="350"/><use xlink:href="#B" x="350" y="350"/></pattern><path fill="url(#F)" d="M0 0h350v350H0z"/><pattern id="G" width="350" height="350" patternUnits="userSpaceOnUse"><use xlink:href="#C" x="-350" y="-350"/><use xlink:href="#C" y="-350"/><use xlink:href="#C" x="350" y="-350"/><use xlink:href="#C" x="-350"/><use xlink:href="#C"/><use xlink:href="#C" x="350"/><use xlink:href="#C" x="-350" y="350"/><use xlink:href="#C" y="350"/><use xlink:href="#C" x="350" y="350"/></pattern><path fill="url(#G)" d="M0 0h350v350H0z"/><pattern id="H" width="350" height="350" patternUnits="userSpaceOnUse"><use xlink:href="#D" x="-350" y="-350"/><use xlink:href="#D" y="-350"/><use xlink:href="#D" x="350" y="-350"/><use xlink:href="#D" x="-350"/><use xlink:href="#D"/><use xlink:href="#D" x="350"/><use xlink:href="#D" x="-350" y="350"/><use xlink:href="#D" y="350"/><use xlink:href="#D" x="350" y="350"/></pattern><path fill="url(#H)" d="M0 0h350v350H0z"/></svg>