<svg xmlns="http://www.w3.org/2000/svg" xmlns:xlink="http://www.w3.org/1999/xlink" width="400" height="400" viewBox="0 0 350 350"><path opacity="0" fill="#fff" d="M0 0h350v350H0z"/><defs><g id="A" fill="#ec4a81"><path d="M338.035 370.613l2.935-2.2-7.694-6.595c-.015-.012-.022-.03-.035-.042s-.026-.013-.036-.024l-3.165-3.165-2.688 1.343zm4.965-36.45a2.58 2.58 0 0 0-1.271.586v1.956a3.82 3.82 0 0 1-3.813 3.812h-5.083a3.91 3.91 0 0 1-.78-.08l.45 2.22c.313 1.263.75 2.492 1.302 3.67 2.153 4.58 5.247 6.9 9.197 6.9 3.92 0 7.005-2.32 9.17-6.898a19.9 19.9 0 0 0 1.315-3.672c.18-.7.328-1.44.453-2.218a3.84 3.84 0 0 1-.772.079h-5.084c-2.105-.002-3.8-1.708-3.812-3.812v-1.957a2.58 2.58 0 0 0-1.271-.585zm0 0"/><path d="M349.915 359.448a28.26 28.26 0 0 1-1.36-5.157 11.24 11.24 0 0 1-11.115.015c-.288 1.758-.743 3.484-1.36 5.155a21.4 21.4 0 0 1-.417 1.055l7.336 6.3 7.337-6.3a18.72 18.72 0 0 1-.42-1.068zm-21.712-25.286c.004 0-.454.395-.454 2.455 0 2.52.866 3.825 1.836 4.498a36.5 36.5 0 0 1-.395-3.343 3.74 3.74 0 0 1-.17-1.066v-2.238c-.236-.18-.52-.287-.817-.307zm26.1 3.104l.125-3.102h-7.606v2.542a1.27 1.27 0 0 0 1.27 1.27h5.084a1.26 1.26 0 0 0 1.126-.711zM340.07 316.47l-4.696-.1c-5.202 0-7.626 2.423-7.626 7.626.095 2.587.438 5.16 1.024 7.682.094.017.2.034.285.06.18-3.56 1.214-6.2 3.156-7.992 3.588-3.324 9.272-2.892 14.288-2.5 1.482.112 2.882.22 4.123.22 1.204.105 2.385-.377 3.17-1.295a7.84 7.84 0 0 0 1.006-5.16c-3.32 1.823-9.103 1.646-14.732 1.47zm0 0"/><path d="M357.787 334.157a1.52 1.52 0 0 0-.807.31v2.24a3.76 3.76 0 0 1-.173 1.074l-.402 3.34c.974-.67 1.846-1.976 1.846-4.504 0-2.063-.46-2.456-.464-2.46zm-1.54-13.093c-.135.23-.284.45-.447.66-.313.396-.678.75-1.084 1.05a17.06 17.06 0 0 1 2.245 8.959c.113-.028.23-.05.345-.066.9-2.96 1.728-7.07 1.08-8.37a7.51 7.51 0 0 0-2.137-2.23zm-5.622 2.933c-1.338 0-2.785-.1-4.316-.226-4.496-.343-9.594-.73-12.367 1.84a8.57 8.57 0 0 0-2.341 6.012h8.856a1.26 1.26 0 0 1 .915.396c1.02-.528 2.234-.528 3.255 0a1.26 1.26 0 0 1 .914-.396h8.876a13.95 13.95 0 0 0-2.063-7.809 8.3 8.3 0 0 1-1.729.184zm-18.922 13.266c.2.433.647.7 1.128.713h5.083a1.27 1.27 0 0 0 1.271-1.271v-2.542h-7.606l.124 3.1zm26.943 22.667l-2.687-1.343-3.165 3.165c-.01.01-.026.014-.036.024s-.02.03-.035.042l-7.693 6.595 2.934 2.2zM322.665 382v-7.168a1.271 1.271 0 1 1 2.542 0v7.625c.002 1.403 1.14 2.54 2.542 2.542h13.98v-13.98l-3.05 2.288a1.27 1.27 0 0 1-1.661-.118l-12.04-12.04-.203.016a10.66 10.66 0 0 0-2.111 20.834zm38.55-20.835l-.192-.015-12.04 12.04a1.27 1.27 0 0 1-1.661.118l-3.05-2.288V385h13.98c1.403-.001 2.54-1.14 2.542-2.542v-7.625a1.271 1.271 0 1 1 2.542 0V382a10.66 10.66 0 0 0-2.12-20.836zm0 0"/></g><g id="B" fill="#ec4a81"><path d="M189.335 365.723c.016-3.894-2.966-7.146-6.847-7.468l-5.7-.497c.1.317.03.67-.205.9a11.22 11.22 0 0 1-2.501 1.782 2.66 2.66 0 0 1 .976 2.051V375h5.358a1.79 1.79 0 0 0 1.786-1.786v-5.358c0-.493.4-.893.893-.893s.893.4.893.893v5.036a7.5 7.5 0 0 0 5.358-7.17zm-17.87-40.623c.172 1.802.7 4.217 2.332 5.433 1.68 1.26 4.075 1.643 6.058 1.727a8.15 8.15 0 0 0-1.6-3.901c-1.793-2.26-4.64-3.024-6.8-3.26zm0 0"/><path d="M160.367 336.75a.87.87 0 0 1 .325-.096 11.35 11.35 0 0 0 6.11-2.53l.55-.482c-.068-.095-.12-.2-.184-.298l-.285-.46-.37-.725-.216-.484-.15-.4a11.88 11.88 0 0 1-6.763 2.669 18.41 18.41 0 0 0 .345 3.604l.15.03v-.07a.91.91 0 0 1 .03-.13.77.77 0 0 1 .367-.55.84.84 0 0 1 .09-.065zm18.74 7.423c.685-.47 1.297-1.388 1.297-3.165 0-1.45-.323-1.726-.326-1.728a1.15 1.15 0 0 0-.585.23 31.29 31.29 0 0 1-.386 4.662zm0 0"/><path d="M159.3 339.285c-.005.002-.323.262-.323 1.723 0 1.77.608 2.687 1.3 3.16a31.84 31.84 0 0 1-.379-4.661c-.17-.13-.375-.206-.588-.222zm1.516-10.502a8.3 8.3 0 0 0-1.267 3.349 9.81 9.81 0 0 0 6.138-2.878l-.045-.28a12.89 12.89 0 0 1 .123-3.459c-1.987.463-3.742 1.622-4.948 3.268zm8.847-3.783a15.08 15.08 0 0 0-2.01.145 11.31 11.31 0 0 0-.235 3.644v.002l.001.002a8.88 8.88 0 0 0 .21 1.225 7.53 7.53 0 0 0 2.62 4.107 10.78 10.78 0 0 0 8.187 2.5c.02-.004.04.005.058.002.026-.004.047-.018.073-.02l.304.05a.84.84 0 0 1 .503.404.79.79 0 0 1 .07.17.82.82 0 0 1 .058.224v.023c0 .007.005.013.005.02s-.004.015-.004.023l.001.052.147-.03a18.39 18.39 0 0 0 .34-3.487c-2.3-.07-5.17-.52-7.266-2.094-2.16-1.62-2.874-4.534-3.064-6.964zm-7.348 20.253a14.01 14.01 0 0 0 .916 2.578c1.513 3.218 3.686 4.848 6.46 4.848 2.754 0 4.92-1.63 6.443-4.846a13.98 13.98 0 0 0 .924-2.579 25.53 25.53 0 0 0 .66-6.22l.005-.55-.446.01a13.02 13.02 0 0 1-8.144-2.976l-.606-.534-.6.534-.93.683-.3.197-.615.376-.352.2-.56.283-.35.16-.547.223-.323.122-.568.184-.26.08-.78.193-.67.124.01.685a26.27 26.27 0 0 0 .651 6.233zm-6.9 27.64v-5.036c0-.493.4-.893.893-.893s.893.4.893.893v5.358a1.79 1.79 0 0 0 1.786 1.786h14.286v-12.5c0-.493-.4-.892-.893-.893h-2.68c-2.573-.12-5.016-1.164-6.882-2.94-.235-.24-.315-.592-.205-.9l-5.7.497a7.49 7.49 0 0 0-1.489 14.638zm19.445-15.086l-.3-.76-.012-.036a19.84 19.84 0 0 1-.944-3.587 7.89 7.89 0 0 1-7.807.01 19.36 19.36 0 0 1-.942 3.575l-.003.008c-.005.012-.008.026-.013.038l-.295.747a8.68 8.68 0 0 0 5.157 2.017 8.62 8.62 0 0 0 5.158-2.015zm0 0"/></g><g id="C" fill="#ec4a81"><path d="M88.033 182.8l-.3-.758-.01-.03-.002-.005a19.88 19.88 0 0 1-.944-3.587 7.89 7.89 0 0 1-7.808.01 19.62 19.62 0 0 1-.955 3.622l-.296.746a8.67 8.67 0 0 0 5.156 2.017c1.894-.087 3.706-.795 5.157-2.014zM97 178.345c-1.12-2.205-.787-4.997-.52-7.24l.2-1.672c.423-2.964.576-5.96.457-8.953-.173-2.36-.597-5.32-2.36-7.268-3.68-4.08-11.903-4.02-16.797-1.242a.89.89 0 0 1-.537.111c-.184-.016-.37-.02-.554-.013h-.1c-2.224.046-7.512.923-8.173 8.055a43.29 43.29 0 0 0 .441 8.76c.55 4.678 1.023 8.72-1.223 10.735-1.163 1.044-2.905 1.38-5.303 1.013a5.99 5.99 0 0 0 1.983 3.228 9.24 9.24 0 0 1 5.44-2.38l6.604-.575a19.7 19.7 0 0 0 .817-3.665 11.97 11.97 0 0 1-2.546-3.641c-.348-.74-.638-1.505-.866-2.3-1.2-.307-3.558-1.404-3.558-5.294 0-.666 0-2.692 1.334-3.335a1.94 1.94 0 0 1 1.344-.1v-.073c.005-.037.013-.074.023-.1.1-3.696 1.137-6.28 3.143-7.86l.01-.01c.027-.02.05-.048.078-.07a.83.83 0 0 1 .111-.054c.032-.024.065-.046.1-.065.018-.007.036-.004.054-.01.06-.018.124-.03.187-.034a.63.63 0 0 1 .325.027.87.87 0 0 1 .16.055.88.88 0 0 1 .133.091c.05.036.098.077.14.123.012.014.03.02.042.037.02.035.038.07.053.1a.85.85 0 0 1 .066.102c.475 1.196 1.782 3.204 5.197 3.204 5.34 0 6.6 0 9.504 2.885l-.008.01a.88.88 0 0 1 .268.555c.02.282.023.594.032.894a.85.85 0 0 1 .024.12v.072a1.94 1.94 0 0 1 1.345.101c1.334.643 1.334 2.67 1.334 3.335 0 3.904-2.363 4.994-3.57 5.297a15.66 15.66 0 0 1-.874 2.291 12.1 12.1 0 0 1-2.525 3.618 20.02 20.02 0 0 0 .825 3.685l6.596.574a9.29 9.29 0 0 1 5.449 2.37 6.02 6.02 0 0 0 1.97-3.221c-3.144.466-5.248-.3-6.257-2.283zm0 0"/><path d="M93.263 164.285c-.206.016-.403.092-.567.218v1.573a4.41 4.41 0 0 1-.152 1.093l-.257 2c.687-.47 1.302-1.387 1.302-3.167 0-1.45-.323-1.726-.326-1.728zm7.224 21.3a7.49 7.49 0 0 0-4.817-2.327l-5.708-.497c.1.317.03.67-.206.9a10.7 10.7 0 0 1-6.881 2.94 10.7 10.7 0 0 1-6.881-2.94c-.235-.24-.315-.592-.205-.9l-5.7.497a7.49 7.49 0 0 0-.963 14.778 6.21 6.21 0 0 1-.525-2.499v-4.464c0-.493.4-.893.893-.893s.893.4.893.893v4.464A4.47 4.47 0 0 0 74.841 200h2.678a4.47 4.47 0 0 0 4.464-4.464v-.893c0-.493.4-.893.893-.893s.893.4.893.893v.893A4.47 4.47 0 0 0 88.232 200H90.9a4.47 4.47 0 0 0 4.464-4.464v-4.464c0-.493.4-.893.893-.893s.893.4.893.893v4.464a6.22 6.22 0 0 1-.526 2.5 7.5 7.5 0 0 0 3.967-12.329c-.042-.037-.08-.078-.114-.122zm-28.005-21.296c.003 0-.32.278-.32 1.725 0 1.774.6 2.7 1.295 3.162l-.254-2.016a4.41 4.41 0 0 1-.148-1.084v-1.572c-.166-.127-.365-.2-.574-.216zm2.488 2.572c.406 1.312 1.74 2.103 3.086 1.83s2.265-1.523 2.126-2.9a2.67 2.67 0 0 0-2.665-2.402h-2.675l.127 3.462zm0 0"/><path d="M76.606 156.638c-1.083 1.434-1.682 3.176-1.708 4.973h2.62a4.45 4.45 0 0 1 3.853 2.25c.907-.62 2.1-.62 3.008 0a4.45 4.45 0 0 1 3.853-2.25h2.287c-1.908-1.78-2.808-1.785-7.644-1.785a6.96 6.96 0 0 1-6.269-3.188zm8.948 9.437a2.67 2.67 0 0 0 5.223.793l.13-3.47h-2.675c-1.478.002-2.676 1.2-2.678 2.678zm-2.678 11.605c2.753 0 4.92-1.63 6.442-4.845.424-.905.75-1.852.976-2.825a4.42 4.42 0 0 1-2.062.53 4.47 4.47 0 0 1-4.464-4.464l.045-.446a1.88 1.88 0 0 0-.938-.447 1.88 1.88 0 0 0-.938.447c.023.148.038.297.045.446a4.47 4.47 0 0 1-4.464 4.464c-.724-.005-1.436-.2-2.072-.534a14.15 14.15 0 0 0 .969 2.831c1.512 3.215 3.685 4.845 6.46 4.845zm0 0"/></g><g id="D" fill="#ec4a81"><path d="M241.03 184.363a7.49 7.49 0 0 0 2.359 13.673 6.21 6.21 0 0 1-.53-2.502v-4.464c0-.493.4-.893.893-.893s.893.4.893.893v4.464c.01 2.46 2.003 4.453 4.464 4.464h.802c1.9-.334 3.76-.956 5.482-1.847a4.43 4.43 0 0 0 .858-2.618v-.893c0-.493.4-.893.893-.893s.893.4.893.893v.893a4.51 4.51 0 0 0 .089.861 20.92 20.92 0 0 0 6.216-8.339 11.84 11.84 0 0 1-7.197 2.121c-6.967 0-9.8-4.17-10.912-7.087l-1.886.164a7.47 7.47 0 0 0-3.278 1.082c-.014.008-.025.02-.04.027zm32-.13a29.84 29.84 0 0 1-1.613 5.596v5.707a6.21 6.21 0 0 1-.531 2.502 7.49 7.49 0 0 0 2.144-13.804zm0 0"/><path d="M266.94 164.514c-.01 1.56-.14 3.12-.386 4.662.686-.47 1.302-1.387 1.302-3.167 0-1.45-.323-1.726-.326-1.728-.215.02-.42.102-.6.234zm-4.64 18.292l-.3-.76-.012-.036a19.84 19.84 0 0 1-.943-3.587 7.89 7.89 0 0 1-7.807.01 19.33 19.33 0 0 1-.942 3.575l-.003.008-.013.038-.295.747a8.68 8.68 0 0 0 5.157 2.017c1.894-.086 3.706-.794 5.157-2.015zm0 0"/><path d="M241.38 182.18a9.26 9.26 0 0 1 2.81-.705l6.596-.574a19.42 19.42 0 0 0 .819-3.672 11.98 11.98 0 0 1-2.539-3.637 21.94 21.94 0 0 1-1.726-9.208.88.88 0 0 1 .521-.921l.003-.001.01-.005c5.843-2.512 8.42-8.394 8.446-8.453a.9.9 0 0 1 .076-.11c.032-.06.07-.116.115-.166a.86.86 0 0 1 .183-.126c.03-.024.062-.046.095-.066l.01-.002c.08-.03.165-.047.25-.053.03-.003.06-.017.1-.017a7.86 7.86 0 0 1 .34.068l.014.003a.85.85 0 0 1 .119.082c.056.03.108.066.156.108a.87.87 0 0 1 .121.174.84.84 0 0 1 .072.104c1.675 3.474 4.4 6.327 7.808 8.148a3.56 3.56 0 0 1 1.3-.603c.192-1.733.42-6.414-2.156-9.512-1.677-2.015-4.292-3.037-7.772-3.037-4.367 0-7.743 1.233-10.033 3.664-3.66 3.885-3.365 9.617-3.36 9.674.002.846.048 1.848.098 2.9.18 3.885.404 8.72-1.14 11.033a8.56 8.56 0 0 0-1.326 4.9zm27.113 16.334c.74-.815 1.15-1.878 1.15-2.98v-2.04c-1.45 2.532-3.4 4.744-5.728 6.504h1.264a4.43 4.43 0 0 0 3.314-1.485zm0 0"/><path d="M248.097 182.928c1.07 2.404 3.515 5.464 9.046 5.464 4.956 0 7.402-2.452 8.594-4.57.083-.352.148-.66.198-.917l-1.704-.15c.1.317.03.67-.205.9a10.7 10.7 0 0 1-6.882 2.94c-2.573-.12-5.016-1.164-6.88-2.94-.235-.24-.315-.592-.205-.9zm21.843.327l-2.22-.193-.236 1.104a.86.86 0 0 1-.048.203c-.827 3.38-3.157 10-9.186 14.152a.88.88 0 0 1-.173.135c-.02.01-.04.013-.06.02a19.5 19.5 0 0 1-1.595.961c-.044.027-.1.05-.137.07-.2.1-.386.198-.583.293h4.87l.138-.07c4.957-2.64 7.63-7.223 9-10.604l.005-.012c.753-1.868 1.303-3.812 1.638-5.8-.462-.13-.935-.217-1.413-.26zm-12.797-5.577c2.753 0 4.92-1.63 6.443-4.846 1.005-2.1 1.463-4.467 1.56-8a19.22 19.22 0 0 1-8.001-7.557 19.22 19.22 0 0 1-8.001 7.557c.095 3.545.548 5.902 1.54 8 1.512 3.217 3.685 4.846 6.46 4.846zm0 0"/></g></defs><pattern id="E" width="350" height="350" patternUnits="userSpaceOnUse"><use xlink:href="#A" x="-350" y="-350"/><use xlink:href="#A" y="-350"/><use xlink:href="#A" x="350" y="-350"/><use xlink:href="#A" x="-350"/><use xlink:href="#A"/><use xlink:href="#A" x="350"/><use xlink:href="#A" x="-350" y="350"/><use xlink:href="#A" y="350"/><use xlink:href="#A" x="350" y="350"/></pattern><path fill="url(#E)" d="M0 0h350v350H0z"/><pattern id="F" width="350" height="350" patternUnits="userSpaceOnUse"><use xlink:href="#B" x="-350" y="-350"/><use xlink:href="#B" y="-350"/><use xlink:href="#B" x="350" y="-350"/><use xlink:href="#B" x="-350"/><use xlink:href="#B"/><use xlink:href="#B" x="350"/><use xlink:href="#B" x="-350" y="350"/><use xlink:href="#B" y="350"/><use xlink:href="#B" x="350" y="350"/></pattern><path fill="url(#F)" d="M0 0h350v350H0z"/><pattern id="G" width="350" height="350" patternUnits="userSpaceOnUse"><use xlink:href="#C" x="-350" y="-350"/><use xlink:href="#C" y="-350"/><use xlink:href="#C" x="350" y="-350"/><use xlink:href="#C" x="-350"/><use xlink:href="#C"/><use xlink:href="#C" x="350"/><use xlink:href="#C" x="-350" y="350"/><use xlink:href="#C" y="350"/><use xlink:href="#C" x="350" y="350"/></pattern><path fill="url(#G)" d="M0 0h350v350H0z"/><pattern id="H" width="350" height="350" patternUnits="userSpaceOnUse"><use xlink:href="#D" x="-350" y="-350"/><use xlink:href="#D" y="-350"/><use xlink:href="#D" x="350" y="-350"/><use xlink:href="#D" x="-350"/><use xlink:href="#D"/><use xlink:href="#D" x="350"/><use xlink:href="#D" x="-350" y="350"/><use xlink:href="#D" y="350"/><use xlink:href="#D" x="350" y="350"/></pattern><path fill="url(#H)" d="M0 0h350v350H0z"/></svg>