<svg xmlns="http://www.w3.org/2000/svg" xmlns:xlink="http://www.w3.org/1999/xlink" width="400" height="400" viewBox="0 0 350 350"><path opacity="0" fill="#fff" d="M0 0h350v350H0z"/><defs><path d="M199.68 325.988c-.013-.014-.02-.03-.025-.038-.013-.02-.032-.033-.037-.05-.36-.494-.93-.817-1.586-.817h-33.306a1.96 1.96 0 0 0-1.959 1.961v39.95a1.96 1.96 0 0 0 .316 1.066c.01.01.013.022.02.033.016.02.032.033.04.048.358.496.93.818 1.584.818h2.44c-.4 2.662-2.694 4.712-5.468 4.712-2.803 0-5.104-2.093-5.475-4.8h2.458a1.96 1.96 0 0 0 1.961-1.959v-39.955a1.92 1.92 0 0 0-.313-1.055c-.008-.01-.016-.03-.025-.038-.008-.02-.022-.033-.037-.048-.358-.493-.93-.817-1.588-.817h-6.71a1.96 1.96 0 0 0-1.958 1.958v39.953a1.94 1.94 0 0 0 .313 1.063c.01.01.016.024.022.033.013.02.027.033.037.05a1.95 1.95 0 0 0 1.586.817h2.924c.38 3.436 3.27 6.126 6.803 6.126 3.507 0 6.38-2.65 6.797-6.042h29.536a1.96 1.96 0 0 0 1.958-1.959v-39.952a1.9 1.9 0 0 0-.308-1.058zm-24.3 28.66c0 .462-.375.834-.837.834h-4.612c-.462 0-.836-.372-.836-.834v-1.955c0-.46.373-.834.836-.834h4.612c.462 0 .837.375.837.834v1.955zm0-6.647a.84.84 0 0 1-.837.837h-4.612c-.462 0-.836-.375-.836-.837v-1.953c0-.462.373-.837.836-.837h4.612a.84.84 0 0 1 .837.837V348zm0-6.647a.84.84 0 0 1-.837.836h-4.612c-.462 0-.836-.377-.836-.836V339.4c0-.462.373-.837.836-.837h4.612a.84.84 0 0 1 .837.837v1.953zm9.144 13.295c0 .462-.372.834-.837.834h-4.6a.83.83 0 0 1-.836-.834v-1.955c0-.46.37-.834.836-.834h4.6c.466 0 .837.375.837.834v1.955zm0-6.647c0 .462-.372.837-.837.837h-4.6c-.466 0-.836-.375-.836-.837v-1.953c0-.462.37-.837.836-.837h4.6c.466 0 .837.375.837.837V348zm0-6.647c0 .46-.372.836-.837.836h-4.6c-.466 0-.836-.377-.836-.836V339.4c0-.462.37-.837.836-.837h4.6c.466 0 .837.375.837.837v1.953zm9.144 13.295c0 .462-.375.834-.84.834h-4.607c-.466 0-.84-.372-.84-.834v-1.955c0-.46.373-.834.84-.834h4.607c.466 0 .84.375.84.834v1.955zm0-6.647a.84.84 0 0 1-.841.837h-4.607c-.466 0-.84-.375-.84-.837v-1.953c0-.462.373-.837.84-.837h4.607a.84.84 0 0 1 .841.837V348zm0-6.647a.84.84 0 0 1-.841.836h-4.607a.84.84 0 0 1-.839-.836V339.4c0-.462.373-.837.84-.837h4.607a.84.84 0 0 1 .841.837v1.953z" id="A" fill="#ec4a81"/><path d="M365.604 315h-31.208c-2.6 0-4.728 2.126-4.728 4.728v60.542c0 2.602 2.128 4.73 4.728 4.73h31.208a4.74 4.74 0 0 0 4.728-4.728v-60.544c0-2.602-2.128-4.728-4.728-4.728zm-20.596 3.408h9.984c.316 0 .572.256.572.574a.57.57 0 0 1-.572.572h-9.984a.57.57 0 0 1-.572-.572c0-.318.256-.574.572-.574zM350 382.636c-1.306 0-2.364-1.058-2.364-2.366s1.058-2.364 2.364-2.364 2.364 1.056 2.364 2.364-1.058 2.366-2.364 2.366zm17.042-6.386h-34.084v-53.752h34.084v53.752z" id="B" fill="#ec4a81"/><path d="M98.646 150h-22.29a3.39 3.39 0 0 0-3.377 3.377v43.244A3.39 3.39 0 0 0 76.354 200h22.29c1.857 0 3.377-1.517 3.377-3.377v-43.246A3.39 3.39 0 0 0 98.646 150zm-14.71 2.434h7.13a.41.41 0 0 1 .409.41.41.41 0 0 1-.409.409h-7.13a.41.41 0 0 1-.409-.409.41.41 0 0 1 .409-.41zM87.5 198.31a1.69 1.69 0 0 1-1.689-1.69 1.69 1.69 0 0 1 1.689-1.689 1.69 1.69 0 0 1 1.689 1.689 1.69 1.69 0 0 1-1.689 1.69zm12.173-4.56H75.327v-38.394h24.346v38.394zM87.5 182.413a12.02 12.02 0 0 1-8.557-3.543.85.85 0 0 1 0-1.199.85.85 0 0 1 1.2 0c1.964 1.966 4.58 3.05 7.357 3.05s5.393-1.083 7.357-3.05a.85.85 0 0 1 1.2 0 .85.85 0 0 1 0 1.199c-2.284 2.286-5.323 3.543-8.557 3.543zm-1.91-13.824c0 1.134-.92 2.054-2.056 2.054s-2.054-.92-2.054-2.054.92-2.054 2.054-2.054 2.056.92 2.056 2.054zm7.927 0c0 1.134-.92 2.054-2.054 2.054s-2.054-.92-2.054-2.054.923-2.054 2.054-2.054 2.054.92 2.054 2.054z" id="C" fill="#ec4a81"/><path d="M299.47 198.01l-3.192-3.192c10.432-10.432 10.43-27.406-.005-37.837l3.197-3.194c12.192 12.2 12.192 32.03 0 44.223zm-5.522-38.703l-3.192 3.194c7.384 7.39 7.384 19.408 0 26.792l3.192 3.2c9.147-9.152 9.147-24.038 0-33.185zm-5.7 5.696l-3.192 3.194c4.253 4.245 4.253 11.158 0 15.4l3.194 3.194c6.008-6.006 6.008-15.78-.002-21.79zM216.6 198.01l3.192-3.192c-10.432-10.432-10.43-27.406.005-37.837l-3.197-3.194c-12.192 12.2-12.192 32.03 0 44.223zm5.522-5.52l3.192-3.194c-7.384-7.384-7.384-19.406 0-26.795l-3.192-3.194c-9.147 9.147-9.147 24.033 0 33.183zm5.698-5.696l3.194-3.194a10.9 10.9 0 0 1 .002-15.401l-3.194-3.194c-6.01 6.006-6.01 15.78-.002 21.79zm51.18-40v62.414a4.89 4.89 0 0 1-4.873 4.871H241.95a4.89 4.89 0 0 1-4.873-4.871v-62.414a4.89 4.89 0 0 1 4.873-4.873h32.168a4.89 4.89 0 0 1 4.873 4.873zm-26.696-.77a.59.59 0 0 0 .592.589h10.3a.59.59 0 1 0 0-1.181h-10.3c-.325 0-.592.265-.592.592zm8.175 63.184a2.44 2.44 0 0 0-2.439-2.439c-1.347 0-2.437 1.092-2.437 2.44s1.1 2.434 2.437 2.434 2.44-1.1 2.44-2.434zm15.13-59.56h-35.134v55.4h35.134v-55.4z" id="D" fill="#ec4a81"/></defs><pattern id="E" width="350" height="350" patternUnits="userSpaceOnUse"><use xlink:href="#A" x="-350" y="-350"/><use xlink:href="#A" y="-350"/><use xlink:href="#A" x="350" y="-350"/><use xlink:href="#A" x="-350"/><use xlink:href="#A"/><use xlink:href="#A" x="350"/><use xlink:href="#A" x="-350" y="350"/><use xlink:href="#A" y="350"/><use xlink:href="#A" x="350" y="350"/></pattern><path fill="url(#E)" d="M0 0h350v350H0z"/><pattern id="F" width="350" height="350" patternUnits="userSpaceOnUse"><use xlink:href="#B" x="-350" y="-350"/><use xlink:href="#B" y="-350"/><use xlink:href="#B" x="350" y="-350"/><use xlink:href="#B" x="-350"/><use xlink:href="#B"/><use xlink:href="#B" x="350"/><use xlink:href="#B" x="-350" y="350"/><use xlink:href="#B" y="350"/><use xlink:href="#B" x="350" y="350"/></pattern><path fill="url(#F)" d="M0 0h350v350H0z"/><pattern id="G" width="350" height="350" patternUnits="userSpaceOnUse"><use xlink:href="#C" x="-350" y="-350"/><use xlink:href="#C" y="-350"/><use xlink:href="#C" x="350" y="-350"/><use xlink:href="#C" x="-350"/><use xlink:href="#C"/><use xlink:href="#C" x="350"/><use xlink:href="#C" x="-350" y="350"/><use xlink:href="#C" y="350"/><use xlink:href="#C" x="350" y="350"/></pattern><path fill="url(#G)" d="M0 0h350v350H0z"/><pattern id="H" width="350" height="350" patternUnits="userSpaceOnUse"><use xlink:href="#D" x="-350" y="-350"/><use xlink:href="#D" y="-350"/><use xlink:href="#D" x="350" y="-350"/><use xlink:href="#D" x="-350"/><use xlink:href="#D"/><use xlink:href="#D" x="350"/><use xlink:href="#D" x="-350" y="350"/><use xlink:href="#D" y="350"/><use xlink:href="#D" x="350" y="350"/></pattern><path fill="url(#H)" d="M0 0h350v350H0z"/></svg>