<svg xmlns="http://www.w3.org/2000/svg" xmlns:xlink="http://www.w3.org/1999/xlink" width="400" height="400" viewBox="0 0 350 350"><style><![CDATA[.B{fill:#ec4a81}]]></style><use xlink:href="#K" opacity="0" fill="#fff"/><defs><path d="M251.555 295.457a1.5 1.5 0 0 0-2.082.4 6 6 0 0 1-4.972 2.641 6.01 6.01 0 0 1-6-6c0-1.994.987-3.852 2.64-4.97a1.5 1.5 0 1 0-1.682-2.485c-2.48 1.68-3.96 4.467-3.96 7.456a9.01 9.01 0 0 0 9 9 8.98 8.98 0 0 0 7.456-3.96 1.5 1.5 0 0 0-.402-2.082zM277.5 220.5a26.82 26.82 0 0 0-19.092 7.908l-14.848 14.848a1.5 1.5 0 0 0 2.121 2.121l14.848-14.848a23.84 23.84 0 0 1 16.97-7.03c6.4 0 12.44 2.496 16.973 7.03a23.84 23.84 0 0 1 0 33.94l-19.094 19.092a1.5 1.5 0 0 0-.282 1.731c1.83 3.66.93 11.056-1.657 13.646l-4.94 4.94-47.38-47.38 4.94-4.94c2.54-2.54 9.7-3.454 13.438-1.758l31.638 31.638a1.5 1.5 0 0 0 2.121-2.121l-31.82-31.82c-.114-.114-.246-.208-.4-.28-4.818-2.413-13.617-1.274-17.1 2.22l-6 6a1.5 1.5 0 0 0 0 2.121l49.5 49.5a1.5 1.5 0 0 0 1.06.44c.383 0 .768-.147 1.06-.44l6-6c3.258-3.258 4.47-11.136 2.657-16.093l18.375-18.375a26.82 26.82 0 0 0 0-38.184c-5.1-5.1-11.864-7.906-19.078-7.906zm28.242-1.243c-2.338-2.34-6.147-2.34-8.484 0l-1.98 1.98a1.5 1.5 0 0 0 2.121 2.121l1.98-1.98c1.168-1.168 3.074-1.168 4.242 0a2.98 2.98 0 0 1 0 4.242l-1.978 1.98a1.5 1.5 0 0 0 0 2.123c.292.292.677.438 1.06.438a1.49 1.49 0 0 0 1.06-.439l1.978-1.978a5.96 5.96 0 0 0 0-8.486zM270.58 234.02a1.53 1.53 0 0 0 .63-.14 15.1 15.1 0 0 1 12.505-.037 1.5 1.5 0 0 0 1.988-.744c.342-.753.01-1.644-.742-1.988a18.12 18.12 0 0 0-15.013.047 1.5 1.5 0 0 0 .633 2.862z" id="A" class="B"/><path d="M267.166 352.333c0-.184-.15-.333-.333-.333h-2c-.184 0-.333.15-.333.333s.15.333.333.333h2c.184 0 .333-.15.333-.333zm-1.333-8.666V342c0-.184-.15-.333-.333-.333s-.333.15-.333.333v1.667a1.67 1.67 0 0 0 1.667 1.667h3v6.333c0 .184.15.333.333.333s.333-.15.333-.333V345c0-.184-.15-.333-.333-.333h-3.333a1 1 0 0 1-1-1zm1 4.333h-2.667c-.184 0-.333.15-.333.333s.15.333.333.333h2.667c.184 0 .333-.15.333-.333s-.15-.333-.333-.333zm-3.667.333c0-.184-.15-.333-.333-.333h-2c-.184 0-.333.15-.333.333s.15.333.333.333h2c.184 0 .333-.15.333-.333zM260.833 350c-.184 0-.333.15-.333.333s.15.333.333.333h.667c.184 0 .333-.15.333-.333s-.15-.333-.333-.333h-.667zm0-3.333h3.333c.184 0 .333-.15.333-.333s-.15-.333-.333-.333h-3.333c-.184 0-.333.15-.333.333s.15.333.333.333zm2 4h3.333c.184 0 .333-.15.333-.333s-.15-.333-.333-.333h-3.333c-.184 0-.333.15-.333.333s.15.333.333.333zm2 3.333c-.184 0-.333.15-.333.333s.15.333.333.333h.667c.184 0 .333-.15.333-.333s-.15-.333-.333-.333h-.667zm-1.333-2h-2.667c-.184 0-.333.15-.333.333s.15.333.333.333h2.667c.184 0 .333-.15.333-.333s-.15-.333-.333-.333zm0 2h-2.667c-.184 0-.333.15-.333.333s.15.333.333.333h2.667c.184 0 .333-.15.333-.333s-.15-.333-.333-.333zm7.936-.27l-.667-.667a1.25 1.25 0 0 0-1.805 0l-4.367 4.367c-.062.062-.098.147-.098.236v2c0 .184.15.333.333.333h2c.088 0 .173-.035.236-.098l4.367-4.367a1.22 1.22 0 0 0 0-1.805zm-2.902.707l.53.53-2.896 2.896-.53-.53 2.896-2.896zm-3.367 4.896v-1.53l1.53 1.53h-1.53zm2-.47l-.53-.53 2.896-2.896.53.53-2.896 2.896zm3.798-3.798l-.43.43-1.53-1.53.43-.43c.263-.263.597-.264.862 0l.667.667c.27.27.27.592 0 .862zm-7.465 4.27h-8.667a1 1 0 0 1-1-1v-16.667a1 1 0 0 1 1-1h10.53l3.236 3.236c.13.13.34.13.47 0s.13-.34 0-.47l-3.333-3.333a.33.33 0 0 0-.236-.098h-10.667a1.67 1.67 0 0 0-1.667 1.667v16.667a1.67 1.67 0 0 0 1.667 1.667h8.667c.184 0 .333-.15.333-.333s-.15-.333-.333-.333zm0-3.334h-2.667c-.184 0-.333.15-.333.333s.15.333.333.333h2.667c.184 0 .333-.15.333-.333s-.15-.333-.333-.333zm-4.334-9.667c0-.184-.15-.333-.333-.333h-2c-.184 0-.333.15-.333.333v2c0 .184.15.333.333.333h2c.184 0 .333-.15.333-.333v-2zM258.5 348h-1.333v-1.333h1.333V348zm-1.667 8.667h2c.184 0 .333-.15.333-.333v-2c0-.184-.15-.333-.333-.333h-2c-.184 0-.333.15-.333.333v2c0 .184.15.333.333.333zm.333-2h1.333V356h-1.333v-1.333zm.098-2.097c.063.063.148.098.236.098a.27.27 0 0 0 .033-.002.33.33 0 0 0 .244-.147l1.333-2c.102-.153.06-.36-.092-.462s-.36-.06-.462.092l-1.108 1.662-.38-.38c-.13-.13-.34-.13-.47 0s-.13.34 0 .47l.667.667z" id="B" class="B"/><path d="M77.5 96.833h4a.67.67 0 0 0 .667-.667.67.67 0 0 0-.667-.667h-4a.67.67 0 0 0-.667.667.67.67 0 0 0 .667.667zm0 4h8a.67.67 0 0 0 .667-.667.67.67 0 0 0-.667-.667h-8a.67.67 0 0 0-.667.667.67.67 0 0 0 .667.667zM80.103 86.3a1.35 1.35 0 0 1 .606.627c.113.243.353.385.604.385a.66.66 0 0 0 .282-.063.67.67 0 0 0 .322-.886 2.69 2.69 0 0 0-1.208-1.251.67.67 0 0 0-.897.291.67.67 0 0 0 .29.897zM91.5 96.167c0-.368-.298-.667-.667-.667h-6.667a.67.67 0 0 0-.667.667.67.67 0 0 0 .667.667h6.667c.37 0 .667-.3.667-.667zM80.103 74.3c.265.135.48.357.606.627.113.243.353.385.604.385a.66.66 0 0 0 .282-.063.67.67 0 0 0 .322-.886c-.25-.537-.68-.98-1.208-1.25a.67.67 0 0 0-.897.291.67.67 0 0 0 .29.897zm-4.853 4.407c-.487.477-1.082 1.352-1.082 2.793s.595 2.316 1.082 2.793a5.3 5.3 0 0 0-1.082 3.207c0 1.347.506 2.576 1.333 3.516V93.5a.67.67 0 0 0 .667.667.67.67 0 0 0 .667-.667v-1.4c.785.457 1.695.722 2.667.722a5.34 5.34 0 0 0 5.333-5.333 5.34 5.34 0 0 0-5.333-5.333c-1.257 0-2.413.44-3.325 1.17-.287-.283-.675-.847-.675-1.837s.388-1.554.675-1.837c.913.73 2.068 1.17 3.325 1.17a5.34 5.34 0 0 0 5.333-5.333 5.34 5.34 0 0 0-5.333-5.333 5.31 5.31 0 0 0-2.667.72V68.83H94.56l6.47 6.47c.13.13.3.195.47.195s.34-.065.47-.195a.67.67 0 0 0 0-.943l-6.667-6.667c-.125-.125-.294-.195-.47-.195H76.167a.67.67 0 0 0-.667.667v3.817a5.31 5.31 0 0 0-1.333 3.516 5.3 5.3 0 0 0 1.082 3.207zM79.5 71.5c2.206 0 4 1.794 4 4s-1.794 4-4 4-4-1.794-4-4 1.794-4 4-4zm0 12c2.206 0 4 1.794 4 4s-1.794 4-4 4-4-1.794-4-4 1.794-4 4-4zm18.667 12.667c0-.368-.298-.667-.667-.667h-4c-.37 0-.667.3-.667.667a.67.67 0 0 0 .667.667h4c.37 0 .667-.3.667-.667zM97.5 83.5h-5.333c-.37 0-.667.3-.667.667a.67.67 0 0 0 .667.667H97.5c.37 0 .667-.3.667-.667a.67.67 0 0 0-.667-.667zm-9.333 17.333h6.667c.37 0 .667-.3.667-.667a.67.67 0 0 0-.667-.667h-6.667a.67.67 0 0 0-.667.667.67.67 0 0 0 .667.667zm16-24H97.5c-1.103 0-2-.897-2-2V71.5c0-.368-.298-.667-.667-.667a.67.67 0 0 0-.667.667v3.333a3.34 3.34 0 0 0 3.333 3.333h6v26a1.98 1.98 0 0 1-2 2h-28c-1.103 0-2-.897-2-2V70.833c0-1.103.897-2 2-2a.67.67 0 0 0 .667-.667.67.67 0 0 0-.667-.667 3.34 3.34 0 0 0-3.333 3.333v33.333A3.34 3.34 0 0 0 73.5 107.5h28c1.87 0 3.333-1.464 3.333-3.333V77.5c0-.368-.298-.667-.667-.667zM85.5 92.167a.67.67 0 0 0 .667.667h10c.37 0 .667-.3.667-.667a.67.67 0 0 0-.667-.667h-10a.67.67 0 0 0-.667.667zm1.333-4a.67.67 0 0 0 .667.667h3.333c.37 0 .667-.3.667-.667a.67.67 0 0 0-.667-.667H87.5a.67.67 0 0 0-.667.667zm9.334.666c.37 0 .667-.3.667-.667a.67.67 0 0 0-.667-.667H93.5c-.37 0-.667.3-.667.667a.67.67 0 0 0 .667.667h2.667zM89.5 83.5h-2.667a.67.67 0 0 0-.667.667.67.67 0 0 0 .667.667H89.5c.37 0 .667-.3.667-.667a.67.67 0 0 0-.667-.667z" id="C" class="B"/><path d="M173.792 170.493c1.42-.38 2.515-1.246 3.13-1.837.83.203 2.2.406 3.63.025 2.098-.562 4.124-2.383 4.707-4.214.06-.176 1.443-4.387-.14-10.295a8.18 8.18 0 0 0-10.002-5.775c-1.275.342-2.3 1.12-3.122 1.87-1.078-.244-2.365-.4-3.64-.06a8.18 8.18 0 0 0-5.775 10.002c1.8 6.677 4.56 8.715 5.143 9.077 1.362 1 3.818 1.808 6.067 1.205zm-4.83-18.03c1.005-.27 2.172-.024 3.077.22.404.1.834-.006 1.13-.303.662-.664 1.55-1.46 2.555-1.73a5.84 5.84 0 0 1 7.144 4.125c1.4 5.186.195 8.9.177 8.963-.306.96-1.65 2.302-3.094 2.7-1.453.4-2.94-.175-2.95-.178a1.17 1.17 0 0 0-.733-.043c-.237.063-.453.2-.613.403-.01.012-1.013 1.24-2.466 1.63-1.436.385-3.185-.15-4.103-.848-.03-.023-.08-.056-.113-.076-.025-.015-2.5-1.6-4.136-7.7a5.84 5.84 0 0 1 4.125-7.144zm1.362-4.575c.305.295.73.4 1.113.288a1.16 1.16 0 0 0 .536-.316c.447-.463.435-1.2-.03-1.65l-4.9-4.73c-.463-.447-1.2-.435-1.65.03s-.435 1.2.03 1.65l4.9 4.73zm3.474-1.105c.086.005.867.043 1.818-.212 1.35-.36 2.398-1.135 3.03-2.235 1.5-2.615-.232-5.3-.307-5.424a1.17 1.17 0 0 0-.903-.521c-.087-.004-.868-.043-1.82.212-1.348.36-2.396 1.134-3.03 2.234-1.5 2.616.233 5.3.307 5.424a1.17 1.17 0 0 0 .904.522zm.8-4.78c.323-.56.866-.946 1.615-1.146.16-.043.3-.073.45-.092.232.6.454 1.545-.043 2.405-.323.56-.867.947-1.614 1.148a4.18 4.18 0 0 1-.449.092c-.232-.6-.454-1.546.042-2.407zm30.215 22.59l-54.092 14.494c-1.864.5-2.974 2.423-2.475 4.287l1.208 4.508a1.17 1.17 0 0 0 1.43.825c.623-.167.992-.807.825-1.43l-1.208-4.508a1.17 1.17 0 0 1 .825-1.429l3.38-.906 1.5 5.635a1.17 1.17 0 0 0 1.43.825c.623-.167.992-.807.825-1.43l-1.5-5.635 29.3-7.85 1.5 5.635a1.17 1.17 0 0 0 1.43.825c.623-.167.992-.807.825-1.43l-1.5-5.635 11.27-3.02 1.5 5.635a1.17 1.17 0 0 0 1.43.825c.623-.167.992-.807.825-1.43l-1.5-5.635 3.38-.906a1.17 1.17 0 0 1 1.429.825l2.114 7.888-3.38.906a1.17 1.17 0 0 0-.825 1.43l2.718 10.142-1.127.302a1.17 1.17 0 0 0-.825 1.43c.167.623.807.992 1.43.825l3.38-.906 2.114 7.888a1.17 1.17 0 0 1-.825 1.429l-34.934 9.36-1.5-5.635a1.17 1.17 0 0 0-1.43-.825c-.623.167-.992.807-.825 1.43l1.5 5.635-2.254.604-1.5-5.635a1.17 1.17 0 0 0-1.43-.825c-.623.167-.992.807-.825 1.43l1.5 5.635-2.254.604-1.5-5.635a1.17 1.17 0 0 0-1.43-.825c-.623.167-.992.807-.825 1.43l1.5 5.635-10.142 2.718a1.17 1.17 0 0 1-1.429-.825l-1.208-4.508a1.17 1.17 0 0 0-1.43-.825c-.623.167-.992.807-.825 1.43l1.208 4.508c.5 1.864 2.423 2.974 4.287 2.475l56.346-15.098c1.864-.5 2.974-2.423 2.475-4.287l-2.114-7.888c-.392-1.464-1.765-1.943-2.858-1.65l-2.416-9.015 2.254-.604c1.093-.293 2.042-1.394 1.65-2.858l-2.114-7.888c-.5-1.864-2.423-2.974-4.287-2.475zM191.18 194.82a1.17 1.17 0 0 0 .825-1.43c-.167-.623-.807-.992-1.43-.825l-12.396 3.32-2.416-9.015 15.777-4.227 4.53 16.904c.1.416.443.737.86.834a1.17 1.17 0 0 0 1.142-.367l2.263-2.575 3.247 1.1c.223.076.458.08.676.022a1.17 1.17 0 0 0 .826-1.429l-4.53-16.904 1.127-.302a1.17 1.17 0 0 0 .825-1.43c-.167-.623-.807-.992-1.43-.825l-54.092 14.494a3.46 3.46 0 0 0-2.475 4.287l1.812 6.76c.5 1.864 2.423 2.974 4.287 2.475l40.57-10.87zm2.615-12.78l4.508-1.208 3.965 14.797-1.92-.65a1.17 1.17 0 0 0-1.251.335l-1.338 1.522-3.965-14.797zm-36.06 9.662l15.777-4.227 2.416 9.015-15.777 4.227-2.416-9.015zM148.58 202.6l-1.812-6.76a1.14 1.14 0 0 1 .825-1.429l7.888-2.114 2.416 9.015-7.888 2.114c-.632.17-1.26-.193-1.43-.825zm19.9-11.37a1.17 1.17 0 0 0-.825 1.43l.604 2.254a1.17 1.17 0 0 0 1.43.825c.623-.167.992-.807.825-1.43l-.604-2.254a1.17 1.17 0 0 0-1.43-.825zm-4.506 1.2a1.17 1.17 0 0 0-.825 1.43l.604 2.254a1.17 1.17 0 0 0 1.43.825c.623-.167.992-.807.825-1.43l-.604-2.254a1.17 1.17 0 0 0-1.43-.825z" id="D" class="B"/><path d="M78.333 262.5h3.333c.46 0 .833-.373.833-.833s-.372-.833-.833-.833h-3.333c-.46 0-.833.373-.833.833s.372.833.833.833zm-3.333-5c.46 0 .833-.373.833-.833s-.372-.833-.833-.833h-3.333c-.46 0-.833.373-.833.833v6.667c0 .46.372.833.833.833H75c.46 0 .833-.373.833-.833s-.372-.833-.833-.833h-2.5v-1.667H75c.46 0 .833-.373.833-.833s-.372-.833-.833-.833h-2.5V257.5H75zm12.5 20c-.46 0-.833.373-.833.833v2.155l-5.6 5.6a.83.83 0 1 0 1.178 1.178l5.833-5.833c.156-.157.244-.368.244-.6v-2.5c0-.46-.372-.833-.833-.833zm3.1 5.244a.833.833 0 1 0-1.178 1.178l3.333 3.333a.83.83 0 1 0 1.178-1.178l-3.333-3.333zm21.077-43.577H88.333v-.833c0-.46-.372-.833-.833-.833s-.833.373-.833.833v.833H63.333c-.46 0-.833.373-.833.833v3.333c0 .46.372.833.833.833h43.333c.46 0 .833-.373.833-.833s-.372-.833-.833-.833h-42.5v-1.667h46.667v1.667H110c-.46 0-.833.373-.833.833v28.333c0 1.378-1.122 2.5-2.5 2.5H68.333c-1.378 0-2.5-1.122-2.5-2.5v-25c0-.46-.372-.833-.833-.833s-.833.373-.833.833v25c0 2.297 1.87 4.167 4.167 4.167h38.333c2.297 0 4.167-1.87 4.167-4.167v-27.5h.833c.46 0 .833-.373.833-.833V240c0-.46-.372-.833-.833-.833zm-7.5 17.5c0-1.378-1.122-2.5-2.5-2.5s-2.5 1.122-2.5 2.5c0 .46.372.833.833.833s.833-.373.833-.833.373-.833.833-.833.833.374.833.83c-.02.258-.67.953-1.333 1.42l-1.667 1.25a.86.86 0 0 0-.3.93.83.83 0 0 0 .79.57h3.333c.46 0 .833-.373.833-.833s-.372-.833-.833-.833h-.832c.638-.504 1.665-1.476 1.665-2.5zM95 257.5c.46 0 .833.374.833.833s.372.833.833.833.833-.373.833-.833c0-1.378-1.122-2.5-2.5-2.5s-2.5 1.122-2.5 2.5v3.333c0 1.378 1.122 2.5 2.5 2.5s2.5-1.122 2.5-2.5c0-.46-.372-.833-.833-.833s-.833.373-.833.833-.373.833-.833.833-.833-.374-.833-.833v-3.333c0-.46.373-.833.833-.833zm-5 6.667c.46 0 .833-.373.833-.833v-6.667a.83.83 0 0 0-.57-.79c-.34-.113-.714.005-.93.3l-1.833 2.445-1.833-2.445a.83.83 0 0 0-1.5.5v6.667c0 .46.372.833.833.833s.833-.373.833-.833v-4.167l1 1.333c.314.42 1.02.42 1.333 0l1-1.333v4.167c0 .46.373.833.833.833zm-11.667-5h3.333c.46 0 .833-.373.833-.833s-.372-.833-.833-.833h-3.333c-.46 0-.833.373-.833.833s.372.833.833.833z" id="E" class="B"/><path d="M362.18 339.267a1.5 1.5 0 0 0 1.061 1.838l14.495 3.884a1.501 1.501 0 1 0 .777-2.899l-14.495-3.884a1.5 1.5 0 0 0-1.838 1.061zm6.365 11.027a1.5 1.5 0 0 0 1.061 1.838l8.697 2.33a1.501 1.501 0 1 0 .777-2.899l-8.697-2.33a1.5 1.5 0 0 0-1.838 1.061zm2.823-16.334a1.501 1.501 0 1 0 .777-2.899l-2.9-.777a1.501 1.501 0 1 0-.777 2.899l2.9.777zm-21.268 9.835a1.501 1.501 0 1 0-.777 2.899l14.495 3.884a1.501 1.501 0 1 0 .777-2.899l-14.495-3.884zm-3.637 42.528l-27.54-7.38a4.51 4.51 0 0 1-3.183-5.514l17.866-66.676a1.5 1.5 0 0 0-1.061-1.838c-3.996-1.07-8.12 1.3-9.2 5.305a1.501 1.501 0 1 0 2.899.777 4.51 4.51 0 0 1 3.998-3.324l-17.4 64.978c-1.07 3.996 1.3 8.12 5.305 9.2l27.54 7.38a1.501 1.501 0 0 0 .777-2.899zm-9.313-52.21l20.293 5.437a1.501 1.501 0 1 0 .777-2.899l-20.293-5.437a1.501 1.501 0 1 0-.777 2.899zm2.33-8.697l5.798 1.554a1.501 1.501 0 1 0 .777-2.899l-5.798-1.554a1.501 1.501 0 1 0-.777 2.899zm23.968 3.315l-11.596-3.107a1.501 1.501 0 1 0-.777 2.899l11.596 3.107a1.501 1.501 0 1 0 .777-2.899zM389.17 313.9l-55.08-14.76c-7.176-1.923-14.58 2.337-16.527 9.5l-.018.068a13.56 13.56 0 0 0 3.507 12.995 1.5 1.5 0 0 0 2.124-2.118c-2.64-2.648-3.683-6.528-2.723-10.135a10.52 10.52 0 0 1 12.86-7.41l55.08 14.76a10.52 10.52 0 0 1 7.428 12.865l-16.312 60.878a4.36 4.36 0 0 1-1.164 1.972 1.5 1.5 0 0 0-.017 2.122 1.49 1.49 0 0 0 .68.397 1.5 1.5 0 0 0 1.442-.379 7.36 7.36 0 0 0 1.958-3.334l16.312-60.878c1.928-7.194-2.356-14.613-9.55-16.54zm-13.5 67.818c1.285-4.796-1.57-9.742-6.367-11.027s-9.742 1.57-11.027 6.367 1.57 9.742 6.367 11.027 9.742-1.57 11.027-6.367zm-10.25 3.468a6.01 6.01 0 0 1-4.244-7.351 6.01 6.01 0 0 1 7.351-4.244 6.01 6.01 0 0 1 4.244 7.351 6.01 6.01 0 0 1-7.351 4.244zm-3.782 3.648c-.584-.585-1.535-.585-2.122 0l-4.57 4.572-.295-.88c-.15-.448-.5-.8-.948-.948l-.88-.294 4.645-4.643a1.501 1.501 0 1 0-2.123-2.123l-6.36 6.36c-.367.368-.518.9-.4 1.406a1.49 1.49 0 0 0 .987 1.078l2.472.824.824 2.472a1.5 1.5 0 0 0 1.035.975l.045.012a1.51 1.51 0 0 0 1.406-.4l6.288-6.288a1.5 1.5 0 0 0-.002-2.122zm12.862.9a1.501 1.501 0 1 0-2.9.776l1.682 6.265-.9-.186a1.51 1.51 0 0 0-1.297.347l-.693.616-1.663-6.212c-.217-.8-1.04-1.276-1.84-1.06a1.5 1.5 0 0 0-1.061 1.838l2.293 8.558a1.51 1.51 0 0 0 1.018 1.049l.045.012a1.51 1.51 0 0 0 1.385-.326l1.948-1.727 2.55.52a1.5 1.5 0 0 0 1.394-.44c.357-.378.5-.916.358-1.417l-2.3-8.6zM334.82 342.8l8.697 2.33a1.501 1.501 0 1 0 .777-2.899l-8.697-2.33a1.501 1.501 0 1 0-.777 2.899zm-2.332 8.697l17.394 4.66a1.501 1.501 0 1 0 .777-2.899l-17.394-4.66a1.501 1.501 0 1 0-.777 2.899zm-4.68 18.093a1.5 1.5 0 0 0 2.939-.602c-.666-3.254-.298-5.915.982-7.12.682-.642 1.615-.8 2.778-.5.7.185.886.492.986.768.663 1.846-1.634 6.312-3.477 8.894a1.5 1.5 0 0 0 .111 1.882c.473.52 1.25.642 1.86.3l2.34-1.23-.2.7c-.157.586.054 1.2.536 1.577a1.5 1.5 0 0 0 1.664.11c.84-.483 1.78-.926 2.553-1.22l-.08.1a1.51 1.51 0 0 0-.31 1.427 1.5 1.5 0 0 0 1.048 1.017l5.798 1.554a1.501 1.501 0 1 0 .777-2.899l-3.773-1c.302-.66.46-1.368.263-2.027-.2-.698-.76-1.214-1.512-1.415-.896-.24-2.095.023-3.24.44.095-.652-.14-1.272-.644-1.66-.344-.263-.787-.605-2.192-.204 1.146-2.37 2.057-5.2 1.294-7.34-.333-.93-1.13-2.144-3.034-2.654-2.17-.582-4.165-.15-5.613 1.213-2.072 1.952-2.752 5.562-1.862 9.906zm44.205-9.056a1.5 1.5 0 0 0-1.061-1.838l-14.495-3.884a1.501 1.501 0 1 0-.777 2.899l14.495 3.884a1.5 1.5 0 0 0 1.838-1.061z" id="F" class="B"/><path d="M91.834 346.667h-.667c-.184 0-.333.15-.333.333s.15.333.333.333h.667c.184 0 .333-.15.333-.333s-.15-.333-.333-.333zm0 1.333h-.667c-.184 0-.333.15-.333.333s.15.333.333.333h.667c.184 0 .333-.15.333-.333s-.15-.333-.333-.333zm0-2.667h-.667c-.184 0-.333.15-.333.333s.15.333.333.333h.667c.184 0 .333-.15.333-.333s-.15-.333-.333-.333zm0 10.667h-.667c-.184 0-.333.15-.333.333s.15.333.333.333h.667c.184 0 .333-.15.333-.333s-.15-.333-.333-.333zM84.5 345.333h-2c-.184 0-.333.15-.333.333v4.667c0 .184.15.333.333.333h2c.184 0 .333-.15.333-.333v-4.667c0-.184-.15-.333-.333-.333zM84.167 350h-1.333v-4h1.333v4zm.333 6h-2c-.184 0-.333.15-.333.333s.15.333.333.333h2c.184 0 .333-.15.333-.333s-.15-.333-.333-.333zm0 1.334h-2c-.184 0-.333.15-.333.333s.15.333.333.333h2c.184 0 .333-.15.333-.333s-.15-.333-.333-.333zm7.334 0h-.667c-.184 0-.333.15-.333.333s.15.333.333.333h.667c.184 0 .333-.15.333-.333s-.15-.333-.333-.333zm4 0H94.5c-.184 0-.333.15-.333.333s.15.333.333.333h1.333c.184 0 .333-.15.333-.333s-.15-.333-.333-.333zm-7-11.667c0-.184-.15-.333-.333-.333h-1.333c-.184 0-.333.15-.333.333v4.667c0 .184.15.333.333.333H88.5c.184 0 .333-.15.333-.333v-4.667zM88.167 350H87.5v-4h.667v4zm7.667 6H94.5c-.184 0-.333.15-.333.333s.15.333.333.333h1.333c.184 0 .333-.15.333-.333s-.15-.333-.333-.333zm-7.334 1.334h-1.333c-.184 0-.333.15-.333.333s.15.333.333.333H88.5c.184 0 .333-.15.333-.333s-.15-.333-.333-.333zm6-5.334c.184 0 .333-.15.333-.333v-3.333c0-.184-.15-.333-.333-.333s-.333.15-.333.333v3.333c0 .184.15.333.333.333zm1.667-3.667c0-.184-.15-.333-.333-.333s-.333.15-.333.333v3.333c0 .184.15.333.333.333s.333-.15.333-.333v-3.333zm.333-5.666h-2c-.184 0-.333.15-.333.333s.15.333.333.333h2c.184 0 .333.15.333.333V359c0 .184-.15.333-.333.333h-3v-14h2c.184 0 .333-.15.333-.333s-.15-.333-.333-.333h-2v-3a.99.99 0 0 0-1-1h-2a1 1 0 0 0-1 1v17.667h-3.333V342H88.5c.184 0 .333-.15.333-.333s-.15-.333-.333-.333h-2.333V341a.99.99 0 0 0-1-1h-3.333a1 1 0 0 0-1 1v3h-1.667c-.184 0-.333.15-.333.333s.15.333.333.333h1.667v14.667H78.5c-.184 0-.333-.15-.333-.333v-16c0-.184.15-.333.333-.333h1.333c.184 0 .333-.15.333-.333s-.15-.333-.333-.333H78.5a1 1 0 0 0-1 1v16a1 1 0 0 0 1 1h18a1 1 0 0 0 1-1v-15.334a1 1 0 0 0-1-1zm-11 16.667h-4v-16.667h3c.184 0 .333-.15.333-.333s-.15-.333-.333-.333h-3v-1a.33.33 0 0 1 .333-.333h3.333a.32.32 0 0 1 .333.333v18.334zm7.333 0h-2.667v-16h1.667c.184 0 .333-.15.333-.333s-.15-.333-.333-.333h-1.667v-1a.33.33 0 0 1 .333-.333h2a.32.32 0 0 1 .333.333v17.667zm-13-3.334h-.667c-.184 0-.333.15-.333.333s.15.333.333.333h.667c.184 0 .333-.15.333-.333s-.15-.333-.333-.333zm0 1.334h-.667c-.184 0-.333.15-.333.333s.15.333.333.333h.667c.184 0 .333-.15.333-.333s-.15-.333-.333-.333zM88.5 356h-1.333c-.184 0-.333.15-.333.333s.15.333.333.333H88.5c.184 0 .333-.15.333-.333s-.15-.333-.333-.333zm-8.667-8h-.667c-.184 0-.333.15-.333.333s.15.333.333.333h.667c.184 0 .333-.15.333-.333s-.15-.333-.333-.333zm0 1.333h-.667c-.184 0-.333.15-.333.333s.15.333.333.333h.667c.184 0 .333-.15.333-.333s-.15-.333-.333-.333z" id="G" class="B"/><path d="M171.667 351.333c-.37 0-.667.3-.667.667v2h-4.667c-.37 0-.667.3-.667.667a.67.67 0 0 0 .667.667H173c2.573 0 4.667 2.093 4.667 4.667 0 .368.298.667.667.667a.67.67 0 0 0 .667-.667 6.01 6.01 0 0 0-6-6h-.667v-1.333H173c.37 0 .667-.3.667-.667v-4c0-.368-.298-.667-.667-.667h-10.667c-.37 0-.667.3-.667.667v4c0 .368.298.667.667.667H163V354h-.667a6.01 6.01 0 0 0-6 6v6.667a3.34 3.34 0 0 0 3.333 3.333h16a3.34 3.34 0 0 0 3.333-3.333v-4c0-.368-.298-.667-.667-.667h-18.667c-.37 0-.667.3-.667.667a.67.67 0 0 0 .667.667h18v3.333c0 1.103-.897 2-2 2h-16c-1.103 0-2-.897-2-2V360c0-2.573 2.094-4.667 4.667-4.667h1.333c.37 0 .667-.3.667-.667v-2H169c.37 0 .667-.3.667-.667a.67.67 0 0 0-.667-.667h-6v-2.667h9.333v2.667h-.667zm22-6V336a6.01 6.01 0 0 0-6-6 6.01 6.01 0 0 0-6 6v2.667a.67.67 0 0 0 .195.471l.862.862-.862.862c-.125.125-.195.294-.195.47v17.333a.67.67 0 0 0 .195.471l2.667 2.667a.67.67 0 0 0 .943 0c.26-.26.26-.682 0-.943l-2.47-2.47v-6.115l4 4v13.057c0 .368.298.667.667.667a.67.67 0 0 0 .667-.667v-13.057l4-4v6.115l-2.47 2.47a.67.67 0 0 0 0 .943c.13.13.3.195.47.195s.34-.065.47-.195l2.667-2.667a.67.67 0 0 0 .195-.471V348a.67.67 0 0 0-.195-.471l-.862-.862.862-.862a.67.67 0 0 0 .195-.471zM187 354.4l-4-4v-6.115l4 4v6.115zm.667-21.724c-.37 0-.667.3-.667.667V346.4l-4-4v-.78l1.138-1.138a.67.67 0 0 0 0-.943L183 338.4V336c0-2.573 2.094-4.667 4.667-4.667a4.67 4.67 0 0 1 4.654 4.404l-3.987 3.987v-6.4c0-.368-.298-.667-.667-.667zm4.667 12.4l-1.138 1.137a.67.67 0 0 0 0 .943l1.138 1.138v2.115l-4 4v-12.78l4-4v7.448z" id="H" class="B"/><path d="M247.643 80.806c.353.103.723-.1.826-.454 1.975-6.782 8.293-11.52 15.365-11.52 1.132 0 2.257.118 3.353.352-.024.96.4 1.617.657 2.04l.187.3c0 2.4-.5 2.78-.483 2.78-1.08 0-2.854.965-3.52 2.2-.4.763-.376 1.57.093 2.275.32.482.598 1.018.866 1.537.567 1.097 1.195 2.315 2.183 2.315.2 0 .434-.055.678-.177.777-.4 1.335-1.494 1.873-2.562.237-.47.586-1.16.793-1.38.677.092 1.007.704 1.455 1.673.33.713.67 1.45 1.34 1.785 1.127.563 4.83-.027 6.88-.896.306-.13.47-.466.383-.787-1.4-5.173-5.2-9.477-10.168-11.5-.34-.14-.73.023-.87.364s.024.73.365.87a16.11 16.11 0 0 1 9.219 10.051c-2.075.73-4.737.95-5.2.717-.25-.125-.503-.67-.725-1.15-.465-1.007-1.1-2.385-2.727-2.457-.84-.05-1.313.916-1.922 2.123-.357.708-.897 1.778-1.327 2-.247-.058-.74-1-1.032-1.577-.27-.525-.58-1.12-.94-1.664-.197-.295-.205-.575-.027-.907.458-.855 1.832-1.506 2.345-1.506 1.205 0 1.817-1.384 1.817-4.115 0-.388-.2-.704-.4-1-.283-.447-.574-.9-.4-1.7a.67.67 0 0 0-.488-.79c-1.38-.348-2.8-.525-4.25-.525-7.66 0-14.506 5.132-16.645 12.48-.103.353.1.723.454.826zm24.187 4.374l-.526.136c-.92 0-1.505.713-1.93 1.234-.163.2-.457.555-.644.56a2.09 2.09 0 0 0-.941-.227c-.786 0-1.467.467-1.62 1.113-.107.453.05 1.074.814 1.456 1.083.54 2.202 1.1 2.7 1.6.343.343.935.54 1.627.54 1.05 0 2.446-.5 2.925-1.95.2-.567.642-1 1.08-1.42.508-.487 1-.947.995-1.606.005-.4-.168-.76-.512-1.106-.47-.468-1.107-.706-1.897-.706-.76 0-1.517.217-2.07.375zm3.147 1.42c-.03.13-.363.45-.584.66-.503.48-1.13 1.08-1.423 1.96-.33.987-1.44 1.037-1.66 1.037-.4 0-.633-.103-.683-.148-.652-.652-1.815-1.234-3.047-1.85.118-.055.35-.058.554.043a1.46 1.46 0 0 0 .657.163c.738 0 1.204-.57 1.615-1.07.3-.366.6-.745.9-.745.237 0 .512-.08.892-.187.505-.144 1.133-.323 1.705-.323.43 0 .742.103.954.315.093.093.118.145.122.145zM281 82.435a.67.67 0 0 0-.751-.569c-.365.05-.62.387-.57.752a16.47 16.47 0 0 1 .153 2.216c0 8.76-7.073 15.895-15.808 16-2.37-1.514-4.593-3.37-3.603-5.678 1.777-4.15.123-5.695-.583-6.356l-.133-.126c-.202-.2-.43-.34-.63-.46-.488-.293-.62-.37-.357-1.157.173-.522.404-.765.67-1.047.617-.652 1.088-1.3 1.088-3.186 0-1.097-.557-1.973-1.527-2.4-1.1-.487-2.57-.315-3.348.4-.485.44-.65 1.042-.447 1.647.475 1.423-.6 3.48-2.64 5.003-.537.403-.697.218-.793.108-.595-.686-.55-2.637-.06-3.125.327-.327.425-.745.26-1.118-.54-1.225-3.985-1.13-4.668-1.098a.67.67 0 0 0-.631.585 15.76 15.76 0 0 0-.121 2.021c0 7.993 5.413 14.913 13.162 16.827.356.1.72-.13.807-.487s-.13-.72-.487-.807c-7.153-1.768-12.148-8.156-12.148-15.534a14.92 14.92 0 0 1 .051-1.288c1.128-.001 2.086.13 2.575.28-.765 1.194-.68 3.54.254 4.62.67.772 1.642.804 2.6.085 2.56-1.92 3.78-4.47 3.105-6.5-.02-.066-.043-.128.08-.24.35-.32 1.243-.453 1.9-.157.493.218.733.605.733 1.182 0 1.505-.303 1.826-.723 2.27-.3.33-.7.74-.967 1.542-.6 1.8.362 2.378.937 2.723.15.1.3.173.374.258a6.77 6.77 0 0 0 .165.157c.587.548 1.677 1.57.27 4.856-1.597 3.727 2.52 6.326 4.28 7.436a.67.67 0 0 0 .356.103c9.557 0 17.333-7.776 17.333-17.333 0-.8-.055-1.605-.165-2.4zm-6.026 17.378a18.51 18.51 0 0 1-11.141 3.687c-10.293 0-18.667-8.373-18.667-18.667a.67.67 0 0 0-.667-.667.67.67 0 0 0-.667.667c0 10.805 8.613 19.63 19.333 19.983v2.017a.67.67 0 0 0 .667.667.67.67 0 0 0 .667-.667v-2.027a19.8 19.8 0 0 0 11.27-3.925c.295-.22.356-.637.136-.933s-.637-.356-.933-.136zm-10.63-5.303c-.832 0-1.808.957-2.164 1.817-.278.67-.195 1.297.227 1.72.398.398 1 .627 1.62.627s1.223-.23 1.62-.627c.443-.443.55-1.093.304-1.83-.166-.5-.495-1.026-.88-1.4-.2-.2-.45-.295-.73-.295zm.363 2.593c-.296.296-1.065.288-1.353.007-.01-.03-.01-.195.168-.487.23-.38.555-.647.73-.743a2.45 2.45 0 0 1 .437.756c.074.22.08.405.018.467z" id="I" class="B"/><path d="M364.282 200.702c-.625-.16-1.26.224-1.414.848l-1.167 4.667c-.158.626.224 1.26.85 1.415a1.13 1.13 0 0 0 .284.035c.523 0 .998-.354 1.13-.883l1.167-4.667c.156-.625-.224-1.26-.85-1.415zM350 177.333a1.15 1.15 0 0 0 .446-.09l12.833-5.3c.595-.246.877-.93.63-1.524a1.17 1.17 0 0 0-1.525-.632L350 174.904l-32.667-13.517V161a1.17 1.17 0 0 0-1.167-1.167A1.17 1.17 0 0 0 315 161v1.167c0 .473.285.898.72 1.078l33.833 14c.142.06.294.1.446.1zm13.88 11.953c-.285-.578-.982-.816-1.562-.53-2.216 1.096-5.916 2.37-11.15 2.543v-10.466a1.17 1.17 0 0 0-1.167-1.167 1.17 1.17 0 0 0-1.167 1.167v10.456c-14.486-.462-19.16-9.238-19.833-10.698v-7.924a1.17 1.17 0 0 0-1.167-1.167 1.17 1.17 0 0 0-1.167 1.167v8.167a1.18 1.18 0 0 0 .083.434c.203.505 5.168 12.4 23.25 12.4 6.32 0 10.75-1.533 13.35-2.82.578-.286.815-.985.528-1.562zm3.62 12.547c-.645 0-1.167.523-1.167 1.167v3.5c0 .644.52 1.167 1.167 1.167s1.167-.523 1.167-1.167V203c0-.644-.52-1.167-1.167-1.167zm16.334-42c-.645 0-1.167.523-1.167 1.167v.385l-14 5.762v-2.108l15.612-6.46c.436-.18.72-.606.72-1.078a1.17 1.17 0 0 0-.72-1.078l-33.835-14a1.17 1.17 0 0 0-.891 0l-33.833 14c-.436.18-.72.606-.72 1.078s.285.898.72 1.078l33.833 14c.142.06.294.1.446.1a1.15 1.15 0 0 0 .446-.09l12.234-5.062c.596-.245.88-.928.632-1.524a1.17 1.17 0 0 0-1.524-.631L350 170.238 319.218 157.5 350 144.762l30.783 12.738-13.394 5.543-12.83-4.8c.068-.243.1-.492.1-.753 0-1.962-2.05-3.5-4.667-3.5s-4.667 1.538-4.667 3.5 2.05 3.5 4.667 3.5c1.168 0 2.2-.32 3.02-.832l13.314 4.97v28.742c-1.354.484-2.333 1.766-2.333 3.285 0 1.93 1.57 3.5 3.5 3.5s3.5-1.57 3.5-3.5c0-1.52-.98-2.8-2.333-3.285v-6.622c3.35-2.528 4.55-5.895 4.603-6.044a1.18 1.18 0 0 0 .064-.381v-8.167c0-.644-.52-1.167-1.167-1.167s-1.167.523-1.167 1.167v7.95c-.202.495-.903 2.02-2.333 3.524v-14.46l15.6-6.425c.438-.18.722-.607.722-1.08V161c0-.644-.52-1.167-1.167-1.167zM350 158.667c-1.424 0-2.333-.7-2.333-1.167s.9-1.167 2.333-1.167 2.333.7 2.333 1.167-.9 1.167-2.333 1.167zm17.5 39.667a1.17 1.17 0 0 1-1.167-1.167A1.17 1.17 0 0 1 367.5 196a1.17 1.17 0 0 1 1.167 1.167 1.17 1.17 0 0 1-1.167 1.167zm4.632 3.216c-.156-.624-.8-1.006-1.414-.848s-1.006.8-.85 1.415l1.167 4.667c.133.53.608.883 1.13.883a1.13 1.13 0 0 0 .284-.035 1.17 1.17 0 0 0 .85-1.415l-1.167-4.667z" id="J" class="B"/><path id="K" d="M0 0h350v350H0z"/></defs><pattern id="L" width="350" height="350" patternUnits="userSpaceOnUse"><use xlink:href="#A" x="-350" y="-350"/><use xlink:href="#A" y="-350"/><use xlink:href="#A" x="350" y="-350"/><use xlink:href="#A" x="-350"/><use xlink:href="#A"/><use xlink:href="#A" x="350"/><use xlink:href="#A" x="-350" y="350"/><use xlink:href="#A" y="350"/><use xlink:href="#A" x="350" y="350"/></pattern><use xlink:href="#K" fill="url(#L)"/><pattern id="M" width="350" height="350" patternUnits="userSpaceOnUse"><use xlink:href="#B" x="-350" y="-350"/><use xlink:href="#B" y="-350"/><use xlink:href="#B" x="350" y="-350"/><use xlink:href="#B" x="-350"/><use xlink:href="#B"/><use xlink:href="#B" x="350"/><use xlink:href="#B" x="-350" y="350"/><use xlink:href="#B" y="350"/><use xlink:href="#B" x="350" y="350"/></pattern><use xlink:href="#K" fill="url(#M)"/><pattern id="N" width="350" height="350" patternUnits="userSpaceOnUse"><use xlink:href="#C" x="-350" y="-350"/><use xlink:href="#C" y="-350"/><use xlink:href="#C" x="350" y="-350"/><use xlink:href="#C" x="-350"/><use xlink:href="#C"/><use xlink:href="#C" x="350"/><use xlink:href="#C" x="-350" y="350"/><use xlink:href="#C" y="350"/><use xlink:href="#C" x="350" y="350"/></pattern><use xlink:href="#K" fill="url(#N)"/><pattern id="O" width="350" height="350" patternUnits="userSpaceOnUse"><use xlink:href="#D" x="-350" y="-350"/><use xlink:href="#D" y="-350"/><use xlink:href="#D" x="350" y="-350"/><use xlink:href="#D" x="-350"/><use xlink:href="#D"/><use xlink:href="#D" x="350"/><use xlink:href="#D" x="-350" y="350"/><use xlink:href="#D" y="350"/><use xlink:href="#D" x="350" y="350"/></pattern><use xlink:href="#K" fill="url(#O)"/><pattern id="P" width="350" height="350" patternUnits="userSpaceOnUse"><use xlink:href="#E" x="-350" y="-350"/><use xlink:href="#E" y="-350"/><use xlink:href="#E" x="350" y="-350"/><use xlink:href="#E" x="-350"/><use xlink:href="#E"/><use xlink:href="#E" x="350"/><use xlink:href="#E" x="-350" y="350"/><use xlink:href="#E" y="350"/><use xlink:href="#E" x="350" y="350"/></pattern><use xlink:href="#K" fill="url(#P)"/><pattern id="Q" width="350" height="350" patternUnits="userSpaceOnUse"><use xlink:href="#F" x="-350" y="-350"/><use xlink:href="#F" y="-350"/><use xlink:href="#F" x="350" y="-350"/><use xlink:href="#F" x="-350"/><use xlink:href="#F"/><use xlink:href="#F" x="350"/><use xlink:href="#F" x="-350" y="350"/><use xlink:href="#F" y="350"/><use xlink:href="#F" x="350" y="350"/></pattern><use xlink:href="#K" fill="url(#Q)"/><pattern id="R" width="350" height="350" patternUnits="userSpaceOnUse"><use xlink:href="#G" x="-350" y="-350"/><use xlink:href="#G" y="-350"/><use xlink:href="#G" x="350" y="-350"/><use xlink:href="#G" x="-350"/><use xlink:href="#G"/><use xlink:href="#G" x="350"/><use xlink:href="#G" x="-350" y="350"/><use xlink:href="#G" y="350"/><use xlink:href="#G" x="350" y="350"/></pattern><use xlink:href="#K" fill="url(#R)"/><pattern id="S" width="350" height="350" patternUnits="userSpaceOnUse"><use xlink:href="#H" x="-350" y="-350"/><use xlink:href="#H" y="-350"/><use xlink:href="#H" x="350" y="-350"/><use xlink:href="#H" x="-350"/><use xlink:href="#H"/><use xlink:href="#H" x="350"/><use xlink:href="#H" x="-350" y="350"/><use xlink:href="#H" y="350"/><use xlink:href="#H" x="350" y="350"/></pattern><use xlink:href="#K" fill="url(#S)"/><pattern id="T" width="350" height="350" patternUnits="userSpaceOnUse"><use xlink:href="#I" x="-350" y="-350"/><use xlink:href="#I" y="-350"/><use xlink:href="#I" x="350" y="-350"/><use xlink:href="#I" x="-350"/><use xlink:href="#I"/><use xlink:href="#I" x="350"/><use xlink:href="#I" x="-350" y="350"/><use xlink:href="#I" y="350"/><use xlink:href="#I" x="350" y="350"/></pattern><use xlink:href="#K" fill="url(#T)"/><pattern id="U" width="350" height="350" patternUnits="userSpaceOnUse"><use xlink:href="#J" x="-350" y="-350"/><use xlink:href="#J" y="-350"/><use xlink:href="#J" x="350" y="-350"/><use xlink:href="#J" x="-350"/><use xlink:href="#J"/><use xlink:href="#J" x="350"/><use xlink:href="#J" x="-350" y="350"/><use xlink:href="#J" y="350"/><use xlink:href="#J" x="350" y="350"/></pattern><use xlink:href="#K" fill="url(#U)"/></svg>