<svg xmlns="http://www.w3.org/2000/svg" xmlns:xlink="http://www.w3.org/1999/xlink" width="400" height="400" viewBox="0 0 350 350"><use xlink:href="#I" opacity="0" fill="#fff"/><defs><g id="A" fill="#ec4a81"><path d="M395.985 346.814l-3.092-5.355a4.78 4.78 0 0 0-6.572-1.761l-3.377 1.95-.382-.662a1.76 1.76 0 0 0-2.402-.644 1.76 1.76 0 0 0-.643 2.401l.383.663-1.42.82-.17.103-4.6 2.65a29.66 29.66 0 0 0-5.925-5.477l3.74-13.96a5.28 5.28 0 0 0 6.116-3.807 5.28 5.28 0 0 0-3.393-6.355l.997-3.72a3.2 3.2 0 0 0-2.258-3.911l-13.526-3.624a3.2 3.2 0 0 0-3.911 2.258l-.997 3.72a5.28 5.28 0 0 0-6.116 3.807 5.28 5.28 0 0 0 3.393 6.355l-3.74 13.96c-6.66.573-12.912 3.357-17.82 7.937l-5.846-1.566a1.76 1.76 0 0 0-2.153 1.243l-.585 2.182a19.76 19.76 0 0 0-2.887.381l-1.13-1.958a1.76 1.76 0 0 0-2.401-.643l-7.737 4.467a1.76 1.76 0 0 0-.644 2.402l1.13 1.958a19.76 19.76 0 0 0-1.774 2.31l-2.182-.585a1.76 1.76 0 0 0-2.153 1.243l-2.312 8.63a1.76 1.76 0 0 0 1.243 2.153l2.182.585a19.73 19.73 0 0 0 .381 2.888l-1.958 1.13a1.76 1.76 0 0 0-.644 2.402l4.467 7.737c.233.404.617.698 1.067.818a1.76 1.76 0 0 0 1.334-.175l1.96-1.13a19.55 19.55 0 0 0 2.31 1.774l-.585 2.183a1.76 1.76 0 0 0 1.243 2.153l8.63 2.312a1.76 1.76 0 0 0 2.153-1.243l.585-2.183a19.79 19.79 0 0 0 2.887-.38l1.13 1.958a1.76 1.76 0 0 0 1.068.819c.424.114.875.062 1.264-.14a29.86 29.86 0 0 0 12.62 6.984c5.155 1.38 10.585 1.36 15.7-.06a1.76 1.76 0 0 0 1.223-2.164 1.76 1.76 0 0 0-2.164-1.224 26.33 26.33 0 0 1-13.85.05c-3.82-1.024-7.348-2.9-10.323-5.436l4.6-2.655a1.76 1.76 0 0 0 .644-2.402l-1.13-1.958a19.76 19.76 0 0 0 1.775-2.31l2.182.585a1.76 1.76 0 0 0 2.153-1.243l2.312-8.63a1.76 1.76 0 0 0-1.243-2.153l-2.182-.585a19.65 19.65 0 0 0-.382-2.888l1.958-1.13a1.76 1.76 0 0 0 .644-2.402l-.255-.44 32.442 8.693a26.35 26.35 0 0 1-.9 6.309 26.34 26.34 0 0 1-6.99 11.99 1.76 1.76 0 0 0-.026 2.486c.228.233.505.388.8.467.58.156 1.227.01 1.687-.442 3.8-3.725 6.542-8.425 7.926-13.593a29.59 29.59 0 0 0 .68-12.259l7.15-4.128c.036-.02.07-.044.103-.067l.327-.2.388.672a1.76 1.76 0 0 0 1.068.82 1.75 1.75 0 0 0 1.334-.176 1.76 1.76 0 0 0 .643-2.401l-.388-.672 3.377-1.95a4.82 4.82 0 0 0 1.761-6.571zm-11.36 8.054a1.3 1.3 0 0 1-1.77-.474l-3.092-5.355c-.173-.3-.22-.65-.13-.983.08-.302.265-.558.52-.733l1.07-.618c.028-.016.053-.034.08-.052l.352-.203 4.387 7.598zm-29.392-31.682l12.904 3.458-1.012 3.778a1.89 1.89 0 0 1-2.314 1.336l-9.254-2.48c-1.006-.27-1.606-1.308-1.336-2.314zm3.64-13.583l12.904 3.458-.82 3.056-12.904-3.458zm-7.03 7.216a1.76 1.76 0 0 1 2.153-1.243l19.016 5.095a1.76 1.76 0 0 1 1.243 2.153 1.76 1.76 0 0 1-2.153 1.243l-19.016-5.095a1.76 1.76 0 0 1-1.243-2.153zm-9.632 51.393l-1.402 5.234-1.756-.47c-.777-.208-1.596.137-1.988.838-.76 1.356-1.713 2.596-2.832 3.686a1.76 1.76 0 0 0-.296 2.138l.9 1.577-4.693 2.7-.9-1.577a1.76 1.76 0 0 0-2-.813 16.21 16.21 0 0 1-4.608.609 1.76 1.76 0 0 0-1.72 1.303l-.47 1.757-5.234-1.402.47-1.757a1.76 1.76 0 0 0-.839-1.988 16.21 16.21 0 0 1-3.686-2.831 1.76 1.76 0 0 0-2.138-.296l-1.577.9-2.7-4.693 1.577-.9a1.76 1.76 0 0 0 .813-1.999 16.27 16.27 0 0 1-.61-4.608 1.76 1.76 0 0 0-1.302-1.72l-1.757-.47 1.402-5.234 1.757.47a1.76 1.76 0 0 0 1.988-.838c.76-1.357 1.713-2.597 2.83-3.687a1.76 1.76 0 0 0 .296-2.138l-.9-1.577 4.692-2.7.9 1.577a1.76 1.76 0 0 0 2 .812 16.21 16.21 0 0 1 4.61-.608 1.76 1.76 0 0 0 1.72-1.303l.47-1.757 5.234 1.402-.47 1.757a1.76 1.76 0 0 0 .839 1.988 16.22 16.22 0 0 1 3.686 2.831 1.76 1.76 0 0 0 2.138.296l1.577-.9 2.7 4.693-1.577.9a1.76 1.76 0 0 0-.813 1.999 16.23 16.23 0 0 1 .609 4.609 1.76 1.76 0 0 0 1.302 1.72zm-.095-14.692l-1.726-3a1.76 1.76 0 0 0-2.402-.644l-1.958 1.13a19.76 19.76 0 0 0-2.31-1.774l.585-2.183a1.76 1.76 0 0 0-.286-1.5c4.398-3.585 9.82-5.663 15.526-5.906a1.76 1.76 0 0 0 1.623-1.301l1.74-6.498a5.39 5.39 0 0 0 1.737.82l9.254 2.48a5.39 5.39 0 0 0 1.914.16l-1.74 6.498a1.76 1.76 0 0 0 .755 1.938 26.21 26.21 0 0 1 7.034 6.562 1.76 1.76 0 0 0 2.292.478l2.07-1.196a4.85 4.85 0 0 0 .493 1.205l3.092 5.355a4.8 4.8 0 0 0 .807 1.037l-3.222 1.86a1.76 1.76 0 0 0-.845 1.863 26.21 26.21 0 0 1 .304 1.916zm50.35-3.178l-3.377 1.95-4.387-7.598 3.377-1.95c.3-.173.65-.22.983-.13a1.29 1.29 0 0 1 .786.603l3.092 5.355c.357.62.145 1.412-.474 1.77zm-39.18 28.758a5.28 5.28 0 0 0 3.729 6.459 5.28 5.28 0 0 0 6.459-3.729 5.28 5.28 0 0 0-3.729-6.459 5.28 5.28 0 0 0-6.459 3.729zm6.792 1.82a1.76 1.76 0 0 1-2.153 1.243 1.76 1.76 0 0 1-1.243-2.153 1.76 1.76 0 0 1 2.153-1.243 1.76 1.76 0 0 1 1.243 2.153zm-14.476-35.324a1.77 1.77 0 0 0-1.977 2.577 1.77 1.77 0 0 0 1.067.82c.447.12.933.056 1.333-.176s.7-.62.82-1.067a1.76 1.76 0 0 0-.177-1.333 1.77 1.77 0 0 0-1.066-.82zm13.44-7.94a1.77 1.77 0 0 0-1.977 2.576 1.77 1.77 0 0 0 2.401.643 1.77 1.77 0 0 0 .643-2.4 1.77 1.77 0 0 0-1.067-.82zm0 0"/><path d="M366.12 351.58a1.77 1.77 0 0 0-1.334.176c-.402.23-.7.62-.82 1.067a1.76 1.76 0 0 0 .176 1.334 1.77 1.77 0 0 0 2.401.643 1.77 1.77 0 0 0 .643-2.401 1.77 1.77 0 0 0-1.067-.819zm-15.967 14.453a1.77 1.77 0 0 0-.643 2.401 1.77 1.77 0 0 0 2.401.643 1.77 1.77 0 0 0 .643-2.401 1.77 1.77 0 0 0-2.401-.643zm-24.5-10.737c-5.804-1.555-11.792 1.902-13.348 7.706s1.902 11.792 7.706 13.348 11.792-1.902 13.348-7.706-1.902-11.792-7.706-13.348zm-4.73 17.658a7.39 7.39 0 0 1-5.22-9.042 7.38 7.38 0 1 1 14.262 3.822 7.38 7.38 0 0 1-9.042 5.22zm44.26 15.7a1.77 1.77 0 0 0-1.977 2.577c.23.402.62.7 1.067.82a1.76 1.76 0 0 0 1.334-.176c.4-.233.7-.62.82-1.067a1.77 1.77 0 0 0-1.243-2.153zm0 0"/></g><g id="B" fill="#ec4a81"><path d="M268 97.174c.57-.366.948-1.005.948-1.73v-1.198c0-.437-.138-.843-.37-1.176.445-1.28.67-2.622.67-3.994a12.07 12.07 0 0 0-2.41-7.272 12.3 12.3 0 0 0-5.566-4.159V71.9a2.21 2.21 0 0 0 1.994-2.195 2.21 2.21 0 0 0-2.206-2.206h-7.976a2.21 2.21 0 0 0-2.205 2.206 2.21 2.21 0 0 0 1.994 2.195v5.744a12.3 12.3 0 0 0-5.566 4.159 12.07 12.07 0 0 0-2.41 7.272 12.13 12.13 0 0 0 .671 3.994 2.05 2.05 0 0 0-.37 1.176v1.198c0 .726.378 1.365.948 1.73l-3.594 9.262a.78.78 0 0 0 .728 1.064h3.793a.78.78 0 0 0 .728-.499l2.925-7.537a12.13 12.13 0 0 0 3.918 1.541c-.76 1.055-1.05 1.896-1.05 3.014 0 1.92 1.56 3.48 3.48 3.48s3.48-1.56 3.48-3.48c0-1.282-.728-2.202-1.418-2.946 1.518-.26 2.97-.802 4.286-1.608l2.924 7.536a.78.78 0 0 0 .728.499h3.793a.78.78 0 0 0 .728-1.064zm-17.047-1.236h-3.698c-.273 0-.495-.222-.495-.495v-1.198c0-.273.222-.495.495-.495h6.703a.781.781 0 1 0 0-1.562h-6.703c-.1 0-.218.01-.323.026a10.59 10.59 0 0 1-.472-3.138 10.78 10.78 0 0 1 .107-1.5 8.5 8.5 0 0 0 4.968 1.595 8.49 8.49 0 0 0 6.023-2.491 6.91 6.91 0 0 1 9.836 0c.01.01.018.016.027.024.173.765.266 1.56.266 2.37a10.58 10.58 0 0 1-.472 3.138 2.09 2.09 0 0 0-.323-.025h-6.683a.782.782 0 1 0 0 1.563h6.683c.273 0 .495.222.495.495v1.198c0 .273-.222.495-.495.495zm1.5-26.232c0-.355.288-.643.643-.643h7.976c.355 0 .643.288.643.643s-.288.643-.643.643h-7.976c-.354 0-.643-.288-.643-.643zm1.447 9.243a.78.78 0 0 0 .547-.745V71.9h5.274v6.292a.78.78 0 0 0 .547.745c2.723.855 4.897 2.716 6.174 5.102-1.206-.634-2.555-.97-3.956-.97a8.46 8.46 0 0 0-6.023 2.495 6.91 6.91 0 0 1-4.918 2.037 6.9 6.9 0 0 1-4.588-1.73 10.56 10.56 0 0 1 6.942-6.934zm-7.35 27h-2.117l3.274-8.437h2.117l-.14.36a.78.78 0 0 0-.099.256zm11.264-.145v-1.08a.781.781 0 1 0-1.562 0v1.033a1.92 1.92 0 0 1-1.083-1.727c0-1.016.318-1.696 1.663-3.216l.078.107c.246.334.537.64.825.942.652.685 1.268 1.332 1.268 2.166a1.92 1.92 0 0 1-1.187 1.773zm.147-6.142c-.055-.115-.1-.228-.097-.337a.78.78 0 0 0-1.35-.479l-.7.776a10.57 10.57 0 0 1-4.49-1.63l.186-.48h11.17l.187.48a10.54 10.54 0 0 1-4.895 1.67zm9.66 6.287l-3.274-8.437h2.117l3.274 8.438zm-14.73-21.8a.79.79 0 0 0 .552-.229c.146-.145.23-.347.23-.552a.78.78 0 0 0-.23-.552.79.79 0 0 0-.552-.229.79.79 0 0 0-.781.781.79.79 0 0 0 .781.781zm0 0"/><path d="M257.084 77.1a.79.79 0 0 0 .781-.781.79.79 0 0 0-.781-.781.78.78 0 0 0-.552.23.79.79 0 0 0-.229.552.79.79 0 0 0 .229.552c.145.145.346.23.552.23zm5.402 13.626c1.292 0 2.344-1.05 2.344-2.344s-1.05-2.344-2.344-2.344-2.344 1.052-2.344 2.344 1.05 2.344 2.344 2.344zm0-3.125a.78.78 0 0 1 .78.78.781.781 0 1 1-1.562 0 .78.78 0 0 1 .78-.78zm-5.412 4.577c-.206 0-.407.084-.552.23a.79.79 0 0 0-.229.552.78.78 0 0 0 .23.552c.147.145.347.23.552.23s.407-.084.552-.23a.79.79 0 0 0 .23-.552c0-.205-.084-.407-.23-.552a.79.79 0 0 0-.552-.23zm0 0"/></g><g id="C" fill="#ec4a81"><path d="M249.756 302.53c-4.816 3.777-5.66 10.768-1.884 15.584s10.768 5.66 15.584 1.884 5.66-10.768 1.884-15.584-10.768-5.66-15.584-1.884zm11.5 14.65a7.53 7.53 0 0 1-10.557-1.276 7.53 7.53 0 0 1 1.276-10.557 7.53 7.53 0 0 1 10.557 1.276 7.53 7.53 0 0 1-1.276 10.557zm-37.774-50.47a12.46 12.46 0 0 0 4.36-6.596l18.554 2.243c-.035 3.532 1.082 7.098 3.426 10.087a16.03 16.03 0 0 0 8.98 5.73l-1.137 9.407a1.79 1.79 0 1 0 3.555.429l1.137-9.407c3.532.035 7.098-1.082 10.087-3.426 3.887-3.048 6-7.538 6.15-12.126l16.324-1.26a10.32 10.32 0 0 0 1.886 3.835 10.4 10.4 0 0 0 14.579 1.762 10.4 10.4 0 0 0 1.762-14.579 10.4 10.4 0 0 0-14.579-1.762c-2.323 1.822-3.655 4.444-3.92 7.172l-16.324 1.26a16.01 16.01 0 0 0-3.146-6.926c-2.344-3-5.542-4.923-8.98-5.73l1.437-11.884a9.62 9.62 0 0 0 5.328-2.035 9.68 9.68 0 0 0 1.641-13.573 9.68 9.68 0 0 0-13.573-1.641 9.68 9.68 0 0 0-1.641 13.573 9.59 9.59 0 0 0 4.7 3.246l-1.436 11.884c-3.532-.035-7.098 1.082-10.087 3.426a16.03 16.03 0 0 0-5.73 8.98l-18.554-2.243a12.46 12.46 0 0 0-2.662-7.445 12.55 12.55 0 0 0-17.595-2.127 12.55 12.55 0 0 0-2.127 17.595 12.55 12.55 0 0 0 17.595 2.127zm77.296-12.844a6.81 6.81 0 0 1 9.55 1.155 6.81 6.81 0 0 1-1.155 9.55 6.81 6.81 0 0 1-9.55-1.155 6.81 6.81 0 0 1 1.155-9.55zM263.24 220.5c2.64-2.07 6.475-1.608 8.546 1.033s1.608 6.475-1.033 8.546-6.475 1.608-8.546-1.033-1.608-6.475 1.033-8.546zm9.12 34.256a12.55 12.55 0 0 1-2.127 17.595 12.55 12.55 0 0 1-17.595-2.127 12.55 12.55 0 0 1 2.127-17.595 12.55 12.55 0 0 1 17.595 2.127zm-62.137-4.96c3.884-3.046 9.522-2.365 12.568 1.52s2.365 9.522-1.52 12.568-9.522 2.365-12.568-1.52-2.365-9.522 1.52-12.568zm0 0"/><path d="M257.45 293.493c-.37.29-.617.725-.672 1.194s.077.948.368 1.32.727.616 1.194.672.95-.078 1.32-.368.616-.727.672-1.194-.078-.95-.368-1.32-.726-.615-1.194-.672a1.8 1.8 0 0 0-1.32.368zm0 0"/></g><g id="D" fill="#ec4a81"><path d="M88.13 74.455a5.44 5.44 0 0 0 1.956 7.431 5.44 5.44 0 0 0 7.431-1.956 5.44 5.44 0 0 0-1.956-7.431 5.44 5.44 0 0 0-7.431 1.956zm7.873 4.593c-1.023 1.753-3.28 2.348-5.034 1.325s-2.348-3.28-1.325-5.034 3.28-2.348 5.034-1.325 2.348 3.28 1.325 5.034zm.542 17.16c-1.155-.674-2.394-1.08-3.644-1.236l.303-6.75c2.387-.083 4.74-.93 6.656-2.514.373-.308.426-.86.117-1.234s-.86-.426-1.234-.117a9.33 9.33 0 0 1-10.602.862 9.3 9.3 0 0 1-3.343-12.705 9.3 9.3 0 0 1 12.705-3.343 9.33 9.33 0 0 1 4.468 9.652.88.88 0 0 0 .7 1.016.88.88 0 0 0 1.016-.7c.807-4.54-1.327-9.15-5.3-11.473a11.06 11.06 0 0 0-15.103 3.974c-1.978 3.4-1.94 7.4-.253 10.663l-5.72 3.573c-.752-1-1.715-1.9-2.87-2.563-4.592-2.678-10.506-1.122-13.185 3.47s-1.122 10.506 3.47 13.185 10.506 1.122 13.185-3.47c1.7-2.897 1.694-6.32.313-9.125l5.737-3.593a10.98 10.98 0 0 0 3.3 2.953c1.312.765 2.74 1.232 4.195 1.4l-.304 6.77c-3.12.18-6.1 1.867-7.8 4.764-2.678 4.592-1.122 10.506 3.47 13.185s10.506 1.122 13.185-3.47 1.122-10.506-3.47-13.185zm-20.15-.593a7.9 7.9 0 0 1-10.788 2.839 7.9 7.9 0 0 1-2.839-10.788 7.9 7.9 0 0 1 10.788-2.839 7.9 7.9 0 0 1 2.839 10.788zm11.317 15.733a7.9 7.9 0 0 1-2.839-10.788 7.9 7.9 0 0 1 10.788-2.839 7.9 7.9 0 0 1 2.839 10.788 7.9 7.9 0 0 1-10.788 2.839zm0 0"/><path d="M68.36 89.9l1.6-2.725a.88.88 0 0 0-.315-1.2c-.418-.245-.955-.103-1.2.315l-4.063 6.965a.88.88 0 0 0 .315 1.2c.418.245.955.103 1.2-.315l1.6-2.725 3.33 1.943-1.6 2.725a.88.88 0 0 0 .315 1.2c.418.245.955.103 1.2-.315l4.063-6.965a.88.88 0 0 0-.315-1.2c-.418-.245-.955-.103-1.2.315l-1.6 2.725zm28.223 11.798a.88.88 0 0 0-1.2.315l-1.6 2.725-3.33-1.943 1.6-2.725a.88.88 0 0 0-.315-1.2c-.418-.245-.955-.103-1.2.315l-4.063 6.965a.88.88 0 0 0 .315 1.2c.418.245.955.103 1.2-.315l1.6-2.725 3.33 1.943-1.6 2.725a.88.88 0 0 0 .315 1.2c.418.245.955.103 1.2-.315l4.063-6.965a.88.88 0 0 0-.315-1.2zm4.8-20.24a.89.89 0 0 0-.534.406.93.93 0 0 0-.1.665c.05.223.207.418.406.534a.93.93 0 0 0 .665.1c.223-.05.418-.207.534-.406a.93.93 0 0 0 .1-.665c-.05-.223-.207-.418-.406-.534a.93.93 0 0 0-.665-.1zm0 0"/></g><path d="M214.566 185.173c-1.568-3.364-4.44-7.2-8.303-11.068-.022-.022-.046-.042-.07-.062a31.65 31.65 0 0 0-.99-5.83 31.05 31.05 0 0 0-14.566-18.982c-7.232-4.175-15.656-5.284-23.722-3.123-1.923.515-3.774 1.206-5.537 2.057-11.448-3.067-19.567-2.114-22.312 2.638-1.562 2.706-1.205 6.345 1.022 10.56-1.892 2.113-2.72 5.107-1.93 8.045.777 2.9 2.945 5.065 5.595 5.97a31.24 31.24 0 0 0 1.058 9.018 31.08 31.08 0 0 0 9.883 15.675c.356.304.822.393 1.242.28a1.36 1.36 0 0 0 .685-.433c.5-.574.422-1.437-.153-1.927-3.3-2.825-5.896-6.328-7.613-10.28 5.068-1.278 8.735-1.485 14.3 3.568 3.583 3.247 7.882 4.586 12.434 3.873a17.09 17.09 0 0 0 1.779-.378c1.406-.377 2.695-.908 3.84-1.493 4.413 1.882 8.713 3.354 12.73 4.348a28.35 28.35 0 0 1-11.558 6.23 28.36 28.36 0 0 1-16.882-.653 1.37 1.37 0 0 0-1.746.833 1.37 1.37 0 0 0 .833 1.745c5.968 2.114 12.366 2.36 18.503.716 5.425-1.454 10.25-4.27 14.1-8.16l.293.056c4.902.898 8.985.914 12.065.1 2.572-.7 4.444-1.966 5.507-3.806 1.424-2.466 1.253-5.753-.495-9.505zM202.9 182.27c-6.122-.276-14.826 2.4-18.98 5.932-.47.4-1.483 1.2-2.87 2.026a114.56 114.56 0 0 1-10.879-5.546c-5.25-3.03-10.162-6.404-14.43-9.893l7.263-1.946c5.54-1.484 7.794-4.6 9.976-7.613 2.1-2.888 4.066-5.616 9.163-6.982l11.855-3.176c.013-.003.025-.008.038-.012a28.3 28.3 0 0 1 3.988 4.386l-14.496 3.884c-4.78 1.28-7.214 4.32-8.415 6.644-1.3 2.5-1.456 4.72-1.462 4.812a1.37 1.37 0 0 0 .4 1.063c.228.227 5.678 5.553 12.226 3.798l12.476-3.343c1.858-.498 3.463-.598 4.786-.302.022 2.128-.196 4.228-.636 6.266zm-.337-13.35a28.63 28.63 0 0 1 .805 4.28c-1.58-.215-3.36-.06-5.325.465l-12.476 3.343c-4.053 1.086-7.793-1.58-9.1-2.664.328-1.77 1.775-6.766 7.766-8.37l15.32-4.105c.017-.005.033-.01.05-.016a28.47 28.47 0 0 1 2.959 7.069zm-11.2-15.973l-9.93 2.66c-6.035 1.617-8.498 5.018-10.67 8.02-2.076 2.866-3.868 5.342-8.47 6.575l-9.005 2.413a8.67 8.67 0 0 0 1.638-7.7 8.64 8.64 0 0 0-3.38-4.84 28.43 28.43 0 0 1 16.077-11.326c8.46-2.267 17.066-.465 23.738 4.2zm-49.926-.777c1.823-3.16 8.005-3.88 16.465-2.04a31.16 31.16 0 0 0-8.836 8.729c-1.5-.46-3.145-.52-4.77-.084-.727.195-1.407.477-2.033.832-1.186-2.385-2.06-5.3-.826-7.44zm3.567 9.248a5.95 5.95 0 0 1 7.28 4.203c.847 3.166-1.037 6.433-4.204 7.282a5.95 5.95 0 0 1-7.28-4.204c-.847-3.166 1.038-6.432 4.204-7.28zm19.998 27.834c-6.637-6.014-11.527-5.55-17.12-4.116a29.04 29.04 0 0 1-.431-1.45 28.54 28.54 0 0 1-.974-7.848 8.67 8.67 0 0 0 2.311-.294c.868-.232 1.67-.6 2.4-1.047 4.984 4.434 11.052 8.758 17.623 12.552a119.33 119.33 0 0 0 9.003 4.703c-3.642 1.292-8.352 1.534-12.805-2.5zm19.105 2.268c.63-.45 1.163-.876 1.587-1.237 3.455-2.946 11.117-5.336 16.478-5.296a28.76 28.76 0 0 1-5.943 10.366c-3.8-.825-7.886-2.125-12.122-3.833zm28.587 1.8c-1.587 2.748-6.417 3.684-13.35 2.623 1.004-1.25 1.92-2.585 2.738-4 2.492-4.317 3.9-9.06 4.154-13.896 2.678 2.943 4.68 5.776 5.852 8.3.945 2.028 1.817 4.885.606 6.983zm-52.987 7.56a1.38 1.38 0 0 0-.967 1.674 1.37 1.37 0 0 0 2.504.33 1.38 1.38 0 0 0-1.537-2.004zm0 0" id="E" fill="#ec4a81"/><path d="M111.703 275.83v-14.17c0-.55-.446-.996-.996-.996s-.996.446-.996.996v14.148h-1.993v-33.28c0-.55-.446-.996-.996-.996H99.94v-1.993h6.783c1.648 0 3 1.34 3 3v11.16c0 .55.446.996.996.996s.996-.446.996-.996v-11.16a4.99 4.99 0 0 0-4.982-4.982H69.855a4.99 4.99 0 0 0-4.982 4.982v14.874a4.76 4.76 0 0 0-2.018 2.325c-.912 2.233-.008 4.763 2.018 5.945v10.154c-.455.092-.797.494-.797.976 0 .55.446.996.996.996h5.58c.55 0 .996-.446.996-.996 0-.482-.342-.884-.797-.976v-11.083a4.8 4.8 0 0 0 .873-1.396c.715-1.753.313-3.688-.873-5v-2.727l5.218-12.085h6.7v16.187a4.8 4.8 0 0 0-3.793 4.685 4.81 4.81 0 0 0 4.8 4.8c1.543 0 2.917-.734 3.793-1.87.877 1.136 2.25 1.87 3.794 1.87a4.78 4.78 0 0 0 3.793-1.87 4.78 4.78 0 0 0 3.794 1.87 4.81 4.81 0 0 0 4.8-4.8 4.8 4.8 0 0 0-3.793-4.685v-16.187h5.786v32.302c-.455.092-.797.494-.797.976 0 .55.446.996.996.996h5.58c.55 0 .996-.446.996-.996 0-.482-.342-.884-.797-.976zm-13.757-34.295H92.35v-1.993h5.594zm-7.587 0h-5.594v-1.993h5.594zm-20.503-1.993h5.765l-.86 1.993h-4.905c-.55 0-.996.446-.996.996v12.67l-.703 1.628c-.426-.08-.86-.1-1.3-.06v-14.24c0-1.648 1.34-3 3-3zm-5.155 20.94c.277-.677.796-1.2 1.465-1.503a1.04 1.04 0 0 0 .146-.06 2.78 2.78 0 0 1 3.568 3.676 2.78 2.78 0 0 1-.697 1.004 2.81 2.81 0 0 1-.809.518c-.664.28-1.394.292-2.066.04a.91.91 0 0 0-.14-.057 2.8 2.8 0 0 1-1.467-3.618zm2.166 15.326v-9.496l.424.02c.53 0 1.06-.1 1.57-.268v9.745zm3.986-25.223v-7.06H73.9zm6.08-9.05l.86-1.993h4.98v1.993zm13.428 1.992v16.187c-1.13.24-2.115.88-2.797 1.765a4.79 4.79 0 0 0-2.797-1.765v-16.187zm-6.6 23.67a2.8 2.8 0 0 1-2.797-2.797 2.8 2.8 0 0 1 2.797-2.797 2.8 2.8 0 0 1 2.797 2.797 2.8 2.8 0 0 1-2.797 2.797zm7.587 0a2.8 2.8 0 0 1-2.797-2.797 2.8 2.8 0 0 1 2.797-2.797 2.8 2.8 0 0 1 2.797 2.797 2.8 2.8 0 0 1-2.797 2.797zm10.384-2.797a2.8 2.8 0 0 1-2.797 2.797 2.8 2.8 0 0 1-2.797-2.797 2.8 2.8 0 0 1 2.797-2.797 2.8 2.8 0 0 1 2.797 2.797zm-3.793-4.685a4.8 4.8 0 0 0-2.797 1.765 4.79 4.79 0 0 0-2.797-1.765v-16.187h5.594zm12.758-3.035a1 1 0 0 0-.705.292 1.01 1.01 0 0 0-.292.705 1 1 0 0 0 .292.704c.186.184.443.292.705.292a1 1 0 0 0 .704-.292 1.01 1.01 0 0 0 .292-.704 1 1 0 0 0-.292-.705c-.186-.185-.443-.292-.704-.292zm0 0" id="F" fill="#ec4a81"/><g id="G" fill="#ec4a81"><path d="M163.008 365.468a4.54 4.54 0 0 0 4.531-4.531 4.54 4.54 0 0 0-4.531-4.531 4.54 4.54 0 0 0-4.531 4.531 4.54 4.54 0 0 0 4.531 4.531zm0-7.5c1.637 0 2.97 1.332 2.97 2.97s-1.332 2.97-2.97 2.97a2.97 2.97 0 0 1 0-5.94zm-4.53-6.874a.78.78 0 0 0 .781.781h7.5a.78.78 0 0 0 .781-.781v-10.78a.78.78 0 0 0-.781-.781h-7.5a.78.78 0 0 0-.781.781zm1.563-10h5.937v9.22h-5.937zm0 0"/><path d="M159.258 337.344h7.5a.781.781 0 1 0 0-1.562h-7.5a.782.782 0 1 0 0 1.563zm31.995 27.944l-5.88-33.35c-.225-1.273-1.442-2.125-2.715-1.9l-11.123 1.96c-.4.07-.75.232-1.052.473a2.34 2.34 0 0 0-1.85-.907h-11.25a2.35 2.35 0 0 0-2.344 2.344v13.75a.782.782 0 1 0 1.563 0v-13.75a.78.78 0 0 1 .781-.781h11.25a.78.78 0 0 1 .781.781v33.75a.78.78 0 0 1-.781.781h-11.25a.78.78 0 0 1-.781-.781v-13.75a.781.781 0 1 0-1.562 0v13.75c0 1.292 1.05 2.344 2.344 2.344h11.25c1.292 0 2.344-1.05 2.344-2.344V342.33l4.537 25.733a2.35 2.35 0 0 0 2.307 1.937 2.37 2.37 0 0 0 .408-.036l11.123-1.96c.617-.1 1.154-.45 1.513-.964a2.33 2.33 0 0 0 .388-1.751zm-2.172 1.176l-11.123 1.96c-.206.036-.413-.01-.584-.13s-.285-.3-.32-.504l-5.88-33.35a.78.78 0 0 1 .634-.905l11.123-1.96a.8.8 0 0 1 .137-.012c.16 0 .314.05.446.142.17.12.285.3.32.504l5.88 33.35a.78.78 0 0 1-.634.905zm0 0"/><path d="M181.425 355.572c-2.46.434-4.1 2.788-3.675 5.248a4.54 4.54 0 0 0 5.25 3.674c2.46-.434 4.1-2.788 3.675-5.248s-2.788-4.1-5.248-3.675zm1.302 7.385a2.97 2.97 0 0 1-3.438-2.408 2.97 2.97 0 0 1 2.408-3.438 2.99 2.99 0 0 1 .522-.046c.604 0 1.192.184 1.696.537a2.95 2.95 0 0 1 1.221 1.916 2.97 2.97 0 0 1-2.408 3.438zm2.243-13.437l-1.878-10.65a.78.78 0 0 0-.905-.634l-7.4 1.306a.78.78 0 0 0-.634.905l1.878 10.65a.78.78 0 0 0 .768.646.79.79 0 0 0 .136-.012l7.4-1.306a.78.78 0 0 0 .634-.905zm-7.545.537l-1.607-9.112 5.87-1.035 1.607 9.112zm-3.028-12.68l7.4-1.306a.781.781 0 1 0-.271-1.539l-7.4 1.306a.78.78 0 0 0-.634.905.78.78 0 0 0 .768.646.8.8 0 0 0 .136-.012zm-18.577 14.187a.79.79 0 0 0 .781-.781.79.79 0 0 0-.781-.781.79.79 0 0 0-.781.781.79.79 0 0 0 .781.781zm0 0"/></g><path d="M375.154 144.132a3.85 3.85 0 0 0-4.3-.776l-10.017-10.017a3.85 3.85 0 0 0-.775-4.3c-.724-.727-1.688-1.128-2.714-1.13a3.82 3.82 0 0 0-2.72 1.122l-.022.022c-3.532 3.532-5.477 8.228-5.477 13.223v5.106h-5.106c-10.312 0-18.702 8.4-18.702 18.702l.002 5.083h-5.084a18.58 18.58 0 0 0-13.228 5.482l-.02.02c-1.495 1.5-1.5 3.937.01 5.432a3.83 3.83 0 0 0 2.711 1.117 3.86 3.86 0 0 0 1.577-.337l10.012 10a3.85 3.85 0 0 0 .775 4.3 3.82 3.82 0 0 0 2.715 1.13h.006a3.82 3.82 0 0 0 2.713-1.122l.022-.02c3.532-3.532 5.477-8.228 5.477-13.224l-.002-5.087h5.096c2.93 0 5.736-.662 8.342-1.966.68-.34.955-1.166.615-1.845s-1.166-.955-1.845-.615c-2.22 1.1-4.614 1.675-7.112 1.675h-5.098l-.001-2.182h5.1c3.673 0 7.13-1.434 9.733-4.037s4.037-6.06 4.037-9.733v-8.914c.002-.023.003-.046.004-.07l.001-.05v-8.855a15.84 15.84 0 0 1 4.667-11.274l.025-.025c.206-.205.48-.318.77-.318h.002a1.08 1.08 0 0 1 .77.32 1.09 1.09 0 0 1 .003 1.537l-.02.02a13.68 13.68 0 0 0-4.035 9.738v8.918c-.002.024-.003.048-.003.073-.001.016-.001.032-.001.048v8.85a15.75 15.75 0 0 1-1.675 7.112c-.34.68-.064 1.505.615 1.845s1.505.065 1.845-.615a18.48 18.48 0 0 0 1.966-8.342v-5.1h5.1a18.58 18.58 0 0 0 13.229-5.483l.018-.018c1.495-1.5 1.5-3.937-.01-5.432zm-26.052 16.694l-5.74-5.74a11.2 11.2 0 0 1 .66-.021h5.1v5.1a11.23 11.23 0 0 1-.021.661zM323 190.713l-9.54-9.54a10.92 10.92 0 0 1 2.866-1.614l8.284 8.284a10.92 10.92 0 0 1-1.611 2.869zm2.317-6.758a11.04 11.04 0 0 1-.023.682l-5.763-5.763a11.56 11.56 0 0 1 .697-.024h5.087zm-14.834-3.814c-.435.435-1.126.435-1.55.01a1.09 1.09 0 0 1-.004-1.541l.022-.022a15.84 15.84 0 0 1 11.279-4.672l5.086-.001v2.182h-5.086a13.68 13.68 0 0 0-9.736 4.032zm15.1 15.1l-.025.024c-.206.205-.48.32-.77.32a1.09 1.09 0 0 1-.772-1.86l.02-.02c2.6-2.6 4.033-6.06 4.033-9.737l-.006-17.87c0-8.795 7.156-15.95 15.95-15.95h5.106v.958a1.79 1.79 0 0 0-.005.133v1.1h-5.1a13.79 13.79 0 0 0-13.77 13.77l.006 17.87a15.85 15.85 0 0 1-4.667 11.275zM342 170.473l-8.3-8.3a11 11 0 0 1 1.616-2.864l9.536 9.536a10.98 10.98 0 0 1-2.863 1.617zm-9.003.714l-.002-5.1a10.93 10.93 0 0 1 .025-.703l5.78 5.78a10.93 10.93 0 0 1-.704.025zm13.808-4.278l-9.53-9.53a10.99 10.99 0 0 1 2.872-1.608l8.23 8.23c.013.013.027.024.04.037a10.96 10.96 0 0 1-1.61 2.874zm12.315-31.387l9.546 9.546a10.91 10.91 0 0 1-2.87 1.612l-8.3-8.3a10.96 10.96 0 0 1 1.612-2.87zm-2.317 6.757c0-.228.01-.456.023-.68l5.764 5.764a11.04 11.04 0 0 1-.681.023h-5.106zm16.405 5.346l-.02.02c-3.013 3.013-7.018 4.672-11.28 4.672h-5.1v-.958a2.14 2.14 0 0 0 .005-.132v-1.1l5.106.001a13.68 13.68 0 0 0 9.745-4.042c.435-.435 1.126-.435 1.55-.01a1.09 1.09 0 0 1 .003 1.542zm-22.857 23.412a1.39 1.39 0 0 0-.973.403c-.256.256-.403.6-.403.972s.147.716.403.972.6.403.973.403.715-.147.972-.403a1.36 1.36 0 0 0 .4-.972 1.37 1.37 0 0 0-.4-.972 1.39 1.39 0 0 0-.972-.403zm0 0" id="H" fill="#ec4a81"/><path id="I" d="M0 0h350v350H0z"/></defs><pattern id="J" width="350" height="350" patternUnits="userSpaceOnUse"><use xlink:href="#A" x="-350" y="-350"/><use xlink:href="#A" y="-350"/><use xlink:href="#A" x="350" y="-350"/><use xlink:href="#A" x="-350"/><use xlink:href="#A"/><use xlink:href="#A" x="350"/><use xlink:href="#A" x="-350" y="350"/><use xlink:href="#A" y="350"/><use xlink:href="#A" x="350" y="350"/></pattern><use xlink:href="#I" fill="url(#J)"/><pattern id="K" width="350" height="350" patternUnits="userSpaceOnUse"><use xlink:href="#B" x="-350" y="-350"/><use xlink:href="#B" y="-350"/><use xlink:href="#B" x="350" y="-350"/><use xlink:href="#B" x="-350"/><use xlink:href="#B"/><use xlink:href="#B" x="350"/><use xlink:href="#B" x="-350" y="350"/><use xlink:href="#B" y="350"/><use xlink:href="#B" x="350" y="350"/></pattern><use xlink:href="#I" fill="url(#K)"/><pattern id="L" width="350" height="350" patternUnits="userSpaceOnUse"><use xlink:href="#C" x="-350" y="-350"/><use xlink:href="#C" y="-350"/><use xlink:href="#C" x="350" y="-350"/><use xlink:href="#C" x="-350"/><use xlink:href="#C"/><use xlink:href="#C" x="350"/><use xlink:href="#C" x="-350" y="350"/><use xlink:href="#C" y="350"/><use xlink:href="#C" x="350" y="350"/></pattern><use xlink:href="#I" fill="url(#L)"/><pattern id="M" width="350" height="350" patternUnits="userSpaceOnUse"><use xlink:href="#D" x="-350" y="-350"/><use xlink:href="#D" y="-350"/><use xlink:href="#D" x="350" y="-350"/><use xlink:href="#D" x="-350"/><use xlink:href="#D"/><use xlink:href="#D" x="350"/><use xlink:href="#D" x="-350" y="350"/><use xlink:href="#D" y="350"/><use xlink:href="#D" x="350" y="350"/></pattern><use xlink:href="#I" fill="url(#M)"/><pattern id="N" width="350" height="350" patternUnits="userSpaceOnUse"><use xlink:href="#E" x="-350" y="-350"/><use xlink:href="#E" y="-350"/><use xlink:href="#E" x="350" y="-350"/><use xlink:href="#E" x="-350"/><use xlink:href="#E"/><use xlink:href="#E" x="350"/><use xlink:href="#E" x="-350" y="350"/><use xlink:href="#E" y="350"/><use xlink:href="#E" x="350" y="350"/></pattern><use xlink:href="#I" fill="url(#N)"/><pattern id="O" width="350" height="350" patternUnits="userSpaceOnUse"><use xlink:href="#F" x="-350" y="-350"/><use xlink:href="#F" y="-350"/><use xlink:href="#F" x="350" y="-350"/><use xlink:href="#F" x="-350"/><use xlink:href="#F"/><use xlink:href="#F" x="350"/><use xlink:href="#F" x="-350" y="350"/><use xlink:href="#F" y="350"/><use xlink:href="#F" x="350" y="350"/></pattern><use xlink:href="#I" fill="url(#O)"/><pattern id="P" width="350" height="350" patternUnits="userSpaceOnUse"><use xlink:href="#G" x="-350" y="-350"/><use xlink:href="#G" y="-350"/><use xlink:href="#G" x="350" y="-350"/><use xlink:href="#G" x="-350"/><use xlink:href="#G"/><use xlink:href="#G" x="350"/><use xlink:href="#G" x="-350" y="350"/><use xlink:href="#G" y="350"/><use xlink:href="#G" x="350" y="350"/></pattern><use xlink:href="#I" fill="url(#P)"/><pattern id="Q" width="350" height="350" patternUnits="userSpaceOnUse"><use xlink:href="#H" x="-350" y="-350"/><use xlink:href="#H" y="-350"/><use xlink:href="#H" x="350" y="-350"/><use xlink:href="#H" x="-350"/><use xlink:href="#H"/><use xlink:href="#H" x="350"/><use xlink:href="#H" x="-350" y="350"/><use xlink:href="#H" y="350"/><use xlink:href="#H" x="350" y="350"/></pattern><use xlink:href="#I" fill="url(#Q)"/></svg>