<svg xmlns="http://www.w3.org/2000/svg" xmlns:xlink="http://www.w3.org/1999/xlink" width="400" height="400" viewBox="0 0 350 350"><style><![CDATA[.B{fill:#ec4a81}]]></style><use xlink:href="#K" opacity="0" fill="#fff"/><defs><path d="M166.534 70.234c.02 2.277 1.656 4.297 3.977 4.72l.954.174-.186 1.017c-.06.334-.06.665-.01.983l-.327-.06c-1.993-.362-4.01.073-5.674 1.226a.97.97 0 0 0-.245 1.348.97.97 0 0 0 1.348.245 5.61 5.61 0 0 1 4.225-.914l.327.06c-.16.28-.277.6-.337.924s-.06.665-.01.983l-.327-.06c-1.993-.362-4.01.073-5.674 1.226a.97.97 0 0 0-.245 1.348.97.97 0 0 0 1.348.245 5.61 5.61 0 0 1 4.225-.914l.327.06c-.16.28-.277.6-.337.924s-.06.665-.01.983l-.327-.06c-1.993-.362-4.01.073-5.674 1.226a.97.97 0 0 0-.245 1.348.97.97 0 0 0 1.348.245 5.61 5.61 0 0 1 4.225-.913l1.253.228-3.62 3.79a.97.97 0 0 0 .527 1.623l11.44 2.08a.97.97 0 0 0 1.065-1.333l-2.056-4.82 1.253.228a5.61 5.61 0 0 1 3.633 2.342.97.97 0 0 0 1.348.245.97.97 0 0 0 .245-1.348c-1.153-1.666-2.886-2.783-4.88-3.145l-.327-.06c.16-.28.277-.59.337-.923s.06-.665.01-.983l.327.06a5.61 5.61 0 0 1 3.633 2.342.97.97 0 0 0 1.348.245.97.97 0 0 0 .245-1.348c-1.153-1.666-2.886-2.783-4.88-3.145l-.327-.06c.16-.28.277-.59.337-.923s.06-.665.01-.983l.327.06a5.61 5.61 0 0 1 3.633 2.342.97.97 0 0 0 1.348.245.97.97 0 0 0 .245-1.348c-1.153-1.666-2.886-2.783-4.88-3.145l-.327-.06c.16-.28.277-.59.337-.923l.185-1.017.953.173c2.32.422 4.562-.894 5.384-3.017 3.383.178 6.457-2.162 7.073-5.55l.693-3.813a.97.97 0 0 0-.78-1.127c-3.715-.675-7.28 1.77-7.95 5.448l-.693 3.813a2.91 2.91 0 0 1-3.38 2.34l-.953-.173.376-2.07a2.91 2.91 0 0 0 .057-5.729 2.89 2.89 0 0 0-.931-.017l-.04-.067.2-1.043a2.91 2.91 0 0 1 3.38-2.34l1.907.347a.97.97 0 0 0 1.127-.78.97.97 0 0 0-.78-1.127l-1.907-.347c-2.445-.444-4.8 1.038-5.503 3.363l-.502-.41a.97.97 0 0 0-.853-.155l-.615.208c.16-2.423-1.522-4.64-3.967-5.084l-1.907-.347a.97.97 0 0 0-1.127.78.97.97 0 0 0 .78 1.127l1.907.347a2.91 2.91 0 0 1 2.34 3.38l-.2 1.043-.06.05a2.89 2.89 0 0 0-.877-.312 2.91 2.91 0 0 0-3.38 2.34c-.227 1.246.373 2.452 1.416 3.046l-.373 2.068-.957-.174a2.91 2.91 0 0 1-2.34-3.38l.693-3.813c.67-3.68-1.81-7.222-5.523-7.898a.97.97 0 0 0-1.127.78l-.693 3.813c-.616 3.39 1.437 6.66 4.666 7.685zm21.743-.914c.42-2.306 2.438-3.932 4.726-3.968l-.503 2.767c-.42 2.306-2.438 3.932-4.726 3.968zm-15.53 17.923l.44.08-.705 3.877-2.996-.545zm1.642 4.303l.705-3.877.44.08 1.85 4.34zm3.13-6.4a.97.97 0 0 1-1.127.78l-3.813-.693a.97.97 0 0 1-.78-1.127.97.97 0 0 1 1.127-.78l3.813.693a.97.97 0 0 1 .78 1.127zm.693-3.813a.97.97 0 0 1-1.127.78l-3.813-.693a.97.97 0 0 1-.78-1.127.97.97 0 0 1 1.127-.78l3.813.693a.97.97 0 0 1 .78 1.127zm3.998-11.156a.97.97 0 0 1-1.127.78.97.97 0 0 1-.78-1.127.97.97 0 0 1 1.127-.78.97.97 0 0 1 .78 1.127zm-4.27-3.592a6.06 6.06 0 0 1 1.189 1.441 2.89 2.89 0 0 0-.731 1.457 2.91 2.91 0 0 0 1.416 3.043l-.908 4.994a.97.97 0 0 1-1.127.78l-3.813-.693a.97.97 0 0 1-.781-1.126l.91-4.998a2.92 2.92 0 0 0 2.396-2.346 2.89 2.89 0 0 0-.171-1.621c.488-.392 1.035-.706 1.62-.93zm-4.135 1.078a.97.97 0 0 1 .78 1.127.97.97 0 0 1-1.127.78.97.97 0 0 1-.78-1.127.97.97 0 0 1 1.127-.78zm-9.527-7.545c2.13.84 3.446 3.072 3.027 5.378l-.503 2.767c-2.13-.84-3.446-3.072-3.027-5.378z" id="A" class="B"/><path d="M94.5 85.34l2.395-.413.4 2.322a1.31 1.31 0 0 0 1.512 1.068 1.31 1.31 0 0 0 1.068-1.512l-.4-2.322 2.322-.4a1.31 1.31 0 0 0 1.068-1.512 1.31 1.31 0 0 0-1.512-1.068l-2.322.4-.413-2.395a1.31 1.31 0 0 0-1.512-1.068 1.31 1.31 0 0 0-1.068 1.512l.413 2.395-2.395.413a1.31 1.31 0 0 0-1.068 1.512 1.31 1.31 0 0 0 1.512 1.068zm-23.524 27.12c1.697 1.198 3.818 1.514 5.8.88a6.54 6.54 0 0 0 2.765 5.159l4.278 3.02a1.31 1.31 0 0 0 1.824-.315c2.08-2.948 1.376-7.04-1.573-9.122l-3.208-2.265 2.05-2.902c1.172.76 2.392 1.442 3.64 2.036a1.31 1.31 0 0 0 1.745-.619 1.31 1.31 0 0 0-.618-1.745 29.62 29.62 0 0 1-3.256-1.814l1.512-2.142a26.61 26.61 0 0 0 6.408 2.973 1.31 1.31 0 0 0 1.638-.863 1.31 1.31 0 0 0-.863-1.638 23.97 23.97 0 0 1-5.671-2.614l1.513-2.143a21.29 21.29 0 0 0 9.83 3.15 1.31 1.31 0 0 0 1.391-1.221 1.31 1.31 0 0 0-1.221-1.391 18.68 18.68 0 0 1-8.486-2.682l1.5-2.138a16.01 16.01 0 0 0 10.934 2.004 1.31 1.31 0 0 0 .998-.817l.5-1.263c2.042-5.27 3.332-13.214.828-19.706a1.31 1.31 0 0 0-1.186-.837c-10.428-.278-19.043 8.073-19.3 8.25a1.31 1.31 0 0 0-.449 1.254c.66 3.8 2.614 7.165 5.546 9.607l-1.5 2.138c-2.337-1.904-4.18-4.336-5.37-7.098a1.31 1.31 0 0 0-1.72-.685 1.31 1.31 0 0 0-.685 1.72c1.38 3.206 3.53 6.02 6.26 8.206l-1.513 2.143a23.97 23.97 0 0 1-4.362-4.469 1.31 1.31 0 0 0-1.832-.265 1.31 1.31 0 0 0-.265 1.832c1.412 1.888 3.073 3.58 4.947 5.042l-1.512 2.142a29.62 29.62 0 0 1-2.799-2.46 1.31 1.31 0 0 0-1.851.001 1.31 1.31 0 0 0 .001 1.851c.98.977 2.03 1.898 3.138 2.748l-2.05 2.903-3.208-2.265c-2.948-2.08-7.04-1.376-9.122 1.573a1.31 1.31 0 0 0 .315 1.824zm13.1 6.036l-3.025-2.135c-1.394-.984-1.953-2.718-1.515-4.274l3.025 2.135c1.394.984 1.953 2.718 1.515 4.274zm19.006-42.426c2.68 8.434-1.314 17.43-1.335 17.528-3.314.392-6.6-.44-9.357-2.38s-4.636-4.767-5.376-8.02c.048-.03 7.322-6.83 16.07-7.128zm-29.077 32.113l3.027 2.136a3.93 3.93 0 0 1-4.536.003l-3.025-2.135c1.32-.933 3.14-.988 4.535-.004z" id="B" class="B"/><g transform="matrix(.136719 0 0 .136719 315 140)" id="C" class="B"><circle cx="346" cy="271" r="15"/><path d="M60 194.49V319c0 71.562 63.39 116 99.592 116l7.654-.004-16.173 40.433A15 15 0 0 0 165 496h61.563c40.603 0 78.058-23.606 94.98-60H376c75 0 136-60.56 136-135v-90c0-8.284-6.716-15-15-15h-76v-75a15.02 15.02 0 0 1 15-15 15.02 15.02 0 0 1 15 15v15c0 8.284 6.716 15 15 15s15-6.716 15-15v-15c0-24.813-20.187-45-45-45-5.26 0-10.305.915-15 2.58V76c0-33.084-26.916-60-60-60s-60 26.916-60 60v30c0 8.284 6.716 15 15 15s15-6.716 15-15V76c0-16.542 13.458-30 30-30s30 13.458 30 30v120h-67.72c-47.34 0-93.434 18.94-126.46 51.967-5.18 5.18-12.068 8.033-19.394 8.033C162.303 256 150 243.697 150 228.574v-34.08c34.19-6.97 60-37.275 60-73.493 0-8.284-6.716-15-15-15h-60c-10.357 0-20.583 2.144-30 6.25-9.417-4.105-19.643-6.25-30-6.25H15c-8.284 0-15 6.716-15 15 0 36.22 25.808 66.522 60 73.49zM376 406h-41.538l8.054-18.794c24.38-56.887 78.12-95.144 139.483-100.544V301c.001 57.897-47.55 105-106 105zM75 136c7.915 0 15.69 2.08 22.49 6.01a15 15 0 0 0 15.021 0c6.798-3.932 14.575-6.02 22.49-6.02h42.43c-6.2 17.46-22.873 30-42.43 30-8.284 0-15 6.716-15 15v47.574C120 260.24 145.76 286 177.426 286c15.34 0 29.76-5.973 40.606-16.82C245.475 241.74 283.836 226 323.28 226H482v30.57c-72.824 5.494-137.987 51-167.058 118.82C296.5 418.422 283.675 466 226.563 466h-39.407l29.488-73.72C227.716 364.598 255.588 346 286 346c8.284 0 15-6.716 15-15s-6.716-15-15-15c-42.56 0-81.626 26.177-97.2 65.138L179.25 405h-18.33C119.75 397.335 90 361.355 90 319V181c0-8.284-6.716-15-15-15-19.556 0-36.24-12.54-42.43-30z"/></g><g transform="matrix(.097656 0 0 .097656 62.5 237.5)" id="D" class="B"><circle cx="346" cy="286" r="15"/><path d="M43.85 360.956a15 15 0 0 0 11.67-4.262l35.634-35.05C94.095 376.927 139.997 421 196 421h15v45c0 8.284 6.716 15 15 15 41.802 0 77.973-24.557 94.855-60h141.277C489.63 421 512 398.63 512 371.132c0-21.498-13.703-40.5-34.098-47.31l-43.364-14.12A19.84 19.84 0 0 1 421 290.869V196c0-56.2-44.416-102.296-100.07-104.88C303.73 54.77 266.832 31 226 31H76c-8.284 0-15 6.716-15 15 0 36.514 19.256 70.18 49.5 89.116-11.247 15.75-18.256 34.722-19.348 55.24l-35.634-35.05a15 15 0 0 0-22.55 1.736C31.622 158.85 0 201.945 0 256s31.622 97.15 32.968 98.958a15 15 0 0 0 10.881 5.998zM391 196v94.868c0 21.498 13.703 40.5 34.098 47.31l43.364 14.12A19.84 19.84 0 0 1 482 371.131c0 10.956-8.913 19.868-19.868 19.868H329.924c.704-4.9 1.076-9.907 1.076-15 0-8.284-6.716-15-15-15s-15 6.716-15 15c0 36.22-25.81 66.524-60 73.493V376c0-8.284-6.716-15-15-15s-15 6.716-15 15v15h-15c-41.355 0-75-33.645-75-75V196c0-24.484 11.796-46.262 30-59.96V226c0 8.284 6.716 15 15 15 41.355 0 75-33.645 75-75v-45h30v105c0 8.284 6.716 15 15 15 41.355 0 75-33.645 75-75v-29.96c18.204 13.697 30 35.475 30 59.96zm-195-75h15v45c0 19.556-12.54 36.24-30 42.43V122.5a74.98 74.98 0 0 1 15-1.51zm120 0c5.136 0 10.152.52 15 1.51V166c0 19.556-12.54 36.24-30 42.43V121zm-90-60c23.99 0 46.078 11.483 60.003 30H196c-23.232 0-45.612 7.63-64.03 21.843C111.637 102.45 97.11 83.185 92.532 61zM47.958 189.95L91 232.286v47.428l-43.077 42.37C40.074 307.342 30 283.132 30 256c0-26.953 10.104-51.243 17.958-66.05z"/></g><g transform="matrix(.175779 0 0 .175779 217.5 217.5)" id="E" class="B"><circle cx="106" cy="376" r="15"/><path d="M502.69 476.764c-4.052-1.66-7.96-3.738-11.618-6.176-3.603-2.402-7.328-4.52-11.14-6.39 20.382-24.334 32.07-55.82 32.07-88.197 0-8.284-6.716-15-15-15h-15v-32.58c17.46-6.192 30-22.865 30-42.42 0-23.133-17.55-42.238-40.032-44.72L242.648 88.118c33.368-7.593 58.356-37.48 58.356-73.115 0-8.284-6.716-15-15-15h-90c-8.284 0-15 6.716-15 15v53.823L69.754 181.002h-23.75c-8.284 0-15 6.716-15 15s6.716 15 15 15h15v90h-46c-8.284 0-15 6.716-15 15v60c0 32.637 11.86 64.332 32.53 88.738a94.07 94.07 0 0 0-10.099 5.847 66.32 66.32 0 0 1-12.839 6.663c-7.727 2.988-11.568 11.673-8.58 19.4s11.672 11.568 19.4 8.58a96.37 96.37 0 0 0 18.661-9.682c22.237-14.825 52.12-14.826 74.358 0 15.9 10.593 34.02 16.282 52.433 16.452 19.07.17 37.8-5.513 54.208-16.452 22.28-14.854 51.077-14.855 73.36 0 16.163 10.775 34.76 16.457 53.844 16.456l.86-.004c18.738-.168 37.042-5.857 52.936-16.452 22.398-14.932 51.23-14.752 73.358 0 5.31 3.54 10.992 6.56 16.884 8.975 7.664 3.14 16.426-.527 19.567-8.193a15 15 0 0 0-8.192-19.567zM385.275 361.002l-25.854-51.708a15 15 0 0 0-13.417-8.292h-105v-90h15c8.284 0 15-6.716 15-15s-6.716-15-15-15h-45v-77.944l225.058 150.316c-8.648 8.206-14.058 19.793-14.058 32.628 0 19.555 12.54 36.228 30 42.42v32.58zm-273.27-180l68.998-69.573v69.573zm354.998 120a15.02 15.02 0 0 1-15-15 15.02 15.02 0 0 1 14.975-14.999h.012c.007 0 .014-.001.022-.001a15.02 15.02 0 0 1 14.992 15c-.001 8.27-6.73 15-15 15zm-256-271h57.43c-6.19 17.46-22.874 30-42.43 30h-15zm-60 181v30h-60v-30zm-60 60h75c8.284 0 15-6.716 15-15v-45h30v105c0 8.284 6.716 15 15 15h110.73l15 30h-125.73c-24.813 0-45-20.187-45-45 0-8.284-6.716-15-15-15h-75zm293.43 199.586c-11.03 7.352-23.672 11.3-36.563 11.415-13.165.105-26.577-3.936-37.796-11.415-32.39-21.594-74.25-21.594-106.64 0-11.38 7.588-24.265 11.535-37.29 11.415-12.57-.116-25.04-4.063-36.068-11.415-19.333-12.888-42.655-18.026-65.176-15.435-21.95-19.82-34.894-48.952-34.894-79.15v-45H152.51c6.97 34.19 37.274 60 73.493 60H480.94c-3.492 24.535-15.424 47.412-33.543 63.898-21.698-2.196-43.96 3.03-62.963 15.698z"/></g><path d="M282.5 68.672a1.17 1.17 0 0 0-1.172-1.172h-4.687a1.17 1.17 0 0 0-1.172 1.172v10.703h-3.314c-1.176-.408-7.135-2.344-14.342-2.344-7.884 0-14.277 2.317-14.545 2.416a1.17 1.17 0 0 0-.767 1.1v7.03a1.17 1.17 0 0 0 .891 1.138l6.578 1.625c2.198.55 4.504-.495 5.528-2.542.43-.86 1.293-1.392 2.252-1.392h.126c.96 0 1.823.533 2.252 1.392 1.025 2.05 3.335 3.09 5.525 2.543l6.443-1.592h3.373v10.547c0 .646-.526 1.172-1.172 1.172H262.5c-.646 0-1.172-.526-1.172-1.172v-1.803a4.69 4.69 0 0 0 2.344-4.057 1.17 1.17 0 1 0-2.344 0c0 1.292-1.05 2.344-2.344 2.344h-2.344c-1.292 0-2.344-1.05-2.344-2.344a1.17 1.17 0 1 0-2.344 0 4.69 4.69 0 0 0 2.344 4.057v1.803c0 4.523 3.68 8.203 8.203 8.203h11.797c4.535 0 8.203-3.7 8.203-8.203zm-4.687 1.172h2.344V95.78h-2.344zm1.37 32.682l-1.714-1.714c.22-.46.344-.973.344-1.515v-1.172h2.344v1.172c0 1.192-.36 2.302-.973 3.23zm-14.095-14.46c-1.154.29-2.33-.253-2.863-1.317-.83-1.658-2.495-2.688-4.35-2.688h-.126c-1.853 0-3.52 1.03-4.35 2.688-.532 1.064-1.7 1.605-2.866 1.316l-5.69-1.406v-5.27c1.886-.594 7.026-2.017 12.97-2.017 5.928 0 11.08 1.424 12.97 2.017v5.268zm8.037-1.66V81.72h2.344v4.688zm-16.484 12.89v-1.172h2.344v1.172a3.52 3.52 0 0 0 3.516 3.516h8.28v2.344h-8.28a5.87 5.87 0 0 1-5.859-5.859zm16.484 5.86v-2.344h1.172c.542 0 1.056-.124 1.515-.344l1.714 1.714c-.926.614-2.036.973-3.23.973z" id="F" class="B"/><path d="M182.438 342.42l6.412 6.896-6.184 9.7a3.56 3.56 0 0 0 .315 4.296 3.57 3.57 0 0 0 4.2.97l10.956-4.6 8.1 8.687c1.1 1.2 2.742 1.527 4.22.832 1.47-.692 2.275-2.18 2.046-3.796l-1.665-11.364 8.886-3.626c1.443-.596 2.32-1.988 2.238-3.547s-1.105-2.85-2.604-3.288l-9.955-2.908-1.308-10.93c-.187-1.508-1.26-2.715-2.733-3.075l-.034-.008-.034-.006a3.6 3.6 0 0 0-3.75 1.677l-5.898 9.396-10.07-1.383c-1.546-.214-3.007.545-3.722 1.932a3.58 3.58 0 0 0 .584 4.148zm1.566-3.04c.092-.18.453-.753 1.242-.644l11.618 1.595 6.742-10.74c.374-.615.95-.6 1.214-.568.258.07.785.3.873 1l1.498 12.5 11.487 3.356c.763.223.857.895.868 1.096s-.01.88-.74 1.18l-10.635 4.34 1.938 13.232c.116.82-.493 1.174-.682 1.263s-.85.332-1.408-.28l-9.273-9.933-12.53 5.262c-.76.33-1.263-.163-1.4-.322s-.546-.732-.108-1.427l7.187-11.272-7.695-8.275c-.546-.578-.288-1.205-.196-1.384zm15.722 13.367a3.63 3.63 0 0 0 4.307-2.787 3.63 3.63 0 0 0-2.787-4.307 3.63 3.63 0 0 0-4.307 2.787 3.63 3.63 0 0 0 2.787 4.307zm1.013-4.73a1.21 1.21 0 0 1 .929 1.436 1.21 1.21 0 0 1-1.436.929 1.21 1.21 0 0 1-.929-1.436 1.21 1.21 0 0 1 1.436-.929zm1.014-4.73a1.21 1.21 0 0 0 1.436-.929l1.013-4.73a1.21 1.21 0 0 0-.929-1.436 1.21 1.21 0 0 0-1.436.929l-1.013 4.73a1.21 1.21 0 0 0 .929 1.436zm.897 12.942l2.16 4.32a1.21 1.21 0 0 0 1.622.541 1.21 1.21 0 0 0 .541-1.622l-2.16-4.32a1.21 1.21 0 0 0-1.622-.541 1.21 1.21 0 0 0-.541 1.622zm-12.553 1.268a1.21 1.21 0 0 0 1.7.19l3.775-3.015a1.21 1.21 0 0 0 .19-1.7 1.21 1.21 0 0 0-1.7-.19l-3.775 3.015a1.21 1.21 0 0 0-.19 1.7zm17.743-8.026l4.796-.618a1.21 1.21 0 0 0 1.045-1.354 1.21 1.21 0 0 0-1.354-1.045l-4.796.618a1.21 1.21 0 0 0-1.045 1.354 1.21 1.21 0 0 0 1.354 1.045zm-18.308-5.538l4.128 2.518a1.21 1.21 0 0 0 1.662-.403 1.21 1.21 0 0 0-.403-1.662l-4.128-2.518a1.21 1.21 0 0 0-1.662.403 1.21 1.21 0 0 0 .403 1.662z" id="G" class="B"/><path d="M87.5 20.518c11.298 0 20.518-9.22 20.518-20.518S98.797-20.518 87.5-20.518 66.982-11.297 66.982 0s9.22 20.518 20.518 20.518zM69.427 1.202h2.4c.583 7.627 6.75 13.872 14.46 14.46v2.4c-9.032-.595-16.276-7.84-16.87-16.87zm15.896-2.426a1.21 1.21 0 0 0 .952-.946L87.5-8.337l1.225 6.167c.095.477.472.85.945.945L95.837 0 89.67 1.225c-.474.094-.85.47-.945.945L87.5 8.337 86.275 2.17c-.162-.813-.94-.94-.947-.945L79.162 0zm-2.668 4.37l-5.37 5.37c-1.63-1.952-2.71-4.376-3.007-7.034zm1.7 1.7l1.664 8.376a13.25 13.25 0 0 1-7.034-3.007zm6.3 0l5.37 5.37c-1.952 1.63-4.376 2.71-7.034 3.007zm7.07 3.67l-5.37-5.37 8.376-1.664c-.296 2.658-1.377 5.082-3.007 7.034zm-5.37-11.66l5.37-5.37c1.63 1.952 2.71 4.376 3.007 7.034zm-1.7-1.7l-1.664-8.376a13.25 13.25 0 0 1 7.034 3.007zm-6.3 0l-5.37-5.37c1.952-1.63 4.376-2.71 7.034-3.007zm-7.07-3.67l5.37 5.37-8.376 1.664c.296-2.658 1.377-5.082 3.007-7.034zm11.417 26.588v-2.4c7.627-.583 13.872-6.75 14.46-14.462h2.4c-.595 9.032-7.84 16.277-16.87 16.87zm16.87-19.275h-2.4c-.583-7.627-6.75-13.872-14.46-14.46v-2.4c9.032.595 16.276 7.84 16.87 16.87zm-19.275-16.87v2.4c-7.627.583-13.872 6.75-14.46 14.46h-2.4c.595-9.032 7.84-16.276 16.87-16.87z" id="H" class="B"/><g transform="matrix(.169792 .045496 -.045496 .169792 320.090351 -24.431086)" id="I" class="B"><circle cx="166" cy="195" r="15"/><path d="M30.002 134.96c0 .013-.002.026-.002.04 0 64.333 37.237 120.176 91.41 147.375 2.272 27.67 14.132 53.38 33.985 73.23 5.857 5.857 15.354 5.86 21.213 0s5.858-15.355 0-21.213c-11.188-11.188-18.957-24.878-22.812-39.804 9.806 2.564 19.964 4.255 30.384 4.988 5 21.1 15.823 40.638 31.215 56.03 5.857 5.857 15.355 5.858 21.213 0s5.858-15.355 0-21.213c-9.656-9.656-16.9-21.51-21.163-34.393h28.834c5.054 20.928 15.83 40.32 31.116 55.607 5.857 5.857 15.355 5.858 21.213 0s5.858-15.355 0-21.213c-9.625-9.625-16.847-21.438-21.125-34.277C322.825 302.545 362 343.174 362 391c0 49.327-41.673 91-91 91h-45a15.02 15.02 0 0 1-15-15c0-8.284-6.716-15-15-15s-15 6.716-15 15a44.79 44.79 0 0 0 2.58 15H166c-24.813 0-45-20.187-45-45 0-8.284-6.716-15-15-15s-15 6.716-15 15c0 41.355 33.645 75 75 75h151c107.333 0 195-88.765 195-197 0-106.88-86.746-195-195-195H75a15.02 15.02 0 0 1-15-15 15.02 15.02 0 0 1 15-15h181c8.284 0 15-6.716 15-15s-6.716-15-15-15H75c-19.555 0-36.228 12.54-42.42 30A44.79 44.79 0 0 1 30 75c0-24.813 20.187-45 45-45h211c8.284 0 15-6.716 15-15s-6.716-15-15-15H75C33.645 0 0 33.645 0 75c0 24.485 11.797 46.264 30.002 59.96zM60.834 150H241v120h-42.692c-2.633-.273-26.372 1.483-55.16-10.617C95.98 233.77 66.783 203.167 60.834 150zM355.21 477.48l1.142-1.127C379.34 453.365 392 423.043 392 391h71.895c-21.745 42.88-61.282 75.07-108.684 86.5zM475.634 361h-87.44c-5.895-22.808-18.453-43.427-36.345-59.637l91.9-91.9C467.614 238.098 482 274.9 482 315c0 15.95-2.222 31.382-6.366 46zm-53.107-172.74l-95.603 95.603C309.81 274.807 290.737 270 271 270V150h46c40.1 0 76.902 14.386 105.527 38.26z"/></g><path d="M215.4 194.424a9.07 9.07 0 0 1-1.753-.405c-4.912-1.662-10.497-.222-14.005 3.58l-14.77-28.364 1.493-.4a2.05 2.05 0 0 0 1.45-2.512l-3.185-11.885a2.051 2.051 0 1 0-3.962 1.062l.53 1.98-3.962 1.062-1.062-3.962 1.98-.53a2.05 2.05 0 0 0 1.45-2.512c-1.282-4.783-5.762-7.872-10.524-7.582l-.62-2.312a2.051 2.051 0 1 0-3.962 1.062l.62 2.312c-4.27 2.13-6.605 7.045-5.323 11.828a2.05 2.05 0 0 0 2.512 1.45l1.98-.53 1.062 3.962-3.962 1.062-.53-1.98a2.051 2.051 0 1 0-3.962 1.062l3.185 11.885a2.05 2.05 0 0 0 2.512 1.45l1.493-.4 1.384 31.832c-4.886-1.432-10.338.125-13.713 3.966a9.07 9.07 0 0 1-1.46 1.334 2.051 2.051 0 1 0 2.419 3.312 13.17 13.17 0 0 0 2.122-1.939 9.26 9.26 0 0 1 9.82-2.631c2.473.837 5.07.946 7.506.317l.113-.03c2.477-.664 4.7-2.066 6.463-4.06 2.417-2.75 6.22-3.77 9.688-2.596 2.514.85 5.15.95 7.625.286l.038-.01c2.458-.667 4.678-2.067 6.42-4.05a9.26 9.26 0 0 1 9.82-2.63c.827.28 1.684.477 2.547.588a2.051 2.051 0 1 0 .52-4.068zM186.624 181.5l-17.94 4.807-.183-4.197 16.184-4.336zm-17.76 9.005l19.7-5.278 1.94 3.726-21.457 5.75zm14.447-25.102l-19.8 5.308-1.062-3.962 19.8-5.308zm-15.21-17.155c2.583-.692 5.23.374 6.665 2.46l-11.206 3.003c.2-2.525 1.96-4.77 4.542-5.463zm.142 8.454l3.962-1.062 1.062 3.962-3.962 1.062zm12.56 13.62l1.94 3.726-14.426 3.865-.183-4.197zm14.205 30.305l-.025.007c-1.7.453-3.505.38-5.25-.2a13.11 13.11 0 0 0-14.083 3.773c-1.234 1.405-2.8 2.385-4.52 2.827a8.58 8.58 0 0 1-1.535.249l-.364-8.374 23.215-6.22 3.888 7.466a8.42 8.42 0 0 1-1.325.48zm5.92-60.92a2.05 2.05 0 0 0-2.005.634l-9.894 11.144a2.05 2.05 0 0 0 .886 3.308l14.14 4.703a2.05 2.05 0 0 0 2.628-2.477l-4.246-15.847a2.05 2.05 0 0 0-1.509-1.465zm.808 14.695l-7.575-2.52 5.3-5.97zm-61.156 22.2a2.05 2.05 0 0 0 2.005-.634l9.894-11.144a2.05 2.05 0 0 0-.886-3.308l-14.14-4.703a2.05 2.05 0 0 0-2.628 2.477l4.246 15.847a2.05 2.05 0 0 0 1.509 1.465zm-.808-14.695l7.575 2.52-5.3 5.97z" id="J" class="B"/><path id="K" d="M0 0h350v350H0z"/></defs><pattern id="L" width="350" height="350" patternUnits="userSpaceOnUse"><use xlink:href="#A" x="-350" y="-350"/><use xlink:href="#A" y="-350"/><use xlink:href="#A" x="350" y="-350"/><use xlink:href="#A" x="-350"/><use xlink:href="#A"/><use xlink:href="#A" x="350"/><use xlink:href="#A" x="-350" y="350"/><use xlink:href="#A" y="350"/><use xlink:href="#A" x="350" y="350"/></pattern><use xlink:href="#K" fill="url(#L)"/><pattern id="M" width="350" height="350" patternUnits="userSpaceOnUse"><use xlink:href="#B" x="-350" y="-350"/><use xlink:href="#B" y="-350"/><use xlink:href="#B" x="350" y="-350"/><use xlink:href="#B" x="-350"/><use xlink:href="#B"/><use xlink:href="#B" x="350"/><use xlink:href="#B" x="-350" y="350"/><use xlink:href="#B" y="350"/><use xlink:href="#B" x="350" y="350"/></pattern><use xlink:href="#K" fill="url(#M)"/><pattern id="N" width="350" height="350" patternUnits="userSpaceOnUse"><use xlink:href="#C" x="-350" y="-350"/><use xlink:href="#C" y="-350"/><use xlink:href="#C" x="350" y="-350"/><use xlink:href="#C" x="-350"/><use xlink:href="#C"/><use xlink:href="#C" x="350"/><use xlink:href="#C" x="-350" y="350"/><use xlink:href="#C" y="350"/><use xlink:href="#C" x="350" y="350"/></pattern><use xlink:href="#K" fill="url(#N)"/><pattern id="O" width="350" height="350" patternUnits="userSpaceOnUse"><use xlink:href="#D" x="-350" y="-350"/><use xlink:href="#D" y="-350"/><use xlink:href="#D" x="350" y="-350"/><use xlink:href="#D" x="-350"/><use xlink:href="#D"/><use xlink:href="#D" x="350"/><use xlink:href="#D" x="-350" y="350"/><use xlink:href="#D" y="350"/><use xlink:href="#D" x="350" y="350"/></pattern><use xlink:href="#K" fill="url(#O)"/><pattern id="P" width="350" height="350" patternUnits="userSpaceOnUse"><use xlink:href="#E" x="-350" y="-350"/><use xlink:href="#E" y="-350"/><use xlink:href="#E" x="350" y="-350"/><use xlink:href="#E" x="-350"/><use xlink:href="#E"/><use xlink:href="#E" x="350"/><use xlink:href="#E" x="-350" y="350"/><use xlink:href="#E" y="350"/><use xlink:href="#E" x="350" y="350"/></pattern><use xlink:href="#K" fill="url(#P)"/><pattern id="Q" width="350" height="350" patternUnits="userSpaceOnUse"><use xlink:href="#F" x="-350" y="-350"/><use xlink:href="#F" y="-350"/><use xlink:href="#F" x="350" y="-350"/><use xlink:href="#F" x="-350"/><use xlink:href="#F"/><use xlink:href="#F" x="350"/><use xlink:href="#F" x="-350" y="350"/><use xlink:href="#F" y="350"/><use xlink:href="#F" x="350" y="350"/></pattern><use xlink:href="#K" fill="url(#Q)"/><pattern id="R" width="350" height="350" patternUnits="userSpaceOnUse"><use xlink:href="#G" x="-350" y="-350"/><use xlink:href="#G" y="-350"/><use xlink:href="#G" x="350" y="-350"/><use xlink:href="#G" x="-350"/><use xlink:href="#G"/><use xlink:href="#G" x="350"/><use xlink:href="#G" x="-350" y="350"/><use xlink:href="#G" y="350"/><use xlink:href="#G" x="350" y="350"/></pattern><use xlink:href="#K" fill="url(#R)"/><pattern id="S" width="350" height="350" patternUnits="userSpaceOnUse"><use xlink:href="#H" x="-350" y="-350"/><use xlink:href="#H" y="-350"/><use xlink:href="#H" x="350" y="-350"/><use xlink:href="#H" x="-350"/><use xlink:href="#H"/><use xlink:href="#H" x="350"/><use xlink:href="#H" x="-350" y="350"/><use xlink:href="#H" y="350"/><use xlink:href="#H" x="350" y="350"/></pattern><use xlink:href="#K" fill="url(#S)"/><pattern id="T" width="350" height="350" patternUnits="userSpaceOnUse"><use xlink:href="#I" x="-350" y="-350"/><use xlink:href="#I" y="-350"/><use xlink:href="#I" x="350" y="-350"/><use xlink:href="#I" x="-350"/><use xlink:href="#I"/><use xlink:href="#I" x="350"/><use xlink:href="#I" x="-350" y="350"/><use xlink:href="#I" y="350"/><use xlink:href="#I" x="350" y="350"/></pattern><use xlink:href="#K" fill="url(#T)"/><pattern id="U" width="350" height="350" patternUnits="userSpaceOnUse"><use xlink:href="#J" x="-350" y="-350"/><use xlink:href="#J" y="-350"/><use xlink:href="#J" x="350" y="-350"/><use xlink:href="#J" x="-350"/><use xlink:href="#J"/><use xlink:href="#J" x="350"/><use xlink:href="#J" x="-350" y="350"/><use xlink:href="#J" y="350"/><use xlink:href="#J" x="350" y="350"/></pattern><use xlink:href="#K" fill="url(#U)"/></svg>