<svg xmlns="http://www.w3.org/2000/svg" xmlns:xlink="http://www.w3.org/1999/xlink" width="400" height="400" viewBox="0 0 350 350"><path opacity="0" fill="#fff" d="M0 0h350v350H0z"/><defs><path d="M282.962 150.03c-.052-.004-.096-.03-.15-.03h-22.396a6.26 6.26 0 0 0-6.25 6.25v2.083c0 1.15.933 2.084 2.083 2.084s2.083-.933 2.083-2.084v-2.083a2.09 2.09 0 0 1 2.084-2.083h9.706l-.636.212a4.19 4.19 0 0 0-2.821 3.954v31.25h-6.25a2.09 2.09 0 0 1-2.084-2.083v-4.167c0-1.15-.933-2.083-2.083-2.083s-2.083.933-2.083 2.083v4.167a6.26 6.26 0 0 0 6.25 6.25h6.25v2.083a4.17 4.17 0 0 0 4.166 4.167 4.37 4.37 0 0 0 1.327-.206l12.517-4.173c1.7-.583 2.823-2.173 2.823-3.954v-37.5c0-2.43-2.094-4.333-4.538-4.136zm-23.156 19.33l-8.333-8.333a2.08 2.08 0 0 0-2.27-.452c-.778.323-1.285 1.083-1.285 1.925v6.25h-8.334c-1.15 0-2.083.933-2.083 2.083s.933 2.084 2.083 2.084h8.334v6.25c0 .842.508 1.602 1.285 1.925a2.08 2.08 0 0 0 2.27-.452l8.333-8.334a2.08 2.08 0 0 0 0-2.946zm0 0" id="A" fill="#ec4a81"/><path d="M379.896 361.667h-.73v-4.375c0-4.02-3.272-7.292-7.292-7.292s-7.292 3.273-7.292 7.292v4.375h-.73a5.11 5.11 0 0 0-5.104 5.105v10.208a5.11 5.11 0 0 0 5.104 5.105h16.042a5.11 5.11 0 0 0 5.104-5.105v-10.2a5.11 5.11 0 0 0-5.104-5.105zm-10.938-4.375a2.92 2.92 0 0 1 2.916-2.916 2.92 2.92 0 0 1 2.916 2.916v4.375h-5.833zm-14.583 9.478c0-3.938 2.412-7.318 5.834-8.75v-.73c0-1.773.428-3.436 1.14-4.944-2.205-1.48-4.854-2.348-7.703-2.348h-24.792c-7.64 0-13.854 6.215-13.854 13.854v10.2a2.19 2.19 0 0 0 2.188 2.188h37.188zm1.46-37.186c0 8.054-6.53 14.583-14.584 14.583s-14.584-6.53-14.584-14.583A14.59 14.59 0 0 1 341.25 315c8.054 0 14.584 6.53 14.584 14.584zm0 0" id="B" fill="#ec4a81"/><path d="M102.173 186.727l-15.2-15.208c1.64-2.242 2.62-4.994 2.62-7.977A13.56 13.56 0 0 0 76.042 150 13.56 13.56 0 0 0 62.5 163.542a13.56 13.56 0 0 0 13.542 13.541 13.45 13.45 0 0 0 7.973-2.621l8.35 8.35-5.298 5.298a2.08 2.08 0 0 0 0 2.946c.408.406.942.61 1.475.61a2.08 2.08 0 0 0 1.473-.611l5.298-5.298 3.915 3.915c.394.392.6.915.6 1.473s-.217 1.08-.6 1.473l-3.825 3.825a2.08 2.08 0 0 0 0 2.946c.406.406.94.6 1.473.6s1.067-.204 1.473-.6l3.825-3.823c1.18-1.18 1.83-2.75 1.83-4.42a6.21 6.21 0 0 0-1.831-4.419zm0 0" id="C" fill="#ec4a81"/><path d="M194.145 325h-38.29c-3.23 0-5.854 2.627-5.854 5.854v38.29c0 3.227 2.625 5.854 5.854 5.854h38.29c3.23 0 5.854-2.627 5.854-5.854v-38.29c0-3.227-2.625-5.854-5.854-5.854zm-16.873 26.854v7.236a2.27 2.27 0 0 1-2.273 2.273c-1.257 0-2.273-1.018-2.273-2.273v-7.236c-2.638-.94-4.545-3.44-4.545-6.4a6.83 6.83 0 0 1 6.818-6.818 6.83 6.83 0 0 1 6.818 6.818c0 2.96-1.907 5.46-4.546 6.4zm0 0" id="D" fill="#ec4a81"/></defs><pattern id="E" width="350" height="350" patternUnits="userSpaceOnUse"><use xlink:href="#A" x="-350" y="-350"/><use xlink:href="#A" y="-350"/><use xlink:href="#A" x="350" y="-350"/><use xlink:href="#A" x="-350"/><use xlink:href="#A"/><use xlink:href="#A" x="350"/><use xlink:href="#A" x="-350" y="350"/><use xlink:href="#A" y="350"/><use xlink:href="#A" x="350" y="350"/></pattern><path fill="url(#E)" d="M0 0h350v350H0z"/><pattern id="F" width="350" height="350" patternUnits="userSpaceOnUse"><use xlink:href="#B" x="-350" y="-350"/><use xlink:href="#B" y="-350"/><use xlink:href="#B" x="350" y="-350"/><use xlink:href="#B" x="-350"/><use xlink:href="#B"/><use xlink:href="#B" x="350"/><use xlink:href="#B" x="-350" y="350"/><use xlink:href="#B" y="350"/><use xlink:href="#B" x="350" y="350"/></pattern><path fill="url(#F)" d="M0 0h350v350H0z"/><pattern id="G" width="350" height="350" patternUnits="userSpaceOnUse"><use xlink:href="#C" x="-350" y="-350"/><use xlink:href="#C" y="-350"/><use xlink:href="#C" x="350" y="-350"/><use xlink:href="#C" x="-350"/><use xlink:href="#C"/><use xlink:href="#C" x="350"/><use xlink:href="#C" x="-350" y="350"/><use xlink:href="#C" y="350"/><use xlink:href="#C" x="350" y="350"/></pattern><path fill="url(#G)" d="M0 0h350v350H0z"/><pattern id="H" width="350" height="350" patternUnits="userSpaceOnUse"><use xlink:href="#D" x="-350" y="-350"/><use xlink:href="#D" y="-350"/><use xlink:href="#D" x="350" y="-350"/><use xlink:href="#D" x="-350"/><use xlink:href="#D"/><use xlink:href="#D" x="350"/><use xlink:href="#D" x="-350" y="350"/><use xlink:href="#D" y="350"/><use xlink:href="#D" x="350" y="350"/></pattern><path fill="url(#H)" d="M0 0h350v350H0z"/></svg>