<svg xmlns="http://www.w3.org/2000/svg" xmlns:xlink="http://www.w3.org/1999/xlink" width="400" height="400" viewBox="0 0 350 350"><path opacity="0" fill="#fff" d="M0 0h350v350H0z"/><defs><path d="M378.174 347.377c-.566-.98-1.513-1.683-2.616-1.94V339.4c0-13.443-11.478-24.4-25.584-24.4S324.4 325.957 324.4 339.4v6.038c-1.107.27-2.05.993-2.603 1.99-.43.827-.64 1.75-.612 2.68v13.286c-.026.927.185 1.845.612 2.668.872 1.497 2.53 2.354 4.255 2.2h2.017c.083 1.376 1.224 2.45 2.603 2.446h2.3c1.437 0 2.603-1.165 2.603-2.603V345.14c0-1.437-1.165-2.603-2.603-2.603h-2.355c-1.437 0-2.603 1.165-2.603 2.603v.104h-1.054V339.4c0-12.024 10.306-21.797 22.98-21.797s22.98 9.773 22.98 21.797v5.843h-1.054v-.104c0-1.437-1.165-2.603-2.603-2.603h-2.186c-1.437 0-2.603 1.165-2.603 2.603v23.06c.03 1.303 1.02 2.382 2.316 2.525a8.46 8.46 0 0 1-2.108 4.437c-2.043 2.264-5.374 3.566-9.864 3.904v-.573c-.07-1.5-1.337-2.662-2.837-2.603h-5.583c-1.5-.06-2.767 1.103-2.837 2.603v3.904c.07 1.5 1.337 2.662 2.837 2.603h5.635c1.5.06 2.767-1.103 2.837-2.603v-.73c5.27-.35 9.252-1.94 11.8-4.737a11.1 11.1 0 0 0 2.85-6.22c1.313-.076 2.363-1.12 2.446-2.433h2.017c1.725.155 3.384-.703 4.255-2.2.427-.823.637-1.74.612-2.668v-13.3c.025-.952-.2-1.894-.65-2.733zm-47.51 18.388v-17.97c.013-.152.013-.304 0-.455v-2.147l2.186-.065v22.994h-2.186v-2.355zm-2.603-18.036v17.932h-2.017c-1.5 0-1.86-.638-1.978-.86a2.98 2.98 0 0 1-.286-1.418V350.1a2.98 2.98 0 0 1 .273-1.431c.117-.208.468-.86 1.978-.86l2.03-.09zm24.244 32.663v1.783a.35.35 0 0 1-.286.182h-5.635c-.07.005-.14.005-.208 0v-3.8a.35.35 0 0 1 .26-.078h5.87v1.913zm16.995-32.598v20.327h-2.2v-22.98h2.238l-.04 2.655zm6.585 17.034c-.117.208-.468.86-1.978.86H371.9v-17.84h2.004c1.5 0 1.86.638 1.978.86a2.98 2.98 0 0 1 .286 1.418v13.286a2.98 2.98 0 0 1-.286 1.418z" id="A" fill="#ec4a81"/><path d="M186.433 327.85a24.5 24.5 0 0 0-11.401-2.85c-13.53-.002-24.5 10.964-24.504 24.495a24.5 24.5 0 0 0 6.948 17.097l-1.024 7.28c-.1.526.264 1.024.8 1.114.243.04.492-.012.697-.148l5.562-3.7c11.957 6.332 26.784 1.772 33.116-10.185s1.773-26.784-10.185-33.116zm4.657 37.506a22.57 22.57 0 0 1-16.059 6.722 22.58 22.58 0 0 1-11.096-2.897.97.97 0 0 0-.966 0l-4.355 2.83.84-5.6a.96.96 0 0 0-.28-.82c-8.875-8.752-8.974-23.04-.223-31.915s23.04-8.974 31.915-.223 8.974 23.04.223 31.915zm-10.525-7.186h-.802v-14.273c0-.533-.432-.966-.966-.966h-8.334c-.533 0-.966.432-.966.966v3.476c0 .533.432.966.966.966h.8v9.83h-.8c-.533 0-.966.432-.966.966v3.476c0 .533.432.966.966.966h10.1c.533 0 .966-.432.966-.966v-3.476c0-.533-.432-.966-.966-.966zm-9.135 3.476V360.1h.8c.533 0 .966-.432.966-.966v-11.762c0-.533-.432-.966-.966-.966h-.8v-1.545h6.393v14.273c0 .533.432.966.966.966h.802v1.545h-8.17zm3.602-28.148c-2.235 0-4.046 1.8-4.046 4.046s1.8 4.046 4.046 4.046 4.046-1.8 4.046-4.046-1.812-4.046-4.046-4.046zm0 6.17c-1.168 0-2.115-.947-2.115-2.115s.937-2.12 2.105-2.124l.01.01c1.168 0 2.115.947 2.115 2.115s-.947 2.115-2.115 2.115z" id="B" fill="#ec4a81"/><path d="M98.973 152.855A24.5 24.5 0 0 0 87.494 150c-13.533.003-24.5 10.977-24.498 24.5.002 6.377 2.5 12.502 6.934 17.075l-.984 7.266c-.1.536.27 1.044.806 1.135a.99.99 0 0 0 .71-.15l5.553-3.682c11.956 6.34 26.788 1.786 33.128-10.17s1.786-26.788-10.17-33.128zm4.6 37.56c-4.257 4.27-10.048 6.656-16.078 6.624a22.55 22.55 0 0 1-11.085-2.953c-.305-.176-.68-.176-.984 0L71.2 196.88l.788-5.582c.042-.308-.063-.62-.286-.837-8.814-8.787-8.835-23.056-.047-31.87s23.056-8.835 31.87-.047a22.54 22.54 0 0 1 .047 31.869zm-9.55-10.9a.99.99 0 0 0-.916 0l-1.97.984c-.404 0-2.55-.236-4.863-4.765-1.97-4.755-.916-6.557-.68-6.9l2.048-.906c.297-.13.5-.4.57-.72 1.33-6.9-.532-9.52-2.323-10.534-.724-.36-1.525-.535-2.333-.512a4.3 4.3 0 0 0-4.214 2.766c-1.26 3.18-2.727 9.914 1.674 19.286s10.642 12.395 13.9 13.4a4.54 4.54 0 0 0 1.349.207c2.22-.132 4.064-1.754 4.48-3.938.345-2-.55-5.1-6.734-8.388zm4.794 8.102c-.267 1.225-1.292 2.14-2.54 2.264a2.58 2.58 0 0 1-.758-.118c-2.953-.925-8.565-3.77-12.798-12.385s-2.766-14.826-1.615-17.72c.384-.998 1.387-1.618 2.45-1.516.47-.01.936.1 1.36.295 1.674.984 2.176 3.76 1.447 7.945l-1.82.778c-.08.036-.158.082-.226.138-.286.236-2.678 2.46.098 9.294 2.727 5.336 5.562 5.907 6.655 5.907a2.34 2.34 0 0 0 .512 0c.08-.02.155-.05.226-.1l1.703-.876c3.75 2.028 5.62 4.194 5.306 6.084z" id="C" fill="#ec4a81"/><g transform="matrix(.102171 0 0 .102171 237.5 150)" id="D" fill="#ec4a81"><path d="M361.3 297.364v-40c1-13.216-8.884-24.75-22.1-25.76a24.04 24.04 0 0 0-3.66 0H288.9v-47.36c.96-14.46-9.985-26.96-24.445-27.92-1.157-.077-2.318-.077-3.475 0h-88c-14.46-.96-26.96 9.985-27.92 24.445-.077 1.157-.077 2.318 0 3.475v45.44c-1 13.03 8.024 24.702 20.88 27.04v17.28a8 8 0 0 0 5.28 7.52 8.01 8.01 0 0 0 2.72.48 8 8 0 0 0 6.16-2.88l18.08-21.6h33.6v40c-.918 13.223 9.056 24.687 22.28 25.605a23.98 23.98 0 0 0 3.401-.005h5.52l16.64 19.92a8 8 0 0 0 11.264 1.056c1.838-1.523 2.9-3.788 2.896-6.176v-14.8h41.76c13.216 1 24.75-8.884 25.76-22.1.094-1.218.094-2.442 0-3.66zm-125.2-55.68H194.4a8 8 0 0 0-5.76 3.04l-6.32 7.6v-2.4a8.64 8.64 0 0 0-8.72-8 10.56 10.56 0 0 1-11.92-8.997 10.6 10.6 0 0 1 0-2.923l-.48-45.76a10.56 10.56 0 0 1 8.997-11.92 10.6 10.6 0 0 1 2.923 0h88a10.56 10.56 0 0 1 11.92 8.997 10.6 10.6 0 0 1 0 2.923v45.44a14.71 14.71 0 0 1 0 1.68h-15.6c-8.383-.28-16.368 3.58-21.36 10.32zm109.2 55.36c0 9.76-7.04 9.76-9.76 9.76H285.7a8 8 0 0 0-8 8v.72l-4.96-5.92a8 8 0 0 0-6.16-2.88h-9.12c-9.76 0-9.76-7.04-9.76-9.76v-40c-.045-1.46.144-2.92.56-4.32.88-2.72 3.2-5.36 9.2-5.36h78.08c9.76 0 9.76 7.04 9.76 9.76v40zm143.92 91.04v-19.28c0-9.588-7.772-17.36-17.36-17.36h-20.72v-250.16c1.77-16.962-10.544-32.15-27.506-33.92a30.83 30.83 0 0 0-6.414 0H72C55.048 65.594 39.86 77.908 38.1 94.87a30.83 30.83 0 0 0 0 6.414v250.16H17.53c-9.588 0-17.36 7.772-17.36 17.36v19.28c-1.77 16.962 10.544 32.15 27.506 33.92a30.83 30.83 0 0 0 6.414 0H455.2c16.958 1.816 32.177-10.46 33.992-27.417.232-2.16.235-4.34.008-6.503zM54 101.284c0-12.56 5.36-17.92 17.92-17.92h345.44c12.56 0 17.92 5.36 17.92 17.92v22.24H54v-22.24zm0 38.24H435.3v210.56a1.36 1.36 0 0 1-1.36 1.36H55.37a1.36 1.36 0 0 1-1.36-1.36v-210.56zm401.12 266.56H34.1c-12.56 0-17.92-5.36-17.92-17.92v-19.36a1.36 1.36 0 0 1 1.36-1.36h454.24a1.36 1.36 0 0 1 1.36 1.36v19.36c0 12.56-5.36 17.92-18 17.92z"/><circle cx="244" cy="103" r="10"/></g></defs><pattern id="E" width="350" height="350" patternUnits="userSpaceOnUse"><use xlink:href="#A" x="-350" y="-350"/><use xlink:href="#A" y="-350"/><use xlink:href="#A" x="350" y="-350"/><use xlink:href="#A" x="-350"/><use xlink:href="#A"/><use xlink:href="#A" x="350"/><use xlink:href="#A" x="-350" y="350"/><use xlink:href="#A" y="350"/><use xlink:href="#A" x="350" y="350"/></pattern><path fill="url(#E)" d="M0 0h350v350H0z"/><pattern id="F" width="350" height="350" patternUnits="userSpaceOnUse"><use xlink:href="#B" x="-350" y="-350"/><use xlink:href="#B" y="-350"/><use xlink:href="#B" x="350" y="-350"/><use xlink:href="#B" x="-350"/><use xlink:href="#B"/><use xlink:href="#B" x="350"/><use xlink:href="#B" x="-350" y="350"/><use xlink:href="#B" y="350"/><use xlink:href="#B" x="350" y="350"/></pattern><path fill="url(#F)" d="M0 0h350v350H0z"/><pattern id="G" width="350" height="350" patternUnits="userSpaceOnUse"><use xlink:href="#C" x="-350" y="-350"/><use xlink:href="#C" y="-350"/><use xlink:href="#C" x="350" y="-350"/><use xlink:href="#C" x="-350"/><use xlink:href="#C"/><use xlink:href="#C" x="350"/><use xlink:href="#C" x="-350" y="350"/><use xlink:href="#C" y="350"/><use xlink:href="#C" x="350" y="350"/></pattern><path fill="url(#G)" d="M0 0h350v350H0z"/><pattern id="H" width="350" height="350" patternUnits="userSpaceOnUse"><use xlink:href="#D" x="-350" y="-350"/><use xlink:href="#D" y="-350"/><use xlink:href="#D" x="350" y="-350"/><use xlink:href="#D" x="-350"/><use xlink:href="#D"/><use xlink:href="#D" x="350"/><use xlink:href="#D" x="-350" y="350"/><use xlink:href="#D" y="350"/><use xlink:href="#D" x="350" y="350"/></pattern><path fill="url(#H)" d="M0 0h350v350H0z"/></svg>