<svg xmlns="http://www.w3.org/2000/svg" xmlns:xlink="http://www.w3.org/1999/xlink" width="400" height="400" viewBox="0 0 350 350"><use xlink:href="#I" opacity="0" fill="#c94187"/><defs><path d="M87.05 81.544c.23.288.667.288.9 0l3.65-4.638c.297-.37.025-.914-.445-.914h-1.433V67.87a.37.37 0 0 0-.371-.371h-3.7a.37.37 0 0 0-.371.371v8.122h-1.433c-.47 0-.74.544-.445.914l3.65 4.638zm17.925 2.323h-3.682L96.73 71.643c-.288-.766-1.137-1.153-1.903-.865s-1.153 1.137-.865 1.903l4.184 11.194h-21.3L81.03 72.68c.288-.766-.1-1.614-.865-1.903s-1.614.1-1.903.865L73.7 83.867h-3.674a2.17 2.17 0 0 0-2.166 2.166v3.6a2.17 2.17 0 0 0 2.166 2.166h1.606l2.562 13.072c.305 1.466 1.722 2.628 3.188 2.628h20.255c1.466 0 2.883-1.16 3.188-2.628l2.562-13.072h1.606a2.17 2.17 0 0 0 2.166-2.166v-3.6a2.17 2.17 0 0 0-2.175-2.166zm-22.908 13.08v5.667c0 .807-.66 1.417-1.417 1.417-.807 0-1.417-.66-1.417-1.417v-7.932c0-.807.66-1.417 1.417-1.417.807 0 1.417.66 1.417 1.417v2.265zm4.555 0v5.667c0 .807-.66 1.417-1.417 1.417-.807 0-1.417-.66-1.417-1.417v-7.932c0-.807.66-1.417 1.417-1.417a1.45 1.45 0 0 1 1.417 1.417v2.265zm4.58 3.287v2.372a1.41 1.41 0 1 1-2.834 0v-7.94a1.45 1.45 0 0 1 1.417-1.417 1.41 1.41 0 0 1 1.417 1.417v5.568zm4.547 0v2.372a1.41 1.41 0 1 1-2.834 0v-7.94a1.41 1.41 0 1 1 2.834 0v5.568z" id="A" fill="#ec4a81"/><path d="M383.43 178.9l-1.063-1.446c-1.148-1.588-1.176-3.728-.043-5.315l1.035-1.46a4.55 4.55 0 0 0-1.573-6.648l-1.588-.85a4.55 4.55 0 0 1-2.339-4.777l.298-1.772a4.56 4.56 0 0 0-4.309-5.315l-1.786-.07c-1.956-.085-3.643-1.403-4.182-3.29l-.496-1.73c-.765-2.636-3.657-3.997-6.18-2.92l-1.644.71c-1.8.78-3.884.312-5.202-1.148l-1.19-1.332c-1.843-2.055-5.046-2.027-6.846.043l-1.176 1.347c-1.3 1.474-3.374 1.97-5.174 1.22l-1.658-.68a4.56 4.56 0 0 0-6.138 3.019l-.468 1.73c-.5 1.885-2.183 3.232-4.14 3.345l-1.786.1a4.56 4.56 0 0 0-4.224 5.372l.326 1.758c.354 1.928-.567 3.855-2.268 4.805l-1.573.865c-2.396 1.332-3.1 4.465-1.474 6.676l1.063 1.446c1.148 1.588 1.176 3.728.043 5.315l-1.035 1.46a4.55 4.55 0 0 0 1.573 6.648l1.588.85a4.55 4.55 0 0 1 2.339 4.777l-.298 1.772a4.56 4.56 0 0 0 4.309 5.315l1.786.07c1.956.085 3.643 1.403 4.182 3.29l.496 1.73c.765 2.636 3.657 3.997 6.18 2.92l1.644-.71c1.8-.78 3.884-.312 5.202 1.148l1.19 1.332c1.83 2.04 5.032 2.013 6.832-.057l1.176-1.347c1.3-1.474 3.374-1.97 5.174-1.22l1.658.68a4.56 4.56 0 0 0 6.138-3.019l.468-1.73c.5-1.885 2.183-3.232 4.14-3.345l1.786-.1a4.56 4.56 0 0 0 4.224-5.372l-.326-1.758c-.354-1.928.567-3.855 2.268-4.805l1.573-.865a4.54 4.54 0 0 0 1.488-6.662zm-25 7.74c-1.3 1.56-2.962 2.608-4.904 3.147-.85.227-1.233.68-1.19 1.56v2.608c0 .78-.397 1.19-1.162 1.205h-2.807c-.822-.014-1.205-.482-1.22-1.276l-.014-1.9c-.014-1.403-.057-1.46-1.403-1.673-1.73-.27-3.416-.666-4.99-1.432-1.233-.595-1.36-.907-1.006-2.21l.836-2.892c.354-1.106.652-1.247 1.673-.723 1.743.907 3.6 1.417 5.542 1.658 1.247.156 2.48.028 3.643-.482 2.17-.95 2.51-3.46.68-4.96-.624-.5-1.332-.893-2.07-1.22-1.9-.836-3.884-1.474-5.67-2.55-2.906-1.743-4.75-4.125-4.536-7.668.24-3.997 2.51-6.492 6.166-7.824 1.517-.553 1.517-.524 1.53-2.112v-1.602c.028-1.19.227-1.403 1.417-1.432h1.106c2.523 0 2.523 0 2.537 2.523.014 1.786 0 1.8 1.786 2.07 1.36.213 2.665.624 3.926 1.176.695.312.964.794.75 1.53l-.964 3.274c-.326 1.02-.652 1.176-1.644.695-1.97-.95-4.04-1.347-6.223-1.233-.567.028-1.134.113-1.658.34-1.885.822-2.197 2.906-.58 4.182.808.652 1.743 1.12 2.707 1.517l4.933 2.225c5.004 2.82 6.364 9.157 2.807 13.48z" id="B" fill="#ec4a81"/><path d="M195.47 171.225l-18.408 31.883c-.215.372-.46.737-.728 1.078a5.19 5.19 0 0 0 1.343-.18l23.64-6.334c2.86-.766 4.567-3.72 3.8-6.582l-5.665-21.14a28.79 28.79 0 0 1-3.563.49l-.418.785zm6.222-19.325l-.16-.092c-2.955-1.706-6.92-2.946-11.203-3.52a30.99 30.99 0 0 0-2.334-.227l-.01-.042c-.868-3.073-4.018-4.9-7.113-4.107l-15.13 3.815a7.66 7.66 0 0 0-4.751 3.591l-18.4 31.894a5.38 5.38 0 0 0 1.967 7.34l21.197 12.238a5.38 5.38 0 0 0 7.34-1.967l18.418-31.9a7.77 7.77 0 0 0 .974-2.953c2.716.035 5.273-.246 7.433-.84 5.35-1.464 6.495-4.283 6.707-5.835.198-1.55-.165-4.577-4.943-7.395zm-27.307 22.617l-1.524 1.455c-.494.446-.708.43-1.08-.13a7.79 7.79 0 0 0-2.934-2.58c-.3-.156-.632-.294-.987-.334-1.264-.14-2.07.87-1.602 2.06.234.595.587 1.13.977 1.638.67.882 1.368 1.757 1.938 2.7 1.83 3.04.606 6.837-2.616 8.044a5.85 5.85 0 0 1-3.589.169c-.532-.142-.873-.02-1.117.464-.248.47-.545.924-.8 1.384-.235.407-.58.514-.987.28-.506-.268-1.005-.568-1.5-.854-.428-.26-.498-.63-.253-1.054l.58-1.022c.425-.757.414-.8-.236-1.328-.838-.673-1.618-1.406-2.218-2.307-.47-.696-.453-.9.14-1.488l1.33-1.284c.528-.485.728-.464 1.113.135.648 1.023 1.486 1.86 2.444 2.6.62.477 1.313.77 2.086.862 1.45.165 2.403-1.078 1.9-2.436-.17-.463-.432-.886-.733-1.284-.753-1.025-1.62-1.974-2.24-3.1-1.012-1.823-1.267-3.67-.064-5.487 1.364-2.055 3.333-2.688 5.702-2.276.974.173.977.187 1.468-.662l.504-.853c.385-.627.553-.672 1.2-.322l.584.337c1.345.776 1.345.776.572 2.135-.552.955-.552.955.308 1.652.668.54 1.235 1.15 1.734 1.84.266.377.268.72-.077 1.053zm27.754-15.812c-.172 1.257-4.972 3.605-13.52 2.456-2.5-.33-4.918-.94-6.97-1.737-.037.085-.088.173-.125.258-1.226 2.123-3.96 2.856-6.084 1.63s-2.856-3.96-1.63-6.084 3.96-2.856 6.084-1.63c1.274.736 2.03 1.998 2.197 3.345 1.96.73 4.23 1.275 6.573 1.6a40.74 40.74 0 0 0 2.384.244l-1.706-6.034c.14.022.263.034.404.056 3.66.485 7.12 1.562 9.543 2.962l.106.06c2.304 1.342 2.8 2.465 2.747 2.883z" id="C" fill="#ec4a81"/><g transform="matrix(.102453 0 0 .102453 62.5 237.5)" id="D" fill="#ec4a81"><circle cx="179" cy="202" r="20"/><circle cx="308" cy="285" r="20"/><path d="M476.963 270.963l-7.4-10.1c-8-11-8.2-25.9-.3-37.1l7.2-10.2c11-15.6 5.9-37.3-11-46.4l-11-5.9c-12-6.4-18.6-19.8-16.3-33.3l2.1-12.3c3.2-18.8-10.9-36.2-30-37l-12.5-.5c-13.6-.6-25.4-9.8-29.2-22.9l-3.5-12c-5.3-18.4-25.5-27.9-43.1-20.3l-11.5 4.9a31.69 31.69 0 0 1-36.2-8l-8.3-9.3c-12.7-14.2-35-14.1-47.6.4l-8.2 9.4c-9 10.3-23.5 13.7-36.1 8.5l-11.6-4.8c-17.7-7.3-37.7 2.6-42.8 21l-3.3 12.1c-3.6 13.2-15.2 22.6-28.8 23.3l-12.5.7c-19.1 1.1-32.9 18.7-29.4 37.5l2.3 12.3c2.5 13.4-3.9 26.9-15.8 33.5l-10.9 6.1c-16.7 9.3-21.5 31.1-10.2 46.5l7.4 10.1c8 11 8.2 25.9.3 37.1l-7.2 10.2c-11 15.6-5.9 37.3 11 46.4l11 5.9c12 6.4 18.6 19.8 16.3 33.3l-2.1 12.3c-3.2 18.8 10.9 36.2 30 37l12.5.5c13.6.6 25.4 9.8 29.2 22.9l3.5 12c5.3 18.4 25.5 27.9 43.1 20.3l11.5-4.9a31.69 31.69 0 0 1 36.2 8l8.3 9.3c12.8 14.2 35.1 14.1 47.6-.4l8.2-9.4c9-10.3 23.5-13.7 36.1-8.5l11.6 4.8c17.7 7.3 37.7-2.6 42.8-21l3.3-12.1c3.6-13.2 15.2-22.6 28.8-23.3l12.5-.7c19.1-1.1 32.9-18.7 29.4-37.5l-2.3-12.3c-2.5-13.4 3.9-26.9 15.8-33.5l10.9-6.1c16.7-9.2 21.5-31 10.2-46.5zm-347.1-68.4c0-27.2 22-49.2 49.2-49.2s49.2 22 49.2 49.2-22 49.2-49.2 49.2-49.2-22.1-49.2-49.2zm58.7 126.9c-4.2 5.1-11.8 5.8-16.9 1.6s-5.8-11.8-1.6-16.9l129.1-155.5c4.2-5.1 11.8-5.8 16.9-1.6s5.8 11.8 1.6 16.9l-129.1 155.5zm120.2 5.1c-27.2 0-49.2-22-49.2-49.2s22-49.2 49.2-49.2 49.2 22 49.2 49.2-22 49.2-49.2 49.2z"/></g><path d="M304.143 272.607v-9.664c0-3.67-2.95-6.62-6.62-6.62l-4.574-.72-7.838-11.803c-.11-.092-.203-.314-.314-.406-1.217-1.623-3.154-2.748-5.404-2.748H264.53v-4.113c0-2.084-1.55-3.78-3.467-3.78h-40.094c-1.918 0-3.467 1.697-3.467 3.78v44.63c0 2.14 1.734 3.762 3.762 3.762h5.404c1.217 4.28 5.1 7.322 9.775 7.322s8.557-3.154 9.775-7.322h33.29c1.217 4.28 5.1 7.322 9.775 7.322s8.557-3.154 9.775-7.322h4.684c2.14 0 3.762-1.734 3.762-3.762v-4.777c0-1.955-1.53-3.578-3.357-3.78zm-67.703 14.55c-2.86 0-5.1-2.342-5.1-5.1s2.342-5.1 5.1-5.1c2.86 0 5.1 2.342 5.1 5.1s-2.232 5.1-5.1 5.1zM271.5 256c-.258 0-.48-.203-.48-.48v-9.35c0-.258.203-.48.48-.48h8.078c.166 0 .314.074.387.203l6.29 9.35c.203.314-.018.738-.387.738H271.5V256zm17.78 31.168c-2.86 0-5.1-2.342-5.1-5.1s2.342-5.1 5.1-5.1c2.86 0 5.1 2.342 5.1 5.1s-2.342 5.1-5.1 5.1z" id="E" fill="#ec4a81"/><path d="M24.415 332.954l.785-2.93a19.21 19.21 0 0 0-13.563-23.491 19.21 19.21 0 0 0-23.491 13.563l-.785 2.93-13.465-3.608-14.412 53.787c-1.728 6.448 2.108 13.092 8.556 14.82l40.607 10.88c6.448 1.728 13.092-2.108 14.82-8.556l14.412-53.787-13.465-3.608zm-36.144 4.937c-2.167-.58-3.454-2.8-2.874-4.978s2.8-3.454 4.978-2.874 3.454 2.8 2.874 4.978c-.585 2.185-2.8 3.454-4.978 2.874zm27.6-7.226l-19.966-5.35.785-2.93c1.475-5.507 7.15-8.784 12.658-7.308s8.784 7.15 7.308 12.658l-.785 2.93zm.324 14.708c-2.167-.58-3.454-2.8-2.874-4.978s2.8-3.454 4.978-2.874 3.454 2.8 2.874 4.978c-.603 2.18-2.8 3.454-4.978 2.874z" id="F" fill="#ec4a81"/><path d="M271.387 79.684v3.04a.75.75 0 0 0 1.13.648l9.6-5.548c.498-.3.498-1.013 0-1.304l-9.6-5.54c-.498-.3-1.13.075-1.13.648v3.04h-8.098a11.51 11.51 0 0 1 .266 2.467c0 .88-.1 1.728-.266 2.558h8.098v-.008zm-17.774 15.698v-3.04a.75.75 0 0 0-1.13-.648l-9.6 5.548c-.498.3-.498 1.013 0 1.304l9.6 5.548c.498.3 1.13-.075 1.13-.648v-3.04h8.148a11.84 11.84 0 0 1-.274-2.508 11.24 11.24 0 0 1 .274-2.508h-8.148v-.008zm-1.885-8.978c5.075-.017 9.178-4.16 9.16-9.26s-4.153-9.2-9.228-9.186c-5.083.017-9.178 4.16-9.16 9.252.017 5.1 4.153 9.2 9.228 9.194zm-5.125-10.73h1.055c.075-.257.14-.523.25-.772.532-1.296 1.42-2.218 2.766-2.658 1.113-.365 2.234-.357 3.355-.05a6.17 6.17 0 0 1 .855.307c.266.125.34.332.233.6-.116.3-.233.573-.365.855-.116.25-.257.324-.532.266-.35-.075-.7-.183-1.038-.257-.673-.14-1.346-.15-2 .066-.83.266-1.27.872-1.537 1.653l2.26-.008c.174 0 .324.14.324.316v.714c0 .174-.14.324-.316.324l-2.475.008v.58l2.467-.008c.174 0 .324.14.324.316v.714c0 .174-.14.324-.316.324l-2.16.008v.025c.257.6.64 1.063 1.262 1.304.723.282 1.462.274 2.2.116.35-.075.698-.183 1.047-.266a.39.39 0 0 1 .515.257 25.53 25.53 0 0 1 .365.839c.108.266.05.457-.2.606a1.35 1.35 0 0 1-.191.091c-1.038.407-2.1.565-3.223.4-.78-.125-1.512-.4-2.135-.872-.797-.615-1.312-1.42-1.6-2.375l-.042-.108-1.113.008c-.174 0-.324-.14-.324-.316v-.714c0-.174.14-.324.316-.324h.872v-.58h-.872c-.174 0-.324-.14-.324-.316v-.714c0-.2.14-.34.316-.34zm26.703 13.064a9.153 9.153 0 1 0 0 18.306 9.15 9.15 0 0 0 9.153-9.153c0-5.05-4.095-9.153-9.153-9.153zm2.633 12.766a2.98 2.98 0 0 1-1.528.98c-.266.075-.382.208-.374.5.008.266 0 .54 0 .814 0 .24-.125.374-.357.374-.3.008-.58.008-.872 0-.257-.008-.374-.15-.382-.4l-.008-.6c-.008-.432-.017-.457-.44-.523-.54-.083-1.063-.208-1.553-.45-.382-.2-.424-.282-.316-.7l.257-.897c.108-.35.2-.4.523-.224.54.282 1.12.44 1.72.515.4.05.772.008 1.13-.15.673-.3.78-1.07.208-1.545-.2-.158-.415-.274-.64-.374-.6-.257-1.204-.457-1.76-.8-.905-.54-1.478-1.287-1.412-2.384.075-1.246.78-2.018 1.92-2.434.473-.174.473-.166.473-.656v-.498c.008-.374.075-.432.44-.45h.34c.8 0 .8 0 .8.8 0 .556 0 .556.556.648.424.066.83.2 1.22.365.216.1.3.25.233.473l-.3 1.013c-.1.316-.208.365-.507.216-.615-.3-1.254-.424-1.935-.382-.174.008-.35.033-.515.108-.6.257-.68.905-.183 1.304.25.2.54.35.84.473.515.216 1.038.424 1.537.7 1.578.864 2.002 2.832.897 4.178z" id="G" fill="#ec4a81"/><path d="M199.75 336.466c-1.08-1.315-2.717-2.047-4.416-2.047h-36.88a5.58 5.58 0 0 0-2.928.831l-1.886-6.587a2.51 2.51 0 0 0-2.407-1.823h-8.336a1.9 1.9 0 0 0-1.898 1.898v.198a1.9 1.9 0 0 0 1.898 1.898h7.17l3.66 12.938 5.036 17.85c-2.865.72-4.987 3.312-4.987 6.388 0 3.486 2.717 6.35 6.153 6.574-.285.82-.422 1.724-.347 2.655.248 3.15 2.816 5.694 5.967 5.905 3.76.26 6.897-2.73 6.897-6.426 0-.744-.124-1.45-.36-2.12h7.542a6.48 6.48 0 0 0-.323 2.865c.347 3.052 2.865 5.458 5.942 5.68 3.76.26 6.91-2.717 6.91-6.426 0-3.585-2.977-6.45-6.55-6.45h-25.194c-1.228 0-2.27-.955-2.32-2.17-.05-1.3.98-2.344 2.258-2.344h30.057c2.555 0 4.788-1.75 5.408-4.23l5.01-20.17c.434-1.737.037-3.51-1.08-4.887zm-14.03 38.12a2.13 2.13 0 0 1 2.121 2.121 2.13 2.13 0 0 1-2.121 2.121 2.13 2.13 0 0 1-2.121-2.121 2.12 2.12 0 0 1 2.121-2.121zm-19.71 0a2.13 2.13 0 0 1 2.121 2.121 2.13 2.13 0 0 1-2.121 2.121 2.13 2.13 0 0 1-2.121-2.121 2.12 2.12 0 0 1 2.121-2.121zm-7.8-30.838l-.968-3.41a1.19 1.19 0 0 1 .211-1.092 1.22 1.22 0 0 1 .992-.496h4.044l1.104 5.01h-5.384v-.012zm1.216 4.317h5.11l1.017 4.64h-4.825l-1.302-4.64zm4.7 13.347c-.558 0-1.054-.372-1.203-.918l-.98-3.473h4.553l.968 4.38h-3.337v.012zm10.804 0h-3.052l-.968-4.38h4.007v4.38h.012zm0-8.708h-4.962l-1.017-4.64h5.98v4.64zm0-8.956h-6.922l-1.104-5.01h8.026v5.01zm7.74 17.664h-3.41v-4.38h4.33l-.918 4.38zm1.836-8.708h-5.247v-4.64h6.227l-.98 4.64zm-5.247-8.956v-5.01h8.187l-1.054 5.01h-7.133zm12.367 16.722a1.25 1.25 0 0 1-1.216.955h-3.324l.93-4.38h4.466l-.856 3.424zm1.923-7.765h-4.627l.98-4.64h4.8l-1.154 4.64zm3.076-12.417l-.856 3.45h-4.962l1.054-5.01h3.548a1.19 1.19 0 0 1 .98.484c.15.186.372.57.236 1.08z" id="H" fill="#ec4a81"/><path id="I" d="M0 0h350v350H0z"/></defs><pattern id="J" width="350" height="350" patternUnits="userSpaceOnUse"><use xlink:href="#A" x="-350" y="-350"/><use xlink:href="#A" y="-350"/><use xlink:href="#A" x="350" y="-350"/><use xlink:href="#A" x="-350"/><use xlink:href="#A"/><use xlink:href="#A" x="350"/><use xlink:href="#A" x="-350" y="350"/><use xlink:href="#A" y="350"/><use xlink:href="#A" x="350" y="350"/></pattern><use xlink:href="#I" fill="url(#J)"/><pattern id="K" width="350" height="350" patternUnits="userSpaceOnUse"><use xlink:href="#B" x="-350" y="-350"/><use xlink:href="#B" y="-350"/><use xlink:href="#B" x="350" y="-350"/><use xlink:href="#B" x="-350"/><use xlink:href="#B"/><use xlink:href="#B" x="350"/><use xlink:href="#B" x="-350" y="350"/><use xlink:href="#B" y="350"/><use xlink:href="#B" x="350" y="350"/></pattern><use xlink:href="#I" fill="url(#K)"/><pattern id="L" width="350" height="350" patternUnits="userSpaceOnUse"><use xlink:href="#C" x="-350" y="-350"/><use xlink:href="#C" y="-350"/><use xlink:href="#C" x="350" y="-350"/><use xlink:href="#C" x="-350"/><use xlink:href="#C"/><use xlink:href="#C" x="350"/><use xlink:href="#C" x="-350" y="350"/><use xlink:href="#C" y="350"/><use xlink:href="#C" x="350" y="350"/></pattern><use xlink:href="#I" fill="url(#L)"/><pattern id="M" width="350" height="350" patternUnits="userSpaceOnUse"><use xlink:href="#D" x="-350" y="-350"/><use xlink:href="#D" y="-350"/><use xlink:href="#D" x="350" y="-350"/><use xlink:href="#D" x="-350"/><use xlink:href="#D"/><use xlink:href="#D" x="350"/><use xlink:href="#D" x="-350" y="350"/><use xlink:href="#D" y="350"/><use xlink:href="#D" x="350" y="350"/></pattern><use xlink:href="#I" fill="url(#M)"/><pattern id="N" width="350" height="350" patternUnits="userSpaceOnUse"><use xlink:href="#E" x="-350" y="-350"/><use xlink:href="#E" y="-350"/><use xlink:href="#E" x="350" y="-350"/><use xlink:href="#E" x="-350"/><use xlink:href="#E"/><use xlink:href="#E" x="350"/><use xlink:href="#E" x="-350" y="350"/><use xlink:href="#E" y="350"/><use xlink:href="#E" x="350" y="350"/></pattern><use xlink:href="#I" fill="url(#N)"/><pattern id="O" width="350" height="350" patternUnits="userSpaceOnUse"><use xlink:href="#F" x="-350" y="-350"/><use xlink:href="#F" y="-350"/><use xlink:href="#F" x="350" y="-350"/><use xlink:href="#F" x="-350"/><use xlink:href="#F"/><use xlink:href="#F" x="350"/><use xlink:href="#F" x="-350" y="350"/><use xlink:href="#F" y="350"/><use xlink:href="#F" x="350" y="350"/></pattern><use xlink:href="#I" fill="url(#O)"/><pattern id="P" width="350" height="350" patternUnits="userSpaceOnUse"><use xlink:href="#G" x="-350" y="-350"/><use xlink:href="#G" y="-350"/><use xlink:href="#G" x="350" y="-350"/><use xlink:href="#G" x="-350"/><use xlink:href="#G"/><use xlink:href="#G" x="350"/><use xlink:href="#G" x="-350" y="350"/><use xlink:href="#G" y="350"/><use xlink:href="#G" x="350" y="350"/></pattern><use xlink:href="#I" fill="url(#P)"/><pattern id="Q" width="350" height="350" patternUnits="userSpaceOnUse"><use xlink:href="#H" x="-350" y="-350"/><use xlink:href="#H" y="-350"/><use xlink:href="#H" x="350" y="-350"/><use xlink:href="#H" x="-350"/><use xlink:href="#H"/><use xlink:href="#H" x="350"/><use xlink:href="#H" x="-350" y="350"/><use xlink:href="#H" y="350"/><use xlink:href="#H" x="350" y="350"/></pattern><use xlink:href="#I" fill="url(#Q)"/></svg>