<svg xmlns="http://www.w3.org/2000/svg" xmlns:xlink="http://www.w3.org/1999/xlink" width="400" height="400" viewBox="0 0 350 350"><path opacity="0" fill="#fff" d="M0 0h350v350H0z"/><defs><path d="M385 328.296a29.92 29.92 0 0 1-8.269 2.266c2.975-1.776 5.246-4.567 6.313-7.932-2.774 1.654-5.836 2.822-9.1 3.474a14.38 14.38 0 0 0-10.482-4.541 14.35 14.35 0 0 0-14.341 14.354c0 1.137.096 2.23.332 3.272-11.93-.582-22.488-6.3-29.58-15.01-1.238 2.148-1.964 4.607-1.964 7.254 0 4.97 2.56 9.376 6.374 11.926-2.306-.044-4.567-.713-6.484-1.767v.157c0 6.974 4.974 12.766 11.498 14.1-1.168.32-2.44.472-3.762.472-.92 0-1.846-.053-2.717-.245 1.86 5.683 7.136 9.86 13.41 9.997-4.882 3.82-11.082 6.12-17.793 6.12-1.177 0-2.306-.052-3.434-.197 6.357 4.1 13.89 6.44 22.015 6.44 26.408 0 40.845-21.875 40.845-40.836 0-.634-.022-1.247-.053-1.855 2.848-2.02 5.24-4.546 7.192-7.45z" id="A" fill="#ec4a81"/><path d="M281.25 150h-37.5a6.26 6.26 0 0 0-6.25 6.25v37.5a6.26 6.26 0 0 0 6.25 6.25h18.75v-17.187h-6.25V175h6.25v-6.25c0-5.178 4.197-9.375 9.375-9.375h6.25v7.813H275c-1.725 0-3.125-.162-3.125 1.563V175h7.813l-3.125 7.813h-4.687V200h9.375a6.26 6.26 0 0 0 6.25-6.25v-37.5a6.26 6.26 0 0 0-6.25-6.25z" id="B" fill="#ec4a81"/><g transform="matrix(.097656 0 0 .097656 150 325)" id="C" fill="#ec4a81"><path d="M352 0H160C71.648 0 0 71.648 0 160v192c0 88.352 71.648 160 160 160h192c88.352 0 160-71.648 160-160V160C512 71.648 440.352 0 352 0zm112 352c0 61.76-50.24 112-112 112H160c-61.76 0-112-50.24-112-112V160C48 98.24 98.24 48 160 48h192c61.76 0 112 50.24 112 112v192zM256 128c-70.688 0-128 57.312-128 128s57.312 128 128 128 128-57.312 128-128-57.312-128-128-128zm0 208c-44.096 0-80-35.904-80-80 0-44.128 35.904-80 80-80s80 35.872 80 80c0 44.096-35.904 80-80 80z"/><circle cx="393" cy="118" r="17"/></g><path d="M67.187 150l-3.125 9.375v34.375h12.5V200h6.25l6.25-6.25h9.375l12.5-13.312V150h-43.75zm40.625 28.125l-8.75 9.375H87.98l-6.73 4.897V187.5H70.312v-34.375h37.5v25zM85.937 162.5h3.125V175h-3.125zm9.375 0h3.125V175h-3.125z" id="D" fill="#ec4a81"/></defs><pattern id="E" width="350" height="350" patternUnits="userSpaceOnUse"><use xlink:href="#A" x="-350" y="-350"/><use xlink:href="#A" y="-350"/><use xlink:href="#A" x="350" y="-350"/><use xlink:href="#A" x="-350"/><use xlink:href="#A"/><use xlink:href="#A" x="350"/><use xlink:href="#A" x="-350" y="350"/><use xlink:href="#A" y="350"/><use xlink:href="#A" x="350" y="350"/></pattern><path fill="url(#E)" d="M0 0h350v350H0z"/><pattern id="F" width="350" height="350" patternUnits="userSpaceOnUse"><use xlink:href="#B" x="-350" y="-350"/><use xlink:href="#B" y="-350"/><use xlink:href="#B" x="350" y="-350"/><use xlink:href="#B" x="-350"/><use xlink:href="#B"/><use xlink:href="#B" x="350"/><use xlink:href="#B" x="-350" y="350"/><use xlink:href="#B" y="350"/><use xlink:href="#B" x="350" y="350"/></pattern><path fill="url(#F)" d="M0 0h350v350H0z"/><pattern id="G" width="350" height="350" patternUnits="userSpaceOnUse"><use xlink:href="#C" x="-350" y="-350"/><use xlink:href="#C" y="-350"/><use xlink:href="#C" x="350" y="-350"/><use xlink:href="#C" x="-350"/><use xlink:href="#C"/><use xlink:href="#C" x="350"/><use xlink:href="#C" x="-350" y="350"/><use xlink:href="#C" y="350"/><use xlink:href="#C" x="350" y="350"/></pattern><path fill="url(#G)" d="M0 0h350v350H0z"/><pattern id="H" width="350" height="350" patternUnits="userSpaceOnUse"><use xlink:href="#D" x="-350" y="-350"/><use xlink:href="#D" y="-350"/><use xlink:href="#D" x="350" y="-350"/><use xlink:href="#D" x="-350"/><use xlink:href="#D"/><use xlink:href="#D" x="350"/><use xlink:href="#D" x="-350" y="350"/><use xlink:href="#D" y="350"/><use xlink:href="#D" x="350" y="350"/></pattern><path fill="url(#H)" d="M0 0h350v350H0z"/></svg>