<svg xmlns="http://www.w3.org/2000/svg" xmlns:xlink="http://www.w3.org/1999/xlink" width="400" height="400" viewBox="0 0 350 350"><style><![CDATA[.B{fill:#ec4a81}]]></style><use xlink:href="#K" opacity="0" fill="#fff"/><defs><g id="A" class="B"><path d="M86.128 78.62c0-8.446-6.87-15.318-15.318-15.318a15.25 15.25 0 0 0-5.331.958c-5.825 2.17-9.986 7.788-9.986 14.36v2.795a.88.88 0 0 0 .279.638l13.6 12.603-6.1 2.982c-.98.48-1.612 1.493-1.612 2.583v3.813c0 1.2.566 2.333 1.512 3.053.7.527 1.532.786 2.397.786h10.697a3.89 3.89 0 0 0 1.61-.352c1.028-.473 1.82-1.404 2.105-2.5a3.91 3.91 0 0 0 .128-.986v-3.813a2.88 2.88 0 0 0-1.612-2.583L72.4 94.65l13.453-12.603a.88.88 0 0 0 .275-.636v-2.79zm-15.244 24.888a2.17 2.17 0 0 1-2.169-2.169 2.17 2.17 0 0 1 2.169-2.169 2.17 2.17 0 0 1 2.169 2.169 2.17 2.17 0 0 1-2.169 2.169zM57.238 78.305a13.58 13.58 0 0 1 .57-3.592 13.54 13.54 0 0 1 1.521-3.331 13.73 13.73 0 0 1 2.283-2.739 13.59 13.59 0 0 1 2.875-2.036 13.5 13.5 0 0 1 3.3-1.225l.415-.087c-1.602 1.68-3.522 4.436-3.522 8v7.236h-7.445v-1.92l.004-.314zm7.72 3.98l3.702 9.346-10.078-9.346zm1.873 0h7.97l-3.93 10.203zm9.837 0h6.386l-9.992 9.36zm7.718-3.665v1.924H76.94v-4.87a.87.87 0 1 0-1.741 0v4.87h-8.78v-7.237c0-4.096 3.16-7.05 4.392-8.045.78.626 2.33 2.03 3.364 4.026a.87.87 0 0 0 .774.47c.135 0 .272-.03.4-.098a.87.87 0 0 0 .372-1.174c-.675-1.3-1.53-2.375-2.3-3.192 6.246 1.217 10.976 6.73 10.976 13.326zM64.037 99.2l5.977-2.926v1.253c-1.738.397-3.04 1.954-3.04 3.8a3.89 3.89 0 0 0 .659 2.169H63.4v-3.287c0-.43.25-.83.636-1.02zm1.462 6.93a2.1 2.1 0 0 1-.914-.21 2.11 2.11 0 0 1-.795-.673h14.188a2.11 2.11 0 0 1-.798.675c-.534.256-1.118.208-1.692.208h-9.97zm12.87-5.9v3.287h-4.233c.416-.62.66-1.367.66-2.17 0-1.857-1.3-3.414-3.04-3.8v-1.253L77.73 99.2a1.14 1.14 0 0 1 .636 1.019zm-7.002.395a.88.88 0 0 0-1.315.976.88.88 0 0 0 .804.618.88.88 0 0 0 .838-.55.88.88 0 0 0-.326-1.044zm0 0"/><path d="M75.347 71.773a.88.88 0 0 0 .036 1.017c.218.283.6.403.94.3a.88.88 0 0 0 .617-.778.88.88 0 0 0-.563-.869c-.376-.14-.805.001-1.03.33zm0 0"/></g><path d="M192.776 78.934l-1.822-1.375c-.15-.114-.342-.163-.53-.135s-.356.13-.467.283l-.198.272-4.268-3.457 1.02-1.352a2.19 2.19 0 0 0 1.438-.849c.354-.47.504-1.048.422-1.63s-.385-1.097-.854-1.45-1.048-.504-1.63-.422-1.097.385-1.45.854-.502 1.04-.424 1.62l-.953 1.263-.592-.48.133-.177c.113-.15.162-.338.136-.523a.71.71 0 0 0-.274-.466l-5.947-4.485.067-.1a.71.71 0 0 0-.138-.99c-.31-.236-.754-.173-1 .138l-3.98 5.274-6.798-5.138 3.56-4.718 2.84 2.146a.71.71 0 0 0 .99-.138c.236-.31.173-.754-.138-1l-2.84-2.147.03-.042a.7.7 0 0 0 .135-.524c-.027-.186-.125-.353-.276-.466l-1.962-1.47c-.3-.233-.752-.17-.987.14l-.2.264c-.828-.074-2.5.08-4.008 2.077s-1.204 3.667-.913 4.446l-.183.242a.7.7 0 0 0-.135.524c.027.186.125.353.276.466l1.962 1.47c.078.058.163.098.252.12.267.067.56-.027.735-.26l.01-.015 7.36 5.563a.71.71 0 0 0 .757.06c.146-.078.237-.205.334-.334l.984.742c-.282 1.127.23 2.257 1.176 2.8l-1.376 5.504-1.083-.27c-.378-.095-.762.136-.856.514l-1.3 5.158-6.27 5.663-3.03-.758c-.378-.095-.762.135-.856.514s.136.762.514.856l19.65 4.913c.378.095.762-.135.856-.514s-.135-.762-.514-.856l-2.575-.644-2.868-7.947 1.3-5.158c.095-.378-.135-.762-.514-.856l-1.083-.27 1.376-5.504a2.52 2.52 0 0 0 1.177-.344l1.24.936c.078.06.164.1.253.12.267.067.56-.027.735-.26l.168-.223 7.667 5.538-.26.356c-.227.3-.162.747.146.98l1.822 1.375c.076.058.163.1.254.12a.75.75 0 0 0 .275.013c.187-.028.356-.13.467-.283l3.165-4.348a.71.71 0 0 0-.145-.98zm-30.68-16.303c.046-.545.26-1.238.856-2.027s1.2-1.182 1.707-1.37l-2 2.663zm.197 2.083l4.443-5.9.832.624-.03.04-4.423 5.863-.832-.623zm2.924 27.855l5.447-4.92.718.18-.364 1.458-4.218 3.677zm6.133-1.698l1.36 3.57-4.24-1.06zm3.03 4l-1.992-5.23.364-1.458.718.18 2.5 6.904zm-.886-7.958l-2.166-.542 1-3.996 2.167.542-1 3.996zm12.073-16.38c.2-.264.554-.378.87-.276s.536.398.546.728a.79.79 0 0 1-.496.753c-.28.1-.605.05-.826-.154-.292-.27-.334-.732-.094-1.052zm-.813 2.136c.076.065.157.127.24.18l-.6.794-.234-.2zm-9.307 1.83a1.12 1.12 0 0 1-.812-1.354 1.13 1.13 0 0 1 1.354-.813c.3.075.54.264.686.5a1.12 1.12 0 0 1 .126.845 1.11 1.11 0 0 1-.273.496c-.268.283-.677.417-1.08.316zm2.522.07a2.56 2.56 0 0 0 .202-.54 2.52 2.52 0 0 0-1.84-3.066 2.53 2.53 0 0 0-2.34.605l-.857-.646 2.534-3.36 5.384 4.06-2.534 3.36zm2.27.478l1.382-1.832 7.3 5.92-1.044 1.435zm8.8 7.816l-.694-.524 2.333-3.206.694.524zm-5.93 14.3c-.207-.227-.547-.295-.825-.164a.71.71 0 0 0-.401.696.71.71 0 0 0 .5.618.71.71 0 0 0 .726-1.15zm-10.053-32.875a.71.71 0 0 0 .572.59.71.71 0 0 0 .679-1.133.71.71 0 0 0-.8-.22.71.71 0 0 0-.449.764zm0 0" id="B" class="B"/><g id="C" class="B"><path d="M274.208 74.6a5.39 5.39 0 1 0-.957 10.806 5.43 5.43 0 0 0 1.132-.018c2.488-.302 4.52-2.312 4.75-4.907a5.43 5.43 0 0 0-4.925-5.88zm3.06 5.716a3.56 3.56 0 0 1-3.852 3.225 3.53 3.53 0 0 1-3.225-3.851 3.53 3.53 0 0 1 3.104-3.214 3.59 3.59 0 0 1 .748-.012c1.952.173 3.4 1.9 3.226 3.852zm-14.394 6.054a2.82 2.82 0 0 0 .033 3.982c.635.624 1.494.886 2.316.786.6-.074 1.202-.348 1.666-.82a2.8 2.8 0 0 0-.033-3.982 2.8 2.8 0 0 0-3.982.032zm2.67 1.3c.18.177.28.413.282.665s-.094.5-.27.67c-.365.37-.964.376-1.335.01s-.376-.963-.01-1.334a.94.94 0 0 1 1.334-.011zm0 0"/><path d="M257.298 87.672c.34-3.852-2.516-7.263-6.368-7.604a6.96 6.96 0 0 0-5.12 1.61 6.97 6.97 0 0 0-2.483 4.758 6.96 6.96 0 0 0 1.61 5.12c1.204 1.435 2.893 2.318 4.758 2.483.497.044.987.035 1.464-.023 3.217-.4 5.843-3 6.14-6.345zm-7.44 4.503a5.11 5.11 0 0 1-4.668-5.574 5.15 5.15 0 0 1 4.501-4.651 5.16 5.16 0 0 1 1.073-.017 5.15 5.15 0 0 1 4.668 5.574 5.15 5.15 0 0 1-4.501 4.651 5.16 5.16 0 0 1-1.073.017zm25.627-2.005c-2.37-.2-4.47 1.55-4.68 3.92s1.55 4.47 3.92 4.68a4.33 4.33 0 0 0 .901-.014c1.98-.24 3.597-1.84 3.78-3.905a4.33 4.33 0 0 0-3.92-4.68zm2.055 4.516a2.43 2.43 0 0 1-4.871-.431 2.43 2.43 0 0 1 2.136-2.212 2.46 2.46 0 0 1 .515-.008 2.43 2.43 0 0 1 2.221 2.651zm0 0"/><path d="M268.36 100.84c-.26-.302-.696-.4-1.067-.256-.362.15-.595.518-.578.9.036.825 1.1 1.193 1.642.57.3-.346.3-.875.003-1.222zm-24.94-26.095c.76.383 1.6-.4 1.286-1.192-.152-.37-.533-.605-.932-.577s-.74.318-.84.704c-.107.42.1.868.484 1.064zm41.267 3.695a2.69 2.69 0 0 0-.245-2.224c-1.505-2.525-4.006-5.5-5.363-7.034-.563-.64-1.378-.967-2.207-.907-3.57-2.688-7.808-4.316-12.283-4.7a23.89 23.89 0 0 0-8.085.662 1.04 1.04 0 0 0-.081.017 23.76 23.76 0 0 0-6.2 2.599c-.734.437-1.463.906-2.135 1.435a23.98 23.98 0 0 0-2.544 2.208c-.366.365-.366.958-.001 1.324s.958.366 1.324.001c1-1 2.105-1.9 3.266-2.693l.052-.035.447-.292.045-.028c1.812-1.148 3.776-2.02 5.83-2.597a4.42 4.42 0 0 1 1.827 3.97 4.37 4.37 0 0 1-4.77 3.994.56.56 0 0 0-.057-.003c-.1-.003-2.238-.103-3.467-2.365a.94.94 0 0 0-1.27-.376c-.455.246-.623.815-.376 1.27 1.676 3.085 4.628 3.323 5.028 3.34.437.037.87.03 1.296-.023a6.23 6.23 0 0 0 5.48-5.674 6.3 6.3 0 0 0-1.489-4.632 22.1 22.1 0 0 1 5.716-.237 22 22 0 0 1 11.622 4.572.93.93 0 0 0 .835.16.81.81 0 0 1 .793.257c1.314 1.495 3.732 4.36 5.16 6.756a.82.82 0 0 1 .041.765l-.018.038a.93.93 0 0 0-.046.826 22.12 22.12 0 0 1 1.669 10.497c-.5 5.874-3.275 11.208-7.8 15.018-1.732 1.455-3.64 2.617-5.66 3.47.097-1.208-.056-2.4-.455-3.544-.17-.488-.704-.746-1.192-.575s-.746.704-.575 1.192a6.75 6.75 0 0 1 .352 2.837c-.025.278-.066.552-.123.82a21.92 21.92 0 0 1-7.883.946 22.8 22.8 0 0 1-1.234-.11 22.17 22.17 0 0 1-4.211-.914 6.79 6.79 0 0 1-.106-1.942c.33-3.738 3.64-6.5 7.378-6.178a6.86 6.86 0 0 1 .882.137c.013.006.027.013.04.02.47.2 1-.014 1.218-.475.005-.01.01-.02.014-.03a.94.94 0 0 0-.016-.788c-.12-.248-.345-.43-.613-.497-.45-.113-.906-.2-1.36-.23a8.69 8.69 0 0 0-9.407 7.878c-.04.456-.043.9-.012 1.362a22 22 0 0 1-2.217-1.113.94.94 0 0 0-.717-.09 1.54 1.54 0 0 1-1.237-.245 30.38 30.38 0 0 1-3.565-3.001 1.54 1.54 0 0 1-.461-1.218.94.94 0 0 0-.2-.72 21.97 21.97 0 0 1-4.829-15.833c.243-2.744.98-5.38 2.2-7.83.23-.463.04-1.025-.425-1.254s-1.025-.04-1.254.424a23.85 23.85 0 0 0-2.377 8.493 23.83 23.83 0 0 0 5.017 16.899 3.41 3.41 0 0 0 1.025 2.373 32.56 32.56 0 0 0 3.8 3.2 3.41 3.41 0 0 0 2.411.603 23.68 23.68 0 0 0 7.245 2.6 24.11 24.11 0 0 0 9.432-.133 23.13 23.13 0 0 0 1.315-.324c.43-.12.87-.234 1.284-.396a24 24 0 0 0 7.738-4.372 23.78 23.78 0 0 0 8.472-16.292c.32-3.75-.253-7.55-1.658-11.02zm-3.997 9.137c.558.663 1.66.222 1.646-.63-.015-.83-1.073-1.217-1.628-.6a.95.95 0 0 0-.018 1.24zm0 0"/><path d="M264.724 72.975c.557.644 1.64.24 1.646-.608.002-.4-.264-.765-.64-.9s-.805.01-1.044.327c-.26.346-.242.842.04 1.17zM250.62 98.682c-.55-.635-1.62-.255-1.646.584-.012.382.223.743.576.9.385.16.84.04 1.096-.286a.95.95 0 0 0-.026-1.187zm0 0"/></g><path d="M178.14 363.55c-.318-1.56-1.7-2.735-3.35-2.735s-3.028 1.172-3.35 2.726c-.32-1.555-1.7-2.726-3.35-2.726s-3.028 1.172-3.35 2.726c-.32-1.555-1.7-2.726-3.35-2.726-1.886 0-3.42 1.534-3.42 3.42s1.534 3.42 3.42 3.42c1.648 0 3.028-1.172 3.35-2.726.32 1.554 1.7 2.726 3.35 2.726s3.028-1.172 3.35-2.726c.322 1.554 1.7 2.726 3.35 2.726s3.033-1.176 3.35-2.735c.318 1.56 1.7 2.735 3.35 2.735 1.886 0 3.42-1.534 3.42-3.42s-1.534-3.42-3.42-3.42c-1.65 0-3.033 1.176-3.35 2.735zm-16.748 2.542a1.86 1.86 0 0 1-1.858-1.858 1.86 1.86 0 0 1 1.858-1.857 1.86 1.86 0 0 1 1.857 1.857 1.86 1.86 0 0 1-1.857 1.858zm6.698 0a1.86 1.86 0 0 1-1.858-1.858 1.86 1.86 0 0 1 1.858-1.857 1.86 1.86 0 0 1 1.858 1.857 1.86 1.86 0 0 1-1.858 1.858zm6.698 0a1.86 1.86 0 0 1-1.857-1.858 1.86 1.86 0 0 1 1.857-1.857 1.86 1.86 0 0 1 1.858 1.857 1.86 1.86 0 0 1-1.858 1.858zm8.56-1.858a1.86 1.86 0 0 1-1.858 1.858 1.86 1.86 0 0 1-1.857-1.858 1.86 1.86 0 0 1 1.857-1.857 1.86 1.86 0 0 1 1.858 1.857zm6.474-30.59a2.29 2.29 0 0 0-1.452.518l-1.87-.548v-2.832a.78.78 0 0 0-.781-.781c-3.007 0-5.497 2.252-5.88 5.16h-5.543a.78.78 0 0 0-.635.327l-1.673 2.337h-7.723a6.69 6.69 0 0 0-6.682 6.682v12.764c0 .642.233 1.23.62 1.686-1.896.965-3.2 2.935-3.2 5.205 0 3.22 2.62 5.838 5.838 5.838h21.308c3.22 0 5.838-2.62 5.838-5.838a5.84 5.84 0 0 0-2.906-5.045 2.61 2.61 0 0 0 .646-1.065h.806a2.68 2.68 0 0 0 2.676-2.676 2.67 2.67 0 0 0-.789-1.895c.487-.485.8-1.155.8-1.895v-.166a9.15 9.15 0 0 0-9.211-9.211h-.593v-3.603a.78.78 0 0 0-.781-.781h-4.714l.788-1.1h5.142c.383 2.908 2.873 5.16 5.88 5.16a.78.78 0 0 0 .781-.781v-2.847l1.894-.515c.392.313.9.5 1.43.5a2.3 2.3 0 0 0 2.298-2.298 2.3 2.3 0 0 0-2.298-2.298zm-3.4 30.518a4.28 4.28 0 0 1-4.276 4.276h-21.308a4.28 4.28 0 0 1-4.276-4.276 4.28 4.28 0 0 1 4.276-4.276h21.308a4.28 4.28 0 0 1 4.276 4.276zm-25.584-5.838h-.64c-.58 0-1.054-.473-1.054-1.053v-8.285h2.737l2.897 4.892a.78.78 0 0 0 .672.383h3.304a.781.781 0 1 0 0-1.562h-2.86l-2.897-4.892a.78.78 0 0 0-.672-.383h-3.182v-2.917c0-1.002.3-1.987.85-2.822.54-.818 1.314-1.464 2.207-1.863a4.99 4.99 0 0 1 1.624-.414l4.774 8.218a.78.78 0 0 0 .676.389h8.566v4.686h-2.838a.781.781 0 1 0 0 1.563h9.28v3c0 .58-.473 1.053-1.053 1.053zm26.807-2.95c0 .614-.5 1.114-1.114 1.114h-.687v-2.228h.687c.614 0 1.114.5 1.114 1.114zm-7.65-11.605a7.6 7.6 0 0 1 7.649 7.649v.166c0 .614-.5 1.114-1.114 1.114h-7.128v-8.928zm-2.156-.78v3.46h-8.116l-4.104-7.064h12.22zm3.507-7.047c0-2.148 1.55-3.94 3.6-4.3v8.618c-2.04-.37-3.6-2.16-3.6-4.3zm5.152.694v-1.394l1.057.3c-.045.262-.044.534.003.796zm3.323.042c-.276 0-.517-.153-.643-.38a.74.74 0 0 1 .034-.768c.132-.195.356-.324.6-.324.406 0 .735.33.735.736s-.33.735-.735.735zm-17.537 16.153a.79.79 0 0 0-1.181.876.79.79 0 0 0 .722.554.79.79 0 0 0 .751-.494c.132-.336.012-.737-.292-.936zm0 0" id="D" class="B"/><path d="M44.376 141.244c-2.988-5.15-14.727-2.017-24.48 1.738a29.94 29.94 0 0 0-2.663-2.063 30.48 30.48 0 0 0-2.701-1.666 1.74 1.74 0 0 0-.172-.082c-6.1-3.266-13.225-4.4-20.144-3.04-11.54 2.267-20.262 10.853-23.28 21.457-.02.053-.04.106-.056.16-.437 1.575-.74 3.18-.915 4.8-.15 1.383-.24 2.804-.162 4.194a30.26 30.26 0 0 0 .554 4.914l.06.3c-4.484 3.747-8.003 7.28-10.213 10.26-2.855 3.85-3.64 6.943-2.334 9.196.177.304.398.594.656.86.713.736 1.888.755 2.625.042s.754-1.888.042-2.625a.74.74 0 0 1-.111-.14c-.343-.592.003-2.288 2.105-5.122 1.828-2.466 4.68-5.386 8.323-8.53a30.03 30.03 0 0 0 .787 2.008c-.686.656-1.375 1.36-2.003 2.13-.314.382-.718.898-1.058 1.5-.313.54-.672 1.273-.678 2.162-.005 1.467 1.034 2.583 2.65 2.842 1.1.178 2.168.01 3.07-.16 1.25-.235 2.453-.6 3.355-.874a53.45 53.45 0 0 0 3.034-1.058c2.78-1.02 5.428-2.22 7.874-3.365 2.364-1.106 4.746-2.3 7.28-3.62a224.29 224.29 0 0 0 7.026-3.849 232.01 232.01 0 0 0 6.839-4.054 204.66 204.66 0 0 0 6.516-4.18c2.1-1.406 4.17-2.855 6.194-4.365 1.887-1.4 3.74-2.87 5.5-4.434l.67-.608c.75-.694 1.726-1.628 2.605-2.695.517-.624.893-1.17 1.187-1.72.3-.584.696-1.478.494-2.505-.2-1.07-1.032-1.885-2.198-2.184-1.175-.303-2.32-.135-3.388.063a26.74 26.74 0 0 0-3.008.753 30.21 30.21 0 0 0-1.466-1.805c4.892-1.8 9.163-2.973 12.467-3.418 3.778-.508 5.542.042 5.904.667.27.465.12 1.673-1.113 3.67-1.34 2.17-3.713 4.864-6.868 7.794-1.85 1.72-3.93 3.5-6.203 5.3-.012.01-.025.016-.036.025-4.898 3.873-10.66 7.853-16.863 11.654a210.07 210.07 0 0 1-6.789 3.987L1.36 176.6c-9.9 5.434-19.7 9.74-27.398 12.022-.982.3-1.544 1.324-1.252 2.307a1.86 1.86 0 0 0 2.136 1.295 1.83 1.83 0 0 0 .172-.043c2.122-.628 4.368-1.392 6.7-2.277a30.28 30.28 0 0 0 9.051 4.73c2.373.766 4.83 1.22 7.32 1.4a30.12 30.12 0 0 0 7.535-.462 30.14 30.14 0 0 0 4.108-1.073c3.45-1.16 6.633-2.922 9.425-5.202l.174-.143.25-.2.418-.36.034-.03a30.2 30.2 0 0 0 7.962-11.132l.117-.3.1-.227a30.05 30.05 0 0 0 1.865-14.761 104.71 104.71 0 0 0 5.63-4.846c7.75-7.2 10.666-12.598 8.666-16.046zm-49.445-1.47c5.452-1.07 11.05-.378 16.013 1.85a80.69 80.69 0 0 1-2.821 3.913c-.623.813-.47 1.98.345 2.602s1.98.47 2.602-.345a83.29 83.29 0 0 0 3.161-4.406 26.59 26.59 0 0 1 2.182 1.53c1.143.894 2.2 1.88 3.193 2.948-2.768 2.293-5.984 4.678-9.576 7.104l-2.578 1.706-2.463 1.563a164.76 164.76 0 0 1-8.15 4.763 122.02 122.02 0 0 0 4.124-3.858c.733-.717.744-1.892.027-2.625s-1.892-.743-2.625-.026c-3.318 3.25-6.922 6.4-10.713 9.324-1.097.85-1.374 2.325-.66 3.5a2.64 2.64 0 0 0 2.791 1.255 2.75 2.75 0 0 0 .61-.196c4.956-2.236 10.837-5.43 16.57-9.002l2.5-1.593 2.63-1.74c3.677-2.483 6.97-4.927 9.822-7.284l.085.12a26.35 26.35 0 0 1 2.213 3.938c-2.48 2.083-5.097 4.003-7.756 5.85a196.72 196.72 0 0 1-9.037 5.89 228.69 228.69 0 0 1-9.55 5.554 194.7 194.7 0 0 1-9.688 4.998c-2.795 1.34-5.627 2.617-8.524 3.718l-1.203.446a26.32 26.32 0 0 1-2.248-3.761l-.302-.638a26.16 26.16 0 0 1-1.253-3.31 26.85 26.85 0 0 1-.657-2.636c-.212-1.08-.354-2.16-.432-3.232 3.7-2.1 10.216-6.5 18.2-14.867a2.51 2.51 0 0 0 .157-3.313c-.8-1-2.163-1.26-3.264-.62-4.863 2.83-9.344 4.85-12.908 6.24 3.385-7.677 10.34-13.64 19.177-15.376zm-20.704 19.9a92.9 92.9 0 0 0 9.011-3.716c-2.82 2.53-6.142 5.216-9.623 7.403.117-1.25.322-2.482.6-3.687zm-1.424 23.166a12.19 12.19 0 0 1 .36-.46 17.1 17.1 0 0 1 .912-1.018 29.26 29.26 0 0 0 .685 1.088c-.382.097-.777.188-1.17.26a12.91 12.91 0 0 1-.787.13zm55.138-32.28a12.86 12.86 0 0 1 .724-.12c-.104.142-.222.3-.355.453a19.3 19.3 0 0 1-1.224 1.335 30.41 30.41 0 0 0-.699-1.315 20.64 20.64 0 0 1 1.554-.353zm-6.104 30.428c-1.2 1.725-2.583 3.282-4.115 4.652-2.083 1.856-4.454 3.38-7 4.497-2.608 1.142-5.403 1.86-8.238 2.122a26.67 26.67 0 0 1-4.758.013 79.26 79.26 0 0 0 6.478-2.104c8.16-3.048 14.174-6.876 18.54-10.558a26.59 26.59 0 0 1-.898 1.378zm4.277-10.083c-6.716 8.358-16.26 13.176-23.13 15.752-6.417 2.407-11.75 3.36-13.315 3.605a26.56 26.56 0 0 1-3.81-2c5.9-2.466 12.3-5.604 18.8-9.248a215.89 215.89 0 0 0 6.788-3.963c5.485-3.337 10.604-6.8 15.125-10.193a26.35 26.35 0 0 1-.468 6.048zM3.364 153.35a1.87 1.87 0 0 0 1.991.775c.742-.186 1.306-.825 1.396-1.585a1.87 1.87 0 0 0-1.018-1.878 1.88 1.88 0 0 0-2.133.347 1.87 1.87 0 0 0-.236 2.341zm-34.712 37.684a1.88 1.88 0 0 0-1.951-.783c-.77.17-1.36.842-1.44 1.625-.076.757.338 1.512 1.022 1.848.703.345 1.562.2 2.123-.336.632-.617.73-1.618.246-2.354zm0 0" id="E" class="B"/><path d="M107.925 266.758l1.095-1.308c5.172-6.83 4.647-16.627-1.578-22.85a17.47 17.47 0 0 0-22.864-1.569c-.483.346-.932.748-1.366 1.152a18.15 18.15 0 0 0-1.239 1.279 17.49 17.49 0 0 0-1.907 2.635l-.2-.2a.98.98 0 0 0-1.25-.11l-5.437 3.808c-.237.166-.388.428-.413.715a.98.98 0 0 0 .282.776l1.368 1.368-11.36 6.4c-.47.265-.636.86-.372 1.33.18.32.5.497.852.497a.97.97 0 0 0 .478-.126l11.837-6.667 1.84 1.84c.18 4.034 1.727 7.82 4.418 10.824l-19.273 19.273a.98.98 0 0 0 .7 1.666c.26 0 .5-.095.7-.286L83.5 267.932c3.004 2.7 6.8 4.238 10.824 4.418l1.7 1.7-6.748 11.98c-.265.47-.098 1.065.372 1.33a.97.97 0 0 0 .478.126.98.98 0 0 0 .852-.498l6.48-11.505 1.47 1.47c.184.184.433.286.7.286a.9.9 0 0 0 .085-.004c.288-.025.55-.176.715-.413l3.808-5.437c.272-.388.226-.916-.1-1.25l-.174-.174a17.33 17.33 0 0 0 1.72-1.158 17.07 17.07 0 0 0 2.26-2.058zm-1.864-22.777c5.263 5.263 5.938 13.403 2.026 19.404l-13.66-13.66a.98.98 0 0 0-1.381 0 .98.98 0 0 0 0 1.382l13.86 13.86c-.5.576-1.023 1.115-1.6 1.614-.034.03-.175.138-.175.138-.008-.002-.02-.02-.027-.027L83.35 244.927c-.008-.01-.025-.025-.025-.026l-.005-.004.05-.058.2-.227a15.46 15.46 0 0 1 1.51-1.475l2.4 2.4a.98.98 0 0 0 1.38 0 .98.98 0 0 0 0-1.38l-2.2-2.2c2.56-1.668 5.506-2.502 8.454-2.502 3.965 0 7.93 1.5 10.95 4.528zm-26.997 3.876l.067.067a17.31 17.31 0 0 0-1.359 5.124l-2.52-2.52zm7.032 13.515l3.208-2.288 1.653 1.654-2.287 3.207zm2.008 4.77c.184.184.433.286.7.286a1.05 1.05 0 0 0 .08-.003c.286-.024.548-.172.714-.406l3.437-4.82c.277-.4.233-.92-.105-1.258l-2.823-2.823c-.337-.338-.87-.382-1.258-.105l-4.82 3.437a.98.98 0 0 0-.124 1.486l1.412 1.412-1.82 1.82c-2.433-2.754-3.793-6.237-3.864-9.933l-.002-.472a15.55 15.55 0 0 1 1.564-6.628l.023-.054c.273-.552.58-1.088.92-1.607l21.434 21.434c-.52.34-1.056.646-1.608.92a.85.85 0 0 0-.064.028 15.55 15.55 0 0 1-6.2 1.55 18.82 18.82 0 0 1-.951.007c-3.673-.085-7.132-1.443-9.87-3.862l1.82-1.82zm14.053 4.808l-2.67 3.813-2.494-2.493c1.783-.2 3.508-.65 5.124-1.36zM90.07 248.025c.154.376.544.623.95.602a.98.98 0 0 0 .88-.677.99.99 0 0 0-.334-1.073.99.99 0 0 0-1.137-.037c-.383.254-.537.76-.36 1.186zm0 0" id="F" class="B"/><g id="G" class="B"><path d="M168.356 166.676c.73-.195 1.162-.945.967-1.674l-.406-1.515c-.195-.73-.945-1.162-1.674-.967a1.37 1.37 0 0 0-.967 1.674l.406 1.515c.195.73.945 1.162 1.674.967zm4.57-1.224a1.37 1.37 0 0 0 .967-1.674l-.406-1.515a1.37 1.37 0 0 0-1.674-.967c-.73.195-1.162.945-.967 1.674l.406 1.515c.195.73.945 1.162 1.674.967zm3.456-5.382a1.37 1.37 0 0 0-.967 1.674l.406 1.515a1.37 1.37 0 0 0 1.674.967c.73-.195 1.162-.945.967-1.674l-.406-1.515c-.195-.73-.945-1.162-1.674-.967zm-1.605 30.572c-.73.195-1.162.945-.967 1.674l.406 1.514c.195.73.945 1.162 1.674.967a1.37 1.37 0 0 0 .967-1.674l-.406-1.514c-.195-.73-.945-1.162-1.674-.967zm0 0"/><path d="M179.348 189.417c-.73.195-1.162.945-.967 1.674l.406 1.514c.195.73.945 1.162 1.674.967a1.37 1.37 0 0 0 .967-1.674l-.406-1.514a1.37 1.37 0 0 0-1.674-.967zm4.57-1.224a1.37 1.37 0 0 0-.967 1.674l.406 1.514a1.37 1.37 0 0 0 1.674.967c.73-.195 1.162-.945.967-1.674l-.406-1.514c-.195-.73-.945-1.162-1.674-.967zm6.102-17.38l17.893-4.794c.73-.195 1.162-.945.967-1.674l-2.94-10.977c-.195-.73-.945-1.162-1.674-.967l-17.893 4.794a1.37 1.37 0 0 0-.967 1.674l1.117 4.168-2.258.605-2.234-8.338c-.195-.73-.945-1.162-1.674-.967l-3.825 1.025-3.367-3.613a4.56 4.56 0 0 0 .032-2.49 4.61 4.61 0 0 0-5.638-3.255 4.61 4.61 0 0 0-3.255 5.638 4.58 4.58 0 0 0 1.41 2.267l-1.07 4.64-3.678.986c-.73.195-1.162.945-.967 1.674l2.234 8.338-2.258.605-1.117-4.168c-.195-.73-.945-1.162-1.674-.967l-17.893 4.794c-.73.195-1.162.945-.967 1.674l2.94 10.977c.195.73.945 1.162 1.674.967l17.893-4.794c.73-.195 1.162-.945.967-1.674l-1.117-4.168 2.258-.605 1.166 4.352a1.37 1.37 0 0 0-.72 1.582l1.438 5.365a1.37 1.37 0 0 0 1.414 1.01l1.274 4.754-2.258.605-1.117-4.168c-.195-.73-.945-1.162-1.674-.967l-17.893 4.794c-.73.195-1.162.945-.967 1.674l2.94 10.977c.195.73.945 1.162 1.674.967l17.893-4.794c.73-.195 1.162-.945.967-1.674l-1.117-4.168 2.258-.605 3.256 12.154a6.36 6.36 0 0 0 7.779 4.491l9.762-2.616a6.36 6.36 0 0 0 4.491-7.779l-3.257-12.154 2.258-.605 1.117 4.168c.195.73.945 1.162 1.674.967l17.893-4.794c.73-.195 1.162-.945.967-1.674l-2.94-10.977c-.195-.73-.945-1.162-1.674-.967L191.65 176.9a1.37 1.37 0 0 0-.967 1.674l1.117 4.168-2.258.605-1.274-4.754a1.37 1.37 0 0 0 .72-1.582l-1.438-5.365a1.35 1.35 0 0 0-1.414-1l-1.166-4.352 2.258-.605 1.117 4.168c.195.73.945 1.162 1.674.967zm-21.76-15.786c1.182.127 2.394-.222 3.33-.956l1.95 2.092-5.905 1.582zm.005-6.383a1.87 1.87 0 0 1 2.289 1.321c.145.543.034 1.093-.257 1.526a1.88 1.88 0 0 1-2.37.633c-.467-.23-.838-.65-.983-1.192a1.87 1.87 0 0 1 1.321-2.289zM156.57 168.01l.763 2.848-15.252 4.087-.763-2.848zm2.234 8.336l-15.252 4.087-.763-2.848 15.252-4.087zm3.046 11.367l.763 2.848-15.252 4.087-.763-2.848zm2.234 8.336l-15.252 4.087-.763-2.848 15.252-4.087zm31.83-8.528l-.763-2.848 15.252-4.087.763 2.848zm-2.234-8.336l15.252-4.087.763 2.848-15.252 4.087zM172.7 198.03l-3.8-14.22 16.748-4.488 3.8 14.22zm-5.584-16.575l-.73-2.724 18.88-5.06.73 2.724zm-4.118-19.636l16.748-4.488 3.747 13.985-16.748 4.488zm18.76 43.215l-.185-.7a1.49 1.49 0 0 1 1.051-1.82l.624-.167a1.49 1.49 0 0 1 1.82 1.051l.185.7zm9.112-6.186a3.62 3.62 0 0 1-2.558 4.43l-.42.112-.185-.7c-.602-2.248-2.92-3.586-5.17-2.984l-.624.167c-2.248.602-3.586 2.92-2.984 5.17l.185.7-.566.152a3.62 3.62 0 0 1-4.43-2.558l-.714-2.664 16.75-4.488zm-2.467-39.367l15.252-4.087 2.234 8.336-15.252 4.087-.763-2.848 5.777-1.548a1.37 1.37 0 0 0 .967-1.674 1.37 1.37 0 0 0-1.674-.967l-5.777 1.548zm-10.255 7.172l-9.14 2.45c-.73.195-1.162.945-.967 1.674a1.37 1.37 0 0 0 1.674.967l9.14-2.45c.73-.195 1.162-.945.967-1.674a1.37 1.37 0 0 0-1.674-.967zm0 0"/><path d="M182.553 183.097l-9.14 2.45c-.73.195-1.162.945-.967 1.674a1.37 1.37 0 0 0 1.674.967l9.14-2.45c.73-.195 1.162-.945.967-1.674a1.37 1.37 0 0 0-1.674-.967zm-3.3-35.602a10.29 10.29 0 0 1 .3 3.69 1.37 1.37 0 0 0 1.713 1.467 1.37 1.37 0 0 0 1.005-1.175 12.77 12.77 0 0 0-6.343-12.478c-.654-.377-1.5-.153-1.867.5a1.37 1.37 0 0 0 .501 1.868 10.02 10.02 0 0 1 4.701 6.127zm-4.336 1.162a6.04 6.04 0 0 1 .207 1.514 1.37 1.37 0 0 0 1.722 1.31c.587-.157 1.017-.695 1.012-1.33a8.76 8.76 0 0 0-.299-2.201 8.68 8.68 0 0 0-4.076-5.31c-.654-.378-1.5-.153-1.867.5a1.37 1.37 0 0 0 .502 1.868c1.4.802 2.384 2.098 2.8 3.65zm-16.267 10.05a1.37 1.37 0 0 0 .452-.217c.6-.445.743-1.3.298-1.9a10.06 10.06 0 0 1-1.594-3.339 10.02 10.02 0 0 1 1.009-7.657 1.37 1.37 0 0 0-.5-1.868 1.37 1.37 0 0 0-1.868.5c-1.713 2.966-2.17 6.422-1.282 9.733.412 1.54 1.094 2.967 2.027 4.244.343.47.928.657 1.458.515zm0 0"/><path d="M160.476 154.808c.313.553.955.803 1.542.646.1-.03.218-.073.32-.132.657-.372.887-1.207.515-1.863a6.04 6.04 0 0 1-.578-1.415c-.416-1.552-.203-3.17.6-4.56a1.37 1.37 0 0 0-.499-1.868c-.654-.378-1.5-.154-1.868.5a8.68 8.68 0 0 0-.875 6.637c.193.72.476 1.412.842 2.056zm39.21 6.66a1.38 1.38 0 0 0 1.523.462 1.38 1.38 0 0 0 .928-1.295 1.38 1.38 0 0 0-.897-1.283 1.38 1.38 0 0 0-1.475.358 1.38 1.38 0 0 0-.078 1.758zm0 0"/></g><g id="H" class="B"><path d="M224.954 234.087a5.21 5.21 0 0 0-6.338-3.734 5.21 5.21 0 0 0-3.734 6.339 5.21 5.21 0 0 0 6.339 3.734 5.21 5.21 0 0 0 3.733-6.339zm-6.467 1.672a1.48 1.48 0 0 1 1.061-1.801 1.48 1.48 0 0 1 1.8 1.061 1.48 1.48 0 0 1-1.06 1.801 1.48 1.48 0 0 1-1.801-1.061zm40.12-5.002a5.21 5.21 0 0 0 3.733-6.339 5.21 5.21 0 0 0-6.338-3.734 5.21 5.21 0 0 0-3.734 6.339 5.21 5.21 0 0 0 6.339 3.734zm-1.673-6.468a1.48 1.48 0 0 1 1.8 1.061 1.48 1.48 0 0 1-1.06 1.801 1.48 1.48 0 0 1-1.801-1.061 1.48 1.48 0 0 1 1.061-1.801zm0 0"/><path d="M274.408 264.705c-2.044-1.152-3.936-1.63-5.18-1.83l-.056-.218c-.95-3.668-2.847-7.027-5.5-9.715-2.22-2.257-4.922-4.005-7.883-5.1.3-3.867 1.604-7.207 2.857-9.598a12.63 12.63 0 0 0 1.682-.312 12.59 12.59 0 0 0 9.024-15.319 12.59 12.59 0 0 0-15.319-9.024 12.59 12.59 0 0 0-9.024 15.319 12.51 12.51 0 0 0 1.98 4.209c-1.54 4.493-1.46 9.492-.95 13.486a21.8 21.8 0 0 0-6.277 1.632c-1.493-3.742-3.846-8.156-7.373-11.34a12.51 12.51 0 0 0-.308-4.642 12.59 12.59 0 0 0-15.319-9.024 12.59 12.59 0 0 0-9.024 15.319 12.59 12.59 0 0 0 15.319 9.024 12.68 12.68 0 0 0 1.622-.542c2.262 1.487 5.04 3.78 7.17 7.035a21.72 21.72 0 0 0-4.39 8.279 21.58 21.58 0 0 0-.083 11.129l.056.215c-.993.778-2.417 2.116-3.648 4.117-1.893 3.077-3.72 8.408-1.67 16.334l2.92 11.293c.258.996 1.274 1.594 2.27 1.337a1.86 1.86 0 0 0 1.337-2.269l-2.92-11.293c-2.18-8.434.624-13.207 2.76-15.465l6.585 25.46-3.524 8.607a3.32 3.32 0 0 0 4.881 4.074l6.56-4.2a9.13 9.13 0 0 1 6.015-1.362l5.513.68c1.62.2 3.24.1 4.784-.3a12.84 12.84 0 0 0 4.334-2.05l4.493-3.27c1.708-1.243 3.812-1.856 5.92-1.725l7.77.483a3.32 3.32 0 0 0 3.318-2.126c.526-1.36.115-2.9-1.024-3.804l-7.74-6.19a1.862 1.862 0 1 0-2.33 2.905l6.78 5.44-6.545-.407c-2.972-.185-5.935.678-8.343 2.43l-4.493 3.27c-1.874 1.363-4.172 1.957-6.47 1.674l-5.514-.68c-2.955-.365-5.965.316-8.474 1.92l-5.527 3.53 3.294-8.044a1.86 1.86 0 0 0 .079-1.172L231 272.536a17.74 17.74 0 0 1 4.516-16.953c.578-.594.695-1.498.287-2.218-2.145-3.783-5.052-6.55-7.638-8.462a12.47 12.47 0 0 0 3.047-3.95c2.837 3.148 4.68 7.283 5.782 10.46a1.86 1.86 0 0 0 2.658 1.02 18.07 18.07 0 0 1 8.561-2.226 1.86 1.86 0 0 0 1.825-2.18c-.574-3.3-.965-7.814-.012-11.94a12.47 12.47 0 0 0 4.58 1.978c-1.332 2.918-2.532 6.737-2.58 11.073a1.86 1.86 0 0 0 1.332 1.805 17.73 17.73 0 0 1 12.216 12.652l.35 1.35a1.85 1.85 0 0 0 .064.246l3.67 14.186a1.86 1.86 0 0 0 2.269 1.337c.995-.257 1.594-1.273 1.337-2.27l-2.974-11.5c2.96.953 7.73 3.78 9.902 12.174l2.92 11.293c.258.996 1.274 1.594 2.27 1.337a1.86 1.86 0 0 0 1.337-2.269l-2.92-11.293c-2.048-7.926-6.23-11.703-9.377-13.476zm-63.057-27.1a8.86 8.86 0 0 1 6.351-10.782 8.86 8.86 0 0 1 10.781 6.351 8.79 8.79 0 0 1 .031 4.299l-.018.074a8.9 8.9 0 0 1-3.87 5.333 8.94 8.94 0 0 1-2.494 1.076 8.86 8.86 0 0 1-10.782-6.351zm43.623-20.42a8.86 8.86 0 0 1 10.781 6.351 8.86 8.86 0 0 1-6.351 10.781 8.89 8.89 0 0 1-8.671-2.518.83.83 0 0 1-.057-.063 8.79 8.79 0 0 1-2.053-3.77 8.86 8.86 0 0 1 6.351-10.781zm.998 48.08c-.257-.995-1.273-1.594-2.27-1.337l-12.096 3.128c-.996.258-1.594 1.274-1.337 2.27a1.86 1.86 0 0 0 2.269 1.337l12.096-3.128a1.86 1.86 0 0 0 1.337-2.269zM245.7 271.6c-.995.257-1.594 1.273-1.337 2.27s1.274 1.594 2.27 1.337l6.003-1.552a1.862 1.862 0 1 0-.932-3.606zm29.118 13.46c-.474-.635-1.33-.898-2.08-.645a1.88 1.88 0 0 0-1.267 1.718 1.87 1.87 0 0 0 1.2 1.782c.72.276 1.544.073 2.06-.497.586-.65.624-1.662.097-2.358zm0 0"/></g><g id="I" class="B"><path d="M83.59 337.785a.59.59 0 0 0 .387-.196c.674-.754 1.6-1.222 2.607-1.318a4 4 0 0 1 2.778.778c.263.196.636.142.832-.12s.142-.636-.12-.832a5.19 5.19 0 0 0-3.602-1.009 5.18 5.18 0 0 0-3.381 1.709c-.22.245-.198.62.047.84.13.115.294.164.453.15zm0 0"/><path d="M84.3 338.052c-.22.245-.198.62.047.84a.6.6 0 0 0 .453.15c.144-.014.283-.08.387-.196.402-.45.954-.728 1.556-.786a2.39 2.39 0 0 1 1.657.464c.263.196.636.142.832-.12s.142-.636-.12-.832c-.714-.532-1.595-.78-2.48-.695a3.57 3.57 0 0 0-2.329 1.177zm5.643 22.286a.6.6 0 0 0-.588-.312.6.6 0 0 0-.511.435.6.6 0 0 0 .931.631.6.6 0 0 0 .168-.754zm4.682-.446a.6.6 0 0 0-.624-.308.6.6 0 0 0-.488.488.6.6 0 0 0 .962.56.6.6 0 0 0 .149-.74zm11.74-1.118a.6.6 0 0 0-.613-.31.6.6 0 0 0-.495.47.6.6 0 0 0 .943.591.6.6 0 0 0 .165-.752zm0 0"/><path d="M110.36 358.037a.6.6 0 0 0-.422.529.6.6 0 0 0 .364.589.6.6 0 0 0 .763-.81.6.6 0 0 0-.705-.308zm3.924 1.977l-1.233.117a2.93 2.93 0 0 0 .413-1.804c-.135-1.414-1.254-2.502-2.615-2.65l-.276-2.903.397-.038a1.72 1.72 0 0 0 1.545-1.87l-.242-2.543a1.72 1.72 0 0 0-1.87-1.545l-5.13.488-.202-2.125 1.273-.12.033.35c.03.327.32.567.648.536l2.307-.22c.327-.03.567-.32.536-.648l-.444-4.658c-.03-.327-.32-.567-.648-.536l-2.307.22c-.327.03-.567.32-.536.648l.046.482-1.874.18a3.06 3.06 0 0 0-2.751 3.33l.277 2.9-4.187.4c-.327.03-.567.32-.536.648s.32.567.648.536l11.376-1.083.342 3.6-5.84.556-.1-1.05c-.03-.327-.32-.567-.648-.536l-7.056.672c-.327.03-.567.32-.536.648l.1 1.05-5.083.484 3.112-4.11c.198-.262.147-.635-.115-.833s-.635-.147-.833.115l-.596.787-2.263-1.87-.007-.07c1.56-.836 2.553-2.55 2.375-4.42-.03-.327-.322-.567-.648-.536l-2.164.206-.528-1.403a1.74 1.74 0 0 0 .276-1.121c-.092-.962-.95-1.67-1.9-1.578a1.76 1.76 0 0 0-1.578 1.9c.04.418.224.788.5 1.065l-.282 1.462-2.152.205c-.327.03-.567.322-.536.648.184 1.937 1.573 3.475 3.354 3.946l.13 1.378a.59.59 0 0 0 .212.4l3.098 2.575-1.213 1.602a.6.6 0 0 0-.118.415l.333 3.494a2.95 2.95 0 0 0-2.068 3.096 2.93 2.93 0 0 0 .747 1.694l-1.26.12c-.327.03-.567.32-.536.648s.322.567.648.536l28.302-2.696c.327-.03.567-.322.536-.648s-.32-.567-.648-.536zm-7.1-18.822l1.123-.107.33 3.474-1.123.107zm-4.635 3.398a1.87 1.87 0 0 1 1.68-2.033l1.874-.18.14 1.458-1.865.178c-.327.03-.567.32-.536.648l.26 2.716-1.273.12zm9.74 13.85a1.76 1.76 0 0 1-1.583 1.916 1.76 1.76 0 0 1-1.174-3.188 1.63 1.63 0 0 1 .84-.3 1.76 1.76 0 0 1 1.915 1.582zm-19.92 1.897c-.054-.572.173-1.107.57-1.467a1.76 1.76 0 0 1 1.014-.448 1.62 1.62 0 0 1 .268-.005 1.75 1.75 0 0 1 .949.347l.024.02a1.75 1.75 0 0 1 .675 1.222 1.76 1.76 0 0 1-1.582 1.916 1.76 1.76 0 0 1-1.916-1.583zm4.678.152l5.992-.57c.128.418.347.794.63 1.108l-7.032.67a2.93 2.93 0 0 0 .41-1.207zm7.06-1.27a1.76 1.76 0 0 1 .827-1.661c.222-.138.478-.228.756-.254a1.76 1.76 0 0 1 1.915 1.582 1.76 1.76 0 0 1-1.582 1.916 1.76 1.76 0 0 1-1.916-1.583zm7-10.783l.242 2.543c.028.3-.185.546-.474.573l-.397.038-.342-3.6.397-.038c.3-.027.546.185.573.474zm-1.7 4.45l.276 2.902a2.99 2.99 0 0 0-1.644 1.274c-.4-.446-.96-.767-1.554-.892s-1.207-.065-1.765.166a2.89 2.89 0 0 0-.827.528l-.326-3.422zm-13.052-.412l5.872-.56.65 6.824-5.872.56zm-1.028 1.753l.326 3.422a2.95 2.95 0 0 0-1.729-.419 2.97 2.97 0 0 0-1.64.644 2.92 2.92 0 0 0-.663.753c-.48-.523-1.148-.865-1.854-.94l-.276-2.902zm-8.383-14.347c.3-.03.584.198.614.507.02.2-.08.405-.242.517-.174.12-.406.13-.6.028a.56.56 0 0 1 .219-1.051zm-.08 2.307a1.79 1.79 0 0 0 .606-.06l.296.787-1.062.1zm-2.787 2.273l6.548-.624a3.35 3.35 0 0 1-2.408 2.926 3.4 3.4 0 0 1-1.067.127 3.35 3.35 0 0 1-3.073-2.429zm6.22 6.876l-2.867-2.384-.083-.87a4.6 4.6 0 0 0 .93-.107.59.59 0 0 0 .213.4l2.5 2.058-.46.607zm-2.6 9.444a1.76 1.76 0 0 1 3.05-1.345 1.75 1.75 0 0 1 .447 1.012 1.76 1.76 0 0 1-1.582 1.916 1.76 1.76 0 0 1-1.916-1.583zm0 0"/><path d="M94.657 349.103a.6.6 0 0 0 .609.31.6.6 0 0 0 .496-.461.6.6 0 0 0-.941-.6.6.6 0 0 0-.165.752zm4.04 5.652l1.623-.155c.327-.03.567-.32.536-.648s-.322-.567-.648-.536l-1.623.155c-.327.03-.567.32-.536.648s.32.567.648.536zm.156 1.633l1.623-.155c.327-.03.567-.32.536-.648s-.322-.567-.648-.536l-1.623.155c-.327.03-.567.32-.536.648s.32.567.648.536zM99 358.02l1.623-.155c.327-.03.567-.32.536-.648s-.322-.567-.648-.536l-1.623.155c-.327.03-.567.32-.536.648s.32.567.648.536zm0 0"/></g><g id="J" class="B"><path d="M374.413 370.932v-11.398h1.218a1.37 1.37 0 1 0 0-2.741h-1.218V341.9l-.064-1.93c-.456-7.173-3.448-13.87-8.542-19.026a30.19 30.19 0 0 0-3.696-3.182l.9-.632a1.37 1.37 0 1 0-1.588-2.233l-1.76 1.252c-4.407-2.586-9.427-4-14.665-4.068a29.15 29.15 0 0 0-11.653 2.252c-3.582 1.5-6.814 3.638-9.605 6.387-5.76 5.672-8.943 13.168-8.96 21.1a29.67 29.67 0 0 0 8.324 20.738c2.212 2.3 2.2 5.967-.002 8.173l-.176.17c-2.67.477-4.7 2.813-4.7 5.617a5.72 5.72 0 0 0 5.71 5.71h49.358a5.72 5.72 0 0 0 5.71-5.71 5.72 5.72 0 0 0-4.574-5.595zm-16.33-14.146c-2.76-.053-5.515-.416-8.206-1.03-2.34-.534-4.64-1.26-6.87-2.144a49.68 49.68 0 0 1-3.343-1.472 50.61 50.61 0 0 1-2.347-1.214c3.282-.97 5.685-4 5.685-7.602 0-3.713-2.567-6.836-6.017-7.693l22.755-16.18a27.28 27.28 0 0 1 8.446 9.15c1.995 3.53 3.168 7.493 3.43 11.554.036.582.056 1.166.056 1.75v14.892h-12.87c-.24 0-.48-.002-.72-.007zm-27.074-20.27a7.89 7.89 0 0 0-2.02 1.733 7.7 7.7 0 0 0-.411.537 7.88 7.88 0 0 0-1.361 3.489l-.006.048a8.78 8.78 0 0 0-.037.36c-.165 2.017.467 4.054 1.74 5.627.55.68 1.212 1.208 1.905 1.73a36.69 36.69 0 0 0 2.612 1.794 55.16 55.16 0 0 0 2.804 1.627 10.32 10.32 0 0 1-1.162.065c-5.625 0-10.2-4.576-10.2-10.2s4.576-10.2 10.2-10.2a10.16 10.16 0 0 1 .677.022zm4.065 1.62c2.86 0 5.187 2.327 5.187 5.187s-2.327 5.187-5.187 5.187c-1.698 0-3.208-.82-4.155-2.085a5.2 5.2 0 0 1-.371-.572 5.23 5.23 0 0 1 .661-5.984c.214-.238.448-.458.7-.653.18-.137.375-.245.558-.375.766-.447 1.656-.705 2.606-.705zm-17.566 3.7c.017-7.203 2.9-14 8.143-19.163s12.1-7.943 19.3-7.85c4.33.056 8.495 1.126 12.225 3.088l-18.33 13.034a12.93 12.93 0 0 0-3.773-.561 12.96 12.96 0 0 0-12.942 12.942 12.96 12.96 0 0 0 12.942 12.942 12.81 12.81 0 0 0 4.892-.959l.15.067c.55.244 1.1.477 1.672.703a50.63 50.63 0 0 0 2.984 1.095c1.803.6 3.638 1.1 5.5 1.48a43.72 43.72 0 0 0 5.536.77 41.1 41.1 0 0 0 2.995.112h12.87v7.04h-35.606a1.37 1.37 0 1 0 0 2.741h35.606v1.505h-45.235a8.43 8.43 0 0 0 1.066-4.134 8.66 8.66 0 0 0-2.437-6.017c-4.9-5.087-7.576-11.775-7.56-18.833zm55.77 37.66H323.92a2.97 2.97 0 0 1-2.968-2.968 2.97 2.97 0 0 1 2.968-2.967h49.358a2.97 2.97 0 0 1 2.968 2.967 2.97 2.97 0 0 1-2.968 2.968zm-43.428-11.028c.223.534.774.88 1.353.842a1.38 1.38 0 0 0 1.224-.97 1.38 1.38 0 0 0-.501-1.502c-.448-.325-1.06-.35-1.532-.058-.565.35-.795 1.074-.543 1.688zm0 0"/><path d="M333.808 343.877a1.38 1.38 0 0 0 1.352.844c.55-.035 1.03-.407 1.2-.928.192-.557-.01-1.2-.487-1.546-.44-.32-1.045-.35-1.513-.07a1.38 1.38 0 0 0-.561 1.699zm0 0"/></g><path id="K" d="M0 0h350v350H0z"/></defs><pattern id="L" width="350" height="350" patternUnits="userSpaceOnUse"><use xlink:href="#A" x="-350" y="-350"/><use xlink:href="#A" y="-350"/><use xlink:href="#A" x="350" y="-350"/><use xlink:href="#A" x="-350"/><use xlink:href="#A"/><use xlink:href="#A" x="350"/><use xlink:href="#A" x="-350" y="350"/><use xlink:href="#A" y="350"/><use xlink:href="#A" x="350" y="350"/></pattern><use xlink:href="#K" fill="url(#L)"/><pattern id="M" width="350" height="350" patternUnits="userSpaceOnUse"><use xlink:href="#B" x="-350" y="-350"/><use xlink:href="#B" y="-350"/><use xlink:href="#B" x="350" y="-350"/><use xlink:href="#B" x="-350"/><use xlink:href="#B"/><use xlink:href="#B" x="350"/><use xlink:href="#B" x="-350" y="350"/><use xlink:href="#B" y="350"/><use xlink:href="#B" x="350" y="350"/></pattern><use xlink:href="#K" fill="url(#M)"/><pattern id="N" width="350" height="350" patternUnits="userSpaceOnUse"><use xlink:href="#C" x="-350" y="-350"/><use xlink:href="#C" y="-350"/><use xlink:href="#C" x="350" y="-350"/><use xlink:href="#C" x="-350"/><use xlink:href="#C"/><use xlink:href="#C" x="350"/><use xlink:href="#C" x="-350" y="350"/><use xlink:href="#C" y="350"/><use xlink:href="#C" x="350" y="350"/></pattern><use xlink:href="#K" fill="url(#N)"/><pattern id="O" width="350" height="350" patternUnits="userSpaceOnUse"><use xlink:href="#D" x="-350" y="-350"/><use xlink:href="#D" y="-350"/><use xlink:href="#D" x="350" y="-350"/><use xlink:href="#D" x="-350"/><use xlink:href="#D"/><use xlink:href="#D" x="350"/><use xlink:href="#D" x="-350" y="350"/><use xlink:href="#D" y="350"/><use xlink:href="#D" x="350" y="350"/></pattern><use xlink:href="#K" fill="url(#O)"/><pattern id="P" width="350" height="350" patternUnits="userSpaceOnUse"><use xlink:href="#E" x="-350" y="-350"/><use xlink:href="#E" y="-350"/><use xlink:href="#E" x="350" y="-350"/><use xlink:href="#E" x="-350"/><use xlink:href="#E"/><use xlink:href="#E" x="350"/><use xlink:href="#E" x="-350" y="350"/><use xlink:href="#E" y="350"/><use xlink:href="#E" x="350" y="350"/></pattern><use xlink:href="#K" fill="url(#P)"/><pattern id="Q" width="350" height="350" patternUnits="userSpaceOnUse"><use xlink:href="#F" x="-350" y="-350"/><use xlink:href="#F" y="-350"/><use xlink:href="#F" x="350" y="-350"/><use xlink:href="#F" x="-350"/><use xlink:href="#F"/><use xlink:href="#F" x="350"/><use xlink:href="#F" x="-350" y="350"/><use xlink:href="#F" y="350"/><use xlink:href="#F" x="350" y="350"/></pattern><use xlink:href="#K" fill="url(#Q)"/><pattern id="R" width="350" height="350" patternUnits="userSpaceOnUse"><use xlink:href="#G" x="-350" y="-350"/><use xlink:href="#G" y="-350"/><use xlink:href="#G" x="350" y="-350"/><use xlink:href="#G" x="-350"/><use xlink:href="#G"/><use xlink:href="#G" x="350"/><use xlink:href="#G" x="-350" y="350"/><use xlink:href="#G" y="350"/><use xlink:href="#G" x="350" y="350"/></pattern><use xlink:href="#K" fill="url(#R)"/><pattern id="S" width="350" height="350" patternUnits="userSpaceOnUse"><use xlink:href="#H" x="-350" y="-350"/><use xlink:href="#H" y="-350"/><use xlink:href="#H" x="350" y="-350"/><use xlink:href="#H" x="-350"/><use xlink:href="#H"/><use xlink:href="#H" x="350"/><use xlink:href="#H" x="-350" y="350"/><use xlink:href="#H" y="350"/><use xlink:href="#H" x="350" y="350"/></pattern><use xlink:href="#K" fill="url(#S)"/><pattern id="T" width="350" height="350" patternUnits="userSpaceOnUse"><use xlink:href="#I" x="-350" y="-350"/><use xlink:href="#I" y="-350"/><use xlink:href="#I" x="350" y="-350"/><use xlink:href="#I" x="-350"/><use xlink:href="#I"/><use xlink:href="#I" x="350"/><use xlink:href="#I" x="-350" y="350"/><use xlink:href="#I" y="350"/><use xlink:href="#I" x="350" y="350"/></pattern><use xlink:href="#K" fill="url(#T)"/><pattern id="U" width="350" height="350" patternUnits="userSpaceOnUse"><use xlink:href="#J" x="-350" y="-350"/><use xlink:href="#J" y="-350"/><use xlink:href="#J" x="350" y="-350"/><use xlink:href="#J" x="-350"/><use xlink:href="#J"/><use xlink:href="#J" x="350"/><use xlink:href="#J" x="-350" y="350"/><use xlink:href="#J" y="350"/><use xlink:href="#J" x="350" y="350"/></pattern><use xlink:href="#K" fill="url(#U)"/></svg>