<svg xmlns="http://www.w3.org/2000/svg" xmlns:xlink="http://www.w3.org/1999/xlink" width="400" height="400" viewBox="0 0 350 350"><use xlink:href="#I" opacity="0" fill="#fff"/><defs><g id="A" fill="#ec4a81"><path d="M72.602 312.92a1 1 0 0 0 1.313-.525c6.174-14.407.1-21.74-.16-22.045a1.001 1.001 0 1 0-1.522 1.3c.227.27 5.494 6.774-.156 19.96a1 1 0 0 0 .525 1.311zM70.996 316c.266.003.522-.102.7-.3a.99.99 0 0 0 .29-.71c-.001-.13-.03-.26-.08-.38a1.31 1.31 0 0 0-.2-.33 1 1 0 1 0-.71 1.71zm-27 5a20.92 20.92 0 0 0 15.43-6.8 30.8 30.8 0 0 0 2.722 6.334 1 1 0 0 0 .848.466h12a1 1 0 0 0 .848-.47c.2-.337 5.152-8.405 5.152-22.53 0-4.044-2.448-8.3-4.607-12.035l-1.374-2.43v-.014a40.7 40.7 0 0 1-.643-1.226l-.164-.333-.234-.493a21.44 21.44 0 0 1-.245-.567 9.62 9.62 0 0 1-.2-.517l-.185-.528c-.037-.115-.068-.23-.1-.342a7.36 7.36 0 0 1-.119-.5 10.53 10.53 0 0 1-.055-.282 4.73 4.73 0 0 1-.074-.733c0-1.065.738-2.073 1.592-3.24l.044-.06.08-.1c1.366-1.555 2.17-3.523 2.284-5.6a8 8 0 1 0-16 0 9.25 9.25 0 0 0 2.281 5.586l.08.1.044.06c.857 1.17 1.595 2.18 1.595 3.244a4.77 4.77 0 0 1-.067.732c-.014.092-.035.187-.055.282a7.24 7.24 0 0 1-.119.5l-.1.34a11.22 11.22 0 0 1-.186.532 8.81 8.81 0 0 1-.2.5l-.25.58-.228.483-.173.35c-.207.413-.422.822-.638 1.217v.013c-.43.8-.9 1.6-1.375 2.432l-.825 1.462A20.99 20.99 0 1 0 43.996 321zm28.485-38h-6.97c.072-.145.135-.3.2-.435l.192-.4a19.35 19.35 0 0 0 .354-.853c.026-.07.057-.138.083-.206a14.31 14.31 0 0 0 .32-.972c.008-.03.02-.058.027-.087a9.06 9.06 0 0 0 .231-1.037h4.158c.055.35.13.696.226 1.037l.03.1a12.98 12.98 0 0 0 .317.967c.026.07.058.14.085.212a12.49 12.49 0 0 0 .35.845c.063.14.132.282.2.423s.127.283.197.425zm-6.476-8h5.982l-.03.052a4.07 4.07 0 0 0-.115.2 8 8 0 0 0-.176.313c-.037.07-.072.143-.107.215a4.69 4.69 0 0 0-.143.31 5.01 5.01 0 0 0-.092.23 5.11 5.11 0 0 0-.108.315 3.95 3.95 0 0 0-.07.242c-.01.042-.026.083-.036.126h-4.228c-.01-.043-.025-.084-.036-.126a5.08 5.08 0 0 0-.07-.242 6.31 6.31 0 0 0-.108-.315l-.092-.23-.143-.3-.107-.215a11.08 11.08 0 0 0-.176-.313l-.115-.2zm3-12a6.01 6.01 0 0 1 6 6 6.77 6.77 0 0 1-1.6 4h-8.8a6.77 6.77 0 0 1-1.6-4 6.01 6.01 0 0 1 6-6zm-5.66 23.965L64.452 285h9.088l1.116 1.964c2.134 3.7 4.34 7.527 4.34 11.036 0 11.647-3.568 19.113-4.583 21H63.578a34.96 34.96 0 0 1-2.626-6.662c4.972-6.765 5.395-15.854 1.072-23.052l1.3-2.32zM43.996 281c10.493 0 19 8.506 19 19s-8.507 19-19 19-19-8.506-19-19c.012-10.5 8.5-18.988 19-19zm.834 34.986a.84.84 0 0 0 .165.014 1 1 0 0 0 .164-1.986c-11.138-1.857-13.105-10.83-13.184-11.214a1 1 0 0 0-1.96.395c.02.105 2.28 10.705 14.815 12.8zm0 0"/><path d="M30.996 298v-2a1 1 0 1 0-2 0v2a1 1 0 1 0 2 0zm15-8a3 3 0 1 0 0-6 3 3 0 1 0 0 6zm0-4a1 1 0 1 1 0 2 1 1 0 1 1 0-2zm0 0"/><path d="M37.996 294a3 3 0 1 0 0-6 3 3 0 1 0 0 6zm0-4a1 1 0 1 1 0 2 1 1 0 1 1 0-2zm10 4a3 3 0 1 0 6 0 3 3 0 1 0-6 0zm3-1a1 1 0 1 1 0 2 1 1 0 1 1 0-2zm0 0"/></g><g id="B" fill="#ec4a81"><path d="M147 198c-16.568 0-30 13.432-30 30s13.432 30 30 30 30-13.432 30-30c-.02-16.56-13.44-29.98-30-30zm26.76 21.756c-3.387-.794-6.87-1.1-10.344-.94a19.62 19.62 0 0 1 3.716-10.246c3.056 3.158 5.327 7 6.628 11.187zm-8.082-12.594c-2.526 3.423-3.997 7.5-4.23 11.758a67.34 67.34 0 0 0-9.54 1.424 50.68 50.68 0 0 0-7.815-20.193c.966-.1 1.936-.15 2.907-.15a27.89 27.89 0 0 1 18.678 7.162zm-21.03 48.732a27.8 27.8 0 0 1-12.519-4.186c7.76-10.144 11.346-19.108 10.67-26.688 2.432-.8 4.922-1.546 7.425-2.174 1.033 8.972-.06 20.022-5.577 33.048zm-2.156-32.958c-.07-.35-.134-.7-.223-1.043-2.008-7.722-8.478-12.235-13.936-14.74a27.94 27.94 0 0 1 13.56-6.678 48.54 48.54 0 0 1 8.055 20.325c-2.328.565-4.808 1.267-7.457 2.136zm-15.7-14.282c5.2 2.252 11.647 6.44 13.546 13.742.1.4.18.788.253 1.187a158.58 158.58 0 0 0-21.15 9.306c-1.573-8.8 1.16-17.8 7.35-24.235zm-6.926 26.262a162.39 162.39 0 0 1 20.976-9.225c.432 7-3.043 15.343-10.37 24.892a28.08 28.08 0 0 1-10.607-15.667zM147 256c-.078 0-.155-.005-.233-.006 5.47-13.215 6.52-24.462 5.426-33.617 3.058-.707 6.162-1.193 9.3-1.457.38 5.5 3.225 11.926 10.937 18.8-4.58 9.915-14.498 16.268-25.42 16.28zm26.24-18.235c-6.77-6.2-9.442-11.934-9.8-16.962 3.676-.206 7.36.198 10.905 1.197 1.16 5.252.778 10.73-1.1 15.77zM123.37 224.7a1 1 0 0 0 1-1c.092-3.715 1.5-7.275 4-10.035a1 1 0 1 0-1.416-1.413 17.33 17.33 0 0 0-4.584 11.448 1 1 0 0 0 1 1zm0 0"/><path d="M130.888 246.186a1 1 0 0 0 .448-1.9c-2.516-1.474-4.278-3.958-4.837-6.82a1 1 0 0 0-1.961.392 12.11 12.11 0 0 0 5.9 8.217 1.01 1.01 0 0 0 .45.111zm9.984 3.42l-3.222-1.074a1.001 1.001 0 1 0-.633 1.9l3.222 1.067a1.001 1.001 0 1 0 .633-1.9zm0 0"/></g><g id="C" fill="#ec4a81"><path d="M135.806 21a.98.98 0 0 0-.133-1.956c-13.138.894-16.803 12.8-16.838 12.927a.98.98 0 0 0 .663 1.218 1.02 1.02 0 0 0 .183.036.98.98 0 0 0 1.034-.699c.032-.104 3.298-10.723 15.1-11.525zm2.307 22.2l-3.34-4.06 1.698-1.396 3.338 4.062a.98.98 0 0 0 1.379.135l3.212-2.64a.98.98 0 0 0 .135-1.379l-3.34-4.06 1.92-1.578a.981.981 0 1 0-1.246-1.515l-1.92 1.578-3.34-4.06a.98.98 0 0 0-1.379-.135l-3.212 2.64a.98.98 0 0 0-.135 1.379l3.34 4.06-1.698 1.396-3.34-4.06a.98.98 0 0 0-1.379-.135l-3.212 2.64a.98.98 0 0 0-.135 1.379l3.34 4.06-1.92 1.578a.981.981 0 0 0 1.246 1.515l1.92-1.578 3.338 4.06a.98.98 0 0 0 1.379.135l3.212-2.64a.98.98 0 0 0 .136-1.38zm4.287-4.794l-1.698 1.396-2.717-3.304 1.698-1.396zm-8.376-6.726l1.698-1.396 2.717 3.304-1.698 1.396zm-6.424 5.282l1.698-1.396 2.717 3.304-1.698 1.396zm6.678 8.122l-2.717-3.304 1.698-1.396 2.717 3.304zm9.687 4.596a14.5 14.5 0 0 1-6.7 3.019.98.98 0 0 0 .018 1.949 1.11 1.11 0 0 0 .208-.002 16.21 16.21 0 0 0 7.722-3.451.981.981 0 1 0-1.248-1.514zm5.728-3.44a.98.98 0 0 0-1.379-.135l-1.135.933a.98.98 0 1 0 1.245 1.515l1.135-.933a.98.98 0 0 0 .135-1.38zm10.52-25.044c-.466-2.27-2.023-4.165-4.16-5.06l-1.46-.476-.574-.164-.56-.153a45.12 45.12 0 0 0-9.762-1.437l-1.144-.033-.763-.004-1.955.042-.02.004c-6.2.307-12.613 2.002-17.57 6.076-8.72 7.17-11.206 22.048-11.396 30.735l-.005.205-.012.927a38.24 38.24 0 0 0 .018 1.326c.085 2.676 2.77 4.728 5.255 5.3.27.063.668.15 1.158.246a54.86 54.86 0 0 0 5.513.815c8.504.83 19.812.1 27.122-5.92 6.052-4.976 9.025-12.772 10.142-20.042v-.02a44.37 44.37 0 0 0 .36-10.763 23.1 23.1 0 0 0-.187-1.604zm-1.94.3a26.58 26.58 0 0 1 .133 1.071 44.98 44.98 0 0 1-.355 11.021c-6.893-4.464-12.578-10.56-16.55-17.748h.147a52.98 52.98 0 0 1 1.698.028 43.34 43.34 0 0 1 1.123.06l.358.023 1.217.1c2.543.243 5.062.702 7.527 1.37l.17.047.66.197.992.325a5.01 5.01 0 0 1 2.882 3.505zM112.808 53.1a59.1 59.1 0 0 1 .94-11.336 36.71 36.71 0 0 1 15.326 16.069c-3.57.033-7.133-.267-10.646-.894l-1.886-.38c-1.753-.4-3.682-1.84-3.733-3.458zm35.845-1c-2.8 2.294-8.832 5.185-17.4 5.744-3.557-7.746-9.57-14.1-17.108-18.08 1.42-6.733 4.2-14.03 9.354-18.268 4.618-3.797 10.382-5.3 15.83-5.605a51.95 51.95 0 0 0 18.36 19.745c-1.203 5.904-3.82 12.184-9.027 16.463zM99.08 63.622a.98.98 0 0 0 .717-.219l8.565-7.042a.98.98 0 0 0-1.244-1.513L98.552 61.9a.98.98 0 0 0 .527 1.732zm0 0"/><path d="M106.85 62.615a.98.98 0 0 0 1.379.135l3.747-3.08a.98.98 0 0 0-1.244-1.513l-3.747 3.08a.98.98 0 0 0-.135 1.379zm0 0"/></g><g id="D" fill="#ec4a81"><path d="M201.015 156.037a3.19 3.19 0 0 0 2.08.963h.15a3.18 3.18 0 0 0 2.199-5.395l-1.297-1.297 10.273-10.276 11.978-8.984a1.41 1.41 0 0 0 .109-.093l13.04-13.04c3.276-3.276 1.838-5.598 0-7.437a5.28 5.28 0 0 0-3.687-1.441h-.04a5.24 5.24 0 0 0-3.711 1.445l-13.04 13.04c-.02.02-.08.1-.094.107l-8.982 11.98-10.273 10.273-1.297-1.297a3.03 3.03 0 1 0-4.428 4.428zM233.53 111.9c.62-.574 1.442-.882 2.288-.858h.028a3.31 3.31 0 0 1 2.284.858c1.697 1.698 1.952 2.648 0 4.6l-12.33 12.33-4.6-4.6zm-13.642 13.86l4.383 4.383-10.415 7.812-1.778-1.778zm-9.135 11.928l1.6 1.6-9.616 9.616-1.6-1.6zm-15.34 8.32c.2-.228.484-.364.787-.378.306.02.594.154.803.378l7.022 7.022a1.03 1.03 0 0 1 0 1.591 1.08 1.08 0 0 1-.827.378 1.2 1.2 0 0 1-.763-.377l-7.022-7.022a1.03 1.03 0 0 1 0-1.592zm45.797-22.485c-.392-.4-1.027-.4-1.418 0l-6.02 6.02c-.26.252-.365.625-.273.976s.365.624.716.717a1 1 0 0 0 .976-.274l6.02-6.02a1 1 0 0 0 0-1.418zm0 0"/><path d="M239.8 129.54l-3 3c-.26.252-.365.625-.273.976s.365.624.716.717a1 1 0 0 0 .976-.274l3-3a1.01 1.01 0 0 0 .274-.976 1 1 0 0 0-.717-.716c-.35-.092-.724.013-.976.273zm-24.073-11.033l-7.022 7.022c-.26.252-.365.625-.273.976s.365.624.716.717a1 1 0 0 0 .976-.274l7.022-7.022c.38-.394.375-1.02-.012-1.406s-1.012-.392-1.406-.012zm-8.32 5.725c.266.001.522-.105.7-.294l3-3c.38-.394.375-1.02-.012-1.406s-1.012-.392-1.406-.012l-3 3c-.287.287-.372.72-.217 1.093s.52.62.927.62zM220.282 97a8.53 8.53 0 0 0-8.526 8.526 8.53 8.53 0 0 0 8.526 8.526 8.53 8.53 0 0 0 8.526-8.526A8.54 8.54 0 0 0 220.282 97zm-6.52 8.526a6.49 6.49 0 0 1 1.793-4.478 12.97 12.97 0 0 1 .034 8.992c-1.172-1.2-1.827-2.83-1.827-4.514zm3.505 5.776a14.99 14.99 0 0 0-.064-11.52 6.49 6.49 0 0 1 6.244.051c-1.527 3.65-1.55 7.757-.06 11.423a6.49 6.49 0 0 1-6.118.046zm7.785-1.35a12.97 12.97 0 0 1 .032-8.818 6.48 6.48 0 0 1-.032 8.818zm0 0"/></g><g id="E" fill="#ec4a81"><path d="M288.034 214.66c1.55-.024 3.05.526 4.22 1.542 1.52 1.274 3.447 1.96 5.43 1.934 1.983.026 3.9-.66 5.43-1.934a6.55 6.55 0 0 1 8.446 0 8.6 8.6 0 0 0 10.862 0c2.44-2.056 6.007-2.056 8.448 0 3.164 2.578 7.704 2.578 10.868 0a6.3 6.3 0 0 1 4.227-1.542c.57 0 1.034-.463 1.034-1.034v-6.538c0-.57-.463-1.034-1.034-1.034a10.31 10.31 0 0 0-5.297 1.332 8.24 8.24 0 0 1-4.363 1.107 6.3 6.3 0 0 1-4.226-1.543 8.68 8.68 0 0 0-3.931-1.806l-8.615-9.334 8.547-7.05a3.26 3.26 0 0 0-3.942-5.179l-11.295 8.968a3.1 3.1 0 0 0-1.157 2.113c-.085.83.168 1.662.703 2.304l3.155 3.784-5.586 4.655a8.48 8.48 0 0 0-2.622-.383 8.3 8.3 0 0 0-5.428 1.93 6.29 6.29 0 0 1-4.223 1.541 8.22 8.22 0 0 1-4.358-1.107 10.3 10.3 0 0 0-5.292-1.332c-.57 0-1.034.463-1.034 1.034v6.538c0 .57.463 1.034 1.034 1.034zm29.63-12.985c.438-.366.498-1.018.132-1.456l-3.817-4.58a1.03 1.03 0 0 1 .152-1.472l11.25-8.936a1.19 1.19 0 0 1 1.638.273 1.19 1.19 0 0 1-.233 1.644l-9.414 7.76c-.22.18-.355.444-.375.728a1.04 1.04 0 0 0 .27.772l8.038 8.708a8.6 8.6 0 0 0-4.098 1.833 6.55 6.55 0 0 1-8.447 0 25.2 25.2 0 0 0-.784-.545zm-19.98 8.886c1.983.027 3.9-.66 5.43-1.933a6.55 6.55 0 0 1 8.446 0 8.6 8.6 0 0 0 10.862 0c2.44-2.057 6.007-2.057 8.448 0 1.522 1.273 3.45 1.96 5.435 1.933a10.33 10.33 0 0 0 5.297-1.331 8.29 8.29 0 0 1 3.329-1.057v4.474a8.44 8.44 0 0 0-4.4 1.877c-2.44 2.058-6 2.058-8.452 0a8.6 8.6 0 0 0-10.862 0 6.55 6.55 0 0 1-8.447 0 8.6 8.6 0 0 0-10.862 0 6.29 6.29 0 0 1-4.223 1.544c-1.55.023-3.05-.526-4.22-1.543a8.43 8.43 0 0 0-4.398-1.878v-4.474c1.17.113 2.303.474 3.324 1.06 1.612.9 3.44 1.37 5.292 1.33zm28.616-12.784c0 2.857 2.316 5.172 5.172 5.172s5.172-2.315 5.172-5.172-2.316-5.172-5.172-5.172a5.18 5.18 0 0 0-5.172 5.172zm5.172-3.103a3.11 3.11 0 0 1 3.103 3.103 3.12 3.12 0 0 1-3.103 3.103 3.12 3.12 0 0 1-3.103-3.103 3.12 3.12 0 0 1 3.103-3.103zm0 0"/><path d="M288.034 226.743c1.56-.01 3.065.593 4.184 1.68a7.92 7.92 0 0 0 5.465 2.126c1.983.026 3.9-.66 5.43-1.934a6.55 6.55 0 0 1 8.446 0 8.6 8.6 0 0 0 10.862 0c2.44-2.056 6.007-2.056 8.448 0a8.29 8.29 0 0 0 5.434 1.934 7.92 7.92 0 0 0 5.47-2.126 5.95 5.95 0 0 1 4.2-1.68c.57 0 1.034-.463 1.034-1.034v-6.21c0-.57-.463-1.034-1.034-1.034a7.93 7.93 0 0 0-5.47 2.129c-1.122 1.088-2.627 1.692-4.2 1.68-1.55.024-3.055-.526-4.226-1.544a8.6 8.6 0 0 0-10.862 0 6.55 6.55 0 0 1-8.447 0 8.6 8.6 0 0 0-10.862 0c-1.17 1.017-2.673 1.567-4.223 1.544-1.562.01-3.066-.593-4.186-1.68a7.92 7.92 0 0 0-5.465-2.129c-.57 0-1.034.463-1.034 1.034v6.207c0 .57.463 1.034 1.034 1.034zm9.65-2.4c1.983.026 3.9-.66 5.43-1.934a6.55 6.55 0 0 1 8.446 0 8.6 8.6 0 0 0 10.862 0c2.44-2.056 6.007-2.056 8.448 0a8.29 8.29 0 0 0 5.434 1.934 7.92 7.92 0 0 0 5.47-2.126 6.37 6.37 0 0 1 3.156-1.596v4.113a8.13 8.13 0 0 0-4.436 2.069c-1.122 1.088-2.627 1.692-4.2 1.68-1.55.024-3.055-.526-4.226-1.544a8.6 8.6 0 0 0-10.862 0 6.55 6.55 0 0 1-8.447 0 8.6 8.6 0 0 0-10.862 0c-1.17 1.017-2.673 1.567-4.223 1.544-1.562.01-3.066-.593-4.186-1.68-1.23-1.128-2.777-1.85-4.43-2.07v-4.113a6.37 6.37 0 0 1 3.15 1.596 7.92 7.92 0 0 0 5.465 2.126zm7.996-30.483c-.336 1.902.442 3.813 2.313 5.683.406.392 1.05.386 1.45-.013s.405-1.044.013-1.45c-1.362-1.362-1.948-2.66-1.74-3.855.4-2.292 3.486-3.773 3.517-3.787.518-.242.74-.858.5-1.376s-.86-.74-1.376-.5c-.167.077-4.085 1.942-4.676 5.296zm0 0"/><path d="M304.586 200.88c.404 0 .77-.235.94-.602s.108-.8-.155-1.106c-1.453-1.448-2.187-3.468-2-5.51.484-3.207 3.8-5.333 3.835-5.353.485-.304.633-.943.33-1.428s-.943-.633-1.428-.33c-.17.104-4.144 2.634-4.778 6.782-.37 2.42.46 4.836 2.473 7.182a1.03 1.03 0 0 0 .785.366zm0 0"/></g><g id="F" fill="#ec4a81"><path d="M333 35a1 1 0 0 0-1-1h-40a11.01 11.01 0 0 0-10.574 8H276a3 3 0 0 0-3 3v6a3 3 0 0 0 3 3h5v2c0 6.075 4.925 11 11 11s11-4.925 11-11a11.23 11.23 0 0 0-.045-1H330a1 1 0 0 0 .97-.757l2-8A1.99 1.99 0 0 0 333 46zm-24 10v-9h4v9zm-17-9h15v9h-16.1a10.89 10.89 0 0 0-7.9 4.64V45c.006-4.968 4.032-8.994 9-9zm-16 16a1 1 0 0 1-1-1v-6a1 1 0 0 1 1-1h5.05a11.01 11.01 0 0 0-.05 1v7zm53.22 1H301.8a1 1 0 0 0-.98 1.2A9.09 9.09 0 0 1 301 56a9 9 0 0 1-17.977.593c-.348-4.82 3.173-9.056 7.977-9.593h39.72zM315 45v-9h16v9zm-29 11a6 6 0 1 0 6-6 6.01 6.01 0 0 0-6 6zm6-4a4 4 0 1 1 0 8 4 4 0 1 1 0-8zm0 0"/><path d="M287 44a1 1 0 0 0 1-1c0-.123.045-3 4-3a1 1 0 1 0 0-2c-4.746 0-6 3.27-6 5a1 1 0 0 0 1 1zm24-14a1 1 0 0 0 1-1v-8a1 1 0 1 0-2 0v8a1 1 0 0 0 1 1zm0 0"/><path d="M304.232 29.64a1 1 0 0 0 1.725-.284 1 1 0 0 0-.188-.996l-5-6a1 1 0 0 0-1.725.284 1 1 0 0 0 .188.996zM317 30a1 1 0 0 0 .833-.445l4-6a1 1 0 0 0-1.664-1.11l-4 6A1 1 0 0 0 317 30zm0 0"/></g><path d="M62.076 142h-18a1 1 0 0 0-1 1v5a1 1 0 0 0 1 1h18a1 1 0 0 0 1-1v-5a1 1 0 0 0-1-1zm-1 5h-16v-3h16zm1.237-24.52c2.383 1.95 5.48 3.823 8.6 3.823.718.002 1.432-.103 2.118-.3 3.2-.98 5.57-4.256 7.013-9.737 1.8-6.82 1.412-11.237-1.17-13.5s-6.62-1.655-10.017-.487c.212-2.462.22-4.13.22-4.268a1 1 0 0 0-1-1h-30a1 1 0 0 0-1 1c0 .14.007 1.806.22 4.268-3.396-1.163-7.445-1.768-10.02.483s-2.965 6.684-1.17 13.5c1.443 5.48 3.8 8.758 7.013 9.738a7.2 7.2 0 0 0 2.118.31c3.12 0 6.216-1.875 8.6-3.824a13.03 13.03 0 0 0 3.879 3.21l2.08 8.314h-4.72c-2.027 0-3.474 2.137-3.88 4h-1.12a1 1 0 0 0-1 1v12h-1a1 1 0 0 0-1 1v4a1 1 0 0 0 1 1h30a1 1 0 0 0 1-1v-4a1 1 0 0 0-1-1h-1v-12a1 1 0 0 0-1-1h-1.12c-.406-1.863-1.853-4-3.88-4h-4.72l2.077-8.3a13.02 13.02 0 0 0 3.879-3.21zm15.24-18.226c1.9 1.67 2.094 5.643.555 11.5-1.254 4.767-3.16 7.57-5.663 8.334-3.1.952-6.714-1.377-8.94-3.205a25.33 25.33 0 0 0 1-1.667c1.443 1.4 3.3 2.7 5.292 2.7a4.58 4.58 0 0 0 .912-.092c2.252-.462 4.044-2.646 5.326-6.5 1.46-4.377 1.357-7.27-.312-8.846-1.456-1.375-3.906-1.516-7.3-.43l.206-1.56c2.614-1 6.765-2.118 8.925-.224zm-10.387 8.005a51.33 51.33 0 0 0 .888-3.97c3.04-1.132 5.322-1.277 6.285-.366 1 .945.925 3.346-.213 6.76-1.024 3.073-2.35 4.858-3.83 5.163-1.77.36-3.7-1.3-4.872-2.54a35.65 35.65 0 0 0 1.742-5.049zm-28.182 0a35.79 35.79 0 0 0 1.741 5.049c-1.17 1.24-3.113 2.9-4.87 2.54-1.48-.3-2.806-2.1-3.83-5.163-1.138-3.414-1.214-5.815-.213-6.76.965-.9 3.245-.766 6.285.366a50.97 50.97 0 0 0 .888 3.97zm-5.28 11.82c-2.5-.765-4.4-3.568-5.663-8.335-1.54-5.845-1.347-9.82.555-11.5 2.16-1.893 6.3-.778 8.925.223l.206 1.562c-3.384-1.085-5.834-.944-7.3.43-1.67 1.576-1.77 4.47-.312 8.846 1.282 3.844 3.074 6.028 5.326 6.5a4.58 4.58 0 0 0 .912.092c1.992 0 3.85-1.287 5.292-2.7.316.587.645 1.145 1 1.667-2.227 1.826-5.834 4.15-8.94 3.206zM39.1 99h27.95c-.183 4.9-1.686 26-13.975 26S39.284 103.9 39.1 99zm27.975 56h-28v-2h28zm-26-4v-11h24v11zm21.82-13h-19.64c.337-1.015 1.1-2 1.82-2h16c.722 0 1.483.985 1.82 2zm-8.6-4h-2.44l-1.853-7.4a11.68 11.68 0 0 0 6.144 0zm2.18-17.2a1 1 0 0 0 1.58-1l-.88-4.378 3.5-2.622a1 1 0 0 0-.4-1.78l-4.5-.9-1.793-3.855a1 1 0 0 0-1.814 0l-1.787 3.854-4.5.9a1 1 0 0 0-.4 1.78l3.5 2.622-.886 4.38a1 1 0 0 0 1.58 1l3.4-2.55zm-5.906-3.17l.486-2.43a1 1 0 0 0-.38-1l-2.2-1.658 2.8-.562a1 1 0 0 0 .711-.559l1.1-2.358 1.093 2.358a1 1 0 0 0 .711.559l2.807.562-2.2 1.658a1 1 0 0 0-.38 1l.486 2.434-1.906-1.434a1 1 0 0 0-1.2 0zm0 0" id="G" fill="#ec4a81"/><g id="H" fill="#ec4a81"><path d="M257.8 277.657c-3.787-3.515-9.645-3.515-13.433 0l-5.06 5.06a4.81 4.81 0 0 0-3.018-1.815 2.43 2.43 0 0 0-1.936.76l-4.006 4.006a2.46 2.46 0 0 0-.761 1.935 4.82 4.82 0 0 0 1.815 3.019L219.527 302.5c-.57-.988-1.52-1.7-2.63-1.966a2.26 2.26 0 0 0-1.944.717l-4.006 4.006a2.28 2.28 0 0 0-.72 1.949c.264 1.1.962 2.07 1.94 2.662l-3.845 3.845c-1.698 1.622-2.658 3.868-2.658 6.216s.96 4.594 2.658 6.216l5.007 5.007a7.84 7.84 0 0 0 5.664 2.22 11.34 11.34 0 0 0 7.769-3.221l3.026-3.026c1.157 1.37 2.178 2.082 3.098 2.15.052 0 .1.006.154.006a1.88 1.88 0 0 0 1.358-.572l4.006-4.006a1.87 1.87 0 0 0 .563-1.514c-.075-.916-.8-1.924-2.184-3.06l12.226-12.234a5.37 5.37 0 0 0 3.291 1.821h.04c.548.006 1.074-.2 1.458-.6l4.006-4.006c.4-.396.618-.94.6-1.502a5.37 5.37 0 0 0-1.82-3.29l5.226-5.226c3.255-3.255 4.714-8.72 1-12.43zm-26.214 9.82a.47.47 0 0 1 .178-.392l4.006-4.006c.096-.117.24-.183.392-.18.696.2 1.304.644 1.73 1.234l-5.073 5.07c-.6-.425-1.023-1.033-1.233-1.728zm-19.374 19.48c0-.04-.015-.12.15-.286l4.006-4.006c.16-.16.238-.15.268-.147.223.03.75.38 1.45 1.418l-4.493 4.492c-1.014-.7-1.355-1.246-1.384-1.472zm24.77 16.322l-3.95 4c-.156 0-.788-.312-1.83-1.573l4.16-4.153c1.28 1.022 1.602 1.628 1.62 1.736zm19.4-19.587l-4.015 4.013c-.126.032-.758-.118-1.945-1.233l4.738-4.738c1.117 1.195 1.267 1.833 1.22 1.96zm6.567-14.94a8.77 8.77 0 0 1-2.562 4.926l-35.048 35.048c-2.74 2.74-7.854 3.747-10.6 1l-5.007-5.007a6.64 6.64 0 0 1 0-9.599l36.05-36.05a7.9 7.9 0 0 1 10.601 0l5.007 5.007a5.43 5.43 0 0 1 1.56 4.674zm-43.343 9.69a1 1 0 0 0 1.416 0l7.08-7.08a1 1 0 1 0-1.416-1.416l-7.08 7.08a1 1 0 0 0 0 1.416zm1.73-8.77l-9.206 9.205a1.002 1.002 0 1 0 1.417 1.417l9.205-9.205a1.001 1.001 0 1 0-1.416-1.416zM206.7 307.092l4.02-4.02a1.002 1.002 0 1 0-1.417-1.416l-4.02 4.018a1.002 1.002 0 1 0 1.416 1.417zm0 0"/><path d="M220.335 311.704l-2.003 2.003a1 1 0 1 0 1.417 1.416l2.003-2.003a1.001 1.001 0 1 0-1.416-1.416zm5.007 5.006l-2.003 2.003a1 1 0 1 0 1.417 1.416l2.003-2.003a1.001 1.001 0 1 0-1.416-1.416zm20.028-30.04l-2.003 2.003a1 1 0 1 0 1.417 1.416l2.003-2.003a1.001 1.001 0 1 0-1.416-1.416zm5.006 5.007l-2.003 2.003a1 1 0 1 0 1.417 1.416l2.003-2.003a1.001 1.001 0 1 0-1.416-1.416zm0 0"/></g><path id="I" d="M0 0h350v350H0z"/></defs><pattern id="J" width="350" height="350" patternUnits="userSpaceOnUse"><use xlink:href="#A" x="-350" y="-350"/><use xlink:href="#A" y="-350"/><use xlink:href="#A" x="350" y="-350"/><use xlink:href="#A" x="-350"/><use xlink:href="#A"/><use xlink:href="#A" x="350"/><use xlink:href="#A" x="-350" y="350"/><use xlink:href="#A" y="350"/><use xlink:href="#A" x="350" y="350"/></pattern><use xlink:href="#I" fill="url(#J)"/><pattern id="K" width="350" height="350" patternUnits="userSpaceOnUse"><use xlink:href="#B" x="-350" y="-350"/><use xlink:href="#B" y="-350"/><use xlink:href="#B" x="350" y="-350"/><use xlink:href="#B" x="-350"/><use xlink:href="#B"/><use xlink:href="#B" x="350"/><use xlink:href="#B" x="-350" y="350"/><use xlink:href="#B" y="350"/><use xlink:href="#B" x="350" y="350"/></pattern><use xlink:href="#I" fill="url(#K)"/><pattern id="L" width="350" height="350" patternUnits="userSpaceOnUse"><use xlink:href="#C" x="-350" y="-350"/><use xlink:href="#C" y="-350"/><use xlink:href="#C" x="350" y="-350"/><use xlink:href="#C" x="-350"/><use xlink:href="#C"/><use xlink:href="#C" x="350"/><use xlink:href="#C" x="-350" y="350"/><use xlink:href="#C" y="350"/><use xlink:href="#C" x="350" y="350"/></pattern><use xlink:href="#I" fill="url(#L)"/><pattern id="M" width="350" height="350" patternUnits="userSpaceOnUse"><use xlink:href="#D" x="-350" y="-350"/><use xlink:href="#D" y="-350"/><use xlink:href="#D" x="350" y="-350"/><use xlink:href="#D" x="-350"/><use xlink:href="#D"/><use xlink:href="#D" x="350"/><use xlink:href="#D" x="-350" y="350"/><use xlink:href="#D" y="350"/><use xlink:href="#D" x="350" y="350"/></pattern><use xlink:href="#I" fill="url(#M)"/><pattern id="N" width="350" height="350" patternUnits="userSpaceOnUse"><use xlink:href="#E" x="-350" y="-350"/><use xlink:href="#E" y="-350"/><use xlink:href="#E" x="350" y="-350"/><use xlink:href="#E" x="-350"/><use xlink:href="#E"/><use xlink:href="#E" x="350"/><use xlink:href="#E" x="-350" y="350"/><use xlink:href="#E" y="350"/><use xlink:href="#E" x="350" y="350"/></pattern><use xlink:href="#I" fill="url(#N)"/><pattern id="O" width="350" height="350" patternUnits="userSpaceOnUse"><use xlink:href="#F" x="-350" y="-350"/><use xlink:href="#F" y="-350"/><use xlink:href="#F" x="350" y="-350"/><use xlink:href="#F" x="-350"/><use xlink:href="#F"/><use xlink:href="#F" x="350"/><use xlink:href="#F" x="-350" y="350"/><use xlink:href="#F" y="350"/><use xlink:href="#F" x="350" y="350"/></pattern><use xlink:href="#I" fill="url(#O)"/><pattern id="P" width="350" height="350" patternUnits="userSpaceOnUse"><use xlink:href="#G" x="-350" y="-350"/><use xlink:href="#G" y="-350"/><use xlink:href="#G" x="350" y="-350"/><use xlink:href="#G" x="-350"/><use xlink:href="#G"/><use xlink:href="#G" x="350"/><use xlink:href="#G" x="-350" y="350"/><use xlink:href="#G" y="350"/><use xlink:href="#G" x="350" y="350"/></pattern><use xlink:href="#I" fill="url(#P)"/><pattern id="Q" width="350" height="350" patternUnits="userSpaceOnUse"><use xlink:href="#H" x="-350" y="-350"/><use xlink:href="#H" y="-350"/><use xlink:href="#H" x="350" y="-350"/><use xlink:href="#H" x="-350"/><use xlink:href="#H"/><use xlink:href="#H" x="350"/><use xlink:href="#H" x="-350" y="350"/><use xlink:href="#H" y="350"/><use xlink:href="#H" x="350" y="350"/></pattern><use xlink:href="#I" fill="url(#Q)"/></svg>