<svg xmlns="http://www.w3.org/2000/svg" xmlns:xlink="http://www.w3.org/1999/xlink" width="400" height="400" viewBox="0 0 350 350"><use xlink:href="#I" opacity="0" fill="#f6eff6"/><defs><path d="M189.07 362.73c.33-.155.525-.585.525-1.116 0-.894-.605-1.204-1.42-1.204-1.137 0-1.473.693-1.473 1.17 0 .283.06.377.45.377.323 0 .417-.135.417-.336 0-.27.16-.45.6-.45.363 0 .592.148.592.592 0 .578-.282.66-.62.66-.195 0-.262.175-.262.343 0 .175.067.343.262.343.43 0 .74.14.74.64v.128c0 .5-.215.726-.72.726-.43 0-.7-.188-.7-.5 0-.215-.094-.3-.45-.3-.303 0-.417.074-.417.343 0 .545.444 1.224 1.547 1.224.888 0 1.614-.4 1.614-1.493v-.128a1 1 0 0 0-.686-1.015zm-25.92 1.85h-1.87v-.16c0-.7 2.132-1.17 2.132-2.623 0-.854-.726-1.365-1.506-1.365-.746 0-1.446.47-1.446 1.237 0 .363.168.47.397.47.3 0 .457-.16.457-.323 0-.417.27-.592.6-.592a.58.58 0 0 1 .625.599c0 .948-2.165 1.52-2.165 2.596v.652c0 .168.23.276.383.276h2.394c.148 0 .276-.188.276-.4s-.128-.377-.276-.377zm12.024-6.22c-.074 0-.135.027-.182.067l-.794.605c-.108.067-.168.195-.168.316 0 .175.114.35.283.35.047 0 .108-.013.16-.06l.215-.215v3.6c0 .182.215.276.437.276.215 0 .437-.094.437-.276v-4.37c0-.175-.2-.283-.4-.283zm18.76-2.525h-7.428c-.324 0-.587.263-.587.587s.263.587.587.587h7.32v11.768h-11.768V357h1.716c.324 0 .587-.263.587-.587s-.263-.587-.587-.587h-1.716v-2.66a1.07 1.07 0 0 0-1.067-1.067h-1.415l-.58-2.372c-.1-.37-.42-.63-.802-.63h-1.62v-4.958l.247-.182a10.22 10.22 0 0 0 2.345-2.422l.03.037a1.94 1.94 0 0 0 1.399.594 1.75 1.75 0 0 0 .692-.139c.57-.243.93-.75 1.018-1.43.04-.322-.186-.616-.507-.657a.59.59 0 0 0-.657.507c-.05.388-.242.47-.315.5a.57.57 0 0 1-.23.044.78.78 0 0 1-.549-.23c-.2-.2-.152-.444-.076-.602.34-.702 1.065-.996 1.833-1.308.694-.282 1.48-.6 2.076-1.265.676-.753 1.004-1.837 1.004-3.313v-1.415a.92.92 0 0 0-.925-.928c-.735.002-1.417.36-1.83.96l-.263.382c-.165.24-.438.383-.73.383h-.142v-.63c.402-.095.703-.457.703-.887v-1.2a.91.91 0 0 0-.913-.913h-11.556a.91.91 0 0 0-.913.913v1.2c0 .43.3.792.703.887v.63h-.154a.89.89 0 0 1-.73-.383l-.263-.382a2.22 2.22 0 0 0-1.821-.961.94.94 0 0 0-.662.272.93.93 0 0 0-.273.658v1.415c0 1.476.328 2.56 1.004 3.313.595.664 1.382.983 2.076 1.265.767.3 1.492.606 1.832 1.308.077.158.126.4-.076.602a.78.78 0 0 1-.549.23.58.58 0 0 1-.23-.044c-.066-.03-.265-.113-.315-.5-.04-.32-.335-.548-.657-.507s-.55.335-.507.657c.087.68.45 1.188 1.018 1.43a1.75 1.75 0 0 0 .693.139 1.94 1.94 0 0 0 1.399-.594l.04-.044a10.22 10.22 0 0 0 2.35 2.429l.247.182v4.958h-1.62c-.382 0-.7.26-.802.63l-.58 2.372H169a1.07 1.07 0 0 0-1.067 1.067v2.66h-11.875a1.07 1.07 0 0 0-1.067 1.067v11.982a1.07 1.07 0 0 0 1.067 1.067h37.866a1.07 1.07 0 0 0 1.067-1.067v-11.982a1.07 1.07 0 0 0-1.067-1.067zm-26 12.942h-11.768V357h11.768v11.768zm13.052-33.067v-.87h.142a2.06 2.06 0 0 0 1.696-.89l.263-.382a1.05 1.05 0 0 1 .615-.423v1.14c0 1.173-.23 2-.704 2.53-.414.462-1 .705-1.644.96l-.642.273a10.14 10.14 0 0 0 .273-2.338zm-12.357 2.065c-.632-.257-1.23-.5-1.643-.96-.474-.528-.704-1.355-.704-2.53v-1.14a1.05 1.05 0 0 1 .615.424l.263.382a2.06 2.06 0 0 0 1.696.89h.154v.87a10.19 10.19 0 0 0 .275 2.344l-.656-.28zm1.555-2.065v-2.647h1.05c.324 0 .587-.263.587-.587s-.263-.587-.587-.587h-1.754v-.667h11.034v.667h-6.5c-.324 0-.587.263-.587.587s.263.587.587.587h5.798v2.647c0 2.874-1.38 5.608-3.695 7.312l-.552.406a.95.95 0 0 1-1.134 0l-.552-.406a9.12 9.12 0 0 1-3.695-7.312zm5.2 9.043v4.354h-.8v-4.354a2.09 2.09 0 0 0 .394.04 2.11 2.11 0 0 0 .394-.039zm-3.3 5.528h5.83l.446 1.828h-6.724l.447-1.828zm8.793 18.496h-11.768v-15.494h11.768v15.494zm-18.966-10.88h-.065c-2.755 0-4.997 2.242-4.997 4.997s2.24 4.997 4.997 4.997h.065c2.755 0 4.997-2.24 4.997-4.997a5 5 0 0 0-4.997-4.997zm0 8.82h-.065a3.83 3.83 0 0 1-3.823-3.823 3.83 3.83 0 0 1 3.823-3.823h.065a3.83 3.83 0 0 1 3.823 3.823 3.83 3.83 0 0 1-3.823 3.823zm13.174-10.683h-.065c-2.755 0-4.997 2.24-4.997 4.997s2.242 4.997 4.997 4.997h.065c2.755 0 4.997-2.242 4.997-4.997s-2.24-4.997-4.997-4.997zm0 8.82h-.065a3.83 3.83 0 0 1-3.823-3.823 3.83 3.83 0 0 1 3.823-3.823h.065a3.83 3.83 0 0 1 3.823 3.823 3.83 3.83 0 0 1-3.823 3.823zm13.03-6.957h-.065c-2.755 0-4.997 2.242-4.997 4.997s2.24 4.997 4.997 4.997h.065c2.755 0 4.997-2.24 4.997-4.997a5 5 0 0 0-4.997-4.997zm0 8.82h-.065a3.83 3.83 0 0 1-3.823-3.823 3.83 3.83 0 0 1 3.823-3.823h.065a3.83 3.83 0 0 1 3.823 3.823 3.83 3.83 0 0 1-3.823 3.823z" id="A" fill="#ec4a81"/><path d="M36.932 31.48c-12.7-10.02-28.03-10.313-42.857-10.598-7.14-.137-14.525-.278-21.436-1.53-7.657-1.386-13.965-4.027-19.283-8.076a1.94 1.94 0 0 0-2.072-.185c-.678.346-1.088 1.033-1.07 1.792l.2 7.577-3.63 4.86a1.97 1.97 0 0 0 .346 2.715c5.04 3.977 10.494 6.42 16.167 7.94 8.62 2.3 17.748 2.485 26.7 2.656 7.14.137 14.524.278 21.436 1.53 7.647 1.39 13.957 4.04 19.274 8.08a1.94 1.94 0 0 0 2.072.185c.678-.346 1.088-1.032 1.07-1.793l-.2-7.577 3.63-4.86a1.97 1.97 0 0 0-.346-2.715zm-5.56 6.192a1.97 1.97 0 0 0-.382 1.218l.164 6.397c-12.345-8.752-26.97-9.032-41.127-9.303-7.25-.14-14.747-.282-21.754-1.587-7.612-1.416-13.66-3.972-18.973-8.023l3.376-4.528a1.97 1.97 0 0 0 .383-1.219l-.165-6.397c4.55 3.225 9.405 5.3 14.436 6.647 8.62 2.3 17.75 2.485 26.692 2.656 7.25.14 14.747.283 21.753 1.587 7.612 1.417 13.66 3.973 18.972 8.023l-3.377 4.53zm19.733-66.84a6.83 6.83 0 0 0-4.252-4.08l-.393-.118a6.86 6.86 0 0 0-7.71 3.188L28.936-13.25c-2.428 4.184-7.278 6.32-11.97 5.35l-.278-.06-.354-.087-6.792-1.82a1.51 1.51 0 0 1-.147-.421 13.3 13.3 0 0 0 1.691-.676c2.342-1.13 4.196-3.13 5.22-5.597 1.516.145 2.964-.823 3.37-2.342l.53-1.983c.23-.86.1-1.758-.366-2.492l1.858-6.933c1-3.735-1.224-7.587-4.958-8.588l-11.8-3.16c-3.735-1-7.588 1.224-8.588 4.958l-1.858 6.933a3.17 3.17 0 0 0-1.563 1.976l-.53 1.983c-.407 1.52.363 3.08 1.748 3.714-.346 2.648.258 5.3 1.722 7.457.32.47.66.9 1.024 1.32-.115.145-.253.272-.396.36l-6.544-1.754c-.123-.033-.245-.07-.366-.107l-.326-.106c-4.5-1.527-7.6-5.784-7.618-10.596l-.036-19.158c-.006-3.328-2.255-6.253-5.47-7.115a6.51 6.51 0 0 0-5.696 1.136 6.51 6.51 0 0 0-2.562 5.213l.06 31.75a16.65 16.65 0 0 0 3.512 10.252c3.8 4.9 5.647 11.156 5.205 17.584l-.097 1.414c-.044.643.378 1.2.978 1.37a1.32 1.32 0 0 0 .254.042c.73.05 1.363-.5 1.414-1.232l.097-1.414c.487-7.077-1.556-13.963-5.753-19.4a14.03 14.03 0 0 1-2.958-8.634l-.016-8.763 8.57-1.054a13.9 13.9 0 0 0 8.617 10.864l5.6 17.214A6.55 6.55 0 0 0-8.85 7.584C-9.8 11.092-7.7 14.7-4.193 15.65s7.126-1.15 8.066-4.657a6.55 6.55 0 0 0-.225-4.086L17.1-5.182a13.9 13.9 0 0 0 12.977-5.057l6.9 5.2-4.846 8.357C30.928 5.394 28.47 7.383 25.72 8.5c-4.218 1.728-8 4.542-10.967 8.138-.465.566-.384 1.4.182 1.866a1.32 1.32 0 0 0 .498.257c.487.13 1.027-.024 1.368-.44 2.68-3.26 6.112-5.807 9.925-7.37 3.267-1.338 6.218-3.76 7.7-6.316L50.16-22.5c1.416-2.442 1.726-4.626.95-6.68zm-80.524 3.635l-.038-20.317a3.88 3.88 0 0 1 4.92-3.783 4.74 4.74 0 0 1 3.505 4.558l.034 18.506-8.422 1.036zm28.344-10.883c.623-2.323 3.018-3.706 5.34-3.083l11.8 3.16c2.323.622 3.706 3.018 3.083 5.34l-1.73 6.46a5.53 5.53 0 0 0-.507.014l1.142-4.264c.548-2.045-.67-4.154-2.715-4.702l-2.206-.6a3.93 3.93 0 0 0-2.627.213l-.264.12a1.82 1.82 0 0 1-2.217-.593l-.17-.235a3.93 3.93 0 0 0-2.169-1.498l-2.206-.6c-2.045-.548-4.154.67-4.702 2.715l-1.142 4.264c-.146-.1-.292-.187-.432-.265l1.73-6.46zM-3.033-23.1c.172-.7-.248-1.4-.945-1.596l-.677-.18a.53.53 0 0 1-.373-.645l.53-1.983a.47.47 0 0 1 .153-.25 3.23 3.23 0 0 1 .303.153l.102.062.02.01a2.57 2.57 0 0 1 .139.096 2.53 2.53 0 0 1 .131.105l.02.02a1.51 1.51 0 0 1 .1.096l.027.028a1.36 1.36 0 0 1 .085.1c.01.01.018.02.026.032.033.044.065.1.093.138.226.386.588.654 1 .765a1.66 1.66 0 0 0 .652.041 1.67 1.67 0 0 0 1.383-1.216l1.592-5.94a1.19 1.19 0 0 1 1.455-.84l2.206.6a1.28 1.28 0 0 1 .703.485l.17.235a4.47 4.47 0 0 0 2.47 1.705c.993.265 2.054.18 3-.242l.264-.12c.267-.12.57-.145.85-.07l2.206.6a1.19 1.19 0 0 1 .84 1.455l-1.592 5.94c-.174.65.058 1.334.6 1.744a1.65 1.65 0 0 0 1.67.205 1.34 1.34 0 0 0 .162-.077 1.39 1.39 0 0 1 .145-.071 1.09 1.09 0 0 1 .039-.016 1.66 1.66 0 0 1 .12-.042c.012-.004.024-.008.036-.01a1.94 1.94 0 0 1 .149-.036c.018-.004.036-.006.054-.01a2.07 2.07 0 0 1 .095-.015l.074-.01a1.19 1.19 0 0 1 .064-.005 3.1 3.1 0 0 1 .552.01.51.51 0 0 1 .007.294l-.53 1.983a.53.53 0 0 1-.645.373l-.677-.18a1.33 1.33 0 0 0-1.616.9c-.665 2.285-2.2 4.157-4.242 5.135a10.18 10.18 0 0 1-2.093.746l-.028.006c-1.455.337-2.934.32-4.42-.06C1.9-13.098.58-13.848-.528-14.9a1.26 1.26 0 0 0-.076-.076 10.27 10.27 0 0 1-1.299-1.557c-1.27-1.863-1.672-4.257-1.106-6.57zM7.05-8.95c-1.458.773-3.167.977-4.775.552l-.02-.005a6.61 6.61 0 0 1-3.951-2.989 4.31 4.31 0 0 0 .561-.541c1.137.823 2.415 1.436 3.827 1.83l.03.008c1.37.35 2.733.462 4.08.34a4.29 4.29 0 0 0 .25.805zm-11.473-1.913l.166.322A9.26 9.26 0 0 0 1.57-5.843l.028.007A9.26 9.26 0 0 0 9.013-7.03l.254-.166.424.114L-.58 2.15-4.86-10.98l.437.117zm-4.714-1.263l1.222.327 4.74 14.54c-.045.005-.1.01-.133.017l-.105.013c-.202.03-.403.067-.6.115l-.2.053-4.9-15.064zm5.63 25.215a3.94 3.94 0 0 1-2.782-4.818 3.92 3.92 0 0 1 1.923-2.436 3.9 3.9 0 0 1 .267-.133c.02-.01.04-.017.06-.025.094-.04.188-.078.285-.1.014-.005.03-.01.044-.014l.313-.1a3.96 3.96 0 0 1 .71-.102 3.94 3.94 0 0 1 .357-.002 3.96 3.96 0 0 1 .36.031 3.95 3.95 0 0 1 .358.065l.143.034a2.96 2.96 0 0 1 .134.04c.12.036.232.077.344.123a3.9 3.9 0 0 1 1.195.77 4.37 4.37 0 0 1 .235.24l.03.033a3.95 3.95 0 0 1 .193.24l.037.05a3.97 3.97 0 0 1 .167.251 3.92 3.92 0 0 1 .448 3.072 3.94 3.94 0 0 1-4.818 2.782zm5.695-8.435c-.043-.044-.088-.086-.132-.128l-.025-.024a7.43 7.43 0 0 0-.457-.395c-.033-.026-.068-.05-.102-.077l-.096-.073 11.372-10.22 1.222.328L2.188 4.654zm45.674-28.47L38.314-7.35l-6.775-5.108 9.504-16.4c.953-1.643 2.898-2.447 4.73-1.956a4.53 4.53 0 0 1 .243.073c1.207.402 2.158 1.315 2.6 2.504.33.872.542 2.16-.763 4.4z" id="B" fill="#ec4a81"/><path d="M106.534 83.72a.76.76 0 0 0-.907.085l-2.044 1.672.4-1.487c1.18-.674 2.124-1.778 2.742-3.2.568-1.317.84-2.877.762-4.4-.017-.34-.25-.622-.583-.702a.76.76 0 0 0-.84.362l-1.445 2.247-.08-1.833c-.134-1.785-.463-3.575-.978-5.32a.59.59 0 0 0-.73-.397c-.312.09-.5.418-.397.73a24.62 24.62 0 0 1 .742 3.374l-2-1.75a.76.76 0 0 0-1.21.799c.704 2.587 1.88 4.793 3.408 6.403l-.174 1.52-1.38-2.176a.76.76 0 0 0-.84-.29.76.76 0 0 0-.546.698c-.077 1.824.104 4.485 1.37 6.952l-.598 1.37a25.08 25.08 0 0 0-.69-2.466c-.104-.308-.392-.517-.718-.52a.76.76 0 0 0-.724.507c-.84 2.373-1.084 4.85-.698 7.013l-.977 1.145a24.78 24.78 0 0 0 .064-2.568c-.01-.325-.224-.6-.535-.707a.76.76 0 0 0-.841.274c-1.504 2.04-2.48 4.357-2.767 6.557-1.564 1.177-2.4 1.5-3.26 1.82-.718.272-1.45.55-2.56 1.3-1.1-.74-1.843-1.017-2.56-1.3-.872-.33-1.697-.642-3.26-1.82-.288-2.2-1.264-4.52-2.767-6.557a.76.76 0 0 0-.841-.274c-.3.098-.526.382-.535.707a24.56 24.56 0 0 0 .064 2.568l-.977-1.145c.387-2.163.143-4.64-.698-7.013a.76.76 0 0 0-.718-.507c-.332.003-.62.212-.724.52a25.08 25.08 0 0 0-.69 2.466l-.598-1.37c1.267-2.468 1.448-5.13 1.37-6.952a.76.76 0 0 0-.546-.698c-.314-.092-.65.025-.84.3-.496.7-.952 1.422-1.38 2.176l-.174-1.52c1.528-1.6 2.704-3.816 3.408-6.403a.76.76 0 0 0-1.21-.799l-2 1.75a24.61 24.61 0 0 1 .742-3.374.59.59 0 0 0-.397-.73c-.31-.093-.637.086-.73.397a25.57 25.57 0 0 0-.978 5.32v.037l-.08 1.796a26.36 26.36 0 0 1-1.445-2.247.76.76 0 0 0-1.423.34c-.077 1.514.194 3.074.762 4.4.618 1.432 1.562 2.535 2.742 3.2l.4 1.487-2.043-1.672a.76.76 0 0 0-.907-.085c-.3.176-.427.515-.342.842.678 2.608 2.647 5.46 5.547 6.107l.8 1.3-2.437-.996a.76.76 0 0 0-.891.185c-.225.253-.258.616-.08.905 1.34 2.186 3.868 4.245 6.672 4.245l.415-.016c.775.724 1.655 1.434 2.62 2.114 1.823 1.4 2.8 1.77 3.746 2.126.588.222 1.16.44 1.953.927l-2.143 1.795a.59.59 0 0 0-.046.83c.116.13.276.196.438.196a.58.58 0 0 0 .39-.15l2.383-1.973c.644.476 1.416 1.108 2.383 1.973.112.1.252.15.4.15.16 0 .322-.066.438-.196a.59.59 0 0 0-.046-.83l-2.144-1.795c.793-.488 1.365-.704 1.953-.927.945-.357 1.922-.727 3.744-2.125.967-.68 1.847-1.4 2.622-2.115l.415.016c2.804 0 5.33-2.06 6.672-4.245a.76.76 0 0 0-.971-1.09l-2.437.996.8-1.3c2.9-.648 4.868-3.5 5.547-6.107a.76.76 0 0 0-.342-.843zm-2.195-1.582l.047-.3.025-.188.037-.288.022-.192.03-.28.018-.2.032-.377a26.77 26.77 0 0 0 1.71-2.338c-.2 1.597-.8 3.22-1.943 4.308l.022-.145zm-35.6-4.162a26.78 26.78 0 0 0 1.709 2.338l.01.107.023.265.02.197.03.272.023.197.063.485.07.456c-1.134-1.087-1.752-2.7-1.943-4.307zm4.65 3.47c-.064 1.412-.327 2.757-.77 3.947l-.043-.138-.073-.238-.055-.2-.066-.233-.1-.418-.047-.188-.054-.225-.02-.094 1.24-2.224zm-1.833-3.28l.004-.2.006-.25.008-.2.01-.245.01-.195.017-.24.008-.1 1.866-1.822c-.5 1.4-1.15 2.625-1.93 3.66v-.148l.001-.258zm-1.794 7.514a27.72 27.72 0 0 0 2.308 1.679l.04.098.097.24.076.184.105.244.08.182.116.254.08.174.195.406c-1.386-.7-2.445-2.027-3.095-3.46zm5.442 1.88c.345 1.35.482 2.706.403 3.975l-.077-.113-.14-.2-.106-.162-.132-.205-.103-.164-.124-.2-.1-.165-.116-.198-.048-.084.544-2.472zm-2.244 5.086l2.7.93.066.082.166.205.125.152.175.208.127.148.2.215.125.14.215.234.092.1c-1.53-.262-2.933-1.234-3.97-2.415zm7.22 3.84l-.2-.163-.15-.126-.2-.16-.15-.13-.18-.158-.146-.13-.172-.158-.073-.068a21.92 21.92 0 0 1-.2-2.537c.732 1.202 1.27 2.468 1.58 3.717l-.1-.087zm15.9-1.093l-.07.067-.175.16-.144.13-.18.16-.15.13-.342.287-.194.156-.115.092c.3-1.25.85-2.516 1.58-3.717l-.2 2.537zm3.715-7.833a24.94 24.94 0 0 1 .544 2.472l-.048.083-.116.197-.1.168-.122.197-.105.168-.13.2-.1.168-.134.2-.083.122c-.08-1.27.058-2.623.403-3.975zm2.245 5.086c-1.038 1.182-2.44 2.154-3.97 2.416l.305-.333.13-.147.184-.2.13-.15.173-.205.126-.154.23-.287c.915-.266 1.805-.574 2.7-.93zm-.527-17.736l1.866 1.822.008.105.016.235.012.198.01.245.007.197.006.254.004.197.001.262v.146c-.78-1.036-1.433-2.272-1.93-3.66zm.098 6.535a25.34 25.34 0 0 1 1.241 2.224l-.022.096-.053.22-.047.2-.06.23-.05.187-.068.24-.053.182-.076.25-.04.13c-.442-1.2-.704-2.534-.77-3.947zm.532 7.695l.195-.406.08-.172.117-.257.08-.18.106-.246.075-.18.137-.34a27.73 27.73 0 0 0 2.307-1.679c-.65 1.433-1.7 2.77-3.095 3.46zm-9.303-1.374h-2.205V86.46c0-.324-.263-.587-.587-.587s-.587.263-.587.587v1.894c0 .324.263.587.587.587h2.413v1.618H83.75v-1.62h2.855c.324 0 .587-.263.587-.587l.003-10.495c.001-.228-.13-.437-.338-.534s-.45-.065-.626.082L83.7 79.53l-1.08-1.43 1.08-.915c.247-.2.278-.58.068-.827s-.58-.278-.827-.068l-1.24 1.05a.95.95 0 0 0-.144 1.3l1.345 1.783a.95.95 0 0 0 .76.38.96.96 0 0 0 .612-.223l1.74-1.46v8.65H83.37c-.438 0-.795.357-.795.795v2.374c0 .44.357.795.795.795h9.47c.438 0 .795-.357.795-.795v-2.374c0-.438-.357-.795-.795-.795zm-3.16-14.928h-2.32c-.225 0-.444.08-.616.226l-1.72 1.458c-.247.2-.278.58-.068.827s.58.278.827.068l1.66-1.406h2.018v9.717c0 .324.263.587.587.587s.587-.263.587-.587V73.8c0-.525-.427-.953-.953-.953z" id="C" fill="#ec4a81"/><path d="M262.5 99.178c-.074 0-.135.027-.182.067l-.794.605c-.108.067-.168.195-.168.316 0 .175.114.35.282.35.047 0 .108-.013.16-.06l.215-.215v3.6c0 .182.215.276.437.276.215 0 .437-.094.437-.276v-4.37c0-.175-.2-.282-.4-.282zm19.115-.642h-12.067v-1.87c0-.482-.392-.875-.875-.875h-1.425V84.575c0-2.324.78-4.6 2.194-6.378l.154-.2a4.08 4.08 0 0 0 .795-1.541l1.74-6.448a2.01 2.01 0 0 0-.312-1.7 1.96 1.96 0 0 0-1.512-.82c-.928-.05-1.784.584-2.03 1.5L267.2 73a1.86 1.86 0 0 1-1.792 1.373h-.322a3.48 3.48 0 0 0 .901-2.34 3.5 3.5 0 0 0-3.496-3.496 3.5 3.5 0 0 0-3.496 3.496 3.48 3.48 0 0 0 .901 2.34h-.302A1.86 1.86 0 0 1 257.811 73l-1.063-3.938c-.247-.915-1.082-1.554-2.03-1.554a1.91 1.91 0 0 0-1.53.756 1.92 1.92 0 0 0-.33 1.674l1.762 6.527a4.08 4.08 0 0 0 .794 1.541l.133.164c1.374 1.727 2.153 3.923 2.194 6.186.006.32.267.576.587.576a.59.59 0 0 0 .587-.598c-.046-2.52-.916-4.968-2.45-6.895l-.145-.18c-.267-.324-.457-.694-.567-1.1l-1.762-6.527a.75.75 0 0 1 .727-.95.93.93 0 0 1 .896.686l1.063 3.938c.356 1.32 1.56 2.24 2.926 2.24h5.813c1.367 0 2.57-.92 2.926-2.24l1.078-3.993c.104-.386.457-.65.838-.633a.81.81 0 0 1 .62.336c.145.2.193.454.128.694l-1.74 6.448c-.1.407-.3.777-.567 1.1l-.168.208a11.49 11.49 0 0 0-2.448 7.106V95.8h-2.166v-8.127a1.42 1.42 0 0 0-1.417-1.417 1.42 1.42 0 0 0-1.417 1.417V95.8h-2.166v-8.703c0-.324-.263-.587-.587-.587s-.587.263-.587.587V95.8h-1.426c-.482 0-.875.393-.875.875v1.87h-12.067c-.482 0-.875.392-.875.875v7.2c0 .482.392.875.875.875h38.25c.482 0 .875-.392.875-.875v-7.2c0-.482-.392-.875-.875-.875zM262.5 74.356c-1.28 0-2.32-1.04-2.32-2.322a2.32 2.32 0 0 1 2.32-2.32c1.28 0 2.322 1.04 2.322 2.322a2.32 2.32 0 0 1-2.322 2.32zm-7.058 31.964h-11.768v-6.6h11.768v6.6zm7.058-18.9c.134 0 .243.1.243.243V95.8h-.487v-8.127c0-.134.1-.243.243-.243zm18.826 18.9h-11.768v-2.246c0-.324-.263-.587-.587-.587s-.587.263-.587.587v2.246h-11.768v-9.355h11.768v4.3c0 .324.263.587.587.587s.587-.263.587-.587V99.7h11.768v6.6z" id="D" fill="#ec4a81"/><path d="M369.93 158.75h-39.86c-.567 0-1.026.46-1.026 1.026s.46 1.026 1.026 1.026h39.86c.567 0 1.026-.46 1.026-1.026s-.46-1.026-1.026-1.026zm0 11.174h-39.86c-.567 0-1.026.46-1.026 1.026s.46 1.026 1.026 1.026h39.86c.567 0 1.026-.46 1.026-1.026s-.46-1.026-1.026-1.026zm-13.068 7.25h-13.725c-.567 0-1.026.46-1.026 1.026s.46 1.026 1.026 1.026h13.725c.567 0 1.026-.46 1.026-1.026s-.46-1.026-1.026-1.026zm13.068-12.86h-29.733c-.567 0-1.026.46-1.026 1.026s.46 1.026 1.026 1.026h29.733c.567 0 1.026-.46 1.026-1.026s-.46-1.026-1.026-1.026zm-34.507 0h-5.354c-.567 0-1.026.46-1.026 1.026s.46 1.026 1.026 1.026h5.354c.567 0 1.026-.46 1.026-1.026s-.46-1.026-1.026-1.026zm44.28-7.3a1.27 1.27 0 0 0-.892-.364 3.87 3.87 0 0 1-3.877-3.702 1.26 1.26 0 0 0-1.263-1.204h-47.586a1.26 1.26 0 0 0-1.263 1.204c-.1 1.984-1.713 3.608-3.697 3.697a1.26 1.26 0 0 0-1.204 1.263v26.526a1.26 1.26 0 0 0 1.204 1.263c1.984.1 3.608 1.713 3.697 3.698a1.26 1.26 0 0 0 1.263 1.204h30.294c.567 0 1.026-.46 1.026-1.026s-.46-1.026-1.026-1.026H326.8a5.89 5.89 0 0 0-4.818-4.819v-25.115a5.89 5.89 0 0 0 4.818-4.818h46.175a5.92 5.92 0 0 0 5.062 4.855v17.427c0 .567.46 1.026 1.026 1.026s1.026-.46 1.026-1.026v-18.164c0-.342-.134-.662-.378-.9zm2.45-10.392H317.85c-1.57 0-2.85 1.278-2.85 2.85v43.404c0 1.57 1.278 2.85 2.85 2.85h43.073l-1.525 3.196c-.196.4-.148.9.124 1.255s.72.545 1.17.473l2.84-.456 1.584 2.6c.222.365.617.585 1.04.585l.062-.002a1.22 1.22 0 0 0 1.038-.692l2.752-5.766 2.75 5.765a1.22 1.22 0 0 0 1.038.693l.063.002a1.22 1.22 0 0 0 1.041-.585l1.584-2.6 2.84.457c.45.072.897-.1 1.17-.474s.32-.845.124-1.255l-1.525-3.196h3.062c1.57 0 2.85-1.278 2.85-2.85v-43.405c0-1.57-1.278-2.85-2.85-2.85zm-16.087 53.786L365 198.646c-.26-.425-.743-.648-1.234-.57l-1.823.293 1.92-4.024c.757.772 1.835 1.2 2.954 1.084a1.6 1.6 0 0 1 1.08.289 3.64 3.64 0 0 0 .319.2l-2.143 4.5zm4.186-6.085c-.165.024-.323.024-.48.001a1.61 1.61 0 0 1-.695-.279c-.62-.44-1.362-.676-2.118-.676l-.344.016c-.68.064-1.325-.3-1.608-.93-.126-.275-.287-.53-.473-.762l-.026-.034-.03-.038-.037-.04c-.34-.4-.76-.7-1.236-.928-.62-.284-.993-.93-.93-1.608.083-.873-.152-1.748-.66-2.462-.395-.555-.395-1.302 0-1.857a3.66 3.66 0 0 0 .66-2.462c-.064-.68.3-1.325.93-1.608a3.66 3.66 0 0 0 1.803-1.803c.284-.62.93-.993 1.608-.93.874.082 1.748-.152 2.462-.66.556-.395 1.302-.395 1.857 0a3.66 3.66 0 0 0 2.462.66c.68-.065 1.325.3 1.6.93.365.797 1.005 1.438 1.802 1.802.62.284.993.93.93 1.608-.083.873.152 1.748.66 2.462.395.555.395 1.302 0 1.857a3.66 3.66 0 0 0-.66 2.462c.064.68-.3 1.325-.93 1.6a3.66 3.66 0 0 0-1.234.925l-.04.044-.026.033-.03.04a3.65 3.65 0 0 0-.472.761 1.61 1.61 0 0 1-1.61.93 3.66 3.66 0 0 0-2.462.66 1.6 1.6 0 0 1-.684.277zm6.004 3.753a1.21 1.21 0 0 0-1.234.57l-1.074 1.763-2.143-4.5.32-.2a1.6 1.6 0 0 1 1.08-.289c1.12.106 2.198-.312 2.955-1.084l1.92 4.024-1.823-.293zm6.693-5.2c0 .44-.357.796-.796.796H378.1l-.53-1.1.08-.04a3.66 3.66 0 0 0 2.118-3.668 1.6 1.6 0 0 1 .29-1.08 3.66 3.66 0 0 0 0-4.236 1.61 1.61 0 0 1-.29-1.08 3.66 3.66 0 0 0-2.118-3.668c-.35-.16-.63-.44-.8-.8a3.66 3.66 0 0 0-3.668-2.118 1.6 1.6 0 0 1-1.08-.289 3.66 3.66 0 0 0-4.236 0 1.6 1.6 0 0 1-1.08.289 3.66 3.66 0 0 0-3.668 2.118 1.66 1.66 0 0 1-.79.8 3.66 3.66 0 0 0-2.118 3.668 1.6 1.6 0 0 1-.29 1.08 3.66 3.66 0 0 0 0 4.235c.223.313.326.697.3 1.08a3.66 3.66 0 0 0 2.118 3.668l.08.04-.53 1.1H317.85c-.44 0-.796-.357-.796-.796v-43.404c0-.44.357-.796.796-.796h64.303a.8.8 0 0 1 .796.796v43.404zM369.93 179.28c-3.516 0-6.376 2.86-6.376 6.376s2.86 6.376 6.376 6.376 6.376-2.86 6.376-6.376-2.86-6.376-6.376-6.376zm0 10.7a4.33 4.33 0 0 1-4.323-4.323 4.33 4.33 0 0 1 4.323-4.323 4.33 4.33 0 0 1 4.323 4.323 4.33 4.33 0 0 1-4.323 4.323z" id="E" fill="#ec4a81"/><path d="M194.6 139.326a3.07 3.07 0 0 0-2.342-.307c-2.226.602-4 2.253-4.78 4.418l-.47 1.324a2.41 2.41 0 0 1-1.648 1.521l-.04.01-.878-3.275.17-.046c1.04-.28 1.66-1.352 1.38-2.392l-.684-2.555c-.28-1.04-1.352-1.66-2.392-1.38l-33.952 9.097c-1.04.28-1.66 1.352-1.38 2.392l.684 2.555c.28 1.04 1.352 1.66 2.392 1.38l.17-.046.878 3.275-.04.01a2.41 2.41 0 0 1-2.187-.493l-1.07-.9a7.01 7.01 0 0 0-6.341-1.438 3.06 3.06 0 0 0-1.882 1.439 3.07 3.07 0 0 0-.311 2.349l1.1 4.143c2.658 9.92 8.303 10.622 12.84 11.187 2.543.317 4.74.6 6.22 2.3.425.5.498 1 .218 1.513-.358.656-1.194 1.112-1.862 1.017-.8-.113-1.138-.97-1.3-1.667-.12-.553-.668-.904-1.222-.783s-.904.668-.783 1.222c.192.878.87 2.954 3.006 3.26.47.067.956.03 1.424-.095 1.04-.28 1.997-.995 2.53-1.97.057-.104.106-.2.15-.316a30.26 30.26 0 0 0 9.411 5.88l.22.086a2.72 2.72 0 0 0-.021 1.478l.192.716c.326 1.217 1.427 2.02 2.63 2.03l2.618 9.772-3.022.8c-1.775.476-2.832 2.306-2.356 4.08l.307 1.146-2.755.738c-1.066.286-1.784 1.292-1.708 2.392l.348 5.044a2.31 2.31 0 0 0 2.905 2.075l26.148-7.006a2.3 2.3 0 0 0 1.506-1.276 2.31 2.31 0 0 0-.027-1.974l-2.22-4.542c-.485-1-1.6-1.503-2.676-1.218l-2.755.738-.307-1.146c-.476-1.775-2.306-2.832-4.08-2.356l-3.022.8-2.618-9.772c1.037-.6 1.6-1.855 1.263-3.072l-.192-.716a2.72 2.72 0 0 0-.757-1.27l.148-.185c2.352-2.944 4.1-6.276 5.2-9.798a3.6 3.6 0 0 0 .289.199c.95.58 2.135.72 3.176.44a3.55 3.55 0 0 0 1.28-.63c1.696-1.332 1.246-3.47.973-4.326-.172-.54-.747-.838-1.3-.667s-.84.75-.667 1.3c.217.68.343 1.597-.285 2.1-.53.417-1.482.44-2.12.05-.5-.305-.7-.782-.568-1.42.427-2.22 2.192-3.556 4.236-5.102 3.646-2.757 8.183-6.2 5.525-16.108l-1.1-4.144a3.07 3.07 0 0 0-1.443-1.879zm-40.52 30.222c-2.162-.27-4.398-.548-6.318-1.8-2.185-1.425-3.752-4.003-4.792-7.882l-1.1-4.143a1.03 1.03 0 0 1 .734-1.272 4.96 4.96 0 0 1 4.487 1.016l1.07.9c1.118.952 2.63 1.293 4.05.913l.04-.01 1.143 4.266a30.2 30.2 0 0 0 3.763 8.494c-1.003-.235-2.04-.365-3.065-.493zm33.02 25.966a1.28 1.28 0 0 1 1.568.905l.307 1.146-8.812 2.36a1.03 1.03 0 0 0-.726 1.257 1.03 1.03 0 0 0 1.257.726l13.55-3.63a.26.26 0 0 1 .301.137l2.22 4.542c.045.1.026.17.003.222s-.07.117-.17.143l-26.148 7.006c-.098.026-.173-.007-.22-.04a.26.26 0 0 1-.11-.194l-.348-5.044a.26.26 0 0 1 .192-.269l6.115-1.638a1.03 1.03 0 0 0 .726-1.257 1.03 1.03 0 0 0-1.257-.726l-1.377.37-.307-1.146a1.28 1.28 0 0 1 .905-1.568l12.327-3.303zm-12.258-11.333a.69.69 0 0 1-.844-.487l-.192-.716a.69.69 0 0 1 .487-.844l4.88-1.308a.69.69 0 0 1 .844.487l.192.716a.69.69 0 0 1-.487.844l-4.88 1.308zm4.13 1.018l2.592 9.674-2.32.62-2.592-9.674 2.32-.62zm.814-7.152l-.566.708a2.74 2.74 0 0 0-.579.089l-4.88 1.308a2.74 2.74 0 0 0-.546.212l-.844-.33a28.36 28.36 0 0 1-17-19.018l-2.552-9.523 18.6-4.98a1.03 1.03 0 0 0 .726-1.257 1.03 1.03 0 0 0-1.257-.726l-20.647 5.532-.633-2.363 33.76-9.046.633 2.363-8.503 2.278a1.03 1.03 0 0 0-.726 1.257 1.03 1.03 0 0 0 1.257.726l6.445-1.727 2.552 9.523c2.317 8.645.364 17.982-5.222 24.975zm15.382-32.167c1.04 3.88.97 6.895-.2 9.222-1.037 2.045-2.834 3.404-4.572 4.718-.824.623-1.658 1.254-2.408 1.96.145-3.083-.174-6.2-.988-9.238l-1.143-4.266.04-.01c1.418-.38 2.558-1.432 3.05-2.815l.47-1.324a4.96 4.96 0 0 1 3.375-3.123 1.03 1.03 0 0 1 1.274.734l1.1 4.144zm-15.698 10.997c-.257-.396-.708-.607-1.177-.552l-4.8.565-3.182-3.626a1.22 1.22 0 0 0-1.244-.377 1.23 1.23 0 0 0-.89.948l-.943 4.732-4.432 1.906a1.22 1.22 0 0 0-.743 1.066c-.025.47.216.908.627 1.138l4.2 2.36.443 4.804c.043.47.344.867.784 1.036s.93.075 1.277-.245l3.544-3.274 4.706 1.063a1.23 1.23 0 0 0 .591-.011 1.22 1.22 0 0 0 .798-1.705l-2.018-4.382 2.466-4.147a1.23 1.23 0 0 0-.026-1.3zm-4.425 4.77a1.23 1.23 0 0 0-.06 1.144l1.503 3.263-3.503-.792a1.23 1.23 0 0 0-.591.011c-.2.05-.368.147-.516.285l-2.64 2.438-.33-3.578a1.23 1.23 0 0 0-.624-.96l-3.134-1.756 3.3-1.42a1.23 1.23 0 0 0 .721-.89l.702-3.523 2.37 2.7a1.23 1.23 0 0 0 1.07.411l3.568-.42-1.836 3.088z" id="F" fill="#ec4a81"/><path d="M111.81 269.185c-.353-.38-.802-.64-1.296-.758.285-.876.1-1.877-.57-2.598-.476-.513-1.124-.8-1.824-.836l-.063-.001a2.61 2.61 0 0 0-.695-1.907 2.6 2.6 0 0 0-1.798-.834c.062-.713-.165-1.448-.69-2.012-.476-.513-1.124-.8-1.824-.836s-1.367.222-1.88.7l-.348.323c-.505-.364-1.11-.57-1.75-.593-.318-.01-.63.026-.933.105l-1.42-1.7a1.43 1.43 0 0 0-2.008-.18l-.37.31-14.87-17.728c-.26-.3-.722-.35-1.032-.09s-.35.722-.09 1.032l.026.03-15.5 12.936c-.26.218-.4.54-.384.88s.19.645.472.835l5.883 3.97 3.11 6.815c.14.307.4.527.74.6a1.08 1.08 0 0 0 .24.027c.25 0 .5-.087.686-.25l15.507-12.98 4.077 4.86-.514.43a1.42 1.42 0 0 0-.506.967c-.034.38.082.75.327 1.042l1.443 1.725c-.195.296-.353.615-.467.95l-2.88 7.08-13.845 10.645a1.36 1.36 0 0 0-.465 1.539 1.36 1.36 0 0 0 1.307.936h15.22a1.39 1.39 0 0 0 .989-.417l4.132-4.243 4.35-.313c.027-.002.053-.005.08-.01a5.23 5.23 0 0 0 2.596-1.296l1.827-1.66.042-.033 1.175-.985c.49-.085.944-.308 1.317-.654l2.33-2.163c1.047-.973 1.108-2.616.135-3.663zm-38.722-3.213l-2.943-6.448a1.07 1.07 0 0 0-.376-.444l-5.544-3.74 15.093-12.605 8.882 10.6-15.113 12.648zm31.834-.2a2.3 2.3 0 0 0-.487-1.546l.22-.206a1.15 1.15 0 0 1 1.634.06 1.16 1.16 0 0 1 .025 1.544l-.074.065-2.287 2.125-.098.096a1.14 1.14 0 0 1-.59.23c.164-.092.32-.202.464-.335l.424-.394a2.39 2.39 0 0 0 .768-1.64zm-2.752-4.598c.226-.2.52-.32.83-.308a1.15 1.15 0 0 1 .804.369 1.16 1.16 0 0 1-.06 1.633l-.3.28-1.575-1.692.302-.28zm-8.496-.34l1.95-1.627 1.194 1.427-.108.097-1.746 1.643-1.288-1.54zm10.323 16.426a3.77 3.77 0 0 1-1.834.93l-4.586.33c-.18.013-.347.09-.472.22l-4.302 4.417H77.864l13.806-10.616.05-.04a.72.72 0 0 0 .065-.068l.062-.085c.026-.043.04-.073.054-.104l2.98-7.333a2.77 2.77 0 0 1 .726-1.131l2.103-1.98c.36-.34.828-.52 1.314-.502a1.69 1.69 0 0 1 1.191.536l3.018 3.24a.85.85 0 0 1 .225.626c-.012.243-.12.47-.302.64l-.424.394c-.294.273-.71.324-1.035.16l-.025-.012a.83.83 0 0 1-.207-.162l-1.068-1.15c-.382-.41-.903-.647-1.468-.666-.58-.02-1.134.19-1.56.592-.16.15-.243.363-.23.58a4.11 4.11 0 0 1-.022.786l-.005.04c-.086.624-.325 1.187-.725 1.706a.73.73 0 0 0 .133 1.027c.32.247.78.187 1.027-.133s.453-.66.614-1.016l6.68 7.987-.847.788zm1.942-1.763l-7.336-8.77.013-.316c.085-.032.175-.047.267-.044a.63.63 0 0 1 .444.199l1.068 1.15c.11.118.228.22.355.31a2.58 2.58 0 0 0 .486.749c.476.513 1.124.8 1.824.836l.063.001c-.032.68.197 1.37.695 1.906a2.6 2.6 0 0 0 1.309.766c-.292.87-.11 1.87.557 2.59a2.61 2.61 0 0 0 .489.412l-.232.21zm-.244-4.608a1.15 1.15 0 0 1-.804-.369 1.16 1.16 0 0 1-.025-1.544l.074-.066 2.287-2.125.098-.096c.212-.162.472-.245.743-.235a1.15 1.15 0 0 1 .804.369 1.16 1.16 0 0 1-.06 1.633l-.422.392a2.64 2.64 0 0 0-.243.2l-1.788 1.66c-.196.125-.425.19-.663.18zm4.984.884l-2.328 2.163c-.188.175-.424.278-.677.297l-.03.002-.102.001a1.12 1.12 0 0 1-.785-.36 1.13 1.13 0 0 1 .059-1.593l.462-.43c.085-.062.166-.128.244-.2l1.787-1.66a1.12 1.12 0 0 1 1.429.185 1.13 1.13 0 0 1-.059 1.594z" id="G" fill="#ec4a81"/><path d="M287.402 248.033c-.8-5.978-3.746-11.478-8.292-15.487a25.1 25.1 0 0 0-33.218-.002c-4.546 4.007-7.492 9.506-8.294 15.483a1.32 1.32 0 0 0 1.131 1.482 1.32 1.32 0 0 0 1.482-1.131c1.5-11.098 11.072-19.468 22.3-19.468s20.802 8.372 22.3 19.473a1.32 1.32 0 0 0 1.305 1.143 1.34 1.34 0 0 0 .177-.012 1.32 1.32 0 0 0 1.132-1.482zm-1.114 5.013a1.32 1.32 0 0 0-1.47 1.146c-1.4 11.23-10.985 19.697-22.318 19.697-11.342 0-20.937-8.475-22.32-19.713a1.32 1.32 0 0 0-1.469-1.147 1.32 1.32 0 0 0-1.147 1.469c1.545 12.558 12.265 22.028 24.937 22.028 12.662 0 23.38-9.462 24.934-22a1.32 1.32 0 0 0-1.146-1.47zm-16.16 6.667h-2.955V237.1a1.7 1.7 0 0 0-1.699-1.699h-4.445a1.7 1.7 0 0 0-1.092.397l-8.076 6.777a1.69 1.69 0 0 0-.246 2.347l2.65 3.4a1.71 1.71 0 0 0 1.155.643c.454.05.915-.1 1.266-.38l1.84-1.524v12.66h-3.73a1.7 1.7 0 0 0-1.699 1.699v4.03a1.7 1.7 0 0 0 1.699 1.699h15.333a1.7 1.7 0 0 0 1.699-1.699v-4.03a1.7 1.7 0 0 0-1.699-1.699zm-.938 4.793h-13.458v-2.156h3.73a1.7 1.7 0 0 0 1.699-1.699v-15.59c0-.665-.374-1.254-.976-1.537a1.68 1.68 0 0 0-1.807.23l-2.633 2.18-1.497-1.916 7.12-5.976h3.166v22.612a1.7 1.7 0 0 0 1.699 1.699h2.955v2.156zm29.06 28.422l-11.878-18.58c1.337-.277 2.542-1.032 3.373-2.132.957-1.267 1.34-2.9 1.047-4.45a3.04 3.04 0 0 1 1.625-3.263c1.422-.708 2.486-2 2.92-3.518a5.69 5.69 0 0 0-.63-4.53 3.04 3.04 0 0 1 .336-3.629 5.67 5.67 0 0 0 1.453-4.335c-.147-1.58-.957-3.037-2.225-3.995a3.04 3.04 0 0 1-.997-3.506c.573-1.48.496-3.146-.212-4.568s-2-2.486-3.518-2.92a3.04 3.04 0 0 1-2.197-2.909c0-1.588-.674-3.113-1.847-4.183s-2.754-1.6-4.335-1.454a3.04 3.04 0 0 1-3.099-1.919c-.574-1.48-1.753-2.66-3.234-3.233a5.68 5.68 0 0 0-4.567.21 3.04 3.04 0 0 1-3.583-.67 5.67 5.67 0 0 0-4.183-1.847c-1.588 0-3.113.673-4.183 1.846a3.04 3.04 0 0 1-3.583.67 5.67 5.67 0 0 0-4.567-.21 5.68 5.68 0 0 0-3.234 3.233 3.04 3.04 0 0 1-3.099 1.919 5.67 5.67 0 0 0-4.335 1.454c-1.173 1.07-1.847 2.595-1.847 4.183a3.04 3.04 0 0 1-2.197 2.909c-1.528.435-2.8 1.5-3.518 2.92s-.785 3.087-.212 4.568a3.04 3.04 0 0 1-.997 3.506c-1.267.957-2.078 2.413-2.225 3.995a5.67 5.67 0 0 0 1.453 4.335 3.04 3.04 0 0 1 .336 3.629 5.67 5.67 0 0 0-.63 4.53 5.7 5.7 0 0 0 2.92 3.518 3.04 3.04 0 0 1 1.625 3.263 5.71 5.71 0 0 0 1.047 4.45c.83 1.1 2.036 1.854 3.373 2.132l-11.878 18.58a2.1 2.1 0 0 0 1.966 3.244l11.592-1.02 3.94 10.95a2.1 2.1 0 0 0 1.753 1.385 2.18 2.18 0 0 0 .241.014 2.1 2.1 0 0 0 1.776-.975L262.5 283.87l14.483 22.654c.393.615 1.058.975 1.776.975a2.14 2.14 0 0 0 .241-.014 2.1 2.1 0 0 0 1.753-1.385l3.94-10.95 11.592 1.02a2.1 2.1 0 0 0 1.966-3.244zm-68.708.525l11.58-18.114a3.03 3.03 0 0 1 .82 1.56 5.68 5.68 0 0 0 1.582 2.98l-8.247 13.07-5.734.505zm13.6 1.82l-.5-1.392c-.325-.902-1.22-1.475-2.174-1.4l-1.9.167 7.2-11.412a5.67 5.67 0 0 0 3.277.057c.912-.26 1.876-.065 2.613.473l-8.515 13.497zm3.216 8.937l-2.083-5.8 9.196-14.575a5.67 5.67 0 0 0 2.746 1.359 5.68 5.68 0 0 0 2.327-.053L246.36 304.2zm16.953-23.232a1.33 1.33 0 0 0-.257-.031l-.564-.03a5.71 5.71 0 0 0-.564.031 1.4 1.4 0 0 0-.258.03 5.63 5.63 0 0 0-2.589 1.075 2.99 2.99 0 0 1-4.394-.821 5.6 5.6 0 0 0-.31-.445l-.052-.064c-1.403-1.784-3.782-2.586-6-1.955a2.99 2.99 0 0 1-3.801-2.353c-.338-1.804-1.534-3.295-3.13-4.06-.082-.048-.166-.086-.252-.114a5.6 5.6 0 0 0-1.66-.42 2.99 2.99 0 0 1-2.694-3.567 5.69 5.69 0 0 0-3.04-6.106 2.99 2.99 0 0 1-1.223-4.299c1.324-2.14 1.065-4.933-.63-6.793a2.99 2.99 0 0 1-.776-2.316 2.99 2.99 0 0 1 1.189-2.135c2.008-1.517 2.775-4.215 1.867-6.56a2.99 2.99 0 0 1 1.993-4.001c2.42-.7 4.1-2.928 4.1-5.444a2.99 2.99 0 0 1 3.303-3.011 5.68 5.68 0 0 0 5.8-3.59 2.99 2.99 0 0 1 4.168-1.615 5.69 5.69 0 0 0 6.706-1.253 2.99 2.99 0 0 1 2.235-.986 2.99 2.99 0 0 1 2.235.986c1.695 1.86 4.453 2.374 6.706 1.253a2.99 2.99 0 0 1 4.168 1.615c.9 2.346 3.293 3.823 5.8 3.6a2.99 2.99 0 0 1 3.303 3.011c0 2.516 1.7 4.755 4.1 5.444a2.99 2.99 0 0 1 1.992 4.001 5.68 5.68 0 0 0 1.867 6.56 2.99 2.99 0 0 1 1.189 2.135 2.99 2.99 0 0 1-.776 2.316c-1.695 1.86-1.954 4.653-.63 6.793a2.99 2.99 0 0 1-1.223 4.299c-2.252 1.122-3.502 3.633-3.04 6.106a2.99 2.99 0 0 1-2.694 3.567c-.583.054-1.14.2-1.66.42a1.32 1.32 0 0 0-.25.113c-1.595.766-2.792 2.257-3.13 4.06a2.99 2.99 0 0 1-3.801 2.353c-2.218-.63-4.598.17-6 1.956l-.05.062-.3.446a2.99 2.99 0 0 1-4.394.821c-.774-.585-1.668-.94-2.6-1.075zm15.3 23.232l-12.186-19.062a5.61 5.61 0 0 0 1.292.15 5.65 5.65 0 0 0 1.036-.096 5.67 5.67 0 0 0 2.745-1.359l9.196 14.575-2.083 5.8zm5.9-11.72a2.11 2.11 0 0 0-2.174 1.4l-.5 1.393-8.516-13.497c.738-.538 1.7-.733 2.614-.473 1.08.307 2.223.28 3.277-.057l7.2 11.412-1.9-.167zm5.2.458l-8.246-13.07c.8-.803 1.37-1.84 1.582-2.98.113-.604.407-1.14.82-1.56l11.58 18.114-5.735-.505z" id="H" fill="#ec4a81"/><path id="I" d="M0 0h350v350H0z"/></defs><pattern id="J" width="350" height="350" patternUnits="userSpaceOnUse"><use xlink:href="#A" x="-350" y="-350"/><use xlink:href="#A" y="-350"/><use xlink:href="#A" x="350" y="-350"/><use xlink:href="#A" x="-350"/><use xlink:href="#A"/><use xlink:href="#A" x="350"/><use xlink:href="#A" x="-350" y="350"/><use xlink:href="#A" y="350"/><use xlink:href="#A" x="350" y="350"/></pattern><use xlink:href="#I" fill="url(#J)"/><pattern id="K" width="350" height="350" patternUnits="userSpaceOnUse"><use xlink:href="#B" x="-350" y="-350"/><use xlink:href="#B" y="-350"/><use xlink:href="#B" x="350" y="-350"/><use xlink:href="#B" x="-350"/><use xlink:href="#B"/><use xlink:href="#B" x="350"/><use xlink:href="#B" x="-350" y="350"/><use xlink:href="#B" y="350"/><use xlink:href="#B" x="350" y="350"/></pattern><use xlink:href="#I" fill="url(#K)"/><pattern id="L" width="350" height="350" patternUnits="userSpaceOnUse"><use xlink:href="#C" x="-350" y="-350"/><use xlink:href="#C" y="-350"/><use xlink:href="#C" x="350" y="-350"/><use xlink:href="#C" x="-350"/><use xlink:href="#C"/><use xlink:href="#C" x="350"/><use xlink:href="#C" x="-350" y="350"/><use xlink:href="#C" y="350"/><use xlink:href="#C" x="350" y="350"/></pattern><use xlink:href="#I" fill="url(#L)"/><pattern id="M" width="350" height="350" patternUnits="userSpaceOnUse"><use xlink:href="#D" x="-350" y="-350"/><use xlink:href="#D" y="-350"/><use xlink:href="#D" x="350" y="-350"/><use xlink:href="#D" x="-350"/><use xlink:href="#D"/><use xlink:href="#D" x="350"/><use xlink:href="#D" x="-350" y="350"/><use xlink:href="#D" y="350"/><use xlink:href="#D" x="350" y="350"/></pattern><use xlink:href="#I" fill="url(#M)"/><pattern id="N" width="350" height="350" patternUnits="userSpaceOnUse"><use xlink:href="#E" x="-350" y="-350"/><use xlink:href="#E" y="-350"/><use xlink:href="#E" x="350" y="-350"/><use xlink:href="#E" x="-350"/><use xlink:href="#E"/><use xlink:href="#E" x="350"/><use xlink:href="#E" x="-350" y="350"/><use xlink:href="#E" y="350"/><use xlink:href="#E" x="350" y="350"/></pattern><use xlink:href="#I" fill="url(#N)"/><pattern id="O" width="350" height="350" patternUnits="userSpaceOnUse"><use xlink:href="#F" x="-350" y="-350"/><use xlink:href="#F" y="-350"/><use xlink:href="#F" x="350" y="-350"/><use xlink:href="#F" x="-350"/><use xlink:href="#F"/><use xlink:href="#F" x="350"/><use xlink:href="#F" x="-350" y="350"/><use xlink:href="#F" y="350"/><use xlink:href="#F" x="350" y="350"/></pattern><use xlink:href="#I" fill="url(#O)"/><pattern id="P" width="350" height="350" patternUnits="userSpaceOnUse"><use xlink:href="#G" x="-350" y="-350"/><use xlink:href="#G" y="-350"/><use xlink:href="#G" x="350" y="-350"/><use xlink:href="#G" x="-350"/><use xlink:href="#G"/><use xlink:href="#G" x="350"/><use xlink:href="#G" x="-350" y="350"/><use xlink:href="#G" y="350"/><use xlink:href="#G" x="350" y="350"/></pattern><use xlink:href="#I" fill="url(#P)"/><pattern id="Q" width="350" height="350" patternUnits="userSpaceOnUse"><use xlink:href="#H" x="-350" y="-350"/><use xlink:href="#H" y="-350"/><use xlink:href="#H" x="350" y="-350"/><use xlink:href="#H" x="-350"/><use xlink:href="#H"/><use xlink:href="#H" x="350"/><use xlink:href="#H" x="-350" y="350"/><use xlink:href="#H" y="350"/><use xlink:href="#H" x="350" y="350"/></pattern><use xlink:href="#I" fill="url(#Q)"/></svg>