<svg xmlns="http://www.w3.org/2000/svg" xmlns:xlink="http://www.w3.org/1999/xlink" width="400" height="400" viewBox="0 0 350 350"><use xlink:href="#I" opacity="0" fill="#fff"/><defs><path d="M369.536 377.236a147.22 147.22 0 0 0 5.666-16.998 11.21 11.21 0 0 0 4.379-2.195c3.65-3.025 5.292-8.3 4.908-15.685-.023-.382-.174-.746-.43-1.032l-.904-1.036c1.824-6.098 1.32-12.656-1.418-18.402-3.472-6.785-10.284-11.573-20.304-14.258s-18.347-1.883-24.712 2.196c-5.243 3.61-8.96 9.035-10.43 15.228l-1.3.445c-.364.12-.676.36-.887.68-6.97 10.74-4.066 16.95-1.003 20.064-1.656 5.774-2.897 11.66-3.713 17.61-9.9 1.106-21.25 4.745-23.776 15.285-.243.91.296 1.843 1.204 2.086l83.632 22.41c.91.243 1.843-.296 2.086-1.204 3.08-10.443-5.034-19.318-13-25.192zm-45.283-35.073c-2.394-4.17-.294-9.505 2.347-13.71l1.65-.563c.596-.202 1.032-.716 1.134-1.336 1.18-5.647 4.457-10.636 9.172-13.96 5.513-3.53 12.907-4.142 21.932-1.76s15.105 6.675 18.118 12.543c2.42 5.236 2.766 11.196.963 16.676-.222.59-.1 1.25.314 1.724l1.164 1.317c.177 5.92-1.02 10.06-3.698 12.288-.368.302-.764.568-1.183.794 2.77-12.642 2.35-22.79-1.33-30.247-1.637-3.347-4.06-6.248-7.064-8.453l-.148-.04a28.14 28.14 0 0 0-8.972-4.291c-5.958-1.86-12.438-.927-17.628 2.542-8.173 5.413-13.46 16.376-16.77 26.475zm34.3 25.447l.034-.06a19.3 19.3 0 0 0 3.843-3.679c.67-.86 1.27-1.772 1.8-2.73l4.854-.674a14.75 14.75 0 0 0 2.5.211 148.05 148.05 0 0 1-4.922 14.552c-2.805-1.855-5.726-3.527-8.746-5.006l.626-2.336a1.6 1.6 0 0 0 .021-.276zm-5.847-6.6a1.91 1.91 0 0 1-2.337 1.349 1.91 1.91 0 0 1-1.349-2.337 1.91 1.91 0 0 1 2.337-1.349 1.91 1.91 0 0 1 1.308 2.359l-.01.034.05-.057zm-.5-5.566l.034-.06c-2.83-.78-5.755.885-6.534 3.714s.885 5.755 3.714 6.534c2.7.74 5.495-.726 6.422-3.358l3.94-.55c-4.717 6.02-12.488 6.723-14.712 6.797-7.694-7.352-11.044-13.54-9.576-18.296 2.35-7.588 16.097-9.794 17.672-10.078 3.222-.383 6.3-1.558 8.958-3.42 2.16 8.85 2.074 15.95-.21 21.247l-6.042.832c-.6-1.66-1.963-2.918-3.666-3.363zm-25.445-9.745l.08-.032c3.072-10.216 8.152-21.87 16.11-27.214 4.35-2.946 9.815-3.72 14.81-2.098 2.423.67 4.733 1.693 6.857 3.037a13.63 13.63 0 0 0-.629 4.716c-.024 2.92-.054 5.928-2.204 8.227l-.03.115c-.045.045-.087.093-.126.142-.04.148-2.198 3.202-8.938 4.2-2.9.422-17.517 3.048-20.418 12.428-1.05 3.387-.413 7.137 1.856 11.237-.193.196-.336.436-.417.7l-.622 2.32a78.25 78.25 0 0 0-10.255-.032c.844-5.662 2.06-11.262 3.645-16.764.192-.29.3-.634.28-.983zm42.826 11.352c-.206-.048-.42-.057-.628-.027l-3.114.435c1.92-6.116 1.632-13.988-.973-23.485a15.33 15.33 0 0 0 2.645-9.872c-.002-.847.03-1.756.086-2.428a19.77 19.77 0 0 1 4.25 5.724c3.504 7.13 3.736 17.12.672 29.806a10.95 10.95 0 0 1-2.939-.153zm-31.71 31.604l-38.468-10.307c4.61-12.008 26.084-11.79 32.727-11.44l-.772 2.88c-1 3.735 2.778 7.798 8.902 9.95l-2.39 8.918zm-3.226-17.97l1.763-6.58a56.02 56.02 0 0 0 6.829 7.42c.203.192.45.33.72.405l.362.097a25.82 25.82 0 0 0 10.15-2.077l-1.52 5.676c-.42 1.563-4.593 2.86-10.17 1.366s-8.538-4.792-8.133-6.306zm6.517 18.852l2.385-8.9c6.367 1.247 11.675-.4 12.685-4.166l.772-2.88c5.982 3.014 24.593 13.52 22.622 26.27l-38.463-10.324z" id="A" fill="#ec4a81"/><path d="M282.415 97.85a6.96 6.96 0 0 0-1.758-2.914c-1.303-1.3-3.076-2.044-4.923-2.04a7 7 0 0 0-2.747.563l-6.848-6.848 9.093-9.024 2.153-.06a.76.76 0 0 0 .632-.373l3.082-5.182a.76.76 0 0 0-.114-.928l-2.663-2.663a.76.76 0 0 0-.928-.114l-5.182 3.082a.76.76 0 0 0-.373.632l-.06 2.146-9.07 9.055-6.224-6.224c.654-3.79-1.888-7.39-5.678-8.044a6.96 6.96 0 0 0-5.043 1.067.76.76 0 0 0 .053 1.294l3.454 1.925c.76.434.913 1.727.297 2.823s-1.796 1.66-2.564 1.233l-3.203-1.735a.76.76 0 0 0-1.126.715c.24 3.838 3.547 6.753 7.385 6.513a6.96 6.96 0 0 0 2.302-.547l5.66 5.66-2.45 2.45-.555-.548a1.59 1.59 0 0 0-2.199 0l-.76.76a1.52 1.52 0 0 0-.084 2.092l-9 8.986a1.52 1.52 0 0 0-.047 2.152l2.62 2.62a1.52 1.52 0 0 0 2.152.047l9.056-9.05a1.52 1.52 0 0 0 2.092-.084l.76-.76a1.52 1.52 0 0 0 .047-2.152l-.603-.603 2.435-2.488 7.38 7.38c-.638 3.792 1.92 7.383 5.71 8.02a6.96 6.96 0 0 0 6.128-1.994.76.76 0 0 0-.342-1.233l-4.284-1.15a1.41 1.41 0 0 1-.898-.875c-.223-.574-.25-1.205-.076-1.796.32-1.195 1.332-2.047 2.184-1.82l4.238 1.14c.068.01.137.01.205 0a.76.76 0 0 0 .685-1.111zm-9.367-22.88a.76.76 0 0 0 .221-.517l.06-2.032 4.314-2.564 1.826 1.826-2.51 4.307-2.07.076a.76.76 0 0 0-.517.221l-9.283 9.275-1.31-1.31 9.268-9.283zm-26.388 30.322l-2.6-2.595 9.047-9.024 1.31 1.31 1.248 1.294-8.994 9.017zm11.132-9.13l-1.004-1.012-.388-.388-3.196-3.22.76-.76 4.565 4.626-.738.753zm.145-3.47l-1.31-1.31 2.45-2.45 1.31 1.31-2.45 2.45zm19.723 3.66c-.226-.06-.46-.09-.692-.09a3.73 3.73 0 0 0-3.356 2.983c-.26.916-.21 1.893.145 2.777a2.9 2.9 0 0 0 1.91 1.75l2.83.76a5.44 5.44 0 0 1-8.081-5.92.76.76 0 0 0-.205-.708l-17.15-17.166a.76.76 0 0 0-.898-.107c-.786.415-1.66.63-2.55.632-2.29.002-4.334-1.43-5.113-3.584l1.735.966c.404.226.86.344 1.324.342a3.97 3.97 0 0 0 3.31-2.161c1.035-1.85.632-4.048-.9-4.9l-2.214-1.255a5.44 5.44 0 0 1 7.13 6.354.76.76 0 0 0 .205.708l17.19 17.18a.76.76 0 0 0 .89.137 5.47 5.47 0 0 1 2.549-.632c1.927-.002 3.7 1.018 4.687 2.678l-2.754-.746z" id="B" fill="#ec4a81"/><path d="M182.444 140.933a34.3 34.3 0 0 0-16.45.279c-18.298 4.9-29.16 23.705-24.26 42.003a34.3 34.3 0 0 0 15.59 20.602l1.254 10.217a1.35 1.35 0 0 0 2.361.767l6.185-7.004c18.464 4.23 36.862-7.308 41.093-25.772s-7.308-36.862-25.772-41.092zm19.888 49.032c-4.174 7.348-11.118 12.717-19.28 14.908a31.61 31.61 0 0 1-16.054.103 1.35 1.35 0 0 0-1.306.35l-4.864 5.404-.897-7.892a1.35 1.35 0 0 0-.676-1.009c-15.172-8.62-20.484-27.906-11.865-43.078s27.906-20.484 43.078-11.865 20.484 27.906 11.865 43.078zm-16.837-5.9l-1.084.3-5.172-19.3a1.35 1.35 0 0 0-1.656-.956l-11.27 3.02a1.35 1.35 0 0 0-.956 1.656l1.26 4.7a1.35 1.35 0 0 0 1.656.956l1.097-.294 3.562 13.294-1.097.294a1.35 1.35 0 0 0-.956 1.656l1.26 4.7a1.35 1.35 0 0 0 1.656.956l13.66-3.66a1.35 1.35 0 0 0 .956-1.656l-1.26-4.7a1.35 1.35 0 0 0-1.656-.956zm-11.094 8l-.56-2.1 1.097-.294a1.35 1.35 0 0 0 .956-1.656l-4.262-15.906a1.35 1.35 0 0 0-1.656-.956l-1.097.294-.56-2.1 8.645-2.316 5.172 19.3a1.35 1.35 0 0 0 1.656.956l1.084-.3.573 2.086-11.048 2.96zm-5.328-39.37c-3.022.8-4.815 3.916-4.006 6.938s3.916 4.815 6.938 4.006 4.815-3.916 4.006-6.938-3.916-4.815-6.938-4.006zm2.236 8.345a2.967 2.967 0 1 1-1.549-5.729l.017.01a2.961 2.961 0 1 1 1.533 5.72z" id="C" fill="#ec4a81"/><path d="M107.624 260.626a2.92 2.92 0 0 0-1.868-1.385v-4.313c0-9.602-8.198-17.428-18.274-17.428s-18.274 7.826-18.274 17.428v4.313a2.92 2.92 0 0 0-1.859 1.422c-.306.59-.457 1.25-.437 1.915v9.5c-.018.662.132 1.318.437 1.906a3.19 3.19 0 0 0 3.04 1.571h1.44a1.86 1.86 0 0 0 1.859 1.747h1.636a1.86 1.86 0 0 0 1.859-1.859v-16.406a1.86 1.86 0 0 0-1.859-1.859H73.64a1.86 1.86 0 0 0-1.859 1.859v.074h-.753v-4.174c0-8.59 7.362-15.57 16.415-15.57s16.415 6.98 16.415 15.57v4.174h-.753v-.074a1.86 1.86 0 0 0-1.859-1.859h-1.562a1.86 1.86 0 0 0-1.859 1.859v16.47a1.86 1.86 0 0 0 1.655 1.803 6.04 6.04 0 0 1-1.506 3.17c-1.46 1.617-3.84 2.547-7.046 2.79v-.41a1.95 1.95 0 0 0-2.026-1.859h-3.988a1.95 1.95 0 0 0-2.026 1.859v2.79a1.95 1.95 0 0 0 2.026 1.859h4.025a1.95 1.95 0 0 0 2.026-1.859v-.52c3.765-.25 6.61-1.385 8.42-3.383a7.93 7.93 0 0 0 2.036-4.443 1.86 1.86 0 0 0 1.747-1.738h1.44a3.19 3.19 0 0 0 3.04-1.571c.305-.588.455-1.244.437-1.906v-9.5c.018-.68-.142-1.353-.465-1.952zM73.688 273.76v-12.837c.01-.108.01-.217 0-.325v-1.534l1.562-.046v16.424h-1.562v-1.682zm-1.86-12.883v12.81h-1.44c-1.078 0-1.33-.455-1.413-.613a2.13 2.13 0 0 1-.204-1.013v-9.48a2.13 2.13 0 0 1 .195-1.022c.084-.15.335-.613 1.413-.613l1.45-.065zm17.317 23.33v1.273a.25.25 0 0 1-.204.13h-4.025c-.05.004-.1.004-.15 0v-2.714a.25.25 0 0 1 .186-.056h4.192v1.366zm12.14-23.284v14.52h-1.57v-16.415h1.6l-.028 1.896zm4.703 12.167c-.084.15-.335.613-1.413.613h-1.43V260.96h1.43c1.078 0 1.33.455 1.413.613a2.13 2.13 0 0 1 .204 1.013v9.5a2.13 2.13 0 0 1-.204 1.013z" id="D" fill="#ec4a81"/><path d="M275.37 279.167V277.6a16.33 16.33 0 0 0 1.278-1.158c3.273-3.604 5.334-8.143 5.894-12.98 2.942-.448 5.593-2.025 7.393-4.395 2.47-3.492 2.69-8.517.63-14.82-.12-.363-.36-.676-.68-.886l-.937-.63c.138-5.687-1.827-11.224-5.52-15.552-4.582-5.16-11.617-7.767-20.934-7.8-9.3 0-16.352 2.64-20.934 7.733-3.692 4.327-5.657 9.865-5.52 15.552l-.937.63c-.32.2-.56.522-.68.886-2.06 6.337-1.84 11.327.63 14.82a11.48 11.48 0 0 0 7.393 4.446 23.3 23.3 0 0 0 5.911 12.997c.406.408.832.795 1.278 1.158v1.567c-6.524 1.26-32.568 7.376-32.126 24.75 0 .94.763 1.703 1.703 1.703h86.582c.94 0 1.703-.763 1.703-1.703.443-17.374-25.602-23.49-32.126-24.75zm-33.948-19.52c-1.447-.486-2.71-1.408-3.61-2.64l.085.017c-1.703-2.487-1.857-6.25-.34-11.225l1.243-.835c.523-.35.81-.958.75-1.584-.287-5.09 1.37-10.1 4.633-14.02 3.85-4.36 10.033-6.54 18.31-6.575s14.462 2.214 18.38 6.575c3.264 3.918 4.92 8.928 4.633 14.02-.062.626.226 1.235.75 1.584l1.243.835c1.516 4.957 1.414 8.738-.34 11.225a7.43 7.43 0 0 1-3.628 2.64c2.055-2.338 3.06-5.417 2.776-8.517a7.97 7.97 0 0 0-2.742-4.769c-.732-17.034-12.673-18.94-17.817-18.94a21.47 21.47 0 0 0-3.253.238 21.44 21.44 0 0 0-3.253-.238c-5.1 0-17.034 1.874-17.817 18.94a7.97 7.97 0 0 0-2.776 4.752 11.33 11.33 0 0 0 2.776 8.517zm38.752-13.968a35.09 35.09 0 0 1-20.355-5.11c-.69-.485-1.633-.39-2.214.22-3.407 3.662-9.624 4.514-12.622 4.7.92-12.043 8.2-14.666 14.342-14.666.976-.007 1.95.073 2.913.238a1.7 1.7 0 0 0 .681 0c.962-.165 1.937-.245 2.913-.238 6.08 0 13.406 2.69 14.257 14.836l.085.017zm-34.595 14.29l.068.017c.004-.42-.148-.826-.426-1.14-2.334-2.674-3.407-5.1-3.117-7.12.14-1.12.692-2.146 1.55-2.88 2.248 0 10.22-.426 15.33-4.838a38.41 38.41 0 0 0 18.907 5.11c1.14 0 2.3 0 3.51-.187.835.713 1.38 1.706 1.533 2.794.3 1.976-.784 4.446-3.117 7.12-.278.315-.43.72-.426 1.14v.886l-9.914 5.315c-1.967-1.863-5.072-1.778-6.935.2s-1.778 5.072.2 6.935 5.072 1.778 6.935-.2c.863-.912 1.344-2.12 1.343-3.375a4.6 4.6 0 0 0 0-.46l7.818-4.2a18.74 18.74 0 0 1-4.565 8.994c-3.02 2.907-7.107 4.436-11.293 4.224h-.852a15.21 15.21 0 0 1-11.276-4.207c-5.383-5.366-5.263-14.053-5.263-14.138zm22.025 9.777c0 .837-.68 1.516-1.516 1.516s-1.516-.68-1.516-1.516.68-1.516 1.516-1.516 1.516.68 1.516 1.516zm-6.813 32.364h-39.825c1.346-12.792 22.144-18.14 28.65-19.52v3.05c0 3.867 4.7 6.813 11.174 7.307v9.164zm-7.767-16.472v-5.877c2.83 1.313 5.924 1.965 9.045 1.908h.852c3.12.058 6.213-.595 9.045-1.908v5.877c0 1.618-3.696 3.952-9.47 3.952s-9.47-2.334-9.47-3.952zm11.174 16.523v-9.232c6.473-.443 11.174-3.407 11.174-7.307v-2.98c6.558 1.363 27.254 6.71 28.65 19.52h-39.825z" id="E" fill="#ec4a81"/><path d="M188.76 2.5h-14.764a8.73 8.73 0 0 0 .17-1.675v-13.133c0-5.082-3.542-6.893-6.915-6.893h-25.367c-3.373 0-6.882 1.8-6.882 6.882V.815c0 4.62 2.935 6.533 5.97 6.837v5.982c-.001.62.5 1.125 1.122 1.127.336.001.654-.15.868-.407l5.622-6.657h11.447a8.68 8.68 0 0 0-.067 1.023v11.66c0 4.6 3.227 6.24 6.24 6.24h2.17l5.172 6.173c.396.478 1.105.545 1.583.148.258-.214.408-.532.407-.868V26.62h13.223c4.6 0 6.24-3.227 6.24-6.24V8.72c.01-4.6-3.216-6.218-6.24-6.218zm-28.066 2.946l-.045.022H148c-.334-.001-.652.148-.866.405l-3.924 4.7v-3.99c0-.62-.503-1.124-1.124-1.124h-.214c-1.732 0-4.633-.607-4.633-4.633v-13.122c0-4.037 2.9-4.633 4.633-4.633h25.367c1.732 0 4.633.607 4.633 4.644V.815c.014.57-.054 1.137-.202 1.687h-5.465a5.97 5.97 0 0 0-5.521 2.946zm28.862 18.924a3.68 3.68 0 0 1-.785 0H174.4c-.62 0-1.124.503-1.124 1.124v3.486l-3.52-4.205c-.214-.257-.53-.405-.866-.405h-2.665a3.62 3.62 0 0 1-3.992-3.207 3.68 3.68 0 0 1 0-.785V8.72a3.62 3.62 0 0 1 3.232-3.971 3.63 3.63 0 0 1 .76.002h22.545a3.62 3.62 0 0 1 3.992 3.207 3.68 3.68 0 0 1 0 .785l.01 11.638a3.62 3.62 0 0 1-3.207 3.992zm-31.213-35.205c-.362-.56-.877-1.005-1.484-1.282a4.9 4.9 0 0 0-2.148-.45 4.71 4.71 0 0 0-2.249.54c-.608.316-1.124.785-1.496 1.36-.357.488-.56 1.07-.585 1.675a1.01 1.01 0 0 0 .326.72c.2.215.498.336.798.337.532 0 .907-.32 1.124-.956a3.73 3.73 0 0 1 .742-1.372c.367-.34.86-.513 1.36-.472.475-.02.938.146 1.293.46.324.284.508.694.506 1.124a1.28 1.28 0 0 1-.169.641 2.37 2.37 0 0 1-.405.54l-.776.708a13.19 13.19 0 0 0-.978.933 2.98 2.98 0 0 0-.798 2.136c-.023.315.087.625.304.855a1.02 1.02 0 0 0 .73.28c.514.038.962-.348 1-.862l.136-.6a1.75 1.75 0 0 1 .135-.326 1.86 1.86 0 0 1 .259-.36 6.05 6.05 0 0 1 .46-.46l1.44-1.316a3.85 3.85 0 0 0 .686-.933c.2-.385.3-.814.292-1.248.004-.6-.173-1.188-.506-1.687zm-2.586 9.805c.006-.683-.542-1.242-1.225-1.248h-.023l-.01-.01a1.25 1.25 0 0 0-.911.36c-.242.23-.376.554-.37.888-.027.354.115.7.382.933.247.22.568.34.9.337a1.28 1.28 0 0 0 .877-.337c.264-.23.406-.572.382-.922zm23.86 10.626a3.81 3.81 0 0 0-.281-1.63c-.213-.37-.62-.6-1.046-.562a1.41 1.41 0 0 0-1.124.44 1.73 1.73 0 0 0-.416 1.226l.1 1.9.304 4.498a4.37 4.37 0 0 0 .28 1.316.72.72 0 0 0 .708.427.74.74 0 0 0 .72-.45 3.64 3.64 0 0 0 .28-1.282l.484-4.6a12.44 12.44 0 0 0 0-1.271zm-.383 9.727a1.41 1.41 0 0 0-1.023-.405c-.776-.006-1.4.618-1.417 1.394v.023c-.022.395.135.78.427 1.046.28.246.64.38 1.012.37a1.45 1.45 0 0 0 .99-.382c.3-.267.448-.65.427-1.046a1.35 1.35 0 0 0-.416-1.001z" id="F" fill="#ec4a81"/><path d="M26.943 143.17a34.12 34.12 0 0 0-15.983-3.975c-18.843.005-34.115 15.284-34.1 34.127a34.12 34.12 0 0 0 9.655 23.774l-1.37 10.116a1.37 1.37 0 0 0 2.111 1.371l7.73-5.127c16.648 8.827 37.3 2.487 46.126-14.16s2.487-37.3-14.16-46.126zm6.404 52.298a31.38 31.38 0 0 1-22.387 9.223 31.39 31.39 0 0 1-15.435-4.112 1.37 1.37 0 0 0-1.371 0l-5.88 3.893 1.097-7.772a1.37 1.37 0 0 0-.398-1.165c-12.272-12.235-12.3-32.102-.066-44.374s32.102-12.3 44.374-.066 12.3 32.102.066 44.374zM20.05 180.304a1.37 1.37 0 0 0-1.275 0l-2.742 1.37c-.562 0-3.55-.33-6.772-6.635-2.742-6.62-1.275-9.13-.946-9.595l2.85-1.26a1.37 1.37 0 0 0 .795-1.001c1.85-9.595-.74-13.255-3.235-14.667a6.86 6.86 0 0 0-3.25-.713 5.99 5.99 0 0 0-5.867 3.852c-1.755 4.428-3.797 13.804 2.33 26.854s14.818 17.258 19.37 18.67c.608.2 1.24.287 1.878.288a6.76 6.76 0 0 0 6.237-5.483c.48-2.77-.768-7.1-9.376-11.68zm6.676 11.28a4.03 4.03 0 0 1-3.537 3.153 3.59 3.59 0 0 1-1.055-.164c-4.112-1.3-11.926-5.25-17.82-17.244s-3.854-20.644-2.25-24.674a3.32 3.32 0 0 1 3.413-2.111 4.11 4.11 0 0 1 1.892.411c2.33 1.37 3.03 5.236 2.015 11.062L6.848 163.1a1.37 1.37 0 0 0-.315.192c-.398.33-3.73 3.427.137 12.94 3.797 7.43 7.745 8.225 9.266 8.225a3.26 3.26 0 0 0 .713 0 1.37 1.37 0 0 0 .315-.123l2.37-1.22c5.223 2.824 7.827 5.84 7.388 8.47z" id="G" fill="#ec4a81"/><path d="M115.96 73.423L86.6 66.086c-3.796-.944-7.64 1.362-8.593 5.156l-7.07 28.275c-.934 3.792 1.373 7.626 5.16 8.577l29.35 7.337c.446.112.898-.16 1-.606l10.098-40.392c.112-.446-.16-.898-.606-1zM79.636 71.63a5.43 5.43 0 0 1 5.75-4.082l-6.665 26.66a7.07 7.07 0 0 0-5.057 1.311l5.972-23.888zm27.465 33.792l-25.4-6.35c-.446-.112-.898.16-1 .606s.16.898.606 1l25.4 6.35-.444 1.777-25.4-6.35c-.446-.112-.898.16-1 .606s.16.898.606 1l25.4 6.35-.808 3.23-28.54-7.135a5.42 5.42 0 1 1 2.043-10.648c.197.038.39.086.583.146l28.54 7.135-.565 2.262zm-9.335-17.664c-.233-.283-.623-.38-.96-.24a6.93 6.93 0 0 1-9.605-4.633l2.363 1.5c1.785 1.133 4.366.285 5.762-1.898.635-.982.926-2.147.828-3.312-.067-1.102-.648-2.11-1.57-2.718l-2.898-1.797a6.94 6.94 0 0 1 8.79 4.355c.457 1.355.484 2.817.078 4.188-.082.277-.013.577.18.792l9.14 10.276-1.373 5.562-10.732-12.073zm12.6 4.56l-8.087-9.094c1.095-4.623-1.765-9.258-6.387-10.353a8.6 8.6 0 0 0-6.355.962c-.395.235-.526.746-.29 1.14a.83.83 0 0 0 .271.279l4.185 2.66a1.89 1.89 0 0 1 .8 1.47 3.62 3.62 0 0 1-.565 2.262c-.92 1.383-2.504 2.018-3.496 1.383L86.6 80.58c-.386-.25-.902-.14-1.15.248-.09.137-.135.298-.133.46.003 4.746 3.853 8.59 8.6 8.588a8.59 8.59 0 0 0 2.994-.54l10.746 12.05-27.305-6.826 6.665-26.66 27.733 6.933-4.37 17.482z" id="H" fill="#ec4a81"/><path id="I" d="M0 0h350v350H0z"/></defs><pattern id="J" width="350" height="350" patternUnits="userSpaceOnUse"><use xlink:href="#A" x="-350" y="-350"/><use xlink:href="#A" y="-350"/><use xlink:href="#A" x="350" y="-350"/><use xlink:href="#A" x="-350"/><use xlink:href="#A"/><use xlink:href="#A" x="350"/><use xlink:href="#A" x="-350" y="350"/><use xlink:href="#A" y="350"/><use xlink:href="#A" x="350" y="350"/></pattern><use xlink:href="#I" fill="url(#J)"/><pattern id="K" width="350" height="350" patternUnits="userSpaceOnUse"><use xlink:href="#B" x="-350" y="-350"/><use xlink:href="#B" y="-350"/><use xlink:href="#B" x="350" y="-350"/><use xlink:href="#B" x="-350"/><use xlink:href="#B"/><use xlink:href="#B" x="350"/><use xlink:href="#B" x="-350" y="350"/><use xlink:href="#B" y="350"/><use xlink:href="#B" x="350" y="350"/></pattern><use xlink:href="#I" fill="url(#K)"/><pattern id="L" width="350" height="350" patternUnits="userSpaceOnUse"><use xlink:href="#C" x="-350" y="-350"/><use xlink:href="#C" y="-350"/><use xlink:href="#C" x="350" y="-350"/><use xlink:href="#C" x="-350"/><use xlink:href="#C"/><use xlink:href="#C" x="350"/><use xlink:href="#C" x="-350" y="350"/><use xlink:href="#C" y="350"/><use xlink:href="#C" x="350" y="350"/></pattern><use xlink:href="#I" fill="url(#L)"/><pattern id="M" width="350" height="350" patternUnits="userSpaceOnUse"><use xlink:href="#D" x="-350" y="-350"/><use xlink:href="#D" y="-350"/><use xlink:href="#D" x="350" y="-350"/><use xlink:href="#D" x="-350"/><use xlink:href="#D"/><use xlink:href="#D" x="350"/><use xlink:href="#D" x="-350" y="350"/><use xlink:href="#D" y="350"/><use xlink:href="#D" x="350" y="350"/></pattern><use xlink:href="#I" fill="url(#M)"/><pattern id="N" width="350" height="350" patternUnits="userSpaceOnUse"><use xlink:href="#E" x="-350" y="-350"/><use xlink:href="#E" y="-350"/><use xlink:href="#E" x="350" y="-350"/><use xlink:href="#E" x="-350"/><use xlink:href="#E"/><use xlink:href="#E" x="350"/><use xlink:href="#E" x="-350" y="350"/><use xlink:href="#E" y="350"/><use xlink:href="#E" x="350" y="350"/></pattern><use xlink:href="#I" fill="url(#N)"/><pattern id="O" width="350" height="350" patternUnits="userSpaceOnUse"><use xlink:href="#F" x="-350" y="-350"/><use xlink:href="#F" y="-350"/><use xlink:href="#F" x="350" y="-350"/><use xlink:href="#F" x="-350"/><use xlink:href="#F"/><use xlink:href="#F" x="350"/><use xlink:href="#F" x="-350" y="350"/><use xlink:href="#F" y="350"/><use xlink:href="#F" x="350" y="350"/></pattern><use xlink:href="#I" fill="url(#O)"/><pattern id="P" width="350" height="350" patternUnits="userSpaceOnUse"><use xlink:href="#G" x="-350" y="-350"/><use xlink:href="#G" y="-350"/><use xlink:href="#G" x="350" y="-350"/><use xlink:href="#G" x="-350"/><use xlink:href="#G"/><use xlink:href="#G" x="350"/><use xlink:href="#G" x="-350" y="350"/><use xlink:href="#G" y="350"/><use xlink:href="#G" x="350" y="350"/></pattern><use xlink:href="#I" fill="url(#P)"/><pattern id="Q" width="350" height="350" patternUnits="userSpaceOnUse"><use xlink:href="#H" x="-350" y="-350"/><use xlink:href="#H" y="-350"/><use xlink:href="#H" x="350" y="-350"/><use xlink:href="#H" x="-350"/><use xlink:href="#H"/><use xlink:href="#H" x="350"/><use xlink:href="#H" x="-350" y="350"/><use xlink:href="#H" y="350"/><use xlink:href="#H" x="350" y="350"/></pattern><use xlink:href="#I" fill="url(#Q)"/></svg>