<svg xmlns="http://www.w3.org/2000/svg" xmlns:xlink="http://www.w3.org/1999/xlink" width="400" height="400" viewBox="0 0 350 350"><use xlink:href="#I" opacity="0" fill="#fff"/><defs><path d="M-20.544-13.35l-8.184-2.193a2.64 2.64 0 0 0-3.23 1.864l-2.193 8.184a2.64 2.64 0 0 0 1.864 3.23l8.184 2.193a2.64 2.64 0 0 0 3.23-1.864l2.193-8.184a2.64 2.64 0 0 0-1.864-3.23zm-4.74 7.502l-3.1-.828.828-3.1 3.1.828-.828 3.1zm37.53-12.994c.923.247 1.907-.024 2.573-.7s.9-1.676.636-2.592l-3.8-12.7a2.64 2.64 0 0 0-4.338-1.163l-9.64 9.113c-.694.656-.98 1.637-.745 2.563s.95 1.653 1.874 1.9l13.43 3.598zM7.835-29.24l1.218 4.084-4.314-1.156 3.097-2.927zM2.607-9.73a17.49 17.49 0 0 0 21.39-12.35c2.493-9.303-3.047-18.897-12.35-21.4s-18.897 3.047-21.4 12.35 3.05 18.9 12.35 21.4zm7.675-28.644c6.493 1.74 10.36 8.437 8.62 14.93s-8.438 10.36-14.93 8.62-10.36-8.437-8.62-14.93 8.438-10.36 14.93-8.62zM-2.607 9.73a17.49 17.49 0 0 0-21.39 12.35c-2.493 9.303 3.047 18.897 12.35 21.4S7.25 40.42 9.742 31.118 6.694 12.222-2.607 9.73zm-7.675 28.644c-6.493-1.74-10.36-8.437-8.62-14.93s8.437-10.36 14.93-8.62 10.36 8.437 8.62 14.93-8.438 10.36-14.93 8.62zM-9.546-3.3c2.492-9.302-3.047-18.897-12.35-21.4s-18.897 3.047-21.4 12.35 3.047 18.897 12.35 21.4S-12.04 6.013-9.546-3.3zM-29.57 3.966c-6.493-1.74-10.36-8.437-8.62-14.93s8.437-10.36 14.93-8.62 10.36 8.437 8.62 14.93-8.438 10.36-14.93 8.62zm60.87-14.4C22-12.916 12.404-7.377 9.912 1.925s3.047 18.897 12.35 21.4 18.897-3.047 21.4-12.35S40.602-7.93 31.3-10.424zM23.625 18.22c-6.493-1.74-10.36-8.437-8.62-14.93s8.437-10.36 14.93-8.62 10.36 8.437 8.62 14.93-8.437 10.36-14.93 8.62zM28.742-.876a7.59 7.59 0 0 0-9.283 5.359 7.59 7.59 0 0 0 5.359 9.282A7.59 7.59 0 0 0 34.1 8.406a7.59 7.59 0 0 0-5.359-9.282zm-2.558 9.548a2.31 2.31 0 0 1-1.63-2.824 2.31 2.31 0 0 1 2.824-1.63 2.31 2.31 0 0 1 1.63 2.824 2.31 2.31 0 0 1-2.824 1.63zM.345 22.284a2.64 2.64 0 0 0-3.602-.965l-2.905 1.677-1.677-2.905a2.64 2.64 0 0 0-3.602-.965c-1.262.728-1.693 2.34-.965 3.602l1.677 2.905-2.905 1.677a2.64 2.64 0 0 0-.965 3.602c.728 1.262 2.34 1.693 3.602.965l2.905-1.677 1.677 2.905a2.64 2.64 0 0 0 3.602.965c1.262-.728 1.693-2.34.965-3.602l-1.677-2.905 2.905-1.677a2.64 2.64 0 0 0 .965-3.602z" id="A" fill="#ec4a81"/><path d="M68.713 85.68h5.124c.88 0 1.595-.714 1.595-1.595V80.67c0-.88-.714-1.595-1.595-1.595s-1.595.714-1.595 1.595v1.82h-1.935v-5.35h3.53c.88 0 1.595-.714 1.595-1.595s-.714-1.595-1.595-1.595h-5.124c-.88 0-1.595.714-1.595 1.595v8.54c0 .88.714 1.595 1.595 1.595zm10.247 0c.88 0 1.595-.714 1.595-1.595v-1.82H82.5v1.82c0 .88.714 1.595 1.595 1.595s1.595-.714 1.595-1.595v-8.54c0-.88-.714-1.595-1.595-1.595H78.96c-.88 0-1.595.714-1.595 1.595v8.54c0 .88.714 1.595 1.595 1.595zm3.53-8.54v1.935h-1.935V77.14H82.5zm6.718 8.54c.88 0 1.595-.714 1.595-1.595V77.14h1.08v6.945c0 .88.714 1.595 1.595 1.595s1.595-.714 1.595-1.595V77.14h1.08v6.945c0 .88.714 1.595 1.595 1.595s1.595-.714 1.595-1.595v-8.54c0-.88-.714-1.595-1.595-1.595h-8.54c-.88 0-1.595.714-1.595 1.595v8.54c0 .88.714 1.595 1.595 1.595zm13.662 0h3.416c.88 0 1.595-.714 1.595-1.595s-.714-1.595-1.595-1.595h-1.82V81.4h1.82c.88 0 1.595-.714 1.595-1.595s-.714-1.595-1.595-1.595h-1.82v-1.08h1.82c.88 0 1.595-.714 1.595-1.595s-.714-1.595-1.595-1.595h-3.416c-.88 0-1.595.714-1.595 1.595v8.54c0 .88.714 1.595 1.595 1.595zm-13.662 15.37h3.416c.88 0 1.595-.714 1.595-1.595s-.714-1.595-1.595-1.595h-1.82v-1.08h1.82c.88 0 1.595-.714 1.595-1.595s-.714-1.595-1.595-1.595h-1.82v-1.1h1.82c.88 0 1.595-.714 1.595-1.595s-.714-1.595-1.595-1.595h-3.416c-.88 0-1.595.714-1.595 1.595v8.54c0 .88.714 1.595 1.595 1.595zm-20.495 0h5.124c.88 0 1.595-.714 1.595-1.595v-8.54c0-.88-.714-1.595-1.595-1.595h-5.124c-.88 0-1.595.714-1.595 1.595v8.54c0 .88.714 1.595 1.595 1.595zm1.595-8.54h1.935v5.35h-1.935V92.5zm9.94 7.902a1.59 1.59 0 0 0 1.276.638c.502 0 .974-.236 1.276-.638l2.562-3.416c.207-.276.32-.612.32-.957v-5.124c0-.88-.714-1.595-1.595-1.595s-1.595.714-1.595 1.595v4.592l-.967 1.3-.967-1.3v-4.592c0-.88-.714-1.595-1.595-1.595s-1.595.714-1.595 1.595v5.124a1.59 1.59 0 0 0 .32.957l2.562 3.416zm32.873-33.294H61.88c-.88 0-1.595.714-1.595 1.595v37.575c0 .88.714 1.595 1.595 1.595h51.238c.88 0 1.595-.714 1.595-1.595V68.713c0-.88-.714-1.595-1.595-1.595zm-1.595 37.574h-48.05V70.307h48.05v34.385zm-5.498-7.752a4.18 4.18 0 0 0 .636-.523 4.13 4.13 0 0 0 1.22-2.94c0-2.3-1.862-4.156-4.156-4.156H97.75c-.88 0-1.595.714-1.595 1.595v8.54c0 .88.714 1.595 1.595 1.595s1.595-.714 1.595-1.595v-1.82h2.87l2.95 2.95c.623.623 1.632.623 2.255 0s.623-1.632 0-2.255l-1.388-1.388zm-6.685-4.43h4.383c.528 0 .967.427.967.967 0 .53-.428.967-.967.967h-4.383V92.5z" id="B" fill="#ec4a81"/><path d="M334.624 166.068h10.983a2.05 2.05 0 0 0 2.051-2.051v-8.932h8.932a2.05 2.05 0 0 0 2.051-2.051V142.05a2.05 2.05 0 0 0-2.051-2.05h-21.966a2.05 2.05 0 0 0-2.051 2.051v21.966a2.05 2.05 0 0 0 2.051 2.051zm8.932-4.102h-6.88v-6.88h6.88v6.88zm10.983-10.983h-6.88v-6.88h6.88v6.88zm-17.865-6.88h6.88v6.88h-6.88v-6.88zm46.276 39.83h-8.932V175a2.05 2.05 0 0 0-2.051-2.051h-10.983a2.05 2.05 0 0 0-2.051 2.051v8.932H350a2.05 2.05 0 0 0-2.051 2.051v8.932h-17.865v-8.932a2.05 2.05 0 0 0-2.051-2.051H317.05a2.05 2.05 0 0 0-2.051 2.051v21.966A2.05 2.05 0 0 0 317.05 210h65.9a2.05 2.05 0 0 0 2.051-2.051v-21.966a2.05 2.05 0 0 0-2.051-2.051zm-2.05 10.983h-6.88v-6.88h6.88v6.88zm-17.865-6.882h6.88v6.88h-6.88v-6.88zm0-10.983h6.88v6.88h-6.88v-6.88zm-10.983 10.983h6.88v6.88h-6.88v-6.88zm-32.95 0h6.88v6.88h-6.88v-6.88zm0 10.983h6.88v6.88h-6.88v-6.88zm10.983 0h6.88v6.88h-6.88v-6.88zm10.983 0h6.88v6.88h-6.88v-6.88zm10.983 0h6.88v6.88h-6.88v-6.88zm10.983 0h6.88v6.88h-6.88v-6.88zm17.865 6.88h-6.88v-6.88h6.88v6.88z" id="C" fill="#ec4a81"/><path d="M188.448 148.807l-38.192 10.233a2.05 2.05 0 0 0-1.45 2.512l4.706 17.563-1.242 1.62-4.396 6.233-3.526.945a2.05 2.05 0 0 0-1.45 2.512l6.822 25.46a2.05 2.05 0 0 0 2.512 1.45l50.922-13.644a2.05 2.05 0 0 0 1.45-2.512l-6.327-23.614a15.26 15.26 0 0 0 8.825-17.99l-.001-.002a15.22 15.22 0 0 0-18.653-10.767zm-35.1 13.845c7.334-.58 10.824 5.322 11.6 8.217h.001c.02.074.044.146.072.216a26.38 26.38 0 0 0-8.163 4.663l-3.5-13.098zm34.034 41.02l-34.23 9.172-5.76-21.5 34.23-9.172 5.76 21.5zm-33.32-18.362l1.56-2.2a22.26 22.26 0 0 1 27.478-7.363l2.456 1.135-31.494 8.44zm46.05 14.95l-8.77 2.35-5.76-21.5 8.77-2.35 5.76 21.5zM193.3 174.8l-1.545.414-6.923-3.2c-4.96-2.292-10.52-2.974-15.865-1.98-.01-.075-.026-.15-.046-.225-1.824-6.807-7.358-9.396-7.547-9.497l26.167-7 5.76 21.5zm9.85-14.16a11.15 11.15 0 0 1-5.937 12.916l-5.663-21.136c7.334-.58 10.824 5.322 11.6 8.217v.002zm-35.802 36.726a2.05 2.05 0 0 0 1.45-2.512l-.568-2.122a2.051 2.051 0 1 0-3.962 1.062l.568 2.122a2.05 2.05 0 0 0 2.512 1.45zm-25.634-19.283l1.202-.322.322 1.202a2.051 2.051 0 1 0 3.962-1.062l-.322-1.202 1.202-.322a2.051 2.051 0 1 0-1.062-3.962l-1.202.322-.322-1.202a2.051 2.051 0 1 0-3.962 1.062l.322 1.202-1.202.322a2.051 2.051 0 1 0 1.062 3.962zm15.533-26.903l1.202-.322.322 1.202a2.051 2.051 0 1 0 3.962-1.062l-.322-1.202 1.202-.322a2.051 2.051 0 1 0-1.062-3.962l-1.202.322-.322-1.202a2.051 2.051 0 1 0-3.962 1.062l.322 1.202-1.202.322a2.051 2.051 0 1 0 1.062 3.962zm22.09 14.547l1.202-.322.322 1.202a2.051 2.051 0 1 0 3.962-1.062l-.322-1.202 1.202-.322a2.051 2.051 0 1 0-1.062-3.962l-1.202.322-.322-1.202a2.051 2.051 0 1 0-3.962 1.062l.322 1.202-1.202.322a2.051 2.051 0 1 0 1.062 3.962z" id="D" fill="#ec4a81"/><path d="M73.38 261.035a4.61 4.61 0 0 0-4.603 4.603 4.61 4.61 0 0 0 4.603 4.603 4.61 4.61 0 0 0 4.603-4.603 4.61 4.61 0 0 0-4.603-4.603zm0 6.276c-.923 0-1.673-.75-1.673-1.673s.75-1.673 1.673-1.673 1.673.75 1.673 1.673-.75 1.673-1.673 1.673zm38.7-23.106l-1.4-1.4v-1.993c0-.8-.656-1.465-1.465-1.465h-1.993l-1.4-1.4c-.275-.275-.647-.43-1.036-.43a1.46 1.46 0 0 0-1.036.43l-1.4 1.4h-1.993c-.8 0-1.465.656-1.465 1.465v1.993l-1.4 1.4c-.572.572-.572 1.5 0 2.072l1.4 1.4v1.993c0 .8.656 1.465 1.465 1.465h1.993l.976.976a4.03 4.03 0 0 1-4.017 3.876 4.03 4.03 0 0 1-4.032-4.027v-5.943a8.52 8.52 0 0 0-8.525-8.525c-4.7 0-8.525 3.824-8.525 8.525v2.458H71.8c-.8 0-1.465.656-1.465 1.465v5.995c-4.717 3.06-7.845 8.373-7.845 14.402 0 9.46 7.696 17.155 17.155 17.155S96.8 279.804 96.8 270.345c0-6.03-3.128-11.342-7.845-14.402v-5.995c0-.8-.656-1.465-1.465-1.465H81.1v-2.458c0-3.086 2.5-5.596 5.596-5.596s5.596 2.505 5.596 5.596v5.943c0 3.84 3.122 6.956 6.957 6.956 3.788 0 6.867-3.037 6.952-6.798l.984-.984h1.993c.8 0 1.465-.656 1.465-1.465v-1.993l1.4-1.4c.572-.572.572-1.5 0-2.07zm-18.2 26.14c0 7.844-6.38 14.225-14.225 14.225S65.43 278.2 65.43 270.345s6.38-14.225 14.225-14.225 14.225 6.38 14.225 14.225zm-7.845-15.924a17.07 17.07 0 0 0-6.38-1.23 17.09 17.09 0 0 0-6.38 1.23v-3.008h12.76v3.008zm22.126-8.378c-.275.275-.43.647-.43 1.036v1.135h-1.135a1.46 1.46 0 0 0-1.036.43l-.802.802-.802-.802c-.275-.275-.647-.43-1.036-.43h-1.135v-1.135a1.46 1.46 0 0 0-.43-1.036l-.802-.802.802-.802c.275-.275.43-.647.43-1.036v-1.135h1.135a1.46 1.46 0 0 0 1.036-.43l.802-.802.802.802c.275.275.647.43 1.036.43h1.135v1.135a1.46 1.46 0 0 0 .43 1.036l.802.802-.803.802z" id="E" fill="#ec4a81"/><path d="M262.5 259.863a2.64 2.64 0 0 0-2.637 2.637 2.64 2.64 0 0 0 2.637 2.637 2.64 2.64 0 0 0 2.637-2.637 2.64 2.64 0 0 0-2.637-2.637zm42.363 0H296.1c-1.282-16.486-14.477-29.682-30.964-30.964v-8.763c0-1.456-1.18-2.637-2.637-2.637s-2.637 1.18-2.637 2.637v8.763c-16.486 1.282-29.682 14.477-30.964 30.964h-8.763c-1.456 0-2.637 1.18-2.637 2.637s1.18 2.637 2.637 2.637h8.763c1.282 16.486 14.477 29.682 30.964 30.964v8.763c0 1.456 1.18 2.637 2.637 2.637s2.637-1.18 2.637-2.637V296.1c16.486-1.282 29.682-14.478 30.964-30.964h8.763c1.456 0 2.637-1.18 2.637-2.637s-1.18-2.637-2.637-2.637zm-39.727 30.943V276.62c0-1.456-1.18-2.637-2.637-2.637s-2.637 1.18-2.637 2.637v14.185c-13.576-1.255-24.415-12.094-25.67-25.67h14.185c1.456 0 2.637-1.18 2.637-2.637s-1.18-2.637-2.637-2.637h-14.185c1.255-13.576 12.094-24.415 25.67-25.67v14.185c0 1.456 1.18 2.637 2.637 2.637s2.637-1.18 2.637-2.637V234.19c13.576 1.255 24.415 12.094 25.67 25.67H276.62c-1.456 0-2.637 1.18-2.637 2.637s1.18 2.637 2.637 2.637h14.185c-1.255 13.576-12.094 24.415-25.67 25.67z" id="F" fill="#ec4a81"/><path d="M159.586 339.36h-5.648a1.76 1.76 0 0 0-1.758 1.758v5.648a1.76 1.76 0 0 0 1.758 1.758h5.648a1.76 1.76 0 0 0 1.758-1.758v-5.648a1.76 1.76 0 0 0-1.758-1.758zm-1.758 5.648h-2.133v-2.133h2.133v2.133zm26.235-5.648h-5.648a1.76 1.76 0 0 0-1.758 1.758v5.648a1.76 1.76 0 0 0 1.758 1.758h5.648a1.76 1.76 0 0 0 1.758-1.758v-5.648a1.76 1.76 0 0 0-1.758-1.758zm-1.758 5.648h-2.133v-2.133h2.133v2.133zm14.937-3.766h-3.9v-5.774a1.76 1.76 0 0 0-1.758-1.758h-5.774v-3.9a1.76 1.76 0 0 0-1.758-1.758h-3.9v-2.133h3.9a1.76 1.76 0 0 0 1.758-1.758v-5.648a1.76 1.76 0 0 0-1.758-1.758h-5.648a1.76 1.76 0 0 0-1.758 1.758v3.9h-3.9a1.76 1.76 0 0 0-1.758 1.758v3.9h-4.016v-3.9a1.76 1.76 0 0 0-1.758-1.758h-3.9v-3.9a1.76 1.76 0 0 0-1.758-1.758h-5.648a1.76 1.76 0 0 0-1.758 1.758v5.648a1.76 1.76 0 0 0 1.758 1.758h3.9v2.133h-3.9a1.76 1.76 0 0 0-1.758 1.758v3.9h-5.773a1.76 1.76 0 0 0-1.758 1.758v5.774h-3.9A1.76 1.76 0 0 0 139 343v18.828a1.76 1.76 0 0 0 1.758 1.758h5.648a1.76 1.76 0 0 0 1.758-1.758v-7.656h4.016v7.656a1.76 1.76 0 0 0 1.758 1.758h3.9v3.9a1.76 1.76 0 0 0 1.758 1.758h5.648a1.76 1.76 0 0 0 1.758-1.758v-5.648a1.76 1.76 0 0 0-1.758-1.758h-3.9v-2.133h15.313v2.133h-3.9a1.76 1.76 0 0 0-1.758 1.758v5.648a1.76 1.76 0 0 0 1.758 1.758h5.648a1.76 1.76 0 0 0 1.758-1.758v-3.9h3.9a1.76 1.76 0 0 0 1.758-1.758v-7.656h4.016v7.656a1.76 1.76 0 0 0 1.758 1.758h5.648a1.76 1.76 0 0 0 1.758-1.758V343a1.76 1.76 0 0 0-1.758-1.758zm-17.07-20.96h2.133v2.133h-2.133v-2.133zm-24.477 0h2.133v2.133h-2.133v-2.133zm7.78 45.438h-2.133v-2.133h2.133v2.133zm13.18 0h-2.133v-2.133h2.133v2.133zm18.828-5.648h-2.133v-7.656a1.76 1.76 0 0 0-1.758-1.758h-7.53a1.76 1.76 0 0 0-1.758 1.758v7.656h-2.133v-3.9a1.76 1.76 0 0 0-1.758-1.758h-18.828a1.76 1.76 0 0 0-1.758 1.758v3.9h-2.133v-7.656a1.76 1.76 0 0 0-1.758-1.758h-7.53a1.76 1.76 0 0 0-1.758 1.758v7.656h-2.133V344.76h3.9a1.76 1.76 0 0 0 1.758-1.758v-5.774h5.774a1.76 1.76 0 0 0 1.758-1.758v-3.9h3.9a1.76 1.76 0 0 0 1.758-1.758v-3.9h2.133v3.9a1.76 1.76 0 0 0 1.758 1.758h7.53a1.76 1.76 0 0 0 1.758-1.758v-3.9h2.133v3.9a1.76 1.76 0 0 0 1.758 1.758h3.9v3.9a1.76 1.76 0 0 0 1.758 1.758h5.773V343a1.76 1.76 0 0 0 1.758 1.758h3.9v15.313z" id="G" fill="#ec4a81"/><g transform="matrix(.117188 0 0 .117188 232 55)" id="H" fill="#ec4a81"><path d="M384.533 257.067H271v-17.134a17.13 17.13 0 0 1 17.133-17.133h32.133c25.804 0 47.133-20.85 47.133-47.133 0-25.754-20.804-47.133-47.133-47.133H191.733a17.133 17.133 0 1 1 0-34.266h24.1C246.252 94.267 271 69.52 271 39.1V15c0-8.284-6.716-15-15-15s-15 6.716-15 15v24.1c0 13.877-11.3 25.167-25.167 25.167h-24.1c-25.806 0-47.133 20.855-47.133 47.133 0 25.8 20.846 47.133 47.133 47.133h128.533a17.133 17.133 0 1 1 0 34.266h-32.133c-25.806 0-47.133 20.855-47.133 47.133v17.134H127.467C57.182 257.067 0 314.248 0 384.533S57.182 512 127.467 512c59.582 0 95.887-38.363 110.7-64.267h35.666c14.78 25.847 51.07 64.267 110.7 64.267C454.818 512 512 454.818 512 384.533s-57.182-127.466-127.467-127.466zm0 224.933c-37.413 0-71.987-21.867-88.082-55.7a15 15 0 0 0-13.546-8.558h-53.8a15 15 0 0 0-13.546 8.558c-16.095 33.843-50.67 55.7-88.082 55.7C73.724 482 30 438.276 30 384.533s43.724-97.466 97.467-97.466h257.066c53.743 0 97.467 43.723 97.467 97.466S438.276 482 384.533 482zM159.6 369.533h-17.133V352.4c0-8.284-6.716-15-15-15s-15 6.716-15 15v17.133H95.333c-8.284 0-15 6.716-15 15s6.716 15 15 15h17.133v17.133c0 8.284 6.716 15 15 15s15-6.716 15-15v-17.133H159.6c8.284 0 15-6.716 15-15s-6.716-15-15-15z"/><circle cx="384" cy="344" r="15"/><circle cx="344" cy="384" r="15"/><circle cx="384" cy="424" r="15"/><circle cx="424" cy="384" r="15"/></g><path id="I" d="M0 0h350v350H0z"/></defs><pattern id="J" width="350" height="350" patternUnits="userSpaceOnUse"><use xlink:href="#A" x="-350" y="-350"/><use xlink:href="#A" y="-350"/><use xlink:href="#A" x="350" y="-350"/><use xlink:href="#A" x="-350"/><use xlink:href="#A"/><use xlink:href="#A" x="350"/><use xlink:href="#A" x="-350" y="350"/><use xlink:href="#A" y="350"/><use xlink:href="#A" x="350" y="350"/></pattern><use xlink:href="#I" fill="url(#J)"/><pattern id="K" width="350" height="350" patternUnits="userSpaceOnUse"><use xlink:href="#B" x="-350" y="-350"/><use xlink:href="#B" y="-350"/><use xlink:href="#B" x="350" y="-350"/><use xlink:href="#B" x="-350"/><use xlink:href="#B"/><use xlink:href="#B" x="350"/><use xlink:href="#B" x="-350" y="350"/><use xlink:href="#B" y="350"/><use xlink:href="#B" x="350" y="350"/></pattern><use xlink:href="#I" fill="url(#K)"/><pattern id="L" width="350" height="350" patternUnits="userSpaceOnUse"><use xlink:href="#C" x="-350" y="-350"/><use xlink:href="#C" y="-350"/><use xlink:href="#C" x="350" y="-350"/><use xlink:href="#C" x="-350"/><use xlink:href="#C"/><use xlink:href="#C" x="350"/><use xlink:href="#C" x="-350" y="350"/><use xlink:href="#C" y="350"/><use xlink:href="#C" x="350" y="350"/></pattern><use xlink:href="#I" fill="url(#L)"/><pattern id="M" width="350" height="350" patternUnits="userSpaceOnUse"><use xlink:href="#D" x="-350" y="-350"/><use xlink:href="#D" y="-350"/><use xlink:href="#D" x="350" y="-350"/><use xlink:href="#D" x="-350"/><use xlink:href="#D"/><use xlink:href="#D" x="350"/><use xlink:href="#D" x="-350" y="350"/><use xlink:href="#D" y="350"/><use xlink:href="#D" x="350" y="350"/></pattern><use xlink:href="#I" fill="url(#M)"/><pattern id="N" width="350" height="350" patternUnits="userSpaceOnUse"><use xlink:href="#E" x="-350" y="-350"/><use xlink:href="#E" y="-350"/><use xlink:href="#E" x="350" y="-350"/><use xlink:href="#E" x="-350"/><use xlink:href="#E"/><use xlink:href="#E" x="350"/><use xlink:href="#E" x="-350" y="350"/><use xlink:href="#E" y="350"/><use xlink:href="#E" x="350" y="350"/></pattern><use xlink:href="#I" fill="url(#N)"/><pattern id="O" width="350" height="350" patternUnits="userSpaceOnUse"><use xlink:href="#F" x="-350" y="-350"/><use xlink:href="#F" y="-350"/><use xlink:href="#F" x="350" y="-350"/><use xlink:href="#F" x="-350"/><use xlink:href="#F"/><use xlink:href="#F" x="350"/><use xlink:href="#F" x="-350" y="350"/><use xlink:href="#F" y="350"/><use xlink:href="#F" x="350" y="350"/></pattern><use xlink:href="#I" fill="url(#O)"/><pattern id="P" width="350" height="350" patternUnits="userSpaceOnUse"><use xlink:href="#G" x="-350" y="-350"/><use xlink:href="#G" y="-350"/><use xlink:href="#G" x="350" y="-350"/><use xlink:href="#G" x="-350"/><use xlink:href="#G"/><use xlink:href="#G" x="350"/><use xlink:href="#G" x="-350" y="350"/><use xlink:href="#G" y="350"/><use xlink:href="#G" x="350" y="350"/></pattern><use xlink:href="#I" fill="url(#P)"/><pattern id="Q" width="350" height="350" patternUnits="userSpaceOnUse"><use xlink:href="#H" x="-350" y="-350"/><use xlink:href="#H" y="-350"/><use xlink:href="#H" x="350" y="-350"/><use xlink:href="#H" x="-350"/><use xlink:href="#H"/><use xlink:href="#H" x="350"/><use xlink:href="#H" x="-350" y="350"/><use xlink:href="#H" y="350"/><use xlink:href="#H" x="350" y="350"/></pattern><use xlink:href="#I" fill="url(#Q)"/></svg>