<svg xmlns="http://www.w3.org/2000/svg" xmlns:xlink="http://www.w3.org/1999/xlink" width="400" height="400" viewBox="0 0 350 350"><path opacity="0" fill="#fff" d="M0 0h350v350H0z"/><defs><path d="M87.524 200c4.258 0 8.573-1.09 12.52-3.38a25 25 0 0 0 9.076-34.165C104.483 154.463 96.096 150 87.477 150c-4.258 0-8.573 1.09-12.52 3.38-11.94 6.928-16.004 22.224-9.077 34.165C70.517 195.537 78.903 200 87.524 200zm.076-30.152c1.812 0 3.502.972 4.4 2.536 1.408 2.427.58 5.548-1.848 6.955-.776.45-1.657.69-2.546.69-1.812 0-3.502-.972-4.4-2.536a5.05 5.05 0 0 1-.516-3.86c.35-1.314 1.19-2.413 2.365-3.095.775-.45 1.655-.69 2.545-.69zm-21.076 7.612l12.342-1.575c.08-.01.15-.037.225-.052a8.53 8.53 0 0 0 1.105 3.405 8.5 8.5 0 0 0 2.693 2.833l-6.72 11.197c-2.96-1.834-5.485-4.372-7.282-7.468a21.38 21.38 0 0 1-2.757-8.314 3.71 3.71 0 0 0 .394-.026zm33.792 14.822l-7.578-10.18c-.05-.072-.102-.13-.154-.194 2.07-1.475 3.306-3.74 3.54-6.138l12.694.926c.04.003.08.003.12.003-.488 6.044-3.5 11.796-8.624 15.583zm-3.785-36.79l-5.703 11.054c-.07.136-.11.27-.157.403-.978-.375-2.02-.577-3.072-.577-1.37 0-2.755.343-4.04 1.034l-6.032-11.46c3.075-1.6 6.493-2.467 9.95-2.467 3.174 0 6.256.715 9.054 2.013z" fill="#ec4a81" id="A"/><g transform="matrix(.155846 0 0 .155846 150 325)" id="B" fill="#ec4a81"><path d="M21.617 290.246H299.22c9.47 0 17.013-4.553 20.168-12.184 2.904-7 1.36-14.8-4.107-21.212L180.497 39.684l-1.333-1.333c-5-5-11.667-7.767-18.748-7.767s-13.74 2.758-18.743 7.767l-1.333 1.333-134.8 217.16c-5.466 6.413-7.016 14.207-4.106 21.212 3.16 7.632 10.698 12.2 20.173 12.2zm138.8-221.033L277.35 257.606H43.487l116.93-188.393zm-.001 36.132c-9.197 0-16.654 7.457-16.654 16.654v71.388c0 9.197 7.457 16.654 16.654 16.654s16.654-7.457 16.654-16.654V122a16.65 16.65 0 0 0-16.654-16.654z"/><circle cx="160" cy="234" r="16"/></g><path d="M272.565 184.753c4.062-2.23 6.706-5.778 6.706-9.78 0-6.74-7.474-12.224-16.66-12.224s-16.662 5.484-16.662 12.224c0 3.927 2.548 7.418 6.484 9.656v3.23c0 2.465 2.004 4.47 4.468 4.47a4.45 4.45 0 0 0 2.8-.99c.767.62 1.74 1 2.8 1a4.45 4.45 0 0 0 2.8-.99c.767.62 1.74 1 2.8 1 2.464 0 4.468-2.004 4.468-4.47l-.001-3.108zm-23.394-9.78c0-4.964 6.03-9.002 13.44-9.002s13.44 4.038 13.44 9.002c0 2.93-2.1 5.528-5.352 7.172h-1.354v5.715a1.25 1.25 0 0 1-1.246 1.247 1.25 1.25 0 0 1-1.154-.781 1.24 1.24 0 0 1-.092-.465v-5.014h-3.222v5.014c0 .157.01.313.024.465-.185.457-.632.78-1.154.78a1.25 1.25 0 0 1-1.154-.78 1.24 1.24 0 0 1-.092-.465v-5.015h-3.222v5.015c0 .157.01.313.024.465-.185.457-.632.78-1.154.78a1.25 1.25 0 0 1-1.246-1.247v-5.715h-1.13c-3.243-1.644-5.352-4.242-5.352-7.17zm6.43 2.83h4.1a1.4 1.4 0 0 0 1.399-1.399v-4.1a1.4 1.4 0 0 0-1.399-1.399l-4.1.7a1.4 1.4 0 0 0-1.399 1.399v3.4a1.4 1.4 0 0 0 1.399 1.399zm9.786 0h4.1a1.4 1.4 0 0 0 1.399-1.399v-3.4a1.4 1.4 0 0 0-1.399-1.399l-4.1-.7a1.4 1.4 0 0 0-1.399 1.399v4.1a1.4 1.4 0 0 0 1.399 1.399zm-23.004-9.462a4.61 4.61 0 0 0 2.446-.694l1.46 1.46 4.812-4.812-1.4-1.4c.536-.77.83-1.688.83-2.64a4.69 4.69 0 0 0-4.68-4.68c-2.167 0-4.013 1.5-4.53 3.533-2.07.482-3.618 2.342-3.618 4.556-.001 2.58 2.098 4.678 4.678 4.678zm.005-6.94h1.2l.02-1.188a2.27 2.27 0 0 1 2.256-2.224c1.247 0 2.262 1.015 2.262 2.262 0 .67-.3 1.306-.847 1.744l-1.038.845 1.453 1.453-1.394 1.394-1.404-1.405-.854.915c-.437.468-1.022.726-1.647.726-1.247 0-2.262-1.015-2.262-2.262s1.015-2.26 2.267-2.26zm41.58-2.14a4.69 4.69 0 0 0-4.557-3.62c-2.58 0-4.678 2.1-4.678 4.68a4.61 4.61 0 0 0 .694 2.446l-1.46 1.46 4.812 4.813 1.4-1.4c.77.536 1.688.83 2.64.83 2.58 0 4.678-2.1 4.678-4.68 0-2.167-1.5-4.013-3.53-4.53zm-1.146 6.8a2.25 2.25 0 0 1-1.743-.847l-.846-1.04-1.453 1.454-1.394-1.394 1.405-1.404-.915-.854c-.468-.437-.726-1.022-.726-1.647 0-1.247 1.014-2.262 2.26-2.262 1.227 0 2.23.983 2.26 2.202v1.254l1.188.02a2.27 2.27 0 0 1 2.224 2.256c-.001 1.247-1.015 2.262-2.262 2.262zm-.001 15.55a4.61 4.61 0 0 0-2.64.83l-1.4-1.4-4.812 4.812 1.46 1.46c-.453.728-.694 1.566-.694 2.446 0 2.58 2.098 4.678 4.678 4.678 2.215 0 4.076-1.547 4.557-3.618 2.024-.517 3.532-2.363 3.532-4.53a4.69 4.69 0 0 0-4.68-4.68zm-1.15 8.2c-.028 1.223-1.032 2.207-2.26 2.207-1.247 0-2.26-1.014-2.26-2.26 0-.625.258-1.2.726-1.647l.915-.854-1.405-1.404 1.394-1.394 1.453 1.453.845-1.038a2.25 2.25 0 0 1 1.744-.847c1.247 0 2.26 1.015 2.26 2.262a2.27 2.27 0 0 1-2.224 2.256l-1.187.02v1.247zm-31.404-.05a4.61 4.61 0 0 0-.694-2.446l1.46-1.46-4.812-4.812-1.4 1.4c-.77-.536-1.688-.83-2.64-.83-2.58 0-4.678 2.1-4.678 4.68 0 2.165 1.5 4.012 3.532 4.53.482 2.07 2.34 3.618 4.556 3.618 2.58 0 4.678-2.098 4.678-4.677zm-8.126-1.214a2.27 2.27 0 0 1-2.224-2.256c0-1.247 1.014-2.262 2.26-2.262a2.25 2.25 0 0 1 1.744.847l.845 1.038 1.453-1.453 1.394 1.394-1.405 1.404.915.854c.468.437.726 1.022.726 1.647 0 1.247-1.015 2.26-2.262 2.26-1.226 0-2.23-.982-2.26-2.2v-1.253l-1.188-.02z" id="C" fill="#ec4a81"/><path d="M18.552 313.4a17.69 17.69 0 0 0-12.548-5.197c-4.54 0-9.083 1.732-12.546 5.197L-30.6 337.448c-6.93 6.93-6.93 18.164 0 25.094L-6.542 386.6c3.465 3.466 8.006 5.198 12.546 5.198a17.69 17.69 0 0 0 12.548-5.197L42.6 362.55c6.93-6.93 6.93-18.164 0-25.094L18.552 313.4zm-21.176 69.272l-24.048-24.048a12.12 12.12 0 0 1 0-17.256l24.048-24.048a12.12 12.12 0 0 1 8.628-3.574 12.12 12.12 0 0 1 8.628 3.574l24.05 24.048a12.12 12.12 0 0 1 0 17.256l-24.048 24.048a12.12 12.12 0 0 1-8.63 3.574c-3.26 0-6.323-1.27-8.628-3.574zm33.044-21.417L19.565 350.4l10.855-10.855-13.825-13.825L5.74 336.575-5.114 325.72-18.94 339.546-8.085 350.4-18.94 361.255-5.115 375.08 5.74 364.225l10.855 10.855 13.825-13.825zm-28.598-.95l-6.937 6.937-5.988-5.988L-.248 350.4l-10.855-10.855 5.988-5.988L5.74 344.412l10.855-10.855 5.988 5.988L11.728 350.4l10.855 10.855-5.988 5.988L5.74 356.388l-3.918 3.918z" id="D" fill="#ec4a81"/></defs><pattern id="E" width="350" height="350" patternUnits="userSpaceOnUse"><use xlink:href="#A" x="-350" y="-350"/><use xlink:href="#A" y="-350"/><use xlink:href="#A" x="350" y="-350"/><use xlink:href="#A" x="-350"/><use xlink:href="#A"/><use xlink:href="#A" x="350"/><use xlink:href="#A" x="-350" y="350"/><use xlink:href="#A" y="350"/><use xlink:href="#A" x="350" y="350"/></pattern><path fill="url(#E)" d="M0 0h350v350H0z"/><pattern id="F" width="350" height="350" patternUnits="userSpaceOnUse"><use xlink:href="#B" x="-350" y="-350"/><use xlink:href="#B" y="-350"/><use xlink:href="#B" x="350" y="-350"/><use xlink:href="#B" x="-350"/><use xlink:href="#B"/><use xlink:href="#B" x="350"/><use xlink:href="#B" x="-350" y="350"/><use xlink:href="#B" y="350"/><use xlink:href="#B" x="350" y="350"/></pattern><path fill="url(#F)" d="M0 0h350v350H0z"/><pattern id="G" width="350" height="350" patternUnits="userSpaceOnUse"><use xlink:href="#C" x="-350" y="-350"/><use xlink:href="#C" y="-350"/><use xlink:href="#C" x="350" y="-350"/><use xlink:href="#C" x="-350"/><use xlink:href="#C"/><use xlink:href="#C" x="350"/><use xlink:href="#C" x="-350" y="350"/><use xlink:href="#C" y="350"/><use xlink:href="#C" x="350" y="350"/></pattern><path fill="url(#G)" d="M0 0h350v350H0z"/><pattern id="H" width="350" height="350" patternUnits="userSpaceOnUse"><use xlink:href="#D" x="-350" y="-350"/><use xlink:href="#D" y="-350"/><use xlink:href="#D" x="350" y="-350"/><use xlink:href="#D" x="-350"/><use xlink:href="#D"/><use xlink:href="#D" x="350"/><use xlink:href="#D" x="-350" y="350"/><use xlink:href="#D" y="350"/><use xlink:href="#D" x="350" y="350"/></pattern><path fill="url(#H)" d="M0 0h350v350H0z"/></svg>