<svg xmlns="http://www.w3.org/2000/svg" xmlns:xlink="http://www.w3.org/1999/xlink" width="400" height="400" viewBox="0 0 350 350"><use xlink:href="#I" opacity="0" fill="#fff"/><defs><g id="A" fill="#ec4a81"><path d="M52.097 317.774c-.18-.535-.608-.95-1.147-1.116a1.76 1.76 0 0 0-1.577.276c-1.933 1.46-3.998 2.624-6.188 3.495a1.78 1.78 0 0 0-.327.126c-4.112 1.572-8.657 2.118-13.587 1.622-5.846-.588-10.065-2.498-10.105-2.516-.643-.297-1.402-.18-1.924.3l-23.498 21.514a1.76 1.76 0 0 0-.11 2.484 1.75 1.75 0 0 0 .84.511 1.76 1.76 0 0 0 1.644-.4l22.675-20.76c1.733.666 5.374 1.874 10 2.355 4.166.433 8.168.166 11.907-.773-2.312 5.154-6.705 11.514-15.053 17.093C15.554 348.73 2 352.75-14.685 353.962l.43-.395a1.76 1.76 0 0 0 .11-2.484 1.76 1.76 0 0 0-2.484-.11l-1.643 1.504c-3.63-3.38-7.694-4.465-10.675-2.744-2.196 1.268-3.398 3.803-3.383 7.137.006 1.455.25 2.998.703 4.56l-20.067 11.586a5.24 5.24 0 0 0-2.453 3.203 5.24 5.24 0 0 0 3.726 6.454c1.363.365 2.784.18 4-.523l20.065-11.584c1.982 2.066 4.194 3.468 6.32 4.038 1.85.496 3.637.362 5.15-.512 2.5-1.438 3.686-4.594 3.3-8.485 14.978-.778 27.728-3.696 38-8.707a1.76 1.76 0 0 0 .808-2.351 1.76 1.76 0 0 0-2.35-.808c-10.255 5.008-23.18 7.837-38.486 8.44a1.37 1.37 0 0 0-.135.006 160.72 160.72 0 0 1-5.633.117l-1.527-2.644 2.118-1.94c19.3-.83 34.907-5.137 46.388-12.8 10.623-7.1 15.354-15.453 17.46-21.467a29.66 29.66 0 0 0 4.094-2.103c.092 2.22-.296 5.27-1.452 8.65-1.435 4.193-4.58 10.43-11.417 16.33a1.76 1.76 0 0 0-.182 2.48 1.76 1.76 0 0 0 2.479.182c7.434-6.413 10.872-13.248 12.447-17.853 2.07-6.052 1.9-10.864 1.07-13.35zm-94.766 58.148l-.235-3.924 5.73-3.3.236 3.924zm-6.84 3.352a1.74 1.74 0 0 1-1.24-2.148c.122-.456.4-.835.815-1.068l3.626-2.094.235 3.923-2.104 1.215a1.74 1.74 0 0 1-1.333.172zm15.975-8.625l-.235-3.923 3.424-1.977c.25.524.524 1.043.82 1.557a23.79 23.79 0 0 0 .936 1.49zm11.62-5.712a1.76 1.76 0 0 0 1.067.818 1.77 1.77 0 0 0 .45.06 166.06 166.06 0 0 0 5.305-.069c.295 2.55-.265 4.56-1.547 5.3-1.75 1-5.082-.35-7.937-3.762-.036-.05-.075-.096-.115-.14a19.44 19.44 0 0 1-1.788-2.595c-1.47-2.548-2.32-5.353-2.33-7.693-.01-2 .583-3.476 1.625-4.077 1.504-.87 3.97-.016 6.314 2.083l-3.447 3.156c-.608.556-.748 1.46-.335 2.175zm52.757-14.555a1.76 1.76 0 0 0-.529 2.429 1.75 1.75 0 0 0 2.429.528h.002c.817-.525 1.052-1.612.528-2.428a1.76 1.76 0 0 0-2.43-.529zm0 0"/><path d="M-11.575 348.68a1.75 1.75 0 0 0 .864.537c.55.147 1.158.026 1.617-.377h.001a1.76 1.76 0 0 0 .159-2.48 1.76 1.76 0 0 0-2.481-.159 1.76 1.76 0 0 0-.161 2.481zm0 0"/></g><g id="B" fill="#ec4a81"><path d="M202.196 361.25l-1.118-7.114-.5-2.875 2.765-11.75c.855-3.634-1.395-7.284-5.017-8.136-.57-.134-1.155-.193-1.742-.174-2.783.1-3.733-.238-4.418-1.524a6.74 6.74 0 0 0-4.4-3.404c-1.146-.27-2.323-.24-3.404.1l-1.02.326c-1.854.6-2.62.863-3.885-.33a6.74 6.74 0 0 0-3.082-1.658 6.73 6.73 0 0 0-4.576.552c-1.008.5-1.995.574-3.02.2-.53-.198-1.12.07-1.318.6s.07 1.12.6 1.318c1.567.586 3.135.492 4.662-.282a4.68 4.68 0 0 1 3.181-.385c.804.2 1.546.588 2.145 1.153 2.15 2.03 3.902 1.454 5.93.786l.973-.3c.737-.223 1.547-.242 2.34-.055 1.308.308 2.423 1.172 3.062 2.373 1.36 2.553 3.75 2.7 6.3 2.6a4.62 4.62 0 0 1 1.207.12 4.71 4.71 0 0 1 3.493 5.674l-3.557 15.12a22.29 22.29 0 0 0-9.577-2.481l1.867-7.935a1.02 1.02 0 0 0-.762-1.23c-.55-.128-1.1.212-1.23.762l-1.867 7.935a22.31 22.31 0 0 0-8.672-2.04l1.867-7.935c.13-.55-.212-1.1-.762-1.23a1.02 1.02 0 0 0-1.23.762l-1.867 7.935c-2.716-1.254-5.68-1.952-8.672-2.04l1.867-7.935c.13-.55-.212-1.1-.762-1.23s-1.1.212-1.23.762L164.9 346.2a22.29 22.29 0 0 0-9.679-2.05l3.557-15.12c.282-1.2 1.013-2.23 2.058-2.897.476-.305.615-.938.3-1.414s-.938-.615-1.414-.3a6.74 6.74 0 0 0-2.948 4.153l-3.577 15.203c-.168.713.07 1.427.562 1.902l-.73 3.106c-.824 3.502 1.345 7.02 4.835 7.84 2.237.526 4.482-.18 6.023-1.68.7 2.028 2.406 3.662 4.643 4.188s4.482-.18 6.023-1.68a6.56 6.56 0 0 0 1.353 2.26 9.44 9.44 0 0 0-2.182 4.176 3.16 3.16 0 0 0 2.343 3.796l9.96 2.344 2.215.545c2.337.55 3.478.532 6.037-.977 1.812.877 3.92-.428 4.776-.96 3.304-1.995 3.458-4.72 3.13-7.368zm-5.78-5.5l-.723 3.072a4.48 4.48 0 0 1-4.214 3.453c-.4.01-.768-.027-1.147-.116-2.4-.563-3.876-2.975-3.3-5.378l.723-3.072a20.25 20.25 0 0 1 8.672 2.041zm-32.712-4.484a4.47 4.47 0 0 1-5.36 3.337c-2.4-.563-3.876-2.975-3.3-5.378l.716-3.044c2.997.026 5.978.727 8.672 2.04l-.716 3.044zm5.304 5.847c-2.4-.563-3.876-2.975-3.3-5.377l.717-3.045c2.997.026 5.978.727 8.672 2.04l-.716 3.044a4.47 4.47 0 0 1-5.36 3.337zm8.07-5.913a20.26 20.26 0 0 1 8.672 2.04l-.716 3.044a4.47 4.47 0 0 1-5.36 3.337 4.43 4.43 0 0 1-1.62-.75l-.06-.047c-1.35-1.037-2.046-2.8-1.63-4.58zm-1.353 13.132c.06-.253.132-.5.216-.742l6.07 1.428c.505.12.82.627.7 1.132l-.216.917-5.952-1.4a1.11 1.11 0 0 1-.819-1.334zm12.206 4.03l-1.426-.35-2.016-.474.216-.917a2.99 2.99 0 0 0-2.225-3.594l-5.573-1.3a7.35 7.35 0 0 1 .616-.75 6.46 6.46 0 0 0 1.68.652c2.23.525 4.47-.177 6-1.667.708 2.034 2.405 3.676 4.648 4.203a6.47 6.47 0 0 0 1.183.164c.967 1.12 1.673 2.177 2.082 3.565-2.125 1.253-2.7 1.112-5.195.48zm10.07-1.5c-.87.54-2.048 1.175-2.793.87-.368-1.48-.988-2.647-1.8-3.745a6.53 6.53 0 0 0 4.28-4.695l.737-3.133a2.02 2.02 0 0 0 .838-.518l.902 5.853c.302 2.453.048 4.035-2.162 5.368zm-.325-25.59c.55.13 1.1-.212 1.23-.762a1.02 1.02 0 0 0-.762-1.23c-.55-.128-1.102.212-1.23.762s.212 1.1.762 1.23zm0 0"/><path d="M194.57 350.017a1.02 1.02 0 0 0 .762 1.23c.55.128 1.102-.212 1.23-.762l1.407-5.98a1.02 1.02 0 0 0-.762-1.23c-.55-.128-1.102.212-1.23.762zM164.437 325.5c.55.13 1.1-.212 1.23-.762s-.212-1.1-.762-1.23a1.02 1.02 0 0 0-1.23.762c-.128.55.212 1.102.762 1.23zm0 0"/></g><path d="M265.815 87.5l16-16a2.33 2.33 0 0 0 .685-1.657c0-.627-.243-1.216-.685-1.657a2.33 2.33 0 0 0-1.657-.685c-.627 0-1.216.243-1.657.685l-1.562 1.563a.781.781 0 1 0 1.105 1.105l1.563-1.562c.146-.146.343-.227.552-.227s.406.08.552.227a.78.78 0 0 1 0 1.105l-10.687 10.687-.552-1.657 4.153-4.153a.781.781 0 1 0-1.105-1.105L262.5 84.19l-16-16a2.33 2.33 0 0 0-1.657-.685c-.627 0-1.216.243-1.657.685-.914.914-.914 2.4 0 3.315l5.6 5.6a.781.781 0 1 0 1.105-1.105l-5.6-5.6c-.146-.146-.227-.342-.227-.552a.77.77 0 0 1 .227-.552.78.78 0 0 1 .552-.227c.21 0 .406.08.552.227L255.53 79.43l-.552 1.657-.67-.67a.781.781 0 1 0-1.105 1.105l5.982 5.982-16 16c-.442.442-.685 1.03-.685 1.657s.243 1.216.685 1.657a2.33 2.33 0 0 0 1.657.685c.627 0 1.216-.243 1.657-.685l16-16 16 16c.44.442 1.03.685 1.657.685s1.216-.243 1.657-.685a2.33 2.33 0 0 0 .685-1.657 2.33 2.33 0 0 0-.685-1.657zm.34 4.76l.552-1.657 2.08 2.08-.552 1.657zm-6.077-1.235l-.552-1.657 2.08-2.08.552 1.657zm-3.315 3.315l-.552-1.657 2.08-2.08.552 1.657zm6.63-6.63l-.552-1.657 2.08-2.08.552 1.657-1.316 1.316zm5.394-5.394l-2.08 2.08-.552-1.657 2.08-2.08zm-12.023-1.657l2.08 2.08-.552 1.657-2.08-2.08zm2.762 4.972l.552-1.657 1.316 1.316-1.105 1.105zm-14.132 20.08c-.146.146-.342.227-.552.227a.77.77 0 0 1-.552-.227c-.146-.147-.227-.342-.227-.552a.77.77 0 0 1 .227-.552l10.687-10.687.552 1.657zM264.7 88.604l.764.764-.552 1.657-1.316-1.316zm16 17.105c-.146.146-.342.227-.552.227a.77.77 0 0 1-.552-.227L269.47 95.575l.552-1.657 10.687 10.687c.146.146.227.342.227.552a.77.77 0 0 1-.227.552zm-5.42-32.42a.78.78 0 0 0 .552-1.334.781.781 0 1 0-1.105 1.105.78.78 0 0 0 .553.229zm-23.18 6.018a.781.781 0 1 0-1.105-1.105.78.78 0 1 0 1.105 1.105zm0 0" id="C" fill="#ec4a81"/><g id="D" fill="#ec4a81"><path d="M201.417 136.154l-21.62 5.793-1.486-1.484a3.61 3.61 0 0 0-3.467-.93l-8.48 2.28a3.6 3.6 0 0 0-2.467 2.512l-.544 2.028-8.42 2.256c-.73.195-1.162.945-.967 1.674a1.37 1.37 0 0 0 1.674.967l6.896-1.848-.824 3.076a3.61 3.61 0 0 0 .502 3.323l-2.455 4.253-14.847 3.978a1.37 1.37 0 0 1-1.674-.967l-1.77-6.603a1.37 1.37 0 0 1 .967-1.674l2.64-.708c.73-.195 1.162-.945.967-1.674a1.37 1.37 0 0 0-1.674-.967l-2.64.708c-2.185.585-3.486 2.84-2.9 5.023l1.77 6.603c.585 2.185 2.84 3.486 5.023 2.9l12.206-3.27-3.228 5.6c-.546.946-.7 2.05-.406 3.112s.962 1.945 1.908 2.5l5.92 3.418a4.09 4.09 0 0 0 5.603-1.501l8.195-14.195 1.163-.312 14.195 8.196a4.09 4.09 0 0 0 5.603-1.501l3.418-5.92a4.07 4.07 0 0 0-1.501-5.601l-5.6-3.228 12.206-3.27c2.185-.585 3.486-2.84 2.9-5.023l-1.77-6.603c-.585-2.185-2.84-3.486-5.023-2.9zm-25.038 6.244l6.16 6.152a.86.86 0 0 1 .206.894l-.028.092-2.212 8.255c-.085.318-.34.555-.662.62l-.085.02-2.006.537.8-1.4a4.11 4.11 0 0 0-1.501-5.603l-5.592-3.228-2.634-4.76 6.718-1.803c.295-.08.612.007.83.223zm-9.922 2.937l1.555 2.8c-1 .274-1.915.93-2.478 1.905l-.636 1.102zm-1.204 29.812a1.35 1.35 0 0 1-.83.634 1.36 1.36 0 0 1-1.037-.134l-5.92-3.418c-.313-.18-.538-.476-.633-.83s-.048-.723.133-1.036l10.937-18.944c.188-.326.492-.546.83-.637s.7-.052 1.037.136l5.92 3.418a1.37 1.37 0 0 1 .5 1.867zm32.708-14.77c.095.355.048.723-.134 1.037l-3.418 5.92a1.37 1.37 0 0 1-1.867.5l-11.826-6.828a3.57 3.57 0 0 0 2.43-2.5l1.656-6.182 12.525 7.232a1.36 1.36 0 0 1 .634.831zm7.608-14.013a1.37 1.37 0 0 1-.967 1.674l-14.847 3.978-4.253-2.456c.117-1.07-.252-2.168-1.03-2.946l-2.44-2.437 20.094-5.384a1.37 1.37 0 0 1 1.674.967l.708 2.64-6.602 1.77a1.37 1.37 0 0 0-.967 1.674 1.37 1.37 0 0 0 1.674.967l6.602-1.77zm-55.21 6.302c.73-.195 1.162-.945.967-1.674a1.37 1.37 0 0 0-1.674-.967h-.001c-.73.195-1.162.945-.966 1.674a1.37 1.37 0 0 0 1.675.967zm0 0"/><path d="M192.623 145.587h-.001c-.73.195-1.162.945-.966 1.674a1.37 1.37 0 0 0 1.675.967c.73-.195 1.162-.945.967-1.674s-.945-1.162-1.674-.967zm0 0"/></g><g id="E" fill="#ec4a81"><path d="M284.297 248.085v-17.638c0-2.946-2.414-5.343-5.38-5.343h-6.102a5.39 5.39 0 0 0-1.903.346c-.313-2.653-2.6-4.718-5.343-4.718h-6.102a5.39 5.39 0 0 0-2.137.44c-.708-2.13-2.73-3.67-5.1-3.67h-6.102c-2.38 0-4.4 1.542-5.1 3.67a5.39 5.39 0 0 0-2.136-.44h-6.102c-2.967 0-5.38 2.397-5.38 5.343v15.298c-2.246 1.254-4.358 3.148-6.032 5.428-2.218 3.02-3.533 6.535-3.805 10.165-.48 6.426 2.052 16.056 16.253 26.314a5.64 5.64 0 0 0-1.999 4.307v14.262a5.66 5.66 0 0 0 5.651 5.651h36.77a5.66 5.66 0 0 0 5.652-5.651v-14.262a5.64 5.64 0 0 0-1.872-4.197c2.517-2.536 4.243-7.236 5.235-14.213 1.06-7.458 1.056-15.993 1.054-21.093zm-11.483-19.466h6.102c1.03 0 1.866.82 1.866 1.828v8.412c-2.238-2.27-5.358-3.682-8.806-3.682h-1.027v-4.73c0-1.008.836-1.828 1.865-1.828zm-13.348-4.372h6.102c1.03 0 1.866.82 1.866 1.828v9.102H257.6v-9.102c0-1.008.837-1.828 1.866-1.828zm-15.213-1.404c0-1.008.836-1.828 1.865-1.828h6.102c1.03 0 1.865.82 1.865 1.828v12.334h-9.832v-12.334zm-11.483 1.404h6.102c1.03 0 1.865.82 1.865 1.828v9.102H239.7a12.33 12.33 0 0 0-8.805 3.682v-12.784c0-1.008.836-1.828 1.865-1.828zm35.138 79.737h-24.132v-2.988c0-1.647 1.362-2.988 3.037-2.988h18.058c1.675 0 3.038 1.34 3.038 2.988v2.988zm8.455-2.136a2.14 2.14 0 0 1-2.136 2.136h-2.802v-2.988c0-3.586-2.94-6.503-6.553-6.503h-18.058c-3.613 0-6.553 2.917-6.553 6.503v2.988h-2.803a2.14 2.14 0 0 1-2.135-2.136v-14.26a2.14 2.14 0 0 1 2.135-2.136h36.77a2.14 2.14 0 0 1 2.136 2.136zm3.398-33.166c-1.384 9.73-3.895 12.605-5.83 13.253h-2.507v-1.758a1.76 1.76 0 0 0-1.758-1.758 1.76 1.76 0 0 0-1.758 1.758v1.758h-24.132V259.18c0-1.647 1.362-2.988 3.037-2.988h18.058c1.675 0 3.038 1.34 3.038 2.988v6.934a1.76 1.76 0 0 0 1.758 1.758 1.76 1.76 0 0 0 1.758-1.758v-6.934c0-3.586-2.94-6.503-6.553-6.503h-18.058c-3.613 0-6.553 2.918-6.553 6.503v22.755h-2.23c-14.797-9.9-17.407-18.887-16.972-24.708.382-5.1 3.225-9.24 6.33-11.644v18.343a1.76 1.76 0 0 0 1.758 1.758 1.76 1.76 0 0 0 1.758-1.758V247.4c0-4.795 3.95-8.696 8.805-8.696h32.265c4.855 0 8.806 3.902 8.806 8.696 0 0 .006 14.083-1.02 21.294zm-31.26-26.474h-10.546a1.76 1.76 0 0 0-1.758 1.758 1.76 1.76 0 0 0 1.758 1.758H248.5a1.76 1.76 0 0 0 1.758-1.758 1.76 1.76 0 0 0-1.758-1.758zm0 0"/><path d="M255.53 242.208a1.76 1.76 0 0 0-1.758 1.758 1.76 1.76 0 0 0 1.758 1.758h.001a1.76 1.76 0 0 0 1.757-1.758 1.76 1.76 0 0 0-1.758-1.758zm14.137 29.182a1.76 1.76 0 0 0-1.758 1.758 1.76 1.76 0 0 0 1.758 1.758 1.76 1.76 0 0 0 1.758-1.758v-.001a1.76 1.76 0 0 0-1.758-1.757zm0 0"/></g><path d="M17.564 173.175l16.3-29.436a1.17 1.17 0 0 0-1.593-1.593l-5.417 2.998a1.17 1.17 0 0 0-.458 1.593c.314.566 1.026.77 1.593.458l1.85-1.024-14.04 25.37c-1.854.33-7.55 1.6-11.225 5.284a1.17 1.17 0 0 0 0 1.658L9 182.9c.396.396 1.02.455 1.483.143.022-.015 2.2-1.455 5.324-2.286 2.983-.8 5.782-.786 8.357.01-4.37 1.446-10.23 3.98-14.75 8.113l-.34-.34a1.172 1.172 0 1 0-1.657 1.657l1.15 1.15a1.17 1.17 0 0 0 1.658 0c3.92-3.92 10.344-7.287 17.626-9.238.458-.123.797-.5.86-.98a1.17 1.17 0 0 0-.576-1.168c-3.826-2.2-8.323-2.7-13.005-1.45a22.7 22.7 0 0 0-5.118 2.08l-2.908-2.89c3.84-3.123 9.538-3.92 9.598-3.93.368-.05.692-.27.872-.595zM.77 180.257l-13.663-13.663c4.182-4.587 6.736-10.643 8.1-14.762.8 2.58.806 5.38.014 8.37-.83 3.134-2.27 5.303-2.285 5.322a1.17 1.17 0 0 0 .142 1.485l4.427 4.427c.458.457 1.2.457 1.657 0 3.675-3.675 4.953-9.37 5.284-11.225l15.318-8.476a1.172 1.172 0 0 0-1.135-2.051l-15.817 8.752c-.324.18-.545.503-.594.87-.008.06-.806 5.76-3.93 9.6L-4.605 166a22.66 22.66 0 0 0 2.081-5.118c1.26-4.682.76-9.18-1.45-13.005a1.17 1.17 0 0 0-1.168-.576c-.47.062-.856.4-.98.86-.923 3.445-3.67 12.06-9.238 17.626a1.17 1.17 0 0 0 0 1.658l8.616 8.616-12.83 12.83-.383-.382c-.667-.667-1.556-1.035-2.504-1.035a3.52 3.52 0 0 0-2.504 1.035 3.55 3.55 0 0 0 0 5.008l7.45 7.45c.667.667 1.556 1.035 2.504 1.035s1.837-.367 2.504-1.035a3.52 3.52 0 0 0 1.035-2.504c0-.948-.367-1.837-1.035-2.504l-.382-.383 12.83-12.83.837.837a1.17 1.17 0 0 0 .829.343 1.17 1.17 0 0 0 .83-.343 1.17 1.17 0 0 0 0-1.658zm-11.87 10.2l-2.467-4.273 4.914-4.914 2.467 4.273zm-3.065 8.84a1.2 1.2 0 0 1-1.694 0l-7.45-7.45a1.2 1.2 0 0 1 0-1.694 1.19 1.19 0 0 1 .847-.348 1.19 1.19 0 0 1 .847.348l7.45 7.45a1.19 1.19 0 0 1 .348.847 1.19 1.19 0 0 1-.348.847zm-3.752-8.76l2.635-2.635 2.467 4.273-1.732 1.732zm13.447-6.707l-2.467-4.273 1.85-1.85 3.37 3.37zm18.77-23.786l-13.26 13.26c-.457.458-.457 1.2 0 1.657a1.17 1.17 0 0 0 .829.343 1.17 1.17 0 0 0 .829-.343l13.26-13.26a1.172 1.172 0 1 0-1.658-1.657zm9-10.432a1.17 1.17 0 0 0 .49-.108c.588-.272.844-.968.573-1.555a1.172 1.172 0 0 0-2.128.982 1.17 1.17 0 0 0 1.065.681zM5.75 185.237a1.172 1.172 0 1 0-1.657 1.658 1.17 1.17 0 1 0 1.657-1.658zm0 0" id="F" fill="#ec4a81"/><g id="G" fill="#ec4a81"><path d="M120.943 78.813a1.17 1.17 0 0 0-1.025-.806l-17.243-1.313c-.3-.023-.617.077-.853.28s-.38.5-.405.8c-.096 1.276-1.175 2.275-2.456 2.275-1.358 0-2.463-1.105-2.463-2.463a2.46 2.46 0 0 1 1.527-2.28 1.17 1.17 0 0 0 .637-1.529l-6.577-15.993a1.17 1.17 0 0 0-2.168 0L83.34 73.778c-.246.598.04 1.283.638 1.53a2.46 2.46 0 0 1 1.527 2.28c0 1.36-1.105 2.464-2.463 2.464-1.282 0-2.36-1-2.456-2.276a1.17 1.17 0 0 0-1.258-1.08l-3.948.3c-.645.05-1.128.612-1.08 1.257a1.17 1.17 0 0 0 1.257 1.079l2.925-.222c.643 1.913 2.462 3.285 4.56 3.285 2.65 0 4.807-2.157 4.807-4.807A4.79 4.79 0 0 0 85.9 73.72L91 61.312l5.102 12.406a4.79 4.79 0 0 0-1.95 3.868c0 2.65 2.157 4.807 4.807 4.807 2.097 0 3.916-1.372 4.56-3.284l13.38 1.02-10.224 8.687a4.8 4.8 0 0 0-2.794-.895c-2.65 0-4.807 2.157-4.807 4.807 0 2.638 2.135 4.786 4.768 4.807l.692 2.85a1.17 1.17 0 0 0 1.138.896 1.16 1.16 0 0 0 .277-.033 1.17 1.17 0 0 0 .862-1.415l-.934-3.848a1.17 1.17 0 0 0-1.414-.862c-.2.046-.385.07-.582.07-1.358 0-2.463-1.105-2.463-2.463a2.47 2.47 0 0 1 2.463-2.464 2.46 2.46 0 0 1 1.878.869 1.17 1.17 0 0 0 1.652.134L120.59 80.07a1.17 1.17 0 0 0 .356-1.256zm-11.92 30.13a1.172 1.172 0 0 0-2.277.553l.26 1.078-11.42-7.04c.147-.466.222-.954.222-1.45 0-2.65-2.156-4.807-4.807-4.807s-4.807 2.157-4.807 4.807a4.8 4.8 0 0 0 .223 1.449l-11.422 7.04 3.165-13.038c2.633-.02 4.768-2.17 4.768-4.807 0-2.65-2.157-4.807-4.807-4.807a4.8 4.8 0 0 0-2.794.895l-10.224-8.687 1.106-.084a1.172 1.172 0 1 0-.178-2.337l-3.947.3a1.17 1.17 0 0 0-1.026.807c-.146.452-.006.948.356 1.255l13.18 11.198a1.17 1.17 0 0 0 1.652-.134 2.46 2.46 0 0 1 1.877-.869c1.36 0 2.463 1.105 2.463 2.464S79.48 95.2 78.12 95.2a2.49 2.49 0 0 1-.582-.069 1.17 1.17 0 0 0-1.414.862l-4.08 16.805a1.17 1.17 0 0 0 1.139 1.448c.212 0 .426-.058.615-.174L88.52 105c.265-.163.454-.425.526-.727s.02-.622-.143-.886a2.45 2.45 0 0 1-.365-1.291c0-1.358 1.105-2.463 2.463-2.463s2.463 1.105 2.463 2.463c0 .458-.126.905-.365 1.3a1.17 1.17 0 0 0 .382 1.614l14.722 9.073a1.17 1.17 0 0 0 1.304-.05c.384-.28.562-.763.45-1.225zM91 93.35c2.65 0 4.807-2.157 4.807-4.807S93.65 83.735 91 83.735s-4.807 2.157-4.807 4.807S88.35 93.35 91 93.35zm0-7.27a2.47 2.47 0 0 1 2.463 2.464c0 1.358-1.105 2.462-2.463 2.462s-2.463-1.105-2.463-2.463S89.642 86.08 91 86.08zm-20.208-6.4l.085-.003a1.172 1.172 0 0 0-.167-2.338 1.17 1.17 0 0 0-1.085 1.252 1.17 1.17 0 0 0 1.168 1.089zm0 0"/><path d="M106.777 105.836a1.19 1.19 0 0 0 .303-.04c.625-.167.997-.81.83-1.435a1.17 1.17 0 0 0-1.434-.83c-.625.167-.997.81-.83 1.435a1.17 1.17 0 0 0 1.132.87zm0 0"/></g><g id="H" fill="#ec4a81"><path d="M128.97 235.028a3.52 3.52 0 0 0-4.972 0l-27.22 27.22a1.17 1.17 0 1 0 1.658 1.657l27.22-27.22c.457-.457 1.2-.457 1.657 0s.457 1.2 0 1.657l-1.172 1.172c-.457.458-.457 1.2 0 1.657a1.17 1.17 0 0 0 1.658 0l1.172-1.17a3.52 3.52 0 0 0 0-4.972zm-9.457 11.115l-29.57 29.57-1.657-1.657 3.52-3.52c.457-.457.457-1.2 0-1.657a1.17 1.17 0 0 0-1.658 0l-.498.5c-3.12-1.9-6.25-2.035-7.993-.293-1.77 1.77-1.555 4.94.292 7.994L71.027 288A3.49 3.49 0 0 0 70 290.486a3.49 3.49 0 0 0 1.027 2.486A3.51 3.51 0 0 0 73.513 294c.9 0 1.8-.342 2.486-1.028l10.92-10.92c1.633.988 3.3 1.5 4.767 1.5 1.277 0 2.404-.394 3.23-1.218 1.742-1.742 1.6-4.875-.293-7.993l26.547-26.55a1.172 1.172 0 1 0-1.657-1.658zM77.34 288.317l-.83-2.486 3.12-3.12.83 2.486zm-3.826 3.338a1.16 1.16 0 0 1-1.169-1.169 1.16 1.16 0 0 1 .341-.829l1.973-1.973.83 2.486-1.145 1.145c-.22.22-.514.34-.83.34zm8.798-8.3l-.83-2.486 1.864-1.864.797.86.86.797zm10.946-2.66c-.952.952-3.332.653-5.76-1.05a1.08 1.08 0 0 0-.1-.072 13.11 13.11 0 0 1-1.6-1.362c-.526-.524-.977-1.062-1.363-1.6l-.07-.098c-1.705-2.427-2.005-4.807-1.052-5.76.852-.853 2.682-.68 4.618.353l-2.133 2.133a1.17 1.17 0 0 0 0 1.657l3.314 3.315a1.17 1.17 0 0 0 1.659 0l2.133-2.133c1.033 1.936 1.206 3.766.353 4.618zm0 0"/><path d="M122.864 242.794a1.17 1.17 0 0 0-.072 1.656c.23.252.547.38.864.38a1.17 1.17 0 1 0-.792-2.036zM94.3 267.564a1.17 1.17 0 1 0-.866-1.96 1.17 1.17 0 0 0 .08 1.656c.224.204.507.304.788.304zm0 0"/></g><path id="I" d="M0 0h350v350H0z"/></defs><pattern id="J" width="350" height="350" patternUnits="userSpaceOnUse"><use xlink:href="#A" x="-350" y="-350"/><use xlink:href="#A" y="-350"/><use xlink:href="#A" x="350" y="-350"/><use xlink:href="#A" x="-350"/><use xlink:href="#A"/><use xlink:href="#A" x="350"/><use xlink:href="#A" x="-350" y="350"/><use xlink:href="#A" y="350"/><use xlink:href="#A" x="350" y="350"/></pattern><use xlink:href="#I" fill="url(#J)"/><pattern id="K" width="350" height="350" patternUnits="userSpaceOnUse"><use xlink:href="#B" x="-350" y="-350"/><use xlink:href="#B" y="-350"/><use xlink:href="#B" x="350" y="-350"/><use xlink:href="#B" x="-350"/><use xlink:href="#B"/><use xlink:href="#B" x="350"/><use xlink:href="#B" x="-350" y="350"/><use xlink:href="#B" y="350"/><use xlink:href="#B" x="350" y="350"/></pattern><use xlink:href="#I" fill="url(#K)"/><pattern id="L" width="350" height="350" patternUnits="userSpaceOnUse"><use xlink:href="#C" x="-350" y="-350"/><use xlink:href="#C" y="-350"/><use xlink:href="#C" x="350" y="-350"/><use xlink:href="#C" x="-350"/><use xlink:href="#C"/><use xlink:href="#C" x="350"/><use xlink:href="#C" x="-350" y="350"/><use xlink:href="#C" y="350"/><use xlink:href="#C" x="350" y="350"/></pattern><use xlink:href="#I" fill="url(#L)"/><pattern id="M" width="350" height="350" patternUnits="userSpaceOnUse"><use xlink:href="#D" x="-350" y="-350"/><use xlink:href="#D" y="-350"/><use xlink:href="#D" x="350" y="-350"/><use xlink:href="#D" x="-350"/><use xlink:href="#D"/><use xlink:href="#D" x="350"/><use xlink:href="#D" x="-350" y="350"/><use xlink:href="#D" y="350"/><use xlink:href="#D" x="350" y="350"/></pattern><use xlink:href="#I" fill="url(#M)"/><pattern id="N" width="350" height="350" patternUnits="userSpaceOnUse"><use xlink:href="#E" x="-350" y="-350"/><use xlink:href="#E" y="-350"/><use xlink:href="#E" x="350" y="-350"/><use xlink:href="#E" x="-350"/><use xlink:href="#E"/><use xlink:href="#E" x="350"/><use xlink:href="#E" x="-350" y="350"/><use xlink:href="#E" y="350"/><use xlink:href="#E" x="350" y="350"/></pattern><use xlink:href="#I" fill="url(#N)"/><pattern id="O" width="350" height="350" patternUnits="userSpaceOnUse"><use xlink:href="#F" x="-350" y="-350"/><use xlink:href="#F" y="-350"/><use xlink:href="#F" x="350" y="-350"/><use xlink:href="#F" x="-350"/><use xlink:href="#F"/><use xlink:href="#F" x="350"/><use xlink:href="#F" x="-350" y="350"/><use xlink:href="#F" y="350"/><use xlink:href="#F" x="350" y="350"/></pattern><use xlink:href="#I" fill="url(#O)"/><pattern id="P" width="350" height="350" patternUnits="userSpaceOnUse"><use xlink:href="#G" x="-350" y="-350"/><use xlink:href="#G" y="-350"/><use xlink:href="#G" x="350" y="-350"/><use xlink:href="#G" x="-350"/><use xlink:href="#G"/><use xlink:href="#G" x="350"/><use xlink:href="#G" x="-350" y="350"/><use xlink:href="#G" y="350"/><use xlink:href="#G" x="350" y="350"/></pattern><use xlink:href="#I" fill="url(#P)"/><pattern id="Q" width="350" height="350" patternUnits="userSpaceOnUse"><use xlink:href="#H" x="-350" y="-350"/><use xlink:href="#H" y="-350"/><use xlink:href="#H" x="350" y="-350"/><use xlink:href="#H" x="-350"/><use xlink:href="#H"/><use xlink:href="#H" x="350"/><use xlink:href="#H" x="-350" y="350"/><use xlink:href="#H" y="350"/><use xlink:href="#H" x="350" y="350"/></pattern><use xlink:href="#I" fill="url(#Q)"/></svg>