<svg xmlns="http://www.w3.org/2000/svg" xmlns:xlink="http://www.w3.org/1999/xlink" width="400" height="400" viewBox="0 0 350 350"><use xlink:href="#I" opacity="0" fill="#fefdfe"/><defs><path d="M37.287 362.836c1.75-1.182 3.334-2.706 4.95-4.765a1.96 1.96 0 0 0-.897-3.056c-2.018-.703-3.483-1.75-5.072-3.115-5.172-4.38-7.38-11.44-5.626-17.987.527-1.965 1.687-4.035 3.545-6.328.402-.494.536-1.155.362-1.767a1.95 1.95 0 0 0-1.238-1.312c-.387-.136-.967-.283-1.488-.413l-.54-.136c-6.543-1.753-13.433-.298-18.734 3.826-1.894-.99-3.89-1.786-5.97-2.343-13.48-3.612-27.718 2.944-33.858 15.305-8.95-1.677-17.848 3.798-20.243 12.735-2.513 9.377 3.074 19.053 12.45 21.566l52.916 14.18c9.377 2.513 19.053-3.074 21.566-12.45 1.275-4.757.47-9.815-2.125-13.938zm-23.247-31.26c4.21-3.734 9.882-5.215 15.337-4.05-1.215 1.844-2.045 3.62-2.516 5.376-2.144 8.002.555 16.63 6.865 21.975 1.1.936 2.3 1.884 3.766 2.696-1.244 1.277-2.504 2.21-3.918 2.92-3.836 1.934-8.246 2.38-12.42 1.262-2.565-.687-4.857-1.89-6.825-3.58-5.172-4.38-7.38-11.44-5.626-17.987.898-3.35 2.74-6.33 5.336-8.613zm4.818 53.87l-52.916-14.18c-7.295-1.955-11.64-9.48-9.684-16.774s9.48-11.64 16.684-9.727c.02.01.042.015.065.023.01.004.015.012.024.017a1.79 1.79 0 0 0 .256.089c.992.266 1.97.666 2.917 1.193.065.052.135.1.21.14a13.77 13.77 0 0 1 6.309 8.265c.28 1.043 1.35 1.662 2.397 1.382s1.663-1.353 1.382-2.397c-1.167-4.347-4.026-8.152-7.868-10.482a1.72 1.72 0 0 0-.246-.169c-.614-.355-1.24-.666-1.875-.938 5.475-10.334 17.59-15.743 29.058-12.67 1.346.36 2.65.842 3.91 1.416a21.33 21.33 0 0 0-4.555 8.539c-2.144 8.002.555 16.63 6.866 21.976 2.405 2.068 5.215 3.542 8.352 4.383 4.56 1.222 9.35.9 13.667-.865 2.15 3.252 2.84 7.297 1.822 11.092-1.955 7.295-9.48 11.64-16.774 9.684z" id="A" fill="#ec4a81"/><g transform="matrix(.108696 0 0 .108696 67.5 67.5)" id="B" fill="#ec4a81"><path d="M301.536 112.28C290.36 56.96 241.056 16 184 16S77.64 56.96 66.464 112.28C29.344 115.128 0 146.168 0 184c0 39.696 32.296 72 72 72h16a8 8 0 1 0 0-16H72c-30.872 0-56-25.12-56-56s25.128-56 55.576-56.072c.096.016.2.016.304.032.04.008.064.032.104.04.064.008.12-.016.184-.008.32.04.632.088.952.088 4.168 0 8.464.544 12.76 1.624.312.136.64.248.976.336 14.08 3.84 26.352 13.312 33.672 25.968 2.192 3.824 7.08 5.136 10.928 2.92 3.824-2.216 5.136-7.104 2.912-10.928-9.352-16.176-24.296-27.888-42.168-33.08a7.83 7.83 0 0 0-1.152-.4 72.82 72.82 0 0 0-8.4-1.728C93.328 66.184 135.456 32 184 32s90.672 34.184 101.352 80.792c-2.8.408-5.608.968-8.4 1.728-.392.104-.768.24-1.136.4-17.64 5.136-32.968 17.144-42.184 33.08-2.208 3.832-.896 8.72 2.928 10.928a8 8 0 0 0 10.928-2.92c7.312-12.656 19.576-22.12 33.656-25.968a8.14 8.14 0 0 0 .968-.336c4.296-1.08 8.584-1.624 12.768-1.624.512.008.608.024 1.12-.08 30.872 0 56 25.12 56 56s-25.128 56-56 56h-16a8 8 0 1 0 0 16h16c39.704 0 72-32.304 72-72 0-37.832-29.344-68.872-66.464-71.72zM184 176a8 8 0 0 0-8 8v48a8 8 0 1 0 16 0v-48a8 8 0 0 0-8-8zm-48 48a8 8 0 0 0-8 8v48a8 8 0 1 0 16 0v-48a8 8 0 0 0-8-8zm96 0a8 8 0 0 0-8 8v48a8 8 0 1 0 16 0v-48a8 8 0 0 0-8-8z"/><circle cx="136" cy="336" r="16"/><circle cx="232" cy="336" r="16"/><circle cx="184" cy="288" r="16"/></g><path d="M202.46 169.217l5.27-1.412c.81-.217 1.293-1.052 1.076-1.864s-1.052-1.293-1.864-1.076l-5.27 1.412 4.618-8a1.52 1.52 0 0 0-2.636-1.523l-6.14 10.636-19.36 5.187 9.684-16.773 12.62-3.38c.81-.217 1.293-1.052 1.076-1.864s-1.052-1.293-1.864-1.076l-9.68 2.594 3.543-6.137a1.52 1.52 0 1 0-2.635-1.521l-3.543 6.137-2.594-9.68c-.217-.81-1.052-1.293-1.864-1.076s-1.293 1.052-1.076 1.864l3.382 12.62-9.684 16.773-5.187-19.36 6.142-10.638a1.52 1.52 0 1 0-2.635-1.521l-4.62 8-1.412-5.27c-.217-.81-1.052-1.293-1.864-1.076s-1.293 1.052-1.076 1.864l1.412 5.27-8-4.618a1.52 1.52 0 1 0-1.521 2.635l10.635 6.14 5.188 19.36-16.773-9.684-3.382-12.62c-.217-.81-1.052-1.293-1.864-1.076s-1.293 1.052-1.076 1.864l2.594 9.68-6.137-3.543a1.52 1.52 0 1 0-1.521 2.635l6.137 3.543-9.68 2.594c-.81.217-1.293 1.052-1.076 1.864s1.052 1.293 1.864 1.076l12.62-3.382 16.773 9.684-19.36 5.188-10.636-6.14a1.52 1.52 0 1 0-1.521 2.635l8 4.62-5.27 1.412c-.81.217-1.293 1.052-1.076 1.864s1.052 1.293 1.864 1.076l5.27-1.412-4.62 8a1.52 1.52 0 0 0 .557 2.078c.363.2.778.253 1.155.152s.714-.346.924-.71l6.142-10.637 19.36-5.188-9.684 16.773-12.622 3.382c-.81.217-1.293 1.052-1.076 1.864s1.052 1.293 1.864 1.076l9.68-2.594-3.543 6.137a1.52 1.52 0 0 0 .557 2.078c.363.2.778.253 1.155.152s.714-.346.924-.71l3.543-6.137 2.594 9.68c.217.81 1.052 1.293 1.864 1.076s1.293-1.052 1.076-1.864l-3.382-12.62 9.684-16.773 5.188 19.36-6.14 10.636a1.52 1.52 0 1 0 2.635 1.521l4.62-8 1.412 5.27c.217.81 1.052 1.293 1.864 1.076s1.293-1.052 1.076-1.864l-1.412-5.27 8 4.62c.363.2.778.253 1.155.152s.714-.346.924-.71a1.52 1.52 0 0 0-.557-2.078l-10.637-6.142-5.187-19.36 16.773 9.684 3.382 12.62c.217.81 1.052 1.293 1.864 1.076s1.293-1.052 1.076-1.864l-2.594-9.68 6.137 3.543c.363.2.778.253 1.155.152s.714-.346.924-.71a1.52 1.52 0 0 0-.557-2.078l-6.137-3.543 9.68-2.594c.81-.217 1.293-1.052 1.076-1.864s-1.052-1.293-1.864-1.076l-12.62 3.382-16.773-9.684 19.36-5.188 10.638 6.142c.362.21.776.252 1.153.15s.714-.346.924-.71a1.52 1.52 0 0 0-.557-2.078l-8-4.62z" id="C" fill="#ec4a81"/><path d="M109.37 264.037c2.002-2.188 3.13-5.062 3.13-8.06 0-6.592-5.364-11.957-11.957-11.957-3.763 0-7.25 1.77-9.503 4.747-1.16-.26-2.346-.4-3.54-.4-7.753 0-14.45 5.565-15.968 13.082-5.043.386-9.032 4.604-9.032 9.745 0 5.393 4.39 9.783 9.783 9.783h30.435c5.393 0 9.783-4.39 9.783-9.783 0-2.728-1.153-5.32-3.13-7.16zm-8.826-17.84c5.393 0 9.783 4.39 9.783 9.783 0 2.525-.98 4.943-2.7 6.752-.115-.067-.238-.118-.357-.182s-.23-.12-.35-.177c-.36-.173-.73-.325-1.108-.45-.05-.016-.096-.04-.145-.054-.425-.135-.86-.232-1.3-.307-.122-.02-.243-.033-.366-.05-.17-.023-.338-.055-.5-.068a16.28 16.28 0 0 0-10.203-12.012 9.75 9.75 0 0 1 7.264-3.235zm2.174 32.61H72.283a7.62 7.62 0 0 1-7.609-7.609c0-4.196 3.413-7.61 7.554-7.618.012.002.025.002.038.003a.8.8 0 0 0 .165.016c.57 0 1.153.074 1.737.22a.91.91 0 0 0 .133.046 7.65 7.65 0 0 1 4.574 3.528c.3.52.964.698 1.485.397s.698-.965.397-1.485c-1.25-2.165-3.333-3.796-5.73-4.493-.05-.023-.102-.04-.157-.055-.38-.102-.76-.18-1.14-.234 1.45-6.333 7.174-10.977 13.77-10.977a13.97 13.97 0 0 1 3.691.495 14.11 14.11 0 0 1 10.083 10.483c-.38.055-.762.132-1.142.235-.054.014-.107.033-.157.055a9.75 9.75 0 0 0-4.895 3.289c-.015.014-.017.018-.02.023-.017.02-.017.026-.022.032-.3.364-.57.753-.8 1.164-.293.524-.105 1.186.418 1.48a1.09 1.09 0 0 0 .528.137c.382 0 .75-.2.95-.557a5.76 5.76 0 0 1 .603-.877c.012-.022.018-.023.022-.028a7.57 7.57 0 0 1 3.942-2.61c.045-.012.088-.027.13-.045.585-.147 1.167-.22 1.735-.22.068 0 .085.002.152-.01a7.57 7.57 0 0 1 4.403 1.408c2.008 1.428 3.205 3.746 3.205 6.2a7.62 7.62 0 0 1-7.609 7.609z" id="D" fill="#ec4a81"/><g transform="matrix(.244565 0 0 .244565 217.5 217.5)" id="E" fill="#ec4a81"><path d="M301.536 96.28C290.36 40.96 241.056 0 184 0 126.936 0 77.64 40.96 66.472 96.28 29.352 99.12 0 130.168 0 168c0 39.696 32.304 72 72 72h16c4.416 0 8-3.584 8-8s-3.584-8-8-8H72c-30.88 0-56-25.12-56-56s25.12-56 55.6-56.072c.088.016.184.016.28.024.04.008.072.032.112.04.064.008.12-.016.184-.008.32.04.632.096.952.096 4.168 0 8.456.544 12.752 1.624.312.136.64.248.976.336 14.08 3.84 26.352 13.312 33.664 25.968 2.2 3.816 7.088 5.136 10.928 2.92 3.824-2.208 5.136-7.104 2.92-10.928-9.208-15.936-24.528-27.936-42.168-33.072-.368-.168-.752-.304-1.152-.408-2.8-.752-5.6-1.32-8.4-1.72C93.328 50.184 135.448 16 184 16c48.544 0 90.672 34.184 101.352 80.792-2.8.408-5.608.968-8.4 1.728-.392.104-.768.24-1.136.4-17.64 5.136-32.968 17.144-42.184 33.08-2.208 3.832-.896 8.72 2.928 10.928 3.808 2.216 8.712.896 10.928-2.92 7.312-12.656 19.576-22.12 33.656-25.968a8.14 8.14 0 0 0 .968-.336c4.296-1.08 8.584-1.624 12.768-1.624.528 0 .616.024 1.12-.08 30.872 0 56 25.12 56 56s-25.128 56-56 56h-16a8 8 0 1 0 0 16h16c39.704 0 72-32.304 72-72 0-37.832-29.344-68.872-66.464-71.72z"/><circle cx="144" cy="224" r="16"/><circle cx="184" cy="288" r="16"/><circle cx="104" cy="288" r="16"/><circle cx="264" cy="288" r="16"/><circle cx="224" cy="224" r="16"/><circle cx="144" cy="352" r="16"/><circle cx="224" cy="352" r="16"/></g><path d="M50.695 186.913h-5.38l.163-2.6c0-12.946-10.533-23.478-23.478-23.478s-23.478 10.535-23.478 23.48c0 .883.067 1.752.163 2.6h-5.38c-.72 0-1.304.584-1.304 1.304s.584 1.304 1.304 1.304h57.4c.72 0 1.304-.584 1.304-1.304s-.584-1.304-1.304-1.304zm-8 0H1.293a20.69 20.69 0 0 1-.163-2.609c0-11.507 9.363-20.87 20.87-20.87s20.87 9.363 20.87 20.87a20.69 20.69 0 0 1-.163 2.609zm2.773 7.827H-1.478c-.72 0-1.304.584-1.304 1.304s.584 1.304 1.304 1.304h46.956c.72 0 1.304-.584 1.304-1.304s-.584-1.304-1.304-1.304zm-5.218 7.825H3.74c-.72 0-1.304.584-1.304 1.304s.584 1.304 1.304 1.304h36.52c.72 0 1.304-.584 1.304-1.304s-.584-1.304-1.304-1.304z" id="F" fill="#ec4a81"/><path d="M195.163 30.307c-1.822-9.02-9.86-15.698-19.163-15.698s-17.34 6.678-19.162 15.698A11.75 11.75 0 0 0 146 42.001c0 6.472 5.266 11.74 11.74 11.74h5.217c.72 0 1.304-.584 1.304-1.304s-.583-1.304-1.304-1.304h-5.217c-5.033 0-9.13-4.096-9.13-9.13s4.097-9.13 9.068-9.14c.014.003.03.001.044.004.078.016.138.02.198.02a8.55 8.55 0 0 1 2.083.265 1.09 1.09 0 0 0 .159.055 9.17 9.17 0 0 1 5.487 4.233c.36.625 1.158.836 1.782.477a1.3 1.3 0 0 0 .477-1.782 11.81 11.81 0 0 0-6.875-5.393 1.2 1.2 0 0 0-.188-.067 11.48 11.48 0 0 0-1.37-.28c1.74-7.6 8.6-13.173 16.525-13.173s14.783 5.573 16.525 13.173a11.55 11.55 0 0 0-1.37.282 1.3 1.3 0 0 0-.185.065c-2.876.837-5.375 2.795-6.878 5.393-.36.625-.146 1.422.477 1.782s1.42.147 1.782-.476a9.18 9.18 0 0 1 5.487-4.234c.053-.016.107-.033.158-.055a8.55 8.55 0 0 1 2.082-.265c.083.001.1.004.183-.013 5.033 0 9.13 4.096 9.13 9.13s-4.097 9.13-9.13 9.13h-5.217c-.72 0-1.304.584-1.304 1.304s.583 1.304 1.304 1.304h5.217c6.473 0 11.74-5.267 11.74-11.74a11.75 11.75 0 0 0-10.836-11.693zm-13.946 24.737h-7.53l8.506-9.567c.477-.54.43-1.363-.1-1.843s-1.363-.43-1.84.108l-10.435 11.74c-.342.383-.425.933-.215 1.4a1.31 1.31 0 0 0 1.2.77h7.767l-7.492 9.634c-.443.57-.34 1.388.228 1.83a1.3 1.3 0 0 0 1.83-.229l9.13-11.74c.305-.393.36-.926.142-1.373a1.3 1.3 0 0 0-1.17-.73z" id="G" fill="#ec4a81"/><path d="M294.87 73.217h-49.565c-.72 0-1.304.584-1.304 1.304s.583 1.304 1.304 1.304h49.565c.72 0 1.304-.584 1.304-1.304s-.583-1.304-1.304-1.304zm7.825 7.826h-44.348c-.72 0-1.304.584-1.304 1.304s.583 1.304 1.304 1.304h44.348c.72 0 1.304-.584 1.304-1.304s-.583-1.304-1.304-1.304zm-7.825 15.653h-31.304c-.72 0-1.304.584-1.304 1.304s.583 1.304 1.304 1.304h31.304c.72 0 1.304-.584 1.304-1.304s-.583-1.304-1.304-1.304zm-5.218 7.826h-20.87c-.72 0-1.304.584-1.304 1.304s.583 1.304 1.304 1.304h20.87c.72 0 1.304-.584 1.304-1.304s-.583-1.304-1.304-1.304zm-5.217 7.826h-15.652c-.72 0-1.304.584-1.304 1.304s.583 1.304 1.304 1.304h15.652c.72 0 1.304-.584 1.304-1.304s-.583-1.304-1.304-1.304zm-5.218 7.826h-10.435c-.72 0-1.304.584-1.304 1.304s.583 1.304 1.304 1.304h10.435c.72 0 1.304-.584 1.304-1.304s-.583-1.304-1.304-1.304zm5.218-31.304h-39.13c-.72 0-1.304.584-1.304 1.304s.583 1.304 1.304 1.304h39.13c.72 0 1.304-.584 1.304-1.304s-.583-1.304-1.304-1.304z" id="H" fill="#ec4a81"/><path id="I" d="M0 0h350v350H0z"/></defs><pattern id="J" width="350" height="350" patternUnits="userSpaceOnUse"><use xlink:href="#A" x="-350" y="-350"/><use xlink:href="#A" y="-350"/><use xlink:href="#A" x="350" y="-350"/><use xlink:href="#A" x="-350"/><use xlink:href="#A"/><use xlink:href="#A" x="350"/><use xlink:href="#A" x="-350" y="350"/><use xlink:href="#A" y="350"/><use xlink:href="#A" x="350" y="350"/></pattern><use xlink:href="#I" fill="url(#J)"/><pattern id="K" width="350" height="350" patternUnits="userSpaceOnUse"><use xlink:href="#B" x="-350" y="-350"/><use xlink:href="#B" y="-350"/><use xlink:href="#B" x="350" y="-350"/><use xlink:href="#B" x="-350"/><use xlink:href="#B"/><use xlink:href="#B" x="350"/><use xlink:href="#B" x="-350" y="350"/><use xlink:href="#B" y="350"/><use xlink:href="#B" x="350" y="350"/></pattern><use xlink:href="#I" fill="url(#K)"/><pattern id="L" width="350" height="350" patternUnits="userSpaceOnUse"><use xlink:href="#C" x="-350" y="-350"/><use xlink:href="#C" y="-350"/><use xlink:href="#C" x="350" y="-350"/><use xlink:href="#C" x="-350"/><use xlink:href="#C"/><use xlink:href="#C" x="350"/><use xlink:href="#C" x="-350" y="350"/><use xlink:href="#C" y="350"/><use xlink:href="#C" x="350" y="350"/></pattern><use xlink:href="#I" fill="url(#L)"/><pattern id="M" width="350" height="350" patternUnits="userSpaceOnUse"><use xlink:href="#D" x="-350" y="-350"/><use xlink:href="#D" y="-350"/><use xlink:href="#D" x="350" y="-350"/><use xlink:href="#D" x="-350"/><use xlink:href="#D"/><use xlink:href="#D" x="350"/><use xlink:href="#D" x="-350" y="350"/><use xlink:href="#D" y="350"/><use xlink:href="#D" x="350" y="350"/></pattern><use xlink:href="#I" fill="url(#M)"/><pattern id="N" width="350" height="350" patternUnits="userSpaceOnUse"><use xlink:href="#E" x="-350" y="-350"/><use xlink:href="#E" y="-350"/><use xlink:href="#E" x="350" y="-350"/><use xlink:href="#E" x="-350"/><use xlink:href="#E"/><use xlink:href="#E" x="350"/><use xlink:href="#E" x="-350" y="350"/><use xlink:href="#E" y="350"/><use xlink:href="#E" x="350" y="350"/></pattern><use xlink:href="#I" fill="url(#N)"/><pattern id="O" width="350" height="350" patternUnits="userSpaceOnUse"><use xlink:href="#F" x="-350" y="-350"/><use xlink:href="#F" y="-350"/><use xlink:href="#F" x="350" y="-350"/><use xlink:href="#F" x="-350"/><use xlink:href="#F"/><use xlink:href="#F" x="350"/><use xlink:href="#F" x="-350" y="350"/><use xlink:href="#F" y="350"/><use xlink:href="#F" x="350" y="350"/></pattern><use xlink:href="#I" fill="url(#O)"/><pattern id="P" width="350" height="350" patternUnits="userSpaceOnUse"><use xlink:href="#G" x="-350" y="-350"/><use xlink:href="#G" y="-350"/><use xlink:href="#G" x="350" y="-350"/><use xlink:href="#G" x="-350"/><use xlink:href="#G"/><use xlink:href="#G" x="350"/><use xlink:href="#G" x="-350" y="350"/><use xlink:href="#G" y="350"/><use xlink:href="#G" x="350" y="350"/></pattern><use xlink:href="#I" fill="url(#P)"/><pattern id="Q" width="350" height="350" patternUnits="userSpaceOnUse"><use xlink:href="#H" x="-350" y="-350"/><use xlink:href="#H" y="-350"/><use xlink:href="#H" x="350" y="-350"/><use xlink:href="#H" x="-350"/><use xlink:href="#H"/><use xlink:href="#H" x="350"/><use xlink:href="#H" x="-350" y="350"/><use xlink:href="#H" y="350"/><use xlink:href="#H" x="350" y="350"/></pattern><use xlink:href="#I" fill="url(#Q)"/></svg>