<svg xmlns="http://www.w3.org/2000/svg" xmlns:xlink="http://www.w3.org/1999/xlink" width="400" height="400" viewBox="0 0 350 350"><use xlink:href="#I" opacity="0" fill="#fff"/><defs><g id="A" fill="#ec4a81"><path d="M52.833-14.395L-30.704-36.78a1.76 1.76 0 0 0-2.153 1.243l-19.22 71.73a1.76 1.76 0 0 0 1.243 2.153L25.9 58.912a1.76 1.76 0 0 0 2.153-1.243 1.76 1.76 0 0 0-1.243-2.153L-2.645 47.62a26.83 26.83 0 0 1-.314-5.709 1.76 1.76 0 0 0-1.3-1.79l-3.204-.86 2.195-8.192 3.204.86c.802.215 1.644-.16 2.02-.9a26.75 26.75 0 0 1 5.966-7.77 1.76 1.76 0 0 0 .347-2.185L4.6 18.198l7.344-4.24 1.66 2.874a1.76 1.76 0 0 0 2.066.793c3.146-1.024 6.414-1.455 9.713-1.28a1.76 1.76 0 0 0 1.791-1.3l.86-3.205 8.2 2.195-.86 3.205a1.76 1.76 0 0 0 .9 2.021c1.733.882 3.365 1.954 4.866 3.2L33.27 51.8a1.76 1.76 0 0 0 1.243 2.153 1.76 1.76 0 0 0 2.153-1.243l17.4-64.94a1.76 1.76 0 0 0-1.243-2.153zm-82.75-18.533l80.142 21.474-2.445 9.126-80.142-21.474zM39.13 16.807l.954-3.56a1.76 1.76 0 0 0-1.243-2.153L27.254 8a1.76 1.76 0 0 0-2.153 1.243l-.954 3.56c-2.77-.016-5.5.346-8.183 1.08L14.12 10.68a1.76 1.76 0 0 0-2.401-.643L1.33 16.032a1.76 1.76 0 0 0-.643 2.401l1.843 3.194a30.23 30.23 0 0 0-5.027 6.547l-3.56-.954a1.76 1.76 0 0 0-2.153 1.243l-3.105 11.588a1.76 1.76 0 0 0 1.243 2.153l3.56.954a30.35 30.35 0 0 0 .184 3.476l-41.9-11.227 14.955-55.814L46.87 1.067l-4.74 17.697a32.1 32.1 0 0 0-3-1.957zm-10.514-30.98l-2.95-.8a1.76 1.76 0 0 0-2.153 1.243 1.76 1.76 0 0 0 1.243 2.153l2.95.8a1.76 1.76 0 0 0 2.153-1.243 1.76 1.76 0 0 0-1.243-2.153zm8.318 2.228l-2.95-.8a1.76 1.76 0 0 0-2.153 1.243 1.76 1.76 0 0 0 1.243 2.153l2.95.8a1.76 1.76 0 0 0 2.153-1.243 1.76 1.76 0 0 0-1.243-2.153zm8.32 2.23l-2.95-.8a1.76 1.76 0 0 0-2.153 1.243 1.76 1.76 0 0 0 1.243 2.153l2.95.8a1.76 1.76 0 0 0 2.153-1.243 1.76 1.76 0 0 0-1.243-2.153zM-19.168 22.5l-17.173-4.6a1.76 1.76 0 0 0-2.153 1.243 1.76 1.76 0 0 0 1.243 2.153l17.173 4.6a1.76 1.76 0 0 0 2.153-1.243 1.76 1.76 0 0 0-1.243-2.153zM15.885-.713l-44.078-11.8a1.76 1.76 0 0 0-2.153 1.243 1.76 1.76 0 0 0 1.243 2.153l44.078 11.8a1.76 1.76 0 0 0 2.153-1.243 1.76 1.76 0 0 0-1.243-2.153zm0 0"/><path d="M-31.787.9l23.255 6.23a1.76 1.76 0 0 0 2.153-1.243 1.76 1.76 0 0 0-1.243-2.153l-23.255-6.23a1.76 1.76 0 0 0-2.153 1.243A1.76 1.76 0 0 0-31.787.89zm26.28 10.678l-27.2-7.286a1.76 1.76 0 0 0-2.153 1.243 1.76 1.76 0 0 0 1.243 2.153l27.2 7.286a1.76 1.76 0 0 0 2.153-1.243 1.76 1.76 0 0 0-1.243-2.153zm-9.335 4.785L-34.52 11.1a1.76 1.76 0 0 0-2.153 1.243 1.76 1.76 0 0 0 1.243 2.153l19.677 5.273a1.76 1.76 0 0 0 2.153-1.243 1.76 1.76 0 0 0-1.244-2.153zm48.456 40.973a1.76 1.76 0 0 0-2.153 1.243 1.76 1.76 0 0 0 1.243 2.153 1.76 1.76 0 0 0 2.153-1.243 1.76 1.76 0 0 0-1.243-2.153zm0 0"/></g><g id="B" fill="#ec4a81"><path d="M96.562 74.624l-6.895-6.895a.78.78 0 0 0-.552-.229H68.28a.78.78 0 0 0-.781.781v35.313a.782.782 0 1 0 1.563 0v-34.53h19.27v6.114a.78.78 0 0 0 .781.781h6.114v29.98h-23.82a.782.782 0 1 0 0 1.563H96a.78.78 0 0 0 .781-.781V75.176a.78.78 0 0 0-.229-.552zm-6.667-4.457l4.228 4.228h-4.228zM71.98 98.337a.78.78 0 0 0-.781.781v3.42a.78.78 0 0 0 .781.781h3.42a.78.78 0 0 0 .781-.781v-.928H88.1v.928a.78.78 0 0 0 .781.781h3.42a.78.78 0 0 0 .781-.781v-3.42a.78.78 0 0 0-.781-.781h-.928v-11.93h.928a.78.78 0 0 0 .781-.781v-3.42a.78.78 0 0 0-.781-.781h-3.42a.78.78 0 0 0-.781.781v.928H76.18v-.928a.78.78 0 0 0-.781-.781h-3.42a.78.78 0 0 0-.781.781v3.42a.78.78 0 0 0 .781.781h.928v11.928zm2.637 3.42H72.76V99.9h1.856zm16.9 0H89.67V99.9h1.856zM89.672 83h1.856v1.856h-1.856zm-16.9 0h1.856v1.856h-1.856zm1.7 3.42h.928a.78.78 0 0 0 .781-.781v-.94H88.1v.928a.78.78 0 0 0 .781.781h.928v11.928h-.928a.78.78 0 0 0-.781.781v.928H76.18v-.928a.78.78 0 0 0-.781-.781h-.928zm0 0"/><path d="M77.596 97.703h9.098a.78.78 0 0 0 .781-.781v-9.098a.78.78 0 0 0-.781-.781h-9.098a.78.78 0 0 0-.781.781v9.098a.78.78 0 0 0 .781.781zm.78-9.098h7.535v7.535h-7.535zM68.28 105.938a.78.78 0 0 0 0 1.56.78.78 0 0 0 0-1.56zm0 0"/></g><path d="M172.663 161.654c-3.306.886-5.275 4.296-4.4 7.602l.438 1.636-.278.075a1.37 1.37 0 0 0-.967 1.674l2.945 11a1.37 1.37 0 0 0 1.674.967l12.547-3.362c.73-.195 1.162-.945.967-1.674l-2.945-11c-.195-.73-.945-1.162-1.674-.967l-.278.074-.438-1.636c-.886-3.306-4.296-5.275-7.602-4.4zm-1.748 6.895a3.48 3.48 0 0 1 2.456-4.253 3.48 3.48 0 0 1 4.253 2.455l.44 1.637-6.7 1.798zm11.7 10.4l-9.906 2.654-2.237-8.35 9.907-2.654 2.237 8.35zm-6.8-5.573c-.73.195-1.162.945-.967 1.674l.753 2.8a1.37 1.37 0 0 0 1.674.967 1.37 1.37 0 0 0 .967-1.674l-.753-2.8c-.195-.73-.945-1.162-1.674-.967zm23.666-6.083c1.18 2.066 3.65 3.168 6.054 2.524a5.38 5.38 0 0 0 3.798-6.579 5.38 5.38 0 0 0-6.579-3.798 5.38 5.38 0 0 0-3.98 5.212l-6.672 1.788c-.325-3.077-.935-6.313-1.834-9.667a1.37 1.37 0 0 0-1.664-.97c-.057.015-3.426.852-7.74.1l6.54-13.317 5.094-1.365c1.18 2.066 3.65 3.167 6.054 2.523a5.38 5.38 0 0 0 3.798-6.578 5.38 5.38 0 0 0-6.579-3.798 5.38 5.38 0 0 0-3.98 5.212l-5.694 1.526a1.37 1.37 0 0 0-.874.718l-7.074 14.4c-2.358-.766-4.84-2.078-7.125-4.262a1.37 1.37 0 0 0-2.257.605 18.46 18.46 0 0 1-4.032 7.259l-13.338-8.946c-.328-.22-.734-.288-1.115-.186l-5.694 1.526a5.38 5.38 0 0 0-9.852 4.056 5.38 5.38 0 0 0 6.578 3.798c2.405-.644 3.992-2.832 3.982-5.212l5.094-1.365 12.327 8.268-1.42 1.086c-2.822 1.973-5.318 2.688-5.34 2.694a1.37 1.37 0 0 0-.956 1.672c.9 3.36 1.987 6.462 3.248 9.288l-6.675 1.788a5.38 5.38 0 0 0-9.852 4.056 5.38 5.38 0 0 0 6.578 3.798c2.405-.644 3.992-2.832 3.98-5.212l7.17-1.92c1.033 2.008 2.165 3.855 3.394 5.532 1.818 2.482 3.805 4.534 5.943 6.145l-5.454 11.1-5.094 1.365a5.38 5.38 0 0 0-9.852 4.056 5.38 5.38 0 0 0 6.578 3.798c2.405-.644 3.992-2.832 3.98-5.212l5.694-1.526a1.37 1.37 0 0 0 .874-.718l5.57-11.345c1.3.76 2.672 1.37 4.08 1.823.72.23 1.5-.164 1.72-.882a1.37 1.37 0 0 0-.882-1.72c-1.613-.52-3.16-1.28-4.63-2.262a1.41 1.41 0 0 0-.157-.105c-3.807-2.6-7.106-6.694-9.74-12.098-.04-.118-.093-.228-.16-.328-1.276-2.67-2.394-5.65-3.332-8.916 1.133-.446 2.9-1.257 4.792-2.574a23.09 23.09 0 0 0 3.03-2.503c.054-.044.104-.094.152-.148a21.43 21.43 0 0 0 4.758-7.197 21.42 21.42 0 0 0 7.718 3.853 1.37 1.37 0 0 0 .207.054c1.252.323 2.546.544 3.874.653a23.44 23.44 0 0 0 5.436-.166c.816 3.28 1.338 6.423 1.573 9.384-.01.127.001.257.03.387.605 8.497-1.186 15.465-5.26 19.864-.513.554-.48 1.42.074 1.932.358.332.845.435 1.284.317a1.36 1.36 0 0 0 .648-.392c1-1.1 1.896-2.316 2.658-3.66l10.386 6.966c.328.22.734.288 1.116.185l5.694-1.526a5.38 5.38 0 1 0 3.274-7.853c-2.405.644-3.992 2.832-3.98 5.212l-5.094 1.365-10.186-6.832c1.72-4.15 2.45-9.2 2.162-14.845zm3.98-5.212a2.64 2.64 0 0 1 3.23 1.865 2.64 2.64 0 0 1-1.865 3.23 2.64 2.64 0 0 1-3.229-1.864 2.64 2.64 0 0 1 1.864-3.231zm-6.986-26.073a2.64 2.64 0 0 1 3.23 1.865 2.64 2.64 0 0 1-1.865 3.229 2.64 2.64 0 0 1-3.229-1.863v-.001a2.64 2.64 0 0 1 1.864-3.23zm-55.873 20.43a2.64 2.64 0 0 1-3.229-1.864 2.64 2.64 0 0 1 1.864-3.23 2.64 2.64 0 0 1 3.23 1.865 2.64 2.64 0 0 1-1.865 3.229zm6.986 26.074a2.64 2.64 0 0 1-3.229-1.865 2.64 2.64 0 0 1 1.864-3.23 2.64 2.64 0 0 1 3.23 1.865 2.64 2.64 0 0 1-1.865 3.23zm6.664 24.872a2.64 2.64 0 0 1-3.229-1.865 2.64 2.64 0 0 1 1.864-3.23 2.64 2.64 0 0 1 3.23 1.865 2.64 2.64 0 0 1-1.865 3.23zm55.873-20.43a2.64 2.64 0 0 1 3.23 1.865 2.64 2.64 0 0 1-1.865 3.23 2.64 2.64 0 0 1-3.229-1.863 2.64 2.64 0 0 1 1.864-3.231zm-29.504 4.36a1.37 1.37 0 0 0-.967 1.674 1.37 1.37 0 0 0 1.674.967 1.37 1.37 0 0 0 .967-1.674 1.37 1.37 0 0 0-1.674-.967zm0 0" id="C" fill="#ec4a81"/><path d="M277.43 69.096h-21.265l-2.5-4.23a.9.9 0 0 0-.775-.442h-12.038a.9.9 0 0 0-.901.901v31.52a.9.9 0 0 0 .901.901h17.393v5.234h-1.995a.9.9 0 0 0-.901.901v1.995h-7.8v-1.995a.9.9 0 0 0-.901-.901h-5.793a.9.9 0 0 0-.901.901v5.793a.9.9 0 0 0 .901.901h5.793a.9.9 0 0 0 .901-.901v-1.995h7.8v1.995a.9.9 0 0 0 .901.901h5.793a.9.9 0 0 0 .901-.901v-1.995h7.8v1.995a.9.9 0 0 0 .901.901h5.793a.9.9 0 0 0 .901-.901v-5.793a.9.9 0 0 0-.901-.901h-5.793a.9.9 0 0 0-.901.901v1.995h-7.8v-1.995a.9.9 0 0 0-.901-.901h-1.995v-5.234h17.393a.9.9 0 0 0 .901-.901v-9.818a.901.901 0 1 0-1.803 0v8.916h-34.785V66.226h10.623l2.5 4.23a.9.9 0 0 0 .775.442h20.878v8.916a.902.902 0 1 0 1.803 0v-9.818a.9.9 0 0 0-.902-.901zm-31.696 39.678h-4v-4h4zm26.804-4h4v4h-4zm-11.407 4h-4v-4h4zm16.3-26.254a.9.9 0 0 0-.9.9c0 .495.405.9.9.9s.9-.405.9-.9-.405-.9-.9-.9zm0 0" id="D" fill="#ec4a81"/><g id="E" fill="#ec4a81"><path d="M383.633 175.2h-9.588v-12.263c2.5-.615 4.358-2.873 4.358-5.558 0-3.157-2.568-5.725-5.725-5.725-2.685 0-4.944 1.86-5.558 4.358h-27.474V141.37c0-.755-.612-1.367-1.367-1.367h-21.9c-.755 0-1.367.612-1.367 1.367v32.04a1.37 1.37 0 0 0 1.367 1.367h9.588v12.263c-2.5.615-4.358 2.873-4.358 5.558 0 3.157 2.568 5.725 5.725 5.725 2.685 0 4.944-1.86 5.558-4.357h27.474v14.652c0 .755.612 1.367 1.367 1.367h21.9c.755 0 1.367-.612 1.367-1.367v-32.04a1.37 1.37 0 0 0-1.367-1.367zm-10.956-20.812c1.65 0 3 1.342 3 3s-1.342 3-3 3-3-1.342-3-3a2.99 2.99 0 0 1 3-2.99zm-54.943-11.662H336.9v29.305h-19.176zm9.588 52.853c-1.65 0-3-1.342-3-3s1.342-3 3-3 3 1.34 3 3v.003c-.001 1.648-1.343 3-3 3zm5.558-4.358c-.506-2.06-2.13-3.685-4.2-4.192v-12.263h9.588c.755 0 1.367-.612 1.367-1.367v-14.652h27.474a5.74 5.74 0 0 0 4.19 4.19V175.2h-9.588c-.755 0-1.367.612-1.367 1.367v14.653zm49.384 16.02H363.1v-29.305h19.176zm-48.6-62.29H320.98a1.37 1.37 0 0 0-1.367 1.367v3.644c0 .755.612 1.367 1.367 1.367s1.367-.612 1.367-1.367v-2.277h9.95v15.5h-9.95v-2.277c0-.755-.612-1.367-1.367-1.367s-1.367.612-1.367 1.367v3.644a1.37 1.37 0 0 0 1.367 1.367h12.685a1.37 1.37 0 0 0 1.367-1.367v-18.225a1.37 1.37 0 0 0-1.367-1.367zm0 0"/><path d="M366.335 180.17a1.37 1.37 0 0 0-1.367 1.367v3.643a1.37 1.37 0 0 0 1.367 1.367c.755 0 1.367-.612 1.367-1.367v-2.276h9.95v15.5h-9.95v-2.277c0-.755-.612-1.367-1.367-1.367a1.37 1.37 0 0 0-1.367 1.367v3.644a1.37 1.37 0 0 0 1.367 1.367h12.685a1.37 1.37 0 0 0 1.367-1.367v-18.225a1.37 1.37 0 0 0-1.367-1.367zm-36.635-12.6h-4.754c-.755 0-1.367.612-1.367 1.367s.612 1.367 1.367 1.367h4.754a1.37 1.37 0 0 0 1.367-1.367 1.37 1.37 0 0 0-1.367-1.367zm0 0"/><path d="M375.055 202.77H370.3c-.755 0-1.367.612-1.367 1.367s.612 1.367 1.367 1.367h4.754a1.37 1.37 0 0 0 1.367-1.367 1.37 1.37 0 0 0-1.367-1.367zm-54.075-45.962a1.37 1.37 0 0 0 1.367-1.367 1.37 1.37 0 0 0-1.367-1.367 1.37 1.37 0 0 0-1.367 1.367 1.37 1.37 0 0 0 1.367 1.367zm0 0"/><path d="M366.335 192.017a1.37 1.37 0 0 0 1.367-1.367 1.37 1.37 0 0 0-1.367-1.367 1.37 1.37 0 0 0-1.367 1.367 1.37 1.37 0 0 0 1.367 1.367zm0 0"/></g><g id="F" fill="#ec4a81"><path d="M103.697 248.72c1.6 0 2.9-1.3 2.9-2.9v-5.42c0-1.6-1.3-2.9-2.9-2.9H65.4c-1.6 0-2.9 1.3-2.9 2.9v5.42c0 1.6 1.3 2.9 2.9 2.9h5.1v2.594h-5.1c-1.6 0-2.9 1.3-2.9 2.9v5.42c0 1.6 1.3 2.9 2.9 2.9h5.1v2.594h-5.1c-1.6 0-2.9 1.3-2.9 2.9v5.42c0 1.6 1.3 2.9 2.9 2.9h18.172v4.3h-4.576c-.54 0-.977.437-.977.977v1.472H63.477c-.54 0-.977.437-.977.977s.437.977.977.977H78.02v1.472c0 .54.437.977.977.977h1.646c.54 0 .977-.437.977-.977s-.437-.977-.977-.977h-.67v-2.943h9.15v2.943h-.67c-.54 0-.977.437-.977.977s.437.977.977.977H90.1c.54 0 .977-.437.977-.977v-1.472h14.543c.54 0 .977-.437.977-.977s-.437-.977-.977-.977H91.077v-1.472c0-.54-.437-.977-.977-.977h-4.575v-4.3h18.172c1.6 0 2.9-1.3 2.9-2.9v-5.42c0-1.6-1.3-2.9-2.9-2.9h-5.1v-2.594h5.1c1.6 0 2.9-1.3 2.9-2.9v-5.42c0-1.6-1.3-2.9-2.9-2.9h-5.1v-2.594zm-39.244-2.9v-5.42a.95.95 0 0 1 .947-.947h38.297a.95.95 0 0 1 .947.947v5.42a.95.95 0 0 1-.947.947H65.4a.95.95 0 0 1-.947-.947zm40.2 22.2v5.42a.95.95 0 0 1-.947.947H65.4a.95.95 0 0 1-.947-.947v-5.42a.95.95 0 0 1 .947-.947h38.297a.95.95 0 0 1 .947.947zm-8-2.9h-24.2v-2.594h24.2zm8-10.915v5.42a.95.95 0 0 1-.947.947H65.4a.95.95 0 0 1-.947-.947v-5.42a.95.95 0 0 1 .947-.947h38.297a.95.95 0 0 1 .947.947zm-8-2.9h-24.2v-2.594h24.2zm1.945-7.228h1.568c.54 0 .977-.437.977-.977s-.437-.977-.977-.977h-1.568c-.54 0-.977.437-.977.977s.438.977.977.977zm-10.784 0h1.568c.54 0 .977-.437.977-.977s-.437-.977-.977-.977h-1.568c-.54 0-.977.437-.977.977s.437.977.977.977zm-3.2-.977c0-.54-.437-.977-.977-.977H68.94c-.54 0-.977.437-.977.977s.437.977.977.977h14.696c.54 0 .977-.437.977-.977zm0 0"/><path d="M93.196 244.087h1.568c.54 0 .977-.437.977-.977s-.437-.977-.977-.977h-1.568c-.54 0-.977.437-.977.977s.437.977.977.977zm-3.823 11.863h-1.568c-.54 0-.977.437-.977.977s.437.977.977.977h1.568c.54 0 .977-.437.977-.977s-.437-.977-.977-.977zm0 0"/><path d="M83.638 255.95H68.94c-.54 0-.977.437-.977.977s.437.977.977.977h14.696c.54 0 .977-.437.977-.977s-.437-.977-.977-.977zm14.95 1.952h1.568c.54 0 .977-.437.977-.977s-.437-.977-.977-.977h-1.568c-.54 0-.977.437-.977.977s.438.977.977.977zm0 0"/><path d="M94.764 255.95h-1.568c-.54 0-.977.437-.977.977s.437.977.977.977h1.568c.54 0 .977-.437.977-.977s-.437-.977-.977-.977zm3.824 15.767h1.568c.54 0 .977-.437.977-.977s-.437-.977-.977-.977h-1.568c-.54 0-.977.437-.977.977s.438.977.977.977zm-9.215-1.953h-1.568c-.54 0-.977.437-.977.977s.437.977.977.977h1.568c.54 0 .977-.437.977-.977s-.437-.977-.977-.977zm5.39 0h-1.568c-.54 0-.977.437-.977.977s.437.977.977.977h1.568c.54 0 .977-.437.977-.977s-.437-.977-.977-.977zm-11.126 0H68.94c-.54 0-.977.437-.977.977s.437.977.977.977h14.696c.54 0 .977-.437.977-.977s-.437-.977-.977-.977zm.912 15.783a.98.98 0 0 0-.977.977.98.98 0 0 0 .977.977.98.98 0 0 0 .977-.977.98.98 0 0 0-.977-.977zm0 0"/></g><g id="G" fill="#ec4a81"><path d="M281.646 234.678l-16.663-16.663a1.76 1.76 0 0 0-1.243-.515h-44.482a1.76 1.76 0 0 0-1.758 1.758v86.484a1.76 1.76 0 0 0 1.758 1.758h61.145a1.76 1.76 0 0 0 1.758-1.758v-69.82a1.76 1.76 0 0 0-.515-1.243zm-5.57-.485h-10.6v-10.57zm-55.06 69.8v-82.97h40.966v14.92c0 .963.782 1.743 1.748 1.743h14.916v66.305zm47.12-49.823H265.2a16.41 16.41 0 0 0-.733-1.768l2.07-2.07a1.76 1.76 0 0 0 0-2.486l-5.06-5.06a1.76 1.76 0 0 0-2.486 0l-2.07 2.07c-.575-.28-1.165-.524-1.768-.733v-2.924a1.76 1.76 0 0 0-1.758-1.758h-7.153a1.76 1.76 0 0 0-1.758 1.758v2.924a16.31 16.31 0 0 0-1.767.733l-2.07-2.07a1.76 1.76 0 0 0-2.486 0l-5.058 5.06a1.76 1.76 0 0 0 0 2.486l2.07 2.07c-.28.575-.524 1.165-.733 1.768h-2.925a1.76 1.76 0 0 0-1.758 1.758v7.153a1.76 1.76 0 0 0 1.758 1.758h2.926c.2.603.453 1.193.733 1.767l-2.07 2.07a1.76 1.76 0 0 0 0 2.486l5.058 5.058a1.76 1.76 0 0 0 2.486 0l2.07-2.07a16.08 16.08 0 0 0 1.767.733v2.924a1.76 1.76 0 0 0 1.758 1.758h7.153a1.76 1.76 0 0 0 1.758-1.758v-2.924a16.14 16.14 0 0 0 1.768-.733l2.07 2.07a1.76 1.76 0 0 0 2.486 0l5.06-5.058a1.76 1.76 0 0 0 0-2.486l-2.07-2.07a16.14 16.14 0 0 0 .733-1.768h2.925a1.76 1.76 0 0 0 1.758-1.758v-7.153a1.76 1.76 0 0 0-1.758-1.758zm-1.758 7.153h-2.473a1.76 1.76 0 0 0-1.704 1.325 12.67 12.67 0 0 1-1.4 3.376 1.76 1.76 0 0 0 .267 2.143l1.75 1.75-2.573 2.572-1.75-1.75a1.76 1.76 0 0 0-2.143-.267c-1.053.628-2.2 1.1-3.376 1.4a1.76 1.76 0 0 0-1.326 1.704v2.474h-3.638v-2.473a1.76 1.76 0 0 0-1.326-1.704 12.69 12.69 0 0 1-3.376-1.399 1.76 1.76 0 0 0-2.143.267l-1.75 1.75-2.572-2.572 1.75-1.75a1.76 1.76 0 0 0 .267-2.143 12.81 12.81 0 0 1-1.4-3.376 1.76 1.76 0 0 0-1.704-1.326h-2.474v-3.638h2.473a1.76 1.76 0 0 0 1.704-1.326 12.66 12.66 0 0 1 1.4-3.376 1.76 1.76 0 0 0-.267-2.143l-1.75-1.75 2.572-2.572 1.75 1.75c.57.57 1.452.68 2.142.267a12.69 12.69 0 0 1 3.376-1.4 1.76 1.76 0 0 0 1.327-1.704v-2.474h3.638v2.474a1.76 1.76 0 0 0 1.326 1.704 12.65 12.65 0 0 1 3.376 1.399 1.76 1.76 0 0 0 2.143-.267l1.75-1.75 2.572 2.572-1.75 1.75c-.57.57-.68 1.45-.267 2.142.628 1.055 1.1 2.2 1.4 3.376a1.76 1.76 0 0 0 1.704 1.326h2.474zm0 0"/><path d="M249.83 251.178c-4.585 0-8.315 3.73-8.315 8.315a8.33 8.33 0 0 0 8.315 8.315 8.33 8.33 0 0 0 8.316-8.315c0-4.585-3.73-8.315-8.316-8.315zm0 13.115c-2.646 0-4.8-2.153-4.8-4.8s2.153-4.8 4.8-4.8 4.8 2.153 4.8 4.8-2.153 4.8-4.8 4.8zm-7.03 28.71h-10.734a1.76 1.76 0 0 0-1.758 1.758 1.76 1.76 0 0 0 1.758 1.758H242.8a1.76 1.76 0 0 0 1.758-1.758 1.76 1.76 0 0 0-1.758-1.758zm0 0"/><path d="M267.595 293.002H256.86a1.76 1.76 0 0 0-1.758 1.758 1.76 1.76 0 0 0 1.758 1.758h10.734a1.76 1.76 0 0 0 1.758-1.758 1.76 1.76 0 0 0-1.758-1.758zm-6.472-4.197a1.76 1.76 0 0 0 1.758-1.758 1.76 1.76 0 0 0-1.758-1.758H238.54a1.76 1.76 0 0 0-1.758 1.758 1.76 1.76 0 0 0 1.758 1.758zm-11.293 4.197a1.76 1.76 0 0 0-1.758 1.758 1.76 1.76 0 0 0 1.758 1.758 1.76 1.76 0 0 0 1.758-1.758 1.76 1.76 0 0 0-1.758-1.758zm0 0"/></g><path d="M197.828 6.195h-3.42a26.1 26.1 0 0 0-2.633-6.347l2.42-2.42c.457-.458.457-1.2 0-1.658l-7.966-7.966a1.17 1.17 0 0 0-1.658 0l-2.42 2.42a26.08 26.08 0 0 0-6.347-2.632v-3.42A1.17 1.17 0 0 0 174.633-17h-11.266a1.17 1.17 0 0 0-1.172 1.172v3.42a26.07 26.07 0 0 0-6.347 2.632l-2.42-2.42a1.17 1.17 0 0 0-1.657 0l-7.966 7.966a1.17 1.17 0 0 0 0 1.658l2.42 2.42a26.06 26.06 0 0 0-2.633 6.347h-3.42A1.17 1.17 0 0 0 139 7.367v11.266a1.17 1.17 0 0 0 1.172 1.172h3.42a26.09 26.09 0 0 0 2.632 6.347l-2.42 2.42a1.17 1.17 0 0 0 0 1.657l7.966 7.966c.458.457 1.2.457 1.657 0l2.42-2.42a26.06 26.06 0 0 0 6.347 2.633v3.42A1.17 1.17 0 0 0 163.367 43h.945a1.17 1.17 0 0 0 1.172-1.172 1.17 1.17 0 0 0-.945-1.15V37.5a1.17 1.17 0 0 0-.91-1.142c-2.6-.596-5.07-1.62-7.338-3.043a1.17 1.17 0 0 0-1.452.164l-2.24 2.24-6.3-6.3 2.24-2.24a1.17 1.17 0 0 0 .164-1.452c-1.423-2.268-2.447-4.737-3.043-7.338a1.17 1.17 0 0 0-1.142-.91h-3.165V8.54h3.165a1.17 1.17 0 0 0 1.142-.91 23.78 23.78 0 0 1 3.044-7.34 1.17 1.17 0 0 0-.164-1.451L146.3-3.4l6.3-6.3 2.24 2.24c.387.386 1 .454 1.452.164a23.77 23.77 0 0 1 7.338-3.043 1.17 1.17 0 0 0 .91-1.142v-3.165h8.922v3.165a1.17 1.17 0 0 0 .91 1.142 23.77 23.77 0 0 1 7.338 3.043 1.17 1.17 0 0 0 1.452-.164l2.24-2.24 6.3 6.3-2.24 2.24a1.17 1.17 0 0 0-.164 1.452c1.423 2.268 2.447 4.737 3.043 7.338a1.17 1.17 0 0 0 1.142.91h3.165v8.922h-3.165a1.17 1.17 0 0 0-1.143.91 23.75 23.75 0 0 1-3.043 7.338 1.16 1.16 0 0 0 .164 1.452l2.24 2.24-6.3 6.3-2.24-2.24a1.17 1.17 0 0 0-1.451-.164c-2.268 1.423-4.737 2.447-7.34 3.043a1.17 1.17 0 0 0-.91 1.142v3.186a1.17 1.17 0 0 0-.945 1.15A1.17 1.17 0 0 0 173.687 43h.945a1.17 1.17 0 0 0 1.172-1.172v-3.42a26.07 26.07 0 0 0 6.347-2.632l2.42 2.42a1.17 1.17 0 0 0 1.658 0l7.966-7.966a1.17 1.17 0 0 0 0-1.657l-2.42-2.42a26.08 26.08 0 0 0 2.633-6.347h3.42A1.17 1.17 0 0 0 199 18.633V7.367a1.17 1.17 0 0 0-1.172-1.172zm-9.7 6.805c0-10.547-8.58-19.128-19.128-19.128S149.872 2.453 149.872 13s8.58 19.128 19.128 19.128 19.128-8.58 19.128-19.128zm-21.44 16.625a1.01 1.01 0 0 0-.068-.057c-2.44-1.845-4.205-4.4-5.285-7.664 1.98-.817 4.13-1.295 6.4-1.416v9.25a16.39 16.39 0 0 1-1.046-.112zm-.068-33.192c.024-.018.045-.037.067-.056a16.44 16.44 0 0 1 1.047-.113v9.25c-2.27-.12-4.42-.6-6.4-1.416 1.08-3.256 2.845-5.82 5.285-7.664zm4.556 0c2.442 1.847 4.207 4.412 5.287 7.67-1.976.814-4.126 1.3-6.402 1.4V-3.75a17.08 17.08 0 0 1 1.012.093c.033.03.066.06.103.088zm0 33.136a1.13 1.13 0 0 0-.103.089 17.1 17.1 0 0 1-1.011.093v-9.263c2.276.12 4.426.596 6.402 1.4-1.08 3.258-2.846 5.824-5.288 7.67zm-1.114-11.4v-4h7.653c-.06 1.98-.272 3.8-.638 5.486-2.176-.86-4.53-1.357-7.015-1.475zm0-6.326V7.83c2.484-.118 4.84-.616 7.015-1.475.366 1.678.58 3.507.64 5.486zm-2.327-4v4h-7.653c.06-1.98.273-3.813.64-5.493 2.18.862 4.534 1.362 7.013 1.48zm0 6.327v4c-2.48.12-4.834.62-7.013 1.48-.367-1.68-.58-3.5-.64-5.492zm7.895 14.26c1.24-1.58 2.223-3.408 2.943-5.485.873.503 1.703 1.08 2.485 1.73-1.534 1.585-3.376 2.87-5.428 3.755zm10.114-16.576h-5.7c-.066-2.35-.335-4.514-.806-6.5 1.172-.632 2.28-1.382 3.315-2.243a16.69 16.69 0 0 1 3.192 8.732zm-5.7 2.315h5.7c-.222 3.25-1.374 6.25-3.192 8.732-1.035-.86-2.142-1.6-3.315-2.243.47-1.976.74-4.14.806-6.5zm1.014-12.82c-.782.65-1.6 1.227-2.484 1.73-.72-2.077-1.704-3.907-2.943-5.485a16.85 16.85 0 0 1 5.428 3.755zm-19-3.617c-1.187 1.545-2.132 3.326-2.83 5.34a17.97 17.97 0 0 1-2.372-1.633c1.473-1.545 3.237-2.8 5.203-3.707zm-9.8 16.437h5.497c.066 2.352.336 4.52.808 6.497a20.18 20.18 0 0 0-3.19 2.133 16.68 16.68 0 0 1-3.116-8.63zm5.497-2.315h-5.497a16.69 16.69 0 0 1 3.116-8.629 20.16 20.16 0 0 0 3.19 2.133c-.472 1.978-.742 4.145-.808 6.497zm-.9 12.73a17.93 17.93 0 0 1 2.372-1.633c.7 2.014 1.644 3.796 2.832 5.34a16.87 16.87 0 0 1-5.203-3.707zM169 40.656c-.645 0-1.172.526-1.172 1.172S168.355 43 169 43s1.172-.526 1.172-1.172-.526-1.172-1.172-1.172zm0 0" id="H" fill="#ec4a81"/><path id="I" d="M0 0h350v350H0z"/></defs><pattern id="J" width="350" height="350" patternUnits="userSpaceOnUse"><use xlink:href="#A" x="-350" y="-350"/><use xlink:href="#A" y="-350"/><use xlink:href="#A" x="350" y="-350"/><use xlink:href="#A" x="-350"/><use xlink:href="#A"/><use xlink:href="#A" x="350"/><use xlink:href="#A" x="-350" y="350"/><use xlink:href="#A" y="350"/><use xlink:href="#A" x="350" y="350"/></pattern><use xlink:href="#I" fill="url(#J)"/><pattern id="K" width="350" height="350" patternUnits="userSpaceOnUse"><use xlink:href="#B" x="-350" y="-350"/><use xlink:href="#B" y="-350"/><use xlink:href="#B" x="350" y="-350"/><use xlink:href="#B" x="-350"/><use xlink:href="#B"/><use xlink:href="#B" x="350"/><use xlink:href="#B" x="-350" y="350"/><use xlink:href="#B" y="350"/><use xlink:href="#B" x="350" y="350"/></pattern><use xlink:href="#I" fill="url(#K)"/><pattern id="L" width="350" height="350" patternUnits="userSpaceOnUse"><use xlink:href="#C" x="-350" y="-350"/><use xlink:href="#C" y="-350"/><use xlink:href="#C" x="350" y="-350"/><use xlink:href="#C" x="-350"/><use xlink:href="#C"/><use xlink:href="#C" x="350"/><use xlink:href="#C" x="-350" y="350"/><use xlink:href="#C" y="350"/><use xlink:href="#C" x="350" y="350"/></pattern><use xlink:href="#I" fill="url(#L)"/><pattern id="M" width="350" height="350" patternUnits="userSpaceOnUse"><use xlink:href="#D" x="-350" y="-350"/><use xlink:href="#D" y="-350"/><use xlink:href="#D" x="350" y="-350"/><use xlink:href="#D" x="-350"/><use xlink:href="#D"/><use xlink:href="#D" x="350"/><use xlink:href="#D" x="-350" y="350"/><use xlink:href="#D" y="350"/><use xlink:href="#D" x="350" y="350"/></pattern><use xlink:href="#I" fill="url(#M)"/><pattern id="N" width="350" height="350" patternUnits="userSpaceOnUse"><use xlink:href="#E" x="-350" y="-350"/><use xlink:href="#E" y="-350"/><use xlink:href="#E" x="350" y="-350"/><use xlink:href="#E" x="-350"/><use xlink:href="#E"/><use xlink:href="#E" x="350"/><use xlink:href="#E" x="-350" y="350"/><use xlink:href="#E" y="350"/><use xlink:href="#E" x="350" y="350"/></pattern><use xlink:href="#I" fill="url(#N)"/><pattern id="O" width="350" height="350" patternUnits="userSpaceOnUse"><use xlink:href="#F" x="-350" y="-350"/><use xlink:href="#F" y="-350"/><use xlink:href="#F" x="350" y="-350"/><use xlink:href="#F" x="-350"/><use xlink:href="#F"/><use xlink:href="#F" x="350"/><use xlink:href="#F" x="-350" y="350"/><use xlink:href="#F" y="350"/><use xlink:href="#F" x="350" y="350"/></pattern><use xlink:href="#I" fill="url(#O)"/><pattern id="P" width="350" height="350" patternUnits="userSpaceOnUse"><use xlink:href="#G" x="-350" y="-350"/><use xlink:href="#G" y="-350"/><use xlink:href="#G" x="350" y="-350"/><use xlink:href="#G" x="-350"/><use xlink:href="#G"/><use xlink:href="#G" x="350"/><use xlink:href="#G" x="-350" y="350"/><use xlink:href="#G" y="350"/><use xlink:href="#G" x="350" y="350"/></pattern><use xlink:href="#I" fill="url(#P)"/><pattern id="Q" width="350" height="350" patternUnits="userSpaceOnUse"><use xlink:href="#H" x="-350" y="-350"/><use xlink:href="#H" y="-350"/><use xlink:href="#H" x="350" y="-350"/><use xlink:href="#H" x="-350"/><use xlink:href="#H"/><use xlink:href="#H" x="350"/><use xlink:href="#H" x="-350" y="350"/><use xlink:href="#H" y="350"/><use xlink:href="#H" x="350" y="350"/></pattern><use xlink:href="#I" fill="url(#Q)"/></svg>